<?xml version="1.0" standalone="no"?>
 <!DOCTYPE svg PUBLIC "-//W3C//DTD SVG 1.1//EN" 
 "http://www.w3.org/Graphics/SVG/1.1/DTD/svg11.dtd"> 
<svg xmlns="http://www.w3.org/2000/svg" version="1.1" 
    width="29.7002cm" height="21.0007cm" viewBox="0 0 116930 82680 ">
<title>SVG Picture created as ControlModule.svg date 2019/06/19 12:51:31 </title>
  <desc>Picture generated by Eeschema-SVG </desc>
<g style="fill:#000000; fill-opacity:1;stroke:#000000; stroke-opacity:1;
stroke-linecap:round; stroke-linejoin:round; "
 transform="translate(0 0) scale(1 1)">
</g>
<g style="fill:#000000; fill-opacity:0.0; 
stroke:#000000; stroke-width:-10; stroke-opacity:1; 
stroke-linecap:round; stroke-linejoin:round;">
</g>
<g style="fill:#840000; fill-opacity:0.0; 
stroke:#840000; stroke-width:-10; stroke-opacity:1; 
stroke-linecap:round; stroke-linejoin:round;">
</g>
<g style="fill:#840000; fill-opacity:0.0; 
stroke:#840000; stroke-width:100; stroke-opacity:1; 
stroke-linecap:round; stroke-linejoin:round;">
</g>
<g style="fill:#840000; fill-opacity:0.0; 
stroke:#840000; stroke-width:60; stroke-opacity:1; 
stroke-linecap:round; stroke-linejoin:round;">
<rect x="69690" y="65360" width="42520" height="12600" rx="0" />
</g>
<g style="fill:#840000; fill-opacity:0.0; 
stroke:#840000; stroke-width:100; stroke-opacity:1; 
stroke-linecap:round; stroke-linejoin:round;">
</g>
<g style="fill:#840000; fill-opacity:0.0; 
stroke:#840000; stroke-width:60; stroke-opacity:1; 
stroke-linecap:round; stroke-linejoin:round;">
<rect x="3940" y="3940" width="109050" height="74800" rx="0" />
</g>
<g style="fill:#840000; fill-opacity:0.0; 
stroke:#840000; stroke-width:100; stroke-opacity:1; 
stroke-linecap:round; stroke-linejoin:round;">
</g>
<g style="fill:#840000; fill-opacity:0.0; 
stroke:#840000; stroke-width:60; stroke-opacity:1; 
stroke-linecap:round; stroke-linejoin:round;">
<rect x="4720" y="4720" width="107490" height="73240" rx="0" />
</g>
<g style="fill:#840000; fill-opacity:0.0; 
stroke:#840000; stroke-width:100; stroke-opacity:1; 
stroke-linecap:round; stroke-linejoin:round;">
</g>
<g style="fill:#840000; fill-opacity:0.0; 
stroke:#840000; stroke-width:60; stroke-opacity:1; 
stroke-linecap:round; stroke-linejoin:round;">
<path d="M23620 4720
L23620 3940
" />
</g>
<g style="fill:#840000; fill-opacity:0.0; 
stroke:#840000; stroke-width:100; stroke-opacity:1; 
stroke-linecap:round; stroke-linejoin:round;">
</g>
<g style="fill:#840000; fill-opacity:0.0; 
stroke:#840000; stroke-width:60; stroke-opacity:1; 
stroke-linecap:round; stroke-linejoin:round;">
<path d="M43310 4720
L43310 3940
" />
</g>
<g style="fill:#840000; fill-opacity:0.0; 
stroke:#840000; stroke-width:100; stroke-opacity:1; 
stroke-linecap:round; stroke-linejoin:round;">
</g>
<g style="fill:#840000; fill-opacity:0.0; 
stroke:#840000; stroke-width:60; stroke-opacity:1; 
stroke-linecap:round; stroke-linejoin:round;">
<path d="M62990 4720
L62990 3940
" />
</g>
<g style="fill:#840000; fill-opacity:0.0; 
stroke:#840000; stroke-width:100; stroke-opacity:1; 
stroke-linecap:round; stroke-linejoin:round;">
</g>
<g style="fill:#840000; fill-opacity:0.0; 
stroke:#840000; stroke-width:60; stroke-opacity:1; 
stroke-linecap:round; stroke-linejoin:round;">
<path d="M82680 4720
L82680 3940
" />
</g>
<g style="fill:#840000; fill-opacity:0.0; 
stroke:#840000; stroke-width:100; stroke-opacity:1; 
stroke-linecap:round; stroke-linejoin:round;">
</g>
<g style="fill:#840000; fill-opacity:0.0; 
stroke:#840000; stroke-width:60; stroke-opacity:1; 
stroke-linecap:round; stroke-linejoin:round;">
<path d="M102360 4720
L102360 3940
" />
</g>
<g style="fill:#840000; fill-opacity:0.0; 
stroke:#840000; stroke-width:100; stroke-opacity:1; 
stroke-linecap:round; stroke-linejoin:round;">
</g>
<g style="fill:#840000; fill-opacity:0.0; 
stroke:#840000; stroke-width:60; stroke-opacity:1; 
stroke-linecap:round; stroke-linejoin:round;">
<path d="M14190 4560
L13900 4560
" />
<path d="M14050 4560
L14050 4050
L14000 4120
L13950 4170
L13900 4190
" />
</g>
<g style="fill:#840000; fill-opacity:0.0; 
stroke:#840000; stroke-width:100; stroke-opacity:1; 
stroke-linecap:round; stroke-linejoin:round;">
</g>
<g style="fill:#840000; fill-opacity:0.0; 
stroke:#840000; stroke-width:60; stroke-opacity:1; 
stroke-linecap:round; stroke-linejoin:round;">
<path d="M33580 4090
L33610 4070
L33660 4050
L33780 4050
L33830 4070
L33850 4090
L33870 4140
L33870 4190
L33850 4260
L33560 4560
L33870 4560
" />
</g>
<g style="fill:#840000; fill-opacity:0.0; 
stroke:#840000; stroke-width:100; stroke-opacity:1; 
stroke-linecap:round; stroke-linejoin:round;">
</g>
<g style="fill:#840000; fill-opacity:0.0; 
stroke:#840000; stroke-width:60; stroke-opacity:1; 
stroke-linecap:round; stroke-linejoin:round;">
<path d="M53250 4050
L53560 4050
L53390 4240
L53470 4240
L53520 4260
L53540 4290
L53560 4340
L53560 4460
L53540 4510
L53520 4530
L53470 4560
L53320 4560
L53270 4530
L53250 4510
" />
</g>
<g style="fill:#840000; fill-opacity:0.0; 
stroke:#840000; stroke-width:100; stroke-opacity:1; 
stroke-linecap:round; stroke-linejoin:round;">
</g>
<g style="fill:#840000; fill-opacity:0.0; 
stroke:#840000; stroke-width:60; stroke-opacity:1; 
stroke-linecap:round; stroke-linejoin:round;">
<path d="M73200 4220
L73200 4560
" />
<path d="M73070 4020
L72950 4390
L73270 4390
" />
</g>
<g style="fill:#840000; fill-opacity:0.0; 
stroke:#840000; stroke-width:100; stroke-opacity:1; 
stroke-linecap:round; stroke-linejoin:round;">
</g>
<g style="fill:#840000; fill-opacity:0.0; 
stroke:#840000; stroke-width:60; stroke-opacity:1; 
stroke-linecap:round; stroke-linejoin:round;">
<path d="M92910 4050
L92670 4050
L92640 4290
L92670 4260
L92720 4240
L92840 4240
L92890 4260
L92910 4290
L92930 4340
L92930 4460
L92910 4510
L92890 4530
L92840 4560
L92720 4560
L92670 4530
L92640 4510
" />
</g>
<g style="fill:#840000; fill-opacity:0.0; 
stroke:#840000; stroke-width:100; stroke-opacity:1; 
stroke-linecap:round; stroke-linejoin:round;">
</g>
<g style="fill:#840000; fill-opacity:0.0; 
stroke:#840000; stroke-width:60; stroke-opacity:1; 
stroke-linecap:round; stroke-linejoin:round;">
<path d="M112570 4050
L112470 4050
L112420 4070
L112400 4090
L112350 4170
L112320 4260
L112320 4460
L112350 4510
L112370 4530
L112420 4560
L112520 4560
L112570 4530
L112590 4510
L112610 4460
L112610 4340
L112590 4290
L112570 4260
L112520 4240
L112420 4240
L112370 4260
L112350 4290
L112320 4340
" />
</g>
<g style="fill:#840000; fill-opacity:0.0; 
stroke:#840000; stroke-width:100; stroke-opacity:1; 
stroke-linecap:round; stroke-linejoin:round;">
</g>
<g style="fill:#840000; fill-opacity:0.0; 
stroke:#840000; stroke-width:60; stroke-opacity:1; 
stroke-linecap:round; stroke-linejoin:round;">
<path d="M23620 77960
L23620 78740
" />
</g>
<g style="fill:#840000; fill-opacity:0.0; 
stroke:#840000; stroke-width:100; stroke-opacity:1; 
stroke-linecap:round; stroke-linejoin:round;">
</g>
<g style="fill:#840000; fill-opacity:0.0; 
stroke:#840000; stroke-width:60; stroke-opacity:1; 
stroke-linecap:round; stroke-linejoin:round;">
<path d="M43310 77960
L43310 78740
" />
</g>
<g style="fill:#840000; fill-opacity:0.0; 
stroke:#840000; stroke-width:100; stroke-opacity:1; 
stroke-linecap:round; stroke-linejoin:round;">
</g>
<g style="fill:#840000; fill-opacity:0.0; 
stroke:#840000; stroke-width:60; stroke-opacity:1; 
stroke-linecap:round; stroke-linejoin:round;">
<path d="M62990 77960
L62990 78740
" />
</g>
<g style="fill:#840000; fill-opacity:0.0; 
stroke:#840000; stroke-width:100; stroke-opacity:1; 
stroke-linecap:round; stroke-linejoin:round;">
</g>
<g style="fill:#840000; fill-opacity:0.0; 
stroke:#840000; stroke-width:60; stroke-opacity:1; 
stroke-linecap:round; stroke-linejoin:round;">
<path d="M82680 77960
L82680 78740
" />
</g>
<g style="fill:#840000; fill-opacity:0.0; 
stroke:#840000; stroke-width:100; stroke-opacity:1; 
stroke-linecap:round; stroke-linejoin:round;">
</g>
<g style="fill:#840000; fill-opacity:0.0; 
stroke:#840000; stroke-width:60; stroke-opacity:1; 
stroke-linecap:round; stroke-linejoin:round;">
<path d="M102360 77960
L102360 78740
" />
</g>
<g style="fill:#840000; fill-opacity:0.0; 
stroke:#840000; stroke-width:100; stroke-opacity:1; 
stroke-linecap:round; stroke-linejoin:round;">
</g>
<g style="fill:#840000; fill-opacity:0.0; 
stroke:#840000; stroke-width:60; stroke-opacity:1; 
stroke-linecap:round; stroke-linejoin:round;">
<path d="M14190 78580
L13900 78580
" />
<path d="M14050 78580
L14050 78070
L14000 78140
L13950 78190
L13900 78210
" />
</g>
<g style="fill:#840000; fill-opacity:0.0; 
stroke:#840000; stroke-width:100; stroke-opacity:1; 
stroke-linecap:round; stroke-linejoin:round;">
</g>
<g style="fill:#840000; fill-opacity:0.0; 
stroke:#840000; stroke-width:60; stroke-opacity:1; 
stroke-linecap:round; stroke-linejoin:round;">
<path d="M33580 78110
L33610 78090
L33660 78070
L33780 78070
L33830 78090
L33850 78110
L33870 78160
L33870 78210
L33850 78280
L33560 78580
L33870 78580
" />
</g>
<g style="fill:#840000; fill-opacity:0.0; 
stroke:#840000; stroke-width:100; stroke-opacity:1; 
stroke-linecap:round; stroke-linejoin:round;">
</g>
<g style="fill:#840000; fill-opacity:0.0; 
stroke:#840000; stroke-width:60; stroke-opacity:1; 
stroke-linecap:round; stroke-linejoin:round;">
<path d="M53250 78070
L53560 78070
L53390 78260
L53470 78260
L53520 78280
L53540 78310
L53560 78360
L53560 78480
L53540 78530
L53520 78550
L53470 78580
L53320 78580
L53270 78550
L53250 78530
" />
</g>
<g style="fill:#840000; fill-opacity:0.0; 
stroke:#840000; stroke-width:100; stroke-opacity:1; 
stroke-linecap:round; stroke-linejoin:round;">
</g>
<g style="fill:#840000; fill-opacity:0.0; 
stroke:#840000; stroke-width:60; stroke-opacity:1; 
stroke-linecap:round; stroke-linejoin:round;">
<path d="M73200 78240
L73200 78580
" />
<path d="M73070 78040
L72950 78410
L73270 78410
" />
</g>
<g style="fill:#840000; fill-opacity:0.0; 
stroke:#840000; stroke-width:100; stroke-opacity:1; 
stroke-linecap:round; stroke-linejoin:round;">
</g>
<g style="fill:#840000; fill-opacity:0.0; 
stroke:#840000; stroke-width:60; stroke-opacity:1; 
stroke-linecap:round; stroke-linejoin:round;">
<path d="M92910 78070
L92670 78070
L92640 78310
L92670 78280
L92720 78260
L92840 78260
L92890 78280
L92910 78310
L92930 78360
L92930 78480
L92910 78530
L92890 78550
L92840 78580
L92720 78580
L92670 78550
L92640 78530
" />
</g>
<g style="fill:#840000; fill-opacity:0.0; 
stroke:#840000; stroke-width:100; stroke-opacity:1; 
stroke-linecap:round; stroke-linejoin:round;">
</g>
<g style="fill:#840000; fill-opacity:0.0; 
stroke:#840000; stroke-width:60; stroke-opacity:1; 
stroke-linecap:round; stroke-linejoin:round;">
<path d="M112570 78070
L112470 78070
L112420 78090
L112400 78110
L112350 78190
L112320 78280
L112320 78480
L112350 78530
L112370 78550
L112420 78580
L112520 78580
L112570 78550
L112590 78530
L112610 78480
L112610 78360
L112590 78310
L112570 78280
L112520 78260
L112420 78260
L112370 78280
L112350 78310
L112320 78360
" />
</g>
<g style="fill:#840000; fill-opacity:0.0; 
stroke:#840000; stroke-width:100; stroke-opacity:1; 
stroke-linecap:round; stroke-linejoin:round;">
</g>
<g style="fill:#840000; fill-opacity:0.0; 
stroke:#840000; stroke-width:60; stroke-opacity:1; 
stroke-linecap:round; stroke-linejoin:round;">
<path d="M3940 23620
L4720 23620
" />
</g>
<g style="fill:#840000; fill-opacity:0.0; 
stroke:#840000; stroke-width:100; stroke-opacity:1; 
stroke-linecap:round; stroke-linejoin:round;">
</g>
<g style="fill:#840000; fill-opacity:0.0; 
stroke:#840000; stroke-width:60; stroke-opacity:1; 
stroke-linecap:round; stroke-linejoin:round;">
<path d="M3940 43310
L4720 43310
" />
</g>
<g style="fill:#840000; fill-opacity:0.0; 
stroke:#840000; stroke-width:100; stroke-opacity:1; 
stroke-linecap:round; stroke-linejoin:round;">
</g>
<g style="fill:#840000; fill-opacity:0.0; 
stroke:#840000; stroke-width:60; stroke-opacity:1; 
stroke-linecap:round; stroke-linejoin:round;">
<path d="M3940 62990
L4720 62990
" />
</g>
<g style="fill:#840000; fill-opacity:0.0; 
stroke:#840000; stroke-width:100; stroke-opacity:1; 
stroke-linecap:round; stroke-linejoin:round;">
</g>
<g style="fill:#840000; fill-opacity:0.0; 
stroke:#840000; stroke-width:60; stroke-opacity:1; 
stroke-linecap:round; stroke-linejoin:round;">
<path d="M4200 13860
L4450 13860
" />
<path d="M4160 14010
L4330 13500
L4500 14010
" />
</g>
<g style="fill:#840000; fill-opacity:0.0; 
stroke:#840000; stroke-width:100; stroke-opacity:1; 
stroke-linecap:round; stroke-linejoin:round;">
</g>
<g style="fill:#840000; fill-opacity:0.0; 
stroke:#840000; stroke-width:60; stroke-opacity:1; 
stroke-linecap:round; stroke-linejoin:round;">
<path d="M4360 33420
L4430 33440
L4460 33470
L4480 33520
L4480 33590
L4460 33640
L4430 33660
L4390 33690
L4190 33690
L4190 33180
L4360 33180
L4410 33200
L4430 33220
L4460 33270
L4460 33320
L4430 33370
L4410 33390
L4360 33420
L4190 33420
" />
</g>
<g style="fill:#840000; fill-opacity:0.0; 
stroke:#840000; stroke-width:100; stroke-opacity:1; 
stroke-linecap:round; stroke-linejoin:round;">
</g>
<g style="fill:#840000; fill-opacity:0.0; 
stroke:#840000; stroke-width:60; stroke-opacity:1; 
stroke-linecap:round; stroke-linejoin:round;">
<path d="M4480 53330
L4460 53350
L4390 53380
L4340 53380
L4260 53350
L4220 53300
L4190 53250
L4170 53160
L4170 53080
L4190 52990
L4220 52940
L4260 52890
L4340 52870
L4390 52870
L4460 52890
L4480 52910
" />
</g>
<g style="fill:#840000; fill-opacity:0.0; 
stroke:#840000; stroke-width:100; stroke-opacity:1; 
stroke-linecap:round; stroke-linejoin:round;">
</g>
<g style="fill:#840000; fill-opacity:0.0; 
stroke:#840000; stroke-width:60; stroke-opacity:1; 
stroke-linecap:round; stroke-linejoin:round;">
<path d="M4190 73060
L4190 72550
L4310 72550
L4390 72570
L4430 72620
L4460 72670
L4480 72760
L4480 72840
L4460 72930
L4430 72980
L4390 73030
L4310 73060
L4190 73060
" />
</g>
<g style="fill:#840000; fill-opacity:0.0; 
stroke:#840000; stroke-width:100; stroke-opacity:1; 
stroke-linecap:round; stroke-linejoin:round;">
</g>
<g style="fill:#840000; fill-opacity:0.0; 
stroke:#840000; stroke-width:60; stroke-opacity:1; 
stroke-linecap:round; stroke-linejoin:round;">
<path d="M112990 23620
L112210 23620
" />
</g>
<g style="fill:#840000; fill-opacity:0.0; 
stroke:#840000; stroke-width:100; stroke-opacity:1; 
stroke-linecap:round; stroke-linejoin:round;">
</g>
<g style="fill:#840000; fill-opacity:0.0; 
stroke:#840000; stroke-width:60; stroke-opacity:1; 
stroke-linecap:round; stroke-linejoin:round;">
<path d="M112990 43310
L112210 43310
" />
</g>
<g style="fill:#840000; fill-opacity:0.0; 
stroke:#840000; stroke-width:100; stroke-opacity:1; 
stroke-linecap:round; stroke-linejoin:round;">
</g>
<g style="fill:#840000; fill-opacity:0.0; 
stroke:#840000; stroke-width:60; stroke-opacity:1; 
stroke-linecap:round; stroke-linejoin:round;">
<path d="M112990 62990
L112210 62990
" />
</g>
<g style="fill:#840000; fill-opacity:0.0; 
stroke:#840000; stroke-width:100; stroke-opacity:1; 
stroke-linecap:round; stroke-linejoin:round;">
</g>
<g style="fill:#840000; fill-opacity:0.0; 
stroke:#840000; stroke-width:60; stroke-opacity:1; 
stroke-linecap:round; stroke-linejoin:round;">
<path d="M112470 13860
L112720 13860
" />
<path d="M112430 14010
L112600 13500
L112770 14010
" />
</g>
<g style="fill:#840000; fill-opacity:0.0; 
stroke:#840000; stroke-width:100; stroke-opacity:1; 
stroke-linecap:round; stroke-linejoin:round;">
</g>
<g style="fill:#840000; fill-opacity:0.0; 
stroke:#840000; stroke-width:60; stroke-opacity:1; 
stroke-linecap:round; stroke-linejoin:round;">
<path d="M112630 33420
L112700 33440
L112730 33470
L112750 33520
L112750 33590
L112730 33640
L112700 33660
L112660 33690
L112460 33690
L112460 33180
L112630 33180
L112680 33200
L112700 33220
L112730 33270
L112730 33320
L112700 33370
L112680 33390
L112630 33420
L112460 33420
" />
</g>
<g style="fill:#840000; fill-opacity:0.0; 
stroke:#840000; stroke-width:100; stroke-opacity:1; 
stroke-linecap:round; stroke-linejoin:round;">
</g>
<g style="fill:#840000; fill-opacity:0.0; 
stroke:#840000; stroke-width:60; stroke-opacity:1; 
stroke-linecap:round; stroke-linejoin:round;">
<path d="M112750 53330
L112730 53350
L112660 53380
L112610 53380
L112530 53350
L112490 53300
L112460 53250
L112440 53160
L112440 53080
L112460 52990
L112490 52940
L112530 52890
L112610 52870
L112660 52870
L112730 52890
L112750 52910
" />
</g>
<g style="fill:#840000; fill-opacity:0.0; 
stroke:#840000; stroke-width:100; stroke-opacity:1; 
stroke-linecap:round; stroke-linejoin:round;">
</g>
<g style="fill:#840000; fill-opacity:0.0; 
stroke:#840000; stroke-width:60; stroke-opacity:1; 
stroke-linecap:round; stroke-linejoin:round;">
<path d="M112460 73060
L112460 72550
L112580 72550
L112660 72570
L112700 72620
L112730 72670
L112750 72760
L112750 72840
L112730 72930
L112700 72980
L112660 73030
L112580 73060
L112460 73060
" />
</g>
<g style="fill:#840000; fill-opacity:0.0; 
stroke:#840000; stroke-width:100; stroke-opacity:1; 
stroke-linecap:round; stroke-linejoin:round;">
</g>
<g style="fill:#840000; fill-opacity:0.0; 
stroke:#840000; stroke-width:60; stroke-opacity:1; 
stroke-linecap:round; stroke-linejoin:round;">
<path d="M78910 76290
L78910 75700
L79050 75700
L79130 75730
L79190 75790
L79210 75840
L79240 75950
L79240 76040
L79210 76150
L79190 76210
L79130 76260
L79050 76290
L78910 76290
" />
<path d="M79750 76290
L79750 75980
L79720 75930
L79660 75900
L79550 75900
L79500 75930
" />
<path d="M79750 76260
L79690 76290
L79550 76290
L79500 76260
L79470 76210
L79470 76150
L79500 76100
L79550 76070
L79690 76070
L79750 76040
" />
<path d="M79950 75900
L80170 75900
" />
<path d="M80030 75700
L80030 76210
L80060 76260
L80110 76290
L80170 76290
" />
<path d="M80590 76260
L80540 76290
L80420 76290
L80370 76260
L80340 76210
L80340 75980
L80370 75930
L80420 75900
L80540 75900
L80590 75930
L80620 75980
L80620 76040
L80340 76100
" />
<path d="M80870 76240
L80900 76260
L80870 76290
L80840 76260
L80870 76240
L80870 76290
" />
<path d="M80870 75930
L80900 75950
L80870 75980
L80840 75950
L80870 75930
L80870 75980
" />
<path d="M81570 75760
L81600 75730
L81660 75700
L81800 75700
L81860 75730
L81880 75760
L81910 75810
L81910 75870
L81880 75950
L81550 76290
L81910 76290
" />
<path d="M82280 75700
L82330 75700
L82390 75730
L82420 75760
L82450 75810
L82470 75930
L82470 76070
L82450 76180
L82420 76240
L82390 76260
L82330 76290
L82280 76290
L82220 76260
L82190 76240
L82160 76180
L82140 76070
L82140 75930
L82160 75810
L82190 75760
L82220 75730
L82280 75700
" />
<path d="M83040 76290
L82700 76290
" />
<path d="M82870 76290
L82870 75700
L82810 75790
L82750 75840
L82700 75870
" />
<path d="M83320 76290
L83430 76290
L83490 76260
L83510 76240
L83570 76150
L83600 76040
L83600 75810
L83570 75760
L83540 75730
L83490 75700
L83370 75700
L83320 75730
L83290 75760
L83260 75810
L83260 75950
L83290 76010
L83320 76040
L83370 76070
L83490 76070
L83540 76040
L83570 76010
L83600 75950
" />
<path d="M83850 76070
L84300 76070
" />
<path d="M84690 75700
L84750 75700
L84810 75730
L84830 75760
L84860 75810
L84890 75930
L84890 76070
L84860 76180
L84830 76240
L84810 76260
L84750 76290
L84690 76290
L84640 76260
L84610 76240
L84580 76180
L84550 76070
L84550 75930
L84580 75810
L84610 75760
L84640 75730
L84690 75700
" />
<path d="M85400 75900
L85400 76290
" />
<path d="M85260 75670
L85110 76100
L85480 76100
" />
<path d="M85700 76070
L86150 76070
" />
<path d="M86740 76290
L86410 76290
" />
<path d="M86580 76290
L86580 75700
L86520 75790
L86460 75840
L86410 75870
" />
<path d="M87310 76290
L86970 76290
" />
<path d="M87140 76290
L87140 75700
L87080 75790
L87030 75840
L86970 75870
" />
</g>
<g style="fill:#840000; fill-opacity:0.0; 
stroke:#840000; stroke-width:100; stroke-opacity:1; 
stroke-linecap:round; stroke-linejoin:round;">
</g>
<g style="fill:#840000; fill-opacity:0.0; 
stroke:#840000; stroke-width:60; stroke-opacity:1; 
stroke-linecap:round; stroke-linejoin:round;">
<path d="M69690 76580
L112210 76580
" />
</g>
<g style="fill:#840000; fill-opacity:0.0; 
stroke:#840000; stroke-width:100; stroke-opacity:1; 
stroke-linecap:round; stroke-linejoin:round;">
</g>
<g style="fill:#840000; fill-opacity:0.0; 
stroke:#840000; stroke-width:60; stroke-opacity:1; 
stroke-linecap:round; stroke-linejoin:round;">
<path d="M70250 77390
L70250 76800
" />
<path d="M70580 77390
L70330 77050
" />
<path d="M70580 76800
L70250 77140
" />
<path d="M70840 77390
L70840 77000
" />
<path d="M70840 76800
L70810 76830
L70840 76860
L70860 76830
L70840 76800
L70840 76860
" />
<path d="M71450 77340
L71430 77360
L71340 77390
L71290 77390
L71200 77360
L71140 77310
L71120 77250
L71090 77140
L71090 77050
L71120 76940
L71140 76890
L71200 76830
L71290 76800
L71340 76800
L71430 76830
L71450 76860
" />
<path d="M71960 77390
L71960 77080
L71930 77030
L71880 77000
L71760 77000
L71710 77030
" />
<path d="M71960 77360
L71900 77390
L71760 77390
L71710 77360
L71680 77310
L71680 77250
L71710 77200
L71760 77170
L71900 77170
L71960 77140
" />
<path d="M72490 77390
L72490 76800
" />
<path d="M72490 77360
L72440 77390
L72320 77390
L72270 77360
L72240 77340
L72210 77280
L72210 77110
L72240 77050
L72270 77030
L72320 77000
L72440 77000
L72490 77030
" />
<path d="M73220 77080
L73420 77080
" />
<path d="M73500 77390
L73220 77390
L73220 76800
L73500 76800
" />
<path d="M73760 77340
L73790 77360
L73760 77390
L73730 77360
L73760 77340
L73760 77390
" />
<path d="M74040 77390
L74040 76800
L74180 76800
L74260 76830
L74320 76890
L74350 76940
L74380 77050
L74380 77140
L74350 77250
L74320 77310
L74260 77360
L74180 77390
L74040 77390
" />
<path d="M74630 77340
L74660 77360
L74630 77390
L74600 77360
L74630 77340
L74630 77390
" />
<path d="M74880 77220
L75160 77220
" />
<path d="M74830 77390
L75020 76800
L75220 77390
" />
<path d="M75420 77340
L75440 77360
L75420 77390
L75390 77360
L75420 77340
L75420 77390
" />
<path d="M76600 77390
L76600 76800
" />
<path d="M76650 77170
L76820 77390
" />
<path d="M76820 77000
L76600 77220
" />
<path d="M77070 77390
L77070 77000
" />
<path d="M77070 76800
L77040 76830
L77070 76860
L77100 76830
L77070 76800
L77070 76860
" />
<path d="M77610 77360
L77550 77390
L77440 77390
L77380 77360
L77350 77340
L77330 77280
L77330 77110
L77350 77050
L77380 77030
L77440 77000
L77550 77000
L77610 77030
" />
<path d="M78110 77390
L78110 77080
L78080 77030
L78030 77000
L77920 77000
L77860 77030
" />
<path d="M78110 77360
L78060 77390
L77920 77390
L77860 77360
L77830 77310
L77830 77250
L77860 77200
L77920 77170
L78060 77170
L78110 77140
" />
<path d="M78650 77390
L78650 76800
" />
<path d="M78650 77360
L78590 77390
L78480 77390
L78420 77360
L78390 77340
L78370 77280
L78370 77110
L78390 77050
L78420 77030
L78480 77000
L78590 77000
L78650 77030
" />
<path d="M79550 77620
L79520 77590
L79460 77500
L79430 77450
L79400 77360
L79380 77220
L79380 77110
L79400 76970
L79430 76890
L79460 76830
L79520 76750
L79550 76720
" />
<path d="M80050 76800
L79770 76800
L79740 77080
L79770 77050
L79830 77030
L79970 77030
L80020 77050
L80050 77080
L80080 77140
L80080 77280
L80050 77340
L80020 77360
L79970 77390
L79830 77390
L79770 77360
L79740 77340
" />
<path d="M80330 77340
L80360 77360
L80330 77390
L80300 77360
L80330 77340
L80330 77390
" />
<path d="M80730 76800
L80780 76800
L80840 76830
L80870 76860
L80890 76910
L80920 77030
L80920 77170
L80890 77280
L80870 77340
L80840 77360
L80780 77390
L80730 77390
L80670 77360
L80640 77340
L80610 77280
L80580 77170
L80580 77030
L80610 76910
L80640 76860
L80670 76830
L80730 76800
" />
<path d="M81170 77340
L81200 77360
L81170 77390
L81150 77360
L81170 77340
L81170 77390
" />
<path d="M81570 76800
L81620 76800
L81680 76830
L81710 76860
L81740 76910
L81760 77030
L81760 77170
L81740 77280
L81710 77340
L81680 77360
L81620 77390
L81570 77390
L81510 77360
L81480 77340
L81460 77280
L81430 77170
L81430 77030
L81460 76910
L81480 76860
L81510 76830
L81570 76800
" />
<path d="M82020 77170
L82470 77170
" />
<path d="M82690 76800
L83060 76800
L82860 77030
L82940 77030
L83000 77050
L83030 77080
L83060 77140
L83060 77280
L83030 77340
L83000 77360
L82940 77390
L82780 77390
L82720 77360
L82690 77340
" />
<path d="M83310 77170
L83760 77170
" />
<path d="M84290 77000
L84290 77480
L84270 77530
L84240 77560
L84180 77590
L84100 77590
L84040 77560
" />
<path d="M84290 77360
L84240 77390
L84120 77390
L84070 77360
L84040 77340
L84010 77280
L84010 77110
L84040 77050
L84070 77030
L84120 77000
L84240 77000
L84290 77030
" />
<path d="M84860 76800
L84570 76800
L84550 77080
L84570 77050
L84630 77030
L84770 77030
L84830 77050
L84860 77080
L84880 77140
L84880 77280
L84860 77340
L84830 77360
L84770 77390
L84630 77390
L84570 77360
L84550 77340
" />
<path d="M85360 77360
L85300 77390
L85190 77390
L85140 77360
L85110 77310
L85110 77080
L85140 77030
L85190 77000
L85300 77000
L85360 77030
L85390 77080
L85390 77140
L85110 77200
" />
<path d="M85640 77390
L85640 76800
" />
<path d="M85640 77030
L85700 77000
L85810 77000
L85870 77030
L85890 77050
L85920 77110
L85920 77280
L85890 77340
L85870 77360
L85810 77390
L85700 77390
L85640 77360
" />
<path d="M86180 77390
L86180 76800
" />
<path d="M86180 77030
L86230 77000
L86340 77000
L86400 77030
L86430 77050
L86460 77110
L86460 77280
L86430 77340
L86400 77360
L86340 77390
L86230 77390
L86180 77360
" />
<path d="M86960 76800
L86850 76800
L86790 76830
L86770 76860
L86710 76940
L86680 77050
L86680 77280
L86710 77340
L86740 77360
L86790 77390
L86910 77390
L86960 77360
L86990 77340
L87020 77280
L87020 77140
L86990 77080
L86960 77050
L86910 77030
L86790 77030
L86740 77050
L86710 77080
L86680 77140
" />
<path d="M87270 77390
L87270 76800
" />
<path d="M87270 77030
L87330 77000
L87440 77000
L87500 77030
L87520 77050
L87550 77110
L87550 77280
L87520 77340
L87500 77360
L87440 77390
L87330 77390
L87270 77360
" />
<path d="M88060 76800
L87950 76800
L87890 76830
L87860 76860
L87810 76940
L87780 77050
L87780 77280
L87810 77340
L87830 77360
L87890 77390
L88000 77390
L88060 77360
L88090 77340
L88110 77280
L88110 77140
L88090 77080
L88060 77050
L88000 77030
L87890 77030
L87830 77050
L87810 77080
L87780 77140
" />
<path d="M88310 77620
L88340 77590
L88400 77500
L88420 77450
L88450 77360
L88480 77220
L88480 77110
L88450 76970
L88420 76890
L88400 76830
L88340 76750
L88310 76720
" />
</g>
<g style="fill:#840000; fill-opacity:0.0; 
stroke:#840000; stroke-width:100; stroke-opacity:1; 
stroke-linecap:round; stroke-linejoin:round;">
</g>
<g style="fill:#840000; fill-opacity:0.0; 
stroke:#840000; stroke-width:60; stroke-opacity:1; 
stroke-linecap:round; stroke-linejoin:round;">
<path d="M69690 75400
L112210 75400
" />
</g>
<g style="fill:#840000; fill-opacity:0.0; 
stroke:#840000; stroke-width:100; stroke-opacity:1; 
stroke-linecap:round; stroke-linejoin:round;">
</g>
<g style="fill:#840000; fill-opacity:0.0; 
stroke:#840000; stroke-width:120; stroke-opacity:1; 
stroke-linecap:round; stroke-linejoin:round;">
<path d="M104090 76290
L103890 76010
" />
<path d="M103750 76290
L103750 75700
L103980 75700
L104030 75730
L104060 75760
L104090 75810
L104090 75900
L104060 75950
L104030 75980
L103980 76010
L103750 76010
" />
<path d="M104570 76260
L104510 76290
L104400 76290
L104340 76260
L104320 76210
L104320 75980
L104340 75930
L104400 75900
L104510 75900
L104570 75930
L104600 75980
L104600 76040
L104320 76100
" />
<path d="M104790 75900
L104930 76290
L105070 75900
" />
<path d="M105300 76240
L105330 76260
L105300 76290
L105270 76260
L105300 76240
L105300 76290
" />
<path d="M105300 75930
L105330 75950
L105300 75980
L105270 75950
L105300 75930
L105300 75980
" />
<path d="M106230 75980
L106310 76010
L106340 76040
L106370 76100
L106370 76180
L106340 76240
L106310 76260
L106250 76290
L106030 76290
L106030 75700
L106230 75700
L106280 75730
L106310 75760
L106340 75810
L106340 75870
L106310 75930
L106280 75950
L106230 75980
L106030 75980
" />
</g>
<g style="fill:#840000; fill-opacity:0.0; 
stroke:#840000; stroke-width:100; stroke-opacity:1; 
stroke-linecap:round; stroke-linejoin:round;">
</g>
<g style="fill:#840000; fill-opacity:0.0; 
stroke:#840000; stroke-width:60; stroke-opacity:1; 
stroke-linecap:round; stroke-linejoin:round;">
<path d="M70220 76260
L70300 76290
L70440 76290
L70500 76260
L70530 76240
L70550 76180
L70550 76120
L70530 76070
L70500 76040
L70440 76010
L70330 75980
L70270 75950
L70250 75930
L70220 75870
L70220 75810
L70250 75760
L70270 75730
L70330 75700
L70470 75700
L70550 75730
" />
<path d="M70810 76290
L70810 75900
" />
<path d="M70810 75700
L70780 75730
L70810 75760
L70840 75730
L70810 75700
L70810 75760
" />
<path d="M71030 75900
L71340 75900
L71030 76290
L71340 76290
" />
<path d="M71790 76260
L71730 76290
L71620 76290
L71570 76260
L71540 76210
L71540 75980
L71570 75930
L71620 75900
L71730 75900
L71790 75930
L71820 75980
L71820 76040
L71540 76100
" />
<path d="M72070 76240
L72100 76260
L72070 76290
L72040 76260
L72070 76240
L72070 76290
" />
<path d="M72070 75930
L72100 75950
L72070 75980
L72040 75950
L72070 75930
L72070 75980
" />
<path d="M72770 76120
L73060 76120
" />
<path d="M72720 76290
L72910 75700
L73110 76290
" />
<path d="M73560 75900
L73560 76290
" />
<path d="M73420 75670
L73280 76100
L73650 76100
" />
</g>
<g style="fill:#840000; fill-opacity:0.0; 
stroke:#840000; stroke-width:100; stroke-opacity:1; 
stroke-linecap:round; stroke-linejoin:round;">
</g>
<g style="fill:#840000; fill-opacity:0.0; 
stroke:#840000; stroke-width:60; stroke-opacity:1; 
stroke-linecap:round; stroke-linejoin:round;">
<path d="M103710 77390
L103710 76800
" />
<path d="M104240 77390
L104240 76800
" />
<path d="M104240 77360
L104180 77390
L104070 77390
L104010 77360
L103990 77340
L103960 77280
L103960 77110
L103990 77050
L104010 77030
L104070 77000
L104180 77000
L104240 77030
" />
<path d="M104520 77340
L104550 77360
L104520 77390
L104490 77360
L104520 77340
L104520 77390
" />
<path d="M104520 77030
L104550 77050
L104520 77080
L104490 77050
L104520 77030
L104520 77080
" />
<path d="M105560 77390
L105220 77390
" />
<path d="M105390 77390
L105390 76800
L105340 76890
L105280 76940
L105220 76970
" />
<path d="M106230 76770
L105730 77530
" />
<path d="M106400 76860
L106430 76830
L106490 76800
L106630 76800
L106680 76830
L106710 76860
L106740 76910
L106740 76970
L106710 77050
L106370 77390
L106740 77390
" />
</g>
<g style="fill:#840000; fill-opacity:0.0; 
stroke:#840000; stroke-width:100; stroke-opacity:1; 
stroke-linecap:round; stroke-linejoin:round;">
</g>
<g style="fill:#840000; fill-opacity:0.0; 
stroke:#840000; stroke-width:60; stroke-opacity:1; 
stroke-linecap:round; stroke-linejoin:round;">
<path d="M69690 73820
L112210 73820
" />
</g>
<g style="fill:#840000; fill-opacity:0.0; 
stroke:#840000; stroke-width:100; stroke-opacity:1; 
stroke-linecap:round; stroke-linejoin:round;">
</g>
<g style="fill:#840000; fill-opacity:0.0; 
stroke:#840000; stroke-width:160; stroke-opacity:1; 
stroke-linecap:round; stroke-linejoin:round;">
<path d="M70360 74090
L70810 74090
" />
<path d="M70480 74880
L70580 74090
" />
<path d="M70970 74880
L71040 74360
" />
<path d="M71070 74090
L71030 74130
L71060 74170
L71110 74130
L71070 74090
L71060 74170
" />
<path d="M71300 74360
L71600 74360
" />
<path d="M71450 74090
L71360 74770
L71390 74840
L71460 74880
L71540 74880
" />
<path d="M71910 74880
L71840 74840
L71820 74770
L71900 74090
" />
<path d="M72520 74840
L72440 74880
L72290 74880
L72220 74840
L72190 74770
L72230 74470
L72280 74390
L72360 74360
L72510 74360
L72580 74390
L72610 74470
L72600 74540
L72210 74620
" />
<path d="M72900 74810
L72930 74840
L72890 74880
L72860 74840
L72900 74810
L72890 74880
" />
<path d="M72950 74390
L72990 74430
L72940 74470
L72910 74430
L72950 74390
L72940 74470
" />
</g>
<g style="fill:#840000; fill-opacity:0.0; 
stroke:#840000; stroke-width:100; stroke-opacity:1; 
stroke-linecap:round; stroke-linejoin:round;">
</g>
<g style="fill:#840000; fill-opacity:0.0; 
stroke:#840000; stroke-width:60; stroke-opacity:1; 
stroke-linecap:round; stroke-linejoin:round;">
<path d="M70440 73060
L70250 73060
" />
<path d="M70250 73370
L70250 72780
L70530 72780
" />
<path d="M70750 73370
L70750 72980
" />
<path d="M70750 72780
L70720 72810
L70750 72840
L70780 72810
L70750 72780
L70750 72840
" />
<path d="M71120 73370
L71060 73340
L71030 73290
L71030 72780
" />
<path d="M71570 73340
L71510 73370
L71400 73370
L71340 73340
L71310 73290
L71310 73060
L71340 73010
L71400 72980
L71510 72980
L71570 73010
L71590 73060
L71590 73120
L71310 73180
" />
<path d="M71850 73320
L71880 73340
L71850 73370
L71820 73340
L71850 73320
L71850 73370
" />
<path d="M71850 73010
L71880 73030
L71850 73060
L71820 73030
L71850 73010
L71850 73060
" />
<path d="M72910 73320
L72890 73340
L72800 73370
L72750 73370
L72660 73340
L72610 73290
L72580 73230
L72550 73120
L72550 73030
L72580 72920
L72610 72870
L72660 72810
L72750 72780
L72800 72780
L72890 72810
L72910 72840
" />
<path d="M73250 73370
L73200 73340
L73170 73320
L73140 73260
L73140 73090
L73170 73030
L73200 73010
L73250 72980
L73340 72980
L73390 73010
L73420 73030
L73450 73090
L73450 73260
L73420 73320
L73390 73340
L73340 73370
L73250 73370
" />
<path d="M73700 72980
L73700 73370
" />
<path d="M73700 73030
L73730 73010
L73790 72980
L73870 72980
L73930 73010
L73950 73060
L73950 73370
" />
<path d="M74150 72980
L74380 72980
" />
<path d="M74240 72780
L74240 73290
L74260 73340
L74320 73370
L74380 73370
" />
<path d="M74570 73370
L74570 72980
" />
<path d="M74570 73090
L74600 73030
L74630 73010
L74680 72980
L74740 72980
" />
<path d="M75020 73370
L74970 73340
L74940 73320
L74910 73260
L74910 73090
L74940 73030
L74970 73010
L75020 72980
L75110 72980
L75160 73010
L75190 73030
L75220 73090
L75220 73260
L75190 73320
L75160 73340
L75110 73370
L75020 73370
" />
<path d="M75560 73370
L75500 73340
L75470 73290
L75470 72780
" />
<path d="M75780 73370
L75780 72780
L75980 73200
L76170 72780
L76170 73370
" />
<path d="M76540 73370
L76480 73340
L76450 73320
L76430 73260
L76430 73090
L76450 73030
L76480 73010
L76540 72980
L76620 72980
L76680 73010
L76710 73030
L76740 73090
L76740 73260
L76710 73320
L76680 73340
L76620 73370
L76540 73370
" />
<path d="M77240 73370
L77240 72780
" />
<path d="M77240 73340
L77190 73370
L77070 73370
L77020 73340
L76990 73320
L76960 73260
L76960 73090
L76990 73030
L77020 73010
L77070 72980
L77190 72980
L77240 73010
" />
<path d="M77780 72980
L77780 73370
" />
<path d="M77520 72980
L77520 73290
L77550 73340
L77610 73370
L77690 73370
L77750 73340
L77780 73320
" />
<path d="M78140 73370
L78080 73340
L78060 73290
L78060 72780
" />
<path d="M78590 73340
L78530 73370
L78420 73370
L78370 73340
L78340 73290
L78340 73060
L78370 73010
L78420 72980
L78530 72980
L78590 73010
L78620 73060
L78620 73120
L78340 73180
" />
<path d="M78870 73320
L78900 73340
L78870 73370
L78840 73340
L78870 73320
L78870 73370
" />
<path d="M79120 73340
L79180 73370
L79290 73370
L79350 73340
L79380 73290
L79380 73260
L79350 73200
L79290 73180
L79210 73180
L79150 73150
L79120 73090
L79120 73060
L79150 73010
L79210 72980
L79290 72980
L79350 73010
" />
<path d="M79880 73340
L79830 73370
L79710 73370
L79660 73340
L79630 73320
L79600 73260
L79600 73090
L79630 73030
L79660 73010
L79710 72980
L79830 72980
L79880 73010
" />
<path d="M80140 73370
L80140 72780
" />
<path d="M80390 73370
L80390 73060
L80360 73010
L80300 72980
L80220 72980
L80160 73010
L80140 73030
" />
</g>
<g style="fill:#840000; fill-opacity:0.0; 
stroke:#840000; stroke-width:100; stroke-opacity:1; 
stroke-linecap:round; stroke-linejoin:round;">
</g>
<g style="fill:#840000; fill-opacity:0.0; 
stroke:#840000; stroke-width:60; stroke-opacity:1; 
stroke-linecap:round; stroke-linejoin:round;">
<path d="M69690 71460
L112210 71460
" />
</g>
<g style="fill:#840000; fill-opacity:0.0; 
stroke:#840000; stroke-width:100; stroke-opacity:1; 
stroke-linecap:round; stroke-linejoin:round;">
</g>
<g style="fill:#840000; fill-opacity:0.0; 
stroke:#840000; stroke-width:60; stroke-opacity:1; 
stroke-linecap:round; stroke-linejoin:round;">
<path d="M70220 72280
L70300 72310
L70440 72310
L70500 72280
L70530 72260
L70550 72200
L70550 72140
L70530 72090
L70500 72060
L70440 72030
L70330 72000
L70270 71970
L70250 71950
L70220 71890
L70220 71830
L70250 71780
L70270 71750
L70330 71720
L70470 71720
L70550 71750
" />
<path d="M70810 72310
L70810 71720
" />
<path d="M71060 72310
L71060 72000
L71030 71950
L70980 71920
L70890 71920
L70840 71950
L70810 71970
" />
<path d="M71570 72280
L71510 72310
L71400 72310
L71340 72280
L71310 72230
L71310 72000
L71340 71950
L71400 71920
L71510 71920
L71570 71950
L71590 72000
L71590 72060
L71310 72120
" />
<path d="M72070 72280
L72020 72310
L71900 72310
L71850 72280
L71820 72230
L71820 72000
L71850 71950
L71900 71920
L72020 71920
L72070 71950
L72100 72000
L72100 72060
L71820 72120
" />
<path d="M72270 71920
L72490 71920
" />
<path d="M72350 71720
L72350 72230
L72380 72280
L72440 72310
L72490 72310
" />
<path d="M72690 72260
L72720 72280
L72690 72310
L72660 72280
L72690 72260
L72690 72310
" />
<path d="M72690 71950
L72720 71970
L72690 72000
L72660 71970
L72690 71950
L72690 72000
" />
<path d="M73840 71690
L73340 72450
" />
</g>
<g style="fill:#840000; fill-opacity:0.0; 
stroke:#840000; stroke-width:100; stroke-opacity:1; 
stroke-linecap:round; stroke-linejoin:round;">
</g>
<g style="fill:#840000; fill-opacity:0.0; 
stroke:#840000; stroke-width:60; stroke-opacity:1; 
stroke-linecap:round; stroke-linejoin:round;">
<path d="M77560 75400
L77560 76580
" />
</g>
<g style="fill:#840000; fill-opacity:0.0; 
stroke:#840000; stroke-width:100; stroke-opacity:1; 
stroke-linecap:round; stroke-linejoin:round;">
</g>
<g style="fill:#840000; fill-opacity:0.0; 
stroke:#840000; stroke-width:60; stroke-opacity:1; 
stroke-linecap:round; stroke-linejoin:round;">
<path d="M102760 75400
L102760 77960
" />
</g>
<g style="fill:#840084; fill-opacity:0.0; 
stroke:#840084; stroke-width:60; stroke-opacity:1; 
stroke-linecap:round; stroke-linejoin:round;">
<path d="M35000 15000
L74000 15000
L74000 52500
L35000 52500
L35000 15000
" />
</g>
<g style="fill:#008484; fill-opacity:0.0; 
stroke:#008484; stroke-width:60; stroke-opacity:1; 
stroke-linecap:round; stroke-linejoin:round;">
</g>
<g style="fill:#000000; fill-opacity:0.0; 
stroke:#000000; stroke-width:60; stroke-opacity:1; 
stroke-linecap:round; stroke-linejoin:round;">
<path d="M35430 14880
L35410 14910
L35330 14930
L35290 14930
L35220 14910
L35170 14860
L35140 14810
L35120 14720
L35120 14650
L35140 14550
L35170 14500
L35220 14460
L35290 14430
L35330 14430
L35410 14460
L35430 14480
" />
<path d="M35720 14930
L35670 14910
L35640 14880
L35620 14840
L35620 14690
L35640 14650
L35670 14620
L35720 14600
L35790 14600
L35830 14620
L35860 14650
L35880 14690
L35880 14840
L35860 14880
L35830 14910
L35790 14930
L35720 14930
" />
<path d="M36100 14600
L36100 14930
" />
<path d="M36100 14650
L36120 14620
L36170 14600
L36240 14600
L36290 14620
L36310 14670
L36310 14930
" />
<path d="M36480 14600
L36670 14600
" />
<path d="M36550 14430
L36550 14860
L36570 14910
L36620 14930
L36670 14930
" />
<path d="M36830 14930
L36830 14600
" />
<path d="M36830 14690
L36860 14650
L36880 14620
L36930 14600
L36980 14600
" />
<path d="M37220 14930
L37170 14910
L37140 14880
L37120 14840
L37120 14690
L37140 14650
L37170 14620
L37220 14600
L37290 14600
L37330 14620
L37360 14650
L37380 14690
L37380 14840
L37360 14880
L37330 14910
L37290 14930
L37220 14930
" />
<path d="M37670 14930
L37620 14910
L37600 14860
L37600 14430
" />
</g>
<g style="fill:#848400; fill-opacity:0.0; 
stroke:#848400; stroke-width:60; stroke-opacity:1; 
stroke-linecap:round; stroke-linejoin:round;">
</g>
<g style="fill:#000000; fill-opacity:0.0; 
stroke:#000000; stroke-width:60; stroke-opacity:1; 
stroke-linecap:round; stroke-linejoin:round;">
<path d="M35430 52960
L35410 52990
L35330 53010
L35290 53010
L35220 52990
L35170 52940
L35140 52890
L35120 52800
L35120 52730
L35140 52630
L35170 52580
L35220 52540
L35290 52510
L35330 52510
L35410 52540
L35430 52560
" />
<path d="M35720 53010
L35670 52990
L35640 52960
L35620 52920
L35620 52770
L35640 52730
L35670 52700
L35720 52680
L35790 52680
L35830 52700
L35860 52730
L35880 52770
L35880 52920
L35860 52960
L35830 52990
L35790 53010
L35720 53010
" />
<path d="M36100 52680
L36100 53010
" />
<path d="M36100 52730
L36120 52700
L36170 52680
L36240 52680
L36290 52700
L36310 52750
L36310 53010
" />
<path d="M36480 52680
L36670 52680
" />
<path d="M36550 52510
L36550 52940
L36570 52990
L36620 53010
L36670 53010
" />
<path d="M36830 53010
L36830 52680
" />
<path d="M36830 52770
L36860 52730
L36880 52700
L36930 52680
L36980 52680
" />
<path d="M37220 53010
L37170 52990
L37140 52960
L37120 52920
L37120 52770
L37140 52730
L37170 52700
L37220 52680
L37290 52680
L37330 52700
L37360 52730
L37380 52770
L37380 52920
L37360 52960
L37330 52990
L37290 53010
L37220 53010
" />
<path d="M37670 53010
L37620 52990
L37600 52940
L37600 52510
" />
<path d="M37860 52960
L37880 52990
L37860 53010
L37830 52990
L37860 52960
L37860 53010
" />
<path d="M38070 52990
L38120 53010
L38220 53010
L38260 52990
L38290 52940
L38290 52920
L38260 52870
L38220 52840
L38140 52840
L38100 52820
L38070 52770
L38070 52750
L38100 52700
L38140 52680
L38220 52680
L38260 52700
" />
<path d="M38720 52990
L38670 53010
L38570 53010
L38530 52990
L38500 52960
L38480 52920
L38480 52770
L38500 52730
L38530 52700
L38570 52680
L38670 52680
L38720 52700
" />
<path d="M38930 53010
L38930 52510
" />
<path d="M39140 53010
L39140 52750
L39120 52700
L39070 52680
L39000 52680
L38950 52700
L38930 52730
" />
</g>
<g style="fill:#840084; fill-opacity:0.0; 
stroke:#840084; stroke-width:60; stroke-opacity:1; 
stroke-linecap:round; stroke-linejoin:round;">
</g>
<g style="fill:#848400; fill-opacity:0.0; 
stroke:#848400; stroke-width:60; stroke-opacity:1; 
stroke-linecap:round; stroke-linejoin:round;">
<path d="M71750 28720
L71910 29220
L72080 28720
" />
<path d="M72250 29220
L72250 28720
" />
<path d="M72480 29220
L72480 28720
L72770 29220
L72770 28720
" />
<path d="M73250 28720
L73010 28720
L72980 28960
L73010 28940
L73060 28910
L73170 28910
L73220 28940
L73250 28960
L73270 29010
L73270 29130
L73250 29170
L73220 29200
L73170 29220
L73060 29220
L73010 29200
L72980 29170
" />
</g>
<g style="fill:#848400; fill-opacity:0.0; 
stroke:#848400; stroke-width:100; stroke-opacity:1; 
stroke-linecap:round; stroke-linejoin:round;">
<polyline fill="none;"
points="73500,29000
73750,29250
74000,29250
74000,28750
73750,28750
73500,29000
" /> 
</g>
<g style="fill:#848400; fill-opacity:0.0; 
stroke:#848400; stroke-width:60; stroke-opacity:1; 
stroke-linecap:round; stroke-linejoin:round;">
<path d="M71750 27750
L71700 27720
L71630 27720
L71560 27750
L71510 27790
L71480 27840
L71460 27940
L71460 28010
L71480 28100
L71510 28150
L71560 28200
L71630 28220
L71670 28220
L71750 28200
L71770 28170
L71770 28010
L71670 28010
" />
<path d="M71980 28220
L71980 27720
L72270 28220
L72270 27720
" />
<path d="M72510 28220
L72510 27720
L72630 27720
L72700 27750
L72750 27790
L72770 27840
L72790 27940
L72790 28010
L72770 28100
L72750 28150
L72700 28200
L72630 28220
L72510 28220
" />
<path d="M73250 27720
L73010 27720
L72980 27960
L73010 27940
L73060 27910
L73170 27910
L73220 27940
L73250 27960
L73270 28010
L73270 28130
L73250 28170
L73220 28200
L73170 28220
L73060 28220
L73010 28200
L72980 28170
" />
</g>
<g style="fill:#848400; fill-opacity:0.0; 
stroke:#848400; stroke-width:100; stroke-opacity:1; 
stroke-linecap:round; stroke-linejoin:round;">
<polyline fill="none;"
points="73500,28000
73750,28250
74000,28250
74000,27750
73750,27750
73500,28000
" /> 
</g>
<g style="fill:#848400; fill-opacity:0.0; 
stroke:#848400; stroke-width:60; stroke-opacity:1; 
stroke-linecap:round; stroke-linejoin:round;">
<path d="M35720 38580
L35960 38580
" />
<path d="M35670 38720
L35840 38220
L36010 38720
" />
<path d="M36170 38720
L36170 38220
L36290 38220
L36360 38250
L36410 38290
L36430 38340
L36460 38440
L36460 38510
L36430 38600
L36410 38650
L36360 38700
L36290 38720
L36170 38720
" />
<path d="M36960 38670
L36930 38700
L36860 38720
L36820 38720
L36740 38700
L36700 38650
L36670 38600
L36650 38510
L36650 38440
L36670 38340
L36700 38290
L36740 38250
L36820 38220
L36860 38220
L36930 38250
L36960 38270
" />
<path d="M37150 38700
L37220 38720
L37340 38720
L37390 38700
L37410 38670
L37430 38630
L37430 38580
L37410 38530
L37390 38510
L37340 38480
L37240 38460
L37200 38440
L37170 38410
L37150 38360
L37150 38320
L37170 38270
L37200 38250
L37240 38220
L37360 38220
L37430 38250
" />
<path d="M37650 38720
L37650 38220
" />
<path d="M38150 38250
L38100 38220
L38030 38220
L37960 38250
L37910 38290
L37890 38340
L37860 38440
L37860 38510
L37890 38600
L37910 38650
L37960 38700
L38030 38720
L38080 38720
L38150 38700
L38170 38670
L38170 38510
L38080 38510
" />
<path d="M38650 38720
L38360 38720
" />
<path d="M38510 38720
L38510 38220
L38460 38290
L38410 38340
L38360 38360
" />
</g>
<g style="fill:#848400; fill-opacity:0.0; 
stroke:#848400; stroke-width:100; stroke-opacity:1; 
stroke-linecap:round; stroke-linejoin:round;">
<polyline fill="none;"
points="35500,38500
35250,38250
35000,38250
35000,38750
35250,38750
35500,38500
" /> 
</g>
<g style="fill:#848400; fill-opacity:0.0; 
stroke:#848400; stroke-width:60; stroke-opacity:1; 
stroke-linecap:round; stroke-linejoin:round;">
<path d="M35720 44080
L35960 44080
" />
<path d="M35670 44220
L35840 43720
L36010 44220
" />
<path d="M36170 44220
L36170 43720
L36290 43720
L36360 43750
L36410 43790
L36430 43840
L36460 43940
L36460 44010
L36430 44100
L36410 44150
L36360 44200
L36290 44220
L36170 44220
" />
<path d="M36960 44170
L36930 44200
L36860 44220
L36820 44220
L36740 44200
L36700 44150
L36670 44100
L36650 44010
L36650 43940
L36670 43840
L36700 43790
L36740 43750
L36820 43720
L36860 43720
L36930 43750
L36960 43770
" />
<path d="M37150 44200
L37220 44220
L37340 44220
L37390 44200
L37410 44170
L37430 44130
L37430 44080
L37410 44030
L37390 44010
L37340 43980
L37240 43960
L37200 43940
L37170 43910
L37150 43860
L37150 43820
L37170 43770
L37200 43750
L37240 43720
L37360 43720
L37430 43750
" />
<path d="M37650 44220
L37650 43720
" />
<path d="M38150 43750
L38100 43720
L38030 43720
L37960 43750
L37910 43790
L37890 43840
L37860 43940
L37860 44010
L37890 44100
L37910 44150
L37960 44200
L38030 44220
L38080 44220
L38150 44200
L38170 44170
L38170 44010
L38080 44010
" />
<path d="M38360 43770
L38390 43750
L38430 43720
L38550 43720
L38600 43750
L38630 43770
L38650 43820
L38650 43860
L38630 43940
L38340 44220
L38650 44220
" />
</g>
<g style="fill:#848400; fill-opacity:0.0; 
stroke:#848400; stroke-width:100; stroke-opacity:1; 
stroke-linecap:round; stroke-linejoin:round;">
<polyline fill="none;"
points="35500,44000
35250,43750
35000,43750
35000,44250
35250,44250
35500,44000
" /> 
</g>
<g style="fill:#848400; fill-opacity:0.0; 
stroke:#848400; stroke-width:60; stroke-opacity:1; 
stroke-linecap:round; stroke-linejoin:round;">
<path d="M35720 41580
L35960 41580
" />
<path d="M35670 41720
L35840 41220
L36010 41720
" />
<path d="M36170 41720
L36170 41220
L36290 41220
L36360 41250
L36410 41290
L36430 41340
L36460 41440
L36460 41510
L36430 41600
L36410 41650
L36360 41700
L36290 41720
L36170 41720
" />
<path d="M36960 41670
L36930 41700
L36860 41720
L36820 41720
L36740 41700
L36700 41650
L36670 41600
L36650 41510
L36650 41440
L36670 41340
L36700 41290
L36740 41250
L36820 41220
L36860 41220
L36930 41250
L36960 41270
" />
<path d="M37430 41250
L37390 41220
L37320 41220
L37240 41250
L37200 41290
L37170 41340
L37150 41440
L37150 41510
L37170 41600
L37200 41650
L37240 41700
L37320 41720
L37360 41720
L37430 41700
L37460 41670
L37460 41510
L37360 41510
" />
<path d="M37670 41720
L37670 41220
L37960 41720
L37960 41220
" />
<path d="M38200 41720
L38200 41220
L38320 41220
L38390 41250
L38430 41290
L38460 41340
L38480 41440
L38480 41510
L38460 41600
L38430 41650
L38390 41700
L38320 41720
L38200 41720
" />
<path d="M38960 41720
L38670 41720
" />
<path d="M38820 41720
L38820 41220
L38770 41290
L38720 41340
L38670 41360
" />
</g>
<g style="fill:#848400; fill-opacity:0.0; 
stroke:#848400; stroke-width:100; stroke-opacity:1; 
stroke-linecap:round; stroke-linejoin:round;">
<polyline fill="none;"
points="35500,41500
35250,41250
35000,41250
35000,41750
35250,41750
35500,41500
" /> 
</g>
<g style="fill:#848400; fill-opacity:0.0; 
stroke:#848400; stroke-width:60; stroke-opacity:1; 
stroke-linecap:round; stroke-linejoin:round;">
<path d="M35720 47080
L35960 47080
" />
<path d="M35670 47220
L35840 46720
L36010 47220
" />
<path d="M36170 47220
L36170 46720
L36290 46720
L36360 46750
L36410 46790
L36430 46840
L36460 46940
L36460 47010
L36430 47100
L36410 47150
L36360 47200
L36290 47220
L36170 47220
" />
<path d="M36960 47170
L36930 47200
L36860 47220
L36820 47220
L36740 47200
L36700 47150
L36670 47100
L36650 47010
L36650 46940
L36670 46840
L36700 46790
L36740 46750
L36820 46720
L36860 46720
L36930 46750
L36960 46770
" />
<path d="M37430 46750
L37390 46720
L37320 46720
L37240 46750
L37200 46790
L37170 46840
L37150 46940
L37150 47010
L37170 47100
L37200 47150
L37240 47200
L37320 47220
L37360 47220
L37430 47200
L37460 47170
L37460 47010
L37360 47010
" />
<path d="M37670 47220
L37670 46720
L37960 47220
L37960 46720
" />
<path d="M38200 47220
L38200 46720
L38320 46720
L38390 46750
L38430 46790
L38460 46840
L38480 46940
L38480 47010
L38460 47100
L38430 47150
L38390 47200
L38320 47220
L38200 47220
" />
<path d="M38670 46770
L38700 46750
L38740 46720
L38860 46720
L38910 46750
L38930 46770
L38960 46820
L38960 46860
L38930 46940
L38650 47220
L38960 47220
" />
</g>
<g style="fill:#848400; fill-opacity:0.0; 
stroke:#848400; stroke-width:100; stroke-opacity:1; 
stroke-linecap:round; stroke-linejoin:round;">
<polyline fill="none;"
points="35500,47000
35250,46750
35000,46750
35000,47250
35250,47250
35500,47000
" /> 
</g>
<g style="fill:#848400; fill-opacity:0.0; 
stroke:#848400; stroke-width:60; stroke-opacity:1; 
stroke-linecap:round; stroke-linejoin:round;">
<path d="M70150 38220
L70150 37720
L70270 37720
L70340 37750
L70390 37790
L70410 37840
L70440 37940
L70440 38010
L70410 38100
L70390 38150
L70340 38200
L70270 38220
L70150 38220
" />
<path d="M70630 38080
L70870 38080
" />
<path d="M70580 38220
L70750 37720
L70910 38220
" />
<path d="M71370 38170
L71340 38200
L71270 38220
L71220 38220
L71150 38200
L71100 38150
L71080 38100
L71060 38010
L71060 37940
L71080 37840
L71100 37790
L71150 37750
L71220 37720
L71270 37720
L71340 37750
L71370 37770
" />
<path d="M71670 37720
L71770 37720
L71820 37750
L71870 37790
L71890 37890
L71890 38050
L71870 38150
L71820 38200
L71770 38220
L71670 38220
L71630 38200
L71580 38150
L71560 38050
L71560 37890
L71580 37790
L71630 37750
L71670 37720
" />
<path d="M72100 37720
L72100 38130
L72130 38170
L72150 38200
L72200 38220
L72290 38220
L72340 38200
L72370 38170
L72390 38130
L72390 37720
" />
<path d="M72560 37720
L72840 37720
" />
<path d="M72700 38220
L72700 37720
" />
<path d="M73270 38220
L72980 38220
" />
<path d="M73130 38220
L73130 37720
L73080 37790
L73030 37840
L72980 37860
" />
</g>
<g style="fill:#848400; fill-opacity:0.0; 
stroke:#848400; stroke-width:100; stroke-opacity:1; 
stroke-linecap:round; stroke-linejoin:round;">
<polyline fill="none;"
points="73500,38000
73750,38250
74000,38250
74000,37750
73750,37750
73500,38000
" /> 
</g>
<g style="fill:#848400; fill-opacity:0.0; 
stroke:#848400; stroke-width:60; stroke-opacity:1; 
stroke-linecap:round; stroke-linejoin:round;">
<path d="M70150 43720
L70150 43220
L70270 43220
L70340 43250
L70390 43290
L70410 43340
L70440 43440
L70440 43510
L70410 43600
L70390 43650
L70340 43700
L70270 43720
L70150 43720
" />
<path d="M70630 43580
L70870 43580
" />
<path d="M70580 43720
L70750 43220
L70910 43720
" />
<path d="M71370 43670
L71340 43700
L71270 43720
L71220 43720
L71150 43700
L71100 43650
L71080 43600
L71060 43510
L71060 43440
L71080 43340
L71100 43290
L71150 43250
L71220 43220
L71270 43220
L71340 43250
L71370 43270
" />
<path d="M71670 43220
L71770 43220
L71820 43250
L71870 43290
L71890 43390
L71890 43550
L71870 43650
L71820 43700
L71770 43720
L71670 43720
L71630 43700
L71580 43650
L71560 43550
L71560 43390
L71580 43290
L71630 43250
L71670 43220
" />
<path d="M72100 43220
L72100 43630
L72130 43670
L72150 43700
L72200 43720
L72290 43720
L72340 43700
L72370 43670
L72390 43630
L72390 43220
" />
<path d="M72560 43220
L72840 43220
" />
<path d="M72700 43720
L72700 43220
" />
<path d="M72980 43270
L73010 43250
L73060 43220
L73170 43220
L73220 43250
L73250 43270
L73270 43320
L73270 43360
L73250 43440
L72960 43720
L73270 43720
" />
</g>
<g style="fill:#848400; fill-opacity:0.0; 
stroke:#848400; stroke-width:100; stroke-opacity:1; 
stroke-linecap:round; stroke-linejoin:round;">
<polyline fill="none;"
points="73500,43500
73750,43750
74000,43750
74000,43250
73750,43250
73500,43500
" /> 
</g>
<g style="fill:#848400; fill-opacity:0.0; 
stroke:#848400; stroke-width:60; stroke-opacity:1; 
stroke-linecap:round; stroke-linejoin:round;">
<path d="M70060 41220
L70060 40720
L70170 40720
L70250 40750
L70290 40790
L70320 40840
L70340 40940
L70340 41010
L70320 41100
L70290 41150
L70250 41200
L70170 41220
L70060 41220
" />
<path d="M70530 41080
L70770 41080
" />
<path d="M70480 41220
L70650 40720
L70820 41220
" />
<path d="M71270 41170
L71250 41200
L71170 41220
L71130 41220
L71060 41200
L71010 41150
L70980 41100
L70960 41010
L70960 40940
L70980 40840
L71010 40790
L71060 40750
L71130 40720
L71170 40720
L71250 40750
L71270 40770
" />
<path d="M71750 40750
L71700 40720
L71630 40720
L71560 40750
L71510 40790
L71480 40840
L71460 40940
L71460 41010
L71480 41100
L71510 41150
L71560 41200
L71630 41220
L71670 41220
L71750 41200
L71770 41170
L71770 41010
L71670 41010
" />
<path d="M71980 41220
L71980 40720
L72270 41220
L72270 40720
" />
<path d="M72510 41220
L72510 40720
L72630 40720
L72700 40750
L72750 40790
L72770 40840
L72790 40940
L72790 41010
L72770 41100
L72750 41150
L72700 41200
L72630 41220
L72510 41220
" />
<path d="M73270 41220
L72980 41220
" />
<path d="M73130 41220
L73130 40720
L73080 40790
L73030 40840
L72980 40860
" />
</g>
<g style="fill:#848400; fill-opacity:0.0; 
stroke:#848400; stroke-width:100; stroke-opacity:1; 
stroke-linecap:round; stroke-linejoin:round;">
<polyline fill="none;"
points="73500,41000
73750,41250
74000,41250
74000,40750
73750,40750
73500,41000
" /> 
</g>
<g style="fill:#848400; fill-opacity:0.0; 
stroke:#848400; stroke-width:60; stroke-opacity:1; 
stroke-linecap:round; stroke-linejoin:round;">
<path d="M70060 46720
L70060 46220
L70170 46220
L70250 46250
L70290 46290
L70320 46340
L70340 46440
L70340 46510
L70320 46600
L70290 46650
L70250 46700
L70170 46720
L70060 46720
" />
<path d="M70530 46580
L70770 46580
" />
<path d="M70480 46720
L70650 46220
L70820 46720
" />
<path d="M71270 46670
L71250 46700
L71170 46720
L71130 46720
L71060 46700
L71010 46650
L70980 46600
L70960 46510
L70960 46440
L70980 46340
L71010 46290
L71060 46250
L71130 46220
L71170 46220
L71250 46250
L71270 46270
" />
<path d="M71750 46250
L71700 46220
L71630 46220
L71560 46250
L71510 46290
L71480 46340
L71460 46440
L71460 46510
L71480 46600
L71510 46650
L71560 46700
L71630 46720
L71670 46720
L71750 46700
L71770 46670
L71770 46510
L71670 46510
" />
<path d="M71980 46720
L71980 46220
L72270 46720
L72270 46220
" />
<path d="M72510 46720
L72510 46220
L72630 46220
L72700 46250
L72750 46290
L72770 46340
L72790 46440
L72790 46510
L72770 46600
L72750 46650
L72700 46700
L72630 46720
L72510 46720
" />
<path d="M72980 46270
L73010 46250
L73060 46220
L73170 46220
L73220 46250
L73250 46270
L73270 46320
L73270 46360
L73250 46440
L72960 46720
L73270 46720
" />
</g>
<g style="fill:#848400; fill-opacity:0.0; 
stroke:#848400; stroke-width:100; stroke-opacity:1; 
stroke-linecap:round; stroke-linejoin:round;">
<polyline fill="none;"
points="73500,46500
73750,46750
74000,46750
74000,46250
73750,46250
73500,46500
" /> 
</g>
<g style="fill:#848400; fill-opacity:0.0; 
stroke:#848400; stroke-width:60; stroke-opacity:1; 
stroke-linecap:round; stroke-linejoin:round;">
</g>
<g style="fill:#008400; fill-opacity:0.0; 
stroke:#008400; stroke-width:60; stroke-opacity:1; 
stroke-linecap:round; stroke-linejoin:round;">
<path d="M35000 44000
L22000 44000
" />
<path d="M22000 38500
L35000 38500
" />
</g>
<g style="fill:#008400; fill-opacity:0.0; 
stroke:#008400; stroke-width:0; stroke-opacity:1; 
stroke-linecap:round; stroke-linejoin:round;">
</g>
<g style="fill:#840000; fill-opacity:0.0; 
stroke:#840000; stroke-width:0; stroke-opacity:1; 
stroke-linecap:round; stroke-linejoin:round;">
</g>
<g style="fill:#840000; fill-opacity:0.0; 
stroke:#840000; stroke-width:100; stroke-opacity:1; 
stroke-linecap:round; stroke-linejoin:round;">
<path d="M20701.1 38299.5 A710 710 0.0 0 0 19310 38500 " />
<path d="M19300 38502.5 A710 710 0.0 0 0 20691.1 38700.5 " />
</g>
<g style="fill:#840000; fill-opacity:0.0; 
stroke:#840000; stroke-width:80; stroke-opacity:1; 
stroke-linecap:round; stroke-linejoin:round;">
<circle cx="20000" cy="38500" r="200" /> 
</g>
<g style="fill:#840000; fill-opacity:0.0; 
stroke:#840000; stroke-width:60; stroke-opacity:1; 
stroke-linecap:round; stroke-linejoin:round;">
<polyline fill="none;"
points="21000,38500
20200,38500
" /> 
<polyline fill="none;"
points="20000,39500
20000,39200
" /> 
<path d="M21000 38500
L22000 38500
" />
<path d="M21640 38370
L21350 38370
" />
<path d="M21500 38370
L21500 37870
L21450 37940
L21400 37990
L21350 38010
" />
<path d="M20000 39500
L20000 40500
" />
<path d="M19420 40140
L19400 40110
L19370 40070
L19370 39950
L19400 39900
L19420 39880
L19470 39850
L19510 39850
L19590 39880
L19870 40160
L19870 39850
" />
</g>
<g style="fill:#008484; fill-opacity:0.0; 
stroke:#008484; stroke-width:60; stroke-opacity:1; 
stroke-linecap:round; stroke-linejoin:round;">
<path d="M14600 38240
L14600 38600
L14580 38670
L14530 38720
L14460 38740
L14410 38740
" />
<path d="M14820 38600
L15060 38600
" />
<path d="M14770 38740
L14940 38240
L15100 38740
" />
<path d="M15270 38740
L15270 38240
L15390 38240
L15460 38270
L15510 38310
L15530 38360
L15560 38460
L15560 38530
L15530 38620
L15510 38670
L15460 38720
L15390 38740
L15270 38740
" />
<path d="M16060 38690
L16030 38720
L15960 38740
L15910 38740
L15840 38720
L15790 38670
L15770 38620
L15750 38530
L15750 38460
L15770 38360
L15790 38310
L15840 38270
L15910 38240
L15960 38240
L16030 38270
L16060 38290
" />
<path d="M16530 38740
L16250 38740
" />
<path d="M16390 38740
L16390 38240
L16340 38310
L16290 38360
L16250 38380
" />
<path d="M12350 40220
L12420 40240
L12540 40240
L12590 40220
L12610 40190
L12640 40150
L12640 40100
L12610 40050
L12590 40030
L12540 40000
L12450 39980
L12400 39960
L12380 39930
L12350 39880
L12350 39840
L12380 39790
L12400 39770
L12450 39740
L12570 39740
L12640 39770
" />
<path d="M12850 40240
L12850 39740
L13020 40100
L13190 39740
L13190 40240
" />
<path d="M13400 40100
L13640 40100
" />
<path d="M13350 40240
L13520 39740
L13690 40240
" />
<path d="M13730 40290
L14110 40290
" />
<path d="M14520 40240
L14350 40000
" />
<path d="M14230 40240
L14230 39740
L14420 39740
L14470 39770
L14500 39790
L14520 39840
L14520 39910
L14500 39960
L14470 39980
L14420 40000
L14230 40000
" />
<path d="M15000 39770
L14950 39740
L14880 39740
L14800 39770
L14760 39810
L14730 39860
L14710 39960
L14710 40030
L14730 40120
L14760 40170
L14800 40220
L14880 40240
L14920 40240
L15000 40220
L15020 40190
L15020 40030
L14920 40030
" />
<path d="M15450 39910
L15450 40240
" />
<path d="M15330 39720
L15210 40070
L15520 40070
" />
<path d="M15800 39740
L15850 39740
L15900 39770
L15920 39790
L15950 39840
L15970 39930
L15970 40050
L15950 40150
L15920 40190
L15900 40220
L15850 40240
L15800 40240
L15760 40220
L15730 40190
L15710 40150
L15690 40050
L15690 39930
L15710 39840
L15730 39790
L15760 39770
L15800 39740
" />
<path d="M16160 39790
L16190 39770
L16230 39740
L16350 39740
L16400 39770
L16420 39790
L16450 39840
L16450 39880
L16420 39960
L16140 40240
L16450 40240
" />
<path d="M16540 40290
L16920 40290
" />
<path d="M17330 40190
L17300 40220
L17230 40240
L17190 40240
L17110 40220
L17070 40170
L17040 40120
L17020 40030
L17020 39960
L17040 39860
L17070 39810
L17110 39770
L17190 39740
L17230 39740
L17300 39770
L17330 39790
" />
<path d="M17610 40240
L17570 40220
L17540 40190
L17520 40150
L17520 40000
L17540 39960
L17570 39930
L17610 39910
L17690 39910
L17730 39930
L17760 39960
L17780 40000
L17780 40150
L17760 40190
L17730 40220
L17690 40240
L17610 40240
" />
<path d="M18210 40240
L18210 39980
L18190 39930
L18140 39910
L18040 39910
L17990 39930
" />
<path d="M18210 40220
L18160 40240
L18040 40240
L17990 40220
L17970 40170
L17970 40120
L17990 40070
L18040 40050
L18160 40050
L18210 40030
" />
<path d="M18400 40240
L18660 39910
" />
<path d="M18400 39910
L18660 40240
" />
</g>
<g style="fill:#008400; fill-opacity:0.0; 
stroke:#008400; stroke-width:60; stroke-opacity:1; 
stroke-linecap:round; stroke-linejoin:round;">
<path d="M20000 41500
L20000 40500
" />
</g>
<g style="fill:#008400; fill-opacity:0.0; 
stroke:#008400; stroke-width:0; stroke-opacity:1; 
stroke-linecap:round; stroke-linejoin:round;">
</g>
<g style="fill:#840000; fill-opacity:0.0; 
stroke:#840000; stroke-width:0; stroke-opacity:1; 
stroke-linecap:round; stroke-linejoin:round;">
</g>
<g style="fill:#840000; fill-opacity:0.0; 
stroke:#840000; stroke-width:100; stroke-opacity:1; 
stroke-linecap:round; stroke-linejoin:round;">
<path d="M20701.1 43799.5 A710 710 0.0 0 0 19310 44000 " />
<path d="M19300 44002.5 A710 710 0.0 0 0 20691.1 44200.5 " />
</g>
<g style="fill:#840000; fill-opacity:0.0; 
stroke:#840000; stroke-width:80; stroke-opacity:1; 
stroke-linecap:round; stroke-linejoin:round;">
<circle cx="20000" cy="44000" r="200" /> 
</g>
<g style="fill:#840000; fill-opacity:0.0; 
stroke:#840000; stroke-width:60; stroke-opacity:1; 
stroke-linecap:round; stroke-linejoin:round;">
<polyline fill="none;"
points="21000,44000
20200,44000
" /> 
<polyline fill="none;"
points="20000,45000
20000,44700
" /> 
<path d="M21000 44000
L22000 44000
" />
<path d="M21640 43870
L21350 43870
" />
<path d="M21500 43870
L21500 43370
L21450 43440
L21400 43490
L21350 43510
" />
<path d="M20000 45000
L20000 46000
" />
<path d="M19420 45640
L19400 45610
L19370 45570
L19370 45450
L19400 45400
L19420 45380
L19470 45350
L19510 45350
L19590 45380
L19870 45660
L19870 45350
" />
</g>
<g style="fill:#008484; fill-opacity:0.0; 
stroke:#008484; stroke-width:60; stroke-opacity:1; 
stroke-linecap:round; stroke-linejoin:round;">
<path d="M14100 43740
L14100 44100
L14080 44170
L14030 44220
L13960 44240
L13910 44240
" />
<path d="M14320 44100
L14560 44100
" />
<path d="M14270 44240
L14440 43740
L14600 44240
" />
<path d="M14770 44240
L14770 43740
L14890 43740
L14960 43770
L15010 43810
L15030 43860
L15060 43960
L15060 44030
L15030 44120
L15010 44170
L14960 44220
L14890 44240
L14770 44240
" />
<path d="M15560 44190
L15530 44220
L15460 44240
L15410 44240
L15340 44220
L15290 44170
L15270 44120
L15250 44030
L15250 43960
L15270 43860
L15290 43810
L15340 43770
L15410 43740
L15460 43740
L15530 43770
L15560 43790
" />
<path d="M15750 43790
L15770 43770
L15820 43740
L15940 43740
L15990 43770
L16010 43790
L16030 43840
L16030 43880
L16010 43960
L15720 44240
L16030 44240
" />
<path d="M12350 45720
L12420 45740
L12540 45740
L12590 45720
L12610 45690
L12640 45650
L12640 45600
L12610 45550
L12590 45530
L12540 45500
L12450 45480
L12400 45460
L12380 45430
L12350 45380
L12350 45340
L12380 45290
L12400 45270
L12450 45240
L12570 45240
L12640 45270
" />
<path d="M12850 45740
L12850 45240
L13020 45600
L13190 45240
L13190 45740
" />
<path d="M13400 45600
L13640 45600
" />
<path d="M13350 45740
L13520 45240
L13690 45740
" />
<path d="M13730 45790
L14110 45790
" />
<path d="M14520 45740
L14350 45500
" />
<path d="M14230 45740
L14230 45240
L14420 45240
L14470 45270
L14500 45290
L14520 45340
L14520 45410
L14500 45460
L14470 45480
L14420 45500
L14230 45500
" />
<path d="M15000 45270
L14950 45240
L14880 45240
L14800 45270
L14760 45310
L14730 45360
L14710 45460
L14710 45530
L14730 45620
L14760 45670
L14800 45720
L14880 45740
L14920 45740
L15000 45720
L15020 45690
L15020 45530
L14920 45530
" />
<path d="M15450 45410
L15450 45740
" />
<path d="M15330 45220
L15210 45570
L15520 45570
" />
<path d="M15800 45240
L15850 45240
L15900 45270
L15920 45290
L15950 45340
L15970 45430
L15970 45550
L15950 45650
L15920 45690
L15900 45720
L15850 45740
L15800 45740
L15760 45720
L15730 45690
L15710 45650
L15690 45550
L15690 45430
L15710 45340
L15730 45290
L15760 45270
L15800 45240
" />
<path d="M16160 45290
L16190 45270
L16230 45240
L16350 45240
L16400 45270
L16420 45290
L16450 45340
L16450 45380
L16420 45460
L16140 45740
L16450 45740
" />
<path d="M16540 45790
L16920 45790
" />
<path d="M17330 45690
L17300 45720
L17230 45740
L17190 45740
L17110 45720
L17070 45670
L17040 45620
L17020 45530
L17020 45460
L17040 45360
L17070 45310
L17110 45270
L17190 45240
L17230 45240
L17300 45270
L17330 45290
" />
<path d="M17610 45740
L17570 45720
L17540 45690
L17520 45650
L17520 45500
L17540 45460
L17570 45430
L17610 45410
L17690 45410
L17730 45430
L17760 45460
L17780 45500
L17780 45650
L17760 45690
L17730 45720
L17690 45740
L17610 45740
" />
<path d="M18210 45740
L18210 45480
L18190 45430
L18140 45410
L18040 45410
L17990 45430
" />
<path d="M18210 45720
L18160 45740
L18040 45740
L17990 45720
L17970 45670
L17970 45620
L17990 45570
L18040 45550
L18160 45550
L18210 45530
" />
<path d="M18400 45740
L18660 45410
" />
<path d="M18400 45410
L18660 45740
" />
</g>
<g style="fill:#008400; fill-opacity:0.0; 
stroke:#008400; stroke-width:60; stroke-opacity:1; 
stroke-linecap:round; stroke-linejoin:round;">
<path d="M20000 46000
L20000 47000
" />
<path d="M74000 28000
L77000 28000
" />
<path d="M77000 29000
L75500 29000
" />
</g>
<g style="fill:#008400; fill-opacity:0.0; 
stroke:#008400; stroke-width:0; stroke-opacity:1; 
stroke-linecap:round; stroke-linejoin:round;">
</g>
<g style="fill:#840000; fill-opacity:0.0; 
stroke:#840000; stroke-width:0; stroke-opacity:1; 
stroke-linecap:round; stroke-linejoin:round;">
</g>
<g style="fill:#FFFFC2; fill-opacity:0.0; 
stroke:#FFFFC2; stroke-width:0; stroke-opacity:1; 
stroke-linecap:round; stroke-linejoin:round;">
</g>
<g style="fill:#FFFFC2; fill-opacity:0.6; 
stroke:#FFFFC2; stroke-width:0; stroke-opacity:1; 
stroke-linecap:round; stroke-linejoin:round;">
<rect x="78500" y="27500" width="1000" height="3000" rx="0" />
</g>
<g style="fill:#840000; fill-opacity:0.6; 
stroke:#840000; stroke-width:0; stroke-opacity:1; 
stroke-linecap:round; stroke-linejoin:round;">
</g>
<g style="fill:#840000; fill-opacity:0.0; 
stroke:#840000; stroke-width:100; stroke-opacity:1; 
stroke-linecap:round; stroke-linejoin:round;">
<rect x="78500" y="27500" width="1000" height="3000" rx="0" />
</g>
<g style="fill:#840000; fill-opacity:0.0; 
stroke:#840000; stroke-width:60; stroke-opacity:1; 
stroke-linecap:round; stroke-linejoin:round;">
<rect x="78500" y="29950" width="500" height="100" rx="0" />
<rect x="78500" y="28950" width="500" height="100" rx="0" />
<rect x="78500" y="27950" width="500" height="100" rx="0" />
<path d="M78500 28000
L77000 28000
" />
<path d="M77890 27870
L77600 27870
" />
<path d="M77750 27870
L77750 27370
L77700 27440
L77650 27490
L77600 27510
" />
<path d="M78500 29000
L77000 29000
" />
<path d="M77600 28420
L77630 28400
L77670 28370
L77790 28370
L77840 28400
L77860 28420
L77890 28470
L77890 28510
L77860 28590
L77580 28870
L77890 28870
" />
<path d="M78500 30000
L77000 30000
" />
<path d="M77580 29370
L77890 29370
L77720 29560
L77790 29560
L77840 29590
L77860 29610
L77890 29660
L77890 29780
L77860 29820
L77840 29850
L77790 29870
L77650 29870
L77600 29850
L77580 29820
" />
</g>
<g style="fill:#008484; fill-opacity:0.0; 
stroke:#008484; stroke-width:60; stroke-opacity:1; 
stroke-linecap:round; stroke-linejoin:round;">
<path d="M80070 28320
L80070 28680
L80050 28750
L80000 28800
L79930 28820
L79880 28820
" />
<path d="M80310 28820
L80310 28320
L80500 28320
L80550 28350
L80570 28370
L80600 28420
L80600 28490
L80570 28540
L80550 28560
L80500 28580
L80310 28580
" />
<path d="M80760 28320
L80880 28820
L80980 28460
L81070 28820
L81190 28320
" />
<path d="M81670 28820
L81500 28580
" />
<path d="M81380 28820
L81380 28320
L81570 28320
L81620 28350
L81640 28370
L81670 28420
L81670 28490
L81640 28540
L81620 28560
L81570 28580
L81380 28580
" />
<path d="M82140 28820
L81860 28820
" />
<path d="M82000 28820
L82000 28320
L81950 28390
L81910 28440
L81860 28460
" />
<path d="M79930 29730
L79930 29230
" />
<path d="M80220 29730
L80010 29450
" />
<path d="M80220 29230
L79930 29520
" />
<path d="M80430 29730
L80430 29230
" />
<path d="M80720 29730
L80510 29450
" />
<path d="M80720 29230
L80430 29520
" />
<path d="M80910 29280
L80930 29260
L80980 29230
L81100 29230
L81150 29260
L81170 29280
L81200 29330
L81200 29370
L81170 29450
L80890 29730
L81200 29730
" />
<path d="M81650 29230
L81410 29230
L81390 29470
L81410 29450
L81460 29420
L81580 29420
L81630 29450
L81650 29470
L81670 29520
L81670 29640
L81650 29680
L81630 29710
L81580 29730
L81460 29730
L81410 29710
L81390 29680
" />
<path d="M82100 29400
L82100 29730
" />
<path d="M81980 29210
L81860 29560
L82170 29560
" />
<path d="M82240 29780
L82630 29780
" />
<path d="M82840 29230
L82890 29230
L82930 29260
L82960 29280
L82980 29330
L83010 29420
L83010 29540
L82980 29640
L82960 29680
L82930 29710
L82890 29730
L82840 29730
L82790 29710
L82770 29680
L82740 29640
L82720 29540
L82720 29420
L82740 29330
L82770 29280
L82790 29260
L82840 29230
" />
<path d="M83480 29730
L83200 29730
" />
<path d="M83340 29730
L83340 29230
L83290 29300
L83240 29350
L83200 29370
" />
<path d="M83650 29730
L83910 29400
" />
<path d="M83650 29400
L83910 29730
" />
<path d="M84200 29230
L84240 29230
L84290 29260
L84320 29280
L84340 29330
L84360 29420
L84360 29540
L84340 29640
L84320 29680
L84290 29710
L84240 29730
L84200 29730
L84150 29710
L84130 29680
L84100 29640
L84080 29540
L84080 29420
L84100 29330
L84130 29280
L84150 29260
L84200 29230
" />
<path d="M84530 29230
L84840 29230
L84670 29420
L84740 29420
L84790 29450
L84820 29470
L84840 29520
L84840 29640
L84820 29680
L84790 29710
L84740 29730
L84600 29730
L84550 29710
L84530 29680
" />
</g>
<g style="fill:#008400; fill-opacity:0.0; 
stroke:#008400; stroke-width:60; stroke-opacity:1; 
stroke-linecap:round; stroke-linejoin:round;">
<path d="M77000 30000
L75500 30000
" />
<path d="M75500 30000
L75500 29000
" />
</g>
<g style="fill:#008400; fill-opacity:0.0; 
stroke:#008400; stroke-width:0; stroke-opacity:1; 
stroke-linecap:round; stroke-linejoin:round;">
</g>
<g style="fill:#008400; fill-opacity:1.0; 
stroke:#008400; stroke-width:100; stroke-opacity:1; 
stroke-linecap:round; stroke-linejoin:round;">
<circle cx="75500" cy="29000" r="200" /> 
</g>
<g style="fill:#008400; fill-opacity:1.0; 
stroke:#008400; stroke-width:60; stroke-opacity:1; 
stroke-linecap:round; stroke-linejoin:round;">
</g>
<g style="fill:#008400; fill-opacity:0.0; 
stroke:#008400; stroke-width:60; stroke-opacity:1; 
stroke-linecap:round; stroke-linejoin:round;">
<path d="M75500 29000
L74000 29000
" />
<path d="M74000 43500
L84500 43500
" />
<path d="M84500 38000
L74000 38000
" />
</g>
<g style="fill:#008400; fill-opacity:0.0; 
stroke:#008400; stroke-width:0; stroke-opacity:1; 
stroke-linecap:round; stroke-linejoin:round;">
</g>
<g style="fill:#840000; fill-opacity:0.0; 
stroke:#840000; stroke-width:0; stroke-opacity:1; 
stroke-linecap:round; stroke-linejoin:round;">
</g>
<g style="fill:#840000; fill-opacity:0.0; 
stroke:#840000; stroke-width:100; stroke-opacity:1; 
stroke-linecap:round; stroke-linejoin:round;">
<path d="M87190 38000 A710 710 0.0 0 0 85798.9 37799.5 " />
<path d="M85808.9 38200.5 A710 710 0.0 0 0 87200 38002.5 " />
</g>
<g style="fill:#840000; fill-opacity:0.0; 
stroke:#840000; stroke-width:80; stroke-opacity:1; 
stroke-linecap:round; stroke-linejoin:round;">
<circle cx="86500" cy="38000" r="200" /> 
</g>
<g style="fill:#840000; fill-opacity:0.0; 
stroke:#840000; stroke-width:60; stroke-opacity:1; 
stroke-linecap:round; stroke-linejoin:round;">
<polyline fill="none;"
points="85500,38000
86300,38000
" /> 
<polyline fill="none;"
points="86500,39000
86500,38700
" /> 
<path d="M85500 38000
L84500 38000
" />
<path d="M85140 37870
L84850 37870
" />
<path d="M85000 37870
L85000 37370
L84950 37440
L84900 37490
L84850 37510
" />
<path d="M86500 39000
L86500 40000
" />
<path d="M85920 39640
L85900 39610
L85870 39570
L85870 39450
L85900 39400
L85920 39380
L85970 39350
L86010 39350
L86090 39380
L86370 39660
L86370 39350
" />
</g>
<g style="fill:#008484; fill-opacity:0.0; 
stroke:#008484; stroke-width:60; stroke-opacity:1; 
stroke-linecap:round; stroke-linejoin:round;">
<path d="M90110 37740
L90110 38100
L90090 38170
L90040 38220
L89970 38240
L89920 38240
" />
<path d="M90330 38100
L90570 38100
" />
<path d="M90280 38240
L90450 37740
L90610 38240
" />
<path d="M90780 38240
L90780 37740
L90900 37740
L90970 37770
L91020 37810
L91040 37860
L91070 37960
L91070 38030
L91040 38120
L91020 38170
L90970 38220
L90900 38240
L90780 38240
" />
<path d="M91570 38190
L91540 38220
L91470 38240
L91420 38240
L91350 38220
L91300 38170
L91280 38120
L91260 38030
L91260 37960
L91280 37860
L91300 37810
L91350 37770
L91420 37740
L91470 37740
L91540 37770
L91570 37790
" />
<path d="M91730 37740
L92040 37740
L91880 37930
L91950 37930
L92000 37960
L92020 37980
L92040 38030
L92040 38150
L92020 38190
L92000 38220
L91950 38240
L91800 38240
L91760 38220
L91730 38190
" />
<path d="M87850 39720
L87920 39740
L88040 39740
L88090 39720
L88110 39690
L88140 39650
L88140 39600
L88110 39550
L88090 39530
L88040 39500
L87950 39480
L87900 39460
L87880 39430
L87850 39380
L87850 39340
L87880 39290
L87900 39270
L87950 39240
L88070 39240
L88140 39270
" />
<path d="M88350 39740
L88350 39240
L88520 39600
L88690 39240
L88690 39740
" />
<path d="M88900 39600
L89140 39600
" />
<path d="M88850 39740
L89020 39240
L89190 39740
" />
<path d="M89230 39790
L89610 39790
" />
<path d="M90020 39740
L89850 39500
" />
<path d="M89730 39740
L89730 39240
L89920 39240
L89970 39270
L90000 39290
L90020 39340
L90020 39410
L90000 39460
L89970 39480
L89920 39500
L89730 39500
" />
<path d="M90500 39270
L90450 39240
L90380 39240
L90300 39270
L90260 39310
L90230 39360
L90210 39460
L90210 39530
L90230 39620
L90260 39670
L90300 39720
L90380 39740
L90420 39740
L90500 39720
L90520 39690
L90520 39530
L90420 39530
" />
<path d="M90950 39410
L90950 39740
" />
<path d="M90830 39220
L90710 39570
L91020 39570
" />
<path d="M91300 39240
L91350 39240
L91400 39270
L91420 39290
L91450 39340
L91470 39430
L91470 39550
L91450 39650
L91420 39690
L91400 39720
L91350 39740
L91300 39740
L91260 39720
L91230 39690
L91210 39650
L91190 39550
L91190 39430
L91210 39340
L91230 39290
L91260 39270
L91300 39240
" />
<path d="M91660 39290
L91690 39270
L91730 39240
L91850 39240
L91900 39270
L91920 39290
L91950 39340
L91950 39380
L91920 39460
L91640 39740
L91950 39740
" />
<path d="M92040 39790
L92420 39790
" />
<path d="M92830 39690
L92800 39720
L92730 39740
L92690 39740
L92610 39720
L92570 39670
L92540 39620
L92520 39530
L92520 39460
L92540 39360
L92570 39310
L92610 39270
L92690 39240
L92730 39240
L92800 39270
L92830 39290
" />
<path d="M93110 39740
L93070 39720
L93040 39690
L93020 39650
L93020 39500
L93040 39460
L93070 39430
L93110 39410
L93190 39410
L93230 39430
L93260 39460
L93280 39500
L93280 39650
L93260 39690
L93230 39720
L93190 39740
L93110 39740
" />
<path d="M93710 39740
L93710 39480
L93690 39430
L93640 39410
L93540 39410
L93500 39430
" />
<path d="M93710 39720
L93660 39740
L93540 39740
L93500 39720
L93470 39670
L93470 39620
L93500 39570
L93540 39550
L93660 39550
L93710 39530
" />
<path d="M93900 39740
L94160 39410
" />
<path d="M93900 39410
L94160 39740
" />
</g>
<g style="fill:#008400; fill-opacity:0.0; 
stroke:#008400; stroke-width:60; stroke-opacity:1; 
stroke-linecap:round; stroke-linejoin:round;">
<path d="M86500 41000
L86500 40000
" />
</g>
<g style="fill:#008400; fill-opacity:0.0; 
stroke:#008400; stroke-width:0; stroke-opacity:1; 
stroke-linecap:round; stroke-linejoin:round;">
</g>
<g style="fill:#840000; fill-opacity:0.0; 
stroke:#840000; stroke-width:0; stroke-opacity:1; 
stroke-linecap:round; stroke-linejoin:round;">
</g>
<g style="fill:#840000; fill-opacity:0.0; 
stroke:#840000; stroke-width:100; stroke-opacity:1; 
stroke-linecap:round; stroke-linejoin:round;">
<path d="M87190 43500 A710 710 0.0 0 0 85798.9 43299.5 " />
<path d="M85808.9 43700.5 A710 710 0.0 0 0 87200 43502.5 " />
</g>
<g style="fill:#840000; fill-opacity:0.0; 
stroke:#840000; stroke-width:80; stroke-opacity:1; 
stroke-linecap:round; stroke-linejoin:round;">
<circle cx="86500" cy="43500" r="200" /> 
</g>
<g style="fill:#840000; fill-opacity:0.0; 
stroke:#840000; stroke-width:60; stroke-opacity:1; 
stroke-linecap:round; stroke-linejoin:round;">
<polyline fill="none;"
points="85500,43500
86300,43500
" /> 
<polyline fill="none;"
points="86500,44500
86500,44200
" /> 
<path d="M85500 43500
L84500 43500
" />
<path d="M85140 43370
L84850 43370
" />
<path d="M85000 43370
L85000 42870
L84950 42940
L84900 42990
L84850 43010
" />
<path d="M86500 44500
L86500 45500
" />
<path d="M85920 45140
L85900 45110
L85870 45070
L85870 44950
L85900 44900
L85920 44880
L85970 44850
L86010 44850
L86090 44880
L86370 45160
L86370 44850
" />
</g>
<g style="fill:#008484; fill-opacity:0.0; 
stroke:#008484; stroke-width:60; stroke-opacity:1; 
stroke-linecap:round; stroke-linejoin:round;">
<path d="M90610 43240
L90610 43600
L90590 43670
L90540 43720
L90470 43740
L90420 43740
" />
<path d="M90830 43600
L91070 43600
" />
<path d="M90780 43740
L90950 43240
L91110 43740
" />
<path d="M91280 43740
L91280 43240
L91400 43240
L91470 43270
L91520 43310
L91540 43360
L91570 43460
L91570 43530
L91540 43620
L91520 43670
L91470 43720
L91400 43740
L91280 43740
" />
<path d="M92070 43690
L92040 43720
L91970 43740
L91920 43740
L91850 43720
L91800 43670
L91780 43620
L91760 43530
L91760 43460
L91780 43360
L91800 43310
L91850 43270
L91920 43240
L91970 43240
L92040 43270
L92070 43290
" />
<path d="M92500 43410
L92500 43740
" />
<path d="M92380 43220
L92260 43570
L92570 43570
" />
<path d="M87850 45220
L87920 45240
L88040 45240
L88090 45220
L88110 45190
L88140 45150
L88140 45100
L88110 45050
L88090 45030
L88040 45000
L87950 44980
L87900 44960
L87880 44930
L87850 44880
L87850 44840
L87880 44790
L87900 44770
L87950 44740
L88070 44740
L88140 44770
" />
<path d="M88350 45240
L88350 44740
L88520 45100
L88690 44740
L88690 45240
" />
<path d="M88900 45100
L89140 45100
" />
<path d="M88850 45240
L89020 44740
L89190 45240
" />
<path d="M89230 45290
L89610 45290
" />
<path d="M90020 45240
L89850 45000
" />
<path d="M89730 45240
L89730 44740
L89920 44740
L89970 44770
L90000 44790
L90020 44840
L90020 44910
L90000 44960
L89970 44980
L89920 45000
L89730 45000
" />
<path d="M90500 44770
L90450 44740
L90380 44740
L90300 44770
L90260 44810
L90230 44860
L90210 44960
L90210 45030
L90230 45120
L90260 45170
L90300 45220
L90380 45240
L90420 45240
L90500 45220
L90520 45190
L90520 45030
L90420 45030
" />
<path d="M90950 44910
L90950 45240
" />
<path d="M90830 44720
L90710 45070
L91020 45070
" />
<path d="M91300 44740
L91350 44740
L91400 44770
L91420 44790
L91450 44840
L91470 44930
L91470 45050
L91450 45150
L91420 45190
L91400 45220
L91350 45240
L91300 45240
L91260 45220
L91230 45190
L91210 45150
L91190 45050
L91190 44930
L91210 44840
L91230 44790
L91260 44770
L91300 44740
" />
<path d="M91660 44790
L91690 44770
L91730 44740
L91850 44740
L91900 44770
L91920 44790
L91950 44840
L91950 44880
L91920 44960
L91640 45240
L91950 45240
" />
<path d="M92040 45290
L92420 45290
" />
<path d="M92830 45190
L92800 45220
L92730 45240
L92690 45240
L92610 45220
L92570 45170
L92540 45120
L92520 45030
L92520 44960
L92540 44860
L92570 44810
L92610 44770
L92690 44740
L92730 44740
L92800 44770
L92830 44790
" />
<path d="M93110 45240
L93070 45220
L93040 45190
L93020 45150
L93020 45000
L93040 44960
L93070 44930
L93110 44910
L93190 44910
L93230 44930
L93260 44960
L93280 45000
L93280 45150
L93260 45190
L93230 45220
L93190 45240
L93110 45240
" />
<path d="M93710 45240
L93710 44980
L93690 44930
L93640 44910
L93540 44910
L93500 44930
" />
<path d="M93710 45220
L93660 45240
L93540 45240
L93500 45220
L93470 45170
L93470 45120
L93500 45070
L93540 45050
L93660 45050
L93710 45030
" />
<path d="M93900 45240
L94160 44910
" />
<path d="M93900 44910
L94160 45240
" />
</g>
<g style="fill:#008400; fill-opacity:0.0; 
stroke:#008400; stroke-width:60; stroke-opacity:1; 
stroke-linecap:round; stroke-linejoin:round;">
<path d="M86500 45500
L86500 46500
" />
</g>
<g style="fill:#008400; fill-opacity:0.0; 
stroke:#008400; stroke-width:0; stroke-opacity:1; 
stroke-linecap:round; stroke-linejoin:round;">
</g>
<g style="fill:#840000; fill-opacity:0.0; 
stroke:#840000; stroke-width:0; stroke-opacity:1; 
stroke-linecap:round; stroke-linejoin:round;">
</g>
<g style="fill:#840000; fill-opacity:0.0; 
stroke:#840000; stroke-width:60; stroke-opacity:1; 
stroke-linecap:round; stroke-linejoin:round;">
<circle cx="80100" cy="41000" r="200" /> 
<circle cx="80900" cy="41000" r="200" /> 
<path d="M79900 41000
L79500 41000
" />
<path d="M81100 41000
L81500 41000
" />
</g>
<g style="fill:#008484; fill-opacity:0.0; 
stroke:#008484; stroke-width:60; stroke-opacity:1; 
stroke-linecap:round; stroke-linejoin:round;">
<path d="M80080 39810
L80080 40170
L80050 40240
L80010 40290
L79940 40310
L79890 40310
" />
<path d="M80320 40310
L80320 39810
L80510 39810
L80550 39840
L80580 39860
L80600 39910
L80600 39980
L80580 40030
L80550 40050
L80510 40070
L80320 40070
" />
<path d="M80770 39810
L81080 39810
L80910 40000
L80980 40000
L81030 40030
L81050 40050
L81080 40100
L81080 40220
L81050 40260
L81030 40290
L80980 40310
L80840 40310
L80790 40290
L80770 40260
" />
</g>
<g style="fill:#008400; fill-opacity:0.0; 
stroke:#008400; stroke-width:60; stroke-opacity:1; 
stroke-linecap:round; stroke-linejoin:round;">
<path d="M81500 41000
L86500 41000
" />
<path d="M79500 41000
L74000 41000
" />
</g>
<g style="fill:#008400; fill-opacity:0.0; 
stroke:#008400; stroke-width:0; stroke-opacity:1; 
stroke-linecap:round; stroke-linejoin:round;">
</g>
<g style="fill:#840000; fill-opacity:0.0; 
stroke:#840000; stroke-width:0; stroke-opacity:1; 
stroke-linecap:round; stroke-linejoin:round;">
</g>
<g style="fill:#840000; fill-opacity:0.0; 
stroke:#840000; stroke-width:60; stroke-opacity:1; 
stroke-linecap:round; stroke-linejoin:round;">
<circle cx="80100" cy="46500" r="200" /> 
<circle cx="80900" cy="46500" r="200" /> 
<path d="M79900 46500
L79500 46500
" />
<path d="M81100 46500
L81500 46500
" />
</g>
<g style="fill:#008484; fill-opacity:0.0; 
stroke:#008484; stroke-width:60; stroke-opacity:1; 
stroke-linecap:round; stroke-linejoin:round;">
<path d="M80080 45310
L80080 45670
L80050 45740
L80010 45790
L79940 45810
L79890 45810
" />
<path d="M80320 45810
L80320 45310
L80510 45310
L80550 45340
L80580 45360
L80600 45410
L80600 45480
L80580 45530
L80550 45550
L80510 45570
L80320 45570
" />
<path d="M81030 45480
L81030 45810
" />
<path d="M80910 45290
L80790 45640
L81100 45640
" />
</g>
<g style="fill:#008400; fill-opacity:0.0; 
stroke:#008400; stroke-width:60; stroke-opacity:1; 
stroke-linecap:round; stroke-linejoin:round;">
<path d="M79500 46500
L74000 46500
" />
<path d="M81500 46500
L86500 46500
" />
</g>
<g style="fill:#008400; fill-opacity:0.0; 
stroke:#008400; stroke-width:0; stroke-opacity:1; 
stroke-linecap:round; stroke-linejoin:round;">
</g>
<g style="fill:#840000; fill-opacity:0.0; 
stroke:#840000; stroke-width:0; stroke-opacity:1; 
stroke-linecap:round; stroke-linejoin:round;">
</g>
<g style="fill:#840000; fill-opacity:0.0; 
stroke:#840000; stroke-width:60; stroke-opacity:1; 
stroke-linecap:round; stroke-linejoin:round;">
<circle cx="26100" cy="47000" r="200" /> 
<circle cx="26900" cy="47000" r="200" /> 
<path d="M25900 47000
L25500 47000
" />
<path d="M27100 47000
L27500 47000
" />
</g>
<g style="fill:#008484; fill-opacity:0.0; 
stroke:#008484; stroke-width:60; stroke-opacity:1; 
stroke-linecap:round; stroke-linejoin:round;">
<path d="M26080 45810
L26080 46170
L26050 46240
L26010 46290
L25940 46310
L25890 46310
" />
<path d="M26320 46310
L26320 45810
L26510 45810
L26550 45840
L26580 45860
L26600 45910
L26600 45980
L26580 46030
L26550 46050
L26510 46070
L26320 46070
" />
<path d="M26790 45860
L26820 45840
L26860 45810
L26980 45810
L27030 45840
L27050 45860
L27080 45910
L27080 45950
L27050 46030
L26770 46310
L27080 46310
" />
</g>
<g style="fill:#008400; fill-opacity:0.0; 
stroke:#008400; stroke-width:60; stroke-opacity:1; 
stroke-linecap:round; stroke-linejoin:round;">
<path d="M25500 47000
L20000 47000
" />
<path d="M27500 47000
L35000 47000
" />
</g>
<g style="fill:#008400; fill-opacity:0.0; 
stroke:#008400; stroke-width:0; stroke-opacity:1; 
stroke-linecap:round; stroke-linejoin:round;">
</g>
<g style="fill:#840000; fill-opacity:0.0; 
stroke:#840000; stroke-width:0; stroke-opacity:1; 
stroke-linecap:round; stroke-linejoin:round;">
</g>
<g style="fill:#840000; fill-opacity:0.0; 
stroke:#840000; stroke-width:60; stroke-opacity:1; 
stroke-linecap:round; stroke-linejoin:round;">
<circle cx="26100" cy="41500" r="200" /> 
<circle cx="26900" cy="41500" r="200" /> 
<path d="M25900 41500
L25500 41500
" />
<path d="M27100 41500
L27500 41500
" />
</g>
<g style="fill:#008484; fill-opacity:0.0; 
stroke:#008484; stroke-width:60; stroke-opacity:1; 
stroke-linecap:round; stroke-linejoin:round;">
<path d="M26080 40310
L26080 40670
L26050 40740
L26010 40790
L25940 40810
L25890 40810
" />
<path d="M26320 40810
L26320 40310
L26510 40310
L26550 40340
L26580 40360
L26600 40410
L26600 40480
L26580 40530
L26550 40550
L26510 40570
L26320 40570
" />
<path d="M27080 40810
L26790 40810
" />
<path d="M26940 40810
L26940 40310
L26890 40380
L26840 40430
L26790 40450
" />
</g>
<g style="fill:#008400; fill-opacity:0.0; 
stroke:#008400; stroke-width:60; stroke-opacity:1; 
stroke-linecap:round; stroke-linejoin:round;">
<path d="M25500 41500
L20000 41500
" />
<path d="M27500 41500
L35000 41500
" />
</g> 
</svg>
