<?xml version="1.0" standalone="no"?>
 <!DOCTYPE svg PUBLIC "-//W3C//DTD SVG 1.1//EN" 
 "http://www.w3.org/Graphics/SVG/1.1/DTD/svg11.dtd"> 
<svg xmlns="http://www.w3.org/2000/svg" version="1.1" 
    width="29.7002cm" height="21.0007cm" viewBox="0 0 116930 82680 ">
<title>SVG Picture created as ExternRegulatedConverter-F_Cu.svg date 2019/07/12 23:56:01 </title>
  <desc>Picture generated by PCBNEW </desc>
<g style="fill:#000000; fill-opacity:1;stroke:#000000; stroke-opacity:1;
stroke-linecap:round; stroke-linejoin:round; "
 transform="translate(0 0) scale(1 1)">
</g>
<g style="fill:#000000; fill-opacity:0.0; 
stroke:#000000; stroke-width:-0.000393701; stroke-opacity:1; 
stroke-linecap:round; stroke-linejoin:round;">
<g >
</g>
<g style="fill:#000000; fill-opacity:1.0; 
stroke:#000000; stroke-width:0; stroke-opacity:1; 
stroke-linecap:round; stroke-linejoin:round;">
<circle cx="48000" cy="39000" r="393.701" /> 
</g>
<g style="fill:#000000; fill-opacity:1.0; 
stroke:#000000; stroke-width:39.3701; stroke-opacity:1; 
stroke-linecap:round; stroke-linejoin:round;">
</g>
<g style="fill:#000000; fill-opacity:1.0; 
stroke:#000000; stroke-width:0; stroke-opacity:1; 
stroke-linecap:round; stroke-linejoin:round;">
<circle cx="47000" cy="39000" r="393.701" /> 
</g>
<g style="fill:#000000; fill-opacity:1.0; 
stroke:#000000; stroke-width:39.3701; stroke-opacity:1; 
stroke-linecap:round; stroke-linejoin:round;">
</g>
<g style="fill:#000000; fill-opacity:1.0; 
stroke:#000000; stroke-width:0; stroke-opacity:1; 
stroke-linecap:round; stroke-linejoin:round;">
<circle cx="45000" cy="39000" r="393.701" /> 
</g>
<g style="fill:#000000; fill-opacity:1.0; 
stroke:#000000; stroke-width:39.3701; stroke-opacity:1; 
stroke-linecap:round; stroke-linejoin:round;">
</g>
<g style="fill:#000000; fill-opacity:1.0; 
stroke:#000000; stroke-width:0; stroke-opacity:1; 
stroke-linecap:round; stroke-linejoin:round;">
<circle cx="42000" cy="39000" r="393.701" /> 
</g>
<g style="fill:#000000; fill-opacity:1.0; 
stroke:#000000; stroke-width:39.3701; stroke-opacity:1; 
stroke-linecap:round; stroke-linejoin:round;">
</g>
<g style="fill:#000000; fill-opacity:1.0; 
stroke:#000000; stroke-width:0; stroke-opacity:1; 
stroke-linecap:round; stroke-linejoin:round;">
<circle cx="42000" cy="42000" r="393.701" /> 
</g>
<g style="fill:#000000; fill-opacity:1.0; 
stroke:#000000; stroke-width:39.3701; stroke-opacity:1; 
stroke-linecap:round; stroke-linejoin:round;">
</g>
<g style="fill:#000000; fill-opacity:1.0; 
stroke:#000000; stroke-width:0; stroke-opacity:1; 
stroke-linecap:round; stroke-linejoin:round;">
<circle cx="48000" cy="42000" r="393.701" /> 
</g>
<g style="fill:#000000; fill-opacity:1.0; 
stroke:#000000; stroke-width:39.3701; stroke-opacity:1; 
stroke-linecap:round; stroke-linejoin:round;">
</g>
<g >
</g>
<g style="fill:#000000; fill-opacity:1.0; 
stroke:#000000; stroke-width:0; stroke-opacity:1; 
stroke-linecap:round; stroke-linejoin:round;">
<circle cx="58900" cy="28000" r="984.5" /> 
</g>
<g style="fill:#000000; fill-opacity:1.0; 
stroke:#000000; stroke-width:39.3701; stroke-opacity:1; 
stroke-linecap:round; stroke-linejoin:round;">
</g>
<g style="fill:#000000; fill-opacity:1.0; 
stroke:#000000; stroke-width:0; stroke-opacity:1; 
stroke-linecap:round; stroke-linejoin:round;">
<circle cx="41100" cy="28000" r="984.5" /> 
</g>
<g style="fill:#000000; fill-opacity:1.0; 
stroke:#000000; stroke-width:39.3701; stroke-opacity:1; 
stroke-linecap:round; stroke-linejoin:round;">
</g>
<g >
</g>
<g style="fill:#000000; fill-opacity:1.0; 
stroke:#000000; stroke-width:0; stroke-opacity:1; 
stroke-linecap:round; stroke-linejoin:round;">
<path style="fill:#000000; fill-opacity:1.0; 
stroke:#000000; stroke-width:0; stroke-opacity:1; 
stroke-linecap:round; stroke-linejoin:round;fill-rule:evenodd;"
d="M 38344,43657
38353,43659
38363,43661
38372,43664
38381,43669
38389,43674
38397,43679
38404,43686
38410,43693
38416,43701
38421,43709
38425,43718
38428,43727
38431,43736
38432,43746
38433,43755
38433,44244
38432,44253
38431,44263
38428,44272
38425,44281
38421,44290
38416,44298
38410,44306
38404,44313
38397,44320
38389,44325
38381,44330
38372,44335
38363,44338
38353,44340
38344,44342
38334,44342
37665,44342
37655,44342
37646,44340
37636,44338
37627,44335
37618,44330
37610,44325
37602,44320
37595,44313
37589,44306
37583,44298
37578,44290
37574,44281
37571,44272
37568,44263
37567,44253
37566,44244
37566,43755
37567,43746
37568,43736
37571,43727
37574,43718
37578,43709
37583,43701
37589,43693
37595,43686
37602,43679
37610,43674
37618,43669
37627,43664
37636,43661
37646,43659
37655,43657
37665,43657
38334,43657
38344,43657
Z" /> 
</g>
<g style="fill:#000000; fill-opacity:1.0; 
stroke:#000000; stroke-width:685.039; stroke-opacity:1; 
stroke-linecap:round; stroke-linejoin:round;">
</g>
<g style="fill:#000000; fill-opacity:0.0; 
stroke:#000000; stroke-width:685.039; stroke-opacity:1; 
stroke-linecap:round; stroke-linejoin:round;">
<path d="M37909 43000
L38090 43000
" />
</g>
<g >
</g>
<g style="fill:#000000; fill-opacity:1.0; 
stroke:#000000; stroke-width:0; stroke-opacity:1; 
stroke-linecap:round; stroke-linejoin:round;">
<circle cx="51000" cy="37000" r="393.701" /> 
</g>
<g style="fill:#000000; fill-opacity:1.0; 
stroke:#000000; stroke-width:39.3701; stroke-opacity:1; 
stroke-linecap:round; stroke-linejoin:round;">
</g>
<g style="fill:#000000; fill-opacity:1.0; 
stroke:#000000; stroke-width:0; stroke-opacity:1; 
stroke-linecap:round; stroke-linejoin:round;">
<circle cx="52574.8" cy="37000" r="393.701" /> 
</g>
<g style="fill:#000000; fill-opacity:1.0; 
stroke:#000000; stroke-width:39.3701; stroke-opacity:1; 
stroke-linecap:round; stroke-linejoin:round;">
</g>
<g >
</g>
<g style="fill:#000000; fill-opacity:1.0; 
stroke:#000000; stroke-width:0; stroke-opacity:1; 
stroke-linecap:round; stroke-linejoin:round;">
<circle cx="52574.8" cy="44000" r="393.701" /> 
</g>
<g style="fill:#000000; fill-opacity:1.0; 
stroke:#000000; stroke-width:39.3701; stroke-opacity:1; 
stroke-linecap:round; stroke-linejoin:round;">
</g>
<g style="fill:#000000; fill-opacity:1.0; 
stroke:#000000; stroke-width:0; stroke-opacity:1; 
stroke-linecap:round; stroke-linejoin:round;">
<circle cx="51000" cy="44000" r="393.701" /> 
</g>
<g style="fill:#000000; fill-opacity:1.0; 
stroke:#000000; stroke-width:39.3701; stroke-opacity:1; 
stroke-linecap:round; stroke-linejoin:round;">
</g>
<g >
</g>
<g style="fill:#000000; fill-opacity:1.0; 
stroke:#000000; stroke-width:0; stroke-opacity:1; 
stroke-linecap:round; stroke-linejoin:round;">
<path style="fill:#000000; fill-opacity:1.0; 
stroke:#000000; stroke-width:0; stroke-opacity:1; 
stroke-linecap:round; stroke-linejoin:round;fill-rule:evenodd;"
d="M 52625,31393
52625,30606
53375,30606
53375,31393
52625,31393
Z" /> 
</g>
<g style="fill:#000000; fill-opacity:1.0; 
stroke:#000000; stroke-width:750; stroke-opacity:1; 
stroke-linecap:round; stroke-linejoin:round;">
</g>
<g style="fill:#000000; fill-opacity:0.0; 
stroke:#000000; stroke-width:750; stroke-opacity:1; 
stroke-linecap:round; stroke-linejoin:round;">
<path d="M54000 30981
L54000 31018
" />
<path d="M55000 30981
L55000 31018
" />
</g>
<g >
</g>
<g style="fill:#000000; fill-opacity:0.0; 
stroke:#000000; stroke-width:0; stroke-opacity:1; 
stroke-linecap:round; stroke-linejoin:round;">
</g>
<g style="fill:#000000; fill-opacity:1.0; 
stroke:#000000; stroke-width:0; stroke-opacity:1; 
stroke-linecap:round; stroke-linejoin:round;">
<path style="fill:#000000; fill-opacity:1.0; 
stroke:#000000; stroke-width:0; stroke-opacity:1; 
stroke-linecap:round; stroke-linejoin:round;fill-rule:evenodd;"
d="M 37566,35566
38433,35566
38433,36433
37566,36433
37566,35566
Z" /> 
</g>
<g style="fill:#000000; fill-opacity:1.0; 
stroke:#000000; stroke-width:866.142; stroke-opacity:1; 
stroke-linecap:round; stroke-linejoin:round;">
</g>
<g style="fill:#000000; fill-opacity:0.0; 
stroke:#000000; stroke-width:866.142; stroke-opacity:1; 
stroke-linecap:round; stroke-linejoin:round;">
<path d="M38000 40000
L38000 40000
" />
</g>
<g >
</g>
<g style="fill:#000000; fill-opacity:1.0; 
stroke:#000000; stroke-width:0; stroke-opacity:1; 
stroke-linecap:round; stroke-linejoin:round;">
<circle cx="52000" cy="33000" r="393.701" /> 
</g>
<g style="fill:#000000; fill-opacity:1.0; 
stroke:#000000; stroke-width:39.3701; stroke-opacity:1; 
stroke-linecap:round; stroke-linejoin:round;">
</g>
<g style="fill:#000000; fill-opacity:1.0; 
stroke:#000000; stroke-width:0; stroke-opacity:1; 
stroke-linecap:round; stroke-linejoin:round;">
<circle cx="52000" cy="34968.5" r="393.701" /> 
</g>
<g style="fill:#000000; fill-opacity:1.0; 
stroke:#000000; stroke-width:39.3701; stroke-opacity:1; 
stroke-linecap:round; stroke-linejoin:round;">
</g>
<g >
</g>
<g style="fill:#000000; fill-opacity:1.0; 
stroke:#000000; stroke-width:0; stroke-opacity:1; 
stroke-linecap:round; stroke-linejoin:round;">
<circle cx="44000" cy="33000" r="393.701" /> 
</g>
<g style="fill:#000000; fill-opacity:1.0; 
stroke:#000000; stroke-width:39.3701; stroke-opacity:1; 
stroke-linecap:round; stroke-linejoin:round;">
</g>
<g style="fill:#000000; fill-opacity:1.0; 
stroke:#000000; stroke-width:0; stroke-opacity:1; 
stroke-linecap:round; stroke-linejoin:round;">
<circle cx="44000" cy="34968.5" r="393.701" /> 
</g>
<g style="fill:#000000; fill-opacity:1.0; 
stroke:#000000; stroke-width:39.3701; stroke-opacity:1; 
stroke-linecap:round; stroke-linejoin:round;">
</g>
<g >
</g>
<g style="fill:#000000; fill-opacity:1.0; 
stroke:#000000; stroke-width:0; stroke-opacity:1; 
stroke-linecap:round; stroke-linejoin:round;">
<circle cx="48000" cy="34968.5" r="393.701" /> 
</g>
<g style="fill:#000000; fill-opacity:1.0; 
stroke:#000000; stroke-width:39.3701; stroke-opacity:1; 
stroke-linecap:round; stroke-linejoin:round;">
</g>
<g style="fill:#000000; fill-opacity:1.0; 
stroke:#000000; stroke-width:0; stroke-opacity:1; 
stroke-linecap:round; stroke-linejoin:round;">
<circle cx="48000" cy="33000" r="393.701" /> 
</g>
<g style="fill:#000000; fill-opacity:1.0; 
stroke:#000000; stroke-width:39.3701; stroke-opacity:1; 
stroke-linecap:round; stroke-linejoin:round;">
</g>
<g >
</g>
<g style="fill:#000000; fill-opacity:1.0; 
stroke:#000000; stroke-width:0; stroke-opacity:1; 
stroke-linecap:round; stroke-linejoin:round;">
<circle cx="56000" cy="34968.5" r="393.701" /> 
</g>
<g style="fill:#000000; fill-opacity:1.0; 
stroke:#000000; stroke-width:39.3701; stroke-opacity:1; 
stroke-linecap:round; stroke-linejoin:round;">
</g>
<g style="fill:#000000; fill-opacity:1.0; 
stroke:#000000; stroke-width:0; stroke-opacity:1; 
stroke-linecap:round; stroke-linejoin:round;">
<circle cx="56000" cy="33000" r="393.701" /> 
</g>
<g style="fill:#000000; fill-opacity:1.0; 
stroke:#000000; stroke-width:39.3701; stroke-opacity:1; 
stroke-linecap:round; stroke-linejoin:round;">
</g>
<g >
</g>
<g style="fill:#000000; fill-opacity:1.0; 
stroke:#000000; stroke-width:0; stroke-opacity:1; 
stroke-linecap:round; stroke-linejoin:round;">
<circle cx="54500" cy="37984.3" r="393.701" /> 
</g>
<g style="fill:#000000; fill-opacity:1.0; 
stroke:#000000; stroke-width:39.3701; stroke-opacity:1; 
stroke-linecap:round; stroke-linejoin:round;">
</g>
<g style="fill:#000000; fill-opacity:1.0; 
stroke:#000000; stroke-width:0; stroke-opacity:1; 
stroke-linecap:round; stroke-linejoin:round;">
<path style="fill:#000000; fill-opacity:1.0; 
stroke:#000000; stroke-width:0; stroke-opacity:1; 
stroke-linecap:round; stroke-linejoin:round;fill-rule:evenodd;"
d="M 54185,36685
54814,36685
54814,37314
54185,37314
54185,36685
Z" /> 
</g>
<g >
<path style="fill:#000000; fill-opacity:1.0; 
stroke:#000000; stroke-width:0; stroke-opacity:1; 
stroke-linecap:round; stroke-linejoin:round;fill-rule:evenodd;"
d="M 54185,42685
54814,42685
54814,43314
54185,43314
54185,42685
Z" /> 
<circle cx="54500" cy="43984.3" r="393.701" /> 
</g>
<g style="fill:#000000; fill-opacity:1.0; 
stroke:#000000; stroke-width:39.3701; stroke-opacity:1; 
stroke-linecap:round; stroke-linejoin:round;">
</g>
<g >
</g>
<g style="fill:#000000; fill-opacity:1.0; 
stroke:#000000; stroke-width:0; stroke-opacity:1; 
stroke-linecap:round; stroke-linejoin:round;">
<circle cx="43015.7" cy="44000" r="393.701" /> 
</g>
<g style="fill:#000000; fill-opacity:1.0; 
stroke:#000000; stroke-width:39.3701; stroke-opacity:1; 
stroke-linecap:round; stroke-linejoin:round;">
</g>
<g style="fill:#000000; fill-opacity:1.0; 
stroke:#000000; stroke-width:0; stroke-opacity:1; 
stroke-linecap:round; stroke-linejoin:round;">
<circle cx="44000" cy="44000" r="393.701" /> 
</g>
<g style="fill:#000000; fill-opacity:1.0; 
stroke:#000000; stroke-width:39.3701; stroke-opacity:1; 
stroke-linecap:round; stroke-linejoin:round;">
</g>
<g >
</g>
<g style="fill:#000000; fill-opacity:1.0; 
stroke:#000000; stroke-width:0; stroke-opacity:1; 
stroke-linecap:round; stroke-linejoin:round;">
<circle cx="46100" cy="37060" r="393.701" /> 
</g>
<g style="fill:#000000; fill-opacity:1.0; 
stroke:#000000; stroke-width:39.3701; stroke-opacity:1; 
stroke-linecap:round; stroke-linejoin:round;">
</g>
<g style="fill:#000000; fill-opacity:1.0; 
stroke:#000000; stroke-width:0; stroke-opacity:1; 
stroke-linecap:round; stroke-linejoin:round;">
<circle cx="44131.5" cy="37060" r="393.701" /> 
</g>
<g style="fill:#000000; fill-opacity:1.0; 
stroke:#000000; stroke-width:39.3701; stroke-opacity:1; 
stroke-linecap:round; stroke-linejoin:round;">
</g>
<g >
</g>
<g style="fill:#000000; fill-opacity:1.0; 
stroke:#000000; stroke-width:685.039; stroke-opacity:1; 
stroke-linecap:round; stroke-linejoin:round;">
</g>
<g style="fill:#000000; fill-opacity:0.0; 
stroke:#000000; stroke-width:685.039; stroke-opacity:1; 
stroke-linecap:round; stroke-linejoin:round;">
<path d="M61090 45000
L60909 45000
" />
</g>
<g style="fill:#000000; fill-opacity:0.0; 
stroke:#000000; stroke-width:0; stroke-opacity:1; 
stroke-linecap:round; stroke-linejoin:round;">
</g>
<g style="fill:#000000; fill-opacity:1.0; 
stroke:#000000; stroke-width:0; stroke-opacity:1; 
stroke-linecap:round; stroke-linejoin:round;">
<path style="fill:#000000; fill-opacity:1.0; 
stroke:#000000; stroke-width:0; stroke-opacity:1; 
stroke-linecap:round; stroke-linejoin:round;fill-rule:evenodd;"
d="M 61344,43657
61353,43659
61363,43661
61372,43664
61381,43669
61389,43674
61397,43679
61404,43686
61410,43693
61416,43701
61421,43709
61425,43718
61428,43727
61431,43736
61432,43746
61433,43755
61433,44244
61432,44253
61431,44263
61428,44272
61425,44281
61421,44290
61416,44298
61410,44306
61404,44313
61397,44320
61389,44325
61381,44330
61372,44335
61363,44338
61353,44340
61344,44342
61334,44342
60665,44342
60655,44342
60646,44340
60636,44338
60627,44335
60618,44330
60610,44325
60602,44320
60595,44313
60589,44306
60583,44298
60578,44290
60574,44281
60571,44272
60568,44263
60567,44253
60566,44244
60566,43755
60567,43746
60568,43736
60571,43727
60574,43718
60578,43709
60583,43701
60589,43693
60595,43686
60602,43679
60610,43674
60618,43669
60627,43664
60636,43661
60646,43659
60655,43657
60665,43657
61334,43657
61344,43657
Z" /> 
</g>
<g >
<path style="fill:#000000; fill-opacity:1.0; 
stroke:#000000; stroke-width:0; stroke-opacity:1; 
stroke-linecap:round; stroke-linejoin:round;fill-rule:evenodd;"
d="M 61344,40657
61353,40659
61363,40661
61372,40664
61381,40669
61389,40674
61397,40679
61404,40686
61410,40693
61416,40701
61421,40709
61425,40718
61428,40727
61431,40736
61432,40746
61433,40755
61433,41244
61432,41253
61431,41263
61428,41272
61425,41281
61421,41290
61416,41298
61410,41306
61404,41313
61397,41320
61389,41325
61381,41330
61372,41335
61363,41338
61353,41340
61344,41342
61334,41342
60665,41342
60655,41342
60646,41340
60636,41338
60627,41335
60618,41330
60610,41325
60602,41320
60595,41313
60589,41306
60583,41298
60578,41290
60574,41281
60571,41272
60568,41263
60567,41253
60566,41244
60566,40755
60567,40746
60568,40736
60571,40727
60574,40718
60578,40709
60583,40701
60589,40693
60595,40686
60602,40679
60610,40674
60618,40669
60627,40664
60636,40661
60646,40659
60655,40657
60665,40657
61334,40657
61344,40657
Z" /> 
</g>
<g style="fill:#000000; fill-opacity:1.0; 
stroke:#000000; stroke-width:685.039; stroke-opacity:1; 
stroke-linecap:round; stroke-linejoin:round;">
</g>
<g style="fill:#000000; fill-opacity:0.0; 
stroke:#000000; stroke-width:685.039; stroke-opacity:1; 
stroke-linecap:round; stroke-linejoin:round;">
<path d="M61090 42000
L60909 42000
" />
</g>
<g >
</g>
<g style="fill:#000000; fill-opacity:0.0; 
stroke:#000000; stroke-width:0; stroke-opacity:1; 
stroke-linecap:round; stroke-linejoin:round;">
</g>
<g style="fill:#000000; fill-opacity:1.0; 
stroke:#000000; stroke-width:0; stroke-opacity:1; 
stroke-linecap:round; stroke-linejoin:round;">
<path style="fill:#000000; fill-opacity:1.0; 
stroke:#000000; stroke-width:0; stroke-opacity:1; 
stroke-linecap:round; stroke-linejoin:round;fill-rule:evenodd;"
d="M 61344,36657
61353,36659
61363,36661
61372,36664
61381,36669
61389,36674
61397,36679
61404,36686
61410,36693
61416,36701
61421,36709
61425,36718
61428,36727
61431,36736
61432,36746
61433,36755
61433,37244
61432,37253
61431,37263
61428,37272
61425,37281
61421,37290
61416,37298
61410,37306
61404,37313
61397,37320
61389,37325
61381,37330
61372,37335
61363,37338
61353,37340
61344,37342
61334,37342
60665,37342
60655,37342
60646,37340
60636,37338
60627,37335
60618,37330
60610,37325
60602,37320
60595,37313
60589,37306
60583,37298
60578,37290
60574,37281
60571,37272
60568,37263
60567,37253
60566,37244
60566,36755
60567,36746
60568,36736
60571,36727
60574,36718
60578,36709
60583,36701
60589,36693
60595,36686
60602,36679
60610,36674
60618,36669
60627,36664
60636,36661
60646,36659
60655,36657
60665,36657
61334,36657
61344,36657
Z" /> 
</g>
<g style="fill:#000000; fill-opacity:1.0; 
stroke:#000000; stroke-width:685.039; stroke-opacity:1; 
stroke-linecap:round; stroke-linejoin:round;">
</g>
<g style="fill:#000000; fill-opacity:0.0; 
stroke:#000000; stroke-width:685.039; stroke-opacity:1; 
stroke-linecap:round; stroke-linejoin:round;">
<path d="M61090 38000
L60909 38000
" />
<path d="M61090 39000
L60909 39000
" />
</g>
<g >
</g>
<g style="fill:#000000; fill-opacity:0.0; 
stroke:#000000; stroke-width:0; stroke-opacity:1; 
stroke-linecap:round; stroke-linejoin:round;">
</g>
<g style="fill:#000000; fill-opacity:1.0; 
stroke:#000000; stroke-width:0; stroke-opacity:1; 
stroke-linecap:round; stroke-linejoin:round;">
<path style="fill:#000000; fill-opacity:1.0; 
stroke:#000000; stroke-width:0; stroke-opacity:1; 
stroke-linecap:round; stroke-linejoin:round;fill-rule:evenodd;"
d="M 58344,36657
58353,36659
58363,36661
58372,36664
58381,36669
58389,36674
58397,36679
58404,36686
58410,36693
58416,36701
58421,36709
58425,36718
58428,36727
58431,36736
58432,36746
58433,36755
58433,37244
58432,37253
58431,37263
58428,37272
58425,37281
58421,37290
58416,37298
58410,37306
58404,37313
58397,37320
58389,37325
58381,37330
58372,37335
58363,37338
58353,37340
58344,37342
58334,37342
57665,37342
57655,37342
57646,37340
57636,37338
57627,37335
57618,37330
57610,37325
57602,37320
57595,37313
57589,37306
57583,37298
57578,37290
57574,37281
57571,37272
57568,37263
57567,37253
57566,37244
57566,36755
57567,36746
57568,36736
57571,36727
57574,36718
57578,36709
57583,36701
57589,36693
57595,36686
57602,36679
57610,36674
57618,36669
57627,36664
57636,36661
57646,36659
57655,36657
57665,36657
58334,36657
58344,36657
Z" /> 
</g>
<g style="fill:#000000; fill-opacity:1.0; 
stroke:#000000; stroke-width:685.039; stroke-opacity:1; 
stroke-linecap:round; stroke-linejoin:round;">
</g>
<g style="fill:#000000; fill-opacity:0.0; 
stroke:#000000; stroke-width:685.039; stroke-opacity:1; 
stroke-linecap:round; stroke-linejoin:round;">
<path d="M58090 38000
L57909 38000
" />
<path d="M58090 39000
L57909 39000
" />
</g>
<g >
</g>
<g style="fill:#000000; fill-opacity:0.0; 
stroke:#000000; stroke-width:750; stroke-opacity:1; 
stroke-linecap:round; stroke-linejoin:round;">
<path d="M47000 30981
L47000 31018
" />
<path d="M46000 30981
L46000 31018
" />
</g>
<g style="fill:#000000; fill-opacity:0.0; 
stroke:#000000; stroke-width:0; stroke-opacity:1; 
stroke-linecap:round; stroke-linejoin:round;">
</g>
<g style="fill:#000000; fill-opacity:1.0; 
stroke:#000000; stroke-width:0; stroke-opacity:1; 
stroke-linecap:round; stroke-linejoin:round;">
<path style="fill:#000000; fill-opacity:1.0; 
stroke:#000000; stroke-width:0; stroke-opacity:1; 
stroke-linecap:round; stroke-linejoin:round;fill-rule:evenodd;"
d="M 44625,31393
44625,30606
45375,30606
45375,31393
44625,31393
Z" /> 
</g>
<g >
<circle cx="47000" cy="29000" r="393.701" /> 
</g>
<g style="fill:#000000; fill-opacity:1.0; 
stroke:#000000; stroke-width:39.3701; stroke-opacity:1; 
stroke-linecap:round; stroke-linejoin:round;">
</g>
<g >
</g>
<g style="fill:#000000; fill-opacity:1.0; 
stroke:#000000; stroke-width:590.551; stroke-opacity:1; 
stroke-linecap:round; stroke-linejoin:round;">
</g>
<g style="fill:#000000; fill-opacity:0.0; 
stroke:#000000; stroke-width:590.551; stroke-opacity:1; 
stroke-linecap:round; stroke-linejoin:round;">
<path d="M46000 34937
L45968 34968
" />
<path d="M46000 31000
L46000 34937
" />
<path d="M45968 34968
L48000 34968
" />
<path d="M44000 34968
L45968 34968
" />
<path d="M54000 31000
L54000 34937
" />
<path d="M54031 34968
L56000 34968
" />
<path d="M54000 34937
L54031 34968
" />
<path d="M48000 34968
L54031 34968
" />
<path d="M42000 44000
L42000 42000
" />
<path d="M38000 44000
L38000 45000
" />
<path d="M38000 45000
L44000 45000
" />
<path d="M42000 45000
L42000 44000
" />
<path d="M43015 44000
L42000 44000
" />
<path d="M60000 45000
L60000 42000
" />
<path d="M60000 42000
L61000 42000
" />
<path d="M61000 45000
L60000 45000
" />
<path d="M44000 45000
L60000 45000
" />
<path d="M44000 42000
L42000 42000
" />
<path d="M44000 38000
L44000 42000
" />
<path d="M45080 38000
L44000 38000
" />
<path d="M45080 35920
L45080 38000
" />
<path d="M45968 34968
L45968 35031
" />
<path d="M45968 35031
L45080 35920
" />
<path d="M50000 38000
L57000 38000
" />
<path d="M54500 43000
L54500 37984
" />
<path d="M60984 37984
L61000 38000
" />
<path d="M57000 37984
L60984 37984
" />
<path d="M48000 38000
L48000 39000
" />
<path d="M48000 38000
L50000 38000
" />
<path d="M55000 31000
L56000 31000
" />
<path d="M56000 31000
L56000 33000
" />
<path d="M62000 41000
L61000 41000
" />
<path d="M62000 33000
L62000 41000
" />
<path d="M56000 33000
L62000 33000
" />
<path d="M47000 31000
L48000 31000
" />
<path d="M48000 31000
L48000 33000
" />
<path d="M63000 30000
L63000 44000
" />
<path d="M57000 30000
L63000 30000
" />
<path d="M57000 29000
L57000 30000
" />
<path d="M63000 44000
L61000 44000
" />
<path d="M47000 29000
L57000 29000
" />
<path d="M38000 43000
L38000 40000
" />
<path d="M38000 36000
L38000 33000
" />
<path d="M38000 33000
L44000 33000
" />
<path d="M44000 33000
L44000 31000
" />
<path d="M44000 31000
L45000 31000
" />
<path d="M52000 33000
L52000 31000
" />
<path d="M52000 31000
L53000 31000
" />
<path d="M45000 31000
L45000 30000
" />
<path d="M45000 30000
L52000 30000
" />
<path d="M52000 30000
L52000 31000
" />
<path d="M41000 39000
L42000 39000
" />
<path d="M41000 36000
L41000 39000
" />
<path d="M38000 36000
L41000 36000
" />
<path d="M42000 37060
L44131 37060
" />
<path d="M42000 39000
L42000 37060
" />
<path d="M54500 37000
L52500 37000
" />
<path d="M54500 37000
L61000 37000
" />
<path d="M60984 38984
L61000 39000
" />
<path d="M56500 44000
L56500 39031
" />
<path d="M54500 44000
L56484 44000
" />
<path d="M54484 44000
L54500 43984
" />
<path d="M52500 44000
L54484 44000
" />
<path d="M56531 39000
L61000 39000
" />
<path d="M56500 39031
L56531 39000
" />
<path d="M47000 38000
L47000 39000
" />
<path d="M47000 37000
L47000 38000
" />
<path d="M49000 37000
L47000 37000
" />
<path d="M49000 37000
L51000 37000
" />
<path d="M46160 37000
L47000 37000
" />
<path d="M46100 37060
L46160 37000
" />
<path d="M45000 44000
L45000 39000
" />
<path d="M44000 44000
L45000 44000
" />
<path d="M49000 44000
L45000 44000
" />
<path d="M49000 44000
L51000 44000
" />
</g>
<g >
</g>
</g> 
</svg>
