<?xml version="1.0" standalone="no"?>
 <!DOCTYPE svg PUBLIC "-//W3C//DTD SVG 1.1//EN" 
 "http://www.w3.org/Graphics/SVG/1.1/DTD/svg11.dtd"> 
<svg xmlns="http://www.w3.org/2000/svg" version="1.1" 
    width="59.497cm" height="18.4963cm" viewBox="0 0 234240 72820 ">
<title>SVG Picture created as CurrentSinkModule-B_SilkS.svg date 2019/07/09 01:36:55 </title>
  <desc>Picture generated by PCBNEW </desc>
<g style="fill:#000000; fill-opacity:1;stroke:#000000; stroke-opacity:1;
stroke-linecap:round; stroke-linejoin:round; "
 transform="translate(0 0) scale(1 1)">
</g>
<g style="fill:#000000; fill-opacity:0.0; 
stroke:#000000; stroke-width:-0.000393701; stroke-opacity:1; 
stroke-linecap:round; stroke-linejoin:round;">
</g>
<g style="fill:#840084; fill-opacity:0.0; 
stroke:#840084; stroke-width:-0.000393701; stroke-opacity:1; 
stroke-linecap:round; stroke-linejoin:round;">
</g>
<g style="fill:#840084; fill-opacity:0.0; 
stroke:#840084; stroke-width:118.11; stroke-opacity:1; 
stroke-linecap:round; stroke-linejoin:round;">
<path d="M168571 34975
L168514 35031
L168346 35087
L168233 35087
L168064 35031
L167952 34918
L167896 34806
L167839 34581
L167839 34412
L167896 34187
L167952 34075
L168064 33962
L168233 33906
L168346 33906
L168514 33962
L168571 34019
" />
<path d="M169583 34300
L169583 35087
" />
<path d="M169077 34300
L169077 34918
L169133 35031
L169246 35087
L169414 35087
L169527 35031
L169583 34975
" />
<path d="M170145 35087
L170145 34300
" />
<path d="M170145 34525
L170202 34412
L170258 34356
L170370 34300
L170483 34300
" />
<path d="M170877 35087
L170877 34300
" />
<path d="M170877 34525
L170933 34412
L170989 34356
L171102 34300
L171214 34300
" />
<path d="M172058 35031
L171945 35087
L171720 35087
L171608 35031
L171552 34918
L171552 34468
L171608 34356
L171720 34300
L171945 34300
L172058 34356
L172114 34468
L172114 34581
L171552 34693
" />
<path d="M172620 34300
L172620 35087
" />
<path d="M172620 34412
L172676 34356
L172789 34300
L172958 34300
L173070 34356
L173126 34468
L173126 35087
" />
<path d="M173520 34300
L173970 34300
" />
<path d="M173689 33906
L173689 34918
L173745 35031
L173857 35087
L173970 35087
" />
<path d="M174364 35087
L174364 33906
L174757 34750
L175151 33906
L175151 35087
" />
<path d="M175882 35087
L175770 35031
L175714 34975
L175657 34862
L175657 34525
L175714 34412
L175770 34356
L175882 34300
L176051 34300
L176163 34356
L176220 34412
L176276 34525
L176276 34862
L176220 34975
L176163 35031
L176051 35087
L175882 35087
" />
<path d="M177288 35087
L177288 33906
" />
<path d="M177288 35031
L177176 35087
L176951 35087
L176838 35031
L176782 34975
L176726 34862
L176726 34525
L176782 34412
L176838 34356
L176951 34300
L177176 34300
L177288 34356
" />
<path d="M178357 34300
L178357 35087
" />
<path d="M177851 34300
L177851 34918
L177907 35031
L178019 35087
L178188 35087
L178301 35031
L178357 34975
" />
<path d="M179088 35087
L178976 35031
L178919 34918
L178919 33906
" />
<path d="M179988 35031
L179875 35087
L179651 35087
L179538 35031
L179482 34918
L179482 34468
L179538 34356
L179651 34300
L179875 34300
L179988 34356
L180044 34468
L180044 34581
L179482 34693
" />
<path d="M182125 35087
L181732 34525
" />
<path d="M181450 35087
L181450 33906
L181900 33906
L182013 33962
L182069 34019
L182125 34131
L182125 34300
L182069 34412
L182013 34468
L181900 34525
L181450 34525
" />
<path d="M183081 35031
L182969 35087
L182744 35087
L182631 35031
L182575 34918
L182575 34468
L182631 34356
L182744 34300
L182969 34300
L183081 34356
L183138 34468
L183138 34581
L182575 34693
" />
<path d="M183531 34300
L183812 35087
L184094 34300
" />
<path d="M185219 34975
L185162 35031
L184994 35087
L184881 35087
L184712 35031
L184600 34918
L184544 34806
L184487 34581
L184487 34412
L184544 34187
L184600 34075
L184712 33962
L184881 33906
L184994 33906
L185162 33962
L185219 34019
" />
<path d="M169611 36864
L169555 36921
L169386 36977
L169274 36977
L169105 36921
L168992 36808
L168936 36696
L168880 36471
L168880 36302
L168936 36077
L168992 35965
L169105 35852
L169274 35796
L169386 35796
L169555 35852
L169611 35908
" />
<path d="M170117 36864
L170174 36921
L170117 36977
L170061 36921
L170117 36864
L170117 36977
" />
<path d="M170624 36921
L170792 36977
L171073 36977
L171186 36921
L171242 36864
L171298 36752
L171298 36639
L171242 36527
L171186 36471
L171073 36414
L170848 36358
L170736 36302
L170680 36246
L170624 36133
L170624 36021
L170680 35908
L170736 35852
L170848 35796
L171130 35796
L171298 35852
" />
<path d="M172311 36190
L172311 36977
" />
<path d="M171805 36190
L171805 36808
L171861 36921
L171973 36977
L172142 36977
L172255 36921
L172311 36864
" />
<path d="M172705 36190
L173154 36190
" />
<path d="M172873 35796
L172873 36808
L172929 36921
L173042 36977
L173154 36977
" />
<path d="M173379 36190
L173829 36190
" />
<path d="M173548 35796
L173548 36808
L173604 36921
L173717 36977
L173829 36977
" />
<path d="M174392 36977
L174279 36921
L174223 36864
L174167 36752
L174167 36414
L174223 36302
L174279 36246
L174392 36190
L174561 36190
L174673 36246
L174729 36302
L174785 36414
L174785 36752
L174729 36864
L174673 36921
L174561 36977
L174392 36977
" />
<path d="M175292 36190
L175292 36977
" />
<path d="M175292 36302
L175348 36246
L175460 36190
L175629 36190
L175742 36246
L175798 36358
L175798 36977
" />
<path d="M178216 36077
L178104 36021
L177879 36021
L177766 36077
L177654 36190
L177598 36302
L177598 36527
L177654 36639
L177766 36752
L177879 36808
L178104 36808
L178216 36752
" />
<path d="M177991 35627
L177710 35683
L177429 35852
L177260 36133
L177204 36414
L177260 36696
L177429 36977
L177710 37146
L177991 37202
L178273 37146
L178554 36977
L178723 36696
L178779 36414
L178723 36133
L178554 35852
L178273 35683
L177991 35627
" />
<path d="M180803 36977
L180129 36977
" />
<path d="M180466 36977
L180466 35796
L180354 35965
L180241 36077
L180129 36133
" />
<path d="M181366 36977
L181591 36977
L181703 36921
L181760 36864
L181872 36696
L181928 36471
L181928 36021
L181872 35908
L181816 35852
L181703 35796
L181478 35796
L181366 35852
L181310 35908
L181253 36021
L181253 36302
L181310 36414
L181366 36471
L181478 36527
L181703 36527
L181816 36471
L181872 36414
L181928 36302
" />
<path d="M183053 36977
L182378 36977
" />
<path d="M182716 36977
L182716 35796
L182603 35965
L182491 36077
L182378 36133
" />
<path d="M183616 36977
L183841 36977
L183953 36921
L184009 36864
L184122 36696
L184178 36471
L184178 36021
L184122 35908
L184066 35852
L183953 35796
L183728 35796
L183616 35852
L183559 35908
L183503 36021
L183503 36302
L183559 36414
L183616 36471
L183728 36527
L183953 36527
L184066 36471
L184122 36414
L184178 36302
" />
</g>
<g style="fill:#840084; fill-opacity:0.0; 
stroke:#840084; stroke-width:47.2441; stroke-opacity:1; 
stroke-linecap:round; stroke-linejoin:round;">
<path d="M196234 13941
L197336 13941
" />
<path d="M197336 13941
L197336 13154
" />
<path d="M197336 13154
L196234 13154
" />
<path d="M196234 13154
L196234 13941
" />
<path d="M196228 55904
L196228 56691
" />
<path d="M197330 55904
L196228 55904
" />
<path d="M197330 56691
L197330 55904
" />
<path d="M196228 56691
L197330 56691
" />
<path d="M221228 13154
L221228 13941
" />
<path d="M222330 13154
L221228 13154
" />
<path d="M222330 13941
L222330 13154
" />
<path d="M221228 13941
L222330 13941
" />
<path d="M227580 55904
L226478 55904
" />
<path d="M226478 55904
L226478 56691
" />
<path d="M226478 56691
L227580 56691
" />
<path d="M227580 56691
L227580 55904
" />
</g>
<g style="fill:#840084; fill-opacity:0.0; 
stroke:#840084; stroke-width:59.0551; stroke-opacity:1; 
stroke-linecap:round; stroke-linejoin:round;">
<path d="M198857 13332
L198857 13613
L198876 13670
L198913 13707
L198970 13726
L199007 13726
" />
<path d="M198670 13726
L198670 13332
L198520 13332
L198482 13351
L198463 13370
L198445 13407
L198445 13463
L198463 13501
L198482 13520
L198520 13538
L198670 13538
" />
<path d="M198070 13726
L198295 13726
" />
<path d="M198182 13726
L198182 13332
L198220 13388
L198257 13426
L198295 13445
" />
<path d="M197107 55332
L197107 55613
L197126 55670
L197163 55707
L197220 55726
L197257 55726
" />
<path d="M196920 55726
L196920 55332
L196770 55332
L196732 55351
L196713 55370
L196695 55407
L196695 55463
L196713 55501
L196732 55520
L196770 55538
L196920 55538
" />
<path d="M196545 55370
L196526 55351
L196488 55332
L196395 55332
L196357 55351
L196338 55370
L196320 55407
L196320 55445
L196338 55501
L196563 55726
L196320 55726
" />
<path d="M222107 14041
L222107 14322
L222126 14378
L222163 14416
L222220 14434
L222257 14434
" />
<path d="M221920 14434
L221920 14041
L221770 14041
L221732 14060
L221713 14078
L221695 14116
L221695 14172
L221713 14210
L221732 14228
L221770 14247
L221920 14247
" />
<path d="M221563 14041
L221320 14041
L221451 14191
L221395 14191
L221357 14210
L221338 14228
L221320 14266
L221320 14360
L221338 14397
L221357 14416
L221395 14434
L221507 14434
L221545 14416
L221563 14397
" />
<path d="M227357 55373
L227357 55655
L227376 55711
L227413 55748
L227470 55767
L227507 55767
" />
<path d="M227170 55767
L227170 55373
L227020 55373
L226982 55392
L226963 55411
L226945 55448
L226945 55505
L226963 55542
L226982 55561
L227020 55580
L227170 55580
" />
<path d="M226607 55505
L226607 55767
" />
<path d="M226701 55355
L226795 55636
L226551 55636
" />
<path d="M200095 50988
L200113 51007
L200170 51026
L200207 51026
L200263 51007
L200301 50970
L200320 50932
L200338 50857
L200338 50801
L200320 50726
L200301 50688
L200263 50651
L200207 50632
L200170 50632
L200113 50651
L200095 50670
" />
<path d="M199738 50632
L199926 50632
L199945 50820
L199926 50801
L199888 50782
L199795 50782
L199757 50801
L199738 50820
L199720 50857
L199720 50951
L199738 50988
L199757 51007
L199795 51026
L199888 51026
L199926 51007
L199945 50988
" />
<path d="M205095 53488
L205113 53507
L205170 53526
L205207 53526
L205263 53507
L205301 53470
L205320 53432
L205338 53357
L205338 53301
L205320 53226
L205301 53188
L205263 53151
L205207 53132
L205170 53132
L205113 53151
L205095 53170
" />
<path d="M204757 53132
L204832 53132
L204870 53151
L204888 53170
L204926 53226
L204945 53301
L204945 53451
L204926 53488
L204907 53507
L204870 53526
L204795 53526
L204757 53507
L204738 53488
L204720 53451
L204720 53357
L204738 53320
L204757 53301
L204795 53282
L204870 53282
L204907 53301
L204926 53320
L204945 53357
" />
<path d="M200095 50238
L200113 50257
L200170 50276
L200207 50276
L200263 50257
L200301 50220
L200320 50182
L200338 50107
L200338 50051
L200320 49976
L200301 49938
L200263 49901
L200207 49882
L200170 49882
L200113 49901
L200095 49920
" />
<path d="M199963 49882
L199701 49882
L199870 50276
" />
<path d="M205095 52738
L205113 52757
L205170 52776
L205207 52776
L205263 52757
L205301 52720
L205320 52682
L205338 52607
L205338 52551
L205320 52476
L205301 52438
L205263 52401
L205207 52382
L205170 52382
L205113 52401
L205095 52420
" />
<path d="M204870 52551
L204907 52532
L204926 52513
L204945 52476
L204945 52457
L204926 52420
L204907 52401
L204870 52382
L204795 52382
L204757 52401
L204738 52420
L204720 52457
L204720 52476
L204738 52513
L204757 52532
L204795 52551
L204870 52551
L204907 52570
L204926 52588
L204945 52626
L204945 52701
L204926 52738
L204907 52757
L204870 52776
L204795 52776
L204757 52757
L204738 52738
L204720 52701
L204720 52626
L204738 52588
L204757 52570
L204795 52551
" />
<path d="M204920 19732
L204938 19713
L204957 19657
L204957 19620
L204938 19563
L204901 19526
L204863 19507
L204788 19488
L204732 19488
L204657 19507
L204620 19526
L204582 19563
L204563 19620
L204563 19657
L204582 19713
L204601 19732
" />
<path d="M204957 19920
L204957 19995
L204938 20032
L204920 20051
L204863 20088
L204788 20107
L204638 20107
L204601 20088
L204582 20070
L204563 20032
L204563 19957
L204582 19920
L204601 19901
L204638 19882
L204732 19882
L204770 19901
L204788 19920
L204807 19957
L204807 20032
L204788 20070
L204770 20088
L204732 20107
" />
<path d="M201170 19045
L201188 19026
L201207 18970
L201207 18932
L201188 18876
L201151 18838
L201113 18820
L201038 18801
L200982 18801
L200907 18820
L200870 18838
L200832 18876
L200813 18932
L200813 18970
L200832 19026
L200851 19045
" />
<path d="M201207 19420
L201207 19195
" />
<path d="M201207 19307
L200813 19307
L200870 19270
L200907 19232
L200926 19195
" />
<path d="M200813 19663
L200813 19701
L200832 19738
L200851 19757
L200888 19776
L200963 19795
L201057 19795
L201132 19776
L201170 19757
L201188 19738
L201207 19701
L201207 19663
L201188 19626
L201170 19607
L201132 19588
L201057 19570
L200963 19570
L200888 19588
L200851 19607
L200832 19626
L200813 19663
" />
<path d="M205670 19545
L205688 19526
L205707 19470
L205707 19432
L205688 19376
L205651 19338
L205613 19320
L205538 19301
L205482 19301
L205407 19320
L205370 19338
L205332 19376
L205313 19432
L205313 19470
L205332 19526
L205351 19545
" />
<path d="M205707 19920
L205707 19695
" />
<path d="M205707 19807
L205313 19807
L205370 19770
L205407 19732
L205426 19695
" />
<path d="M205707 20295
L205707 20070
" />
<path d="M205707 20182
L205313 20182
L205370 20145
L205407 20107
L205426 20070
" />
<path d="M201920 19045
L201938 19026
L201957 18970
L201957 18932
L201938 18876
L201901 18838
L201863 18820
L201788 18801
L201732 18801
L201657 18820
L201620 18838
L201582 18876
L201563 18932
L201563 18970
L201582 19026
L201601 19045
" />
<path d="M201957 19420
L201957 19195
" />
<path d="M201957 19307
L201563 19307
L201620 19270
L201657 19232
L201676 19195
" />
<path d="M201601 19570
L201582 19588
L201563 19626
L201563 19720
L201582 19757
L201601 19776
L201638 19795
L201676 19795
L201732 19776
L201957 19551
L201957 19795
" />
<path d="M209582 14838
L209601 14857
L209657 14876
L209695 14876
L209751 14857
L209788 14820
L209807 14782
L209826 14707
L209826 14651
L209807 14576
L209788 14538
L209751 14501
L209695 14482
L209657 14482
L209601 14501
L209582 14520
" />
<path d="M209207 14876
L209432 14876
" />
<path d="M209320 14876
L209320 14482
L209357 14538
L209395 14576
L209432 14595
" />
<path d="M209020 14876
L208945 14876
L208907 14857
L208888 14838
L208851 14782
L208832 14707
L208832 14557
L208851 14520
L208870 14501
L208907 14482
L208982 14482
L209020 14501
L209038 14520
L209057 14557
L209057 14651
L209038 14688
L209020 14707
L208982 14726
L208907 14726
L208870 14707
L208851 14688
L208832 14651
" />
<path d="M212682 17088
L212701 17107
L212757 17126
L212795 17126
L212851 17107
L212888 17070
L212907 17032
L212926 16957
L212926 16901
L212907 16826
L212888 16788
L212851 16751
L212795 16732
L212757 16732
L212701 16751
L212682 16770
" />
<path d="M212532 16770
L212513 16751
L212476 16732
L212382 16732
L212345 16751
L212326 16770
L212307 16807
L212307 16845
L212326 16901
L212551 17126
L212307 17126
" />
<path d="M212063 16732
L212026 16732
L211988 16751
L211970 16770
L211951 16807
L211932 16882
L211932 16976
L211951 17051
L211970 17088
L211988 17107
L212026 17126
L212063 17126
L212101 17107
L212120 17088
L212138 17051
L212157 16976
L212157 16882
L212138 16807
L212120 16770
L212101 16751
L212063 16732
" />
<path d="M207670 52545
L207688 52526
L207707 52470
L207707 52432
L207688 52376
L207651 52338
L207613 52320
L207538 52301
L207482 52301
L207407 52320
L207370 52338
L207332 52376
L207313 52432
L207313 52470
L207332 52526
L207351 52545
" />
<path d="M207351 52695
L207332 52713
L207313 52751
L207313 52845
L207332 52882
L207351 52901
L207388 52920
L207426 52920
L207482 52901
L207707 52676
L207707 52920
" />
<path d="M207707 53295
L207707 53070
" />
<path d="M207707 53182
L207313 53182
L207370 53145
L207407 53107
L207426 53070
" />
<path d="M205395 46345
L205413 46326
L205432 46270
L205432 46232
L205413 46176
L205376 46138
L205338 46120
L205263 46101
L205207 46101
L205132 46120
L205095 46138
L205057 46176
L205038 46232
L205038 46270
L205057 46326
L205076 46345
" />
<path d="M205076 46495
L205057 46513
L205038 46551
L205038 46645
L205057 46682
L205076 46701
L205113 46720
L205151 46720
L205207 46701
L205432 46476
L205432 46720
" />
<path d="M205076 46870
L205057 46888
L205038 46926
L205038 47020
L205057 47057
L205076 47076
L205113 47095
L205151 47095
L205207 47076
L205432 46851
L205432 47095
" />
<path d="M209582 15338
L209601 15357
L209657 15376
L209695 15376
L209751 15357
L209788 15320
L209807 15282
L209826 15207
L209826 15151
L209807 15076
L209788 15038
L209751 15001
L209695 14982
L209657 14982
L209601 15001
L209582 15020
" />
<path d="M209432 15020
L209413 15001
L209376 14982
L209282 14982
L209245 15001
L209226 15020
L209207 15057
L209207 15095
L209226 15151
L209451 15376
L209207 15376
" />
<path d="M209076 14982
L208832 14982
L208963 15132
L208907 15132
L208870 15151
L208851 15170
L208832 15207
L208832 15301
L208851 15338
L208870 15357
L208907 15376
L209020 15376
L209057 15357
L209076 15338
" />
<path d="M212682 17588
L212701 17607
L212757 17626
L212795 17626
L212851 17607
L212888 17570
L212907 17532
L212926 17457
L212926 17401
L212907 17326
L212888 17288
L212851 17251
L212795 17232
L212757 17232
L212701 17251
L212682 17270
" />
<path d="M212532 17270
L212513 17251
L212476 17232
L212382 17232
L212345 17251
L212326 17270
L212307 17307
L212307 17345
L212326 17401
L212551 17626
L212307 17626
" />
<path d="M211970 17363
L211970 17626
" />
<path d="M212063 17213
L212157 17495
L211913 17495
" />
<path d="M206920 52545
L206938 52526
L206957 52470
L206957 52432
L206938 52376
L206901 52338
L206863 52320
L206788 52301
L206732 52301
L206657 52320
L206620 52338
L206582 52376
L206563 52432
L206563 52470
L206582 52526
L206601 52545
" />
<path d="M206601 52695
L206582 52713
L206563 52751
L206563 52845
L206582 52882
L206601 52901
L206638 52920
L206676 52920
L206732 52901
L206957 52676
L206957 52920
" />
<path d="M206563 53276
L206563 53088
L206751 53070
L206732 53088
L206713 53126
L206713 53220
L206732 53257
L206751 53276
L206788 53295
L206882 53295
L206920 53276
L206938 53257
L206957 53220
L206957 53126
L206938 53088
L206920 53070
" />
<path d="M204770 46320
L204788 46301
L204807 46245
L204807 46207
L204788 46151
L204751 46113
L204713 46095
L204638 46076
L204582 46076
L204507 46095
L204470 46113
L204432 46151
L204413 46207
L204413 46245
L204432 46301
L204451 46320
" />
<path d="M204451 46470
L204432 46488
L204413 46526
L204413 46620
L204432 46657
L204451 46676
L204488 46695
L204526 46695
L204582 46676
L204807 46451
L204807 46695
" />
<path d="M204413 47032
L204413 46957
L204432 46920
L204451 46901
L204507 46863
L204582 46845
L204732 46845
L204770 46863
L204788 46882
L204807 46920
L204807 46995
L204788 47032
L204770 47051
L204732 47070
L204638 47070
L204601 47051
L204582 47032
L204563 46995
L204563 46920
L204582 46882
L204601 46863
L204638 46845
" />
<path d="M220270 13295
L220288 13276
L220307 13220
L220307 13182
L220288 13126
L220251 13088
L220213 13070
L220138 13051
L220082 13051
L220007 13070
L219970 13088
L219932 13126
L219913 13182
L219913 13220
L219932 13276
L219951 13295
" />
<path d="M219951 13445
L219932 13463
L219913 13501
L219913 13595
L219932 13632
L219951 13651
L219988 13670
L220026 13670
L220082 13651
L220307 13426
L220307 13670
" />
<path d="M219913 13801
L219913 14063
L220307 13895
" />
<path d="M215420 16045
L215438 16026
L215457 15970
L215457 15932
L215438 15876
L215401 15838
L215363 15820
L215288 15801
L215232 15801
L215157 15820
L215120 15838
L215082 15876
L215063 15932
L215063 15970
L215082 16026
L215101 16045
" />
<path d="M215101 16195
L215082 16213
L215063 16251
L215063 16345
L215082 16382
L215101 16401
L215138 16420
L215176 16420
L215232 16401
L215457 16176
L215457 16420
" />
<path d="M215232 16645
L215213 16607
L215195 16588
L215157 16570
L215138 16570
L215101 16588
L215082 16607
L215063 16645
L215063 16720
L215082 16757
L215101 16776
L215138 16795
L215157 16795
L215195 16776
L215213 16757
L215232 16720
L215232 16645
L215251 16607
L215270 16588
L215307 16570
L215382 16570
L215420 16588
L215438 16607
L215457 16645
L215457 16720
L215438 16757
L215420 16776
L215382 16795
L215307 16795
L215270 16776
L215251 16757
L215232 16720
" />
<path d="M213382 55938
L213401 55957
L213457 55976
L213495 55976
L213551 55957
L213588 55920
L213607 55882
L213626 55807
L213626 55751
L213607 55676
L213588 55638
L213551 55601
L213495 55582
L213457 55582
L213401 55601
L213382 55620
" />
<path d="M213232 55620
L213213 55601
L213176 55582
L213082 55582
L213045 55601
L213026 55620
L213007 55657
L213007 55695
L213026 55751
L213251 55976
L213007 55976
" />
<path d="M212820 55976
L212745 55976
L212707 55957
L212688 55938
L212651 55882
L212632 55807
L212632 55657
L212651 55620
L212670 55601
L212707 55582
L212782 55582
L212820 55601
L212838 55620
L212857 55657
L212857 55751
L212838 55788
L212820 55807
L212782 55826
L212707 55826
L212670 55807
L212651 55788
L212632 55751
" />
<path d="M210270 52745
L210288 52726
L210307 52670
L210307 52632
L210288 52576
L210251 52538
L210213 52520
L210138 52501
L210082 52501
L210007 52520
L209970 52538
L209932 52576
L209913 52632
L209913 52670
L209932 52726
L209951 52745
" />
<path d="M209913 52876
L209913 53120
L210063 52988
L210063 53045
L210082 53082
L210101 53101
L210138 53120
L210232 53120
L210270 53101
L210288 53082
L210307 53045
L210307 52932
L210288 52895
L210270 52876
" />
<path d="M209913 53363
L209913 53401
L209932 53438
L209951 53457
L209988 53476
L210063 53495
L210157 53495
L210232 53476
L210270 53457
L210288 53438
L210307 53401
L210307 53363
L210288 53326
L210270 53307
L210232 53288
L210157 53270
L210063 53270
L209988 53288
L209951 53307
L209932 53326
L209913 53363
" />
<g >
</g>
</g>
<g style="fill:#000000; fill-opacity:0.0; 
stroke:#000000; stroke-width:59.0551; stroke-opacity:1; 
stroke-linecap:round; stroke-linejoin:round;">
</g>
<g style="fill:#C2C200; fill-opacity:0.0; 
stroke:#C2C200; stroke-width:59.0551; stroke-opacity:1; 
stroke-linecap:round; stroke-linejoin:round;">
<path d="M232529 57448
L157479 57448
" />
<path d="M232529 12448
L232529 57448
" />
<path d="M157479 12448
L232529 12448
" />
<path d="M157479 57448
L157479 12448
" />
<g >
</g>
<g >
</g>
<g >
</g>
<g >
</g>
<g >
</g>
<g >
</g>
<g >
</g>
<g >
</g>
<g >
</g>
<g >
</g>
<g >
</g>
<g >
</g>
<g >
</g>
<g >
</g>
<g >
</g>
<g >
</g>
<g >
</g>
<g >
</g>
<g >
</g>
<g >
</g>
<g >
</g>
<g >
</g>
<g >
</g>
<g >
</g>
<g >
</g>
<g >
</g>
<g >
</g>
<g >
</g>
<g >
</g>
<g >
</g>
<g >
</g>
<g >
</g>
<g >
</g>
<g >
</g>
<g >
</g>
<g >
</g>
<g >
</g>
<g >
</g>
<g >
</g>
<g >
</g>
<g >
</g>
<g >
</g>
<g >
</g>
<g >
</g>
<g >
</g>
<g >
</g>
<g >
</g>
<g >
</g>
<g >
</g>
<g >
</g>
<g >
</g>
<g >
</g>
<g >
</g>
<g >
</g>
<g >
</g>
<g >
</g>
<g >
</g>
<g >
</g>
<g >
</g>
<g >
</g>
<g >
</g>
<g >
</g>
<g >
</g>
<g >
</g>
<g >
</g>
<g >
</g>
<g >
</g>
<g >
</g>
<g >
</g>
<g >
</g>
<g >
</g>
<g >
</g>
<g >
</g>
<g >
</g>
<g >
</g>
<g >
</g>
<g >
</g>
<g >
</g>
<g >
</g>
<g >
</g>
<g >
</g>
<g >
</g>
<g >
</g>
<g >
</g>
<g >
</g>
<g >
</g>
<g >
</g>
<g >
</g>
<g >
</g>
<g >
</g>
<g >
</g>
<g >
</g>
<g >
</g>
<g >
</g>
<g >
</g>
<g >
</g>
<g >
</g>
<g >
</g>
<g >
</g>
<g >
</g>
<g >
</g>
<g >
</g>
<g >
</g>
<g >
</g>
<g >
</g>
<g >
</g>
<g >
</g>
<g >
</g>
<g >
</g>
<g >
</g>
<g >
</g>
<g >
</g>
<g >
</g>
<g >
</g>
<g >
</g>
<g >
</g>
<g >
</g>
<g >
</g>
</g> 
</svg>
