<?xml version="1.0" standalone="no"?>
 <!DOCTYPE svg PUBLIC "-//W3C//DTD SVG 1.1//EN" 
 "http://www.w3.org/Graphics/SVG/1.1/DTD/svg11.dtd"> 
<svg xmlns="http://www.w3.org/2000/svg" version="1.1" 
    width="59.497cm" height="18.4963cm" viewBox="0 0 234240 72820 ">
<title>SVG Picture created as CurrentSinkModule-B_Mask.svg date 2019/07/09 01:36:55 </title>
  <desc>Picture generated by PCBNEW </desc>
<g style="fill:#000000; fill-opacity:1;stroke:#000000; stroke-opacity:1;
stroke-linecap:round; stroke-linejoin:round; "
 transform="translate(0 0) scale(1 1)">
</g>
<g style="fill:#000000; fill-opacity:0.0; 
stroke:#000000; stroke-width:-0.000393701; stroke-opacity:1; 
stroke-linecap:round; stroke-linejoin:round;">
<g >
</g>
<g style="fill:#848400; fill-opacity:0.0; 
stroke:#848400; stroke-width:-0.000393701; stroke-opacity:1; 
stroke-linecap:round; stroke-linejoin:round;">
</g>
<g style="fill:#848400; fill-opacity:1.0; 
stroke:#848400; stroke-width:0; stroke-opacity:1; 
stroke-linecap:round; stroke-linejoin:round;">
<circle cx="160534" cy="49393.2" r="767.717" /> 
</g>
<g style="fill:#848400; fill-opacity:1.0; 
stroke:#848400; stroke-width:39.3701; stroke-opacity:1; 
stroke-linecap:round; stroke-linejoin:round;">
</g>
<g style="fill:#848400; fill-opacity:1.0; 
stroke:#848400; stroke-width:0; stroke-opacity:1; 
stroke-linecap:round; stroke-linejoin:round;">
<circle cx="193094" cy="49394.2" r="767.717" /> 
</g>
<g style="fill:#848400; fill-opacity:1.0; 
stroke:#848400; stroke-width:39.3701; stroke-opacity:1; 
stroke-linecap:round; stroke-linejoin:round;">
</g>
<g >
</g>
<g style="fill:#848400; fill-opacity:1.0; 
stroke:#848400; stroke-width:0; stroke-opacity:1; 
stroke-linecap:round; stroke-linejoin:round;">
<circle cx="193026" cy="20353.2" r="767.717" /> 
</g>
<g style="fill:#848400; fill-opacity:1.0; 
stroke:#848400; stroke-width:39.3701; stroke-opacity:1; 
stroke-linecap:round; stroke-linejoin:round;">
</g>
<g style="fill:#848400; fill-opacity:1.0; 
stroke:#848400; stroke-width:0; stroke-opacity:1; 
stroke-linecap:round; stroke-linejoin:round;">
<circle cx="160466" cy="20352.2" r="767.717" /> 
</g>
<g style="fill:#848400; fill-opacity:1.0; 
stroke:#848400; stroke-width:39.3701; stroke-opacity:1; 
stroke-linecap:round; stroke-linejoin:round;">
</g>
<g >
</g>
<g >
</g>
<g >
</g>
<g style="fill:#848400; fill-opacity:1.0; 
stroke:#848400; stroke-width:0; stroke-opacity:1; 
stroke-linecap:round; stroke-linejoin:round;">
<circle cx="196780" cy="46298.2" r="925.197" /> 
</g>
<g style="fill:#848400; fill-opacity:1.0; 
stroke:#848400; stroke-width:39.3701; stroke-opacity:1; 
stroke-linecap:round; stroke-linejoin:round;">
</g>
<g >
</g>
<g style="fill:#848400; fill-opacity:1.0; 
stroke:#848400; stroke-width:0; stroke-opacity:1; 
stroke-linecap:round; stroke-linejoin:round;">
<circle cx="196530" cy="23048.2" r="925.197" /> 
</g>
<g style="fill:#848400; fill-opacity:1.0; 
stroke:#848400; stroke-width:39.3701; stroke-opacity:1; 
stroke-linecap:round; stroke-linejoin:round;">
</g>
<g >
</g>
<g style="fill:#848400; fill-opacity:1.0; 
stroke:#848400; stroke-width:0; stroke-opacity:1; 
stroke-linecap:round; stroke-linejoin:round;">
<circle cx="230530" cy="14448.2" r="925.197" /> 
</g>
<g style="fill:#848400; fill-opacity:1.0; 
stroke:#848400; stroke-width:39.3701; stroke-opacity:1; 
stroke-linecap:round; stroke-linejoin:round;">
</g>
<g >
</g>
<g style="fill:#848400; fill-opacity:1.0; 
stroke:#848400; stroke-width:0; stroke-opacity:1; 
stroke-linecap:round; stroke-linejoin:round;">
<circle cx="230530" cy="55448.2" r="925.197" /> 
</g>
<g style="fill:#848400; fill-opacity:1.0; 
stroke:#848400; stroke-width:39.3701; stroke-opacity:1; 
stroke-linecap:round; stroke-linejoin:round;">
</g>
<g >
</g>
<g style="fill:#848400; fill-opacity:1.0; 
stroke:#848400; stroke-width:0; stroke-opacity:1; 
stroke-linecap:round; stroke-linejoin:round;">
<circle cx="159530" cy="55548.2" r="925.197" /> 
</g>
<g style="fill:#848400; fill-opacity:1.0; 
stroke:#848400; stroke-width:39.3701; stroke-opacity:1; 
stroke-linecap:round; stroke-linejoin:round;">
</g>
<g >
</g>
<g style="fill:#848400; fill-opacity:1.0; 
stroke:#848400; stroke-width:0; stroke-opacity:1; 
stroke-linecap:round; stroke-linejoin:round;">
<circle cx="159530" cy="14548.2" r="925.197" /> 
</g>
<g style="fill:#848400; fill-opacity:1.0; 
stroke:#848400; stroke-width:39.3701; stroke-opacity:1; 
stroke-linecap:round; stroke-linejoin:round;">
</g>
<g >
</g>
<g >
</g>
<g >
</g>
<g style="fill:#848400; fill-opacity:1.0; 
stroke:#848400; stroke-width:0; stroke-opacity:1; 
stroke-linecap:round; stroke-linejoin:round;">
<path style="fill:#848400; fill-opacity:1.0; 
stroke:#848400; stroke-width:0; stroke-opacity:1; 
stroke-linecap:round; stroke-linejoin:round;fill-rule:evenodd;"
d="M 206942,56134
206942,56961
206116,56961
206116,56134
206942,56134
Z" /> 
</g>
<g style="fill:#848400; fill-opacity:1.0; 
stroke:#848400; stroke-width:826.772; stroke-opacity:1; 
stroke-linecap:round; stroke-linejoin:round;">
</g>
<g style="fill:#848400; fill-opacity:0.0; 
stroke:#848400; stroke-width:826.772; stroke-opacity:1; 
stroke-linecap:round; stroke-linejoin:round;">
<path d="M206529 55548
L206529 55548
" />
<path d="M206529 54548
L206529 54548
" />
</g>
<g >
<path d="M199779 23798
L199779 23798
" />
<path d="M199779 22798
L199779 22798
" />
</g>
<g style="fill:#848400; fill-opacity:0.0; 
stroke:#848400; stroke-width:0; stroke-opacity:1; 
stroke-linecap:round; stroke-linejoin:round;">
</g>
<g style="fill:#848400; fill-opacity:1.0; 
stroke:#848400; stroke-width:0; stroke-opacity:1; 
stroke-linecap:round; stroke-linejoin:round;">
<path style="fill:#848400; fill-opacity:1.0; 
stroke:#848400; stroke-width:0; stroke-opacity:1; 
stroke-linecap:round; stroke-linejoin:round;fill-rule:evenodd;"
d="M 199366,22211
199366,21384
200192,21384
200192,22211
199366,22211
Z" /> 
</g>
<g >
<path style="fill:#848400; fill-opacity:1.0; 
stroke:#848400; stroke-width:0; stroke-opacity:1; 
stroke-linecap:round; stroke-linejoin:round;fill-rule:evenodd;"
d="M 231488,47491
231498,47493
231509,47495
231519,47499
231528,47504
231538,47509
231546,47515
231554,47523
231561,47531
231568,47539
231573,47548
231578,47558
231581,47568
231584,47578
231586,47589
231586,47600
231586,48996
231586,49006
231584,49017
231581,49027
231578,49037
231573,49047
231568,49056
231561,49065
231554,49073
231546,49080
231538,49086
231528,49092
231519,49097
231509,49100
231498,49103
231488,49104
231477,49105
230081,49105
230070,49104
230060,49103
230049,49100
230039,49097
230030,49092
230020,49086
230012,49080
230004,49073
229997,49065
229990,49056
229985,49047
229980,49037
229977,49027
229974,49017
229972,49006
229972,48996
229972,47600
229972,47589
229974,47578
229977,47568
229980,47558
229985,47548
229990,47539
229997,47531
230004,47523
230012,47515
230020,47509
230030,47504
230039,47499
230049,47495
230060,47493
230070,47491
230081,47491
231477,47491
231488,47491
Z" /> 
<circle cx="230780" cy="50542.3" r="807.087" /> 
</g>
<g style="fill:#848400; fill-opacity:1.0; 
stroke:#848400; stroke-width:39.3701; stroke-opacity:1; 
stroke-linecap:round; stroke-linejoin:round;">
</g>
<g style="fill:#848400; fill-opacity:1.0; 
stroke:#848400; stroke-width:0; stroke-opacity:1; 
stroke-linecap:round; stroke-linejoin:round;">
<circle cx="228535" cy="48298.2" r="807.087" /> 
</g>
<g style="fill:#848400; fill-opacity:1.0; 
stroke:#848400; stroke-width:39.3701; stroke-opacity:1; 
stroke-linecap:round; stroke-linejoin:round;">
</g>
<g style="fill:#848400; fill-opacity:1.0; 
stroke:#848400; stroke-width:0; stroke-opacity:1; 
stroke-linecap:round; stroke-linejoin:round;">
<circle cx="228535" cy="50542.3" r="807.087" /> 
</g>
<g style="fill:#848400; fill-opacity:1.0; 
stroke:#848400; stroke-width:39.3701; stroke-opacity:1; 
stroke-linecap:round; stroke-linejoin:round;">
</g>
<g style="fill:#848400; fill-opacity:1.0; 
stroke:#848400; stroke-width:0; stroke-opacity:1; 
stroke-linecap:round; stroke-linejoin:round;">
<circle cx="228407" cy="46262.8" r="669.291" /> 
</g>
<g style="fill:#848400; fill-opacity:1.0; 
stroke:#848400; stroke-width:39.3701; stroke-opacity:1; 
stroke-linecap:round; stroke-linejoin:round;">
</g>
<g style="fill:#848400; fill-opacity:1.0; 
stroke:#848400; stroke-width:0; stroke-opacity:1; 
stroke-linecap:round; stroke-linejoin:round;">
<circle cx="228407" cy="52577.8" r="669.291" /> 
</g>
<g style="fill:#848400; fill-opacity:1.0; 
stroke:#848400; stroke-width:39.3701; stroke-opacity:1; 
stroke-linecap:round; stroke-linejoin:round;">
</g>
<g >
</g>
<g style="fill:#848400; fill-opacity:1.0; 
stroke:#848400; stroke-width:0; stroke-opacity:1; 
stroke-linecap:round; stroke-linejoin:round;">
<circle cx="224530" cy="14548.2" r="482.283" /> 
</g>
<g style="fill:#848400; fill-opacity:1.0; 
stroke:#848400; stroke-width:39.3701; stroke-opacity:1; 
stroke-linecap:round; stroke-linejoin:round;">
</g>
<g style="fill:#848400; fill-opacity:1.0; 
stroke:#848400; stroke-width:0; stroke-opacity:1; 
stroke-linecap:round; stroke-linejoin:round;">
<circle cx="225530" cy="15548.2" r="521.654" /> 
</g>
<g style="fill:#848400; fill-opacity:1.0; 
stroke:#848400; stroke-width:39.3701; stroke-opacity:1; 
stroke-linecap:round; stroke-linejoin:round;">
</g>
<g style="fill:#848400; fill-opacity:1.0; 
stroke:#848400; stroke-width:0; stroke-opacity:1; 
stroke-linecap:round; stroke-linejoin:round;">
<circle cx="225530" cy="13548.2" r="521.654" /> 
</g>
<g style="fill:#848400; fill-opacity:1.0; 
stroke:#848400; stroke-width:39.3701; stroke-opacity:1; 
stroke-linecap:round; stroke-linejoin:round;">
</g>
<g style="fill:#848400; fill-opacity:1.0; 
stroke:#848400; stroke-width:0; stroke-opacity:1; 
stroke-linecap:round; stroke-linejoin:round;">
<circle cx="223530" cy="13548.2" r="521.654" /> 
</g>
<g style="fill:#848400; fill-opacity:1.0; 
stroke:#848400; stroke-width:39.3701; stroke-opacity:1; 
stroke-linecap:round; stroke-linejoin:round;">
</g>
<g style="fill:#848400; fill-opacity:1.0; 
stroke:#848400; stroke-width:0; stroke-opacity:1; 
stroke-linecap:round; stroke-linejoin:round;">
<circle cx="223530" cy="15548.2" r="521.654" /> 
</g>
<g style="fill:#848400; fill-opacity:1.0; 
stroke:#848400; stroke-width:39.3701; stroke-opacity:1; 
stroke-linecap:round; stroke-linejoin:round;">
</g>
<g >
</g>
<g style="fill:#848400; fill-opacity:1.0; 
stroke:#848400; stroke-width:0; stroke-opacity:1; 
stroke-linecap:round; stroke-linejoin:round;">
<circle cx="223530" cy="56298.2" r="521.654" /> 
</g>
<g style="fill:#848400; fill-opacity:1.0; 
stroke:#848400; stroke-width:39.3701; stroke-opacity:1; 
stroke-linecap:round; stroke-linejoin:round;">
</g>
<g style="fill:#848400; fill-opacity:1.0; 
stroke:#848400; stroke-width:0; stroke-opacity:1; 
stroke-linecap:round; stroke-linejoin:round;">
<circle cx="223530" cy="54298.2" r="521.654" /> 
</g>
<g style="fill:#848400; fill-opacity:1.0; 
stroke:#848400; stroke-width:39.3701; stroke-opacity:1; 
stroke-linecap:round; stroke-linejoin:round;">
</g>
<g style="fill:#848400; fill-opacity:1.0; 
stroke:#848400; stroke-width:0; stroke-opacity:1; 
stroke-linecap:round; stroke-linejoin:round;">
<circle cx="225530" cy="54298.2" r="521.654" /> 
</g>
<g style="fill:#848400; fill-opacity:1.0; 
stroke:#848400; stroke-width:39.3701; stroke-opacity:1; 
stroke-linecap:round; stroke-linejoin:round;">
</g>
<g style="fill:#848400; fill-opacity:1.0; 
stroke:#848400; stroke-width:0; stroke-opacity:1; 
stroke-linecap:round; stroke-linejoin:round;">
<circle cx="225530" cy="56298.2" r="521.654" /> 
</g>
<g style="fill:#848400; fill-opacity:1.0; 
stroke:#848400; stroke-width:39.3701; stroke-opacity:1; 
stroke-linecap:round; stroke-linejoin:round;">
</g>
<g style="fill:#848400; fill-opacity:1.0; 
stroke:#848400; stroke-width:0; stroke-opacity:1; 
stroke-linecap:round; stroke-linejoin:round;">
<circle cx="224530" cy="55298.2" r="482.283" /> 
</g>
<g style="fill:#848400; fill-opacity:1.0; 
stroke:#848400; stroke-width:39.3701; stroke-opacity:1; 
stroke-linecap:round; stroke-linejoin:round;">
</g>
<g >
</g>
<g style="fill:#848400; fill-opacity:1.0; 
stroke:#848400; stroke-width:0; stroke-opacity:1; 
stroke-linecap:round; stroke-linejoin:round;">
<circle cx="194530" cy="14548.2" r="482.283" /> 
</g>
<g style="fill:#848400; fill-opacity:1.0; 
stroke:#848400; stroke-width:39.3701; stroke-opacity:1; 
stroke-linecap:round; stroke-linejoin:round;">
</g>
<g style="fill:#848400; fill-opacity:1.0; 
stroke:#848400; stroke-width:0; stroke-opacity:1; 
stroke-linecap:round; stroke-linejoin:round;">
<circle cx="195530" cy="15548.2" r="521.654" /> 
</g>
<g style="fill:#848400; fill-opacity:1.0; 
stroke:#848400; stroke-width:39.3701; stroke-opacity:1; 
stroke-linecap:round; stroke-linejoin:round;">
</g>
<g style="fill:#848400; fill-opacity:1.0; 
stroke:#848400; stroke-width:0; stroke-opacity:1; 
stroke-linecap:round; stroke-linejoin:round;">
<circle cx="195530" cy="13548.2" r="521.654" /> 
</g>
<g style="fill:#848400; fill-opacity:1.0; 
stroke:#848400; stroke-width:39.3701; stroke-opacity:1; 
stroke-linecap:round; stroke-linejoin:round;">
</g>
<g style="fill:#848400; fill-opacity:1.0; 
stroke:#848400; stroke-width:0; stroke-opacity:1; 
stroke-linecap:round; stroke-linejoin:round;">
<circle cx="193530" cy="13548.2" r="521.654" /> 
</g>
<g style="fill:#848400; fill-opacity:1.0; 
stroke:#848400; stroke-width:39.3701; stroke-opacity:1; 
stroke-linecap:round; stroke-linejoin:round;">
</g>
<g style="fill:#848400; fill-opacity:1.0; 
stroke:#848400; stroke-width:0; stroke-opacity:1; 
stroke-linecap:round; stroke-linejoin:round;">
<circle cx="193530" cy="15548.2" r="521.654" /> 
</g>
<g style="fill:#848400; fill-opacity:1.0; 
stroke:#848400; stroke-width:39.3701; stroke-opacity:1; 
stroke-linecap:round; stroke-linejoin:round;">
</g>
<g >
</g>
<g style="fill:#848400; fill-opacity:1.0; 
stroke:#848400; stroke-width:0; stroke-opacity:1; 
stroke-linecap:round; stroke-linejoin:round;">
<circle cx="193530" cy="56298.2" r="521.654" /> 
</g>
<g style="fill:#848400; fill-opacity:1.0; 
stroke:#848400; stroke-width:39.3701; stroke-opacity:1; 
stroke-linecap:round; stroke-linejoin:round;">
</g>
<g style="fill:#848400; fill-opacity:1.0; 
stroke:#848400; stroke-width:0; stroke-opacity:1; 
stroke-linecap:round; stroke-linejoin:round;">
<circle cx="193530" cy="54298.2" r="521.654" /> 
</g>
<g style="fill:#848400; fill-opacity:1.0; 
stroke:#848400; stroke-width:39.3701; stroke-opacity:1; 
stroke-linecap:round; stroke-linejoin:round;">
</g>
<g style="fill:#848400; fill-opacity:1.0; 
stroke:#848400; stroke-width:0; stroke-opacity:1; 
stroke-linecap:round; stroke-linejoin:round;">
<circle cx="195530" cy="54298.2" r="521.654" /> 
</g>
<g style="fill:#848400; fill-opacity:1.0; 
stroke:#848400; stroke-width:39.3701; stroke-opacity:1; 
stroke-linecap:round; stroke-linejoin:round;">
</g>
<g style="fill:#848400; fill-opacity:1.0; 
stroke:#848400; stroke-width:0; stroke-opacity:1; 
stroke-linecap:round; stroke-linejoin:round;">
<circle cx="195530" cy="56298.2" r="521.654" /> 
</g>
<g style="fill:#848400; fill-opacity:1.0; 
stroke:#848400; stroke-width:39.3701; stroke-opacity:1; 
stroke-linecap:round; stroke-linejoin:round;">
</g>
<g style="fill:#848400; fill-opacity:1.0; 
stroke:#848400; stroke-width:0; stroke-opacity:1; 
stroke-linecap:round; stroke-linejoin:round;">
<circle cx="194530" cy="55298.2" r="482.283" /> 
</g>
<g style="fill:#848400; fill-opacity:1.0; 
stroke:#848400; stroke-width:39.3701; stroke-opacity:1; 
stroke-linecap:round; stroke-linejoin:round;">
</g>
<g >
</g>
<g style="fill:#848400; fill-opacity:1.0; 
stroke:#848400; stroke-width:0; stroke-opacity:1; 
stroke-linecap:round; stroke-linejoin:round;">
<path style="fill:#848400; fill-opacity:1.0; 
stroke:#848400; stroke-width:0; stroke-opacity:1; 
stroke-linecap:round; stroke-linejoin:round;fill-rule:evenodd;"
d="M 159682,22627
159693,22629
159705,22632
159716,22636
159727,22641
159737,22647
159747,22654
159755,22662
159763,22671
159770,22680
159777,22690
159782,22701
159786,22712
159789,22724
159790,22736
159791,22748
159791,23348
159790,23360
159789,23372
159786,23383
159782,23394
159777,23405
159770,23415
159763,23425
159755,23434
159747,23442
159737,23449
159727,23455
159716,23460
159705,23464
159693,23467
159682,23468
159670,23469
158888,23469
158876,23468
158865,23467
158853,23464
158842,23460
158831,23455
158821,23449
158811,23442
158803,23434
158795,23425
158788,23415
158782,23405
158776,23394
158772,23383
158770,23372
158768,23360
158767,23348
158767,22748
158768,22736
158770,22724
158772,22712
158776,22701
158782,22690
158788,22680
158795,22671
158803,22662
158811,22654
158821,22647
158831,22641
158842,22636
158853,22632
158865,22629
158876,22627
158888,22626
159670,22626
159682,22627
Z" /> 
</g>
<g style="fill:#848400; fill-opacity:1.0; 
stroke:#848400; stroke-width:842.52; stroke-opacity:1; 
stroke-linecap:round; stroke-linejoin:round;">
</g>
<g style="fill:#848400; fill-opacity:0.0; 
stroke:#848400; stroke-width:842.52; stroke-opacity:1; 
stroke-linecap:round; stroke-linejoin:round;">
<path d="M159370 24048
L159188 24048
" />
</g>
<g >
</g>
<g style="fill:#008400; fill-opacity:0.0; 
stroke:#008400; stroke-width:842.52; stroke-opacity:1; 
stroke-linecap:round; stroke-linejoin:round;">
</g>
<g style="fill:#008400; fill-opacity:0.0; 
stroke:#008400; stroke-width:0; stroke-opacity:1; 
stroke-linecap:round; stroke-linejoin:round;">
</g>
<g style="fill:#008400; fill-opacity:1.0; 
stroke:#008400; stroke-width:0; stroke-opacity:1; 
stroke-linecap:round; stroke-linejoin:round;">
<path style="fill:#008400; fill-opacity:1.0; 
stroke:#008400; stroke-width:0; stroke-opacity:1; 
stroke-linecap:round; stroke-linejoin:round;fill-rule:evenodd;"
d="M 196765,13922
196765,13174
197316,13174
197316,13922
196765,13922
Z" /> 
<path style="fill:#008400; fill-opacity:1.0; 
stroke:#008400; stroke-width:0; stroke-opacity:1; 
stroke-linecap:round; stroke-linejoin:round;fill-rule:evenodd;"
d="M 196253,13922
196253,13174
196805,13174
196805,13922
196253,13922
Z" /> 
</g>
<g >
<path style="fill:#008400; fill-opacity:1.0; 
stroke:#008400; stroke-width:0; stroke-opacity:1; 
stroke-linecap:round; stroke-linejoin:round;fill-rule:evenodd;"
d="M 196248,56672
196248,55924
196799,55924
196799,56672
196248,56672
Z" /> 
<path style="fill:#008400; fill-opacity:1.0; 
stroke:#008400; stroke-width:0; stroke-opacity:1; 
stroke-linecap:round; stroke-linejoin:round;fill-rule:evenodd;"
d="M 196759,56672
196759,55924
197311,55924
197311,56672
196759,56672
Z" /> 
</g>
<g >
<path style="fill:#008400; fill-opacity:1.0; 
stroke:#008400; stroke-width:0; stroke-opacity:1; 
stroke-linecap:round; stroke-linejoin:round;fill-rule:evenodd;"
d="M 221248,13922
221248,13174
221799,13174
221799,13922
221248,13922
Z" /> 
<path style="fill:#008400; fill-opacity:1.0; 
stroke:#008400; stroke-width:0; stroke-opacity:1; 
stroke-linecap:round; stroke-linejoin:round;fill-rule:evenodd;"
d="M 221759,13922
221759,13174
222311,13174
222311,13922
221759,13922
Z" /> 
</g>
<g >
<path style="fill:#008400; fill-opacity:1.0; 
stroke:#008400; stroke-width:0; stroke-opacity:1; 
stroke-linecap:round; stroke-linejoin:round;fill-rule:evenodd;"
d="M 227049,55924
227049,56672
226498,56672
226498,55924
227049,55924
Z" /> 
<path style="fill:#008400; fill-opacity:1.0; 
stroke:#008400; stroke-width:0; stroke-opacity:1; 
stroke-linecap:round; stroke-linejoin:round;fill-rule:evenodd;"
d="M 227561,55924
227561,56672
227009,56672
227009,55924
227561,55924
Z" /> 
</g>
<g >
</g>
<g >
</g>
<g style="fill:#848400; fill-opacity:1.0; 
stroke:#848400; stroke-width:0; stroke-opacity:1; 
stroke-linecap:round; stroke-linejoin:round;">
<path style="fill:#848400; fill-opacity:1.0; 
stroke:#848400; stroke-width:0; stroke-opacity:1; 
stroke-linecap:round; stroke-linejoin:round;fill-rule:evenodd;"
d="M 230182,21127
230193,21129
230205,21132
230216,21136
230227,21141
230237,21147
230247,21154
230255,21162
230263,21171
230270,21180
230277,21190
230282,21201
230286,21212
230289,21224
230290,21236
230291,21248
230291,21848
230290,21860
230289,21872
230286,21883
230282,21894
230277,21905
230270,21915
230263,21925
230255,21934
230247,21942
230237,21949
230227,21955
230216,21960
230205,21964
230193,21967
230182,21968
230170,21969
229388,21969
229376,21968
229365,21967
229353,21964
229342,21960
229331,21955
229321,21949
229311,21942
229303,21934
229295,21925
229288,21915
229282,21905
229276,21894
229272,21883
229270,21872
229268,21860
229267,21848
229267,21248
229268,21236
229270,21224
229272,21212
229276,21201
229282,21190
229288,21180
229295,21171
229303,21162
229311,21154
229321,21147
229331,21141
229342,21136
229353,21132
229365,21129
229376,21127
229388,21126
230170,21126
230182,21127
Z" /> 
</g>
<g style="fill:#848400; fill-opacity:1.0; 
stroke:#848400; stroke-width:842.52; stroke-opacity:1; 
stroke-linecap:round; stroke-linejoin:round;">
</g>
<g style="fill:#848400; fill-opacity:0.0; 
stroke:#848400; stroke-width:842.52; stroke-opacity:1; 
stroke-linecap:round; stroke-linejoin:round;">
<path d="M229688 20548
L229870 20548
" />
<path d="M229688 19548
L229870 19548
" />
</g>
<g >
</g>
<g style="fill:#848400; fill-opacity:0.0; 
stroke:#848400; stroke-width:907.48; stroke-opacity:1; 
stroke-linecap:round; stroke-linejoin:round;">
<path d="M215279 45529
L215279 45566
" />
<path d="M214279 45529
L214279 45566
" />
</g>
<g style="fill:#848400; fill-opacity:0.0; 
stroke:#848400; stroke-width:0; stroke-opacity:1; 
stroke-linecap:round; stroke-linejoin:round;">
</g>
<g style="fill:#848400; fill-opacity:1.0; 
stroke:#848400; stroke-width:0; stroke-opacity:1; 
stroke-linecap:round; stroke-linejoin:round;">
<path style="fill:#848400; fill-opacity:1.0; 
stroke:#848400; stroke-width:0; stroke-opacity:1; 
stroke-linecap:round; stroke-linejoin:round;fill-rule:evenodd;"
d="M 212825,46020
212825,45075
213733,45075
213733,46020
212825,46020
Z" /> 
</g>
<g >
<path style="fill:#848400; fill-opacity:1.0; 
stroke:#848400; stroke-width:0; stroke-opacity:1; 
stroke-linecap:round; stroke-linejoin:round;fill-rule:evenodd;"
d="M 215883,23825
215883,24770
214975,24770
214975,23825
215883,23825
Z" /> 
</g>
<g style="fill:#848400; fill-opacity:1.0; 
stroke:#848400; stroke-width:907.48; stroke-opacity:1; 
stroke-linecap:round; stroke-linejoin:round;">
</g>
<g style="fill:#848400; fill-opacity:0.0; 
stroke:#848400; stroke-width:907.48; stroke-opacity:1; 
stroke-linecap:round; stroke-linejoin:round;">
<path d="M214429 24316
L214429 24279
" />
<path d="M213429 24316
L213429 24279
" />
</g>
<g >
</g>
<g >
</g>
<g >
</g>
<g >
</g>
<g >
</g>
<g >
</g>
<g >
</g>
<g >
</g>
<g >
</g>
<g >
</g>
<g >
</g>
<g >
</g>
<g >
</g>
<g >
</g>
<g >
</g>
<g >
</g>
<g >
</g>
<g >
</g>
<g >
</g>
<g >
</g>
<g >
</g>
<g >
</g>
<g >
</g>
<g >
</g>
<g >
</g>
<g >
</g>
<g >
</g>
<g >
</g>
<g >
</g>
<g >
</g>
<g >
</g>
<g >
</g>
<g >
</g>
<g style="fill:#008400; fill-opacity:0.0; 
stroke:#008400; stroke-width:907.48; stroke-opacity:1; 
stroke-linecap:round; stroke-linejoin:round;">
</g>
<g style="fill:#008400; fill-opacity:0.0; 
stroke:#008400; stroke-width:0; stroke-opacity:1; 
stroke-linecap:round; stroke-linejoin:round;">
</g>
<g style="fill:#008400; fill-opacity:1.0; 
stroke:#008400; stroke-width:0; stroke-opacity:1; 
stroke-linecap:round; stroke-linejoin:round;">
<path style="fill:#008400; fill-opacity:1.0; 
stroke:#008400; stroke-width:0; stroke-opacity:1; 
stroke-linecap:round; stroke-linejoin:round;fill-rule:evenodd;"
d="M 200945,50643
200955,50645
200964,50647
200973,50650
200981,50655
200990,50659
200997,50665
201004,50672
201011,50679
201017,50686
201021,50695
201026,50703
201029,50712
201031,50721
201032,50731
201033,50740
201033,50955
201032,50965
201031,50974
201029,50983
201026,50992
201021,51001
201017,51009
201011,51017
201004,51024
200997,51030
200990,51036
200981,51041
200973,51045
200964,51048
200955,51051
200945,51052
200936,51052
200741,51052
200731,51052
200722,51051
200712,51048
200703,51045
200695,51041
200687,51036
200679,51030
200672,51024
200665,51017
200660,51009
200655,51001
200651,50992
200647,50983
200645,50974
200644,50965
200643,50955
200643,50740
200644,50731
200645,50721
200647,50712
200651,50703
200655,50695
200660,50686
200665,50679
200672,50672
200679,50665
200687,50659
200695,50655
200703,50650
200712,50647
200722,50645
200731,50643
200741,50643
200936,50643
200945,50643
Z" /> 
<path style="fill:#008400; fill-opacity:1.0; 
stroke:#008400; stroke-width:0; stroke-opacity:1; 
stroke-linecap:round; stroke-linejoin:round;fill-rule:evenodd;"
d="M 201327,50643
201336,50645
201346,50647
201355,50650
201363,50655
201372,50659
201379,50665
201386,50672
201393,50679
201398,50686
201403,50695
201407,50703
201411,50712
201413,50721
201414,50731
201415,50740
201415,50955
201414,50965
201413,50974
201411,50983
201407,50992
201403,51001
201398,51009
201393,51017
201386,51024
201379,51030
201372,51036
201363,51041
201355,51045
201346,51048
201336,51051
201327,51052
201317,51052
201123,51052
201113,51052
201104,51051
201094,51048
201085,51045
201077,51041
201068,51036
201061,51030
201054,51024
201047,51017
201042,51009
201037,51001
201033,50992
201029,50983
201027,50974
201026,50965
201025,50955
201025,50740
201026,50731
201027,50721
201029,50712
201033,50703
201037,50695
201042,50686
201047,50679
201054,50672
201061,50665
201068,50659
201077,50655
201085,50650
201094,50647
201104,50645
201113,50643
201123,50643
201317,50643
201327,50643
Z" /> 
</g>
<g >
<path style="fill:#008400; fill-opacity:1.0; 
stroke:#008400; stroke-width:0; stroke-opacity:1; 
stroke-linecap:round; stroke-linejoin:round;fill-rule:evenodd;"
d="M 203945,53143
203955,53145
203964,53147
203973,53150
203981,53155
203990,53159
203997,53165
204004,53172
204011,53179
204017,53186
204021,53195
204026,53203
204029,53212
204031,53221
204032,53231
204033,53240
204033,53455
204032,53465
204031,53474
204029,53483
204026,53492
204021,53501
204017,53509
204011,53517
204004,53524
203997,53530
203990,53536
203981,53541
203973,53545
203964,53548
203955,53551
203945,53552
203936,53552
203741,53552
203731,53552
203722,53551
203712,53548
203703,53545
203695,53541
203687,53536
203679,53530
203672,53524
203665,53517
203660,53509
203655,53501
203651,53492
203647,53483
203645,53474
203644,53465
203643,53455
203643,53240
203644,53231
203645,53221
203647,53212
203651,53203
203655,53195
203660,53186
203665,53179
203672,53172
203679,53165
203687,53159
203695,53155
203703,53150
203712,53147
203722,53145
203731,53143
203741,53143
203936,53143
203945,53143
Z" /> 
<path style="fill:#008400; fill-opacity:1.0; 
stroke:#008400; stroke-width:0; stroke-opacity:1; 
stroke-linecap:round; stroke-linejoin:round;fill-rule:evenodd;"
d="M 204327,53143
204336,53145
204346,53147
204355,53150
204363,53155
204372,53159
204379,53165
204386,53172
204393,53179
204398,53186
204403,53195
204407,53203
204411,53212
204413,53221
204414,53231
204415,53240
204415,53455
204414,53465
204413,53474
204411,53483
204407,53492
204403,53501
204398,53509
204393,53517
204386,53524
204379,53530
204372,53536
204363,53541
204355,53545
204346,53548
204336,53551
204327,53552
204317,53552
204123,53552
204113,53552
204104,53551
204094,53548
204085,53545
204077,53541
204068,53536
204061,53530
204054,53524
204047,53517
204042,53509
204037,53501
204033,53492
204029,53483
204027,53474
204026,53465
204025,53455
204025,53240
204026,53231
204027,53221
204029,53212
204033,53203
204037,53195
204042,53186
204047,53179
204054,53172
204061,53165
204068,53159
204077,53155
204085,53150
204094,53147
204104,53145
204113,53143
204123,53143
204317,53143
204327,53143
Z" /> 
</g>
<g >
<path style="fill:#008400; fill-opacity:1.0; 
stroke:#008400; stroke-width:0; stroke-opacity:1; 
stroke-linecap:round; stroke-linejoin:round;fill-rule:evenodd;"
d="M 200945,49893
200955,49895
200964,49897
200973,49900
200981,49905
200990,49909
200997,49915
201004,49922
201011,49929
201017,49936
201021,49945
201026,49953
201029,49962
201031,49971
201032,49981
201033,49990
201033,50205
201032,50215
201031,50224
201029,50233
201026,50242
201021,50251
201017,50259
201011,50267
201004,50274
200997,50280
200990,50286
200981,50291
200973,50295
200964,50298
200955,50301
200945,50302
200936,50302
200741,50302
200731,50302
200722,50301
200712,50298
200703,50295
200695,50291
200687,50286
200679,50280
200672,50274
200665,50267
200660,50259
200655,50251
200651,50242
200647,50233
200645,50224
200644,50215
200643,50205
200643,49990
200644,49981
200645,49971
200647,49962
200651,49953
200655,49945
200660,49936
200665,49929
200672,49922
200679,49915
200687,49909
200695,49905
200703,49900
200712,49897
200722,49895
200731,49893
200741,49893
200936,49893
200945,49893
Z" /> 
<path style="fill:#008400; fill-opacity:1.0; 
stroke:#008400; stroke-width:0; stroke-opacity:1; 
stroke-linecap:round; stroke-linejoin:round;fill-rule:evenodd;"
d="M 201327,49893
201336,49895
201346,49897
201355,49900
201363,49905
201372,49909
201379,49915
201386,49922
201393,49929
201398,49936
201403,49945
201407,49953
201411,49962
201413,49971
201414,49981
201415,49990
201415,50205
201414,50215
201413,50224
201411,50233
201407,50242
201403,50251
201398,50259
201393,50267
201386,50274
201379,50280
201372,50286
201363,50291
201355,50295
201346,50298
201336,50301
201327,50302
201317,50302
201123,50302
201113,50302
201104,50301
201094,50298
201085,50295
201077,50291
201068,50286
201061,50280
201054,50274
201047,50267
201042,50259
201037,50251
201033,50242
201029,50233
201027,50224
201026,50215
201025,50205
201025,49990
201026,49981
201027,49971
201029,49962
201033,49953
201037,49945
201042,49936
201047,49929
201054,49922
201061,49915
201068,49909
201077,49905
201085,49900
201094,49897
201104,49895
201113,49893
201123,49893
201317,49893
201327,49893
Z" /> 
</g>
<g >
<path style="fill:#008400; fill-opacity:1.0; 
stroke:#008400; stroke-width:0; stroke-opacity:1; 
stroke-linecap:round; stroke-linejoin:round;fill-rule:evenodd;"
d="M 204327,52393
204336,52395
204346,52397
204355,52400
204363,52405
204372,52409
204379,52415
204386,52422
204393,52429
204398,52436
204403,52445
204407,52453
204411,52462
204413,52471
204414,52481
204415,52490
204415,52705
204414,52715
204413,52724
204411,52733
204407,52742
204403,52751
204398,52759
204393,52767
204386,52774
204379,52780
204372,52786
204363,52791
204355,52795
204346,52798
204336,52801
204327,52802
204317,52802
204123,52802
204113,52802
204104,52801
204094,52798
204085,52795
204077,52791
204068,52786
204061,52780
204054,52774
204047,52767
204042,52759
204037,52751
204033,52742
204029,52733
204027,52724
204026,52715
204025,52705
204025,52490
204026,52481
204027,52471
204029,52462
204033,52453
204037,52445
204042,52436
204047,52429
204054,52422
204061,52415
204068,52409
204077,52405
204085,52400
204094,52397
204104,52395
204113,52393
204123,52393
204317,52393
204327,52393
Z" /> 
<path style="fill:#008400; fill-opacity:1.0; 
stroke:#008400; stroke-width:0; stroke-opacity:1; 
stroke-linecap:round; stroke-linejoin:round;fill-rule:evenodd;"
d="M 203945,52393
203955,52395
203964,52397
203973,52400
203981,52405
203990,52409
203997,52415
204004,52422
204011,52429
204017,52436
204021,52445
204026,52453
204029,52462
204031,52471
204032,52481
204033,52490
204033,52705
204032,52715
204031,52724
204029,52733
204026,52742
204021,52751
204017,52759
204011,52767
204004,52774
203997,52780
203990,52786
203981,52791
203973,52795
203964,52798
203955,52801
203945,52802
203936,52802
203741,52802
203731,52802
203722,52801
203712,52798
203703,52795
203695,52791
203687,52786
203679,52780
203672,52774
203665,52767
203660,52759
203655,52751
203651,52742
203647,52733
203645,52724
203644,52715
203643,52705
203643,52490
203644,52481
203645,52471
203647,52462
203651,52453
203655,52445
203660,52436
203665,52429
203672,52422
203679,52415
203687,52409
203695,52405
203703,52400
203712,52397
203722,52395
203731,52393
203741,52393
203936,52393
203945,52393
Z" /> 
</g>
<g >
<path style="fill:#008400; fill-opacity:1.0; 
stroke:#008400; stroke-width:0; stroke-opacity:1; 
stroke-linecap:round; stroke-linejoin:round;fill-rule:evenodd;"
d="M 204896,21044
204905,21046
204915,21048
204924,21051
204932,21055
204940,21060
204948,21066
204955,21072
204962,21079
204967,21087
204972,21095
204976,21104
204980,21113
204982,21122
204983,21132
204984,21141
204984,21336
204983,21346
204982,21355
204980,21364
204976,21373
204972,21382
204967,21390
204962,21398
204955,21405
204948,21411
204940,21417
204932,21422
204924,21426
204915,21429
204905,21432
204896,21433
204886,21434
204672,21434
204662,21433
204653,21432
204643,21429
204634,21426
204626,21422
204618,21417
204610,21411
204603,21405
204596,21398
204591,21390
204586,21382
204582,21373
204578,21364
204576,21355
204575,21346
204574,21336
204574,21141
204575,21132
204576,21122
204578,21113
204582,21104
204586,21095
204591,21087
204596,21079
204603,21072
204610,21066
204618,21060
204626,21055
204634,21051
204643,21048
204653,21046
204662,21044
204672,21044
204886,21044
204896,21044
Z" /> 
<path style="fill:#008400; fill-opacity:1.0; 
stroke:#008400; stroke-width:0; stroke-opacity:1; 
stroke-linecap:round; stroke-linejoin:round;fill-rule:evenodd;"
d="M 204896,20662
204905,20664
204915,20666
204924,20669
204932,20673
204940,20678
204948,20684
204955,20690
204962,20698
204967,20705
204972,20713
204976,20722
204980,20731
204982,20740
204983,20750
204984,20759
204984,20954
204983,20964
204982,20973
204980,20983
204976,20992
204972,21000
204967,21008
204962,21016
204955,21023
204948,21030
204940,21035
204932,21040
204924,21044
204915,21047
204905,21050
204896,21051
204886,21052
204672,21052
204662,21051
204653,21050
204643,21047
204634,21044
204626,21040
204618,21035
204610,21030
204603,21023
204596,21016
204591,21008
204586,21000
204582,20992
204578,20983
204576,20973
204575,20964
204574,20954
204574,20759
204575,20750
204576,20740
204578,20731
204582,20722
204586,20713
204591,20705
204596,20698
204603,20690
204610,20684
204618,20678
204626,20673
204634,20669
204643,20666
204653,20664
204662,20662
204672,20662
204886,20662
204896,20662
Z" /> 
</g>
<g >
<path style="fill:#008400; fill-opacity:1.0; 
stroke:#008400; stroke-width:0; stroke-opacity:1; 
stroke-linecap:round; stroke-linejoin:round;fill-rule:evenodd;"
d="M 201146,17662
201155,17664
201165,17666
201174,17669
201182,17673
201190,17678
201198,17684
201205,17690
201212,17698
201217,17705
201222,17713
201226,17722
201230,17731
201232,17740
201233,17750
201234,17759
201234,17954
201233,17964
201232,17973
201230,17983
201226,17992
201222,18000
201217,18008
201212,18016
201205,18023
201198,18030
201190,18035
201182,18040
201174,18044
201165,18047
201155,18050
201146,18051
201136,18052
200922,18052
200912,18051
200903,18050
200893,18047
200884,18044
200876,18040
200868,18035
200860,18030
200853,18023
200846,18016
200841,18008
200836,18000
200832,17992
200828,17983
200826,17973
200825,17964
200824,17954
200824,17759
200825,17750
200826,17740
200828,17731
200832,17722
200836,17713
200841,17705
200846,17698
200853,17690
200860,17684
200868,17678
200876,17673
200884,17669
200893,17666
200903,17664
200912,17662
200922,17662
201136,17662
201146,17662
Z" /> 
<path style="fill:#008400; fill-opacity:1.0; 
stroke:#008400; stroke-width:0; stroke-opacity:1; 
stroke-linecap:round; stroke-linejoin:round;fill-rule:evenodd;"
d="M 201146,18044
201155,18046
201165,18048
201174,18051
201182,18055
201190,18060
201198,18066
201205,18072
201212,18079
201217,18087
201222,18095
201226,18104
201230,18113
201232,18122
201233,18132
201234,18141
201234,18336
201233,18346
201232,18355
201230,18364
201226,18373
201222,18382
201217,18390
201212,18398
201205,18405
201198,18411
201190,18417
201182,18422
201174,18426
201165,18429
201155,18432
201146,18433
201136,18434
200922,18434
200912,18433
200903,18432
200893,18429
200884,18426
200876,18422
200868,18417
200860,18411
200853,18405
200846,18398
200841,18390
200836,18382
200832,18373
200828,18364
200826,18355
200825,18346
200824,18336
200824,18141
200825,18132
200826,18122
200828,18113
200832,18104
200836,18095
200841,18087
200846,18079
200853,18072
200860,18066
200868,18060
200876,18055
200884,18051
200893,18048
200903,18046
200912,18044
200922,18044
201136,18044
201146,18044
Z" /> 
</g>
<g >
<path style="fill:#008400; fill-opacity:1.0; 
stroke:#008400; stroke-width:0; stroke-opacity:1; 
stroke-linecap:round; stroke-linejoin:round;fill-rule:evenodd;"
d="M 205646,20662
205655,20664
205665,20666
205674,20669
205682,20673
205690,20678
205698,20684
205705,20690
205712,20698
205717,20705
205722,20713
205726,20722
205730,20731
205732,20740
205733,20750
205734,20759
205734,20954
205733,20964
205732,20973
205730,20983
205726,20992
205722,21000
205717,21008
205712,21016
205705,21023
205698,21030
205690,21035
205682,21040
205674,21044
205665,21047
205655,21050
205646,21051
205636,21052
205422,21052
205412,21051
205403,21050
205393,21047
205384,21044
205376,21040
205368,21035
205360,21030
205353,21023
205346,21016
205341,21008
205336,21000
205332,20992
205328,20983
205326,20973
205325,20964
205324,20954
205324,20759
205325,20750
205326,20740
205328,20731
205332,20722
205336,20713
205341,20705
205346,20698
205353,20690
205360,20684
205368,20678
205376,20673
205384,20669
205393,20666
205403,20664
205412,20662
205422,20662
205636,20662
205646,20662
Z" /> 
<path style="fill:#008400; fill-opacity:1.0; 
stroke:#008400; stroke-width:0; stroke-opacity:1; 
stroke-linecap:round; stroke-linejoin:round;fill-rule:evenodd;"
d="M 205646,21044
205655,21046
205665,21048
205674,21051
205682,21055
205690,21060
205698,21066
205705,21072
205712,21079
205717,21087
205722,21095
205726,21104
205730,21113
205732,21122
205733,21132
205734,21141
205734,21336
205733,21346
205732,21355
205730,21364
205726,21373
205722,21382
205717,21390
205712,21398
205705,21405
205698,21411
205690,21417
205682,21422
205674,21426
205665,21429
205655,21432
205646,21433
205636,21434
205422,21434
205412,21433
205403,21432
205393,21429
205384,21426
205376,21422
205368,21417
205360,21411
205353,21405
205346,21398
205341,21390
205336,21382
205332,21373
205328,21364
205326,21355
205325,21346
205324,21336
205324,21141
205325,21132
205326,21122
205328,21113
205332,21104
205336,21095
205341,21087
205346,21079
205353,21072
205360,21066
205368,21060
205376,21055
205384,21051
205393,21048
205403,21046
205412,21044
205422,21044
205636,21044
205646,21044
Z" /> 
</g>
<g >
<path style="fill:#008400; fill-opacity:1.0; 
stroke:#008400; stroke-width:0; stroke-opacity:1; 
stroke-linecap:round; stroke-linejoin:round;fill-rule:evenodd;"
d="M 201896,18044
201905,18046
201915,18048
201924,18051
201932,18055
201940,18060
201948,18066
201955,18072
201962,18079
201967,18087
201972,18095
201976,18104
201980,18113
201982,18122
201983,18132
201984,18141
201984,18336
201983,18346
201982,18355
201980,18364
201976,18373
201972,18382
201967,18390
201962,18398
201955,18405
201948,18411
201940,18417
201932,18422
201924,18426
201915,18429
201905,18432
201896,18433
201886,18434
201672,18434
201662,18433
201653,18432
201643,18429
201634,18426
201626,18422
201618,18417
201610,18411
201603,18405
201596,18398
201591,18390
201586,18382
201582,18373
201578,18364
201576,18355
201575,18346
201574,18336
201574,18141
201575,18132
201576,18122
201578,18113
201582,18104
201586,18095
201591,18087
201596,18079
201603,18072
201610,18066
201618,18060
201626,18055
201634,18051
201643,18048
201653,18046
201662,18044
201672,18044
201886,18044
201896,18044
Z" /> 
<path style="fill:#008400; fill-opacity:1.0; 
stroke:#008400; stroke-width:0; stroke-opacity:1; 
stroke-linecap:round; stroke-linejoin:round;fill-rule:evenodd;"
d="M 201896,17662
201905,17664
201915,17666
201924,17669
201932,17673
201940,17678
201948,17684
201955,17690
201962,17698
201967,17705
201972,17713
201976,17722
201980,17731
201982,17740
201983,17750
201984,17759
201984,17954
201983,17964
201982,17973
201980,17983
201976,17992
201972,18000
201967,18008
201962,18016
201955,18023
201948,18030
201940,18035
201932,18040
201924,18044
201915,18047
201905,18050
201896,18051
201886,18052
201672,18052
201662,18051
201653,18050
201643,18047
201634,18044
201626,18040
201618,18035
201610,18030
201603,18023
201596,18016
201591,18008
201586,18000
201582,17992
201578,17983
201576,17973
201575,17964
201574,17954
201574,17759
201575,17750
201576,17740
201578,17731
201582,17722
201586,17713
201591,17705
201596,17698
201603,17690
201610,17684
201618,17678
201626,17673
201634,17669
201643,17666
201653,17664
201662,17662
201672,17662
201886,17662
201896,17662
Z" /> 
</g>
<g >
</g>
<g >
</g>
<g >
</g>
<g >
</g>
<g >
</g>
<g >
</g>
<g >
<path style="fill:#008400; fill-opacity:1.0; 
stroke:#008400; stroke-width:0; stroke-opacity:1; 
stroke-linecap:round; stroke-linejoin:round;fill-rule:evenodd;"
d="M 210345,14493
210355,14495
210364,14497
210373,14500
210381,14505
210390,14509
210397,14515
210404,14522
210411,14529
210417,14536
210421,14545
210426,14553
210429,14562
210431,14571
210432,14581
210433,14590
210433,14805
210432,14815
210431,14824
210429,14833
210426,14842
210421,14851
210417,14859
210411,14867
210404,14874
210397,14880
210390,14886
210381,14891
210373,14895
210364,14898
210355,14901
210345,14902
210336,14902
210141,14902
210131,14902
210122,14901
210112,14898
210103,14895
210095,14891
210087,14886
210079,14880
210072,14874
210065,14867
210060,14859
210055,14851
210051,14842
210047,14833
210045,14824
210044,14815
210043,14805
210043,14590
210044,14581
210045,14571
210047,14562
210051,14553
210055,14545
210060,14536
210065,14529
210072,14522
210079,14515
210087,14509
210095,14505
210103,14500
210112,14497
210122,14495
210131,14493
210141,14493
210336,14493
210345,14493
Z" /> 
<path style="fill:#008400; fill-opacity:1.0; 
stroke:#008400; stroke-width:0; stroke-opacity:1; 
stroke-linecap:round; stroke-linejoin:round;fill-rule:evenodd;"
d="M 210727,14493
210736,14495
210746,14497
210755,14500
210763,14505
210772,14509
210779,14515
210786,14522
210793,14529
210798,14536
210803,14545
210807,14553
210811,14562
210813,14571
210814,14581
210815,14590
210815,14805
210814,14815
210813,14824
210811,14833
210807,14842
210803,14851
210798,14859
210793,14867
210786,14874
210779,14880
210772,14886
210763,14891
210755,14895
210746,14898
210736,14901
210727,14902
210717,14902
210523,14902
210513,14902
210504,14901
210494,14898
210485,14895
210477,14891
210468,14886
210461,14880
210454,14874
210447,14867
210442,14859
210437,14851
210433,14842
210429,14833
210427,14824
210426,14815
210425,14805
210425,14590
210426,14581
210427,14571
210429,14562
210433,14553
210437,14545
210442,14536
210447,14529
210454,14522
210461,14515
210468,14509
210477,14505
210485,14500
210494,14497
210504,14495
210513,14493
210523,14493
210717,14493
210727,14493
Z" /> 
</g>
<g >
<path style="fill:#008400; fill-opacity:1.0; 
stroke:#008400; stroke-width:0; stroke-opacity:1; 
stroke-linecap:round; stroke-linejoin:round;fill-rule:evenodd;"
d="M 213345,16743
213355,16745
213364,16747
213373,16750
213381,16755
213390,16759
213397,16765
213404,16772
213411,16779
213417,16786
213421,16795
213426,16803
213429,16812
213431,16821
213432,16831
213433,16840
213433,17055
213432,17065
213431,17074
213429,17083
213426,17092
213421,17101
213417,17109
213411,17117
213404,17124
213397,17130
213390,17136
213381,17141
213373,17145
213364,17148
213355,17151
213345,17152
213336,17152
213141,17152
213131,17152
213122,17151
213112,17148
213103,17145
213095,17141
213087,17136
213079,17130
213072,17124
213065,17117
213060,17109
213055,17101
213051,17092
213047,17083
213045,17074
213044,17065
213043,17055
213043,16840
213044,16831
213045,16821
213047,16812
213051,16803
213055,16795
213060,16786
213065,16779
213072,16772
213079,16765
213087,16759
213095,16755
213103,16750
213112,16747
213122,16745
213131,16743
213141,16743
213336,16743
213345,16743
Z" /> 
<path style="fill:#008400; fill-opacity:1.0; 
stroke:#008400; stroke-width:0; stroke-opacity:1; 
stroke-linecap:round; stroke-linejoin:round;fill-rule:evenodd;"
d="M 213727,16743
213736,16745
213746,16747
213755,16750
213763,16755
213772,16759
213779,16765
213786,16772
213793,16779
213798,16786
213803,16795
213807,16803
213811,16812
213813,16821
213814,16831
213815,16840
213815,17055
213814,17065
213813,17074
213811,17083
213807,17092
213803,17101
213798,17109
213793,17117
213786,17124
213779,17130
213772,17136
213763,17141
213755,17145
213746,17148
213736,17151
213727,17152
213717,17152
213523,17152
213513,17152
213504,17151
213494,17148
213485,17145
213477,17141
213468,17136
213461,17130
213454,17124
213447,17117
213442,17109
213437,17101
213433,17092
213429,17083
213427,17074
213426,17065
213425,17055
213425,16840
213426,16831
213427,16821
213429,16812
213433,16803
213437,16795
213442,16786
213447,16779
213454,16772
213461,16765
213468,16759
213477,16755
213485,16750
213494,16747
213504,16745
213513,16743
213523,16743
213717,16743
213727,16743
Z" /> 
</g>
<g >
<path style="fill:#008400; fill-opacity:1.0; 
stroke:#008400; stroke-width:0; stroke-opacity:1; 
stroke-linecap:round; stroke-linejoin:round;fill-rule:evenodd;"
d="M 207646,51162
207655,51164
207665,51166
207674,51169
207682,51173
207690,51178
207698,51184
207705,51190
207712,51198
207717,51205
207722,51213
207726,51222
207730,51231
207732,51240
207733,51250
207734,51259
207734,51454
207733,51464
207732,51473
207730,51483
207726,51492
207722,51500
207717,51508
207712,51516
207705,51523
207698,51530
207690,51535
207682,51540
207674,51544
207665,51547
207655,51550
207646,51551
207636,51552
207422,51552
207412,51551
207403,51550
207393,51547
207384,51544
207376,51540
207368,51535
207360,51530
207353,51523
207346,51516
207341,51508
207336,51500
207332,51492
207328,51483
207326,51473
207325,51464
207324,51454
207324,51259
207325,51250
207326,51240
207328,51231
207332,51222
207336,51213
207341,51205
207346,51198
207353,51190
207360,51184
207368,51178
207376,51173
207384,51169
207393,51166
207403,51164
207412,51162
207422,51162
207636,51162
207646,51162
Z" /> 
<path style="fill:#008400; fill-opacity:1.0; 
stroke:#008400; stroke-width:0; stroke-opacity:1; 
stroke-linecap:round; stroke-linejoin:round;fill-rule:evenodd;"
d="M 207646,51544
207655,51546
207665,51548
207674,51551
207682,51555
207690,51560
207698,51566
207705,51572
207712,51579
207717,51587
207722,51595
207726,51604
207730,51613
207732,51622
207733,51632
207734,51641
207734,51836
207733,51846
207732,51855
207730,51864
207726,51873
207722,51882
207717,51890
207712,51898
207705,51905
207698,51911
207690,51917
207682,51922
207674,51926
207665,51929
207655,51932
207646,51933
207636,51934
207422,51934
207412,51933
207403,51932
207393,51929
207384,51926
207376,51922
207368,51917
207360,51911
207353,51905
207346,51898
207341,51890
207336,51882
207332,51873
207328,51864
207326,51855
207325,51846
207324,51836
207324,51641
207325,51632
207326,51622
207328,51613
207332,51604
207336,51595
207341,51587
207346,51579
207353,51572
207360,51566
207368,51560
207376,51555
207384,51551
207393,51548
207403,51546
207412,51544
207422,51544
207636,51544
207646,51544
Z" /> 
</g>
<g >
<path style="fill:#008400; fill-opacity:1.0; 
stroke:#008400; stroke-width:0; stroke-opacity:1; 
stroke-linecap:round; stroke-linejoin:round;fill-rule:evenodd;"
d="M 205346,47212
205355,47214
205365,47216
205374,47219
205382,47223
205390,47228
205398,47234
205405,47240
205412,47248
205417,47255
205422,47263
205426,47272
205430,47281
205432,47290
205433,47300
205434,47309
205434,47504
205433,47514
205432,47523
205430,47533
205426,47542
205422,47550
205417,47558
205412,47566
205405,47573
205398,47580
205390,47585
205382,47590
205374,47594
205365,47597
205355,47600
205346,47601
205336,47602
205122,47602
205112,47601
205103,47600
205093,47597
205084,47594
205076,47590
205068,47585
205060,47580
205053,47573
205046,47566
205041,47558
205036,47550
205032,47542
205028,47533
205026,47523
205025,47514
205024,47504
205024,47309
205025,47300
205026,47290
205028,47281
205032,47272
205036,47263
205041,47255
205046,47248
205053,47240
205060,47234
205068,47228
205076,47223
205084,47219
205093,47216
205103,47214
205112,47212
205122,47212
205336,47212
205346,47212
Z" /> 
<path style="fill:#008400; fill-opacity:1.0; 
stroke:#008400; stroke-width:0; stroke-opacity:1; 
stroke-linecap:round; stroke-linejoin:round;fill-rule:evenodd;"
d="M 205346,47594
205355,47596
205365,47598
205374,47601
205382,47605
205390,47610
205398,47616
205405,47622
205412,47629
205417,47637
205422,47645
205426,47654
205430,47663
205432,47672
205433,47682
205434,47691
205434,47886
205433,47896
205432,47905
205430,47914
205426,47923
205422,47932
205417,47940
205412,47948
205405,47955
205398,47961
205390,47967
205382,47972
205374,47976
205365,47979
205355,47982
205346,47983
205336,47984
205122,47984
205112,47983
205103,47982
205093,47979
205084,47976
205076,47972
205068,47967
205060,47961
205053,47955
205046,47948
205041,47940
205036,47932
205032,47923
205028,47914
205026,47905
205025,47896
205024,47886
205024,47691
205025,47682
205026,47672
205028,47663
205032,47654
205036,47645
205041,47637
205046,47629
205053,47622
205060,47616
205068,47610
205076,47605
205084,47601
205093,47598
205103,47596
205112,47594
205122,47594
205336,47594
205346,47594
Z" /> 
</g>
<g >
<path style="fill:#008400; fill-opacity:1.0; 
stroke:#008400; stroke-width:0; stroke-opacity:1; 
stroke-linecap:round; stroke-linejoin:round;fill-rule:evenodd;"
d="M 210345,14993
210355,14995
210364,14997
210373,15000
210381,15005
210390,15009
210397,15015
210404,15022
210411,15029
210417,15036
210421,15045
210426,15053
210429,15062
210431,15071
210432,15081
210433,15090
210433,15305
210432,15315
210431,15324
210429,15333
210426,15342
210421,15351
210417,15359
210411,15367
210404,15374
210397,15380
210390,15386
210381,15391
210373,15395
210364,15398
210355,15401
210345,15402
210336,15402
210141,15402
210131,15402
210122,15401
210112,15398
210103,15395
210095,15391
210087,15386
210079,15380
210072,15374
210065,15367
210060,15359
210055,15351
210051,15342
210047,15333
210045,15324
210044,15315
210043,15305
210043,15090
210044,15081
210045,15071
210047,15062
210051,15053
210055,15045
210060,15036
210065,15029
210072,15022
210079,15015
210087,15009
210095,15005
210103,15000
210112,14997
210122,14995
210131,14993
210141,14993
210336,14993
210345,14993
Z" /> 
<path style="fill:#008400; fill-opacity:1.0; 
stroke:#008400; stroke-width:0; stroke-opacity:1; 
stroke-linecap:round; stroke-linejoin:round;fill-rule:evenodd;"
d="M 210727,14993
210736,14995
210746,14997
210755,15000
210763,15005
210772,15009
210779,15015
210786,15022
210793,15029
210798,15036
210803,15045
210807,15053
210811,15062
210813,15071
210814,15081
210815,15090
210815,15305
210814,15315
210813,15324
210811,15333
210807,15342
210803,15351
210798,15359
210793,15367
210786,15374
210779,15380
210772,15386
210763,15391
210755,15395
210746,15398
210736,15401
210727,15402
210717,15402
210523,15402
210513,15402
210504,15401
210494,15398
210485,15395
210477,15391
210468,15386
210461,15380
210454,15374
210447,15367
210442,15359
210437,15351
210433,15342
210429,15333
210427,15324
210426,15315
210425,15305
210425,15090
210426,15081
210427,15071
210429,15062
210433,15053
210437,15045
210442,15036
210447,15029
210454,15022
210461,15015
210468,15009
210477,15005
210485,15000
210494,14997
210504,14995
210513,14993
210523,14993
210717,14993
210727,14993
Z" /> 
</g>
<g >
<path style="fill:#008400; fill-opacity:1.0; 
stroke:#008400; stroke-width:0; stroke-opacity:1; 
stroke-linecap:round; stroke-linejoin:round;fill-rule:evenodd;"
d="M 213345,17243
213355,17245
213364,17247
213373,17250
213381,17255
213390,17259
213397,17265
213404,17272
213411,17279
213417,17286
213421,17295
213426,17303
213429,17312
213431,17321
213432,17331
213433,17340
213433,17555
213432,17565
213431,17574
213429,17583
213426,17592
213421,17601
213417,17609
213411,17617
213404,17624
213397,17630
213390,17636
213381,17641
213373,17645
213364,17648
213355,17651
213345,17652
213336,17652
213141,17652
213131,17652
213122,17651
213112,17648
213103,17645
213095,17641
213087,17636
213079,17630
213072,17624
213065,17617
213060,17609
213055,17601
213051,17592
213047,17583
213045,17574
213044,17565
213043,17555
213043,17340
213044,17331
213045,17321
213047,17312
213051,17303
213055,17295
213060,17286
213065,17279
213072,17272
213079,17265
213087,17259
213095,17255
213103,17250
213112,17247
213122,17245
213131,17243
213141,17243
213336,17243
213345,17243
Z" /> 
<path style="fill:#008400; fill-opacity:1.0; 
stroke:#008400; stroke-width:0; stroke-opacity:1; 
stroke-linecap:round; stroke-linejoin:round;fill-rule:evenodd;"
d="M 213727,17243
213736,17245
213746,17247
213755,17250
213763,17255
213772,17259
213779,17265
213786,17272
213793,17279
213798,17286
213803,17295
213807,17303
213811,17312
213813,17321
213814,17331
213815,17340
213815,17555
213814,17565
213813,17574
213811,17583
213807,17592
213803,17601
213798,17609
213793,17617
213786,17624
213779,17630
213772,17636
213763,17641
213755,17645
213746,17648
213736,17651
213727,17652
213717,17652
213523,17652
213513,17652
213504,17651
213494,17648
213485,17645
213477,17641
213468,17636
213461,17630
213454,17624
213447,17617
213442,17609
213437,17601
213433,17592
213429,17583
213427,17574
213426,17565
213425,17555
213425,17340
213426,17331
213427,17321
213429,17312
213433,17303
213437,17295
213442,17286
213447,17279
213454,17272
213461,17265
213468,17259
213477,17255
213485,17250
213494,17247
213504,17245
213513,17243
213523,17243
213717,17243
213727,17243
Z" /> 
</g>
<g >
<path style="fill:#008400; fill-opacity:1.0; 
stroke:#008400; stroke-width:0; stroke-opacity:1; 
stroke-linecap:round; stroke-linejoin:round;fill-rule:evenodd;"
d="M 206896,51162
206905,51164
206915,51166
206924,51169
206932,51173
206940,51178
206948,51184
206955,51190
206962,51198
206967,51205
206972,51213
206976,51222
206980,51231
206982,51240
206983,51250
206984,51259
206984,51454
206983,51464
206982,51473
206980,51483
206976,51492
206972,51500
206967,51508
206962,51516
206955,51523
206948,51530
206940,51535
206932,51540
206924,51544
206915,51547
206905,51550
206896,51551
206886,51552
206672,51552
206662,51551
206653,51550
206643,51547
206634,51544
206626,51540
206618,51535
206610,51530
206603,51523
206596,51516
206591,51508
206586,51500
206582,51492
206578,51483
206576,51473
206575,51464
206574,51454
206574,51259
206575,51250
206576,51240
206578,51231
206582,51222
206586,51213
206591,51205
206596,51198
206603,51190
206610,51184
206618,51178
206626,51173
206634,51169
206643,51166
206653,51164
206662,51162
206672,51162
206886,51162
206896,51162
Z" /> 
<path style="fill:#008400; fill-opacity:1.0; 
stroke:#008400; stroke-width:0; stroke-opacity:1; 
stroke-linecap:round; stroke-linejoin:round;fill-rule:evenodd;"
d="M 206896,51544
206905,51546
206915,51548
206924,51551
206932,51555
206940,51560
206948,51566
206955,51572
206962,51579
206967,51587
206972,51595
206976,51604
206980,51613
206982,51622
206983,51632
206984,51641
206984,51836
206983,51846
206982,51855
206980,51864
206976,51873
206972,51882
206967,51890
206962,51898
206955,51905
206948,51911
206940,51917
206932,51922
206924,51926
206915,51929
206905,51932
206896,51933
206886,51934
206672,51934
206662,51933
206653,51932
206643,51929
206634,51926
206626,51922
206618,51917
206610,51911
206603,51905
206596,51898
206591,51890
206586,51882
206582,51873
206578,51864
206576,51855
206575,51846
206574,51836
206574,51641
206575,51632
206576,51622
206578,51613
206582,51604
206586,51595
206591,51587
206596,51579
206603,51572
206610,51566
206618,51560
206626,51555
206634,51551
206643,51548
206653,51546
206662,51544
206672,51544
206886,51544
206896,51544
Z" /> 
</g>
<g >
<path style="fill:#008400; fill-opacity:1.0; 
stroke:#008400; stroke-width:0; stroke-opacity:1; 
stroke-linecap:round; stroke-linejoin:round;fill-rule:evenodd;"
d="M 204746,47212
204755,47214
204765,47216
204774,47219
204782,47223
204790,47228
204798,47234
204805,47240
204812,47248
204817,47255
204822,47263
204826,47272
204830,47281
204832,47290
204833,47300
204834,47309
204834,47504
204833,47514
204832,47523
204830,47533
204826,47542
204822,47550
204817,47558
204812,47566
204805,47573
204798,47580
204790,47585
204782,47590
204774,47594
204765,47597
204755,47600
204746,47601
204736,47602
204522,47602
204512,47601
204503,47600
204493,47597
204484,47594
204476,47590
204468,47585
204460,47580
204453,47573
204446,47566
204441,47558
204436,47550
204432,47542
204428,47533
204426,47523
204425,47514
204424,47504
204424,47309
204425,47300
204426,47290
204428,47281
204432,47272
204436,47263
204441,47255
204446,47248
204453,47240
204460,47234
204468,47228
204476,47223
204484,47219
204493,47216
204503,47214
204512,47212
204522,47212
204736,47212
204746,47212
Z" /> 
<path style="fill:#008400; fill-opacity:1.0; 
stroke:#008400; stroke-width:0; stroke-opacity:1; 
stroke-linecap:round; stroke-linejoin:round;fill-rule:evenodd;"
d="M 204746,47594
204755,47596
204765,47598
204774,47601
204782,47605
204790,47610
204798,47616
204805,47622
204812,47629
204817,47637
204822,47645
204826,47654
204830,47663
204832,47672
204833,47682
204834,47691
204834,47886
204833,47896
204832,47905
204830,47914
204826,47923
204822,47932
204817,47940
204812,47948
204805,47955
204798,47961
204790,47967
204782,47972
204774,47976
204765,47979
204755,47982
204746,47983
204736,47984
204522,47984
204512,47983
204503,47982
204493,47979
204484,47976
204476,47972
204468,47967
204460,47961
204453,47955
204446,47948
204441,47940
204436,47932
204432,47923
204428,47914
204426,47905
204425,47896
204424,47886
204424,47691
204425,47682
204426,47672
204428,47663
204432,47654
204436,47645
204441,47637
204446,47629
204453,47622
204460,47616
204468,47610
204476,47605
204484,47601
204493,47598
204503,47596
204512,47594
204522,47594
204736,47594
204746,47594
Z" /> 
</g>
<g >
<path style="fill:#008400; fill-opacity:1.0; 
stroke:#008400; stroke-width:0; stroke-opacity:1; 
stroke-linecap:round; stroke-linejoin:round;fill-rule:evenodd;"
d="M 219827,13343
219836,13345
219846,13347
219855,13350
219863,13355
219872,13359
219879,13365
219886,13372
219893,13379
219898,13386
219903,13395
219907,13403
219911,13412
219913,13421
219914,13431
219915,13440
219915,13655
219914,13665
219913,13674
219911,13683
219907,13692
219903,13701
219898,13709
219893,13717
219886,13724
219879,13730
219872,13736
219863,13741
219855,13745
219846,13748
219836,13751
219827,13752
219817,13752
219623,13752
219613,13752
219604,13751
219594,13748
219585,13745
219577,13741
219568,13736
219561,13730
219554,13724
219547,13717
219542,13709
219537,13701
219533,13692
219529,13683
219527,13674
219526,13665
219525,13655
219525,13440
219526,13431
219527,13421
219529,13412
219533,13403
219537,13395
219542,13386
219547,13379
219554,13372
219561,13365
219568,13359
219577,13355
219585,13350
219594,13347
219604,13345
219613,13343
219623,13343
219817,13343
219827,13343
Z" /> 
<path style="fill:#008400; fill-opacity:1.0; 
stroke:#008400; stroke-width:0; stroke-opacity:1; 
stroke-linecap:round; stroke-linejoin:round;fill-rule:evenodd;"
d="M 219445,13343
219455,13345
219464,13347
219473,13350
219481,13355
219490,13359
219497,13365
219504,13372
219511,13379
219517,13386
219521,13395
219526,13403
219529,13412
219531,13421
219532,13431
219533,13440
219533,13655
219532,13665
219531,13674
219529,13683
219526,13692
219521,13701
219517,13709
219511,13717
219504,13724
219497,13730
219490,13736
219481,13741
219473,13745
219464,13748
219455,13751
219445,13752
219436,13752
219241,13752
219231,13752
219222,13751
219212,13748
219203,13745
219195,13741
219187,13736
219179,13730
219172,13724
219165,13717
219160,13709
219155,13701
219151,13692
219147,13683
219145,13674
219144,13665
219143,13655
219143,13440
219144,13431
219145,13421
219147,13412
219151,13403
219155,13395
219160,13386
219165,13379
219172,13372
219179,13365
219187,13359
219195,13355
219203,13350
219212,13347
219222,13345
219231,13343
219241,13343
219436,13343
219445,13343
Z" /> 
</g>
<g >
<path style="fill:#008400; fill-opacity:1.0; 
stroke:#008400; stroke-width:0; stroke-opacity:1; 
stroke-linecap:round; stroke-linejoin:round;fill-rule:evenodd;"
d="M 215396,14912
215405,14914
215415,14916
215424,14919
215432,14923
215440,14928
215448,14934
215455,14940
215462,14948
215467,14955
215472,14963
215476,14972
215480,14981
215482,14990
215483,15000
215484,15009
215484,15204
215483,15214
215482,15223
215480,15233
215476,15242
215472,15250
215467,15258
215462,15266
215455,15273
215448,15280
215440,15285
215432,15290
215424,15294
215415,15297
215405,15300
215396,15301
215386,15302
215172,15302
215162,15301
215153,15300
215143,15297
215134,15294
215126,15290
215118,15285
215110,15280
215103,15273
215096,15266
215091,15258
215086,15250
215082,15242
215078,15233
215076,15223
215075,15214
215074,15204
215074,15009
215075,15000
215076,14990
215078,14981
215082,14972
215086,14963
215091,14955
215096,14948
215103,14940
215110,14934
215118,14928
215126,14923
215134,14919
215143,14916
215153,14914
215162,14912
215172,14912
215386,14912
215396,14912
Z" /> 
<path style="fill:#008400; fill-opacity:1.0; 
stroke:#008400; stroke-width:0; stroke-opacity:1; 
stroke-linecap:round; stroke-linejoin:round;fill-rule:evenodd;"
d="M 215396,15294
215405,15296
215415,15298
215424,15301
215432,15305
215440,15310
215448,15316
215455,15322
215462,15329
215467,15337
215472,15345
215476,15354
215480,15363
215482,15372
215483,15382
215484,15391
215484,15586
215483,15596
215482,15605
215480,15614
215476,15623
215472,15632
215467,15640
215462,15648
215455,15655
215448,15661
215440,15667
215432,15672
215424,15676
215415,15679
215405,15682
215396,15683
215386,15684
215172,15684
215162,15683
215153,15682
215143,15679
215134,15676
215126,15672
215118,15667
215110,15661
215103,15655
215096,15648
215091,15640
215086,15632
215082,15623
215078,15614
215076,15605
215075,15596
215074,15586
215074,15391
215075,15382
215076,15372
215078,15363
215082,15354
215086,15345
215091,15337
215096,15329
215103,15322
215110,15316
215118,15310
215126,15305
215134,15301
215143,15298
215153,15296
215162,15294
215172,15294
215386,15294
215396,15294
Z" /> 
</g>
<g >
<path style="fill:#008400; fill-opacity:1.0; 
stroke:#008400; stroke-width:0; stroke-opacity:1; 
stroke-linecap:round; stroke-linejoin:round;fill-rule:evenodd;"
d="M 212427,55593
212436,55595
212446,55597
212455,55600
212463,55605
212472,55609
212479,55615
212486,55622
212493,55629
212498,55636
212503,55645
212507,55653
212511,55662
212513,55671
212514,55681
212515,55690
212515,55905
212514,55915
212513,55924
212511,55933
212507,55942
212503,55951
212498,55959
212493,55967
212486,55974
212479,55980
212472,55986
212463,55991
212455,55995
212446,55998
212436,56001
212427,56002
212417,56002
212223,56002
212213,56002
212204,56001
212194,55998
212185,55995
212177,55991
212168,55986
212161,55980
212154,55974
212147,55967
212142,55959
212137,55951
212133,55942
212129,55933
212127,55924
212126,55915
212125,55905
212125,55690
212126,55681
212127,55671
212129,55662
212133,55653
212137,55645
212142,55636
212147,55629
212154,55622
212161,55615
212168,55609
212177,55605
212185,55600
212194,55597
212204,55595
212213,55593
212223,55593
212417,55593
212427,55593
Z" /> 
<path style="fill:#008400; fill-opacity:1.0; 
stroke:#008400; stroke-width:0; stroke-opacity:1; 
stroke-linecap:round; stroke-linejoin:round;fill-rule:evenodd;"
d="M 212045,55593
212055,55595
212064,55597
212073,55600
212081,55605
212090,55609
212097,55615
212104,55622
212111,55629
212117,55636
212121,55645
212126,55653
212129,55662
212131,55671
212132,55681
212133,55690
212133,55905
212132,55915
212131,55924
212129,55933
212126,55942
212121,55951
212117,55959
212111,55967
212104,55974
212097,55980
212090,55986
212081,55991
212073,55995
212064,55998
212055,56001
212045,56002
212036,56002
211841,56002
211831,56002
211822,56001
211812,55998
211803,55995
211795,55991
211787,55986
211779,55980
211772,55974
211765,55967
211760,55959
211755,55951
211751,55942
211747,55933
211745,55924
211744,55915
211743,55905
211743,55690
211744,55681
211745,55671
211747,55662
211751,55653
211755,55645
211760,55636
211765,55629
211772,55622
211779,55615
211787,55609
211795,55605
211803,55600
211812,55597
211822,55595
211831,55593
211841,55593
212036,55593
212045,55593
Z" /> 
</g>
<g >
<path style="fill:#008400; fill-opacity:1.0; 
stroke:#008400; stroke-width:0; stroke-opacity:1; 
stroke-linecap:round; stroke-linejoin:round;fill-rule:evenodd;"
d="M 210246,51662
210255,51664
210265,51666
210274,51669
210282,51673
210290,51678
210298,51684
210305,51690
210312,51698
210317,51705
210322,51713
210326,51722
210330,51731
210332,51740
210333,51750
210334,51759
210334,51954
210333,51964
210332,51973
210330,51983
210326,51992
210322,52000
210317,52008
210312,52016
210305,52023
210298,52030
210290,52035
210282,52040
210274,52044
210265,52047
210255,52050
210246,52051
210236,52052
210022,52052
210012,52051
210003,52050
209993,52047
209984,52044
209976,52040
209968,52035
209960,52030
209953,52023
209946,52016
209941,52008
209936,52000
209932,51992
209928,51983
209926,51973
209925,51964
209924,51954
209924,51759
209925,51750
209926,51740
209928,51731
209932,51722
209936,51713
209941,51705
209946,51698
209953,51690
209960,51684
209968,51678
209976,51673
209984,51669
209993,51666
210003,51664
210012,51662
210022,51662
210236,51662
210246,51662
Z" /> 
<path style="fill:#008400; fill-opacity:1.0; 
stroke:#008400; stroke-width:0; stroke-opacity:1; 
stroke-linecap:round; stroke-linejoin:round;fill-rule:evenodd;"
d="M 210246,52044
210255,52046
210265,52048
210274,52051
210282,52055
210290,52060
210298,52066
210305,52072
210312,52079
210317,52087
210322,52095
210326,52104
210330,52113
210332,52122
210333,52132
210334,52141
210334,52336
210333,52346
210332,52355
210330,52364
210326,52373
210322,52382
210317,52390
210312,52398
210305,52405
210298,52411
210290,52417
210282,52422
210274,52426
210265,52429
210255,52432
210246,52433
210236,52434
210022,52434
210012,52433
210003,52432
209993,52429
209984,52426
209976,52422
209968,52417
209960,52411
209953,52405
209946,52398
209941,52390
209936,52382
209932,52373
209928,52364
209926,52355
209925,52346
209924,52336
209924,52141
209925,52132
209926,52122
209928,52113
209932,52104
209936,52095
209941,52087
209946,52079
209953,52072
209960,52066
209968,52060
209976,52055
209984,52051
209993,52048
210003,52046
210012,52044
210022,52044
210236,52044
210246,52044
Z" /> 
</g>
<g >
</g>
<g >
</g>
<g >
</g>
<g >
</g>
<g >
</g>
<g >
</g>
<g >
</g>
<g >
</g>
<g >
</g>
<g >
</g>
<g >
</g>
<g >
</g>
<g >
</g>
<g >
</g>
<g >
</g>
<g >
</g>
<g >
</g>
<g >
</g>
<g >
</g>
<g >
</g>
<g >
</g>
<g >
</g>
<g >
</g>
<g >
</g>
<g >
</g>
<g >
</g>
<g >
</g>
<g >
</g>
<g >
</g>
<g >
</g>
<g >
</g>
<g >
</g>
<g >
</g>
<g >
</g>
</g>
<g style="fill:#000000; fill-opacity:1.0; 
stroke:#000000; stroke-width:0; stroke-opacity:1; 
stroke-linecap:round; stroke-linejoin:round;">
</g>
<g style="fill:#C2C200; fill-opacity:1.0; 
stroke:#C2C200; stroke-width:0; stroke-opacity:1; 
stroke-linecap:round; stroke-linejoin:round;">
</g>
<g style="fill:#C2C200; fill-opacity:1.0; 
stroke:#C2C200; stroke-width:59.0551; stroke-opacity:1; 
stroke-linecap:round; stroke-linejoin:round;">
</g>
<g style="fill:#C2C200; fill-opacity:0.0; 
stroke:#C2C200; stroke-width:59.0551; stroke-opacity:1; 
stroke-linecap:round; stroke-linejoin:round;">
<path d="M232529 57448
L157479 57448
" />
<path d="M232529 12448
L232529 57448
" />
<path d="M157479 12448
L232529 12448
" />
<path d="M157479 57448
L157479 12448
" />
<g >
</g>
<g >
</g>
<g >
</g>
<g >
</g>
<g >
</g>
<g >
</g>
<g >
</g>
<g >
</g>
<g >
</g>
<g >
</g>
<g >
</g>
<g >
</g>
<g >
</g>
<g >
</g>
<g >
</g>
<g >
</g>
<g >
</g>
<g >
</g>
<g >
</g>
<g >
</g>
<g >
</g>
<g >
</g>
<g >
</g>
<g >
</g>
<g >
</g>
<g >
</g>
<g >
</g>
<g >
</g>
<g >
</g>
<g >
</g>
<g >
</g>
<g >
</g>
<g >
</g>
<g >
</g>
<g >
</g>
<g >
</g>
<g >
</g>
<g >
</g>
<g >
</g>
<g >
</g>
<g >
</g>
<g >
</g>
<g >
</g>
<g >
</g>
<g >
</g>
<g >
</g>
<g >
</g>
<g >
</g>
<g >
</g>
<g >
</g>
<g >
</g>
<g >
</g>
<g >
</g>
<g >
</g>
<g >
</g>
<g >
</g>
<g >
</g>
<g >
</g>
<g >
</g>
<g >
</g>
<g >
</g>
<g >
</g>
<g >
</g>
<g >
</g>
<g >
</g>
<g >
</g>
<g >
</g>
<g >
</g>
<g >
</g>
<g >
</g>
<g >
</g>
<g >
</g>
<g >
</g>
<g >
</g>
<g >
</g>
<g >
</g>
<g >
</g>
<g >
</g>
<g >
</g>
<g >
</g>
<g >
</g>
<g >
</g>
<g >
</g>
<g >
</g>
<g >
</g>
<g >
</g>
<g >
</g>
<g >
</g>
<g >
</g>
<g >
</g>
<g >
</g>
<g >
</g>
<g >
</g>
<g >
</g>
<g >
</g>
<g >
</g>
<g >
</g>
<g >
</g>
<g >
</g>
<g >
</g>
<g >
</g>
<g >
</g>
<g >
</g>
<g >
</g>
<g >
</g>
<g >
</g>
<g >
</g>
<g >
</g>
<g >
</g>
<g >
</g>
<g >
</g>
<g >
</g>
<g >
</g>
<g >
</g>
<g >
</g>
<g >
</g>
<g >
</g>
<g >
</g>
</g> 
</svg>
