<?xml version="1.0" standalone="no"?>
 <!DOCTYPE svg PUBLIC "-//W3C//DTD SVG 1.1//EN" 
 "http://www.w3.org/Graphics/SVG/1.1/DTD/svg11.dtd"> 
<svg xmlns="http://www.w3.org/2000/svg" version="1.1" 
    width="59.497cm" height="18.4963cm" viewBox="0 0 234240 72820 ">
<title>SVG Picture created as CurrentSinkModule-F_SilkS.svg date 2019/07/09 01:36:55 </title>
  <desc>Picture generated by PCBNEW </desc>
<g style="fill:#000000; fill-opacity:1;stroke:#000000; stroke-opacity:1;
stroke-linecap:round; stroke-linejoin:round; "
 transform="translate(0 0) scale(1 1)">
</g>
<g style="fill:#000000; fill-opacity:0.0; 
stroke:#000000; stroke-width:-0.000393701; stroke-opacity:1; 
stroke-linecap:round; stroke-linejoin:round;">
</g>
<g style="fill:#008484; fill-opacity:0.0; 
stroke:#008484; stroke-width:-0.000393701; stroke-opacity:1; 
stroke-linecap:round; stroke-linejoin:round;">
</g>
<g style="fill:#008484; fill-opacity:0.0; 
stroke:#008484; stroke-width:59.0551; stroke-opacity:1; 
stroke-linecap:round; stroke-linejoin:round;">
<path d="M160804 23117
L161254 23117
" />
<path d="M161029 23342
L161029 22892
" />
<path d="M160804 24062
L161254 24062
" />
<path d="M162807 24635
L162807 24335
" />
<path d="M162957 24485
L162657 24485
" />
<path d="M162957 23941
L162957 24166
" />
<path d="M162957 24054
L162563 24054
L162620 24091
L162657 24129
L162676 24166
" />
<path d="M162601 23791
L162582 23773
L162563 23735
L162563 23641
L162582 23604
L162601 23585
L162638 23566
L162676 23566
L162732 23585
L162957 23810
L162957 23566
" />
<path d="M162563 23454
L162957 23323
L162563 23192
" />
<path d="M162957 23060
L162563 23060
L162563 22967
L162582 22910
L162620 22873
L162657 22854
L162732 22835
L162788 22835
L162863 22854
L162901 22873
L162938 22910
L162957 22967
L162957 23060
" />
<path d="M162920 22442
L162938 22460
L162957 22517
L162957 22554
L162938 22610
L162901 22648
L162863 22667
L162788 22685
L162732 22685
L162657 22667
L162620 22648
L162582 22610
L162563 22554
L162563 22517
L162582 22460
L162601 22442
" />
<path d="M203279 13548
L205279 13548
" />
<path d="M205279 13048
L205279 14548
" />
<path d="M203279 13048
L205279 13048
" />
<path d="M203279 14548
L203279 13048
" />
<path d="M203987 13140
L203957 13125
L203912 13125
L203867 13140
L203837 13170
L203822 13200
L203807 13260
L203807 13305
L203822 13365
L203837 13395
L203867 13425
L203912 13440
L203942 13440
L203987 13425
L204002 13410
L204002 13305
L203942 13305
" />
<path d="M204122 13350
L204272 13350
" />
<path d="M204092 13440
L204197 13125
L204302 13440
" />
<path d="M204407 13440
L204407 13125
" />
<path d="M204556 13440
L204556 13125
L204736 13440
L204736 13125
" />
<path d="M197829 52498
L197829 53998
" />
<path d="M197129 53998
L199829 53998
" />
<path d="M197129 52498
L197129 53998
" />
<path d="M198529 52498
L197129 52498
" />
<path d="M197347 53540
L197332 53570
L197332 53615
L197347 53660
L197377 53690
L197407 53705
L197467 53720
L197512 53720
L197572 53705
L197602 53690
L197632 53660
L197647 53615
L197647 53585
L197632 53540
L197617 53525
L197512 53525
L197512 53585
" />
<path d="M197557 53405
L197557 53255
" />
<path d="M197647 53435
L197332 53330
L197647 53225
" />
<path d="M197647 53120
L197332 53120
" />
<path d="M197647 52970
L197332 52970
L197647 52790
L197332 52790
" />
<circle cx="212637" cy="53698.2" r="250" /> 
<path d="M218129 15898
L216929 15898
" />
<path d="M218129 16698
L218129 15898
" />
<path d="M216929 16698
L218129 16698
" />
<path d="M216929 15898
L216929 16698
" />
<path d="M212129 50998
L211029 50998
" />
<path d="M212129 51798
L212129 50998
" />
<path d="M211029 51798
L212129 51798
" />
<path d="M211029 50998
L211029 51798
" />
<path d="M199829 51798
L198729 51798
" />
<path d="M199829 52398
L199829 51798
" />
<path d="M198729 52398
L199829 52398
" />
<path d="M198729 51798
L198729 52398
" />
<path d="M203429 54798
L203429 53798
" />
<path d="M204129 54798
L203429 54798
" />
<path d="M204129 53798
L204129 54798
" />
<path d="M203429 53798
L204129 53798
" />
<path d="M200229 50198
L198329 50198
" />
<path d="M200229 51398
L200229 50198
" />
<path d="M198329 51398
L200229 51398
" />
<path d="M198329 50198
L198329 51398
" />
<path d="M203129 23798
L203129 22798
" />
<path d="M204929 23798
L203129 23798
" />
<path d="M204929 22798
L204929 23798
" />
<path d="M203129 22798
L204929 22798
" />
<path d="M204279 15798
L203529 15798
" />
<path d="M204279 16798
L204279 15798
" />
<path d="M203529 16798
L204279 16798
" />
<path d="M203529 15798
L203529 16798
" />
<path d="M202779 15798
L202029 15798
" />
<path d="M202779 16798
L202779 15798
" />
<path d="M202029 16798
L202779 16798
" />
<path d="M202029 15798
L202029 16798
" />
<circle cx="217530" cy="13290.4" r="165.602" /> 
<circle cx="210672" cy="16498.2" r="186.88" /> 
<circle cx="204287" cy="19548.2" r="173.781" /> 
<circle cx="207537" cy="49248.2" r="250" /> 
<circle cx="201530" cy="51798.2" r="250" /> 
<path d="M161490 50183
L161486 48604
" />
<path d="M189729 54998
L163939 54988
" />
<path d="M189729 44748
L189729 54998
" />
<path d="M159579 50182
L163939 50182
" />
<path d="M189729 44748
L163939 44748
" />
<path d="M163939 44748
L163939 54988
" />
<path d="M159579 48603
L163939 48603
" />
<path d="M159579 50182
L159579 48603
" />
<path d="M194060 50143
L189729 50143
" />
<path d="M194060 48648
L189729 48647
" />
<path d="M194060 48648
L194060 50143
" />
<path d="M192127 50143
L192127 48648
" />
<path d="M192068 19563
L192072 21142
" />
<path d="M163829 14748
L189619 14758
" />
<path d="M163829 24998
L163829 14748
" />
<path d="M193979 19564
L189619 19564
" />
<path d="M163829 24998
L189619 24998
" />
<path d="M189619 24998
L189619 14758
" />
<path d="M193979 21143
L189619 21143
" />
<path d="M193979 19564
L193979 21143
" />
<path d="M159498 19603
L163829 19603
" />
<path d="M159498 21098
L163829 21099
" />
<path d="M159498 21098
L159498 19603
" />
<path d="M161431 19603
L161431 21098
" />
</g>
<g style="fill:#008484; fill-opacity:0.0; 
stroke:#008484; stroke-width:47.2441; stroke-opacity:1; 
stroke-linecap:round; stroke-linejoin:round;">
<path d="M200385 15099
L200385 13997
" />
<path d="M200385 13997
L201173 13997
" />
<path d="M201173 13997
L201173 15099
" />
<path d="M201173 15099
L200385 15099
" />
</g>
<g style="fill:#008484; fill-opacity:0.0; 
stroke:#008484; stroke-width:59.0551; stroke-opacity:1; 
stroke-linecap:round; stroke-linejoin:round;">
<path d="M78529 4298
L78529 72798
" />
<path d="M78529 16298
L98529 16298
" />
<path d="M29 52798
L78529 52798
" />
<path d="M78529 60798
L98529 60798
" />
</g>
<g style="fill:#008484; fill-opacity:0.0; 
stroke:#008484; stroke-width:47.2441; stroke-opacity:1; 
stroke-linecap:round; stroke-linejoin:round;">
<path d="M219423 19062
L219423 20597
" />
<path d="M218635 19062
L218635 20597
" />
<path d="M219423 19062
L218635 19062
" />
<path d="M215173 54412
L214385 54412
" />
<path d="M214385 54412
L214385 55947
" />
<path d="M215173 54412
L215173 55947
" />
<path d="M207053 54024
L206005 54024
" />
<path d="M207053 56048
L207053 54024
" />
<path d="M206005 56048
L206005 54024
" />
<path d="M207053 56048
L206005 56048
" />
<path d="M207053 56548
L207053 57071
" />
<path d="M207053 57071
L206529 57071
" />
<path d="M199255 21274
L199779 21274
" />
<path d="M199255 21798
L199255 21274
" />
<path d="M199255 22298
L200303 22298
" />
<path d="M200303 22298
L200303 24321
" />
<path d="M199255 22298
L199255 24321
" />
<path d="M199255 24321
L200303 24321
" />
<path d="M229100 46262.8 A692.913 692.913 0.0 0 0 227715 46262.8 " />
<path d="M227715 52577.8 A692.913 692.913 0.0 0 0 229100 52577.8 " />
<path d="M229100 46262
L229100 47004
" />
<path d="M227714 46262
L227714 47004
" />
<path d="M229100 52577
L229100 51835
" />
<path d="M227714 52577
L227714 51835
" />
<path d="M232125 49420
L232125 47004
" />
<path d="M232125 47004
L227125 47004
" />
<path d="M227125 47004
L227125 48707
" />
<path d="M227125 48707
L226515 48707
" />
<path d="M226515 48707
L226515 49420
" />
<path d="M232125 49420
L232125 51835
" />
<path d="M232125 51835
L227125 51835
" />
<path d="M227125 51835
L227125 50132
" />
<path d="M227125 50132
L226515 50132
" />
<path d="M226515 50132
L226515 49420
" />
<path d="M231295 46886
L232244 46886
" />
<path d="M232244 46886
L232244 47835
" />
<path d="M223208 13977
L223208 15119
" />
<path d="M225850 13977
L225850 15119
" />
<path d="M223958 15869
L225100 15869
" />
<path d="M223958 13227
L225100 13227
" />
<path d="M223958 53977
L225100 53977
" />
<path d="M223958 56619
L225100 56619
" />
<path d="M225850 54727
L225850 55869
" />
<path d="M223208 54727
L223208 55869
" />
<path d="M193208 13977
L193208 15119
" />
<path d="M195850 13977
L195850 15119
" />
<path d="M193958 15869
L195100 15869
" />
<path d="M193958 13227
L195100 13227
" />
<path d="M193958 53977
L195100 53977
" />
<path d="M193958 56619
L195100 56619
" />
<path d="M195850 54727
L195850 55869
" />
<path d="M193208 54727
L193208 55869
" />
<path d="M160472 22504
L158102 22504
" />
<path d="M158102 22504
L158102 24591
" />
<path d="M158102 24591
L160472 24591
" />
<path d="M160472 24591
L160472 22504
" />
<path d="M160066 22390
L158492 22390
" />
<path d="M158102 23048
L158496 23048
" />
<path d="M158496 23048
L158496 24048
" />
<path d="M158496 24048
L158102 24048
" />
<path d="M158496 23048
L158704 23146
" />
<path d="M158704 23146
L158704 23949
" />
<path d="M158704 23949
L158496 24048
" />
<path d="M158102 23146
L158496 23146
" />
<path d="M158102 23949
L158496 23949
" />
<path d="M160472 22733
L160236 22733
" />
<path d="M160236 22733
L160236 23363
" />
<path d="M160236 23363
L160472 23363
" />
<path d="M160472 23733
L160236 23733
" />
<path d="M160236 23733
L160236 24363
" />
<path d="M160236 24363
L160472 24363
" />
<path d="M203586 55904
L203586 56691
" />
<path d="M202484 55904
L203586 55904
" />
<path d="M202484 56691
L202484 55904
" />
<path d="M203586 56691
L202484 56691
" />
<path d="M228586 22091
L230956 22091
" />
<path d="M230956 22091
L230956 19004
" />
<path d="M230956 19004
L228586 19004
" />
<path d="M228586 19004
L228586 22091
" />
<path d="M228992 22205
L230566 22205
" />
<path d="M230956 21548
L230562 21548
" />
<path d="M230562 21548
L230562 19548
" />
<path d="M230562 19548
L230956 19548
" />
<path d="M230562 21548
L230354 21449
" />
<path d="M230354 21449
L230354 19646
" />
<path d="M230354 19646
L230562 19548
" />
<path d="M230956 21449
L230562 21449
" />
<path d="M230956 19646
L230562 19646
" />
<path d="M228586 21863
L228822 21863
" />
<path d="M228822 21863
L228822 21233
" />
<path d="M228822 21233
L228586 21233
" />
<path d="M228586 20863
L228822 20863
" />
<path d="M228822 20863
L228822 20233
" />
<path d="M228822 20233
L228586 20233
" />
<path d="M228586 19863
L228822 19863
" />
<path d="M228822 19863
L228822 19233
" />
<path d="M228822 19233
L228586 19233
" />
<path d="M215008 44260
L215008 44855
" />
<path d="M213551 44260
L213551 44855
" />
<path d="M212263 44855
L216295 44855
" />
<path d="M216295 44260
L216295 46087
" />
<path d="M212263 44260
L212263 46087
" />
<path d="M212263 46087
L216295 46087
" />
<path d="M212263 44260
L216295 44260
" />
<path d="M216445 25585
L212413 25585
" />
<path d="M216445 23758
L212413 23758
" />
<path d="M216445 25585
L216445 23758
" />
<path d="M212413 25585
L212413 23758
" />
<path d="M216445 24991
L212413 24991
" />
<path d="M215157 25585
L215157 24991
" />
<path d="M213700 25585
L213700 24991
" />
<path d="M225001 19270
L224057 19270
" />
<path d="M225001 18325
L225001 19270
" />
<path d="M224057 18325
L225001 18325
" />
<path d="M224057 19270
L224057 18325
" />
<path d="M225001 22770
L224057 22770
" />
<path d="M224057 22770
L224057 21825
" />
<path d="M224057 21825
L225001 21825
" />
<path d="M225001 21825
L225001 22770
" />
<path d="M199057 55825
L200001 55825
" />
<path d="M200001 55825
L200001 56770
" />
<path d="M200001 56770
L199057 56770
" />
<path d="M199057 56770
L199057 55825
" />
<path d="M198751 17325
L198751 18270
" />
<path d="M197807 17325
L198751 17325
" />
<path d="M197807 18270
L197807 17325
" />
<path d="M198751 18270
L197807 18270
" />
<path d="M207101 22070
L206157 22070
" />
<path d="M207101 21125
L207101 22070
" />
<path d="M206157 21125
L207101 21125
" />
<path d="M206157 22070
L206157 21125
" />
<path d="M215601 21070
L214657 21070
" />
<path d="M214657 21070
L214657 20125
" />
<path d="M214657 20125
L215601 20125
" />
<path d="M215601 20125
L215601 21070
" />
<path d="M210807 47270
L210807 46325
" />
<path d="M211751 47270
L210807 47270
" />
<path d="M211751 46325
L211751 47270
" />
<path d="M210807 46325
L211751 46325
" />
<path d="M198807 48770
L198807 47825
" />
<path d="M198807 47825
L199751 47825
" />
<path d="M199751 47825
L199751 48770
" />
<path d="M199751 48770
L198807 48770
" />
<path d="M207857 13825
L208801 13825
" />
<path d="M208801 13825
L208801 14770
" />
<path d="M208801 14770
L207857 14770
" />
<path d="M207857 14770
L207857 13825
" />
<path d="M208907 51825
L209851 51825
" />
<path d="M208907 52770
L208907 51825
" />
<path d="M209851 52770
L208907 52770
" />
<path d="M209851 51825
L209851 52770
" />
<path d="M220757 19870
L220757 18925
" />
<path d="M221701 19870
L220757 19870
" />
<path d="M221701 18925
L221701 19870
" />
<path d="M220757 18925
L221701 18925
" />
<path d="M219807 54075
L220751 54075
" />
<path d="M220751 54075
L220751 55020
" />
<path d="M220751 55020
L219807 55020
" />
<path d="M219807 55020
L219807 54075
" />
<path d="M198751 19620
L197807 19620
" />
<path d="M197807 19620
L197807 18675
" />
<path d="M197807 18675
L198751 18675
" />
<path d="M198751 18675
L198751 19620
" />
<path d="M201751 55875
L201751 56820
" />
<path d="M200807 55875
L201751 55875
" />
<path d="M200807 56820
L200807 55875
" />
<path d="M201751 56820
L200807 56820
" />
<path d="M220757 20325
L221701 20325
" />
<path d="M221701 20325
L221701 21270
" />
<path d="M221701 21270
L220757 21270
" />
<path d="M220757 21270
L220757 20325
" />
<path d="M201201 47825
L201201 48770
" />
<path d="M200257 47825
L201201 47825
" />
<path d="M200257 48770
L200257 47825
" />
<path d="M201201 48770
L200257 48770
" />
<path d="M206457 13825
L207401 13825
" />
<path d="M207401 13825
L207401 14770
" />
<path d="M207401 14770
L206457 14770
" />
<path d="M206457 14770
L206457 13825
" />
<path d="M206557 52770
L206557 51825
" />
<path d="M207501 52770
L206557 52770
" />
<path d="M207501 51825
L207501 52770
" />
<path d="M206557 51825
L207501 51825
" />
<path d="M203537 51698
L203537 50930
" />
<path d="M203537 51698
L203537 52465
" />
<path d="M201521 51698
L201521 50930
" />
<path d="M201521 51698
L201521 53056
" />
<path d="M204287 19548
L204287 18189
" />
<path d="M204287 19548
L204287 20315
" />
<path d="M202271 19548
L202271 18780
" />
<path d="M202271 19548
L202271 20315
" />
<path d="M217529 13290
L216171 13290
" />
<path d="M217529 13290
L218297 13290
" />
<path d="M217529 15306
L216761 15306
" />
<path d="M217529 15306
L218297 15306
" />
<path d="M210621 53698
L210621 54465
" />
<path d="M210621 53698
L210621 52930
" />
<path d="M212637 53698
L212637 54465
" />
<path d="M212637 53698
L212637 52339
" />
<path d="M205521 49248
L205521 50015
" />
<path d="M205521 49248
L205521 48480
" />
<path d="M207537 49248
L207537 50015
" />
<path d="M207537 49248
L207537 47889
" />
<path d="M210671 16498
L210671 17856
" />
<path d="M210671 16498
L210671 15730
" />
<path d="M212687 16498
L212687 17265
" />
<path d="M212687 16498
L212687 15730
" />
</g>
<g style="fill:#008484; fill-opacity:0.0; 
stroke:#008484; stroke-width:59.0551; stroke-opacity:1; 
stroke-linecap:round; stroke-linejoin:round;">
<path d="M161479 24998
L194979 24998
" />
<path d="M194979 24998
L194979 44698
" />
<path d="M194979 44698
L161479 44698
" />
<path d="M157529 44698
L157529 24998
" />
<path d="M161479 24998
L161479 44698
" />
<path d="M160429 32148
L158429 32148
" />
<path d="M160429 32148
L159929 32648
" />
<path d="M159929 31648
L160429 32148
" />
<path d="M160429 37148
L158429 37148
" />
<path d="M160429 37148
L159929 37648
" />
<path d="M159929 36648
L160429 37148
" />
<path d="M160429 30648
L158429 30648
" />
<path d="M160429 30648
L159929 31148
" />
<path d="M159929 30148
L160429 30648
" />
<path d="M160429 38648
L159929 39148
" />
<path d="M159929 38148
L160429 38648
" />
<path d="M160429 38648
L158429 38648
" />
<path d="M161479 44698
L157529 44698
" />
<path d="M161479 24998
L157529 24998
" />
<path d="M199729 43998
L199729 25798
" />
<path d="M229279 43998
L199729 43998
" />
<path d="M229279 25798
L229279 43998
" />
<path d="M199729 25798
L229279 25798
" />
</g>
<g style="fill:#008484; fill-opacity:0.0; 
stroke:#008484; stroke-width:47.2441; stroke-opacity:1; 
stroke-linecap:round; stroke-linejoin:round;">
<path d="M211751 47575
L211751 48520
" />
<path d="M210807 47575
L211751 47575
" />
<path d="M210807 48520
L210807 47575
" />
<path d="M211751 48520
L210807 48520
" />
<path d="M220751 56520
L219807 56520
" />
<path d="M219807 56520
L219807 55575
" />
<path d="M219807 55575
L220751 55575
" />
<path d="M220751 55575
L220751 56520
" />
<path d="M225893 21904
L225893 22691
" />
<path d="M225893 22691
L227429 22691
" />
<path d="M225893 21904
L227429 21904
" />
<path d="M227665 19191
L226129 19191
" />
<path d="M227665 18404
L226129 18404
" />
<path d="M227665 19191
L227665 18404
" />
<path d="M225001 21020
L224057 21020
" />
<path d="M224057 21020
L224057 20075
" />
<path d="M224057 20075
L225001 20075
" />
<path d="M225001 20075
L225001 21020
" />
<path d="M199176 51077
L199382 51077
" />
<path d="M199176 50518
L199382 50518
" />
<path d="M204132 23577
L203926 23577
" />
<path d="M204132 23018
L203926 23018
" />
<path d="M207457 22070
L207457 21125
" />
<path d="M207457 21125
L208401 21125
" />
<path d="M208401 21125
L208401 22070
" />
<path d="M208401 22070
L207457 22070
" />
<path d="M214657 19770
L214657 18825
" />
<path d="M215601 19770
L214657 19770
" />
<path d="M215601 18825
L215601 19770
" />
<path d="M214657 18825
L215601 18825
" />
<path d="M201657 48770
L201657 47825
" />
<path d="M202601 48770
L201657 48770
" />
<path d="M202601 47825
L202601 48770
" />
<path d="M201657 47825
L202601 47825
" />
<path d="M214657 17525
L215601 17525
" />
<path d="M215601 17525
L215601 18470
" />
<path d="M215601 18470
L214657 18470
" />
<path d="M214657 18470
L214657 17525
" />
</g>
<g style="fill:#008484; fill-opacity:0.0; 
stroke:#008484; stroke-width:59.0551; stroke-opacity:1; 
stroke-linecap:round; stroke-linejoin:round;">
<path d="M175026 55576
L174895 55388
" />
<path d="M174801 55576
L174801 55182
L174951 55182
L174989 55201
L175007 55220
L175026 55257
L175026 55313
L175007 55351
L174989 55370
L174951 55388
L174801 55388
" />
<path d="M175101 55613
L175401 55613
" />
<path d="M175476 55557
L175532 55576
L175626 55576
L175664 55557
L175682 55538
L175701 55501
L175701 55463
L175682 55426
L175664 55407
L175626 55388
L175551 55370
L175514 55351
L175495 55332
L175476 55295
L175476 55257
L175495 55220
L175514 55201
L175551 55182
L175645 55182
L175701 55201
" />
<path d="M175870 55576
L175870 55182
" />
<path d="M175870 55370
L176095 55370
" />
<path d="M176095 55576
L176095 55182
" />
<path d="M176282 55182
L176282 55501
L176301 55538
L176320 55557
L176357 55576
L176432 55576
L176470 55557
L176488 55538
L176507 55501
L176507 55182
" />
<path d="M176695 55576
L176695 55182
L176920 55576
L176920 55182
" />
<path d="M177051 55182
L177276 55182
" />
<path d="M177163 55576
L177163 55182
" />
<path d="M177407 55576
L177407 55182
L177632 55576
L177632 55182
" />
<path d="M177820 55370
L177951 55370
" />
<path d="M178007 55576
L177820 55576
L177820 55182
L178007 55182
" />
<path d="M178382 55201
L178344 55182
L178288 55182
L178232 55201
L178194 55238
L178176 55276
L178157 55351
L178157 55407
L178176 55482
L178194 55520
L178232 55557
L178288 55576
L178326 55576
L178382 55557
L178401 55538
L178401 55407
L178326 55407
" />
<path d="M178776 55576
L178551 55576
" />
<path d="M178663 55576
L178663 55182
L178626 55238
L178588 55276
L178551 55295
" />
<path d="M175017 14526
L174886 14338
" />
<path d="M174792 14526
L174792 14132
L174942 14132
L174979 14151
L174998 14170
L175017 14207
L175017 14263
L174998 14301
L174979 14320
L174942 14338
L174792 14338
" />
<path d="M175092 14563
L175392 14563
" />
<path d="M175467 14507
L175523 14526
L175617 14526
L175654 14507
L175673 14488
L175692 14451
L175692 14413
L175673 14376
L175654 14357
L175617 14338
L175542 14320
L175504 14301
L175485 14282
L175467 14245
L175467 14207
L175485 14170
L175504 14151
L175542 14132
L175635 14132
L175692 14151
" />
<path d="M175860 14526
L175860 14132
" />
<path d="M175860 14320
L176085 14320
" />
<path d="M176085 14526
L176085 14132
" />
<path d="M176273 14132
L176273 14451
L176292 14488
L176310 14507
L176348 14526
L176423 14526
L176460 14507
L176479 14488
L176498 14451
L176498 14132
" />
<path d="M176685 14526
L176685 14132
L176910 14526
L176910 14132
" />
<path d="M177041 14132
L177266 14132
" />
<path d="M177154 14526
L177154 14132
" />
<path d="M177398 14526
L177398 14132
L177548 14132
L177585 14151
L177604 14170
L177623 14207
L177623 14263
L177604 14301
L177585 14320
L177548 14338
L177398 14338
" />
<path d="M177866 14132
L177941 14132
L177979 14151
L178016 14188
L178035 14263
L178035 14395
L178016 14470
L177979 14507
L177941 14526
L177866 14526
L177829 14507
L177791 14470
L177773 14395
L177773 14263
L177791 14188
L177829 14151
L177866 14132
" />
<path d="M178185 14507
L178241 14526
L178335 14526
L178373 14507
L178391 14488
L178410 14451
L178410 14413
L178391 14376
L178373 14357
L178335 14338
L178260 14320
L178223 14301
L178204 14282
L178185 14245
L178185 14207
L178204 14170
L178223 14151
L178260 14132
L178354 14132
L178410 14151
" />
<path d="M178785 14526
L178560 14526
" />
<path d="M178673 14526
L178673 14132
L178635 14188
L178598 14226
L178560 14245
" />
<path d="M200451 13332
L200451 13613
L200432 13670
L200395 13707
L200338 13726
L200301 13726
" />
<path d="M200638 13726
L200638 13332
L200788 13332
L200826 13351
L200845 13370
L200863 13407
L200863 13463
L200845 13501
L200826 13520
L200788 13538
L200638 13538
" />
<path d="M201201 13332
L201126 13332
L201088 13351
L201070 13370
L201032 13426
L201013 13501
L201013 13651
L201032 13688
L201051 13707
L201088 13726
L201163 13726
L201201 13707
L201220 13688
L201238 13651
L201238 13557
L201220 13520
L201201 13501
L201163 13482
L201088 13482
L201051 13501
L201032 13520
L201013 13557
" />
<path d="M85998 6654
L85998 5867
" />
<path d="M86373 6241
L86636 6241
" />
<path d="M86748 6654
L86373 6654
L86373 5867
L86748 5867
" />
<path d="M87535 6579
L87498 6616
L87385 6654
L87310 6654
L87198 6616
L87123 6541
L87085 6466
L87048 6316
L87048 6204
L87085 6054
L87123 5979
L87198 5904
L87310 5867
L87385 5867
L87498 5904
L87535 5942
" />
<path d="M88473 6654
L88473 5867
" />
<path d="M88848 6129
L88848 6654
" />
<path d="M88848 6204
L88885 6166
L88960 6129
L89073 6129
L89148 6166
L89185 6241
L89185 6654
" />
<path d="M89560 6129
L89560 6916
" />
<path d="M89560 6166
L89635 6129
L89785 6129
L89860 6166
L89898 6204
L89935 6279
L89935 6504
L89898 6579
L89860 6616
L89785 6654
L89635 6654
L89560 6616
" />
<path d="M90610 6129
L90610 6654
" />
<path d="M90273 6129
L90273 6541
L90310 6616
L90385 6654
L90498 6654
L90573 6616
L90610 6579
" />
<path d="M90872 6129
L91172 6129
" />
<path d="M90985 5867
L90985 6541
L91022 6616
L91097 6654
L91172 6654
" />
<path d="M67436 6429
L67811 6429
" />
<path d="M67361 6654
L67623 5867
L67886 6654
" />
<path d="M68148 6129
L68148 6654
" />
<path d="M68148 6204
L68186 6166
L68261 6129
L68373 6129
L68448 6166
L68486 6241
L68486 6654
" />
<path d="M69198 6654
L69198 6241
L69161 6166
L69086 6129
L68936 6129
L68861 6166
" />
<path d="M69198 6616
L69123 6654
L68936 6654
L68861 6616
L68823 6541
L68823 6466
L68861 6391
L68936 6354
L69123 6354
L69198 6316
" />
<path d="M69686 6654
L69611 6616
L69573 6541
L69573 5867
" />
<path d="M70098 6654
L70023 6616
L69985 6579
L69948 6504
L69948 6279
L69985 6204
L70023 6166
L70098 6129
L70210 6129
L70285 6166
L70323 6204
L70360 6279
L70360 6504
L70323 6579
L70285 6616
L70210 6654
L70098 6654
" />
<path d="M71035 6129
L71035 6766
L70998 6841
L70960 6879
L70885 6916
L70773 6916
L70698 6879
" />
<path d="M71035 6616
L70960 6654
L70810 6654
L70735 6616
L70698 6579
L70660 6504
L70660 6279
L70698 6204
L70735 6166
L70810 6129
L70960 6129
L71035 6166
" />
<path d="M71973 6616
L72085 6654
L72273 6654
L72348 6616
L72385 6579
L72423 6504
L72423 6429
L72385 6354
L72348 6316
L72273 6279
L72123 6241
L72048 6204
L72010 6166
L71973 6092
L71973 6017
L72010 5942
L72048 5904
L72123 5867
L72310 5867
L72423 5904
" />
<path d="M73060 6616
L72985 6654
L72835 6654
L72760 6616
L72723 6541
L72723 6241
L72760 6166
L72835 6129
L72985 6129
L73060 6166
L73098 6241
L73098 6316
L72723 6391
" />
<path d="M73773 6616
L73698 6654
L73548 6654
L73473 6616
L73435 6579
L73398 6504
L73398 6279
L73435 6204
L73473 6166
L73548 6129
L73698 6129
L73773 6166
" />
<path d="M73997 6129
L74297 6129
" />
<path d="M74110 5867
L74110 6541
L74147 6616
L74222 6654
L74297 6654
" />
<path d="M74560 6654
L74560 6129
" />
<path d="M74560 5867
L74522 5904
L74560 5942
L74597 5904
L74560 5867
L74560 5942
" />
<path d="M75047 6654
L74972 6616
L74935 6579
L74897 6504
L74897 6279
L74935 6204
L74972 6166
L75047 6129
L75160 6129
L75235 6166
L75272 6204
L75310 6279
L75310 6504
L75272 6579
L75235 6616
L75160 6654
L75047 6654
" />
<path d="M75647 6129
L75647 6654
" />
<path d="M75647 6204
L75685 6166
L75760 6129
L75872 6129
L75947 6166
L75985 6241
L75985 6654
" />
<path d="M69511 70241
L69248 70241
" />
<path d="M69248 70654
L69248 69867
L69623 69867
" />
<path d="M69923 70654
L69923 70129
" />
<path d="M69923 70279
L69961 70204
L69998 70166
L70073 70129
L70148 70129
" />
<path d="M70523 70654
L70448 70616
L70411 70579
L70373 70504
L70373 70279
L70411 70204
L70448 70166
L70523 70129
L70636 70129
L70711 70166
L70748 70204
L70785 70279
L70785 70504
L70748 70579
L70711 70616
L70636 70654
L70523 70654
" />
<path d="M71123 70129
L71123 70654
" />
<path d="M71123 70204
L71160 70166
L71235 70129
L71348 70129
L71423 70166
L71460 70241
L71460 70654
" />
<path d="M71723 70129
L72023 70129
" />
<path d="M71835 69867
L71835 70541
L71873 70616
L71948 70654
L72023 70654
" />
<path d="M72885 70654
L72885 69867
L73185 69867
L73260 69904
L73298 69942
L73335 70017
L73335 70129
L73298 70204
L73260 70241
L73185 70279
L72885 70279
" />
<path d="M74010 70654
L74010 70241
L73973 70166
L73898 70129
L73748 70129
L73673 70166
" />
<path d="M74010 70616
L73935 70654
L73748 70654
L73673 70616
L73635 70541
L73635 70466
L73673 70391
L73748 70354
L73935 70354
L74010 70316
" />
<path d="M74385 70129
L74385 70654
" />
<path d="M74385 70204
L74423 70166
L74498 70129
L74610 70129
L74685 70166
L74723 70241
L74723 70654
" />
<path d="M75397 70616
L75322 70654
L75172 70654
L75097 70616
L75060 70541
L75060 70241
L75097 70166
L75172 70129
L75322 70129
L75397 70166
L75435 70241
L75435 70316
L75060 70391
" />
<path d="M75885 70654
L75810 70616
L75772 70541
L75772 69867
" />
<path d="M83880 70241
L83617 70241
" />
<path d="M83617 70654
L83617 69867
L83992 69867
" />
<path d="M84292 70654
L84292 70129
" />
<path d="M84292 70279
L84330 70204
L84367 70166
L84442 70129
L84517 70129
" />
<path d="M84892 70654
L84817 70616
L84779 70579
L84742 70504
L84742 70279
L84779 70204
L84817 70166
L84892 70129
L85004 70129
L85079 70166
L85117 70204
L85154 70279
L85154 70504
L85117 70579
L85079 70616
L85004 70654
L84892 70654
" />
<path d="M85492 70129
L85492 70654
" />
<path d="M85492 70204
L85529 70166
L85604 70129
L85717 70129
L85792 70166
L85829 70241
L85829 70654
" />
<path d="M86092 70129
L86392 70129
" />
<path d="M86204 69867
L86204 70541
L86242 70616
L86317 70654
L86392 70654
" />
<path d="M87704 70579
L87667 70616
L87554 70654
L87479 70654
L87367 70616
L87292 70541
L87254 70466
L87217 70316
L87217 70204
L87254 70054
L87292 69979
L87367 69904
L87479 69867
L87554 69867
L87667 69904
L87704 69942
" />
<path d="M88154 70654
L88079 70616
L88042 70579
L88004 70504
L88004 70279
L88042 70204
L88079 70166
L88154 70129
L88267 70129
L88342 70166
L88379 70204
L88417 70279
L88417 70504
L88379 70579
L88342 70616
L88267 70654
L88154 70654
" />
<path d="M88754 70129
L88754 70654
" />
<path d="M88754 70204
L88791 70166
L88866 70129
L88979 70129
L89054 70166
L89091 70241
L89091 70654
" />
<path d="M89466 70129
L89466 70654
" />
<path d="M89466 70204
L89504 70166
L89579 70129
L89691 70129
L89766 70166
L89804 70241
L89804 70654
" />
<path d="M90479 70616
L90404 70654
L90254 70654
L90179 70616
L90141 70541
L90141 70241
L90179 70166
L90254 70129
L90404 70129
L90479 70166
L90516 70241
L90516 70316
L90141 70391
" />
<path d="M91191 70616
L91116 70654
L90966 70654
L90891 70616
L90854 70579
L90816 70504
L90816 70279
L90854 70204
L90891 70166
L90966 70129
L91116 70129
L91191 70166
" />
<path d="M91416 70129
L91716 70129
" />
<path d="M91529 69867
L91529 70541
L91566 70616
L91641 70654
L91716 70654
" />
<path d="M92091 70654
L92016 70616
L91979 70579
L91941 70504
L91941 70279
L91979 70204
L92016 70166
L92091 70129
L92204 70129
L92279 70166
L92316 70204
L92354 70279
L92354 70504
L92316 70579
L92279 70616
L92204 70654
L92091 70654
" />
<path d="M92691 70654
L92691 70129
" />
<path d="M92691 70279
L92729 70204
L92766 70166
L92841 70129
L92916 70129
" />
<path d="M93141 70616
L93216 70654
L93366 70654
L93441 70616
L93478 70541
L93478 70504
L93441 70429
L93366 70391
L93253 70391
L93178 70354
L93141 70279
L93141 70241
L93178 70166
L93253 70129
L93366 70129
L93441 70166
" />
<path d="M85223 39654
L85223 38867
L85523 38867
L85598 38904
L85636 38942
L85673 39017
L85673 39129
L85636 39204
L85598 39241
L85523 39279
L85223 39279
" />
<path d="M86123 39654
L86048 39616
L86011 39579
L85973 39504
L85973 39279
L86011 39204
L86048 39166
L86123 39129
L86236 39129
L86311 39166
L86348 39204
L86386 39279
L86386 39504
L86348 39579
L86311 39616
L86236 39654
L86123 39654
" />
<path d="M86648 39129
L86798 39654
L86948 39279
L87098 39654
L87248 39129
" />
<path d="M87848 39616
L87773 39654
L87623 39654
L87548 39616
L87510 39541
L87510 39241
L87548 39166
L87623 39129
L87773 39129
L87848 39166
L87885 39241
L87885 39316
L87510 39391
" />
<path d="M88223 39654
L88223 39129
" />
<path d="M88223 39279
L88260 39204
L88298 39166
L88373 39129
L88448 39129
" />
<path d="M89273 39616
L89385 39654
L89573 39654
L89648 39616
L89685 39579
L89723 39504
L89723 39429
L89685 39354
L89648 39316
L89573 39279
L89423 39241
L89348 39204
L89310 39166
L89273 39092
L89273 39017
L89310 38942
L89348 38904
L89423 38867
L89610 38867
L89723 38904
" />
<path d="M90398 39129
L90398 39654
" />
<path d="M90060 39129
L90060 39541
L90098 39616
L90173 39654
L90285 39654
L90360 39616
L90398 39579
" />
<path d="M90773 39129
L90773 39916
" />
<path d="M90773 39166
L90848 39129
L90998 39129
L91073 39166
L91110 39204
L91148 39279
L91148 39504
L91110 39579
L91073 39616
L90998 39654
L90848 39654
L90773 39616
" />
<path d="M91485 39129
L91485 39916
" />
<path d="M91485 39166
L91560 39129
L91710 39129
L91785 39166
L91822 39204
L91860 39279
L91860 39504
L91822 39579
L91785 39616
L91710 39654
L91560 39654
L91485 39616
" />
<path d="M92310 39654
L92235 39616
L92197 39541
L92197 38867
" />
<path d="M92535 39129
L92722 39654
" />
<path d="M92910 39129
L92722 39654
L92647 39841
L92610 39879
L92535 39916
" />
<path d="M218688 21476
L218688 21082
L218782 21082
L218838 21101
L218876 21138
L218895 21176
L218913 21251
L218913 21307
L218895 21382
L218876 21420
L218838 21457
L218782 21476
L218688 21476
" />
<path d="M219045 21082
L219288 21082
L219157 21232
L219213 21232
L219251 21251
L219270 21270
L219288 21307
L219288 21401
L219270 21438
L219251 21457
L219213 21476
L219101 21476
L219063 21457
L219045 21438
" />
<path d="M214488 54226
L214488 53832
L214582 53832
L214638 53851
L214676 53888
L214695 53926
L214713 54001
L214713 54057
L214695 54132
L214676 54170
L214638 54207
L214582 54226
L214488 54226
" />
<path d="M215051 53963
L215051 54226
" />
<path d="M214957 53813
L214863 54095
L215107 54095
" />
<path d="M206398 53332
L206398 53613
L206379 53670
L206342 53707
L206285 53726
L206248 53726
" />
<path d="M206791 53726
L206567 53726
" />
<path d="M206679 53726
L206679 53332
L206642 53388
L206604 53426
L206567 53445
" />
<path d="M199648 20532
L199648 20813
L199629 20870
L199592 20907
L199535 20926
L199498 20926
" />
<path d="M199817 20570
L199835 20551
L199873 20532
L199967 20532
L200004 20551
L200023 20570
L200041 20607
L200041 20645
L200023 20701
L199798 20926
L200041 20926
" />
<path d="M229895 52532
L229895 52813
L229876 52870
L229839 52907
L229782 52926
L229745 52926
" />
<path d="M229988 52963
L230288 52963
" />
<path d="M230382 52926
L230382 52532
L230476 52532
L230532 52551
L230570 52588
L230588 52626
L230607 52701
L230607 52757
L230588 52832
L230570 52870
L230532 52907
L230476 52926
L230382 52926
" />
<path d="M230776 52532
L230776 52851
L230795 52888
L230813 52907
L230851 52926
L230926 52926
L230963 52907
L230982 52888
L231001 52851
L231001 52532
" />
<path d="M231132 52532
L231357 52532
" />
<path d="M231245 52926
L231245 52532
" />
<path d="M231695 52926
L231470 52926
" />
<path d="M231582 52926
L231582 52532
L231545 52588
L231507 52626
L231470 52645
" />
<path d="M223835 16332
L223835 16613
L223817 16670
L223779 16707
L223723 16726
L223685 16726
" />
<path d="M224004 16613
L224192 16613
" />
<path d="M223967 16726
L224098 16332
L224229 16726
" />
<path d="M224360 16726
L224360 16332
L224454 16332
L224510 16351
L224548 16388
L224567 16426
L224585 16501
L224585 16557
L224567 16632
L224548 16670
L224510 16707
L224454 16726
L224360 16726
" />
<path d="M224979 16688
L224960 16707
L224904 16726
L224866 16726
L224810 16707
L224773 16670
L224754 16632
L224735 16557
L224735 16501
L224754 16426
L224773 16388
L224810 16351
L224866 16332
L224904 16332
L224960 16351
L224979 16370
" />
<path d="M225354 16726
L225129 16726
" />
<path d="M225241 16726
L225241 16332
L225204 16388
L225166 16426
L225129 16445
" />
<path d="M223835 56932
L223835 57213
L223817 57270
L223779 57307
L223723 57326
L223685 57326
" />
<path d="M224004 57213
L224192 57213
" />
<path d="M223967 57326
L224098 56932
L224229 57326
" />
<path d="M224360 57326
L224360 56932
L224454 56932
L224510 56951
L224548 56988
L224567 57026
L224585 57101
L224585 57157
L224567 57232
L224548 57270
L224510 57307
L224454 57326
L224360 57326
" />
<path d="M224979 57288
L224960 57307
L224904 57326
L224866 57326
L224810 57307
L224773 57270
L224754 57232
L224735 57157
L224735 57101
L224754 57026
L224773 56988
L224810 56951
L224866 56932
L224904 56932
L224960 56951
L224979 56970
" />
<path d="M225129 56970
L225148 56951
L225185 56932
L225279 56932
L225316 56951
L225335 56970
L225354 57007
L225354 57045
L225335 57101
L225110 57326
L225354 57326
" />
<path d="M194085 16582
L194085 16863
L194067 16920
L194029 16957
L193973 16976
L193935 16976
" />
<path d="M194273 16976
L194273 16582
L194367 16582
L194423 16601
L194460 16638
L194479 16676
L194498 16751
L194498 16807
L194479 16882
L194460 16920
L194423 16957
L194367 16976
L194273 16976
" />
<path d="M194648 16863
L194835 16863
" />
<path d="M194610 16976
L194742 16582
L194873 16976
" />
<path d="M195229 16938
L195210 16957
L195154 16976
L195116 16976
L195060 16957
L195023 16920
L195004 16882
L194985 16807
L194985 16751
L195004 16676
L195023 16638
L195060 16601
L195116 16582
L195154 16582
L195210 16601
L195229 16620
" />
<path d="M195604 16976
L195379 16976
" />
<path d="M195491 16976
L195491 16582
L195454 16638
L195416 16676
L195379 16695
" />
<path d="M193835 56932
L193835 57213
L193817 57270
L193779 57307
L193723 57326
L193685 57326
" />
<path d="M194023 57326
L194023 56932
L194117 56932
L194173 56951
L194210 56988
L194229 57026
L194248 57101
L194248 57157
L194229 57232
L194210 57270
L194173 57307
L194117 57326
L194023 57326
" />
<path d="M194398 57213
L194585 57213
" />
<path d="M194360 57326
L194492 56932
L194623 57326
" />
<path d="M194979 57288
L194960 57307
L194904 57326
L194866 57326
L194810 57307
L194773 57270
L194754 57232
L194735 57157
L194735 57101
L194754 57026
L194773 56988
L194810 56951
L194866 56932
L194904 56932
L194960 56951
L194979 56970
" />
<path d="M195129 56970
L195148 56951
L195185 56932
L195279 56932
L195316 56951
L195335 56970
L195354 57007
L195354 57045
L195335 57101
L195110 57326
L195354 57326
" />
<path d="M161813 24223
L162095 24223
L162151 24241
L162188 24279
L162207 24335
L162207 24373
" />
<path d="M162001 23904
L162001 24035
" />
<path d="M162207 24035
L161813 24035
L161813 23848
" />
<path d="M162095 23716
L162095 23529
" />
<path d="M162207 23754
L161813 23623
L162207 23491
" />
<path d="M162207 23360
L161813 23360
L162207 23135
L161813 23135
" />
<path d="M162207 22742
L162207 22967
" />
<path d="M162207 22854
L161813 22854
L161870 22892
L161907 22929
L161926 22967
" />
<path d="M202601 56882
L202601 57163
L202582 57220
L202545 57257
L202488 57276
L202451 57276
" />
<path d="M202788 57276
L202788 56882
L202938 56882
L202976 56901
L202995 56920
L203013 56957
L203013 57013
L202995 57051
L202976 57070
L202938 57088
L202788 57088
" />
<path d="M203370 56882
L203182 56882
L203163 57070
L203182 57051
L203220 57032
L203313 57032
L203351 57051
L203370 57070
L203388 57107
L203388 57201
L203370 57238
L203351 57257
L203313 57276
L203220 57276
L203182 57257
L203163 57238
" />
<path d="M228979 18182
L228979 18463
L228960 18520
L228923 18557
L228867 18576
L228829 18576
" />
<path d="M229167 18576
L229167 18182
L229317 18182
L229354 18201
L229373 18220
L229392 18257
L229392 18313
L229373 18351
L229354 18370
L229317 18388
L229167 18388
" />
<path d="M229523 18182
L229617 18576
L229692 18295
L229767 18576
L229860 18182
" />
<path d="M230235 18576
L230104 18388
" />
<path d="M230010 18576
L230010 18182
L230160 18182
L230198 18201
L230216 18220
L230235 18257
L230235 18313
L230216 18351
L230198 18370
L230160 18388
L230010 18388
" />
<path d="M230610 18576
L230385 18576
" />
<path d="M230498 18576
L230498 18182
L230460 18238
L230423 18276
L230385 18295
" />
<path d="M212892 46763
L212854 46745
L212817 46707
L212760 46651
L212723 46632
L212685 46632
" />
<path d="M212704 46726
L212667 46707
L212629 46670
L212610 46595
L212610 46463
L212629 46388
L212667 46351
L212704 46332
L212779 46332
L212817 46351
L212854 46388
L212873 46463
L212873 46595
L212854 46670
L212817 46707
L212779 46726
L212704 46726
" />
<path d="M212948 46763
L213248 46763
" />
<path d="M213342 46726
L213342 46332
L213567 46726
L213567 46332
" />
<path d="M213754 46520
L213885 46520
" />
<path d="M213942 46726
L213754 46726
L213754 46332
L213942 46332
" />
<path d="M214317 46351
L214279 46332
L214223 46332
L214167 46351
L214129 46388
L214110 46426
L214092 46501
L214092 46557
L214110 46632
L214129 46670
L214167 46707
L214223 46726
L214260 46726
L214317 46707
L214335 46688
L214335 46557
L214260 46557
" />
<path d="M214504 46726
L214504 46332
L214635 46613
L214766 46332
L214766 46726
" />
<path d="M215029 46332
L215104 46332
L215141 46351
L215179 46388
L215198 46463
L215198 46595
L215179 46670
L215141 46707
L215104 46726
L215029 46726
L214991 46707
L214954 46670
L214935 46595
L214935 46463
L214954 46388
L214991 46351
L215029 46332
" />
<path d="M215348 46707
L215404 46726
L215498 46726
L215535 46707
L215554 46688
L215573 46651
L215573 46613
L215554 46576
L215535 46557
L215498 46538
L215423 46520
L215385 46501
L215366 46482
L215348 46445
L215348 46407
L215366 46370
L215385 46351
L215423 46332
L215516 46332
L215573 46351
" />
<path d="M215948 46726
L215723 46726
" />
<path d="M215835 46726
L215835 46332
L215798 46388
L215760 46426
L215723 46445
" />
<path d="M213032 23513
L212995 23495
L212957 23457
L212901 23401
L212864 23382
L212826 23382
" />
<path d="M212845 23476
L212807 23457
L212770 23420
L212751 23345
L212751 23213
L212770 23138
L212807 23101
L212845 23082
L212920 23082
L212957 23101
L212995 23138
L213014 23213
L213014 23345
L212995 23420
L212957 23457
L212920 23476
L212845 23476
" />
<path d="M213089 23513
L213389 23513
" />
<path d="M213482 23476
L213482 23082
L213632 23082
L213670 23101
L213688 23120
L213707 23157
L213707 23213
L213688 23251
L213670 23270
L213632 23288
L213482 23288
" />
<path d="M213951 23082
L214026 23082
L214063 23101
L214101 23138
L214120 23213
L214120 23345
L214101 23420
L214063 23457
L214026 23476
L213951 23476
L213913 23457
L213876 23420
L213857 23345
L213857 23213
L213876 23138
L213913 23101
L213951 23082
" />
<path d="M214270 23457
L214326 23476
L214420 23476
L214457 23457
L214476 23438
L214495 23401
L214495 23363
L214476 23326
L214457 23307
L214420 23288
L214345 23270
L214307 23251
L214288 23232
L214270 23195
L214270 23157
L214288 23120
L214307 23101
L214345 23082
L214438 23082
L214495 23101
" />
<path d="M214663 23476
L214663 23082
L214795 23363
L214926 23082
L214926 23476
" />
<path d="M215188 23082
L215263 23082
L215301 23101
L215338 23138
L215357 23213
L215357 23345
L215338 23420
L215301 23457
L215263 23476
L215188 23476
L215151 23457
L215113 23420
L215095 23345
L215095 23213
L215113 23138
L215151 23101
L215188 23082
" />
<path d="M215507 23457
L215563 23476
L215657 23476
L215694 23457
L215713 23438
L215732 23401
L215732 23363
L215713 23326
L215694 23307
L215657 23288
L215582 23270
L215545 23251
L215526 23232
L215507 23195
L215507 23157
L215526 23120
L215545 23101
L215582 23082
L215676 23082
L215732 23101
" />
<path d="M216107 23476
L215882 23476
" />
<path d="M215994 23476
L215994 23082
L215957 23138
L215919 23176
L215882 23195
" />
<path d="M224032 17682
L224257 17682
" />
<path d="M224145 18076
L224145 17682
" />
<path d="M224388 18076
L224388 17682
L224538 17682
L224576 17701
L224595 17720
L224613 17757
L224613 17813
L224595 17851
L224576 17870
L224538 17888
L224388 17888
" />
<path d="M224988 18076
L224763 18076
" />
<path d="M224876 18076
L224876 17682
L224838 17738
L224801 17776
L224763 17795
" />
<path d="M224032 23082
L224257 23082
" />
<path d="M224145 23476
L224145 23082
" />
<path d="M224388 23476
L224388 23082
L224538 23082
L224576 23101
L224595 23120
L224613 23157
L224613 23213
L224595 23251
L224576 23270
L224538 23288
L224388 23288
" />
<path d="M224763 23120
L224782 23101
L224820 23082
L224913 23082
L224951 23101
L224970 23120
L224988 23157
L224988 23195
L224970 23251
L224745 23476
L224988 23476
" />
<path d="M198982 56882
L199207 56882
" />
<path d="M199095 57276
L199095 56882
" />
<path d="M199338 57276
L199338 56882
L199488 56882
L199526 56901
L199545 56920
L199563 56957
L199563 57013
L199545 57051
L199526 57070
L199488 57088
L199338 57088
" />
<path d="M199695 56882
L199938 56882
L199807 57032
L199863 57032
L199901 57051
L199920 57070
L199938 57107
L199938 57201
L199920 57238
L199901 57257
L199863 57276
L199751 57276
L199713 57257
L199695 57238
" />
<path d="M196282 17582
L196507 17582
" />
<path d="M196395 17976
L196395 17582
" />
<path d="M196638 17976
L196638 17582
L196788 17582
L196826 17601
L196845 17620
L196863 17657
L196863 17713
L196845 17751
L196826 17770
L196788 17788
L196638 17788
" />
<path d="M197201 17713
L197201 17976
" />
<path d="M197107 17563
L197013 17845
L197257 17845
" />
<path d="M206132 22332
L206357 22332
" />
<path d="M206245 22726
L206245 22332
" />
<path d="M206488 22726
L206488 22332
L206638 22332
L206676 22351
L206695 22370
L206713 22407
L206713 22463
L206695 22501
L206676 22520
L206638 22538
L206488 22538
" />
<path d="M206845 22332
L207107 22332
L206938 22726
" />
<path d="M214632 21382
L214857 21382
" />
<path d="M214745 21776
L214745 21382
" />
<path d="M214988 21776
L214988 21382
L215138 21382
L215176 21401
L215195 21420
L215213 21457
L215213 21513
L215195 21551
L215176 21570
L215138 21588
L214988 21588
" />
<path d="M215438 21551
L215401 21532
L215382 21513
L215363 21476
L215363 21457
L215382 21420
L215401 21401
L215438 21382
L215513 21382
L215551 21401
L215570 21420
L215588 21457
L215588 21476
L215570 21513
L215551 21532
L215513 21551
L215438 21551
L215401 21570
L215382 21588
L215363 21626
L215363 21701
L215382 21738
L215401 21757
L215438 21776
L215513 21776
L215551 21757
L215570 21738
L215588 21701
L215588 21626
L215570 21588
L215551 21570
L215513 21551
" />
<path d="M210732 45582
L210957 45582
" />
<path d="M210845 45976
L210845 45582
" />
<path d="M211088 45976
L211088 45582
L211238 45582
L211276 45601
L211295 45620
L211313 45657
L211313 45713
L211295 45751
L211276 45770
L211238 45788
L211088 45788
" />
<path d="M211501 45976
L211576 45976
L211613 45957
L211632 45938
L211670 45882
L211688 45807
L211688 45657
L211670 45620
L211651 45601
L211613 45582
L211538 45582
L211501 45601
L211482 45620
L211463 45657
L211463 45751
L211482 45788
L211501 45807
L211538 45826
L211613 45826
L211651 45807
L211670 45788
L211688 45751
" />
<path d="M198595 49082
L198820 49082
" />
<path d="M198707 49476
L198707 49082
" />
<path d="M198951 49476
L198951 49082
L199101 49082
L199138 49101
L199157 49120
L199176 49157
L199176 49213
L199157 49251
L199138 49270
L199101 49288
L198951 49288
" />
<path d="M199551 49476
L199326 49476
" />
<path d="M199438 49476
L199438 49082
L199401 49138
L199363 49176
L199326 49195
" />
<path d="M199795 49082
L199832 49082
L199870 49101
L199888 49120
L199907 49157
L199926 49232
L199926 49326
L199907 49401
L199888 49438
L199870 49457
L199832 49476
L199795 49476
L199757 49457
L199738 49438
L199720 49401
L199701 49326
L199701 49232
L199720 49157
L199738 49120
L199757 49101
L199795 49082
" />
<path d="M207795 13132
L208020 13132
" />
<path d="M207907 13526
L207907 13132
" />
<path d="M208151 13526
L208151 13132
L208301 13132
L208338 13151
L208357 13170
L208376 13207
L208376 13263
L208357 13301
L208338 13320
L208301 13338
L208151 13338
" />
<path d="M208751 13526
L208526 13526
" />
<path d="M208638 13526
L208638 13132
L208601 13188
L208563 13226
L208526 13245
" />
<path d="M209126 13526
L208901 13526
" />
<path d="M209013 13526
L209013 13132
L208976 13188
L208938 13226
L208901 13245
" />
<path d="M208695 51182
L208920 51182
" />
<path d="M208807 51576
L208807 51182
" />
<path d="M209051 51576
L209051 51182
L209201 51182
L209238 51201
L209257 51220
L209276 51257
L209276 51313
L209257 51351
L209238 51370
L209201 51388
L209051 51388
" />
<path d="M209651 51576
L209426 51576
" />
<path d="M209538 51576
L209538 51182
L209501 51238
L209463 51276
L209426 51295
" />
<path d="M209801 51220
L209820 51201
L209857 51182
L209951 51182
L209988 51201
L210007 51220
L210026 51257
L210026 51295
L210007 51351
L209782 51576
L210026 51576
" />
<path d="M220445 18232
L220670 18232
" />
<path d="M220557 18626
L220557 18232
" />
<path d="M220801 18626
L220801 18232
L220951 18232
L220988 18251
L221007 18270
L221026 18307
L221026 18363
L221007 18401
L220988 18420
L220951 18438
L220801 18438
" />
<path d="M221401 18626
L221176 18626
" />
<path d="M221288 18626
L221288 18232
L221251 18288
L221213 18326
L221176 18345
" />
<path d="M221532 18232
L221776 18232
L221645 18382
L221701 18382
L221738 18401
L221757 18420
L221776 18457
L221776 18551
L221757 18588
L221738 18607
L221701 18626
L221588 18626
L221551 18607
L221532 18588
" />
<path d="M218095 54332
L218320 54332
" />
<path d="M218207 54726
L218207 54332
" />
<path d="M218451 54726
L218451 54332
L218601 54332
L218638 54351
L218657 54370
L218676 54407
L218676 54463
L218657 54501
L218638 54520
L218601 54538
L218451 54538
" />
<path d="M219051 54726
L218826 54726
" />
<path d="M218938 54726
L218938 54332
L218901 54388
L218863 54426
L218826 54445
" />
<path d="M219388 54463
L219388 54726
" />
<path d="M219295 54313
L219201 54595
L219445 54595
" />
<path d="M199642 10751
L199604 10732
L199548 10732
L199492 10751
L199454 10788
L199435 10826
L199417 10901
L199417 10957
L199435 11032
L199454 11070
L199492 11107
L199548 11126
L199585 11126
L199642 11107
L199660 11088
L199660 10957
L199585 10957
" />
<path d="M199829 11126
L199829 10732
L200054 11126
L200054 10732
" />
<path d="M200242 11126
L200242 10732
L200335 10732
L200391 10751
L200429 10788
L200448 10826
L200466 10901
L200466 10957
L200448 11032
L200429 11070
L200391 11107
L200335 11126
L200242 11126
" />
<path d="M200841 11126
L200616 11126
" />
<path d="M200729 11126
L200729 10732
L200691 10788
L200654 10826
L200616 10845
" />
<path d="M202642 61901
L202604 61882
L202548 61882
L202492 61901
L202454 61938
L202435 61976
L202417 62051
L202417 62107
L202435 62182
L202454 62220
L202492 62257
L202548 62276
L202585 62276
L202642 62257
L202660 62238
L202660 62107
L202585 62107
" />
<path d="M202829 62276
L202829 61882
L203054 62276
L203054 61882
" />
<path d="M203242 62276
L203242 61882
L203335 61882
L203391 61901
L203429 61938
L203448 61976
L203466 62051
L203466 62107
L203448 62182
L203429 62220
L203391 62257
L203335 62276
L203242 62276
" />
<path d="M203616 61920
L203635 61901
L203673 61882
L203766 61882
L203804 61901
L203823 61920
L203841 61957
L203841 61995
L203823 62051
L203598 62276
L203841 62276
" />
<path d="M216842 10451
L216804 10432
L216748 10432
L216692 10451
L216654 10488
L216635 10526
L216617 10601
L216617 10657
L216635 10732
L216654 10770
L216692 10807
L216748 10826
L216785 10826
L216842 10807
L216860 10788
L216860 10657
L216785 10657
" />
<path d="M217029 10826
L217029 10432
L217254 10826
L217254 10432
" />
<path d="M217442 10826
L217442 10432
L217535 10432
L217591 10451
L217629 10488
L217648 10526
L217666 10601
L217666 10657
L217648 10732
L217629 10770
L217591 10807
L217535 10826
L217442 10826
" />
<path d="M217798 10432
L218041 10432
L217910 10582
L217966 10582
L218004 10601
L218023 10620
L218041 10657
L218041 10751
L218023 10788
L218004 10807
L217966 10826
L217854 10826
L217816 10807
L217798 10788
" />
<path d="M199642 61451
L199604 61432
L199548 61432
L199492 61451
L199454 61488
L199435 61526
L199417 61601
L199417 61657
L199435 61732
L199454 61770
L199492 61807
L199548 61826
L199585 61826
L199642 61807
L199660 61788
L199660 61657
L199585 61657
" />
<path d="M199829 61826
L199829 61432
L200054 61826
L200054 61432
" />
<path d="M200242 61826
L200242 61432
L200335 61432
L200391 61451
L200429 61488
L200448 61526
L200466 61601
L200466 61657
L200448 61732
L200429 61770
L200391 61807
L200335 61826
L200242 61826
" />
<path d="M200804 61563
L200804 61826
" />
<path d="M200710 61413
L200616 61695
L200860 61695
" />
<path d="M206242 9551
L206204 9532
L206148 9532
L206092 9551
L206054 9588
L206035 9626
L206017 9701
L206017 9757
L206035 9832
L206054 9870
L206092 9907
L206148 9926
L206185 9926
L206242 9907
L206260 9888
L206260 9757
L206185 9757
" />
<path d="M206429 9926
L206429 9532
L206654 9926
L206654 9532
" />
<path d="M206842 9926
L206842 9532
L206935 9532
L206991 9551
L207029 9588
L207048 9626
L207066 9701
L207066 9757
L207048 9832
L207029 9870
L206991 9907
L206935 9926
L206842 9926
" />
<path d="M207423 9532
L207235 9532
L207216 9720
L207235 9701
L207273 9682
L207366 9682
L207404 9701
L207423 9720
L207441 9757
L207441 9851
L207423 9888
L207404 9907
L207366 9926
L207273 9926
L207235 9907
L207216 9888
" />
<path d="M205042 61301
L205004 61282
L204948 61282
L204892 61301
L204854 61338
L204835 61376
L204817 61451
L204817 61507
L204835 61582
L204854 61620
L204892 61657
L204948 61676
L204985 61676
L205042 61657
L205060 61638
L205060 61507
L204985 61507
" />
<path d="M205229 61676
L205229 61282
L205454 61676
L205454 61282
" />
<path d="M205642 61676
L205642 61282
L205735 61282
L205791 61301
L205829 61338
L205848 61376
L205866 61451
L205866 61507
L205848 61582
L205829 61620
L205791 61657
L205735 61676
L205642 61676
" />
<path d="M206204 61282
L206129 61282
L206091 61301
L206073 61320
L206035 61376
L206016 61451
L206016 61601
L206035 61638
L206054 61657
L206091 61676
L206166 61676
L206204 61657
L206223 61638
L206241 61601
L206241 61507
L206223 61470
L206204 61451
L206166 61432
L206091 61432
L206054 61451
L206035 61470
L206016 61507
" />
<path d="M203729 51582
L203729 51901
L203748 51938
L203767 51957
L203804 51976
L203879 51976
L203917 51957
L203935 51938
L203954 51901
L203954 51582
" />
<path d="M204348 51976
L204123 51976
" />
<path d="M204235 51976
L204235 51582
L204198 51638
L204160 51676
L204123 51695
" />
<path d="M201279 19382
L201279 19701
L201298 19738
L201317 19757
L201354 19776
L201429 19776
L201467 19757
L201485 19738
L201504 19701
L201504 19382
" />
<path d="M201673 19420
L201692 19401
L201729 19382
L201823 19382
L201860 19401
L201879 19420
L201898 19457
L201898 19495
L201879 19551
L201654 19776
L201898 19776
" />
<path d="M216279 12732
L216279 13051
L216298 13088
L216317 13107
L216354 13126
L216429 13126
L216467 13107
L216485 13088
L216504 13051
L216504 12732
" />
<path d="M216654 12732
L216898 12732
L216767 12882
L216823 12882
L216860 12901
L216879 12920
L216898 12957
L216898 13051
L216879 13088
L216860 13107
L216823 13126
L216710 13126
L216673 13107
L216654 13088
" />
<path d="M212829 53482
L212829 53801
L212848 53838
L212867 53857
L212904 53876
L212979 53876
L213017 53857
L213035 53838
L213054 53801
L213054 53482
" />
<path d="M213410 53613
L213410 53876
" />
<path d="M213317 53463
L213223 53745
L213466 53745
" />
<path d="M205235 47332
L205235 47651
L205254 47688
L205273 47707
L205310 47726
L205385 47726
L205423 47707
L205442 47688
L205460 47651
L205460 47332
" />
<path d="M205554 47763
L205854 47763
" />
<path d="M205948 47726
L205948 47332
L206173 47726
L206173 47332
" />
<path d="M206360 47520
L206492 47520
" />
<path d="M206548 47726
L206360 47726
L206360 47332
L206548 47332
" />
<path d="M206923 47351
L206885 47332
L206829 47332
L206773 47351
L206735 47388
L206717 47426
L206698 47501
L206698 47557
L206717 47632
L206735 47670
L206773 47707
L206829 47726
L206866 47726
L206923 47707
L206941 47688
L206941 47557
L206866 47557
" />
<path d="M207110 47726
L207110 47332
" />
<path d="M207279 47613
L207466 47613
" />
<path d="M207241 47726
L207373 47332
L207504 47726
" />
<path d="M207841 47726
L207616 47726
" />
<path d="M207729 47726
L207729 47332
L207691 47388
L207654 47426
L207616 47445
" />
<path d="M207526 16282
L207526 16601
L207545 16638
L207564 16657
L207601 16676
L207676 16676
L207714 16657
L207732 16638
L207751 16601
L207751 16282
" />
<path d="M207845 16713
L208145 16713
" />
<path d="M208238 16676
L208238 16282
L208388 16282
L208426 16301
L208445 16320
L208463 16357
L208463 16413
L208445 16451
L208426 16470
L208388 16488
L208238 16488
" />
<path d="M208707 16282
L208782 16282
L208820 16301
L208857 16338
L208876 16413
L208876 16545
L208857 16620
L208820 16657
L208782 16676
L208707 16676
L208670 16657
L208632 16620
L208613 16545
L208613 16413
L208632 16338
L208670 16301
L208707 16282
" />
<path d="M209026 16657
L209082 16676
L209176 16676
L209213 16657
L209232 16638
L209251 16601
L209251 16563
L209232 16526
L209213 16507
L209176 16488
L209101 16470
L209063 16451
L209045 16432
L209026 16395
L209026 16357
L209045 16320
L209063 16301
L209101 16282
L209195 16282
L209251 16301
" />
<path d="M209420 16676
L209420 16282
" />
<path d="M209588 16563
L209776 16563
" />
<path d="M209551 16676
L209682 16282
L209813 16676
" />
<path d="M210151 16676
L209926 16676
" />
<path d="M210038 16676
L210038 16282
L210001 16338
L209963 16376
L209926 16395
" />
<path d="M171692 23426
L171692 23032
" />
<path d="M171692 23220
L171917 23220
" />
<path d="M171917 23426
L171917 23032
" />
<path d="M172085 23407
L172142 23426
L172235 23426
L172273 23407
L172292 23388
L172310 23351
L172310 23313
L172292 23276
L172273 23257
L172235 23238
L172160 23220
L172123 23201
L172104 23182
L172085 23145
L172085 23107
L172104 23070
L172123 23051
L172160 23032
L172254 23032
L172310 23051
" />
<path d="M172685 23426
L172460 23426
" />
<path d="M172573 23426
L172573 23032
L172535 23088
L172498 23126
L172460 23145
" />
<path d="M158792 34591
L158529 34591
" />
<path d="M158529 35004
L158529 34217
L158904 34217
" />
<path d="M159167 34779
L159542 34779
" />
<path d="M159092 35004
L159354 34217
L159617 35004
" />
<path d="M159879 35004
L159879 34217
L160329 35004
L160329 34217
" />
<path d="M218242 36876
L218242 36482
" />
<path d="M218242 36670
L218467 36670
" />
<path d="M218467 36876
L218467 36482
" />
<path d="M218635 36857
L218692 36876
L218785 36876
L218823 36857
L218842 36838
L218860 36801
L218860 36763
L218842 36726
L218823 36707
L218785 36688
L218710 36670
L218673 36651
L218654 36632
L218635 36595
L218635 36557
L218654 36520
L218673 36501
L218710 36482
L218804 36482
L218860 36501
" />
<path d="M219010 36520
L219029 36501
L219066 36482
L219160 36482
L219198 36501
L219216 36520
L219235 36557
L219235 36595
L219216 36651
L218991 36876
L219235 36876
" />
<path d="M207442 61501
L207404 61482
L207348 61482
L207292 61501
L207254 61538
L207235 61576
L207217 61651
L207217 61707
L207235 61782
L207254 61820
L207292 61857
L207348 61876
L207385 61876
L207442 61857
L207460 61838
L207460 61707
L207385 61707
" />
<path d="M207629 61876
L207629 61482
L207854 61876
L207854 61482
" />
<path d="M208042 61876
L208042 61482
L208135 61482
L208191 61501
L208229 61538
L208248 61576
L208266 61651
L208266 61707
L208248 61782
L208229 61820
L208191 61857
L208135 61876
L208042 61876
" />
<path d="M208398 61482
L208660 61482
L208491 61876
" />
<path d="M215242 62701
L215204 62682
L215148 62682
L215092 62701
L215054 62738
L215035 62776
L215017 62851
L215017 62907
L215035 62982
L215054 63020
L215092 63057
L215148 63076
L215185 63076
L215242 63057
L215260 63038
L215260 62907
L215185 62907
" />
<path d="M215429 63076
L215429 62682
L215654 63076
L215654 62682
" />
<path d="M215842 63076
L215842 62682
L215935 62682
L215991 62701
L216029 62738
L216048 62776
L216066 62851
L216066 62907
L216048 62982
L216029 63020
L215991 63057
L215935 63076
L215842 63076
" />
<path d="M216291 62851
L216254 62832
L216235 62813
L216216 62776
L216216 62757
L216235 62720
L216254 62701
L216291 62682
L216366 62682
L216404 62701
L216423 62720
L216441 62757
L216441 62776
L216423 62813
L216404 62832
L216366 62851
L216291 62851
L216254 62870
L216235 62888
L216216 62926
L216216 63001
L216235 63038
L216254 63057
L216291 63076
L216366 63076
L216404 63057
L216423 63038
L216441 63001
L216441 62926
L216423 62888
L216404 62870
L216366 62851
" />
<path d="M204963 55238
L204945 55257
L204888 55276
L204851 55276
L204795 55257
L204757 55220
L204738 55182
L204720 55107
L204720 55051
L204738 54976
L204757 54938
L204795 54901
L204851 54882
L204888 54882
L204945 54901
L204963 54920
" />
<path d="M205338 55276
L205113 55276
" />
<path d="M205226 55276
L205226 54882
L205188 54938
L205151 54976
L205113 54995
" />
<path d="M202363 14388
L202345 14407
L202288 14426
L202251 14426
L202195 14407
L202157 14370
L202138 14332
L202120 14257
L202120 14201
L202138 14126
L202157 14088
L202195 14051
L202251 14032
L202288 14032
L202345 14051
L202363 14070
" />
<path d="M202513 14070
L202532 14051
L202570 14032
L202663 14032
L202701 14051
L202720 14070
L202738 14107
L202738 14145
L202720 14201
L202495 14426
L202738 14426
" />
<path d="M201213 55194
L201195 55213
L201138 55232
L201101 55232
L201045 55213
L201007 55176
L200988 55138
L200970 55063
L200970 55007
L200988 54932
L201007 54894
L201045 54857
L201101 54838
L201138 54838
L201195 54857
L201213 54876
" />
<path d="M201345 54838
L201588 54838
L201457 54988
L201513 54988
L201551 55007
L201570 55026
L201588 55063
L201588 55157
L201570 55194
L201551 55213
L201513 55232
L201401 55232
L201363 55213
L201345 55194
" />
<path d="M199463 13713
L199445 13732
L199388 13751
L199351 13751
L199295 13732
L199257 13695
L199238 13657
L199220 13582
L199220 13526
L199238 13451
L199257 13413
L199295 13376
L199351 13357
L199388 13357
L199445 13376
L199463 13395
" />
<path d="M199801 13488
L199801 13751
" />
<path d="M199707 13338
L199613 13620
L199857 13620
" />
<path d="M211476 20688
L211457 20707
L211401 20726
L211363 20726
L211307 20707
L211270 20670
L211251 20632
L211232 20557
L211232 20501
L211251 20426
L211270 20388
L211307 20351
L211363 20332
L211401 20332
L211457 20351
L211476 20370
" />
<path d="M211851 20726
L211626 20726
" />
<path d="M211738 20726
L211738 20332
L211701 20388
L211663 20426
L211626 20445
" />
<path d="M211982 20332
L212226 20332
L212095 20482
L212151 20482
L212188 20501
L212207 20520
L212226 20557
L212226 20651
L212207 20688
L212188 20707
L212151 20726
L212038 20726
L212001 20707
L211982 20688
" />
<path d="M206076 45938
L206057 45957
L206001 45976
L205963 45976
L205907 45957
L205870 45920
L205851 45882
L205832 45807
L205832 45751
L205851 45676
L205870 45638
L205907 45601
L205963 45582
L206001 45582
L206057 45601
L206076 45620
" />
<path d="M206451 45976
L206226 45976
" />
<path d="M206338 45976
L206338 45582
L206301 45638
L206263 45676
L206226 45695
" />
<path d="M206788 45713
L206788 45976
" />
<path d="M206695 45563
L206601 45845
L206845 45845
" />
<path d="M209026 20638
L209007 20657
L208951 20676
L208913 20676
L208857 20657
L208820 20620
L208801 20582
L208782 20507
L208782 20451
L208801 20376
L208820 20338
L208857 20301
L208913 20282
L208951 20282
L209007 20301
L209026 20320
" />
<path d="M209401 20676
L209176 20676
" />
<path d="M209288 20676
L209288 20282
L209251 20338
L209213 20376
L209176 20395
" />
<path d="M209757 20282
L209570 20282
L209551 20470
L209570 20451
L209607 20432
L209701 20432
L209738 20451
L209757 20470
L209776 20507
L209776 20601
L209757 20638
L209738 20657
L209701 20676
L209607 20676
L209570 20657
L209551 20638
" />
<path d="M207926 45938
L207907 45957
L207851 45976
L207813 45976
L207757 45957
L207720 45920
L207701 45882
L207682 45807
L207682 45751
L207701 45676
L207720 45638
L207757 45601
L207813 45582
L207851 45582
L207907 45601
L207926 45620
" />
<path d="M208301 45976
L208076 45976
" />
<path d="M208188 45976
L208188 45582
L208151 45638
L208113 45676
L208076 45695
" />
<path d="M208638 45582
L208563 45582
L208526 45601
L208507 45620
L208470 45676
L208451 45751
L208451 45901
L208470 45938
L208488 45957
L208526 45976
L208601 45976
L208638 45957
L208657 45938
L208676 45901
L208676 45807
L208657 45770
L208638 45751
L208601 45732
L208526 45732
L208488 45751
L208470 45770
L208451 45807
" />
<path d="M210276 18988
L210257 19007
L210201 19026
L210163 19026
L210107 19007
L210070 18970
L210051 18932
L210032 18857
L210032 18801
L210051 18726
L210070 18688
L210107 18651
L210163 18632
L210201 18632
L210257 18651
L210276 18670
" />
<path d="M210651 19026
L210426 19026
" />
<path d="M210538 19026
L210538 18632
L210501 18688
L210463 18726
L210426 18745
" />
<path d="M210782 18632
L211045 18632
L210876 19026
" />
<path d="M203776 45938
L203757 45957
L203701 45976
L203663 45976
L203607 45957
L203570 45920
L203551 45882
L203532 45807
L203532 45751
L203551 45676
L203570 45638
L203607 45601
L203663 45582
L203701 45582
L203757 45601
L203776 45620
" />
<path d="M204151 45976
L203926 45976
" />
<path d="M204038 45976
L204038 45582
L204001 45638
L203963 45676
L203926 45695
" />
<path d="M204376 45751
L204338 45732
L204320 45713
L204301 45676
L204301 45657
L204320 45620
L204338 45601
L204376 45582
L204451 45582
L204488 45601
L204507 45620
L204526 45657
L204526 45676
L204507 45713
L204488 45732
L204451 45751
L204376 45751
L204338 45770
L204320 45788
L204301 45826
L204301 45901
L204320 45938
L204338 45957
L204376 45976
L204451 45976
L204488 45957
L204507 45938
L204526 45901
L204526 45826
L204507 45788
L204488 45770
L204451 45751
" />
<path d="M197713 54676
L197582 54488
" />
<path d="M197488 54676
L197488 54282
L197638 54282
L197676 54301
L197695 54320
L197713 54357
L197713 54413
L197695 54451
L197676 54470
L197638 54488
L197488 54488
" />
<path d="M198088 54676
L197863 54676
" />
<path d="M197976 54676
L197976 54282
L197938 54338
L197901 54376
L197863 54395
" />
<path d="M198363 15376
L198232 15188
" />
<path d="M198138 15376
L198138 14982
L198288 14982
L198326 15001
L198345 15020
L198363 15057
L198363 15113
L198345 15151
L198326 15170
L198288 15188
L198138 15188
" />
<path d="M198513 15020
L198532 15001
L198570 14982
L198663 14982
L198701 15001
L198720 15020
L198738 15057
L198738 15095
L198720 15151
L198495 15376
L198738 15376
" />
<path d="M202463 55226
L202332 55038
" />
<path d="M202238 55226
L202238 54832
L202388 54832
L202426 54851
L202445 54870
L202463 54907
L202463 54963
L202445 55001
L202426 55020
L202388 55038
L202238 55038
" />
<path d="M202595 54832
L202838 54832
L202707 54982
L202763 54982
L202801 55001
L202820 55020
L202838 55057
L202838 55151
L202820 55188
L202801 55207
L202763 55226
L202651 55226
L202613 55207
L202595 55188
" />
<path d="M199463 17226
L199332 17038
" />
<path d="M199238 17226
L199238 16832
L199388 16832
L199426 16851
L199445 16870
L199463 16907
L199463 16963
L199445 17001
L199426 17020
L199388 17038
L199238 17038
" />
<path d="M199801 16963
L199801 17226
" />
<path d="M199707 16813
L199613 17095
L199857 17095
" />
<path d="M198213 53801
L198082 53613
" />
<path d="M197988 53801
L197988 53407
L198138 53407
L198176 53426
L198195 53445
L198213 53482
L198213 53538
L198195 53576
L198176 53595
L198138 53613
L197988 53613
" />
<path d="M198570 53407
L198382 53407
L198363 53595
L198382 53576
L198420 53557
L198513 53557
L198551 53576
L198570 53595
L198588 53632
L198588 53726
L198570 53763
L198551 53782
L198513 53801
L198420 53801
L198382 53782
L198363 53763
" />
<path d="M198213 53076
L198082 52888
" />
<path d="M197988 53076
L197988 52682
L198138 52682
L198176 52701
L198195 52720
L198213 52757
L198213 52813
L198195 52851
L198176 52870
L198138 52888
L197988 52888
" />
<path d="M198551 52682
L198476 52682
L198438 52701
L198420 52720
L198382 52776
L198363 52851
L198363 53001
L198382 53038
L198401 53057
L198438 53076
L198513 53076
L198551 53057
L198570 53038
L198588 53001
L198588 52907
L198570 52870
L198551 52851
L198513 52832
L198438 52832
L198401 52851
L198382 52870
L198363 52907
" />
<path d="M204713 14426
L204582 14238
" />
<path d="M204488 14426
L204488 14032
L204638 14032
L204676 14051
L204695 14070
L204713 14107
L204713 14163
L204695 14201
L204676 14220
L204638 14238
L204488 14238
" />
<path d="M204845 14032
L205107 14032
L204938 14426
" />
<path d="M203713 14426
L203582 14238
" />
<path d="M203488 14426
L203488 14032
L203638 14032
L203676 14051
L203695 14070
L203713 14107
L203713 14163
L203695 14201
L203676 14220
L203638 14238
L203488 14238
" />
<path d="M203938 14201
L203901 14182
L203882 14163
L203863 14126
L203863 14107
L203882 14070
L203901 14051
L203938 14032
L204013 14032
L204051 14051
L204070 14070
L204088 14107
L204088 14126
L204070 14163
L204051 14182
L204013 14201
L203938 14201
L203901 14220
L203882 14238
L203863 14276
L203863 14351
L203882 14388
L203901 14407
L203938 14426
L204013 14426
L204051 14407
L204070 14388
L204088 14351
L204088 14276
L204070 14238
L204051 14220
L204013 14201
" />
<path d="M207763 18876
L207632 18688
" />
<path d="M207538 18876
L207538 18482
L207688 18482
L207726 18501
L207745 18520
L207763 18557
L207763 18613
L207745 18651
L207726 18670
L207688 18688
L207538 18688
" />
<path d="M207951 18876
L208026 18876
L208063 18857
L208082 18838
L208120 18782
L208138 18707
L208138 18557
L208120 18520
L208101 18501
L208063 18482
L207988 18482
L207951 18501
L207932 18520
L207913 18557
L207913 18651
L207932 18688
L207951 18707
L207988 18726
L208063 18726
L208101 18707
L208120 18688
L208138 18651
" />
<path d="M213176 18926
L213045 18738
" />
<path d="M212951 18926
L212951 18532
L213101 18532
L213138 18551
L213157 18570
L213176 18607
L213176 18663
L213157 18701
L213138 18720
L213101 18738
L212951 18738
" />
<path d="M213551 18926
L213326 18926
" />
<path d="M213438 18926
L213438 18532
L213401 18588
L213363 18626
L213326 18645
" />
<path d="M213795 18532
L213832 18532
L213870 18551
L213888 18570
L213907 18607
L213926 18682
L213926 18776
L213907 18851
L213888 18888
L213870 18907
L213832 18926
L213795 18926
L213757 18907
L213738 18888
L213720 18851
L213701 18776
L213701 18682
L213720 18607
L213738 18570
L213757 18551
L213795 18532
" />
<path d="M209551 45976
L209420 45788
" />
<path d="M209326 45976
L209326 45582
L209476 45582
L209513 45601
L209532 45620
L209551 45657
L209551 45713
L209532 45751
L209513 45770
L209476 45788
L209326 45788
" />
<path d="M209926 45976
L209701 45976
" />
<path d="M209813 45976
L209813 45582
L209776 45638
L209738 45676
L209701 45695
" />
<path d="M210301 45976
L210076 45976
" />
<path d="M210188 45976
L210188 45582
L210151 45638
L210113 45676
L210076 45695
" />
<path d="M202026 45976
L201895 45788
" />
<path d="M201801 45976
L201801 45582
L201951 45582
L201988 45601
L202007 45620
L202026 45657
L202026 45713
L202007 45751
L201988 45770
L201951 45788
L201801 45788
" />
<path d="M202401 45976
L202176 45976
" />
<path d="M202288 45976
L202288 45582
L202251 45638
L202213 45676
L202176 45695
" />
<path d="M202551 45620
L202570 45601
L202607 45582
L202701 45582
L202738 45601
L202757 45620
L202776 45657
L202776 45695
L202757 45751
L202532 45976
L202776 45976
" />
<path d="M208876 57226
L208745 57038
" />
<path d="M208651 57226
L208651 56832
L208801 56832
L208838 56851
L208857 56870
L208876 56907
L208876 56963
L208857 57001
L208838 57020
L208801 57038
L208651 57038
" />
<path d="M209251 57226
L209026 57226
" />
<path d="M209138 57226
L209138 56832
L209101 56888
L209063 56926
L209026 56945
" />
<path d="M209382 56832
L209626 56832
L209495 56982
L209551 56982
L209588 57001
L209607 57020
L209626 57057
L209626 57151
L209607 57188
L209588 57207
L209551 57226
L209438 57226
L209401 57207
L209382 57188
" />
<path d="M213126 13876
L212995 13688
" />
<path d="M212901 13876
L212901 13482
L213051 13482
L213088 13501
L213107 13520
L213126 13557
L213126 13613
L213107 13651
L213088 13670
L213051 13688
L212901 13688
" />
<path d="M213501 13876
L213276 13876
" />
<path d="M213388 13876
L213388 13482
L213351 13538
L213313 13576
L213276 13595
" />
<path d="M213838 13613
L213838 13876
" />
<path d="M213745 13463
L213651 13745
L213895 13745
" />
<path d="M213126 13176
L212995 12988
" />
<path d="M212901 13176
L212901 12782
L213051 12782
L213088 12801
L213107 12820
L213126 12857
L213126 12913
L213107 12951
L213088 12970
L213051 12988
L212901 12988
" />
<path d="M213501 13176
L213276 13176
" />
<path d="M213388 13176
L213388 12782
L213351 12838
L213313 12876
L213276 12895
" />
<path d="M213857 12782
L213670 12782
L213651 12970
L213670 12951
L213707 12932
L213801 12932
L213838 12951
L213857 12970
L213876 13007
L213876 13101
L213857 13138
L213838 13157
L213801 13176
L213707 13176
L213670 13157
L213651 13138
" />
<path d="M211376 57226
L211245 57038
" />
<path d="M211151 57226
L211151 56832
L211301 56832
L211338 56851
L211357 56870
L211376 56907
L211376 56963
L211357 57001
L211338 57020
L211301 57038
L211151 57038
" />
<path d="M211751 57226
L211526 57226
" />
<path d="M211638 57226
L211638 56832
L211601 56888
L211563 56926
L211526 56945
" />
<path d="M212088 56832
L212013 56832
L211976 56851
L211957 56870
L211920 56926
L211901 57001
L211901 57151
L211920 57188
L211938 57207
L211976 57226
L212051 57226
L212088 57207
L212107 57188
L212126 57151
L212126 57057
L212107 57020
L212088 57001
L212051 56982
L211976 56982
L211938 57001
L211920 57020
L211901 57057
" />
<path d="M203526 55276
L203395 55088
" />
<path d="M203301 55276
L203301 54882
L203451 54882
L203488 54901
L203507 54920
L203526 54957
L203526 55013
L203507 55051
L203488 55070
L203451 55088
L203301 55088
" />
<path d="M203901 55276
L203676 55276
" />
<path d="M203788 55276
L203788 54882
L203751 54938
L203713 54976
L203676 54995
" />
<path d="M204032 54882
L204295 54882
L204126 55276
" />
<path d="M202126 17276
L201995 17088
" />
<path d="M201901 17276
L201901 16882
L202051 16882
L202088 16901
L202107 16920
L202126 16957
L202126 17013
L202107 17051
L202088 17070
L202051 17088
L201901 17088
" />
<path d="M202501 17276
L202276 17276
" />
<path d="M202388 17276
L202388 16882
L202351 16938
L202313 16976
L202276 16995
" />
<path d="M202726 17051
L202688 17032
L202670 17013
L202651 16976
L202651 16957
L202670 16920
L202688 16901
L202726 16882
L202801 16882
L202838 16901
L202857 16920
L202876 16957
L202876 16976
L202857 17013
L202838 17032
L202801 17051
L202726 17051
L202688 17070
L202670 17088
L202651 17126
L202651 17201
L202670 17238
L202688 17257
L202726 17276
L202801 17276
L202838 17257
L202857 17238
L202876 17201
L202876 17126
L202857 17088
L202838 17070
L202801 17051
" />
<path d="M197526 52276
L197395 52088
" />
<path d="M197301 52276
L197301 51882
L197451 51882
L197488 51901
L197507 51920
L197526 51957
L197526 52013
L197507 52051
L197488 52070
L197451 52088
L197301 52088
" />
<path d="M197901 52276
L197676 52276
" />
<path d="M197788 52276
L197788 51882
L197751 51938
L197713 51976
L197676 51995
" />
<path d="M198088 52276
L198163 52276
L198201 52257
L198220 52238
L198257 52182
L198276 52107
L198276 51957
L198257 51920
L198238 51901
L198201 51882
L198126 51882
L198088 51901
L198070 51920
L198051 51957
L198051 52051
L198070 52088
L198088 52107
L198126 52126
L198201 52126
L198238 52107
L198257 52088
L198276 52051
" />
<path d="M203676 17276
L203545 17088
" />
<path d="M203451 17276
L203451 16882
L203601 16882
L203638 16901
L203657 16920
L203676 16957
L203676 17013
L203657 17051
L203638 17070
L203601 17088
L203451 17088
" />
<path d="M203826 16920
L203845 16901
L203882 16882
L203976 16882
L204013 16901
L204032 16920
L204051 16957
L204051 16995
L204032 17051
L203807 17276
L204051 17276
" />
<path d="M204295 16882
L204332 16882
L204370 16901
L204388 16920
L204407 16957
L204426 17032
L204426 17126
L204407 17201
L204388 17238
L204370 17257
L204332 17276
L204295 17276
L204257 17257
L204238 17238
L204220 17201
L204201 17126
L204201 17032
L204220 16957
L204238 16920
L204257 16901
L204295 16882
" />
<path d="M211376 50676
L211245 50488
" />
<path d="M211151 50676
L211151 50282
L211301 50282
L211338 50301
L211357 50320
L211376 50357
L211376 50413
L211357 50451
L211338 50470
L211301 50488
L211151 50488
" />
<path d="M211526 50320
L211545 50301
L211582 50282
L211676 50282
L211713 50301
L211732 50320
L211751 50357
L211751 50395
L211732 50451
L211507 50676
L211751 50676
" />
<path d="M211901 50320
L211920 50301
L211957 50282
L212051 50282
L212088 50301
L212107 50320
L212126 50357
L212126 50395
L212107 50451
L211882 50676
L212126 50676
" />
<path d="M215876 16476
L215745 16288
" />
<path d="M215651 16476
L215651 16082
L215801 16082
L215838 16101
L215857 16120
L215876 16157
L215876 16213
L215857 16251
L215838 16270
L215801 16288
L215651 16288
" />
<path d="M216026 16120
L216045 16101
L216082 16082
L216176 16082
L216213 16101
L216232 16120
L216251 16157
L216251 16195
L216232 16251
L216007 16476
L216251 16476
" />
<path d="M216382 16082
L216626 16082
L216495 16232
L216551 16232
L216588 16251
L216607 16270
L216626 16307
L216626 16401
L216607 16438
L216588 16457
L216551 16476
L216438 16476
L216401 16457
L216382 16438
" />
<path d="M226438 23476
L226438 23082
L226532 23082
L226588 23101
L226626 23138
L226645 23176
L226663 23251
L226663 23307
L226645 23382
L226626 23420
L226588 23457
L226532 23476
L226438 23476
" />
<path d="M227038 23476
L226813 23476
" />
<path d="M226926 23476
L226926 23082
L226888 23138
L226851 23176
L226813 23195
" />
<path d="M226488 18076
L226488 17682
L226582 17682
L226638 17701
L226676 17738
L226695 17776
L226713 17851
L226713 17907
L226695 17982
L226676 18020
L226638 18057
L226582 18076
L226488 18076
" />
<path d="M226863 17720
L226882 17701
L226920 17682
L227013 17682
L227051 17701
L227070 17720
L227088 17757
L227088 17795
L227070 17851
L226845 18076
L227088 18076
" />
<path d="M219192 10401
L219154 10382
L219098 10382
L219042 10401
L219004 10438
L218985 10476
L218967 10551
L218967 10607
L218985 10682
L219004 10720
L219042 10757
L219098 10776
L219135 10776
L219192 10757
L219210 10738
L219210 10607
L219135 10607
" />
<path d="M219379 10776
L219379 10382
L219604 10776
L219604 10382
" />
<path d="M219792 10776
L219792 10382
L219885 10382
L219941 10401
L219979 10438
L219998 10476
L220016 10551
L220016 10607
L219998 10682
L219979 10720
L219941 10757
L219885 10776
L219792 10776
" />
<path d="M220204 10776
L220279 10776
L220316 10757
L220335 10738
L220373 10682
L220391 10607
L220391 10457
L220373 10420
L220354 10401
L220316 10382
L220241 10382
L220204 10401
L220185 10420
L220166 10457
L220166 10551
L220185 10588
L220204 10607
L220241 10626
L220316 10626
L220354 10607
L220373 10588
L220391 10551
" />
<path d="M197376 50976
L197245 50788
" />
<path d="M197151 50976
L197151 50582
L197301 50582
L197338 50601
L197357 50620
L197376 50657
L197376 50713
L197357 50751
L197338 50770
L197301 50788
L197151 50788
" />
<path d="M197526 50620
L197545 50601
L197582 50582
L197676 50582
L197713 50601
L197732 50620
L197751 50657
L197751 50695
L197732 50751
L197507 50976
L197751 50976
" />
<path d="M198126 50976
L197901 50976
" />
<path d="M198013 50976
L198013 50582
L197976 50638
L197938 50676
L197901 50695
" />
<path d="M203776 24376
L203645 24188
" />
<path d="M203551 24376
L203551 23982
L203701 23982
L203738 24001
L203757 24020
L203776 24057
L203776 24113
L203757 24151
L203738 24170
L203701 24188
L203551 24188
" />
<path d="M203926 24020
L203945 24001
L203982 23982
L204076 23982
L204113 24001
L204132 24020
L204151 24057
L204151 24095
L204132 24151
L203907 24376
L204151 24376
" />
<path d="M204488 24113
L204488 24376
" />
<path d="M204395 23963
L204301 24245
L204545 24245
" />
<path d="M202582 10223
L202563 10260
L202563 10316
L202582 10373
L202620 10410
L202657 10429
L202732 10448
L202788 10448
L202863 10429
L202901 10410
L202938 10373
L202957 10316
L202957 10279
L202938 10223
L202920 10204
L202788 10204
L202788 10279
" />
<path d="M202957 10035
L202563 10035
L202957 9810
L202563 9810
" />
<path d="M202957 9623
L202563 9623
L202563 9529
L202582 9473
L202620 9435
L202657 9416
L202732 9398
L202788 9398
L202863 9416
L202901 9435
L202938 9473
L202957 9529
L202957 9623
" />
<path d="M202957 9023
L202957 9248
" />
<path d="M202957 9135
L202563 9135
L202620 9173
L202657 9210
L202676 9248
" />
<path d="M202563 8779
L202563 8742
L202582 8704
L202601 8685
L202638 8667
L202713 8648
L202807 8648
L202882 8667
L202920 8685
L202938 8704
L202957 8742
L202957 8779
L202938 8817
L202920 8835
L202882 8854
L202807 8873
L202713 8873
L202638 8854
L202601 8835
L202582 8817
L202563 8779
" />
<path d="M214254 10401
L214217 10382
L214160 10382
L214104 10401
L214067 10438
L214048 10476
L214029 10551
L214029 10607
L214048 10682
L214067 10720
L214104 10757
L214160 10776
L214198 10776
L214254 10757
L214273 10738
L214273 10607
L214198 10607
" />
<path d="M214442 10776
L214442 10382
L214667 10776
L214667 10382
" />
<path d="M214854 10776
L214854 10382
L214948 10382
L215004 10401
L215042 10438
L215060 10476
L215079 10551
L215079 10607
L215060 10682
L215042 10720
L215004 10757
L214948 10776
L214854 10776
" />
<path d="M215454 10776
L215229 10776
" />
<path d="M215341 10776
L215341 10382
L215304 10438
L215266 10476
L215229 10495
" />
<path d="M215829 10776
L215604 10776
" />
<path d="M215716 10776
L215716 10382
L215679 10438
L215641 10476
L215604 10495
" />
<path d="M201632 49082
L201857 49082
" />
<path d="M201745 49476
L201745 49082
" />
<path d="M201988 49476
L201988 49082
L202138 49082
L202176 49101
L202195 49120
L202213 49157
L202213 49213
L202195 49251
L202176 49270
L202138 49288
L201988 49288
" />
<path d="M202570 49082
L202382 49082
L202363 49270
L202382 49251
L202420 49232
L202513 49232
L202551 49251
L202570 49270
L202588 49307
L202588 49401
L202570 49438
L202551 49457
L202513 49476
L202420 49476
L202382 49457
L202363 49438
" />
<path d="M214632 16882
L214857 16882
" />
<path d="M214745 17276
L214745 16882
" />
<path d="M214988 17276
L214988 16882
L215138 16882
L215176 16901
L215195 16920
L215213 16957
L215213 17013
L215195 17051
L215176 17070
L215138 17088
L214988 17088
" />
<path d="M215551 16882
L215476 16882
L215438 16901
L215420 16920
L215382 16976
L215363 17051
L215363 17201
L215382 17238
L215401 17257
L215438 17276
L215513 17276
L215551 17257
L215570 17238
L215588 17201
L215588 17107
L215570 17070
L215551 17051
L215513 17032
L215438 17032
L215401 17051
L215382 17070
L215363 17107
" />
<g >
</g>
</g>
<g style="fill:#000000; fill-opacity:0.0; 
stroke:#000000; stroke-width:59.0551; stroke-opacity:1; 
stroke-linecap:round; stroke-linejoin:round;">
</g>
<g style="fill:#C2C200; fill-opacity:0.0; 
stroke:#C2C200; stroke-width:59.0551; stroke-opacity:1; 
stroke-linecap:round; stroke-linejoin:round;">
<path d="M232529 57448
L157479 57448
" />
<path d="M232529 12448
L232529 57448
" />
<path d="M157479 12448
L232529 12448
" />
<path d="M157479 57448
L157479 12448
" />
<g >
</g>
<g >
</g>
<g >
</g>
<g >
</g>
<g >
</g>
<g >
</g>
<g >
</g>
<g >
</g>
<g >
</g>
<g >
</g>
<g >
</g>
<g >
</g>
<g >
</g>
<g >
</g>
<g >
</g>
<g >
</g>
<g >
</g>
<g >
</g>
<g >
</g>
<g >
</g>
<g >
</g>
<g >
</g>
<g >
</g>
<g >
</g>
<g >
</g>
<g >
</g>
<g >
</g>
<g >
</g>
<g >
</g>
<g >
</g>
<g >
</g>
<g >
</g>
<g >
</g>
<g >
</g>
<g >
</g>
<g >
</g>
<g >
</g>
<g >
</g>
<g >
</g>
<g >
</g>
<g >
</g>
<g >
</g>
<g >
</g>
<g >
</g>
<g >
</g>
<g >
</g>
<g >
</g>
<g >
</g>
<g >
</g>
<g >
</g>
<g >
</g>
<g >
</g>
<g >
</g>
<g >
</g>
<g >
</g>
<g >
</g>
<g >
</g>
<g >
</g>
<g >
</g>
<g >
</g>
<g >
</g>
<g >
</g>
<g >
</g>
<g >
</g>
<g >
</g>
<g >
</g>
<g >
</g>
<g >
</g>
<g >
</g>
<g >
</g>
<g >
</g>
<g >
</g>
<g >
</g>
<g >
</g>
<g >
</g>
<g >
</g>
<g >
</g>
<g >
</g>
<g >
</g>
<g >
</g>
<g >
</g>
<g >
</g>
<g >
</g>
<g >
</g>
<g >
</g>
<g >
</g>
<g >
</g>
<g >
</g>
<g >
</g>
<g >
</g>
<g >
</g>
<g >
</g>
<g >
</g>
<g >
</g>
<g >
</g>
<g >
</g>
<g >
</g>
<g >
</g>
<g >
</g>
<g >
</g>
<g >
</g>
<g >
</g>
<g >
</g>
<g >
</g>
<g >
</g>
<g >
</g>
<g >
</g>
<g >
</g>
<g >
</g>
<g >
</g>
<g >
</g>
<g >
</g>
<g >
</g>
<g >
</g>
<g >
</g>
<g >
</g>
<g >
</g>
<g >
</g>
</g> 
</svg>
