M48
; DRILL file {KiCad (5.1.2-1)-1} date Friday, 19 July 2019 at 21:50:50
; FORMAT={-:-/ absolute / metric / decimal}
; #@! TF.CreationDate,2019-07-19T21:50:50+01:00
; #@! TF.GenerationSoftware,Kicad,Pcbnew,(5.1.2-1)-1
; #@! TF.FileFunction,Plated,1,2,PTH
FMAT,2
METRIC
T1C0.300
T2C0.400
T3C0.650
T4C0.700
T5C1.000
T6C1.200
T7C1.500
T8C1.700
%
G90
G05
T1
X148.082Y-89.764
X151.46Y-90.703
X151.48Y-101.529
X151.968Y-104.318
X160.477Y-89.052
X162.505Y-104.321
X162.509Y-89.002
X163.474Y-89.002
X163.474Y-97.206
X163.474Y-106.248
X163.576Y-92.608
X163.627Y-94.463
X163.627Y-99.466
X166.624Y-93.726
X166.657Y-95.75
X166.721Y-99.75
X166.751Y-98.247
X168.975Y-118.111
X222.428Y-87.681
T2
X102.118Y-131.435
X142.585Y-131.358
X143.904Y-121.856
X161.874Y-129.997
X166.929Y-124.104
X177.8Y-101.981
X177.925Y-122.913
X179.87Y-130.289
X181.61Y-94.41
X187.122Y-82.55
X196.85Y-63.398
X198.971Y-120.637
X200.23Y-71.12
X202.59Y-88.316
X203.2Y-108.915
X204.47Y-65.405
X204.987Y-96.021
X206.248Y-72.39
X206.248Y-81.28
X207.01Y-71.171
X207.747Y-107.95
X212.09Y-65.354
X213.36Y-72.136
X219.547Y-107.909
X220.711Y-70.373
X221.947Y-114.236
X236.22Y-49.555
T5
X73.685Y-59.995
X76.225Y-59.995
X78.765Y-59.995
X81.305Y-59.995
X83.845Y-59.995
X86.385Y-59.995
X88.925Y-59.995
X191.008Y-86.36
X191.008Y-88.9
X191.008Y-91.44
X191.008Y-93.98
X191.008Y-96.52
X213.055Y-84.709
X213.055Y-87.249
X213.055Y-89.789
X213.055Y-92.329
X213.055Y-94.869
X213.055Y-97.409
T6
X161.988Y-57.658
X161.988Y-70.358
X167.069Y-57.658
X167.069Y-70.358
X134.048Y-57.658
X134.048Y-70.358
X139.129Y-57.658
X139.129Y-70.358
X217.195Y-49.682
X219.735Y-49.682
X175.958Y-57.658
X175.958Y-70.358
X181.038Y-57.658
X181.038Y-70.358
X148.018Y-57.658
X148.018Y-70.358
X153.099Y-57.658
X153.099Y-70.358
T7
X155.778Y-130.188
X110.388Y-130.302
X135.077Y-130.302
X186.22Y-130.162
T8
X183.68Y-127.622
X183.68Y-132.702
X188.76Y-127.622
X188.76Y-132.702
X153.238Y-127.648
X153.238Y-132.728
X158.318Y-127.648
X158.318Y-132.728
X107.848Y-127.762
X107.848Y-132.842
X112.928Y-127.762
X112.928Y-132.842
X132.537Y-127.762
X132.537Y-132.842
X137.617Y-127.762
X137.617Y-132.842
T3
G00X205.365Y-51.164
M15
G01X205.365Y-51.564
M16
G05
G00X210.205Y-51.164
M15
G01X210.205Y-51.564
M16
G05
T4
G00X205.055Y-48.114
M15
G01X205.055Y-48.614
M16
G05
G00X210.515Y-48.114
M15
G01X210.515Y-48.614
M16
G05
T0
M30
