G04 #@! TF.GenerationSoftware,KiCad,Pcbnew,(5.1.2-1)-1*
G04 #@! TF.CreationDate,2019-07-19T21:50:30+01:00*
G04 #@! TF.ProjectId,ControlModule,436f6e74-726f-46c4-9d6f-64756c652e6b,C*
G04 #@! TF.SameCoordinates,Original*
G04 #@! TF.FileFunction,Legend,Bot*
G04 #@! TF.FilePolarity,Positive*
%FSLAX46Y46*%
G04 Gerber Fmt 4.6, Leading zero omitted, Abs format (unit mm)*
G04 Created by KiCad (PCBNEW (5.1.2-1)-1) date 2019-07-19 21:50:30*
%MOMM*%
%LPD*%
G04 APERTURE LIST*
%ADD10C,0.150000*%
%ADD11C,0.200000*%
%ADD12C,0.250000*%
%ADD13C,0.175000*%
%ADD14C,0.120000*%
%ADD15C,0.100000*%
G04 APERTURE END LIST*
D10*
X171999710Y-118745000D02*
G75*
G03X171999710Y-118745000I-359210J0D01*
G01*
D11*
X195619619Y-97023180D02*
X195952952Y-96546990D01*
X196191047Y-97023180D02*
X196191047Y-96023180D01*
X195810095Y-96023180D01*
X195714857Y-96070800D01*
X195667238Y-96118419D01*
X195619619Y-96213657D01*
X195619619Y-96356514D01*
X195667238Y-96451752D01*
X195714857Y-96499371D01*
X195810095Y-96546990D01*
X196191047Y-96546990D01*
X195238666Y-96975561D02*
X195095809Y-97023180D01*
X194857714Y-97023180D01*
X194762476Y-96975561D01*
X194714857Y-96927942D01*
X194667238Y-96832704D01*
X194667238Y-96737466D01*
X194714857Y-96642228D01*
X194762476Y-96594609D01*
X194857714Y-96546990D01*
X195048190Y-96499371D01*
X195143428Y-96451752D01*
X195191047Y-96404133D01*
X195238666Y-96308895D01*
X195238666Y-96213657D01*
X195191047Y-96118419D01*
X195143428Y-96070800D01*
X195048190Y-96023180D01*
X194810095Y-96023180D01*
X194667238Y-96070800D01*
X194381523Y-96023180D02*
X193810095Y-96023180D01*
X194095809Y-97023180D02*
X194095809Y-96023180D01*
X195833904Y-85910800D02*
X195929142Y-85863180D01*
X196072000Y-85863180D01*
X196214857Y-85910800D01*
X196310095Y-86006038D01*
X196357714Y-86101276D01*
X196405333Y-86291752D01*
X196405333Y-86434609D01*
X196357714Y-86625085D01*
X196310095Y-86720323D01*
X196214857Y-86815561D01*
X196072000Y-86863180D01*
X195976761Y-86863180D01*
X195833904Y-86815561D01*
X195786285Y-86767942D01*
X195786285Y-86434609D01*
X195976761Y-86434609D01*
X195357714Y-86863180D02*
X195357714Y-85863180D01*
X194786285Y-86863180D01*
X194786285Y-85863180D01*
X194310095Y-86863180D02*
X194310095Y-85863180D01*
X194072000Y-85863180D01*
X193929142Y-85910800D01*
X193833904Y-86006038D01*
X193786285Y-86101276D01*
X193738666Y-86291752D01*
X193738666Y-86434609D01*
X193786285Y-86625085D01*
X193833904Y-86720323D01*
X193929142Y-86815561D01*
X194072000Y-86863180D01*
X194310095Y-86863180D01*
X194754476Y-88403180D02*
X195230666Y-88403180D01*
X195278285Y-88879371D01*
X195230666Y-88831752D01*
X195135428Y-88784133D01*
X194897333Y-88784133D01*
X194802095Y-88831752D01*
X194754476Y-88879371D01*
X194706857Y-88974609D01*
X194706857Y-89212704D01*
X194754476Y-89307942D01*
X194802095Y-89355561D01*
X194897333Y-89403180D01*
X195135428Y-89403180D01*
X195230666Y-89355561D01*
X195278285Y-89307942D01*
X194421142Y-88403180D02*
X194087809Y-89403180D01*
X193754476Y-88403180D01*
X196262476Y-91895561D02*
X196119619Y-91943180D01*
X195881523Y-91943180D01*
X195786285Y-91895561D01*
X195738666Y-91847942D01*
X195691047Y-91752704D01*
X195691047Y-91657466D01*
X195738666Y-91562228D01*
X195786285Y-91514609D01*
X195881523Y-91466990D01*
X196072000Y-91419371D01*
X196167238Y-91371752D01*
X196214857Y-91324133D01*
X196262476Y-91228895D01*
X196262476Y-91133657D01*
X196214857Y-91038419D01*
X196167238Y-90990800D01*
X196072000Y-90943180D01*
X195833904Y-90943180D01*
X195691047Y-90990800D01*
X194691047Y-91847942D02*
X194738666Y-91895561D01*
X194881523Y-91943180D01*
X194976761Y-91943180D01*
X195119619Y-91895561D01*
X195214857Y-91800323D01*
X195262476Y-91705085D01*
X195310095Y-91514609D01*
X195310095Y-91371752D01*
X195262476Y-91181276D01*
X195214857Y-91086038D01*
X195119619Y-90990800D01*
X194976761Y-90943180D01*
X194881523Y-90943180D01*
X194738666Y-90990800D01*
X194691047Y-91038419D01*
X193786285Y-91943180D02*
X194262476Y-91943180D01*
X194262476Y-90943180D01*
X196286285Y-94435561D02*
X196143428Y-94483180D01*
X195905333Y-94483180D01*
X195810095Y-94435561D01*
X195762476Y-94387942D01*
X195714857Y-94292704D01*
X195714857Y-94197466D01*
X195762476Y-94102228D01*
X195810095Y-94054609D01*
X195905333Y-94006990D01*
X196095809Y-93959371D01*
X196191047Y-93911752D01*
X196238666Y-93864133D01*
X196286285Y-93768895D01*
X196286285Y-93673657D01*
X196238666Y-93578419D01*
X196191047Y-93530800D01*
X196095809Y-93483180D01*
X195857714Y-93483180D01*
X195714857Y-93530800D01*
X195286285Y-94483180D02*
X195286285Y-93483180D01*
X195048190Y-93483180D01*
X194905333Y-93530800D01*
X194810095Y-93626038D01*
X194762476Y-93721276D01*
X194714857Y-93911752D01*
X194714857Y-94054609D01*
X194762476Y-94245085D01*
X194810095Y-94340323D01*
X194905333Y-94435561D01*
X195048190Y-94483180D01*
X195286285Y-94483180D01*
X194333904Y-94197466D02*
X193857714Y-94197466D01*
X194429142Y-94483180D02*
X194095809Y-93483180D01*
X193762476Y-94483180D01*
D12*
X91745314Y-121734028D02*
X91888171Y-121876885D01*
X92316742Y-122019742D01*
X92602457Y-122019742D01*
X93031028Y-121876885D01*
X93316742Y-121591171D01*
X93459600Y-121305457D01*
X93602457Y-120734028D01*
X93602457Y-120305457D01*
X93459600Y-119734028D01*
X93316742Y-119448314D01*
X93031028Y-119162600D01*
X92602457Y-119019742D01*
X92316742Y-119019742D01*
X91888171Y-119162600D01*
X91745314Y-119305457D01*
X90031028Y-122019742D02*
X90316742Y-121876885D01*
X90459600Y-121734028D01*
X90602457Y-121448314D01*
X90602457Y-120591171D01*
X90459600Y-120305457D01*
X90316742Y-120162600D01*
X90031028Y-120019742D01*
X89602457Y-120019742D01*
X89316742Y-120162600D01*
X89173885Y-120305457D01*
X89031028Y-120591171D01*
X89031028Y-121448314D01*
X89173885Y-121734028D01*
X89316742Y-121876885D01*
X89602457Y-122019742D01*
X90031028Y-122019742D01*
X87745314Y-120019742D02*
X87745314Y-122019742D01*
X87745314Y-120305457D02*
X87602457Y-120162600D01*
X87316742Y-120019742D01*
X86888171Y-120019742D01*
X86602457Y-120162600D01*
X86459600Y-120448314D01*
X86459600Y-122019742D01*
X85459600Y-120019742D02*
X84316742Y-120019742D01*
X85031028Y-119019742D02*
X85031028Y-121591171D01*
X84888171Y-121876885D01*
X84602457Y-122019742D01*
X84316742Y-122019742D01*
X83316742Y-122019742D02*
X83316742Y-120019742D01*
X83316742Y-120591171D02*
X83173885Y-120305457D01*
X83031028Y-120162600D01*
X82745314Y-120019742D01*
X82459600Y-120019742D01*
X81031028Y-122019742D02*
X81316742Y-121876885D01*
X81459600Y-121734028D01*
X81602457Y-121448314D01*
X81602457Y-120591171D01*
X81459600Y-120305457D01*
X81316742Y-120162600D01*
X81031028Y-120019742D01*
X80602457Y-120019742D01*
X80316742Y-120162600D01*
X80173885Y-120305457D01*
X80031028Y-120591171D01*
X80031028Y-121448314D01*
X80173885Y-121734028D01*
X80316742Y-121876885D01*
X80602457Y-122019742D01*
X81031028Y-122019742D01*
X78316742Y-122019742D02*
X78602457Y-121876885D01*
X78745314Y-121591171D01*
X78745314Y-119019742D01*
X74888171Y-122019742D02*
X74888171Y-119019742D01*
X73888171Y-121162600D01*
X72888171Y-119019742D01*
X72888171Y-122019742D01*
X71031028Y-122019742D02*
X71316742Y-121876885D01*
X71459600Y-121734028D01*
X71602457Y-121448314D01*
X71602457Y-120591171D01*
X71459600Y-120305457D01*
X71316742Y-120162600D01*
X71031028Y-120019742D01*
X70602457Y-120019742D01*
X70316742Y-120162600D01*
X70173885Y-120305457D01*
X70031028Y-120591171D01*
X70031028Y-121448314D01*
X70173885Y-121734028D01*
X70316742Y-121876885D01*
X70602457Y-122019742D01*
X71031028Y-122019742D01*
X67459600Y-122019742D02*
X67459600Y-119019742D01*
X67459600Y-121876885D02*
X67745314Y-122019742D01*
X68316742Y-122019742D01*
X68602457Y-121876885D01*
X68745314Y-121734028D01*
X68888171Y-121448314D01*
X68888171Y-120591171D01*
X68745314Y-120305457D01*
X68602457Y-120162600D01*
X68316742Y-120019742D01*
X67745314Y-120019742D01*
X67459600Y-120162600D01*
X64745314Y-120019742D02*
X64745314Y-122019742D01*
X66031028Y-120019742D02*
X66031028Y-121591171D01*
X65888171Y-121876885D01*
X65602457Y-122019742D01*
X65173885Y-122019742D01*
X64888171Y-121876885D01*
X64745314Y-121734028D01*
X62888171Y-122019742D02*
X63173885Y-121876885D01*
X63316742Y-121591171D01*
X63316742Y-119019742D01*
X60602457Y-121876885D02*
X60888171Y-122019742D01*
X61459600Y-122019742D01*
X61745314Y-121876885D01*
X61888171Y-121591171D01*
X61888171Y-120448314D01*
X61745314Y-120162600D01*
X61459600Y-120019742D01*
X60888171Y-120019742D01*
X60602457Y-120162600D01*
X60459600Y-120448314D01*
X60459600Y-120734028D01*
X61888171Y-121019742D01*
X55173885Y-122019742D02*
X56173885Y-120591171D01*
X56888171Y-122019742D02*
X56888171Y-119019742D01*
X55745314Y-119019742D01*
X55459600Y-119162600D01*
X55316742Y-119305457D01*
X55173885Y-119591171D01*
X55173885Y-120019742D01*
X55316742Y-120305457D01*
X55459600Y-120448314D01*
X55745314Y-120591171D01*
X56888171Y-120591171D01*
X52745314Y-121876885D02*
X53031028Y-122019742D01*
X53602457Y-122019742D01*
X53888171Y-121876885D01*
X54031028Y-121591171D01*
X54031028Y-120448314D01*
X53888171Y-120162600D01*
X53602457Y-120019742D01*
X53031028Y-120019742D01*
X52745314Y-120162600D01*
X52602457Y-120448314D01*
X52602457Y-120734028D01*
X54031028Y-121019742D01*
X51602457Y-120019742D02*
X50888171Y-122019742D01*
X50173885Y-120019742D01*
X47316742Y-121734028D02*
X47459600Y-121876885D01*
X47888171Y-122019742D01*
X48173885Y-122019742D01*
X48602457Y-121876885D01*
X48888171Y-121591171D01*
X49031028Y-121305457D01*
X49173885Y-120734028D01*
X49173885Y-120305457D01*
X49031028Y-119734028D01*
X48888171Y-119448314D01*
X48602457Y-119162600D01*
X48173885Y-119019742D01*
X47888171Y-119019742D01*
X47459600Y-119162600D01*
X47316742Y-119305457D01*
X88173885Y-126769742D02*
X89888171Y-126769742D01*
X89031028Y-126769742D02*
X89031028Y-123769742D01*
X89316742Y-124198314D01*
X89602457Y-124484028D01*
X89888171Y-124626885D01*
X87173885Y-123769742D02*
X85173885Y-123769742D01*
X86459600Y-126769742D01*
X82459600Y-126769742D02*
X84173885Y-126769742D01*
X83316742Y-126769742D02*
X83316742Y-123769742D01*
X83602457Y-124198314D01*
X83888171Y-124484028D01*
X84173885Y-124626885D01*
X81031028Y-126769742D02*
X80459600Y-126769742D01*
X80173885Y-126626885D01*
X80031028Y-126484028D01*
X79745314Y-126055457D01*
X79602457Y-125484028D01*
X79602457Y-124341171D01*
X79745314Y-124055457D01*
X79888171Y-123912600D01*
X80173885Y-123769742D01*
X80745314Y-123769742D01*
X81031028Y-123912600D01*
X81173885Y-124055457D01*
X81316742Y-124341171D01*
X81316742Y-125055457D01*
X81173885Y-125341171D01*
X81031028Y-125484028D01*
X80745314Y-125626885D01*
X80173885Y-125626885D01*
X79888171Y-125484028D01*
X79745314Y-125341171D01*
X79602457Y-125055457D01*
X73602457Y-124484028D02*
X73888171Y-124341171D01*
X74459600Y-124341171D01*
X74745314Y-124484028D01*
X75031028Y-124769742D01*
X75173885Y-125055457D01*
X75173885Y-125626885D01*
X75031028Y-125912600D01*
X74745314Y-126198314D01*
X74459600Y-126341171D01*
X73888171Y-126341171D01*
X73602457Y-126198314D01*
X74173885Y-123341171D02*
X74888171Y-123484028D01*
X75602457Y-123912600D01*
X76031028Y-124626885D01*
X76173885Y-125341171D01*
X76031028Y-126055457D01*
X75602457Y-126769742D01*
X74888171Y-127198314D01*
X74173885Y-127341171D01*
X73459600Y-127198314D01*
X72745314Y-126769742D01*
X72316742Y-126055457D01*
X72173885Y-125341171D01*
X72316742Y-124626885D01*
X72745314Y-123912600D01*
X73459600Y-123484028D01*
X74173885Y-123341171D01*
X66888171Y-126484028D02*
X67031028Y-126626885D01*
X67459600Y-126769742D01*
X67745314Y-126769742D01*
X68173885Y-126626885D01*
X68459600Y-126341171D01*
X68602457Y-126055457D01*
X68745314Y-125484028D01*
X68745314Y-125055457D01*
X68602457Y-124484028D01*
X68459600Y-124198314D01*
X68173885Y-123912600D01*
X67745314Y-123769742D01*
X67459600Y-123769742D01*
X67031028Y-123912600D01*
X66888171Y-124055457D01*
X65602457Y-126484028D02*
X65459600Y-126626885D01*
X65602457Y-126769742D01*
X65745314Y-126626885D01*
X65602457Y-126484028D01*
X65602457Y-126769742D01*
X64316742Y-126626885D02*
X63888171Y-126769742D01*
X63173885Y-126769742D01*
X62888171Y-126626885D01*
X62745314Y-126484028D01*
X62602457Y-126198314D01*
X62602457Y-125912600D01*
X62745314Y-125626885D01*
X62888171Y-125484028D01*
X63173885Y-125341171D01*
X63745314Y-125198314D01*
X64031028Y-125055457D01*
X64173885Y-124912600D01*
X64316742Y-124626885D01*
X64316742Y-124341171D01*
X64173885Y-124055457D01*
X64031028Y-123912600D01*
X63745314Y-123769742D01*
X63031028Y-123769742D01*
X62602457Y-123912600D01*
X60031028Y-124769742D02*
X60031028Y-126769742D01*
X61316742Y-124769742D02*
X61316742Y-126341171D01*
X61173885Y-126626885D01*
X60888171Y-126769742D01*
X60459600Y-126769742D01*
X60173885Y-126626885D01*
X60031028Y-126484028D01*
X59031028Y-124769742D02*
X57888171Y-124769742D01*
X58602457Y-123769742D02*
X58602457Y-126341171D01*
X58459600Y-126626885D01*
X58173885Y-126769742D01*
X57888171Y-126769742D01*
X57316742Y-124769742D02*
X56173885Y-124769742D01*
X56888171Y-123769742D02*
X56888171Y-126341171D01*
X56745314Y-126626885D01*
X56459600Y-126769742D01*
X56173885Y-126769742D01*
X54745314Y-126769742D02*
X55031028Y-126626885D01*
X55173885Y-126484028D01*
X55316742Y-126198314D01*
X55316742Y-125341171D01*
X55173885Y-125055457D01*
X55031028Y-124912600D01*
X54745314Y-124769742D01*
X54316742Y-124769742D01*
X54031028Y-124912600D01*
X53888171Y-125055457D01*
X53745314Y-125341171D01*
X53745314Y-126198314D01*
X53888171Y-126484028D01*
X54031028Y-126626885D01*
X54316742Y-126769742D01*
X54745314Y-126769742D01*
X52459600Y-124769742D02*
X52459600Y-126769742D01*
X52459600Y-125055457D02*
X52316742Y-124912600D01*
X52031028Y-124769742D01*
X51602457Y-124769742D01*
X51316742Y-124912600D01*
X51173885Y-125198314D01*
X51173885Y-126769742D01*
D13*
X211080916Y-85276833D02*
X210980916Y-85310166D01*
X210814250Y-85310166D01*
X210747583Y-85276833D01*
X210714250Y-85243500D01*
X210680916Y-85176833D01*
X210680916Y-85110166D01*
X210714250Y-85043500D01*
X210747583Y-85010166D01*
X210814250Y-84976833D01*
X210947583Y-84943500D01*
X211014250Y-84910166D01*
X211047583Y-84876833D01*
X211080916Y-84810166D01*
X211080916Y-84743500D01*
X211047583Y-84676833D01*
X211014250Y-84643500D01*
X210947583Y-84610166D01*
X210780916Y-84610166D01*
X210680916Y-84643500D01*
X210447583Y-84610166D02*
X210280916Y-85310166D01*
X210147583Y-84810166D01*
X210014250Y-85310166D01*
X209847583Y-84610166D01*
X209447583Y-84610166D02*
X209314250Y-84610166D01*
X209247583Y-84643500D01*
X209180916Y-84710166D01*
X209147583Y-84843500D01*
X209147583Y-85076833D01*
X209180916Y-85210166D01*
X209247583Y-85276833D01*
X209314250Y-85310166D01*
X209447583Y-85310166D01*
X209514250Y-85276833D01*
X209580916Y-85210166D01*
X209614250Y-85076833D01*
X209614250Y-84843500D01*
X209580916Y-84710166D01*
X209514250Y-84643500D01*
X209447583Y-84610166D01*
X211080916Y-87726833D02*
X210980916Y-87760166D01*
X210814250Y-87760166D01*
X210747583Y-87726833D01*
X210714250Y-87693500D01*
X210680916Y-87626833D01*
X210680916Y-87560166D01*
X210714250Y-87493500D01*
X210747583Y-87460166D01*
X210814250Y-87426833D01*
X210947583Y-87393500D01*
X211014250Y-87360166D01*
X211047583Y-87326833D01*
X211080916Y-87260166D01*
X211080916Y-87193500D01*
X211047583Y-87126833D01*
X211014250Y-87093500D01*
X210947583Y-87060166D01*
X210780916Y-87060166D01*
X210680916Y-87093500D01*
X210447583Y-87060166D02*
X210280916Y-87760166D01*
X210147583Y-87260166D01*
X210014250Y-87760166D01*
X209847583Y-87060166D01*
X209580916Y-87760166D02*
X209580916Y-87060166D01*
X209414250Y-87060166D01*
X209314250Y-87093500D01*
X209247583Y-87160166D01*
X209214250Y-87226833D01*
X209180916Y-87360166D01*
X209180916Y-87460166D01*
X209214250Y-87593500D01*
X209247583Y-87660166D01*
X209314250Y-87726833D01*
X209414250Y-87760166D01*
X209580916Y-87760166D01*
X208880916Y-87760166D02*
X208880916Y-87060166D01*
X208414250Y-87060166D02*
X208280916Y-87060166D01*
X208214250Y-87093500D01*
X208147583Y-87160166D01*
X208114250Y-87293500D01*
X208114250Y-87526833D01*
X208147583Y-87660166D01*
X208214250Y-87726833D01*
X208280916Y-87760166D01*
X208414250Y-87760166D01*
X208480916Y-87726833D01*
X208547583Y-87660166D01*
X208580916Y-87526833D01*
X208580916Y-87293500D01*
X208547583Y-87160166D01*
X208480916Y-87093500D01*
X208414250Y-87060166D01*
X210680916Y-89543500D02*
X210747583Y-89510166D01*
X210847583Y-89510166D01*
X210947583Y-89543500D01*
X211014250Y-89610166D01*
X211047583Y-89676833D01*
X211080916Y-89810166D01*
X211080916Y-89910166D01*
X211047583Y-90043500D01*
X211014250Y-90110166D01*
X210947583Y-90176833D01*
X210847583Y-90210166D01*
X210780916Y-90210166D01*
X210680916Y-90176833D01*
X210647583Y-90143500D01*
X210647583Y-89910166D01*
X210780916Y-89910166D01*
X210347583Y-90210166D02*
X210347583Y-89510166D01*
X209947583Y-90210166D01*
X209947583Y-89510166D01*
X209614250Y-90210166D02*
X209614250Y-89510166D01*
X209447583Y-89510166D01*
X209347583Y-89543500D01*
X209280916Y-89610166D01*
X209247583Y-89676833D01*
X209214250Y-89810166D01*
X209214250Y-89910166D01*
X209247583Y-90043500D01*
X209280916Y-90110166D01*
X209347583Y-90176833D01*
X209447583Y-90210166D01*
X209614250Y-90210166D01*
X211080916Y-92626833D02*
X210980916Y-92660166D01*
X210814250Y-92660166D01*
X210747583Y-92626833D01*
X210714250Y-92593500D01*
X210680916Y-92526833D01*
X210680916Y-92460166D01*
X210714250Y-92393500D01*
X210747583Y-92360166D01*
X210814250Y-92326833D01*
X210947583Y-92293500D01*
X211014250Y-92260166D01*
X211047583Y-92226833D01*
X211080916Y-92160166D01*
X211080916Y-92093500D01*
X211047583Y-92026833D01*
X211014250Y-91993500D01*
X210947583Y-91960166D01*
X210780916Y-91960166D01*
X210680916Y-91993500D01*
X210447583Y-91960166D02*
X210280916Y-92660166D01*
X210147583Y-92160166D01*
X210014250Y-92660166D01*
X209847583Y-91960166D01*
X209180916Y-92593500D02*
X209214250Y-92626833D01*
X209314250Y-92660166D01*
X209380916Y-92660166D01*
X209480916Y-92626833D01*
X209547583Y-92560166D01*
X209580916Y-92493500D01*
X209614250Y-92360166D01*
X209614250Y-92260166D01*
X209580916Y-92126833D01*
X209547583Y-92060166D01*
X209480916Y-91993500D01*
X209380916Y-91960166D01*
X209314250Y-91960166D01*
X209214250Y-91993500D01*
X209180916Y-92026833D01*
X208547583Y-92660166D02*
X208880916Y-92660166D01*
X208880916Y-91960166D01*
X208314250Y-92660166D02*
X208314250Y-91960166D01*
X207914250Y-92660166D02*
X208214250Y-92260166D01*
X207914250Y-91960166D02*
X208314250Y-92360166D01*
X211047583Y-95110166D02*
X211047583Y-94410166D01*
X210647583Y-95110166D01*
X210647583Y-94410166D01*
X209914250Y-95110166D02*
X210147583Y-94776833D01*
X210314250Y-95110166D02*
X210314250Y-94410166D01*
X210047583Y-94410166D01*
X209980916Y-94443500D01*
X209947583Y-94476833D01*
X209914250Y-94543500D01*
X209914250Y-94643500D01*
X209947583Y-94710166D01*
X209980916Y-94743500D01*
X210047583Y-94776833D01*
X210314250Y-94776833D01*
X209647583Y-95076833D02*
X209547583Y-95110166D01*
X209380916Y-95110166D01*
X209314250Y-95076833D01*
X209280916Y-95043500D01*
X209247583Y-94976833D01*
X209247583Y-94910166D01*
X209280916Y-94843500D01*
X209314250Y-94810166D01*
X209380916Y-94776833D01*
X209514250Y-94743500D01*
X209580916Y-94710166D01*
X209614250Y-94676833D01*
X209647583Y-94610166D01*
X209647583Y-94543500D01*
X209614250Y-94476833D01*
X209580916Y-94443500D01*
X209514250Y-94410166D01*
X209347583Y-94410166D01*
X209247583Y-94443500D01*
X209047583Y-94410166D02*
X208647583Y-94410166D01*
X208847583Y-95110166D02*
X208847583Y-94410166D01*
X210987250Y-97025666D02*
X210553916Y-97025666D01*
X210787250Y-97292333D01*
X210687250Y-97292333D01*
X210620583Y-97325666D01*
X210587250Y-97359000D01*
X210553916Y-97425666D01*
X210553916Y-97592333D01*
X210587250Y-97659000D01*
X210620583Y-97692333D01*
X210687250Y-97725666D01*
X210887250Y-97725666D01*
X210953916Y-97692333D01*
X210987250Y-97659000D01*
X210253916Y-97659000D02*
X210220583Y-97692333D01*
X210253916Y-97725666D01*
X210287250Y-97692333D01*
X210253916Y-97659000D01*
X210253916Y-97725666D01*
X209987250Y-97025666D02*
X209553916Y-97025666D01*
X209787250Y-97292333D01*
X209687250Y-97292333D01*
X209620583Y-97325666D01*
X209587250Y-97359000D01*
X209553916Y-97425666D01*
X209553916Y-97592333D01*
X209587250Y-97659000D01*
X209620583Y-97692333D01*
X209687250Y-97725666D01*
X209887250Y-97725666D01*
X209953916Y-97692333D01*
X209987250Y-97659000D01*
X209353916Y-97025666D02*
X209120583Y-97725666D01*
X208887250Y-97025666D01*
D14*
X220535400Y-52112400D02*
X220535400Y-52712400D01*
X218935400Y-52112400D02*
X220535400Y-52112400D01*
X218935400Y-52712400D02*
X218935400Y-52112400D01*
X217995400Y-52112400D02*
X217995400Y-52712400D01*
X216395400Y-52112400D02*
X217995400Y-52112400D01*
X216395400Y-52712400D02*
X216395400Y-52112400D01*
X219485400Y-46692400D02*
X219485400Y-47692400D01*
X217445400Y-46692400D02*
X217445400Y-47692400D01*
X219485400Y-48222400D02*
X219735400Y-47692400D01*
X217445400Y-48222400D02*
X219485400Y-48222400D01*
X217195400Y-47692400D02*
X217445400Y-48222400D01*
X219735400Y-47692400D02*
X219735400Y-46692400D01*
X217195400Y-47692400D02*
X219735400Y-47692400D01*
X217195400Y-46692400D02*
X217195400Y-47692400D01*
X215525400Y-51682400D02*
X215525400Y-47682400D01*
X221115400Y-52712400D02*
X215815400Y-52712400D01*
X221115400Y-46692400D02*
X221115400Y-52712400D01*
X215815400Y-46692400D02*
X221115400Y-46692400D01*
X215815400Y-52712400D02*
X215815400Y-46692400D01*
X206485100Y-52344200D02*
X206085100Y-52794200D01*
X206085100Y-52794200D02*
X206885100Y-52794200D01*
X206885100Y-52794200D02*
X206485100Y-52344200D01*
X211635100Y-46744200D02*
X211635100Y-49544200D01*
X211635100Y-49544200D02*
X211935100Y-49544200D01*
X211935100Y-49544200D02*
X211935100Y-51094200D01*
X203935100Y-46744200D02*
X203935100Y-49544200D01*
X203635100Y-49544200D02*
X203935100Y-49544200D01*
X203635100Y-49544200D02*
X203635100Y-51094200D01*
D10*
X152423200Y-131637700D02*
X152423200Y-128737700D01*
X159133200Y-131637700D02*
X159133200Y-128737700D01*
X154328200Y-126832700D02*
X157228200Y-126832700D01*
X154328200Y-133542700D02*
X157228200Y-133542700D01*
X211725200Y-98739000D02*
X213055200Y-98739000D01*
X211725200Y-97409000D02*
X211725200Y-98739000D01*
X211725200Y-96139000D02*
X214385200Y-96139000D01*
X214385200Y-96139000D02*
X214385200Y-83379000D01*
X211725200Y-96139000D02*
X211725200Y-83379000D01*
X211725200Y-83379000D02*
X214385200Y-83379000D01*
X198426000Y-90676252D02*
X198426000Y-90153748D01*
X199846000Y-90676252D02*
X199846000Y-90153748D01*
X205538000Y-90162748D02*
X205538000Y-90685252D01*
X206958000Y-90162748D02*
X206958000Y-90685252D01*
X211750000Y-70750000D02*
X211750000Y-68950000D01*
X214970000Y-68950000D02*
X214970000Y-71400000D01*
X200730000Y-66110000D02*
X200730000Y-68510000D01*
X203130000Y-66110000D02*
X200730000Y-66110000D01*
X203130000Y-68510000D02*
X203130000Y-66110000D01*
X200730000Y-68510000D02*
X203130000Y-68510000D01*
X182810000Y-87700000D02*
X180410000Y-87700000D01*
X180410000Y-87700000D02*
X180410000Y-90100000D01*
X180410000Y-90100000D02*
X182810000Y-90100000D01*
X182810000Y-90100000D02*
X182810000Y-87700000D01*
X186620000Y-87560000D02*
X186620000Y-85160000D01*
X184220000Y-87560000D02*
X186620000Y-87560000D01*
X184220000Y-85160000D02*
X184220000Y-87560000D01*
X186620000Y-85160000D02*
X184220000Y-85160000D01*
X217862000Y-93669000D02*
X215462000Y-93669000D01*
X215462000Y-93669000D02*
X215462000Y-96069000D01*
X215462000Y-96069000D02*
X217862000Y-96069000D01*
X217862000Y-96069000D02*
X217862000Y-93669000D01*
X217862000Y-88589000D02*
X215462000Y-88589000D01*
X215462000Y-88589000D02*
X215462000Y-90989000D01*
X215462000Y-90989000D02*
X217862000Y-90989000D01*
X217862000Y-90989000D02*
X217862000Y-88589000D01*
X179000000Y-95320000D02*
X176600000Y-95320000D01*
X176600000Y-95320000D02*
X176600000Y-97720000D01*
X176600000Y-97720000D02*
X179000000Y-97720000D01*
X179000000Y-97720000D02*
X179000000Y-95320000D01*
X217862000Y-85909000D02*
X217862000Y-83509000D01*
X215462000Y-85909000D02*
X217862000Y-85909000D01*
X215462000Y-83509000D02*
X215462000Y-85909000D01*
X217862000Y-83509000D02*
X215462000Y-83509000D01*
X200730000Y-72320000D02*
X203130000Y-72320000D01*
X200730000Y-69920000D02*
X200730000Y-72320000D01*
X203130000Y-69920000D02*
X200730000Y-69920000D01*
X203130000Y-72320000D02*
X203130000Y-69920000D01*
X182810000Y-93910000D02*
X182810000Y-91510000D01*
X182810000Y-91510000D02*
X180410000Y-91510000D01*
X180410000Y-91510000D02*
X180410000Y-93910000D01*
X180410000Y-93910000D02*
X182810000Y-93910000D01*
X235235600Y-50755400D02*
X235235600Y-48355400D01*
X232835600Y-50755400D02*
X235235600Y-50755400D01*
X232835600Y-48355400D02*
X232835600Y-50755400D01*
X235235600Y-48355400D02*
X232835600Y-48355400D01*
X224847000Y-113036500D02*
X222447000Y-113036500D01*
X222447000Y-113036500D02*
X222447000Y-115436500D01*
X222447000Y-115436500D02*
X224847000Y-115436500D01*
X224847000Y-115436500D02*
X224847000Y-113036500D01*
X186620000Y-83750000D02*
X186620000Y-81350000D01*
X186620000Y-81350000D02*
X184220000Y-81350000D01*
X184220000Y-81350000D02*
X184220000Y-83750000D01*
X184220000Y-83750000D02*
X186620000Y-83750000D01*
X179000000Y-101530000D02*
X179000000Y-99130000D01*
X176600000Y-101530000D02*
X179000000Y-101530000D01*
X176600000Y-99130000D02*
X176600000Y-101530000D01*
X179000000Y-99130000D02*
X176600000Y-99130000D01*
X203300400Y-90204548D02*
X203300400Y-90727052D01*
X201880400Y-90204548D02*
X201880400Y-90727052D01*
X205538000Y-94734748D02*
X205538000Y-95257252D01*
X206958000Y-94734748D02*
X206958000Y-95257252D01*
X189575100Y-131612300D02*
X189575100Y-128712300D01*
X182865100Y-131612300D02*
X182865100Y-128712300D01*
X187670100Y-126807300D02*
X184770100Y-126807300D01*
X187670100Y-133517300D02*
X184770100Y-133517300D01*
X193135400Y-121405800D02*
X193135400Y-123805800D01*
X193135400Y-123805800D02*
X195535400Y-123805800D01*
X195535400Y-123805800D02*
X195535400Y-121405800D01*
X195535400Y-121405800D02*
X193135400Y-121405800D01*
X149815400Y-122625000D02*
X147415400Y-122625000D01*
X149815400Y-125025000D02*
X149815400Y-122625000D01*
X147415400Y-125025000D02*
X149815400Y-125025000D01*
X147415400Y-122625000D02*
X147415400Y-125025000D01*
X195535400Y-119919600D02*
X195535400Y-117519600D01*
X195535400Y-117519600D02*
X193135400Y-117519600D01*
X193135400Y-117519600D02*
X193135400Y-119919600D01*
X193135400Y-119919600D02*
X195535400Y-119919600D01*
X149790000Y-118815000D02*
X147390000Y-118815000D01*
X149790000Y-121215000D02*
X149790000Y-118815000D01*
X147390000Y-121215000D02*
X149790000Y-121215000D01*
X147390000Y-118815000D02*
X147390000Y-121215000D01*
X217240000Y-115500000D02*
X219640000Y-115500000D01*
X219640000Y-115500000D02*
X219640000Y-113100000D01*
X219640000Y-113100000D02*
X217240000Y-113100000D01*
X217240000Y-113100000D02*
X217240000Y-115500000D01*
X131722200Y-131752000D02*
X131722200Y-128852000D01*
X138432200Y-131752000D02*
X138432200Y-128852000D01*
X133627200Y-126947000D02*
X136527200Y-126947000D01*
X133627200Y-133657000D02*
X136527200Y-133657000D01*
X108938400Y-133657000D02*
X111838400Y-133657000D01*
X108938400Y-126947000D02*
X111838400Y-126947000D01*
X113743400Y-131752000D02*
X113743400Y-128852000D01*
X107033400Y-131752000D02*
X107033400Y-128852000D01*
X178870100Y-133518100D02*
X180870100Y-133518100D01*
X178870100Y-130718100D02*
X178870100Y-133518100D01*
X180870100Y-130718100D02*
X178870100Y-130718100D01*
X180870100Y-133518100D02*
X180870100Y-130718100D01*
X162874200Y-133492700D02*
X162874200Y-130692700D01*
X162874200Y-130692700D02*
X160874200Y-130692700D01*
X160874200Y-130692700D02*
X160874200Y-133492700D01*
X160874200Y-133492700D02*
X162874200Y-133492700D01*
X143335200Y-131842000D02*
X140535200Y-131842000D01*
X140535200Y-131842000D02*
X140535200Y-133842000D01*
X140535200Y-133842000D02*
X143335200Y-133842000D01*
X143335200Y-133842000D02*
X143335200Y-131842000D01*
X101368400Y-131842000D02*
X101368400Y-133842000D01*
X104168400Y-131842000D02*
X101368400Y-131842000D01*
X104168400Y-133842000D02*
X104168400Y-131842000D01*
X101368400Y-133842000D02*
X104168400Y-133842000D01*
X174628000Y-127428500D02*
X174628000Y-125428500D01*
X171828000Y-127428500D02*
X174628000Y-127428500D01*
X171828000Y-125428500D02*
X171828000Y-127428500D01*
X174628000Y-125428500D02*
X171828000Y-125428500D01*
X168462500Y-127428500D02*
X171262500Y-127428500D01*
X171262500Y-127428500D02*
X171262500Y-125428500D01*
X171262500Y-125428500D02*
X168462500Y-125428500D01*
X168462500Y-125428500D02*
X168462500Y-127428500D01*
X228339800Y-50768100D02*
X230739800Y-50768100D01*
X230739800Y-50768100D02*
X230739800Y-48368100D01*
X230739800Y-48368100D02*
X228339800Y-48368100D01*
X228339800Y-48368100D02*
X228339800Y-50768100D01*
X171450000Y-123845000D02*
X169500000Y-123845000D01*
X171450000Y-123845000D02*
X173400000Y-123845000D01*
X171450000Y-118725000D02*
X169500000Y-118725000D01*
X171450000Y-118725000D02*
X174900000Y-118725000D01*
X151070000Y-102360000D02*
X150370000Y-102360000D01*
X150370000Y-102360000D02*
X150370000Y-101660000D01*
X163890000Y-102360000D02*
X164590000Y-102360000D01*
X164590000Y-102360000D02*
X164590000Y-101660000D01*
X151070000Y-88140000D02*
X150370000Y-88140000D01*
X150370000Y-88140000D02*
X150370000Y-88840000D01*
X163890000Y-88140000D02*
X164590000Y-88140000D01*
X164590000Y-88140000D02*
X164590000Y-88840000D01*
X164590000Y-88840000D02*
X165955000Y-88840000D01*
X209920000Y-106340000D02*
X211720000Y-106340000D01*
X211720000Y-109560000D02*
X209270000Y-109560000D01*
D14*
X202472500Y-57647500D02*
X203097500Y-57647500D01*
X202785000Y-57335000D02*
X202785000Y-57960000D01*
X206165563Y-58200000D02*
X207230000Y-59264437D01*
X202774437Y-58200000D02*
X201710000Y-59264437D01*
X202774437Y-58200000D02*
X203410000Y-58200000D01*
X206165563Y-58200000D02*
X205530000Y-58200000D01*
X207230000Y-59264437D02*
X207230000Y-63720000D01*
X201710000Y-59264437D02*
X201710000Y-63720000D01*
X201710000Y-63720000D02*
X203410000Y-63720000D01*
X207230000Y-63720000D02*
X205530000Y-63720000D01*
X214850000Y-63720000D02*
X213150000Y-63720000D01*
X209330000Y-63720000D02*
X211030000Y-63720000D01*
X209330000Y-59264437D02*
X209330000Y-63720000D01*
X214850000Y-59264437D02*
X214850000Y-63720000D01*
X213785563Y-58200000D02*
X213150000Y-58200000D01*
X210394437Y-58200000D02*
X211030000Y-58200000D01*
X210394437Y-58200000D02*
X209330000Y-59264437D01*
X213785563Y-58200000D02*
X214850000Y-59264437D01*
X210405000Y-57335000D02*
X210405000Y-57960000D01*
X210092500Y-57647500D02*
X210717500Y-57647500D01*
X196140000Y-60698748D02*
X196140000Y-61221252D01*
X197560000Y-60698748D02*
X197560000Y-61221252D01*
X142703700Y-122625000D02*
X142703700Y-125025000D01*
X142703700Y-125025000D02*
X145103700Y-125025000D01*
X145103700Y-125025000D02*
X145103700Y-122625000D01*
X145103700Y-122625000D02*
X142703700Y-122625000D01*
X145103700Y-118815000D02*
X142703700Y-118815000D01*
X145103700Y-121215000D02*
X145103700Y-118815000D01*
X142703700Y-121215000D02*
X145103700Y-121215000D01*
X142703700Y-118815000D02*
X142703700Y-121215000D01*
X200170900Y-123755000D02*
X200170900Y-121355000D01*
X200170900Y-121355000D02*
X197770900Y-121355000D01*
X197770900Y-121355000D02*
X197770900Y-123755000D01*
X197770900Y-123755000D02*
X200170900Y-123755000D01*
X221360000Y-65360000D02*
X218060000Y-65360000D01*
X218060000Y-65360000D02*
X218060000Y-58460000D01*
X221360000Y-65360000D02*
X221360000Y-58460000D01*
X200170900Y-119945000D02*
X200170900Y-117545000D01*
X200170900Y-117545000D02*
X197770900Y-117545000D01*
X197770900Y-117545000D02*
X197770900Y-119945000D01*
X197770900Y-119945000D02*
X200170900Y-119945000D01*
D15*
X219798733Y-53419066D02*
X219798733Y-53919066D01*
X219832066Y-54019066D01*
X219898733Y-54085733D01*
X219998733Y-54119066D01*
X220065400Y-54119066D01*
X219465400Y-54119066D02*
X219465400Y-53419066D01*
X219198733Y-53419066D01*
X219132066Y-53452400D01*
X219098733Y-53485733D01*
X219065400Y-53552400D01*
X219065400Y-53652400D01*
X219098733Y-53719066D01*
X219132066Y-53752400D01*
X219198733Y-53785733D01*
X219465400Y-53785733D01*
X218832066Y-53419066D02*
X218665400Y-54119066D01*
X218532066Y-53619066D01*
X218398733Y-54119066D01*
X218232066Y-53419066D01*
X217565400Y-54119066D02*
X217798733Y-53785733D01*
X217965400Y-54119066D02*
X217965400Y-53419066D01*
X217698733Y-53419066D01*
X217632066Y-53452400D01*
X217598733Y-53485733D01*
X217565400Y-53552400D01*
X217565400Y-53652400D01*
X217598733Y-53719066D01*
X217632066Y-53752400D01*
X217698733Y-53785733D01*
X217965400Y-53785733D01*
X216898733Y-54119066D02*
X217298733Y-54119066D01*
X217098733Y-54119066D02*
X217098733Y-53419066D01*
X217165400Y-53519066D01*
X217232066Y-53585733D01*
X217298733Y-53619066D01*
X211918433Y-52460866D02*
X211918433Y-52960866D01*
X211951766Y-53060866D01*
X212018433Y-53127533D01*
X212118433Y-53160866D01*
X212185100Y-53160866D01*
X211751766Y-53227533D02*
X211218433Y-53227533D01*
X210718433Y-52460866D02*
X211051766Y-52460866D01*
X211085100Y-52794200D01*
X211051766Y-52760866D01*
X210985100Y-52727533D01*
X210818433Y-52727533D01*
X210751766Y-52760866D01*
X210718433Y-52794200D01*
X210685100Y-52860866D01*
X210685100Y-53027533D01*
X210718433Y-53094200D01*
X210751766Y-53127533D01*
X210818433Y-53160866D01*
X210985100Y-53160866D01*
X211051766Y-53127533D01*
X211085100Y-53094200D01*
X210485100Y-52460866D02*
X210251766Y-53160866D01*
X210018433Y-52460866D01*
X209785100Y-52460866D02*
X209785100Y-53027533D01*
X209751766Y-53094200D01*
X209718433Y-53127533D01*
X209651766Y-53160866D01*
X209518433Y-53160866D01*
X209451766Y-53127533D01*
X209418433Y-53094200D01*
X209385100Y-53027533D01*
X209385100Y-52460866D01*
X209085100Y-53127533D02*
X208985100Y-53160866D01*
X208818433Y-53160866D01*
X208751766Y-53127533D01*
X208718433Y-53094200D01*
X208685100Y-53027533D01*
X208685100Y-52960866D01*
X208718433Y-52894200D01*
X208751766Y-52860866D01*
X208818433Y-52827533D01*
X208951766Y-52794200D01*
X209018433Y-52760866D01*
X209051766Y-52727533D01*
X209085100Y-52660866D01*
X209085100Y-52594200D01*
X209051766Y-52527533D01*
X209018433Y-52494200D01*
X208951766Y-52460866D01*
X208785100Y-52460866D01*
X208685100Y-52494200D01*
X208151766Y-52794200D02*
X208051766Y-52827533D01*
X208018433Y-52860866D01*
X207985100Y-52927533D01*
X207985100Y-53027533D01*
X208018433Y-53094200D01*
X208051766Y-53127533D01*
X208118433Y-53160866D01*
X208385100Y-53160866D01*
X208385100Y-52460866D01*
X208151766Y-52460866D01*
X208085100Y-52494200D01*
X208051766Y-52527533D01*
X208018433Y-52594200D01*
X208018433Y-52660866D01*
X208051766Y-52727533D01*
X208085100Y-52760866D01*
X208151766Y-52794200D01*
X208385100Y-52794200D01*
X207318433Y-53160866D02*
X207718433Y-53160866D01*
X207518433Y-53160866D02*
X207518433Y-52460866D01*
X207585100Y-52560866D01*
X207651766Y-52627533D01*
X207718433Y-52660866D01*
X166248500Y-119668100D02*
X166281833Y-119701433D01*
X166381833Y-119734766D01*
X166448500Y-119734766D01*
X166548500Y-119701433D01*
X166615166Y-119634766D01*
X166648500Y-119568100D01*
X166681833Y-119434766D01*
X166681833Y-119334766D01*
X166648500Y-119201433D01*
X166615166Y-119134766D01*
X166548500Y-119068100D01*
X166448500Y-119034766D01*
X166381833Y-119034766D01*
X166281833Y-119068100D01*
X166248500Y-119101433D01*
X165981833Y-119101433D02*
X165948500Y-119068100D01*
X165881833Y-119034766D01*
X165715166Y-119034766D01*
X165648500Y-119068100D01*
X165615166Y-119101433D01*
X165581833Y-119168100D01*
X165581833Y-119234766D01*
X165615166Y-119334766D01*
X166015166Y-119734766D01*
X165581833Y-119734766D01*
X165348500Y-119034766D02*
X164881833Y-119034766D01*
X165181833Y-119734766D01*
X157011533Y-134249366D02*
X157011533Y-134749366D01*
X157044866Y-134849366D01*
X157111533Y-134916033D01*
X157211533Y-134949366D01*
X157278200Y-134949366D01*
X156711533Y-134749366D02*
X156378200Y-134749366D01*
X156778200Y-134949366D02*
X156544866Y-134249366D01*
X156311533Y-134949366D01*
X156078200Y-134949366D02*
X156078200Y-134249366D01*
X155911533Y-134249366D01*
X155811533Y-134282700D01*
X155744866Y-134349366D01*
X155711533Y-134416033D01*
X155678200Y-134549366D01*
X155678200Y-134649366D01*
X155711533Y-134782700D01*
X155744866Y-134849366D01*
X155811533Y-134916033D01*
X155911533Y-134949366D01*
X156078200Y-134949366D01*
X154978200Y-134882700D02*
X155011533Y-134916033D01*
X155111533Y-134949366D01*
X155178200Y-134949366D01*
X155278200Y-134916033D01*
X155344866Y-134849366D01*
X155378200Y-134782700D01*
X155411533Y-134649366D01*
X155411533Y-134549366D01*
X155378200Y-134416033D01*
X155344866Y-134349366D01*
X155278200Y-134282700D01*
X155178200Y-134249366D01*
X155111533Y-134249366D01*
X155011533Y-134282700D01*
X154978200Y-134316033D01*
X154711533Y-134316033D02*
X154678200Y-134282700D01*
X154611533Y-134249366D01*
X154444866Y-134249366D01*
X154378200Y-134282700D01*
X154344866Y-134316033D01*
X154311533Y-134382700D01*
X154311533Y-134449366D01*
X154344866Y-134549366D01*
X154744866Y-134949366D01*
X154311533Y-134949366D01*
X215191666Y-81531666D02*
X215191666Y-82031666D01*
X215225000Y-82131666D01*
X215291666Y-82198333D01*
X215391666Y-82231666D01*
X215458333Y-82231666D01*
X215025000Y-82298333D02*
X214491666Y-82298333D01*
X214358333Y-82198333D02*
X214258333Y-82231666D01*
X214091666Y-82231666D01*
X214025000Y-82198333D01*
X213991666Y-82165000D01*
X213958333Y-82098333D01*
X213958333Y-82031666D01*
X213991666Y-81965000D01*
X214025000Y-81931666D01*
X214091666Y-81898333D01*
X214225000Y-81865000D01*
X214291666Y-81831666D01*
X214325000Y-81798333D01*
X214358333Y-81731666D01*
X214358333Y-81665000D01*
X214325000Y-81598333D01*
X214291666Y-81565000D01*
X214225000Y-81531666D01*
X214058333Y-81531666D01*
X213958333Y-81565000D01*
X213725000Y-81531666D02*
X213558333Y-82231666D01*
X213425000Y-81731666D01*
X213291666Y-82231666D01*
X213125000Y-81531666D01*
X212658333Y-81531666D02*
X212658333Y-82031666D01*
X212691666Y-82131666D01*
X212758333Y-82198333D01*
X212858333Y-82231666D01*
X212925000Y-82231666D01*
X212491666Y-82298333D02*
X211958333Y-82298333D01*
X211791666Y-82231666D02*
X211791666Y-81531666D01*
X211625000Y-81531666D01*
X211525000Y-81565000D01*
X211458333Y-81631666D01*
X211425000Y-81698333D01*
X211391666Y-81831666D01*
X211391666Y-81931666D01*
X211425000Y-82065000D01*
X211458333Y-82131666D01*
X211525000Y-82198333D01*
X211625000Y-82231666D01*
X211791666Y-82231666D01*
X210858333Y-81865000D02*
X210758333Y-81898333D01*
X210725000Y-81931666D01*
X210691666Y-81998333D01*
X210691666Y-82098333D01*
X210725000Y-82165000D01*
X210758333Y-82198333D01*
X210825000Y-82231666D01*
X211091666Y-82231666D01*
X211091666Y-81531666D01*
X210858333Y-81531666D01*
X210791666Y-81565000D01*
X210758333Y-81598333D01*
X210725000Y-81665000D01*
X210725000Y-81731666D01*
X210758333Y-81798333D01*
X210791666Y-81831666D01*
X210858333Y-81865000D01*
X211091666Y-81865000D01*
X210025000Y-82231666D02*
X210425000Y-82231666D01*
X210225000Y-82231666D02*
X210225000Y-81531666D01*
X210291666Y-81631666D01*
X210358333Y-81698333D01*
X210425000Y-81731666D01*
X199252666Y-87683666D02*
X199486000Y-87350333D01*
X199652666Y-87683666D02*
X199652666Y-86983666D01*
X199386000Y-86983666D01*
X199319333Y-87017000D01*
X199286000Y-87050333D01*
X199252666Y-87117000D01*
X199252666Y-87217000D01*
X199286000Y-87283666D01*
X199319333Y-87317000D01*
X199386000Y-87350333D01*
X199652666Y-87350333D01*
X199019333Y-86983666D02*
X198552666Y-86983666D01*
X198852666Y-87683666D01*
X206364666Y-87692666D02*
X206598000Y-87359333D01*
X206764666Y-87692666D02*
X206764666Y-86992666D01*
X206498000Y-86992666D01*
X206431333Y-87026000D01*
X206398000Y-87059333D01*
X206364666Y-87126000D01*
X206364666Y-87226000D01*
X206398000Y-87292666D01*
X206431333Y-87326000D01*
X206498000Y-87359333D01*
X206764666Y-87359333D01*
X205764666Y-86992666D02*
X205898000Y-86992666D01*
X205964666Y-87026000D01*
X205998000Y-87059333D01*
X206064666Y-87159333D01*
X206098000Y-87292666D01*
X206098000Y-87559333D01*
X206064666Y-87626000D01*
X206031333Y-87659333D01*
X205964666Y-87692666D01*
X205831333Y-87692666D01*
X205764666Y-87659333D01*
X205731333Y-87626000D01*
X205698000Y-87559333D01*
X205698000Y-87392666D01*
X205731333Y-87326000D01*
X205764666Y-87292666D01*
X205831333Y-87259333D01*
X205964666Y-87259333D01*
X206031333Y-87292666D01*
X206064666Y-87326000D01*
X206098000Y-87392666D01*
X220160000Y-67598100D02*
X220193333Y-67631433D01*
X220293333Y-67664766D01*
X220360000Y-67664766D01*
X220460000Y-67631433D01*
X220526666Y-67564766D01*
X220560000Y-67498100D01*
X220593333Y-67364766D01*
X220593333Y-67264766D01*
X220560000Y-67131433D01*
X220526666Y-67064766D01*
X220460000Y-66998100D01*
X220360000Y-66964766D01*
X220293333Y-66964766D01*
X220193333Y-66998100D01*
X220160000Y-67031433D01*
X219493333Y-67664766D02*
X219893333Y-67664766D01*
X219693333Y-67664766D02*
X219693333Y-66964766D01*
X219760000Y-67064766D01*
X219826666Y-67131433D01*
X219893333Y-67164766D01*
X219093333Y-67264766D02*
X219160000Y-67231433D01*
X219193333Y-67198100D01*
X219226666Y-67131433D01*
X219226666Y-67098100D01*
X219193333Y-67031433D01*
X219160000Y-66998100D01*
X219093333Y-66964766D01*
X218960000Y-66964766D01*
X218893333Y-66998100D01*
X218860000Y-67031433D01*
X218826666Y-67098100D01*
X218826666Y-67131433D01*
X218860000Y-67198100D01*
X218893333Y-67231433D01*
X218960000Y-67264766D01*
X219093333Y-67264766D01*
X219160000Y-67298100D01*
X219193333Y-67331433D01*
X219226666Y-67398100D01*
X219226666Y-67531433D01*
X219193333Y-67598100D01*
X219160000Y-67631433D01*
X219093333Y-67664766D01*
X218960000Y-67664766D01*
X218893333Y-67631433D01*
X218860000Y-67598100D01*
X218826666Y-67531433D01*
X218826666Y-67398100D01*
X218860000Y-67331433D01*
X218893333Y-67298100D01*
X218960000Y-67264766D01*
X207460000Y-67280600D02*
X207493333Y-67313933D01*
X207593333Y-67347266D01*
X207660000Y-67347266D01*
X207760000Y-67313933D01*
X207826666Y-67247266D01*
X207860000Y-67180600D01*
X207893333Y-67047266D01*
X207893333Y-66947266D01*
X207860000Y-66813933D01*
X207826666Y-66747266D01*
X207760000Y-66680600D01*
X207660000Y-66647266D01*
X207593333Y-66647266D01*
X207493333Y-66680600D01*
X207460000Y-66713933D01*
X207193333Y-66713933D02*
X207160000Y-66680600D01*
X207093333Y-66647266D01*
X206926666Y-66647266D01*
X206860000Y-66680600D01*
X206826666Y-66713933D01*
X206793333Y-66780600D01*
X206793333Y-66847266D01*
X206826666Y-66947266D01*
X207226666Y-67347266D01*
X206793333Y-67347266D01*
X206526666Y-66713933D02*
X206493333Y-66680600D01*
X206426666Y-66647266D01*
X206260000Y-66647266D01*
X206193333Y-66680600D01*
X206160000Y-66713933D01*
X206126666Y-66780600D01*
X206126666Y-66847266D01*
X206160000Y-66947266D01*
X206560000Y-67347266D01*
X206126666Y-67347266D01*
X216433333Y-69466666D02*
X216433333Y-70033333D01*
X216400000Y-70100000D01*
X216366666Y-70133333D01*
X216300000Y-70166666D01*
X216166666Y-70166666D01*
X216100000Y-70133333D01*
X216066666Y-70100000D01*
X216033333Y-70033333D01*
X216033333Y-69466666D01*
X215400000Y-69700000D02*
X215400000Y-70166666D01*
X215566666Y-69433333D02*
X215733333Y-69933333D01*
X215300000Y-69933333D01*
X198384166Y-66926666D02*
X197984166Y-66926666D01*
X198184166Y-67626666D02*
X198184166Y-66926666D01*
X197750833Y-67626666D02*
X197750833Y-66926666D01*
X197484166Y-66926666D01*
X197417500Y-66960000D01*
X197384166Y-66993333D01*
X197350833Y-67060000D01*
X197350833Y-67160000D01*
X197384166Y-67226666D01*
X197417500Y-67260000D01*
X197484166Y-67293333D01*
X197750833Y-67293333D01*
X196684166Y-67626666D02*
X197084166Y-67626666D01*
X196884166Y-67626666D02*
X196884166Y-66926666D01*
X196950833Y-67026666D01*
X197017500Y-67093333D01*
X197084166Y-67126666D01*
X196350833Y-67626666D02*
X196217500Y-67626666D01*
X196150833Y-67593333D01*
X196117500Y-67560000D01*
X196050833Y-67460000D01*
X196017500Y-67326666D01*
X196017500Y-67060000D01*
X196050833Y-66993333D01*
X196084166Y-66960000D01*
X196150833Y-66926666D01*
X196284166Y-66926666D01*
X196350833Y-66960000D01*
X196384166Y-66993333D01*
X196417500Y-67060000D01*
X196417500Y-67226666D01*
X196384166Y-67293333D01*
X196350833Y-67326666D01*
X196284166Y-67360000D01*
X196150833Y-67360000D01*
X196084166Y-67326666D01*
X196050833Y-67293333D01*
X196017500Y-67226666D01*
X179651666Y-88516666D02*
X179251666Y-88516666D01*
X179451666Y-89216666D02*
X179451666Y-88516666D01*
X179018333Y-89216666D02*
X179018333Y-88516666D01*
X178751666Y-88516666D01*
X178685000Y-88550000D01*
X178651666Y-88583333D01*
X178618333Y-88650000D01*
X178618333Y-88750000D01*
X178651666Y-88816666D01*
X178685000Y-88850000D01*
X178751666Y-88883333D01*
X179018333Y-88883333D01*
X178351666Y-88583333D02*
X178318333Y-88550000D01*
X178251666Y-88516666D01*
X178085000Y-88516666D01*
X178018333Y-88550000D01*
X177985000Y-88583333D01*
X177951666Y-88650000D01*
X177951666Y-88716666D01*
X177985000Y-88816666D01*
X178385000Y-89216666D01*
X177951666Y-89216666D01*
X177518333Y-88516666D02*
X177451666Y-88516666D01*
X177385000Y-88550000D01*
X177351666Y-88583333D01*
X177318333Y-88650000D01*
X177285000Y-88783333D01*
X177285000Y-88950000D01*
X177318333Y-89083333D01*
X177351666Y-89150000D01*
X177385000Y-89183333D01*
X177451666Y-89216666D01*
X177518333Y-89216666D01*
X177585000Y-89183333D01*
X177618333Y-89150000D01*
X177651666Y-89083333D01*
X177685000Y-88950000D01*
X177685000Y-88783333D01*
X177651666Y-88650000D01*
X177618333Y-88583333D01*
X177585000Y-88550000D01*
X177518333Y-88516666D01*
X183461666Y-85976666D02*
X183061666Y-85976666D01*
X183261666Y-86676666D02*
X183261666Y-85976666D01*
X182828333Y-86676666D02*
X182828333Y-85976666D01*
X182561666Y-85976666D01*
X182495000Y-86010000D01*
X182461666Y-86043333D01*
X182428333Y-86110000D01*
X182428333Y-86210000D01*
X182461666Y-86276666D01*
X182495000Y-86310000D01*
X182561666Y-86343333D01*
X182828333Y-86343333D01*
X182161666Y-86043333D02*
X182128333Y-86010000D01*
X182061666Y-85976666D01*
X181895000Y-85976666D01*
X181828333Y-86010000D01*
X181795000Y-86043333D01*
X181761666Y-86110000D01*
X181761666Y-86176666D01*
X181795000Y-86276666D01*
X182195000Y-86676666D01*
X181761666Y-86676666D01*
X181095000Y-86676666D02*
X181495000Y-86676666D01*
X181295000Y-86676666D02*
X181295000Y-85976666D01*
X181361666Y-86076666D01*
X181428333Y-86143333D01*
X181495000Y-86176666D01*
X221434666Y-94485666D02*
X221034666Y-94485666D01*
X221234666Y-95185666D02*
X221234666Y-94485666D01*
X220801333Y-95185666D02*
X220801333Y-94485666D01*
X220534666Y-94485666D01*
X220468000Y-94519000D01*
X220434666Y-94552333D01*
X220401333Y-94619000D01*
X220401333Y-94719000D01*
X220434666Y-94785666D01*
X220468000Y-94819000D01*
X220534666Y-94852333D01*
X220801333Y-94852333D01*
X220134666Y-94552333D02*
X220101333Y-94519000D01*
X220034666Y-94485666D01*
X219868000Y-94485666D01*
X219801333Y-94519000D01*
X219768000Y-94552333D01*
X219734666Y-94619000D01*
X219734666Y-94685666D01*
X219768000Y-94785666D01*
X220168000Y-95185666D01*
X219734666Y-95185666D01*
X219468000Y-94552333D02*
X219434666Y-94519000D01*
X219368000Y-94485666D01*
X219201333Y-94485666D01*
X219134666Y-94519000D01*
X219101333Y-94552333D01*
X219068000Y-94619000D01*
X219068000Y-94685666D01*
X219101333Y-94785666D01*
X219501333Y-95185666D01*
X219068000Y-95185666D01*
X221434666Y-89405666D02*
X221034666Y-89405666D01*
X221234666Y-90105666D02*
X221234666Y-89405666D01*
X220801333Y-90105666D02*
X220801333Y-89405666D01*
X220534666Y-89405666D01*
X220468000Y-89439000D01*
X220434666Y-89472333D01*
X220401333Y-89539000D01*
X220401333Y-89639000D01*
X220434666Y-89705666D01*
X220468000Y-89739000D01*
X220534666Y-89772333D01*
X220801333Y-89772333D01*
X220134666Y-89472333D02*
X220101333Y-89439000D01*
X220034666Y-89405666D01*
X219868000Y-89405666D01*
X219801333Y-89439000D01*
X219768000Y-89472333D01*
X219734666Y-89539000D01*
X219734666Y-89605666D01*
X219768000Y-89705666D01*
X220168000Y-90105666D01*
X219734666Y-90105666D01*
X219501333Y-89405666D02*
X219068000Y-89405666D01*
X219301333Y-89672333D01*
X219201333Y-89672333D01*
X219134666Y-89705666D01*
X219101333Y-89739000D01*
X219068000Y-89805666D01*
X219068000Y-89972333D01*
X219101333Y-90039000D01*
X219134666Y-90072333D01*
X219201333Y-90105666D01*
X219401333Y-90105666D01*
X219468000Y-90072333D01*
X219501333Y-90039000D01*
X182191666Y-96136666D02*
X181791666Y-96136666D01*
X181991666Y-96836666D02*
X181991666Y-96136666D01*
X181558333Y-96836666D02*
X181558333Y-96136666D01*
X181291666Y-96136666D01*
X181225000Y-96170000D01*
X181191666Y-96203333D01*
X181158333Y-96270000D01*
X181158333Y-96370000D01*
X181191666Y-96436666D01*
X181225000Y-96470000D01*
X181291666Y-96503333D01*
X181558333Y-96503333D01*
X180891666Y-96203333D02*
X180858333Y-96170000D01*
X180791666Y-96136666D01*
X180625000Y-96136666D01*
X180558333Y-96170000D01*
X180525000Y-96203333D01*
X180491666Y-96270000D01*
X180491666Y-96336666D01*
X180525000Y-96436666D01*
X180925000Y-96836666D01*
X180491666Y-96836666D01*
X179891666Y-96370000D02*
X179891666Y-96836666D01*
X180058333Y-96103333D02*
X180225000Y-96603333D01*
X179791666Y-96603333D01*
X221434666Y-84325666D02*
X221034666Y-84325666D01*
X221234666Y-85025666D02*
X221234666Y-84325666D01*
X220801333Y-85025666D02*
X220801333Y-84325666D01*
X220534666Y-84325666D01*
X220468000Y-84359000D01*
X220434666Y-84392333D01*
X220401333Y-84459000D01*
X220401333Y-84559000D01*
X220434666Y-84625666D01*
X220468000Y-84659000D01*
X220534666Y-84692333D01*
X220801333Y-84692333D01*
X220134666Y-84392333D02*
X220101333Y-84359000D01*
X220034666Y-84325666D01*
X219868000Y-84325666D01*
X219801333Y-84359000D01*
X219768000Y-84392333D01*
X219734666Y-84459000D01*
X219734666Y-84525666D01*
X219768000Y-84625666D01*
X220168000Y-85025666D01*
X219734666Y-85025666D01*
X219101333Y-84325666D02*
X219434666Y-84325666D01*
X219468000Y-84659000D01*
X219434666Y-84625666D01*
X219368000Y-84592333D01*
X219201333Y-84592333D01*
X219134666Y-84625666D01*
X219101333Y-84659000D01*
X219068000Y-84725666D01*
X219068000Y-84892333D01*
X219101333Y-84959000D01*
X219134666Y-84992333D01*
X219201333Y-85025666D01*
X219368000Y-85025666D01*
X219434666Y-84992333D01*
X219468000Y-84959000D01*
X198337333Y-70673166D02*
X197937333Y-70673166D01*
X198137333Y-71373166D02*
X198137333Y-70673166D01*
X197704000Y-71373166D02*
X197704000Y-70673166D01*
X197437333Y-70673166D01*
X197370666Y-70706500D01*
X197337333Y-70739833D01*
X197304000Y-70806500D01*
X197304000Y-70906500D01*
X197337333Y-70973166D01*
X197370666Y-71006500D01*
X197437333Y-71039833D01*
X197704000Y-71039833D01*
X196637333Y-70706500D02*
X196704000Y-70673166D01*
X196804000Y-70673166D01*
X196904000Y-70706500D01*
X196970666Y-70773166D01*
X197004000Y-70839833D01*
X197037333Y-70973166D01*
X197037333Y-71073166D01*
X197004000Y-71206500D01*
X196970666Y-71273166D01*
X196904000Y-71339833D01*
X196804000Y-71373166D01*
X196737333Y-71373166D01*
X196637333Y-71339833D01*
X196604000Y-71306500D01*
X196604000Y-71073166D01*
X196737333Y-71073166D01*
X195937333Y-71373166D02*
X196337333Y-71373166D01*
X196137333Y-71373166D02*
X196137333Y-70673166D01*
X196204000Y-70773166D01*
X196270666Y-70839833D01*
X196337333Y-70873166D01*
X179668333Y-92326666D02*
X179268333Y-92326666D01*
X179468333Y-93026666D02*
X179468333Y-92326666D01*
X179035000Y-93026666D02*
X179035000Y-92326666D01*
X178768333Y-92326666D01*
X178701666Y-92360000D01*
X178668333Y-92393333D01*
X178635000Y-92460000D01*
X178635000Y-92560000D01*
X178668333Y-92626666D01*
X178701666Y-92660000D01*
X178768333Y-92693333D01*
X179035000Y-92693333D01*
X177968333Y-92360000D02*
X178035000Y-92326666D01*
X178135000Y-92326666D01*
X178235000Y-92360000D01*
X178301666Y-92426666D01*
X178335000Y-92493333D01*
X178368333Y-92626666D01*
X178368333Y-92726666D01*
X178335000Y-92860000D01*
X178301666Y-92926666D01*
X178235000Y-92993333D01*
X178135000Y-93026666D01*
X178068333Y-93026666D01*
X177968333Y-92993333D01*
X177935000Y-92960000D01*
X177935000Y-92726666D01*
X178068333Y-92726666D01*
X177668333Y-92393333D02*
X177635000Y-92360000D01*
X177568333Y-92326666D01*
X177401666Y-92326666D01*
X177335000Y-92360000D01*
X177301666Y-92393333D01*
X177268333Y-92460000D01*
X177268333Y-92526666D01*
X177301666Y-92626666D01*
X177701666Y-93026666D01*
X177268333Y-93026666D01*
X235294333Y-46606666D02*
X234894333Y-46606666D01*
X235094333Y-47306666D02*
X235094333Y-46606666D01*
X234661000Y-47306666D02*
X234661000Y-46606666D01*
X234394333Y-46606666D01*
X234327666Y-46640000D01*
X234294333Y-46673333D01*
X234261000Y-46740000D01*
X234261000Y-46840000D01*
X234294333Y-46906666D01*
X234327666Y-46940000D01*
X234394333Y-46973333D01*
X234661000Y-46973333D01*
X233594333Y-46640000D02*
X233661000Y-46606666D01*
X233761000Y-46606666D01*
X233861000Y-46640000D01*
X233927666Y-46706666D01*
X233961000Y-46773333D01*
X233994333Y-46906666D01*
X233994333Y-47006666D01*
X233961000Y-47140000D01*
X233927666Y-47206666D01*
X233861000Y-47273333D01*
X233761000Y-47306666D01*
X233694333Y-47306666D01*
X233594333Y-47273333D01*
X233561000Y-47240000D01*
X233561000Y-47006666D01*
X233694333Y-47006666D01*
X233327666Y-46606666D02*
X232894333Y-46606666D01*
X233127666Y-46873333D01*
X233027666Y-46873333D01*
X232961000Y-46906666D01*
X232927666Y-46940000D01*
X232894333Y-47006666D01*
X232894333Y-47173333D01*
X232927666Y-47240000D01*
X232961000Y-47273333D01*
X233027666Y-47306666D01*
X233227666Y-47306666D01*
X233294333Y-47273333D01*
X233327666Y-47240000D01*
X225007333Y-111313166D02*
X224607333Y-111313166D01*
X224807333Y-112013166D02*
X224807333Y-111313166D01*
X224374000Y-112013166D02*
X224374000Y-111313166D01*
X224107333Y-111313166D01*
X224040666Y-111346500D01*
X224007333Y-111379833D01*
X223974000Y-111446500D01*
X223974000Y-111546500D01*
X224007333Y-111613166D01*
X224040666Y-111646500D01*
X224107333Y-111679833D01*
X224374000Y-111679833D01*
X223307333Y-111346500D02*
X223374000Y-111313166D01*
X223474000Y-111313166D01*
X223574000Y-111346500D01*
X223640666Y-111413166D01*
X223674000Y-111479833D01*
X223707333Y-111613166D01*
X223707333Y-111713166D01*
X223674000Y-111846500D01*
X223640666Y-111913166D01*
X223574000Y-111979833D01*
X223474000Y-112013166D01*
X223407333Y-112013166D01*
X223307333Y-111979833D01*
X223274000Y-111946500D01*
X223274000Y-111713166D01*
X223407333Y-111713166D01*
X222674000Y-111546500D02*
X222674000Y-112013166D01*
X222840666Y-111279833D02*
X223007333Y-111779833D01*
X222574000Y-111779833D01*
X183478333Y-82166666D02*
X183078333Y-82166666D01*
X183278333Y-82866666D02*
X183278333Y-82166666D01*
X182845000Y-82866666D02*
X182845000Y-82166666D01*
X182578333Y-82166666D01*
X182511666Y-82200000D01*
X182478333Y-82233333D01*
X182445000Y-82300000D01*
X182445000Y-82400000D01*
X182478333Y-82466666D01*
X182511666Y-82500000D01*
X182578333Y-82533333D01*
X182845000Y-82533333D01*
X181778333Y-82200000D02*
X181845000Y-82166666D01*
X181945000Y-82166666D01*
X182045000Y-82200000D01*
X182111666Y-82266666D01*
X182145000Y-82333333D01*
X182178333Y-82466666D01*
X182178333Y-82566666D01*
X182145000Y-82700000D01*
X182111666Y-82766666D01*
X182045000Y-82833333D01*
X181945000Y-82866666D01*
X181878333Y-82866666D01*
X181778333Y-82833333D01*
X181745000Y-82800000D01*
X181745000Y-82566666D01*
X181878333Y-82566666D01*
X181111666Y-82166666D02*
X181445000Y-82166666D01*
X181478333Y-82500000D01*
X181445000Y-82466666D01*
X181378333Y-82433333D01*
X181211666Y-82433333D01*
X181145000Y-82466666D01*
X181111666Y-82500000D01*
X181078333Y-82566666D01*
X181078333Y-82733333D01*
X181111666Y-82800000D01*
X181145000Y-82833333D01*
X181211666Y-82866666D01*
X181378333Y-82866666D01*
X181445000Y-82833333D01*
X181478333Y-82800000D01*
X182208333Y-99946666D02*
X181808333Y-99946666D01*
X182008333Y-100646666D02*
X182008333Y-99946666D01*
X181575000Y-100646666D02*
X181575000Y-99946666D01*
X181308333Y-99946666D01*
X181241666Y-99980000D01*
X181208333Y-100013333D01*
X181175000Y-100080000D01*
X181175000Y-100180000D01*
X181208333Y-100246666D01*
X181241666Y-100280000D01*
X181308333Y-100313333D01*
X181575000Y-100313333D01*
X180508333Y-99980000D02*
X180575000Y-99946666D01*
X180675000Y-99946666D01*
X180775000Y-99980000D01*
X180841666Y-100046666D01*
X180875000Y-100113333D01*
X180908333Y-100246666D01*
X180908333Y-100346666D01*
X180875000Y-100480000D01*
X180841666Y-100546666D01*
X180775000Y-100613333D01*
X180675000Y-100646666D01*
X180608333Y-100646666D01*
X180508333Y-100613333D01*
X180475000Y-100580000D01*
X180475000Y-100346666D01*
X180608333Y-100346666D01*
X179875000Y-99946666D02*
X180008333Y-99946666D01*
X180075000Y-99980000D01*
X180108333Y-100013333D01*
X180175000Y-100113333D01*
X180208333Y-100246666D01*
X180208333Y-100513333D01*
X180175000Y-100580000D01*
X180141666Y-100613333D01*
X180075000Y-100646666D01*
X179941666Y-100646666D01*
X179875000Y-100613333D01*
X179841666Y-100580000D01*
X179808333Y-100513333D01*
X179808333Y-100346666D01*
X179841666Y-100280000D01*
X179875000Y-100246666D01*
X179941666Y-100213333D01*
X180075000Y-100213333D01*
X180141666Y-100246666D01*
X180175000Y-100280000D01*
X180208333Y-100346666D01*
X203040400Y-87676800D02*
X203073733Y-87710133D01*
X203173733Y-87743466D01*
X203240400Y-87743466D01*
X203340400Y-87710133D01*
X203407066Y-87643466D01*
X203440400Y-87576800D01*
X203473733Y-87443466D01*
X203473733Y-87343466D01*
X203440400Y-87210133D01*
X203407066Y-87143466D01*
X203340400Y-87076800D01*
X203240400Y-87043466D01*
X203173733Y-87043466D01*
X203073733Y-87076800D01*
X203040400Y-87110133D01*
X202773733Y-87110133D02*
X202740400Y-87076800D01*
X202673733Y-87043466D01*
X202507066Y-87043466D01*
X202440400Y-87076800D01*
X202407066Y-87110133D01*
X202373733Y-87176800D01*
X202373733Y-87243466D01*
X202407066Y-87343466D01*
X202807066Y-87743466D01*
X202373733Y-87743466D01*
X201773733Y-87276800D02*
X201773733Y-87743466D01*
X201940400Y-87010133D02*
X202107066Y-87510133D01*
X201673733Y-87510133D01*
X206698000Y-98294000D02*
X206731333Y-98327333D01*
X206831333Y-98360666D01*
X206898000Y-98360666D01*
X206998000Y-98327333D01*
X207064666Y-98260666D01*
X207098000Y-98194000D01*
X207131333Y-98060666D01*
X207131333Y-97960666D01*
X207098000Y-97827333D01*
X207064666Y-97760666D01*
X206998000Y-97694000D01*
X206898000Y-97660666D01*
X206831333Y-97660666D01*
X206731333Y-97694000D01*
X206698000Y-97727333D01*
X206431333Y-97727333D02*
X206398000Y-97694000D01*
X206331333Y-97660666D01*
X206164666Y-97660666D01*
X206098000Y-97694000D01*
X206064666Y-97727333D01*
X206031333Y-97794000D01*
X206031333Y-97860666D01*
X206064666Y-97960666D01*
X206464666Y-98360666D01*
X206031333Y-98360666D01*
X205398000Y-97660666D02*
X205731333Y-97660666D01*
X205764666Y-97994000D01*
X205731333Y-97960666D01*
X205664666Y-97927333D01*
X205498000Y-97927333D01*
X205431333Y-97960666D01*
X205398000Y-97994000D01*
X205364666Y-98060666D01*
X205364666Y-98227333D01*
X205398000Y-98294000D01*
X205431333Y-98327333D01*
X205498000Y-98360666D01*
X205664666Y-98360666D01*
X205731333Y-98327333D01*
X205764666Y-98294000D01*
X187453433Y-134223966D02*
X187453433Y-134723966D01*
X187486766Y-134823966D01*
X187553433Y-134890633D01*
X187653433Y-134923966D01*
X187720100Y-134923966D01*
X187153433Y-134723966D02*
X186820100Y-134723966D01*
X187220100Y-134923966D02*
X186986766Y-134223966D01*
X186753433Y-134923966D01*
X186520100Y-134923966D02*
X186520100Y-134223966D01*
X186353433Y-134223966D01*
X186253433Y-134257300D01*
X186186766Y-134323966D01*
X186153433Y-134390633D01*
X186120100Y-134523966D01*
X186120100Y-134623966D01*
X186153433Y-134757300D01*
X186186766Y-134823966D01*
X186253433Y-134890633D01*
X186353433Y-134923966D01*
X186520100Y-134923966D01*
X185420100Y-134857300D02*
X185453433Y-134890633D01*
X185553433Y-134923966D01*
X185620100Y-134923966D01*
X185720100Y-134890633D01*
X185786766Y-134823966D01*
X185820100Y-134757300D01*
X185853433Y-134623966D01*
X185853433Y-134523966D01*
X185820100Y-134390633D01*
X185786766Y-134323966D01*
X185720100Y-134257300D01*
X185620100Y-134223966D01*
X185553433Y-134223966D01*
X185453433Y-134257300D01*
X185420100Y-134290633D01*
X184753433Y-134923966D02*
X185153433Y-134923966D01*
X184953433Y-134923966D02*
X184953433Y-134223966D01*
X185020100Y-134323966D01*
X185086766Y-134390633D01*
X185153433Y-134423966D01*
X174179666Y-101407133D02*
X174179666Y-101073800D01*
X173479666Y-101073800D01*
X174179666Y-102007133D02*
X174179666Y-101607133D01*
X174179666Y-101807133D02*
X173479666Y-101807133D01*
X173579666Y-101740466D01*
X173646333Y-101673800D01*
X173679666Y-101607133D01*
X195218733Y-124889466D02*
X194818733Y-124889466D01*
X195018733Y-125589466D02*
X195018733Y-124889466D01*
X194585400Y-125589466D02*
X194585400Y-124889466D01*
X194318733Y-124889466D01*
X194252066Y-124922800D01*
X194218733Y-124956133D01*
X194185400Y-125022800D01*
X194185400Y-125122800D01*
X194218733Y-125189466D01*
X194252066Y-125222800D01*
X194318733Y-125256133D01*
X194585400Y-125256133D01*
X193918733Y-124956133D02*
X193885400Y-124922800D01*
X193818733Y-124889466D01*
X193652066Y-124889466D01*
X193585400Y-124922800D01*
X193552066Y-124956133D01*
X193518733Y-125022800D01*
X193518733Y-125089466D01*
X193552066Y-125189466D01*
X193952066Y-125589466D01*
X193518733Y-125589466D01*
X149498733Y-125664166D02*
X149098733Y-125664166D01*
X149298733Y-126364166D02*
X149298733Y-125664166D01*
X148865400Y-126364166D02*
X148865400Y-125664166D01*
X148598733Y-125664166D01*
X148532066Y-125697500D01*
X148498733Y-125730833D01*
X148465400Y-125797500D01*
X148465400Y-125897500D01*
X148498733Y-125964166D01*
X148532066Y-125997500D01*
X148598733Y-126030833D01*
X148865400Y-126030833D01*
X147798733Y-126364166D02*
X148198733Y-126364166D01*
X147998733Y-126364166D02*
X147998733Y-125664166D01*
X148065400Y-125764166D01*
X148132066Y-125830833D01*
X148198733Y-125864166D01*
X195615566Y-116113766D02*
X195215566Y-116113766D01*
X195415566Y-116813766D02*
X195415566Y-116113766D01*
X194982233Y-116813766D02*
X194982233Y-116113766D01*
X194715566Y-116113766D01*
X194648900Y-116147100D01*
X194615566Y-116180433D01*
X194582233Y-116247100D01*
X194582233Y-116347100D01*
X194615566Y-116413766D01*
X194648900Y-116447100D01*
X194715566Y-116480433D01*
X194982233Y-116480433D01*
X193915566Y-116813766D02*
X194315566Y-116813766D01*
X194115566Y-116813766D02*
X194115566Y-116113766D01*
X194182233Y-116213766D01*
X194248900Y-116280433D01*
X194315566Y-116313766D01*
X193482233Y-116113766D02*
X193415566Y-116113766D01*
X193348900Y-116147100D01*
X193315566Y-116180433D01*
X193282233Y-116247100D01*
X193248900Y-116380433D01*
X193248900Y-116547100D01*
X193282233Y-116680433D01*
X193315566Y-116747100D01*
X193348900Y-116780433D01*
X193415566Y-116813766D01*
X193482233Y-116813766D01*
X193548900Y-116780433D01*
X193582233Y-116747100D01*
X193615566Y-116680433D01*
X193648900Y-116547100D01*
X193648900Y-116380433D01*
X193615566Y-116247100D01*
X193582233Y-116180433D01*
X193548900Y-116147100D01*
X193482233Y-116113766D01*
X149806666Y-117599666D02*
X149406666Y-117599666D01*
X149606666Y-118299666D02*
X149606666Y-117599666D01*
X149173333Y-118299666D02*
X149173333Y-117599666D01*
X148906666Y-117599666D01*
X148840000Y-117633000D01*
X148806666Y-117666333D01*
X148773333Y-117733000D01*
X148773333Y-117833000D01*
X148806666Y-117899666D01*
X148840000Y-117933000D01*
X148906666Y-117966333D01*
X149173333Y-117966333D01*
X148106666Y-118299666D02*
X148506666Y-118299666D01*
X148306666Y-118299666D02*
X148306666Y-117599666D01*
X148373333Y-117699666D01*
X148440000Y-117766333D01*
X148506666Y-117799666D01*
X147440000Y-118299666D02*
X147840000Y-118299666D01*
X147640000Y-118299666D02*
X147640000Y-117599666D01*
X147706666Y-117699666D01*
X147773333Y-117766333D01*
X147840000Y-117799666D01*
X203650000Y-103905000D02*
X203683333Y-103938333D01*
X203783333Y-103971666D01*
X203850000Y-103971666D01*
X203950000Y-103938333D01*
X204016666Y-103871666D01*
X204050000Y-103805000D01*
X204083333Y-103671666D01*
X204083333Y-103571666D01*
X204050000Y-103438333D01*
X204016666Y-103371666D01*
X203950000Y-103305000D01*
X203850000Y-103271666D01*
X203783333Y-103271666D01*
X203683333Y-103305000D01*
X203650000Y-103338333D01*
X202983333Y-103971666D02*
X203383333Y-103971666D01*
X203183333Y-103971666D02*
X203183333Y-103271666D01*
X203250000Y-103371666D01*
X203316666Y-103438333D01*
X203383333Y-103471666D01*
X202750000Y-103271666D02*
X202283333Y-103271666D01*
X202583333Y-103971666D01*
X218890000Y-104834500D02*
X218923333Y-104867833D01*
X219023333Y-104901166D01*
X219090000Y-104901166D01*
X219190000Y-104867833D01*
X219256666Y-104801166D01*
X219290000Y-104734500D01*
X219323333Y-104601166D01*
X219323333Y-104501166D01*
X219290000Y-104367833D01*
X219256666Y-104301166D01*
X219190000Y-104234500D01*
X219090000Y-104201166D01*
X219023333Y-104201166D01*
X218923333Y-104234500D01*
X218890000Y-104267833D01*
X218623333Y-104267833D02*
X218590000Y-104234500D01*
X218523333Y-104201166D01*
X218356666Y-104201166D01*
X218290000Y-104234500D01*
X218256666Y-104267833D01*
X218223333Y-104334500D01*
X218223333Y-104401166D01*
X218256666Y-104501166D01*
X218656666Y-104901166D01*
X218223333Y-104901166D01*
X217556666Y-104901166D02*
X217956666Y-104901166D01*
X217756666Y-104901166D02*
X217756666Y-104201166D01*
X217823333Y-104301166D01*
X217890000Y-104367833D01*
X217956666Y-104401166D01*
X219656666Y-111376666D02*
X219256666Y-111376666D01*
X219456666Y-112076666D02*
X219456666Y-111376666D01*
X219023333Y-112076666D02*
X219023333Y-111376666D01*
X218756666Y-111376666D01*
X218690000Y-111410000D01*
X218656666Y-111443333D01*
X218623333Y-111510000D01*
X218623333Y-111610000D01*
X218656666Y-111676666D01*
X218690000Y-111710000D01*
X218756666Y-111743333D01*
X219023333Y-111743333D01*
X217956666Y-112076666D02*
X218356666Y-112076666D01*
X218156666Y-112076666D02*
X218156666Y-111376666D01*
X218223333Y-111476666D01*
X218290000Y-111543333D01*
X218356666Y-111576666D01*
X217556666Y-111676666D02*
X217623333Y-111643333D01*
X217656666Y-111610000D01*
X217690000Y-111543333D01*
X217690000Y-111510000D01*
X217656666Y-111443333D01*
X217623333Y-111410000D01*
X217556666Y-111376666D01*
X217423333Y-111376666D01*
X217356666Y-111410000D01*
X217323333Y-111443333D01*
X217290000Y-111510000D01*
X217290000Y-111543333D01*
X217323333Y-111610000D01*
X217356666Y-111643333D01*
X217423333Y-111676666D01*
X217556666Y-111676666D01*
X217623333Y-111710000D01*
X217656666Y-111743333D01*
X217690000Y-111810000D01*
X217690000Y-111943333D01*
X217656666Y-112010000D01*
X217623333Y-112043333D01*
X217556666Y-112076666D01*
X217423333Y-112076666D01*
X217356666Y-112043333D01*
X217323333Y-112010000D01*
X217290000Y-111943333D01*
X217290000Y-111810000D01*
X217323333Y-111743333D01*
X217356666Y-111710000D01*
X217423333Y-111676666D01*
X225414666Y-97776466D02*
X225748000Y-97776466D01*
X225748000Y-97076466D01*
X225214666Y-97143133D02*
X225181333Y-97109800D01*
X225114666Y-97076466D01*
X224948000Y-97076466D01*
X224881333Y-97109800D01*
X224848000Y-97143133D01*
X224814666Y-97209800D01*
X224814666Y-97276466D01*
X224848000Y-97376466D01*
X225248000Y-97776466D01*
X224814666Y-97776466D01*
X136310533Y-134300166D02*
X136310533Y-134800166D01*
X136343866Y-134900166D01*
X136410533Y-134966833D01*
X136510533Y-135000166D01*
X136577200Y-135000166D01*
X135977200Y-135000166D02*
X135977200Y-134300166D01*
X135810533Y-134300166D01*
X135710533Y-134333500D01*
X135643866Y-134400166D01*
X135610533Y-134466833D01*
X135577200Y-134600166D01*
X135577200Y-134700166D01*
X135610533Y-134833500D01*
X135643866Y-134900166D01*
X135710533Y-134966833D01*
X135810533Y-135000166D01*
X135977200Y-135000166D01*
X135310533Y-134800166D02*
X134977200Y-134800166D01*
X135377200Y-135000166D02*
X135143866Y-134300166D01*
X134910533Y-135000166D01*
X134277200Y-134933500D02*
X134310533Y-134966833D01*
X134410533Y-135000166D01*
X134477200Y-135000166D01*
X134577200Y-134966833D01*
X134643866Y-134900166D01*
X134677200Y-134833500D01*
X134710533Y-134700166D01*
X134710533Y-134600166D01*
X134677200Y-134466833D01*
X134643866Y-134400166D01*
X134577200Y-134333500D01*
X134477200Y-134300166D01*
X134410533Y-134300166D01*
X134310533Y-134333500D01*
X134277200Y-134366833D01*
X134043866Y-134300166D02*
X133610533Y-134300166D01*
X133843866Y-134566833D01*
X133743866Y-134566833D01*
X133677200Y-134600166D01*
X133643866Y-134633500D01*
X133610533Y-134700166D01*
X133610533Y-134866833D01*
X133643866Y-134933500D01*
X133677200Y-134966833D01*
X133743866Y-135000166D01*
X133943866Y-135000166D01*
X134010533Y-134966833D01*
X134043866Y-134933500D01*
X111621733Y-134236666D02*
X111621733Y-134736666D01*
X111655066Y-134836666D01*
X111721733Y-134903333D01*
X111821733Y-134936666D01*
X111888400Y-134936666D01*
X111288400Y-134936666D02*
X111288400Y-134236666D01*
X111121733Y-134236666D01*
X111021733Y-134270000D01*
X110955066Y-134336666D01*
X110921733Y-134403333D01*
X110888400Y-134536666D01*
X110888400Y-134636666D01*
X110921733Y-134770000D01*
X110955066Y-134836666D01*
X111021733Y-134903333D01*
X111121733Y-134936666D01*
X111288400Y-134936666D01*
X110621733Y-134736666D02*
X110288400Y-134736666D01*
X110688400Y-134936666D02*
X110455066Y-134236666D01*
X110221733Y-134936666D01*
X109588400Y-134870000D02*
X109621733Y-134903333D01*
X109721733Y-134936666D01*
X109788400Y-134936666D01*
X109888400Y-134903333D01*
X109955066Y-134836666D01*
X109988400Y-134770000D01*
X110021733Y-134636666D01*
X110021733Y-134536666D01*
X109988400Y-134403333D01*
X109955066Y-134336666D01*
X109888400Y-134270000D01*
X109788400Y-134236666D01*
X109721733Y-134236666D01*
X109621733Y-134270000D01*
X109588400Y-134303333D01*
X108988400Y-134470000D02*
X108988400Y-134936666D01*
X109155066Y-134203333D02*
X109321733Y-134703333D01*
X108888400Y-134703333D01*
X180516933Y-134147766D02*
X180516933Y-134647766D01*
X180550266Y-134747766D01*
X180616933Y-134814433D01*
X180716933Y-134847766D01*
X180783600Y-134847766D01*
X180183600Y-134847766D02*
X180183600Y-134147766D01*
X179916933Y-134147766D01*
X179850266Y-134181100D01*
X179816933Y-134214433D01*
X179783600Y-134281100D01*
X179783600Y-134381100D01*
X179816933Y-134447766D01*
X179850266Y-134481100D01*
X179916933Y-134514433D01*
X180183600Y-134514433D01*
X179116933Y-134847766D02*
X179516933Y-134847766D01*
X179316933Y-134847766D02*
X179316933Y-134147766D01*
X179383600Y-134247766D01*
X179450266Y-134314433D01*
X179516933Y-134347766D01*
X162457533Y-134122366D02*
X162457533Y-134622366D01*
X162490866Y-134722366D01*
X162557533Y-134789033D01*
X162657533Y-134822366D01*
X162724200Y-134822366D01*
X162124200Y-134822366D02*
X162124200Y-134122366D01*
X161857533Y-134122366D01*
X161790866Y-134155700D01*
X161757533Y-134189033D01*
X161724200Y-134255700D01*
X161724200Y-134355700D01*
X161757533Y-134422366D01*
X161790866Y-134455700D01*
X161857533Y-134489033D01*
X162124200Y-134489033D01*
X161457533Y-134189033D02*
X161424200Y-134155700D01*
X161357533Y-134122366D01*
X161190866Y-134122366D01*
X161124200Y-134155700D01*
X161090866Y-134189033D01*
X161057533Y-134255700D01*
X161057533Y-134322366D01*
X161090866Y-134422366D01*
X161490866Y-134822366D01*
X161057533Y-134822366D01*
X142518533Y-134300166D02*
X142518533Y-134800166D01*
X142551866Y-134900166D01*
X142618533Y-134966833D01*
X142718533Y-135000166D01*
X142785200Y-135000166D01*
X142185200Y-135000166D02*
X142185200Y-134300166D01*
X141918533Y-134300166D01*
X141851866Y-134333500D01*
X141818533Y-134366833D01*
X141785200Y-134433500D01*
X141785200Y-134533500D01*
X141818533Y-134600166D01*
X141851866Y-134633500D01*
X141918533Y-134666833D01*
X142185200Y-134666833D01*
X141551866Y-134300166D02*
X141118533Y-134300166D01*
X141351866Y-134566833D01*
X141251866Y-134566833D01*
X141185200Y-134600166D01*
X141151866Y-134633500D01*
X141118533Y-134700166D01*
X141118533Y-134866833D01*
X141151866Y-134933500D01*
X141185200Y-134966833D01*
X141251866Y-135000166D01*
X141451866Y-135000166D01*
X141518533Y-134966833D01*
X141551866Y-134933500D01*
X103351733Y-134363666D02*
X103351733Y-134863666D01*
X103385066Y-134963666D01*
X103451733Y-135030333D01*
X103551733Y-135063666D01*
X103618400Y-135063666D01*
X103018400Y-135063666D02*
X103018400Y-134363666D01*
X102751733Y-134363666D01*
X102685066Y-134397000D01*
X102651733Y-134430333D01*
X102618400Y-134497000D01*
X102618400Y-134597000D01*
X102651733Y-134663666D01*
X102685066Y-134697000D01*
X102751733Y-134730333D01*
X103018400Y-134730333D01*
X102018400Y-134597000D02*
X102018400Y-135063666D01*
X102185066Y-134330333D02*
X102351733Y-134830333D01*
X101918400Y-134830333D01*
X173811333Y-127759666D02*
X173811333Y-128259666D01*
X173844666Y-128359666D01*
X173911333Y-128426333D01*
X174011333Y-128459666D01*
X174078000Y-128459666D01*
X173478000Y-128459666D02*
X173478000Y-127759666D01*
X173211333Y-127759666D01*
X173144666Y-127793000D01*
X173111333Y-127826333D01*
X173078000Y-127893000D01*
X173078000Y-127993000D01*
X173111333Y-128059666D01*
X173144666Y-128093000D01*
X173211333Y-128126333D01*
X173478000Y-128126333D01*
X172444666Y-127759666D02*
X172778000Y-127759666D01*
X172811333Y-128093000D01*
X172778000Y-128059666D01*
X172711333Y-128026333D01*
X172544666Y-128026333D01*
X172478000Y-128059666D01*
X172444666Y-128093000D01*
X172411333Y-128159666D01*
X172411333Y-128326333D01*
X172444666Y-128393000D01*
X172478000Y-128426333D01*
X172544666Y-128459666D01*
X172711333Y-128459666D01*
X172778000Y-128426333D01*
X172811333Y-128393000D01*
X170445833Y-127950166D02*
X170445833Y-128450166D01*
X170479166Y-128550166D01*
X170545833Y-128616833D01*
X170645833Y-128650166D01*
X170712500Y-128650166D01*
X170112500Y-128650166D02*
X170112500Y-127950166D01*
X169845833Y-127950166D01*
X169779166Y-127983500D01*
X169745833Y-128016833D01*
X169712500Y-128083500D01*
X169712500Y-128183500D01*
X169745833Y-128250166D01*
X169779166Y-128283500D01*
X169845833Y-128316833D01*
X170112500Y-128316833D01*
X169112500Y-127950166D02*
X169245833Y-127950166D01*
X169312500Y-127983500D01*
X169345833Y-128016833D01*
X169412500Y-128116833D01*
X169445833Y-128250166D01*
X169445833Y-128516833D01*
X169412500Y-128583500D01*
X169379166Y-128616833D01*
X169312500Y-128650166D01*
X169179166Y-128650166D01*
X169112500Y-128616833D01*
X169079166Y-128583500D01*
X169045833Y-128516833D01*
X169045833Y-128350166D01*
X169079166Y-128283500D01*
X169112500Y-128250166D01*
X169179166Y-128216833D01*
X169312500Y-128216833D01*
X169379166Y-128250166D01*
X169412500Y-128283500D01*
X169445833Y-128350166D01*
X230743766Y-46606666D02*
X230343766Y-46606666D01*
X230543766Y-47306666D02*
X230543766Y-46606666D01*
X230110433Y-47306666D02*
X230110433Y-46606666D01*
X229843766Y-46606666D01*
X229777100Y-46640000D01*
X229743766Y-46673333D01*
X229710433Y-46740000D01*
X229710433Y-46840000D01*
X229743766Y-46906666D01*
X229777100Y-46940000D01*
X229843766Y-46973333D01*
X230110433Y-46973333D01*
X229043766Y-47306666D02*
X229443766Y-47306666D01*
X229243766Y-47306666D02*
X229243766Y-46606666D01*
X229310433Y-46706666D01*
X229377100Y-46773333D01*
X229443766Y-46806666D01*
X228777100Y-46673333D02*
X228743766Y-46640000D01*
X228677100Y-46606666D01*
X228510433Y-46606666D01*
X228443766Y-46640000D01*
X228410433Y-46673333D01*
X228377100Y-46740000D01*
X228377100Y-46806666D01*
X228410433Y-46906666D01*
X228810433Y-47306666D01*
X228377100Y-47306666D01*
X172237333Y-124203666D02*
X172237333Y-124770333D01*
X172204000Y-124837000D01*
X172170666Y-124870333D01*
X172104000Y-124903666D01*
X171970666Y-124903666D01*
X171904000Y-124870333D01*
X171870666Y-124837000D01*
X171837333Y-124770333D01*
X171837333Y-124203666D01*
X171137333Y-124903666D02*
X171537333Y-124903666D01*
X171337333Y-124903666D02*
X171337333Y-124203666D01*
X171404000Y-124303666D01*
X171470666Y-124370333D01*
X171537333Y-124403666D01*
X158013333Y-85446666D02*
X158013333Y-86013333D01*
X157980000Y-86080000D01*
X157946666Y-86113333D01*
X157880000Y-86146666D01*
X157746666Y-86146666D01*
X157680000Y-86113333D01*
X157646666Y-86080000D01*
X157613333Y-86013333D01*
X157613333Y-85446666D01*
X157313333Y-85513333D02*
X157280000Y-85480000D01*
X157213333Y-85446666D01*
X157046666Y-85446666D01*
X156980000Y-85480000D01*
X156946666Y-85513333D01*
X156913333Y-85580000D01*
X156913333Y-85646666D01*
X156946666Y-85746666D01*
X157346666Y-86146666D01*
X156913333Y-86146666D01*
X211353333Y-103756666D02*
X211353333Y-104323333D01*
X211320000Y-104390000D01*
X211286666Y-104423333D01*
X211220000Y-104456666D01*
X211086666Y-104456666D01*
X211020000Y-104423333D01*
X210986666Y-104390000D01*
X210953333Y-104323333D01*
X210953333Y-103756666D01*
X210686666Y-103756666D02*
X210253333Y-103756666D01*
X210486666Y-104023333D01*
X210386666Y-104023333D01*
X210320000Y-104056666D01*
X210286666Y-104090000D01*
X210253333Y-104156666D01*
X210253333Y-104323333D01*
X210286666Y-104390000D01*
X210320000Y-104423333D01*
X210386666Y-104456666D01*
X210586666Y-104456666D01*
X210653333Y-104423333D01*
X210686666Y-104390000D01*
X204586666Y-56130000D02*
X204620000Y-56163333D01*
X204720000Y-56196666D01*
X204786666Y-56196666D01*
X204886666Y-56163333D01*
X204953333Y-56096666D01*
X204986666Y-56030000D01*
X205020000Y-55896666D01*
X205020000Y-55796666D01*
X204986666Y-55663333D01*
X204953333Y-55596666D01*
X204886666Y-55530000D01*
X204786666Y-55496666D01*
X204720000Y-55496666D01*
X204620000Y-55530000D01*
X204586666Y-55563333D01*
X204353333Y-55496666D02*
X203886666Y-55496666D01*
X204186666Y-56196666D01*
X212206666Y-56130000D02*
X212240000Y-56163333D01*
X212340000Y-56196666D01*
X212406666Y-56196666D01*
X212506666Y-56163333D01*
X212573333Y-56096666D01*
X212606666Y-56030000D01*
X212640000Y-55896666D01*
X212640000Y-55796666D01*
X212606666Y-55663333D01*
X212573333Y-55596666D01*
X212506666Y-55530000D01*
X212406666Y-55496666D01*
X212340000Y-55496666D01*
X212240000Y-55530000D01*
X212206666Y-55563333D01*
X211873333Y-56196666D02*
X211740000Y-56196666D01*
X211673333Y-56163333D01*
X211640000Y-56130000D01*
X211573333Y-56030000D01*
X211540000Y-55896666D01*
X211540000Y-55630000D01*
X211573333Y-55563333D01*
X211606666Y-55530000D01*
X211673333Y-55496666D01*
X211806666Y-55496666D01*
X211873333Y-55530000D01*
X211906666Y-55563333D01*
X211940000Y-55630000D01*
X211940000Y-55796666D01*
X211906666Y-55863333D01*
X211873333Y-55896666D01*
X211806666Y-55930000D01*
X211673333Y-55930000D01*
X211606666Y-55896666D01*
X211573333Y-55863333D01*
X211540000Y-55796666D01*
X197300000Y-57400000D02*
X197333333Y-57433333D01*
X197433333Y-57466666D01*
X197500000Y-57466666D01*
X197600000Y-57433333D01*
X197666666Y-57366666D01*
X197700000Y-57300000D01*
X197733333Y-57166666D01*
X197733333Y-57066666D01*
X197700000Y-56933333D01*
X197666666Y-56866666D01*
X197600000Y-56800000D01*
X197500000Y-56766666D01*
X197433333Y-56766666D01*
X197333333Y-56800000D01*
X197300000Y-56833333D01*
X196633333Y-57466666D02*
X197033333Y-57466666D01*
X196833333Y-57466666D02*
X196833333Y-56766666D01*
X196900000Y-56866666D01*
X196966666Y-56933333D01*
X197033333Y-56966666D01*
X195966666Y-57466666D02*
X196366666Y-57466666D01*
X196166666Y-57466666D02*
X196166666Y-56766666D01*
X196233333Y-56866666D01*
X196300000Y-56933333D01*
X196366666Y-56966666D01*
X141962033Y-123568666D02*
X141562033Y-123568666D01*
X141762033Y-124268666D02*
X141762033Y-123568666D01*
X141328700Y-124268666D02*
X141328700Y-123568666D01*
X141062033Y-123568666D01*
X140995366Y-123602000D01*
X140962033Y-123635333D01*
X140928700Y-123702000D01*
X140928700Y-123802000D01*
X140962033Y-123868666D01*
X140995366Y-123902000D01*
X141062033Y-123935333D01*
X141328700Y-123935333D01*
X140262033Y-123602000D02*
X140328700Y-123568666D01*
X140428700Y-123568666D01*
X140528700Y-123602000D01*
X140595366Y-123668666D01*
X140628700Y-123735333D01*
X140662033Y-123868666D01*
X140662033Y-123968666D01*
X140628700Y-124102000D01*
X140595366Y-124168666D01*
X140528700Y-124235333D01*
X140428700Y-124268666D01*
X140362033Y-124268666D01*
X140262033Y-124235333D01*
X140228700Y-124202000D01*
X140228700Y-123968666D01*
X140362033Y-123968666D01*
X139995366Y-123568666D02*
X139528700Y-123568666D01*
X139828700Y-124268666D01*
X142025533Y-119631666D02*
X141625533Y-119631666D01*
X141825533Y-120331666D02*
X141825533Y-119631666D01*
X141392200Y-120331666D02*
X141392200Y-119631666D01*
X141125533Y-119631666D01*
X141058866Y-119665000D01*
X141025533Y-119698333D01*
X140992200Y-119765000D01*
X140992200Y-119865000D01*
X141025533Y-119931666D01*
X141058866Y-119965000D01*
X141125533Y-119998333D01*
X141392200Y-119998333D01*
X140325533Y-119665000D02*
X140392200Y-119631666D01*
X140492200Y-119631666D01*
X140592200Y-119665000D01*
X140658866Y-119731666D01*
X140692200Y-119798333D01*
X140725533Y-119931666D01*
X140725533Y-120031666D01*
X140692200Y-120165000D01*
X140658866Y-120231666D01*
X140592200Y-120298333D01*
X140492200Y-120331666D01*
X140425533Y-120331666D01*
X140325533Y-120298333D01*
X140292200Y-120265000D01*
X140292200Y-120031666D01*
X140425533Y-120031666D01*
X139892200Y-119931666D02*
X139958866Y-119898333D01*
X139992200Y-119865000D01*
X140025533Y-119798333D01*
X140025533Y-119765000D01*
X139992200Y-119698333D01*
X139958866Y-119665000D01*
X139892200Y-119631666D01*
X139758866Y-119631666D01*
X139692200Y-119665000D01*
X139658866Y-119698333D01*
X139625533Y-119765000D01*
X139625533Y-119798333D01*
X139658866Y-119865000D01*
X139692200Y-119898333D01*
X139758866Y-119931666D01*
X139892200Y-119931666D01*
X139958866Y-119965000D01*
X139992200Y-119998333D01*
X140025533Y-120065000D01*
X140025533Y-120198333D01*
X139992200Y-120265000D01*
X139958866Y-120298333D01*
X139892200Y-120331666D01*
X139758866Y-120331666D01*
X139692200Y-120298333D01*
X139658866Y-120265000D01*
X139625533Y-120198333D01*
X139625533Y-120065000D01*
X139658866Y-119998333D01*
X139692200Y-119965000D01*
X139758866Y-119931666D01*
X203315733Y-122171666D02*
X202915733Y-122171666D01*
X203115733Y-122871666D02*
X203115733Y-122171666D01*
X202682400Y-122871666D02*
X202682400Y-122171666D01*
X202415733Y-122171666D01*
X202349066Y-122205000D01*
X202315733Y-122238333D01*
X202282400Y-122305000D01*
X202282400Y-122405000D01*
X202315733Y-122471666D01*
X202349066Y-122505000D01*
X202415733Y-122538333D01*
X202682400Y-122538333D01*
X201615733Y-122205000D02*
X201682400Y-122171666D01*
X201782400Y-122171666D01*
X201882400Y-122205000D01*
X201949066Y-122271666D01*
X201982400Y-122338333D01*
X202015733Y-122471666D01*
X202015733Y-122571666D01*
X201982400Y-122705000D01*
X201949066Y-122771666D01*
X201882400Y-122838333D01*
X201782400Y-122871666D01*
X201715733Y-122871666D01*
X201615733Y-122838333D01*
X201582400Y-122805000D01*
X201582400Y-122571666D01*
X201715733Y-122571666D01*
X201249066Y-122871666D02*
X201115733Y-122871666D01*
X201049066Y-122838333D01*
X201015733Y-122805000D01*
X200949066Y-122705000D01*
X200915733Y-122571666D01*
X200915733Y-122305000D01*
X200949066Y-122238333D01*
X200982400Y-122205000D01*
X201049066Y-122171666D01*
X201182400Y-122171666D01*
X201249066Y-122205000D01*
X201282400Y-122238333D01*
X201315733Y-122305000D01*
X201315733Y-122471666D01*
X201282400Y-122538333D01*
X201249066Y-122571666D01*
X201182400Y-122605000D01*
X201049066Y-122605000D01*
X200982400Y-122571666D01*
X200949066Y-122538333D01*
X200915733Y-122471666D01*
X224036666Y-62546666D02*
X224036666Y-61846666D01*
X223870000Y-61846666D01*
X223770000Y-61880000D01*
X223703333Y-61946666D01*
X223670000Y-62013333D01*
X223636666Y-62146666D01*
X223636666Y-62246666D01*
X223670000Y-62380000D01*
X223703333Y-62446666D01*
X223770000Y-62513333D01*
X223870000Y-62546666D01*
X224036666Y-62546666D01*
X222970000Y-62546666D02*
X223370000Y-62546666D01*
X223170000Y-62546666D02*
X223170000Y-61846666D01*
X223236666Y-61946666D01*
X223303333Y-62013333D01*
X223370000Y-62046666D01*
X177154666Y-124684600D02*
X177188000Y-124717933D01*
X177288000Y-124751266D01*
X177354666Y-124751266D01*
X177454666Y-124717933D01*
X177521333Y-124651266D01*
X177554666Y-124584600D01*
X177588000Y-124451266D01*
X177588000Y-124351266D01*
X177554666Y-124217933D01*
X177521333Y-124151266D01*
X177454666Y-124084600D01*
X177354666Y-124051266D01*
X177288000Y-124051266D01*
X177188000Y-124084600D01*
X177154666Y-124117933D01*
X176488000Y-124751266D02*
X176888000Y-124751266D01*
X176688000Y-124751266D02*
X176688000Y-124051266D01*
X176754666Y-124151266D01*
X176821333Y-124217933D01*
X176888000Y-124251266D01*
X165915166Y-125776800D02*
X165948500Y-125810133D01*
X166048500Y-125843466D01*
X166115166Y-125843466D01*
X166215166Y-125810133D01*
X166281833Y-125743466D01*
X166315166Y-125676800D01*
X166348500Y-125543466D01*
X166348500Y-125443466D01*
X166315166Y-125310133D01*
X166281833Y-125243466D01*
X166215166Y-125176800D01*
X166115166Y-125143466D01*
X166048500Y-125143466D01*
X165948500Y-125176800D01*
X165915166Y-125210133D01*
X165648500Y-125210133D02*
X165615166Y-125176800D01*
X165548500Y-125143466D01*
X165381833Y-125143466D01*
X165315166Y-125176800D01*
X165281833Y-125210133D01*
X165248500Y-125276800D01*
X165248500Y-125343466D01*
X165281833Y-125443466D01*
X165681833Y-125843466D01*
X165248500Y-125843466D01*
X181282166Y-118233000D02*
X181315500Y-118266333D01*
X181415500Y-118299666D01*
X181482166Y-118299666D01*
X181582166Y-118266333D01*
X181648833Y-118199666D01*
X181682166Y-118133000D01*
X181715500Y-117999666D01*
X181715500Y-117899666D01*
X181682166Y-117766333D01*
X181648833Y-117699666D01*
X181582166Y-117633000D01*
X181482166Y-117599666D01*
X181415500Y-117599666D01*
X181315500Y-117633000D01*
X181282166Y-117666333D01*
X181048833Y-117599666D02*
X180615500Y-117599666D01*
X180848833Y-117866333D01*
X180748833Y-117866333D01*
X180682166Y-117899666D01*
X180648833Y-117933000D01*
X180615500Y-117999666D01*
X180615500Y-118166333D01*
X180648833Y-118233000D01*
X180682166Y-118266333D01*
X180748833Y-118299666D01*
X180948833Y-118299666D01*
X181015500Y-118266333D01*
X181048833Y-118233000D01*
X160212866Y-119668100D02*
X160246200Y-119701433D01*
X160346200Y-119734766D01*
X160412866Y-119734766D01*
X160512866Y-119701433D01*
X160579533Y-119634766D01*
X160612866Y-119568100D01*
X160646200Y-119434766D01*
X160646200Y-119334766D01*
X160612866Y-119201433D01*
X160579533Y-119134766D01*
X160512866Y-119068100D01*
X160412866Y-119034766D01*
X160346200Y-119034766D01*
X160246200Y-119068100D01*
X160212866Y-119101433D01*
X159612866Y-119268100D02*
X159612866Y-119734766D01*
X159779533Y-119001433D02*
X159946200Y-119501433D01*
X159512866Y-119501433D01*
X160187466Y-125868866D02*
X160420800Y-125535533D01*
X160587466Y-125868866D02*
X160587466Y-125168866D01*
X160320800Y-125168866D01*
X160254133Y-125202200D01*
X160220800Y-125235533D01*
X160187466Y-125302200D01*
X160187466Y-125402200D01*
X160220800Y-125468866D01*
X160254133Y-125502200D01*
X160320800Y-125535533D01*
X160587466Y-125535533D01*
X159520800Y-125868866D02*
X159920800Y-125868866D01*
X159720800Y-125868866D02*
X159720800Y-125168866D01*
X159787466Y-125268866D01*
X159854133Y-125335533D01*
X159920800Y-125368866D01*
X181282166Y-124776666D02*
X181515500Y-124443333D01*
X181682166Y-124776666D02*
X181682166Y-124076666D01*
X181415500Y-124076666D01*
X181348833Y-124110000D01*
X181315500Y-124143333D01*
X181282166Y-124210000D01*
X181282166Y-124310000D01*
X181315500Y-124376666D01*
X181348833Y-124410000D01*
X181415500Y-124443333D01*
X181682166Y-124443333D01*
X181015500Y-124143333D02*
X180982166Y-124110000D01*
X180915500Y-124076666D01*
X180748833Y-124076666D01*
X180682166Y-124110000D01*
X180648833Y-124143333D01*
X180615500Y-124210000D01*
X180615500Y-124276666D01*
X180648833Y-124376666D01*
X181048833Y-124776666D01*
X180615500Y-124776666D01*
X179250166Y-124776666D02*
X179483500Y-124443333D01*
X179650166Y-124776666D02*
X179650166Y-124076666D01*
X179383500Y-124076666D01*
X179316833Y-124110000D01*
X179283500Y-124143333D01*
X179250166Y-124210000D01*
X179250166Y-124310000D01*
X179283500Y-124376666D01*
X179316833Y-124410000D01*
X179383500Y-124443333D01*
X179650166Y-124443333D01*
X179016833Y-124076666D02*
X178583500Y-124076666D01*
X178816833Y-124343333D01*
X178716833Y-124343333D01*
X178650166Y-124376666D01*
X178616833Y-124410000D01*
X178583500Y-124476666D01*
X178583500Y-124643333D01*
X178616833Y-124710000D01*
X178650166Y-124743333D01*
X178716833Y-124776666D01*
X178916833Y-124776666D01*
X178983500Y-124743333D01*
X179016833Y-124710000D01*
X163756166Y-125856166D02*
X163989500Y-125522833D01*
X164156166Y-125856166D02*
X164156166Y-125156166D01*
X163889500Y-125156166D01*
X163822833Y-125189500D01*
X163789500Y-125222833D01*
X163756166Y-125289500D01*
X163756166Y-125389500D01*
X163789500Y-125456166D01*
X163822833Y-125489500D01*
X163889500Y-125522833D01*
X164156166Y-125522833D01*
X163156166Y-125389500D02*
X163156166Y-125856166D01*
X163322833Y-125122833D02*
X163489500Y-125622833D01*
X163056166Y-125622833D01*
X177154666Y-118274266D02*
X177388000Y-117940933D01*
X177554666Y-118274266D02*
X177554666Y-117574266D01*
X177288000Y-117574266D01*
X177221333Y-117607600D01*
X177188000Y-117640933D01*
X177154666Y-117707600D01*
X177154666Y-117807600D01*
X177188000Y-117874266D01*
X177221333Y-117907600D01*
X177288000Y-117940933D01*
X177554666Y-117940933D01*
X176754666Y-117874266D02*
X176821333Y-117840933D01*
X176854666Y-117807600D01*
X176888000Y-117740933D01*
X176888000Y-117707600D01*
X176854666Y-117640933D01*
X176821333Y-117607600D01*
X176754666Y-117574266D01*
X176621333Y-117574266D01*
X176554666Y-117607600D01*
X176521333Y-117640933D01*
X176488000Y-117707600D01*
X176488000Y-117740933D01*
X176521333Y-117807600D01*
X176554666Y-117840933D01*
X176621333Y-117874266D01*
X176754666Y-117874266D01*
X176821333Y-117907600D01*
X176854666Y-117940933D01*
X176888000Y-118007600D01*
X176888000Y-118140933D01*
X176854666Y-118207600D01*
X176821333Y-118240933D01*
X176754666Y-118274266D01*
X176621333Y-118274266D01*
X176554666Y-118240933D01*
X176521333Y-118207600D01*
X176488000Y-118140933D01*
X176488000Y-118007600D01*
X176521333Y-117940933D01*
X176554666Y-117907600D01*
X176621333Y-117874266D01*
X163832366Y-119734766D02*
X164065700Y-119401433D01*
X164232366Y-119734766D02*
X164232366Y-119034766D01*
X163965700Y-119034766D01*
X163899033Y-119068100D01*
X163865700Y-119101433D01*
X163832366Y-119168100D01*
X163832366Y-119268100D01*
X163865700Y-119334766D01*
X163899033Y-119368100D01*
X163965700Y-119401433D01*
X164232366Y-119401433D01*
X163499033Y-119734766D02*
X163365700Y-119734766D01*
X163299033Y-119701433D01*
X163265700Y-119668100D01*
X163199033Y-119568100D01*
X163165700Y-119434766D01*
X163165700Y-119168100D01*
X163199033Y-119101433D01*
X163232366Y-119068100D01*
X163299033Y-119034766D01*
X163432366Y-119034766D01*
X163499033Y-119068100D01*
X163532366Y-119101433D01*
X163565700Y-119168100D01*
X163565700Y-119334766D01*
X163532366Y-119401433D01*
X163499033Y-119434766D01*
X163432366Y-119468100D01*
X163299033Y-119468100D01*
X163232366Y-119434766D01*
X163199033Y-119401433D01*
X163165700Y-119334766D01*
X179520000Y-118233000D02*
X179553333Y-118266333D01*
X179653333Y-118299666D01*
X179720000Y-118299666D01*
X179820000Y-118266333D01*
X179886666Y-118199666D01*
X179920000Y-118133000D01*
X179953333Y-117999666D01*
X179953333Y-117899666D01*
X179920000Y-117766333D01*
X179886666Y-117699666D01*
X179820000Y-117633000D01*
X179720000Y-117599666D01*
X179653333Y-117599666D01*
X179553333Y-117633000D01*
X179520000Y-117666333D01*
X179253333Y-117666333D02*
X179220000Y-117633000D01*
X179153333Y-117599666D01*
X178986666Y-117599666D01*
X178920000Y-117633000D01*
X178886666Y-117666333D01*
X178853333Y-117733000D01*
X178853333Y-117799666D01*
X178886666Y-117899666D01*
X179286666Y-118299666D01*
X178853333Y-118299666D01*
X178253333Y-117599666D02*
X178386666Y-117599666D01*
X178453333Y-117633000D01*
X178486666Y-117666333D01*
X178553333Y-117766333D01*
X178586666Y-117899666D01*
X178586666Y-118166333D01*
X178553333Y-118233000D01*
X178520000Y-118266333D01*
X178453333Y-118299666D01*
X178320000Y-118299666D01*
X178253333Y-118266333D01*
X178220000Y-118233000D01*
X178186666Y-118166333D01*
X178186666Y-117999666D01*
X178220000Y-117933000D01*
X178253333Y-117899666D01*
X178320000Y-117866333D01*
X178453333Y-117866333D01*
X178520000Y-117899666D01*
X178553333Y-117933000D01*
X178586666Y-117999666D01*
X204030066Y-118361666D02*
X203630066Y-118361666D01*
X203830066Y-119061666D02*
X203830066Y-118361666D01*
X203396733Y-119061666D02*
X203396733Y-118361666D01*
X203130066Y-118361666D01*
X203063400Y-118395000D01*
X203030066Y-118428333D01*
X202996733Y-118495000D01*
X202996733Y-118595000D01*
X203030066Y-118661666D01*
X203063400Y-118695000D01*
X203130066Y-118728333D01*
X203396733Y-118728333D01*
X202330066Y-118395000D02*
X202396733Y-118361666D01*
X202496733Y-118361666D01*
X202596733Y-118395000D01*
X202663400Y-118461666D01*
X202696733Y-118528333D01*
X202730066Y-118661666D01*
X202730066Y-118761666D01*
X202696733Y-118895000D01*
X202663400Y-118961666D01*
X202596733Y-119028333D01*
X202496733Y-119061666D01*
X202430066Y-119061666D01*
X202330066Y-119028333D01*
X202296733Y-118995000D01*
X202296733Y-118761666D01*
X202430066Y-118761666D01*
X201630066Y-119061666D02*
X202030066Y-119061666D01*
X201830066Y-119061666D02*
X201830066Y-118361666D01*
X201896733Y-118461666D01*
X201963400Y-118528333D01*
X202030066Y-118561666D01*
X201196733Y-118361666D02*
X201130066Y-118361666D01*
X201063400Y-118395000D01*
X201030066Y-118428333D01*
X200996733Y-118495000D01*
X200963400Y-118628333D01*
X200963400Y-118795000D01*
X200996733Y-118928333D01*
X201030066Y-118995000D01*
X201063400Y-119028333D01*
X201130066Y-119061666D01*
X201196733Y-119061666D01*
X201263400Y-119028333D01*
X201296733Y-118995000D01*
X201330066Y-118928333D01*
X201363400Y-118795000D01*
X201363400Y-118628333D01*
X201330066Y-118495000D01*
X201296733Y-118428333D01*
X201263400Y-118395000D01*
X201196733Y-118361666D01*
M02*
