G04 #@! TF.GenerationSoftware,KiCad,Pcbnew,(5.1.2-1)-1*
G04 #@! TF.CreationDate,2019-07-19T21:50:30+01:00*
G04 #@! TF.ProjectId,ControlModule,436f6e74-726f-46c4-9d6f-64756c652e6b,C*
G04 #@! TF.SameCoordinates,Original*
G04 #@! TF.FileFunction,Soldermask,Top*
G04 #@! TF.FilePolarity,Negative*
%FSLAX46Y46*%
G04 Gerber Fmt 4.6, Leading zero omitted, Abs format (unit mm)*
G04 Created by KiCad (PCBNEW (5.1.2-1)-1) date 2019-07-19 21:50:30*
%MOMM*%
%LPD*%
G04 APERTURE LIST*
%ADD10C,0.100000*%
%ADD11C,0.990000*%
%ADD12O,2.140000X2.600000*%
%ADD13C,2.140000*%
%ADD14O,2.100000X2.100000*%
%ADD15R,2.100000X2.100000*%
%ADD16O,1.750000X2.100000*%
%ADD17O,1.500000X1.900000*%
%ADD18C,3.600000*%
%ADD19C,2.200000*%
%ADD20C,6.800000*%
%ADD21C,2.450000*%
%ADD22C,2.650000*%
%ADD23C,2.400000*%
G04 APERTURE END LIST*
D10*
G36*
X174515359Y-98284392D02*
G01*
X174539385Y-98287956D01*
X174562945Y-98293857D01*
X174585814Y-98302040D01*
X174607771Y-98312424D01*
X174628604Y-98324911D01*
X174648112Y-98339380D01*
X174666109Y-98355691D01*
X174682420Y-98373688D01*
X174696889Y-98393196D01*
X174709376Y-98414029D01*
X174719760Y-98435986D01*
X174727943Y-98458855D01*
X174733844Y-98482415D01*
X174737408Y-98506441D01*
X174738600Y-98530700D01*
X174738600Y-99025700D01*
X174737408Y-99049959D01*
X174733844Y-99073985D01*
X174727943Y-99097545D01*
X174719760Y-99120414D01*
X174709376Y-99142371D01*
X174696889Y-99163204D01*
X174682420Y-99182712D01*
X174666109Y-99200709D01*
X174648112Y-99217020D01*
X174628604Y-99231489D01*
X174607771Y-99243976D01*
X174585814Y-99254360D01*
X174562945Y-99262543D01*
X174539385Y-99268444D01*
X174515359Y-99272008D01*
X174491100Y-99273200D01*
X173946100Y-99273200D01*
X173921841Y-99272008D01*
X173897815Y-99268444D01*
X173874255Y-99262543D01*
X173851386Y-99254360D01*
X173829429Y-99243976D01*
X173808596Y-99231489D01*
X173789088Y-99217020D01*
X173771091Y-99200709D01*
X173754780Y-99182712D01*
X173740311Y-99163204D01*
X173727824Y-99142371D01*
X173717440Y-99120414D01*
X173709257Y-99097545D01*
X173703356Y-99073985D01*
X173699792Y-99049959D01*
X173698600Y-99025700D01*
X173698600Y-98530700D01*
X173699792Y-98506441D01*
X173703356Y-98482415D01*
X173709257Y-98458855D01*
X173717440Y-98435986D01*
X173727824Y-98414029D01*
X173740311Y-98393196D01*
X173754780Y-98373688D01*
X173771091Y-98355691D01*
X173789088Y-98339380D01*
X173808596Y-98324911D01*
X173829429Y-98312424D01*
X173851386Y-98302040D01*
X173874255Y-98293857D01*
X173897815Y-98287956D01*
X173921841Y-98284392D01*
X173946100Y-98283200D01*
X174491100Y-98283200D01*
X174515359Y-98284392D01*
X174515359Y-98284392D01*
G37*
D11*
X174218600Y-98778200D03*
D10*
G36*
X174515359Y-99254392D02*
G01*
X174539385Y-99257956D01*
X174562945Y-99263857D01*
X174585814Y-99272040D01*
X174607771Y-99282424D01*
X174628604Y-99294911D01*
X174648112Y-99309380D01*
X174666109Y-99325691D01*
X174682420Y-99343688D01*
X174696889Y-99363196D01*
X174709376Y-99384029D01*
X174719760Y-99405986D01*
X174727943Y-99428855D01*
X174733844Y-99452415D01*
X174737408Y-99476441D01*
X174738600Y-99500700D01*
X174738600Y-99995700D01*
X174737408Y-100019959D01*
X174733844Y-100043985D01*
X174727943Y-100067545D01*
X174719760Y-100090414D01*
X174709376Y-100112371D01*
X174696889Y-100133204D01*
X174682420Y-100152712D01*
X174666109Y-100170709D01*
X174648112Y-100187020D01*
X174628604Y-100201489D01*
X174607771Y-100213976D01*
X174585814Y-100224360D01*
X174562945Y-100232543D01*
X174539385Y-100238444D01*
X174515359Y-100242008D01*
X174491100Y-100243200D01*
X173946100Y-100243200D01*
X173921841Y-100242008D01*
X173897815Y-100238444D01*
X173874255Y-100232543D01*
X173851386Y-100224360D01*
X173829429Y-100213976D01*
X173808596Y-100201489D01*
X173789088Y-100187020D01*
X173771091Y-100170709D01*
X173754780Y-100152712D01*
X173740311Y-100133204D01*
X173727824Y-100112371D01*
X173717440Y-100090414D01*
X173709257Y-100067545D01*
X173703356Y-100043985D01*
X173699792Y-100019959D01*
X173698600Y-99995700D01*
X173698600Y-99500700D01*
X173699792Y-99476441D01*
X173703356Y-99452415D01*
X173709257Y-99428855D01*
X173717440Y-99405986D01*
X173727824Y-99384029D01*
X173740311Y-99363196D01*
X173754780Y-99343688D01*
X173771091Y-99325691D01*
X173789088Y-99309380D01*
X173808596Y-99294911D01*
X173829429Y-99282424D01*
X173851386Y-99272040D01*
X173874255Y-99263857D01*
X173897815Y-99257956D01*
X173921841Y-99254392D01*
X173946100Y-99253200D01*
X174491100Y-99253200D01*
X174515359Y-99254392D01*
X174515359Y-99254392D01*
G37*
D11*
X174218600Y-99748200D03*
D10*
G36*
X171467359Y-98284392D02*
G01*
X171491385Y-98287956D01*
X171514945Y-98293857D01*
X171537814Y-98302040D01*
X171559771Y-98312424D01*
X171580604Y-98324911D01*
X171600112Y-98339380D01*
X171618109Y-98355691D01*
X171634420Y-98373688D01*
X171648889Y-98393196D01*
X171661376Y-98414029D01*
X171671760Y-98435986D01*
X171679943Y-98458855D01*
X171685844Y-98482415D01*
X171689408Y-98506441D01*
X171690600Y-98530700D01*
X171690600Y-99025700D01*
X171689408Y-99049959D01*
X171685844Y-99073985D01*
X171679943Y-99097545D01*
X171671760Y-99120414D01*
X171661376Y-99142371D01*
X171648889Y-99163204D01*
X171634420Y-99182712D01*
X171618109Y-99200709D01*
X171600112Y-99217020D01*
X171580604Y-99231489D01*
X171559771Y-99243976D01*
X171537814Y-99254360D01*
X171514945Y-99262543D01*
X171491385Y-99268444D01*
X171467359Y-99272008D01*
X171443100Y-99273200D01*
X170898100Y-99273200D01*
X170873841Y-99272008D01*
X170849815Y-99268444D01*
X170826255Y-99262543D01*
X170803386Y-99254360D01*
X170781429Y-99243976D01*
X170760596Y-99231489D01*
X170741088Y-99217020D01*
X170723091Y-99200709D01*
X170706780Y-99182712D01*
X170692311Y-99163204D01*
X170679824Y-99142371D01*
X170669440Y-99120414D01*
X170661257Y-99097545D01*
X170655356Y-99073985D01*
X170651792Y-99049959D01*
X170650600Y-99025700D01*
X170650600Y-98530700D01*
X170651792Y-98506441D01*
X170655356Y-98482415D01*
X170661257Y-98458855D01*
X170669440Y-98435986D01*
X170679824Y-98414029D01*
X170692311Y-98393196D01*
X170706780Y-98373688D01*
X170723091Y-98355691D01*
X170741088Y-98339380D01*
X170760596Y-98324911D01*
X170781429Y-98312424D01*
X170803386Y-98302040D01*
X170826255Y-98293857D01*
X170849815Y-98287956D01*
X170873841Y-98284392D01*
X170898100Y-98283200D01*
X171443100Y-98283200D01*
X171467359Y-98284392D01*
X171467359Y-98284392D01*
G37*
D11*
X171170600Y-98778200D03*
D10*
G36*
X171467359Y-99254392D02*
G01*
X171491385Y-99257956D01*
X171514945Y-99263857D01*
X171537814Y-99272040D01*
X171559771Y-99282424D01*
X171580604Y-99294911D01*
X171600112Y-99309380D01*
X171618109Y-99325691D01*
X171634420Y-99343688D01*
X171648889Y-99363196D01*
X171661376Y-99384029D01*
X171671760Y-99405986D01*
X171679943Y-99428855D01*
X171685844Y-99452415D01*
X171689408Y-99476441D01*
X171690600Y-99500700D01*
X171690600Y-99995700D01*
X171689408Y-100019959D01*
X171685844Y-100043985D01*
X171679943Y-100067545D01*
X171671760Y-100090414D01*
X171661376Y-100112371D01*
X171648889Y-100133204D01*
X171634420Y-100152712D01*
X171618109Y-100170709D01*
X171600112Y-100187020D01*
X171580604Y-100201489D01*
X171559771Y-100213976D01*
X171537814Y-100224360D01*
X171514945Y-100232543D01*
X171491385Y-100238444D01*
X171467359Y-100242008D01*
X171443100Y-100243200D01*
X170898100Y-100243200D01*
X170873841Y-100242008D01*
X170849815Y-100238444D01*
X170826255Y-100232543D01*
X170803386Y-100224360D01*
X170781429Y-100213976D01*
X170760596Y-100201489D01*
X170741088Y-100187020D01*
X170723091Y-100170709D01*
X170706780Y-100152712D01*
X170692311Y-100133204D01*
X170679824Y-100112371D01*
X170669440Y-100090414D01*
X170661257Y-100067545D01*
X170655356Y-100043985D01*
X170651792Y-100019959D01*
X170650600Y-99995700D01*
X170650600Y-99500700D01*
X170651792Y-99476441D01*
X170655356Y-99452415D01*
X170661257Y-99428855D01*
X170669440Y-99405986D01*
X170679824Y-99384029D01*
X170692311Y-99363196D01*
X170706780Y-99343688D01*
X170723091Y-99325691D01*
X170741088Y-99309380D01*
X170760596Y-99294911D01*
X170781429Y-99282424D01*
X170803386Y-99272040D01*
X170826255Y-99263857D01*
X170849815Y-99257956D01*
X170873841Y-99254392D01*
X170898100Y-99253200D01*
X171443100Y-99253200D01*
X171467359Y-99254392D01*
X171467359Y-99254392D01*
G37*
D11*
X171170600Y-99748200D03*
D10*
G36*
X172991359Y-98284392D02*
G01*
X173015385Y-98287956D01*
X173038945Y-98293857D01*
X173061814Y-98302040D01*
X173083771Y-98312424D01*
X173104604Y-98324911D01*
X173124112Y-98339380D01*
X173142109Y-98355691D01*
X173158420Y-98373688D01*
X173172889Y-98393196D01*
X173185376Y-98414029D01*
X173195760Y-98435986D01*
X173203943Y-98458855D01*
X173209844Y-98482415D01*
X173213408Y-98506441D01*
X173214600Y-98530700D01*
X173214600Y-99025700D01*
X173213408Y-99049959D01*
X173209844Y-99073985D01*
X173203943Y-99097545D01*
X173195760Y-99120414D01*
X173185376Y-99142371D01*
X173172889Y-99163204D01*
X173158420Y-99182712D01*
X173142109Y-99200709D01*
X173124112Y-99217020D01*
X173104604Y-99231489D01*
X173083771Y-99243976D01*
X173061814Y-99254360D01*
X173038945Y-99262543D01*
X173015385Y-99268444D01*
X172991359Y-99272008D01*
X172967100Y-99273200D01*
X172422100Y-99273200D01*
X172397841Y-99272008D01*
X172373815Y-99268444D01*
X172350255Y-99262543D01*
X172327386Y-99254360D01*
X172305429Y-99243976D01*
X172284596Y-99231489D01*
X172265088Y-99217020D01*
X172247091Y-99200709D01*
X172230780Y-99182712D01*
X172216311Y-99163204D01*
X172203824Y-99142371D01*
X172193440Y-99120414D01*
X172185257Y-99097545D01*
X172179356Y-99073985D01*
X172175792Y-99049959D01*
X172174600Y-99025700D01*
X172174600Y-98530700D01*
X172175792Y-98506441D01*
X172179356Y-98482415D01*
X172185257Y-98458855D01*
X172193440Y-98435986D01*
X172203824Y-98414029D01*
X172216311Y-98393196D01*
X172230780Y-98373688D01*
X172247091Y-98355691D01*
X172265088Y-98339380D01*
X172284596Y-98324911D01*
X172305429Y-98312424D01*
X172327386Y-98302040D01*
X172350255Y-98293857D01*
X172373815Y-98287956D01*
X172397841Y-98284392D01*
X172422100Y-98283200D01*
X172967100Y-98283200D01*
X172991359Y-98284392D01*
X172991359Y-98284392D01*
G37*
D11*
X172694600Y-98778200D03*
D10*
G36*
X172991359Y-99254392D02*
G01*
X173015385Y-99257956D01*
X173038945Y-99263857D01*
X173061814Y-99272040D01*
X173083771Y-99282424D01*
X173104604Y-99294911D01*
X173124112Y-99309380D01*
X173142109Y-99325691D01*
X173158420Y-99343688D01*
X173172889Y-99363196D01*
X173185376Y-99384029D01*
X173195760Y-99405986D01*
X173203943Y-99428855D01*
X173209844Y-99452415D01*
X173213408Y-99476441D01*
X173214600Y-99500700D01*
X173214600Y-99995700D01*
X173213408Y-100019959D01*
X173209844Y-100043985D01*
X173203943Y-100067545D01*
X173195760Y-100090414D01*
X173185376Y-100112371D01*
X173172889Y-100133204D01*
X173158420Y-100152712D01*
X173142109Y-100170709D01*
X173124112Y-100187020D01*
X173104604Y-100201489D01*
X173083771Y-100213976D01*
X173061814Y-100224360D01*
X173038945Y-100232543D01*
X173015385Y-100238444D01*
X172991359Y-100242008D01*
X172967100Y-100243200D01*
X172422100Y-100243200D01*
X172397841Y-100242008D01*
X172373815Y-100238444D01*
X172350255Y-100232543D01*
X172327386Y-100224360D01*
X172305429Y-100213976D01*
X172284596Y-100201489D01*
X172265088Y-100187020D01*
X172247091Y-100170709D01*
X172230780Y-100152712D01*
X172216311Y-100133204D01*
X172203824Y-100112371D01*
X172193440Y-100090414D01*
X172185257Y-100067545D01*
X172179356Y-100043985D01*
X172175792Y-100019959D01*
X172174600Y-99995700D01*
X172174600Y-99500700D01*
X172175792Y-99476441D01*
X172179356Y-99452415D01*
X172185257Y-99428855D01*
X172193440Y-99405986D01*
X172203824Y-99384029D01*
X172216311Y-99363196D01*
X172230780Y-99343688D01*
X172247091Y-99325691D01*
X172265088Y-99309380D01*
X172284596Y-99294911D01*
X172305429Y-99282424D01*
X172327386Y-99272040D01*
X172350255Y-99263857D01*
X172373815Y-99257956D01*
X172397841Y-99254392D01*
X172422100Y-99253200D01*
X172967100Y-99253200D01*
X172991359Y-99254392D01*
X172991359Y-99254392D01*
G37*
D11*
X172694600Y-99748200D03*
D12*
X219735400Y-49682400D03*
D10*
G36*
X217988067Y-48383881D02*
G01*
X218017914Y-48388308D01*
X218047184Y-48395640D01*
X218075594Y-48405805D01*
X218102870Y-48418706D01*
X218128751Y-48434218D01*
X218152987Y-48452192D01*
X218175344Y-48472456D01*
X218195608Y-48494813D01*
X218213582Y-48519049D01*
X218229094Y-48544930D01*
X218241995Y-48572206D01*
X218252160Y-48600616D01*
X218259492Y-48629886D01*
X218263919Y-48659733D01*
X218265400Y-48689870D01*
X218265400Y-50674930D01*
X218263919Y-50705067D01*
X218259492Y-50734914D01*
X218252160Y-50764184D01*
X218241995Y-50792594D01*
X218229094Y-50819870D01*
X218213582Y-50845751D01*
X218195608Y-50869987D01*
X218175344Y-50892344D01*
X218152987Y-50912608D01*
X218128751Y-50930582D01*
X218102870Y-50946094D01*
X218075594Y-50958995D01*
X218047184Y-50969160D01*
X218017914Y-50976492D01*
X217988067Y-50980919D01*
X217957930Y-50982400D01*
X216432870Y-50982400D01*
X216402733Y-50980919D01*
X216372886Y-50976492D01*
X216343616Y-50969160D01*
X216315206Y-50958995D01*
X216287930Y-50946094D01*
X216262049Y-50930582D01*
X216237813Y-50912608D01*
X216215456Y-50892344D01*
X216195192Y-50869987D01*
X216177218Y-50845751D01*
X216161706Y-50819870D01*
X216148805Y-50792594D01*
X216138640Y-50764184D01*
X216131308Y-50734914D01*
X216126881Y-50705067D01*
X216125400Y-50674930D01*
X216125400Y-48689870D01*
X216126881Y-48659733D01*
X216131308Y-48629886D01*
X216138640Y-48600616D01*
X216148805Y-48572206D01*
X216161706Y-48544930D01*
X216177218Y-48519049D01*
X216195192Y-48494813D01*
X216215456Y-48472456D01*
X216237813Y-48452192D01*
X216262049Y-48434218D01*
X216287930Y-48418706D01*
X216315206Y-48405805D01*
X216343616Y-48395640D01*
X216372886Y-48388308D01*
X216402733Y-48383881D01*
X216432870Y-48382400D01*
X217957930Y-48382400D01*
X217988067Y-48383881D01*
X217988067Y-48383881D01*
G37*
D13*
X217195400Y-49682400D03*
D14*
X88925400Y-59994800D03*
X86385400Y-59994800D03*
X83845400Y-59994800D03*
X81305400Y-59994800D03*
X78765400Y-59994800D03*
X76225400Y-59994800D03*
D15*
X73685400Y-59994800D03*
D16*
X210515100Y-48364200D03*
X205055100Y-48364200D03*
D17*
X210205100Y-51364200D03*
X205365100Y-51364200D03*
D18*
X123380500Y-113601500D03*
X123380500Y-74422000D03*
X191135000Y-74422000D03*
X191135000Y-113601500D03*
D19*
X191008000Y-86360000D03*
X191008000Y-88900000D03*
X191008000Y-91440000D03*
X191008000Y-93980000D03*
X191008000Y-96520000D03*
D20*
X264210800Y-129438400D03*
X264210800Y-49707800D03*
X35496500Y-49733200D03*
X35496500Y-129438400D03*
D21*
X155778200Y-130187700D03*
D22*
X158318200Y-127647700D03*
X158318200Y-132727700D03*
X153238200Y-132727700D03*
X153238200Y-127647700D03*
D20*
X35496500Y-113411000D03*
X35496500Y-65722500D03*
D14*
X213055200Y-84709000D03*
X213055200Y-87249000D03*
X213055200Y-89789000D03*
X213055200Y-92329000D03*
X213055200Y-94869000D03*
D15*
X213055200Y-97409000D03*
D22*
X183680100Y-132702300D03*
X188760100Y-132702300D03*
X188760100Y-127622300D03*
X183680100Y-127622300D03*
D21*
X186220100Y-130162300D03*
D23*
X134048500Y-70358000D03*
X134048500Y-57658000D03*
X139128500Y-70358000D03*
X139128500Y-57658000D03*
X148018500Y-70358000D03*
X148018500Y-57658000D03*
X153098500Y-70358000D03*
X153098500Y-57658000D03*
X167068500Y-57658000D03*
X167068500Y-70358000D03*
X161988500Y-57658000D03*
X161988500Y-70358000D03*
X175958500Y-70358000D03*
X175958500Y-57658000D03*
X181038500Y-70358000D03*
X181038500Y-57658000D03*
D10*
G36*
X170411259Y-117591192D02*
G01*
X170435285Y-117594756D01*
X170458845Y-117600657D01*
X170481714Y-117608840D01*
X170503671Y-117619224D01*
X170524504Y-117631711D01*
X170544012Y-117646180D01*
X170562009Y-117662491D01*
X170578320Y-117680488D01*
X170592789Y-117699996D01*
X170605276Y-117720829D01*
X170615660Y-117742786D01*
X170623843Y-117765655D01*
X170629744Y-117789215D01*
X170633308Y-117813241D01*
X170634500Y-117837500D01*
X170634500Y-118382500D01*
X170633308Y-118406759D01*
X170629744Y-118430785D01*
X170623843Y-118454345D01*
X170615660Y-118477214D01*
X170605276Y-118499171D01*
X170592789Y-118520004D01*
X170578320Y-118539512D01*
X170562009Y-118557509D01*
X170544012Y-118573820D01*
X170524504Y-118588289D01*
X170503671Y-118600776D01*
X170481714Y-118611160D01*
X170458845Y-118619343D01*
X170435285Y-118625244D01*
X170411259Y-118628808D01*
X170387000Y-118630000D01*
X169892000Y-118630000D01*
X169867741Y-118628808D01*
X169843715Y-118625244D01*
X169820155Y-118619343D01*
X169797286Y-118611160D01*
X169775329Y-118600776D01*
X169754496Y-118588289D01*
X169734988Y-118573820D01*
X169716991Y-118557509D01*
X169700680Y-118539512D01*
X169686211Y-118520004D01*
X169673724Y-118499171D01*
X169663340Y-118477214D01*
X169655157Y-118454345D01*
X169649256Y-118430785D01*
X169645692Y-118406759D01*
X169644500Y-118382500D01*
X169644500Y-117837500D01*
X169645692Y-117813241D01*
X169649256Y-117789215D01*
X169655157Y-117765655D01*
X169663340Y-117742786D01*
X169673724Y-117720829D01*
X169686211Y-117699996D01*
X169700680Y-117680488D01*
X169716991Y-117662491D01*
X169734988Y-117646180D01*
X169754496Y-117631711D01*
X169775329Y-117619224D01*
X169797286Y-117608840D01*
X169820155Y-117600657D01*
X169843715Y-117594756D01*
X169867741Y-117591192D01*
X169892000Y-117590000D01*
X170387000Y-117590000D01*
X170411259Y-117591192D01*
X170411259Y-117591192D01*
G37*
D11*
X170139500Y-118110000D03*
D10*
G36*
X171381259Y-117591192D02*
G01*
X171405285Y-117594756D01*
X171428845Y-117600657D01*
X171451714Y-117608840D01*
X171473671Y-117619224D01*
X171494504Y-117631711D01*
X171514012Y-117646180D01*
X171532009Y-117662491D01*
X171548320Y-117680488D01*
X171562789Y-117699996D01*
X171575276Y-117720829D01*
X171585660Y-117742786D01*
X171593843Y-117765655D01*
X171599744Y-117789215D01*
X171603308Y-117813241D01*
X171604500Y-117837500D01*
X171604500Y-118382500D01*
X171603308Y-118406759D01*
X171599744Y-118430785D01*
X171593843Y-118454345D01*
X171585660Y-118477214D01*
X171575276Y-118499171D01*
X171562789Y-118520004D01*
X171548320Y-118539512D01*
X171532009Y-118557509D01*
X171514012Y-118573820D01*
X171494504Y-118588289D01*
X171473671Y-118600776D01*
X171451714Y-118611160D01*
X171428845Y-118619343D01*
X171405285Y-118625244D01*
X171381259Y-118628808D01*
X171357000Y-118630000D01*
X170862000Y-118630000D01*
X170837741Y-118628808D01*
X170813715Y-118625244D01*
X170790155Y-118619343D01*
X170767286Y-118611160D01*
X170745329Y-118600776D01*
X170724496Y-118588289D01*
X170704988Y-118573820D01*
X170686991Y-118557509D01*
X170670680Y-118539512D01*
X170656211Y-118520004D01*
X170643724Y-118499171D01*
X170633340Y-118477214D01*
X170625157Y-118454345D01*
X170619256Y-118430785D01*
X170615692Y-118406759D01*
X170614500Y-118382500D01*
X170614500Y-117837500D01*
X170615692Y-117813241D01*
X170619256Y-117789215D01*
X170625157Y-117765655D01*
X170633340Y-117742786D01*
X170643724Y-117720829D01*
X170656211Y-117699996D01*
X170670680Y-117680488D01*
X170686991Y-117662491D01*
X170704988Y-117646180D01*
X170724496Y-117631711D01*
X170745329Y-117619224D01*
X170767286Y-117608840D01*
X170790155Y-117600657D01*
X170813715Y-117594756D01*
X170837741Y-117591192D01*
X170862000Y-117590000D01*
X171357000Y-117590000D01*
X171381259Y-117591192D01*
X171381259Y-117591192D01*
G37*
D11*
X171109500Y-118110000D03*
D10*
G36*
X168190759Y-95241192D02*
G01*
X168214785Y-95244756D01*
X168238345Y-95250657D01*
X168261214Y-95258840D01*
X168283171Y-95269224D01*
X168304004Y-95281711D01*
X168323512Y-95296180D01*
X168341509Y-95312491D01*
X168357820Y-95330488D01*
X168372289Y-95349996D01*
X168384776Y-95370829D01*
X168395160Y-95392786D01*
X168403343Y-95415655D01*
X168409244Y-95439215D01*
X168412808Y-95463241D01*
X168414000Y-95487500D01*
X168414000Y-95982500D01*
X168412808Y-96006759D01*
X168409244Y-96030785D01*
X168403343Y-96054345D01*
X168395160Y-96077214D01*
X168384776Y-96099171D01*
X168372289Y-96120004D01*
X168357820Y-96139512D01*
X168341509Y-96157509D01*
X168323512Y-96173820D01*
X168304004Y-96188289D01*
X168283171Y-96200776D01*
X168261214Y-96211160D01*
X168238345Y-96219343D01*
X168214785Y-96225244D01*
X168190759Y-96228808D01*
X168166500Y-96230000D01*
X167621500Y-96230000D01*
X167597241Y-96228808D01*
X167573215Y-96225244D01*
X167549655Y-96219343D01*
X167526786Y-96211160D01*
X167504829Y-96200776D01*
X167483996Y-96188289D01*
X167464488Y-96173820D01*
X167446491Y-96157509D01*
X167430180Y-96139512D01*
X167415711Y-96120004D01*
X167403224Y-96099171D01*
X167392840Y-96077214D01*
X167384657Y-96054345D01*
X167378756Y-96030785D01*
X167375192Y-96006759D01*
X167374000Y-95982500D01*
X167374000Y-95487500D01*
X167375192Y-95463241D01*
X167378756Y-95439215D01*
X167384657Y-95415655D01*
X167392840Y-95392786D01*
X167403224Y-95370829D01*
X167415711Y-95349996D01*
X167430180Y-95330488D01*
X167446491Y-95312491D01*
X167464488Y-95296180D01*
X167483996Y-95281711D01*
X167504829Y-95269224D01*
X167526786Y-95258840D01*
X167549655Y-95250657D01*
X167573215Y-95244756D01*
X167597241Y-95241192D01*
X167621500Y-95240000D01*
X168166500Y-95240000D01*
X168190759Y-95241192D01*
X168190759Y-95241192D01*
G37*
D11*
X167894000Y-95735000D03*
D10*
G36*
X168190759Y-94271192D02*
G01*
X168214785Y-94274756D01*
X168238345Y-94280657D01*
X168261214Y-94288840D01*
X168283171Y-94299224D01*
X168304004Y-94311711D01*
X168323512Y-94326180D01*
X168341509Y-94342491D01*
X168357820Y-94360488D01*
X168372289Y-94379996D01*
X168384776Y-94400829D01*
X168395160Y-94422786D01*
X168403343Y-94445655D01*
X168409244Y-94469215D01*
X168412808Y-94493241D01*
X168414000Y-94517500D01*
X168414000Y-95012500D01*
X168412808Y-95036759D01*
X168409244Y-95060785D01*
X168403343Y-95084345D01*
X168395160Y-95107214D01*
X168384776Y-95129171D01*
X168372289Y-95150004D01*
X168357820Y-95169512D01*
X168341509Y-95187509D01*
X168323512Y-95203820D01*
X168304004Y-95218289D01*
X168283171Y-95230776D01*
X168261214Y-95241160D01*
X168238345Y-95249343D01*
X168214785Y-95255244D01*
X168190759Y-95258808D01*
X168166500Y-95260000D01*
X167621500Y-95260000D01*
X167597241Y-95258808D01*
X167573215Y-95255244D01*
X167549655Y-95249343D01*
X167526786Y-95241160D01*
X167504829Y-95230776D01*
X167483996Y-95218289D01*
X167464488Y-95203820D01*
X167446491Y-95187509D01*
X167430180Y-95169512D01*
X167415711Y-95150004D01*
X167403224Y-95129171D01*
X167392840Y-95107214D01*
X167384657Y-95084345D01*
X167378756Y-95060785D01*
X167375192Y-95036759D01*
X167374000Y-95012500D01*
X167374000Y-94517500D01*
X167375192Y-94493241D01*
X167378756Y-94469215D01*
X167384657Y-94445655D01*
X167392840Y-94422786D01*
X167403224Y-94400829D01*
X167415711Y-94379996D01*
X167430180Y-94360488D01*
X167446491Y-94342491D01*
X167464488Y-94326180D01*
X167483996Y-94311711D01*
X167504829Y-94299224D01*
X167526786Y-94288840D01*
X167549655Y-94280657D01*
X167573215Y-94274756D01*
X167597241Y-94271192D01*
X167621500Y-94270000D01*
X168166500Y-94270000D01*
X168190759Y-94271192D01*
X168190759Y-94271192D01*
G37*
D11*
X167894000Y-94765000D03*
D10*
G36*
X160570759Y-93001192D02*
G01*
X160594785Y-93004756D01*
X160618345Y-93010657D01*
X160641214Y-93018840D01*
X160663171Y-93029224D01*
X160684004Y-93041711D01*
X160703512Y-93056180D01*
X160721509Y-93072491D01*
X160737820Y-93090488D01*
X160752289Y-93109996D01*
X160764776Y-93130829D01*
X160775160Y-93152786D01*
X160783343Y-93175655D01*
X160789244Y-93199215D01*
X160792808Y-93223241D01*
X160794000Y-93247500D01*
X160794000Y-93742500D01*
X160792808Y-93766759D01*
X160789244Y-93790785D01*
X160783343Y-93814345D01*
X160775160Y-93837214D01*
X160764776Y-93859171D01*
X160752289Y-93880004D01*
X160737820Y-93899512D01*
X160721509Y-93917509D01*
X160703512Y-93933820D01*
X160684004Y-93948289D01*
X160663171Y-93960776D01*
X160641214Y-93971160D01*
X160618345Y-93979343D01*
X160594785Y-93985244D01*
X160570759Y-93988808D01*
X160546500Y-93990000D01*
X160001500Y-93990000D01*
X159977241Y-93988808D01*
X159953215Y-93985244D01*
X159929655Y-93979343D01*
X159906786Y-93971160D01*
X159884829Y-93960776D01*
X159863996Y-93948289D01*
X159844488Y-93933820D01*
X159826491Y-93917509D01*
X159810180Y-93899512D01*
X159795711Y-93880004D01*
X159783224Y-93859171D01*
X159772840Y-93837214D01*
X159764657Y-93814345D01*
X159758756Y-93790785D01*
X159755192Y-93766759D01*
X159754000Y-93742500D01*
X159754000Y-93247500D01*
X159755192Y-93223241D01*
X159758756Y-93199215D01*
X159764657Y-93175655D01*
X159772840Y-93152786D01*
X159783224Y-93130829D01*
X159795711Y-93109996D01*
X159810180Y-93090488D01*
X159826491Y-93072491D01*
X159844488Y-93056180D01*
X159863996Y-93041711D01*
X159884829Y-93029224D01*
X159906786Y-93018840D01*
X159929655Y-93010657D01*
X159953215Y-93004756D01*
X159977241Y-93001192D01*
X160001500Y-93000000D01*
X160546500Y-93000000D01*
X160570759Y-93001192D01*
X160570759Y-93001192D01*
G37*
D11*
X160274000Y-93495000D03*
D10*
G36*
X160570759Y-93971192D02*
G01*
X160594785Y-93974756D01*
X160618345Y-93980657D01*
X160641214Y-93988840D01*
X160663171Y-93999224D01*
X160684004Y-94011711D01*
X160703512Y-94026180D01*
X160721509Y-94042491D01*
X160737820Y-94060488D01*
X160752289Y-94079996D01*
X160764776Y-94100829D01*
X160775160Y-94122786D01*
X160783343Y-94145655D01*
X160789244Y-94169215D01*
X160792808Y-94193241D01*
X160794000Y-94217500D01*
X160794000Y-94712500D01*
X160792808Y-94736759D01*
X160789244Y-94760785D01*
X160783343Y-94784345D01*
X160775160Y-94807214D01*
X160764776Y-94829171D01*
X160752289Y-94850004D01*
X160737820Y-94869512D01*
X160721509Y-94887509D01*
X160703512Y-94903820D01*
X160684004Y-94918289D01*
X160663171Y-94930776D01*
X160641214Y-94941160D01*
X160618345Y-94949343D01*
X160594785Y-94955244D01*
X160570759Y-94958808D01*
X160546500Y-94960000D01*
X160001500Y-94960000D01*
X159977241Y-94958808D01*
X159953215Y-94955244D01*
X159929655Y-94949343D01*
X159906786Y-94941160D01*
X159884829Y-94930776D01*
X159863996Y-94918289D01*
X159844488Y-94903820D01*
X159826491Y-94887509D01*
X159810180Y-94869512D01*
X159795711Y-94850004D01*
X159783224Y-94829171D01*
X159772840Y-94807214D01*
X159764657Y-94784345D01*
X159758756Y-94760785D01*
X159755192Y-94736759D01*
X159754000Y-94712500D01*
X159754000Y-94217500D01*
X159755192Y-94193241D01*
X159758756Y-94169215D01*
X159764657Y-94145655D01*
X159772840Y-94122786D01*
X159783224Y-94100829D01*
X159795711Y-94079996D01*
X159810180Y-94060488D01*
X159826491Y-94042491D01*
X159844488Y-94026180D01*
X159863996Y-94011711D01*
X159884829Y-93999224D01*
X159906786Y-93988840D01*
X159929655Y-93980657D01*
X159953215Y-93974756D01*
X159977241Y-93971192D01*
X160001500Y-93970000D01*
X160546500Y-93970000D01*
X160570759Y-93971192D01*
X160570759Y-93971192D01*
G37*
D11*
X160274000Y-94465000D03*
D10*
G36*
X162932959Y-93971192D02*
G01*
X162956985Y-93974756D01*
X162980545Y-93980657D01*
X163003414Y-93988840D01*
X163025371Y-93999224D01*
X163046204Y-94011711D01*
X163065712Y-94026180D01*
X163083709Y-94042491D01*
X163100020Y-94060488D01*
X163114489Y-94079996D01*
X163126976Y-94100829D01*
X163137360Y-94122786D01*
X163145543Y-94145655D01*
X163151444Y-94169215D01*
X163155008Y-94193241D01*
X163156200Y-94217500D01*
X163156200Y-94712500D01*
X163155008Y-94736759D01*
X163151444Y-94760785D01*
X163145543Y-94784345D01*
X163137360Y-94807214D01*
X163126976Y-94829171D01*
X163114489Y-94850004D01*
X163100020Y-94869512D01*
X163083709Y-94887509D01*
X163065712Y-94903820D01*
X163046204Y-94918289D01*
X163025371Y-94930776D01*
X163003414Y-94941160D01*
X162980545Y-94949343D01*
X162956985Y-94955244D01*
X162932959Y-94958808D01*
X162908700Y-94960000D01*
X162363700Y-94960000D01*
X162339441Y-94958808D01*
X162315415Y-94955244D01*
X162291855Y-94949343D01*
X162268986Y-94941160D01*
X162247029Y-94930776D01*
X162226196Y-94918289D01*
X162206688Y-94903820D01*
X162188691Y-94887509D01*
X162172380Y-94869512D01*
X162157911Y-94850004D01*
X162145424Y-94829171D01*
X162135040Y-94807214D01*
X162126857Y-94784345D01*
X162120956Y-94760785D01*
X162117392Y-94736759D01*
X162116200Y-94712500D01*
X162116200Y-94217500D01*
X162117392Y-94193241D01*
X162120956Y-94169215D01*
X162126857Y-94145655D01*
X162135040Y-94122786D01*
X162145424Y-94100829D01*
X162157911Y-94079996D01*
X162172380Y-94060488D01*
X162188691Y-94042491D01*
X162206688Y-94026180D01*
X162226196Y-94011711D01*
X162247029Y-93999224D01*
X162268986Y-93988840D01*
X162291855Y-93980657D01*
X162315415Y-93974756D01*
X162339441Y-93971192D01*
X162363700Y-93970000D01*
X162908700Y-93970000D01*
X162932959Y-93971192D01*
X162932959Y-93971192D01*
G37*
D11*
X162636200Y-94465000D03*
D10*
G36*
X162932959Y-93001192D02*
G01*
X162956985Y-93004756D01*
X162980545Y-93010657D01*
X163003414Y-93018840D01*
X163025371Y-93029224D01*
X163046204Y-93041711D01*
X163065712Y-93056180D01*
X163083709Y-93072491D01*
X163100020Y-93090488D01*
X163114489Y-93109996D01*
X163126976Y-93130829D01*
X163137360Y-93152786D01*
X163145543Y-93175655D01*
X163151444Y-93199215D01*
X163155008Y-93223241D01*
X163156200Y-93247500D01*
X163156200Y-93742500D01*
X163155008Y-93766759D01*
X163151444Y-93790785D01*
X163145543Y-93814345D01*
X163137360Y-93837214D01*
X163126976Y-93859171D01*
X163114489Y-93880004D01*
X163100020Y-93899512D01*
X163083709Y-93917509D01*
X163065712Y-93933820D01*
X163046204Y-93948289D01*
X163025371Y-93960776D01*
X163003414Y-93971160D01*
X162980545Y-93979343D01*
X162956985Y-93985244D01*
X162932959Y-93988808D01*
X162908700Y-93990000D01*
X162363700Y-93990000D01*
X162339441Y-93988808D01*
X162315415Y-93985244D01*
X162291855Y-93979343D01*
X162268986Y-93971160D01*
X162247029Y-93960776D01*
X162226196Y-93948289D01*
X162206688Y-93933820D01*
X162188691Y-93917509D01*
X162172380Y-93899512D01*
X162157911Y-93880004D01*
X162145424Y-93859171D01*
X162135040Y-93837214D01*
X162126857Y-93814345D01*
X162120956Y-93790785D01*
X162117392Y-93766759D01*
X162116200Y-93742500D01*
X162116200Y-93247500D01*
X162117392Y-93223241D01*
X162120956Y-93199215D01*
X162126857Y-93175655D01*
X162135040Y-93152786D01*
X162145424Y-93130829D01*
X162157911Y-93109996D01*
X162172380Y-93090488D01*
X162188691Y-93072491D01*
X162206688Y-93056180D01*
X162226196Y-93041711D01*
X162247029Y-93029224D01*
X162268986Y-93018840D01*
X162291855Y-93010657D01*
X162315415Y-93004756D01*
X162339441Y-93001192D01*
X162363700Y-93000000D01*
X162908700Y-93000000D01*
X162932959Y-93001192D01*
X162932959Y-93001192D01*
G37*
D11*
X162636200Y-93495000D03*
D10*
G36*
X162780559Y-105756792D02*
G01*
X162804585Y-105760356D01*
X162828145Y-105766257D01*
X162851014Y-105774440D01*
X162872971Y-105784824D01*
X162893804Y-105797311D01*
X162913312Y-105811780D01*
X162931309Y-105828091D01*
X162947620Y-105846088D01*
X162962089Y-105865596D01*
X162974576Y-105886429D01*
X162984960Y-105908386D01*
X162993143Y-105931255D01*
X162999044Y-105954815D01*
X163002608Y-105978841D01*
X163003800Y-106003100D01*
X163003800Y-106498100D01*
X163002608Y-106522359D01*
X162999044Y-106546385D01*
X162993143Y-106569945D01*
X162984960Y-106592814D01*
X162974576Y-106614771D01*
X162962089Y-106635604D01*
X162947620Y-106655112D01*
X162931309Y-106673109D01*
X162913312Y-106689420D01*
X162893804Y-106703889D01*
X162872971Y-106716376D01*
X162851014Y-106726760D01*
X162828145Y-106734943D01*
X162804585Y-106740844D01*
X162780559Y-106744408D01*
X162756300Y-106745600D01*
X162211300Y-106745600D01*
X162187041Y-106744408D01*
X162163015Y-106740844D01*
X162139455Y-106734943D01*
X162116586Y-106726760D01*
X162094629Y-106716376D01*
X162073796Y-106703889D01*
X162054288Y-106689420D01*
X162036291Y-106673109D01*
X162019980Y-106655112D01*
X162005511Y-106635604D01*
X161993024Y-106614771D01*
X161982640Y-106592814D01*
X161974457Y-106569945D01*
X161968556Y-106546385D01*
X161964992Y-106522359D01*
X161963800Y-106498100D01*
X161963800Y-106003100D01*
X161964992Y-105978841D01*
X161968556Y-105954815D01*
X161974457Y-105931255D01*
X161982640Y-105908386D01*
X161993024Y-105886429D01*
X162005511Y-105865596D01*
X162019980Y-105846088D01*
X162036291Y-105828091D01*
X162054288Y-105811780D01*
X162073796Y-105797311D01*
X162094629Y-105784824D01*
X162116586Y-105774440D01*
X162139455Y-105766257D01*
X162163015Y-105760356D01*
X162187041Y-105756792D01*
X162211300Y-105755600D01*
X162756300Y-105755600D01*
X162780559Y-105756792D01*
X162780559Y-105756792D01*
G37*
D11*
X162483800Y-106250600D03*
D10*
G36*
X162780559Y-104786792D02*
G01*
X162804585Y-104790356D01*
X162828145Y-104796257D01*
X162851014Y-104804440D01*
X162872971Y-104814824D01*
X162893804Y-104827311D01*
X162913312Y-104841780D01*
X162931309Y-104858091D01*
X162947620Y-104876088D01*
X162962089Y-104895596D01*
X162974576Y-104916429D01*
X162984960Y-104938386D01*
X162993143Y-104961255D01*
X162999044Y-104984815D01*
X163002608Y-105008841D01*
X163003800Y-105033100D01*
X163003800Y-105528100D01*
X163002608Y-105552359D01*
X162999044Y-105576385D01*
X162993143Y-105599945D01*
X162984960Y-105622814D01*
X162974576Y-105644771D01*
X162962089Y-105665604D01*
X162947620Y-105685112D01*
X162931309Y-105703109D01*
X162913312Y-105719420D01*
X162893804Y-105733889D01*
X162872971Y-105746376D01*
X162851014Y-105756760D01*
X162828145Y-105764943D01*
X162804585Y-105770844D01*
X162780559Y-105774408D01*
X162756300Y-105775600D01*
X162211300Y-105775600D01*
X162187041Y-105774408D01*
X162163015Y-105770844D01*
X162139455Y-105764943D01*
X162116586Y-105756760D01*
X162094629Y-105746376D01*
X162073796Y-105733889D01*
X162054288Y-105719420D01*
X162036291Y-105703109D01*
X162019980Y-105685112D01*
X162005511Y-105665604D01*
X161993024Y-105644771D01*
X161982640Y-105622814D01*
X161974457Y-105599945D01*
X161968556Y-105576385D01*
X161964992Y-105552359D01*
X161963800Y-105528100D01*
X161963800Y-105033100D01*
X161964992Y-105008841D01*
X161968556Y-104984815D01*
X161974457Y-104961255D01*
X161982640Y-104938386D01*
X161993024Y-104916429D01*
X162005511Y-104895596D01*
X162019980Y-104876088D01*
X162036291Y-104858091D01*
X162054288Y-104841780D01*
X162073796Y-104827311D01*
X162094629Y-104814824D01*
X162116586Y-104804440D01*
X162139455Y-104796257D01*
X162163015Y-104790356D01*
X162187041Y-104786792D01*
X162211300Y-104785600D01*
X162756300Y-104785600D01*
X162780559Y-104786792D01*
X162780559Y-104786792D01*
G37*
D11*
X162483800Y-105280600D03*
D10*
G36*
X151754959Y-100039792D02*
G01*
X151778985Y-100043356D01*
X151802545Y-100049257D01*
X151825414Y-100057440D01*
X151847371Y-100067824D01*
X151868204Y-100080311D01*
X151887712Y-100094780D01*
X151905709Y-100111091D01*
X151922020Y-100129088D01*
X151936489Y-100148596D01*
X151948976Y-100169429D01*
X151959360Y-100191386D01*
X151967543Y-100214255D01*
X151973444Y-100237815D01*
X151977008Y-100261841D01*
X151978200Y-100286100D01*
X151978200Y-100831100D01*
X151977008Y-100855359D01*
X151973444Y-100879385D01*
X151967543Y-100902945D01*
X151959360Y-100925814D01*
X151948976Y-100947771D01*
X151936489Y-100968604D01*
X151922020Y-100988112D01*
X151905709Y-101006109D01*
X151887712Y-101022420D01*
X151868204Y-101036889D01*
X151847371Y-101049376D01*
X151825414Y-101059760D01*
X151802545Y-101067943D01*
X151778985Y-101073844D01*
X151754959Y-101077408D01*
X151730700Y-101078600D01*
X151235700Y-101078600D01*
X151211441Y-101077408D01*
X151187415Y-101073844D01*
X151163855Y-101067943D01*
X151140986Y-101059760D01*
X151119029Y-101049376D01*
X151098196Y-101036889D01*
X151078688Y-101022420D01*
X151060691Y-101006109D01*
X151044380Y-100988112D01*
X151029911Y-100968604D01*
X151017424Y-100947771D01*
X151007040Y-100925814D01*
X150998857Y-100902945D01*
X150992956Y-100879385D01*
X150989392Y-100855359D01*
X150988200Y-100831100D01*
X150988200Y-100286100D01*
X150989392Y-100261841D01*
X150992956Y-100237815D01*
X150998857Y-100214255D01*
X151007040Y-100191386D01*
X151017424Y-100169429D01*
X151029911Y-100148596D01*
X151044380Y-100129088D01*
X151060691Y-100111091D01*
X151078688Y-100094780D01*
X151098196Y-100080311D01*
X151119029Y-100067824D01*
X151140986Y-100057440D01*
X151163855Y-100049257D01*
X151187415Y-100043356D01*
X151211441Y-100039792D01*
X151235700Y-100038600D01*
X151730700Y-100038600D01*
X151754959Y-100039792D01*
X151754959Y-100039792D01*
G37*
D11*
X151483200Y-100558600D03*
D10*
G36*
X152724959Y-100039792D02*
G01*
X152748985Y-100043356D01*
X152772545Y-100049257D01*
X152795414Y-100057440D01*
X152817371Y-100067824D01*
X152838204Y-100080311D01*
X152857712Y-100094780D01*
X152875709Y-100111091D01*
X152892020Y-100129088D01*
X152906489Y-100148596D01*
X152918976Y-100169429D01*
X152929360Y-100191386D01*
X152937543Y-100214255D01*
X152943444Y-100237815D01*
X152947008Y-100261841D01*
X152948200Y-100286100D01*
X152948200Y-100831100D01*
X152947008Y-100855359D01*
X152943444Y-100879385D01*
X152937543Y-100902945D01*
X152929360Y-100925814D01*
X152918976Y-100947771D01*
X152906489Y-100968604D01*
X152892020Y-100988112D01*
X152875709Y-101006109D01*
X152857712Y-101022420D01*
X152838204Y-101036889D01*
X152817371Y-101049376D01*
X152795414Y-101059760D01*
X152772545Y-101067943D01*
X152748985Y-101073844D01*
X152724959Y-101077408D01*
X152700700Y-101078600D01*
X152205700Y-101078600D01*
X152181441Y-101077408D01*
X152157415Y-101073844D01*
X152133855Y-101067943D01*
X152110986Y-101059760D01*
X152089029Y-101049376D01*
X152068196Y-101036889D01*
X152048688Y-101022420D01*
X152030691Y-101006109D01*
X152014380Y-100988112D01*
X151999911Y-100968604D01*
X151987424Y-100947771D01*
X151977040Y-100925814D01*
X151968857Y-100902945D01*
X151962956Y-100879385D01*
X151959392Y-100855359D01*
X151958200Y-100831100D01*
X151958200Y-100286100D01*
X151959392Y-100261841D01*
X151962956Y-100237815D01*
X151968857Y-100214255D01*
X151977040Y-100191386D01*
X151987424Y-100169429D01*
X151999911Y-100148596D01*
X152014380Y-100129088D01*
X152030691Y-100111091D01*
X152048688Y-100094780D01*
X152068196Y-100080311D01*
X152089029Y-100067824D01*
X152110986Y-100057440D01*
X152133855Y-100049257D01*
X152157415Y-100043356D01*
X152181441Y-100039792D01*
X152205700Y-100038600D01*
X152700700Y-100038600D01*
X152724959Y-100039792D01*
X152724959Y-100039792D01*
G37*
D11*
X152453200Y-100558600D03*
D10*
G36*
X152772959Y-89239592D02*
G01*
X152796985Y-89243156D01*
X152820545Y-89249057D01*
X152843414Y-89257240D01*
X152865371Y-89267624D01*
X152886204Y-89280111D01*
X152905712Y-89294580D01*
X152923709Y-89310891D01*
X152940020Y-89328888D01*
X152954489Y-89348396D01*
X152966976Y-89369229D01*
X152977360Y-89391186D01*
X152985543Y-89414055D01*
X152991444Y-89437615D01*
X152995008Y-89461641D01*
X152996200Y-89485900D01*
X152996200Y-89980900D01*
X152995008Y-90005159D01*
X152991444Y-90029185D01*
X152985543Y-90052745D01*
X152977360Y-90075614D01*
X152966976Y-90097571D01*
X152954489Y-90118404D01*
X152940020Y-90137912D01*
X152923709Y-90155909D01*
X152905712Y-90172220D01*
X152886204Y-90186689D01*
X152865371Y-90199176D01*
X152843414Y-90209560D01*
X152820545Y-90217743D01*
X152796985Y-90223644D01*
X152772959Y-90227208D01*
X152748700Y-90228400D01*
X152203700Y-90228400D01*
X152179441Y-90227208D01*
X152155415Y-90223644D01*
X152131855Y-90217743D01*
X152108986Y-90209560D01*
X152087029Y-90199176D01*
X152066196Y-90186689D01*
X152046688Y-90172220D01*
X152028691Y-90155909D01*
X152012380Y-90137912D01*
X151997911Y-90118404D01*
X151985424Y-90097571D01*
X151975040Y-90075614D01*
X151966857Y-90052745D01*
X151960956Y-90029185D01*
X151957392Y-90005159D01*
X151956200Y-89980900D01*
X151956200Y-89485900D01*
X151957392Y-89461641D01*
X151960956Y-89437615D01*
X151966857Y-89414055D01*
X151975040Y-89391186D01*
X151985424Y-89369229D01*
X151997911Y-89348396D01*
X152012380Y-89328888D01*
X152028691Y-89310891D01*
X152046688Y-89294580D01*
X152066196Y-89280111D01*
X152087029Y-89267624D01*
X152108986Y-89257240D01*
X152131855Y-89249057D01*
X152155415Y-89243156D01*
X152179441Y-89239592D01*
X152203700Y-89238400D01*
X152748700Y-89238400D01*
X152772959Y-89239592D01*
X152772959Y-89239592D01*
G37*
D11*
X152476200Y-89733400D03*
D10*
G36*
X152772959Y-90209592D02*
G01*
X152796985Y-90213156D01*
X152820545Y-90219057D01*
X152843414Y-90227240D01*
X152865371Y-90237624D01*
X152886204Y-90250111D01*
X152905712Y-90264580D01*
X152923709Y-90280891D01*
X152940020Y-90298888D01*
X152954489Y-90318396D01*
X152966976Y-90339229D01*
X152977360Y-90361186D01*
X152985543Y-90384055D01*
X152991444Y-90407615D01*
X152995008Y-90431641D01*
X152996200Y-90455900D01*
X152996200Y-90950900D01*
X152995008Y-90975159D01*
X152991444Y-90999185D01*
X152985543Y-91022745D01*
X152977360Y-91045614D01*
X152966976Y-91067571D01*
X152954489Y-91088404D01*
X152940020Y-91107912D01*
X152923709Y-91125909D01*
X152905712Y-91142220D01*
X152886204Y-91156689D01*
X152865371Y-91169176D01*
X152843414Y-91179560D01*
X152820545Y-91187743D01*
X152796985Y-91193644D01*
X152772959Y-91197208D01*
X152748700Y-91198400D01*
X152203700Y-91198400D01*
X152179441Y-91197208D01*
X152155415Y-91193644D01*
X152131855Y-91187743D01*
X152108986Y-91179560D01*
X152087029Y-91169176D01*
X152066196Y-91156689D01*
X152046688Y-91142220D01*
X152028691Y-91125909D01*
X152012380Y-91107912D01*
X151997911Y-91088404D01*
X151985424Y-91067571D01*
X151975040Y-91045614D01*
X151966857Y-91022745D01*
X151960956Y-90999185D01*
X151957392Y-90975159D01*
X151956200Y-90950900D01*
X151956200Y-90455900D01*
X151957392Y-90431641D01*
X151960956Y-90407615D01*
X151966857Y-90384055D01*
X151975040Y-90361186D01*
X151985424Y-90339229D01*
X151997911Y-90318396D01*
X152012380Y-90298888D01*
X152028691Y-90280891D01*
X152046688Y-90264580D01*
X152066196Y-90250111D01*
X152087029Y-90237624D01*
X152108986Y-90227240D01*
X152131855Y-90219057D01*
X152155415Y-90213156D01*
X152179441Y-90209592D01*
X152203700Y-90208400D01*
X152748700Y-90208400D01*
X152772959Y-90209592D01*
X152772959Y-90209592D01*
G37*
D11*
X152476200Y-90703400D03*
D10*
G36*
X163748559Y-89473392D02*
G01*
X163772585Y-89476956D01*
X163796145Y-89482857D01*
X163819014Y-89491040D01*
X163840971Y-89501424D01*
X163861804Y-89513911D01*
X163881312Y-89528380D01*
X163899309Y-89544691D01*
X163915620Y-89562688D01*
X163930089Y-89582196D01*
X163942576Y-89603029D01*
X163952960Y-89624986D01*
X163961143Y-89647855D01*
X163967044Y-89671415D01*
X163970608Y-89695441D01*
X163971800Y-89719700D01*
X163971800Y-90264700D01*
X163970608Y-90288959D01*
X163967044Y-90312985D01*
X163961143Y-90336545D01*
X163952960Y-90359414D01*
X163942576Y-90381371D01*
X163930089Y-90402204D01*
X163915620Y-90421712D01*
X163899309Y-90439709D01*
X163881312Y-90456020D01*
X163861804Y-90470489D01*
X163840971Y-90482976D01*
X163819014Y-90493360D01*
X163796145Y-90501543D01*
X163772585Y-90507444D01*
X163748559Y-90511008D01*
X163724300Y-90512200D01*
X163229300Y-90512200D01*
X163205041Y-90511008D01*
X163181015Y-90507444D01*
X163157455Y-90501543D01*
X163134586Y-90493360D01*
X163112629Y-90482976D01*
X163091796Y-90470489D01*
X163072288Y-90456020D01*
X163054291Y-90439709D01*
X163037980Y-90421712D01*
X163023511Y-90402204D01*
X163011024Y-90381371D01*
X163000640Y-90359414D01*
X162992457Y-90336545D01*
X162986556Y-90312985D01*
X162982992Y-90288959D01*
X162981800Y-90264700D01*
X162981800Y-89719700D01*
X162982992Y-89695441D01*
X162986556Y-89671415D01*
X162992457Y-89647855D01*
X163000640Y-89624986D01*
X163011024Y-89603029D01*
X163023511Y-89582196D01*
X163037980Y-89562688D01*
X163054291Y-89544691D01*
X163072288Y-89528380D01*
X163091796Y-89513911D01*
X163112629Y-89501424D01*
X163134586Y-89491040D01*
X163157455Y-89482857D01*
X163181015Y-89476956D01*
X163205041Y-89473392D01*
X163229300Y-89472200D01*
X163724300Y-89472200D01*
X163748559Y-89473392D01*
X163748559Y-89473392D01*
G37*
D11*
X163476800Y-89992200D03*
D10*
G36*
X162778559Y-89473392D02*
G01*
X162802585Y-89476956D01*
X162826145Y-89482857D01*
X162849014Y-89491040D01*
X162870971Y-89501424D01*
X162891804Y-89513911D01*
X162911312Y-89528380D01*
X162929309Y-89544691D01*
X162945620Y-89562688D01*
X162960089Y-89582196D01*
X162972576Y-89603029D01*
X162982960Y-89624986D01*
X162991143Y-89647855D01*
X162997044Y-89671415D01*
X163000608Y-89695441D01*
X163001800Y-89719700D01*
X163001800Y-90264700D01*
X163000608Y-90288959D01*
X162997044Y-90312985D01*
X162991143Y-90336545D01*
X162982960Y-90359414D01*
X162972576Y-90381371D01*
X162960089Y-90402204D01*
X162945620Y-90421712D01*
X162929309Y-90439709D01*
X162911312Y-90456020D01*
X162891804Y-90470489D01*
X162870971Y-90482976D01*
X162849014Y-90493360D01*
X162826145Y-90501543D01*
X162802585Y-90507444D01*
X162778559Y-90511008D01*
X162754300Y-90512200D01*
X162259300Y-90512200D01*
X162235041Y-90511008D01*
X162211015Y-90507444D01*
X162187455Y-90501543D01*
X162164586Y-90493360D01*
X162142629Y-90482976D01*
X162121796Y-90470489D01*
X162102288Y-90456020D01*
X162084291Y-90439709D01*
X162067980Y-90421712D01*
X162053511Y-90402204D01*
X162041024Y-90381371D01*
X162030640Y-90359414D01*
X162022457Y-90336545D01*
X162016556Y-90312985D01*
X162012992Y-90288959D01*
X162011800Y-90264700D01*
X162011800Y-89719700D01*
X162012992Y-89695441D01*
X162016556Y-89671415D01*
X162022457Y-89647855D01*
X162030640Y-89624986D01*
X162041024Y-89603029D01*
X162053511Y-89582196D01*
X162067980Y-89562688D01*
X162084291Y-89544691D01*
X162102288Y-89528380D01*
X162121796Y-89513911D01*
X162142629Y-89501424D01*
X162164586Y-89491040D01*
X162187455Y-89482857D01*
X162211015Y-89476956D01*
X162235041Y-89473392D01*
X162259300Y-89472200D01*
X162754300Y-89472200D01*
X162778559Y-89473392D01*
X162778559Y-89473392D01*
G37*
D11*
X162506800Y-89992200D03*
D10*
G36*
X168190759Y-99254392D02*
G01*
X168214785Y-99257956D01*
X168238345Y-99263857D01*
X168261214Y-99272040D01*
X168283171Y-99282424D01*
X168304004Y-99294911D01*
X168323512Y-99309380D01*
X168341509Y-99325691D01*
X168357820Y-99343688D01*
X168372289Y-99363196D01*
X168384776Y-99384029D01*
X168395160Y-99405986D01*
X168403343Y-99428855D01*
X168409244Y-99452415D01*
X168412808Y-99476441D01*
X168414000Y-99500700D01*
X168414000Y-99995700D01*
X168412808Y-100019959D01*
X168409244Y-100043985D01*
X168403343Y-100067545D01*
X168395160Y-100090414D01*
X168384776Y-100112371D01*
X168372289Y-100133204D01*
X168357820Y-100152712D01*
X168341509Y-100170709D01*
X168323512Y-100187020D01*
X168304004Y-100201489D01*
X168283171Y-100213976D01*
X168261214Y-100224360D01*
X168238345Y-100232543D01*
X168214785Y-100238444D01*
X168190759Y-100242008D01*
X168166500Y-100243200D01*
X167621500Y-100243200D01*
X167597241Y-100242008D01*
X167573215Y-100238444D01*
X167549655Y-100232543D01*
X167526786Y-100224360D01*
X167504829Y-100213976D01*
X167483996Y-100201489D01*
X167464488Y-100187020D01*
X167446491Y-100170709D01*
X167430180Y-100152712D01*
X167415711Y-100133204D01*
X167403224Y-100112371D01*
X167392840Y-100090414D01*
X167384657Y-100067545D01*
X167378756Y-100043985D01*
X167375192Y-100019959D01*
X167374000Y-99995700D01*
X167374000Y-99500700D01*
X167375192Y-99476441D01*
X167378756Y-99452415D01*
X167384657Y-99428855D01*
X167392840Y-99405986D01*
X167403224Y-99384029D01*
X167415711Y-99363196D01*
X167430180Y-99343688D01*
X167446491Y-99325691D01*
X167464488Y-99309380D01*
X167483996Y-99294911D01*
X167504829Y-99282424D01*
X167526786Y-99272040D01*
X167549655Y-99263857D01*
X167573215Y-99257956D01*
X167597241Y-99254392D01*
X167621500Y-99253200D01*
X168166500Y-99253200D01*
X168190759Y-99254392D01*
X168190759Y-99254392D01*
G37*
D11*
X167894000Y-99748200D03*
D10*
G36*
X168190759Y-98284392D02*
G01*
X168214785Y-98287956D01*
X168238345Y-98293857D01*
X168261214Y-98302040D01*
X168283171Y-98312424D01*
X168304004Y-98324911D01*
X168323512Y-98339380D01*
X168341509Y-98355691D01*
X168357820Y-98373688D01*
X168372289Y-98393196D01*
X168384776Y-98414029D01*
X168395160Y-98435986D01*
X168403343Y-98458855D01*
X168409244Y-98482415D01*
X168412808Y-98506441D01*
X168414000Y-98530700D01*
X168414000Y-99025700D01*
X168412808Y-99049959D01*
X168409244Y-99073985D01*
X168403343Y-99097545D01*
X168395160Y-99120414D01*
X168384776Y-99142371D01*
X168372289Y-99163204D01*
X168357820Y-99182712D01*
X168341509Y-99200709D01*
X168323512Y-99217020D01*
X168304004Y-99231489D01*
X168283171Y-99243976D01*
X168261214Y-99254360D01*
X168238345Y-99262543D01*
X168214785Y-99268444D01*
X168190759Y-99272008D01*
X168166500Y-99273200D01*
X167621500Y-99273200D01*
X167597241Y-99272008D01*
X167573215Y-99268444D01*
X167549655Y-99262543D01*
X167526786Y-99254360D01*
X167504829Y-99243976D01*
X167483996Y-99231489D01*
X167464488Y-99217020D01*
X167446491Y-99200709D01*
X167430180Y-99182712D01*
X167415711Y-99163204D01*
X167403224Y-99142371D01*
X167392840Y-99120414D01*
X167384657Y-99097545D01*
X167378756Y-99073985D01*
X167375192Y-99049959D01*
X167374000Y-99025700D01*
X167374000Y-98530700D01*
X167375192Y-98506441D01*
X167378756Y-98482415D01*
X167384657Y-98458855D01*
X167392840Y-98435986D01*
X167403224Y-98414029D01*
X167415711Y-98393196D01*
X167430180Y-98373688D01*
X167446491Y-98355691D01*
X167464488Y-98339380D01*
X167483996Y-98324911D01*
X167504829Y-98312424D01*
X167526786Y-98302040D01*
X167549655Y-98293857D01*
X167573215Y-98287956D01*
X167597241Y-98284392D01*
X167621500Y-98283200D01*
X168166500Y-98283200D01*
X168190759Y-98284392D01*
X168190759Y-98284392D01*
G37*
D11*
X167894000Y-98778200D03*
D10*
G36*
X169689359Y-98284392D02*
G01*
X169713385Y-98287956D01*
X169736945Y-98293857D01*
X169759814Y-98302040D01*
X169781771Y-98312424D01*
X169802604Y-98324911D01*
X169822112Y-98339380D01*
X169840109Y-98355691D01*
X169856420Y-98373688D01*
X169870889Y-98393196D01*
X169883376Y-98414029D01*
X169893760Y-98435986D01*
X169901943Y-98458855D01*
X169907844Y-98482415D01*
X169911408Y-98506441D01*
X169912600Y-98530700D01*
X169912600Y-99025700D01*
X169911408Y-99049959D01*
X169907844Y-99073985D01*
X169901943Y-99097545D01*
X169893760Y-99120414D01*
X169883376Y-99142371D01*
X169870889Y-99163204D01*
X169856420Y-99182712D01*
X169840109Y-99200709D01*
X169822112Y-99217020D01*
X169802604Y-99231489D01*
X169781771Y-99243976D01*
X169759814Y-99254360D01*
X169736945Y-99262543D01*
X169713385Y-99268444D01*
X169689359Y-99272008D01*
X169665100Y-99273200D01*
X169120100Y-99273200D01*
X169095841Y-99272008D01*
X169071815Y-99268444D01*
X169048255Y-99262543D01*
X169025386Y-99254360D01*
X169003429Y-99243976D01*
X168982596Y-99231489D01*
X168963088Y-99217020D01*
X168945091Y-99200709D01*
X168928780Y-99182712D01*
X168914311Y-99163204D01*
X168901824Y-99142371D01*
X168891440Y-99120414D01*
X168883257Y-99097545D01*
X168877356Y-99073985D01*
X168873792Y-99049959D01*
X168872600Y-99025700D01*
X168872600Y-98530700D01*
X168873792Y-98506441D01*
X168877356Y-98482415D01*
X168883257Y-98458855D01*
X168891440Y-98435986D01*
X168901824Y-98414029D01*
X168914311Y-98393196D01*
X168928780Y-98373688D01*
X168945091Y-98355691D01*
X168963088Y-98339380D01*
X168982596Y-98324911D01*
X169003429Y-98312424D01*
X169025386Y-98302040D01*
X169048255Y-98293857D01*
X169071815Y-98287956D01*
X169095841Y-98284392D01*
X169120100Y-98283200D01*
X169665100Y-98283200D01*
X169689359Y-98284392D01*
X169689359Y-98284392D01*
G37*
D11*
X169392600Y-98778200D03*
D10*
G36*
X169689359Y-99254392D02*
G01*
X169713385Y-99257956D01*
X169736945Y-99263857D01*
X169759814Y-99272040D01*
X169781771Y-99282424D01*
X169802604Y-99294911D01*
X169822112Y-99309380D01*
X169840109Y-99325691D01*
X169856420Y-99343688D01*
X169870889Y-99363196D01*
X169883376Y-99384029D01*
X169893760Y-99405986D01*
X169901943Y-99428855D01*
X169907844Y-99452415D01*
X169911408Y-99476441D01*
X169912600Y-99500700D01*
X169912600Y-99995700D01*
X169911408Y-100019959D01*
X169907844Y-100043985D01*
X169901943Y-100067545D01*
X169893760Y-100090414D01*
X169883376Y-100112371D01*
X169870889Y-100133204D01*
X169856420Y-100152712D01*
X169840109Y-100170709D01*
X169822112Y-100187020D01*
X169802604Y-100201489D01*
X169781771Y-100213976D01*
X169759814Y-100224360D01*
X169736945Y-100232543D01*
X169713385Y-100238444D01*
X169689359Y-100242008D01*
X169665100Y-100243200D01*
X169120100Y-100243200D01*
X169095841Y-100242008D01*
X169071815Y-100238444D01*
X169048255Y-100232543D01*
X169025386Y-100224360D01*
X169003429Y-100213976D01*
X168982596Y-100201489D01*
X168963088Y-100187020D01*
X168945091Y-100170709D01*
X168928780Y-100152712D01*
X168914311Y-100133204D01*
X168901824Y-100112371D01*
X168891440Y-100090414D01*
X168883257Y-100067545D01*
X168877356Y-100043985D01*
X168873792Y-100019959D01*
X168872600Y-99995700D01*
X168872600Y-99500700D01*
X168873792Y-99476441D01*
X168877356Y-99452415D01*
X168883257Y-99428855D01*
X168891440Y-99405986D01*
X168901824Y-99384029D01*
X168914311Y-99363196D01*
X168928780Y-99343688D01*
X168945091Y-99325691D01*
X168963088Y-99309380D01*
X168982596Y-99294911D01*
X169003429Y-99282424D01*
X169025386Y-99272040D01*
X169048255Y-99263857D01*
X169071815Y-99257956D01*
X169095841Y-99254392D01*
X169120100Y-99253200D01*
X169665100Y-99253200D01*
X169689359Y-99254392D01*
X169689359Y-99254392D01*
G37*
D11*
X169392600Y-99748200D03*
D21*
X135077200Y-130302000D03*
D22*
X137617200Y-127762000D03*
X137617200Y-132842000D03*
X132537200Y-132842000D03*
X132537200Y-127762000D03*
X107848400Y-127762000D03*
X107848400Y-132842000D03*
X112928400Y-132842000D03*
X112928400Y-127762000D03*
D21*
X110388400Y-130302000D03*
D10*
G36*
X162932959Y-98974992D02*
G01*
X162956985Y-98978556D01*
X162980545Y-98984457D01*
X163003414Y-98992640D01*
X163025371Y-99003024D01*
X163046204Y-99015511D01*
X163065712Y-99029980D01*
X163083709Y-99046291D01*
X163100020Y-99064288D01*
X163114489Y-99083796D01*
X163126976Y-99104629D01*
X163137360Y-99126586D01*
X163145543Y-99149455D01*
X163151444Y-99173015D01*
X163155008Y-99197041D01*
X163156200Y-99221300D01*
X163156200Y-99716300D01*
X163155008Y-99740559D01*
X163151444Y-99764585D01*
X163145543Y-99788145D01*
X163137360Y-99811014D01*
X163126976Y-99832971D01*
X163114489Y-99853804D01*
X163100020Y-99873312D01*
X163083709Y-99891309D01*
X163065712Y-99907620D01*
X163046204Y-99922089D01*
X163025371Y-99934576D01*
X163003414Y-99944960D01*
X162980545Y-99953143D01*
X162956985Y-99959044D01*
X162932959Y-99962608D01*
X162908700Y-99963800D01*
X162363700Y-99963800D01*
X162339441Y-99962608D01*
X162315415Y-99959044D01*
X162291855Y-99953143D01*
X162268986Y-99944960D01*
X162247029Y-99934576D01*
X162226196Y-99922089D01*
X162206688Y-99907620D01*
X162188691Y-99891309D01*
X162172380Y-99873312D01*
X162157911Y-99853804D01*
X162145424Y-99832971D01*
X162135040Y-99811014D01*
X162126857Y-99788145D01*
X162120956Y-99764585D01*
X162117392Y-99740559D01*
X162116200Y-99716300D01*
X162116200Y-99221300D01*
X162117392Y-99197041D01*
X162120956Y-99173015D01*
X162126857Y-99149455D01*
X162135040Y-99126586D01*
X162145424Y-99104629D01*
X162157911Y-99083796D01*
X162172380Y-99064288D01*
X162188691Y-99046291D01*
X162206688Y-99029980D01*
X162226196Y-99015511D01*
X162247029Y-99003024D01*
X162268986Y-98992640D01*
X162291855Y-98984457D01*
X162315415Y-98978556D01*
X162339441Y-98974992D01*
X162363700Y-98973800D01*
X162908700Y-98973800D01*
X162932959Y-98974992D01*
X162932959Y-98974992D01*
G37*
D11*
X162636200Y-99468800D03*
D10*
G36*
X162932959Y-98004992D02*
G01*
X162956985Y-98008556D01*
X162980545Y-98014457D01*
X163003414Y-98022640D01*
X163025371Y-98033024D01*
X163046204Y-98045511D01*
X163065712Y-98059980D01*
X163083709Y-98076291D01*
X163100020Y-98094288D01*
X163114489Y-98113796D01*
X163126976Y-98134629D01*
X163137360Y-98156586D01*
X163145543Y-98179455D01*
X163151444Y-98203015D01*
X163155008Y-98227041D01*
X163156200Y-98251300D01*
X163156200Y-98746300D01*
X163155008Y-98770559D01*
X163151444Y-98794585D01*
X163145543Y-98818145D01*
X163137360Y-98841014D01*
X163126976Y-98862971D01*
X163114489Y-98883804D01*
X163100020Y-98903312D01*
X163083709Y-98921309D01*
X163065712Y-98937620D01*
X163046204Y-98952089D01*
X163025371Y-98964576D01*
X163003414Y-98974960D01*
X162980545Y-98983143D01*
X162956985Y-98989044D01*
X162932959Y-98992608D01*
X162908700Y-98993800D01*
X162363700Y-98993800D01*
X162339441Y-98992608D01*
X162315415Y-98989044D01*
X162291855Y-98983143D01*
X162268986Y-98974960D01*
X162247029Y-98964576D01*
X162226196Y-98952089D01*
X162206688Y-98937620D01*
X162188691Y-98921309D01*
X162172380Y-98903312D01*
X162157911Y-98883804D01*
X162145424Y-98862971D01*
X162135040Y-98841014D01*
X162126857Y-98818145D01*
X162120956Y-98794585D01*
X162117392Y-98770559D01*
X162116200Y-98746300D01*
X162116200Y-98251300D01*
X162117392Y-98227041D01*
X162120956Y-98203015D01*
X162126857Y-98179455D01*
X162135040Y-98156586D01*
X162145424Y-98134629D01*
X162157911Y-98113796D01*
X162172380Y-98094288D01*
X162188691Y-98076291D01*
X162206688Y-98059980D01*
X162226196Y-98045511D01*
X162247029Y-98033024D01*
X162268986Y-98022640D01*
X162291855Y-98014457D01*
X162315415Y-98008556D01*
X162339441Y-98004992D01*
X162363700Y-98003800D01*
X162908700Y-98003800D01*
X162932959Y-98004992D01*
X162932959Y-98004992D01*
G37*
D11*
X162636200Y-98498800D03*
D10*
G36*
X160596159Y-98004992D02*
G01*
X160620185Y-98008556D01*
X160643745Y-98014457D01*
X160666614Y-98022640D01*
X160688571Y-98033024D01*
X160709404Y-98045511D01*
X160728912Y-98059980D01*
X160746909Y-98076291D01*
X160763220Y-98094288D01*
X160777689Y-98113796D01*
X160790176Y-98134629D01*
X160800560Y-98156586D01*
X160808743Y-98179455D01*
X160814644Y-98203015D01*
X160818208Y-98227041D01*
X160819400Y-98251300D01*
X160819400Y-98746300D01*
X160818208Y-98770559D01*
X160814644Y-98794585D01*
X160808743Y-98818145D01*
X160800560Y-98841014D01*
X160790176Y-98862971D01*
X160777689Y-98883804D01*
X160763220Y-98903312D01*
X160746909Y-98921309D01*
X160728912Y-98937620D01*
X160709404Y-98952089D01*
X160688571Y-98964576D01*
X160666614Y-98974960D01*
X160643745Y-98983143D01*
X160620185Y-98989044D01*
X160596159Y-98992608D01*
X160571900Y-98993800D01*
X160026900Y-98993800D01*
X160002641Y-98992608D01*
X159978615Y-98989044D01*
X159955055Y-98983143D01*
X159932186Y-98974960D01*
X159910229Y-98964576D01*
X159889396Y-98952089D01*
X159869888Y-98937620D01*
X159851891Y-98921309D01*
X159835580Y-98903312D01*
X159821111Y-98883804D01*
X159808624Y-98862971D01*
X159798240Y-98841014D01*
X159790057Y-98818145D01*
X159784156Y-98794585D01*
X159780592Y-98770559D01*
X159779400Y-98746300D01*
X159779400Y-98251300D01*
X159780592Y-98227041D01*
X159784156Y-98203015D01*
X159790057Y-98179455D01*
X159798240Y-98156586D01*
X159808624Y-98134629D01*
X159821111Y-98113796D01*
X159835580Y-98094288D01*
X159851891Y-98076291D01*
X159869888Y-98059980D01*
X159889396Y-98045511D01*
X159910229Y-98033024D01*
X159932186Y-98022640D01*
X159955055Y-98014457D01*
X159978615Y-98008556D01*
X160002641Y-98004992D01*
X160026900Y-98003800D01*
X160571900Y-98003800D01*
X160596159Y-98004992D01*
X160596159Y-98004992D01*
G37*
D11*
X160299400Y-98498800D03*
D10*
G36*
X160596159Y-98974992D02*
G01*
X160620185Y-98978556D01*
X160643745Y-98984457D01*
X160666614Y-98992640D01*
X160688571Y-99003024D01*
X160709404Y-99015511D01*
X160728912Y-99029980D01*
X160746909Y-99046291D01*
X160763220Y-99064288D01*
X160777689Y-99083796D01*
X160790176Y-99104629D01*
X160800560Y-99126586D01*
X160808743Y-99149455D01*
X160814644Y-99173015D01*
X160818208Y-99197041D01*
X160819400Y-99221300D01*
X160819400Y-99716300D01*
X160818208Y-99740559D01*
X160814644Y-99764585D01*
X160808743Y-99788145D01*
X160800560Y-99811014D01*
X160790176Y-99832971D01*
X160777689Y-99853804D01*
X160763220Y-99873312D01*
X160746909Y-99891309D01*
X160728912Y-99907620D01*
X160709404Y-99922089D01*
X160688571Y-99934576D01*
X160666614Y-99944960D01*
X160643745Y-99953143D01*
X160620185Y-99959044D01*
X160596159Y-99962608D01*
X160571900Y-99963800D01*
X160026900Y-99963800D01*
X160002641Y-99962608D01*
X159978615Y-99959044D01*
X159955055Y-99953143D01*
X159932186Y-99944960D01*
X159910229Y-99934576D01*
X159889396Y-99922089D01*
X159869888Y-99907620D01*
X159851891Y-99891309D01*
X159835580Y-99873312D01*
X159821111Y-99853804D01*
X159808624Y-99832971D01*
X159798240Y-99811014D01*
X159790057Y-99788145D01*
X159784156Y-99764585D01*
X159780592Y-99740559D01*
X159779400Y-99716300D01*
X159779400Y-99221300D01*
X159780592Y-99197041D01*
X159784156Y-99173015D01*
X159790057Y-99149455D01*
X159798240Y-99126586D01*
X159808624Y-99104629D01*
X159821111Y-99083796D01*
X159835580Y-99064288D01*
X159851891Y-99046291D01*
X159869888Y-99029980D01*
X159889396Y-99015511D01*
X159910229Y-99003024D01*
X159932186Y-98992640D01*
X159955055Y-98984457D01*
X159978615Y-98978556D01*
X160002641Y-98974992D01*
X160026900Y-98973800D01*
X160571900Y-98973800D01*
X160596159Y-98974992D01*
X160596159Y-98974992D01*
G37*
D11*
X160299400Y-99468800D03*
D10*
G36*
X160773959Y-89521392D02*
G01*
X160797985Y-89524956D01*
X160821545Y-89530857D01*
X160844414Y-89539040D01*
X160866371Y-89549424D01*
X160887204Y-89561911D01*
X160906712Y-89576380D01*
X160924709Y-89592691D01*
X160941020Y-89610688D01*
X160955489Y-89630196D01*
X160967976Y-89651029D01*
X160978360Y-89672986D01*
X160986543Y-89695855D01*
X160992444Y-89719415D01*
X160996008Y-89743441D01*
X160997200Y-89767700D01*
X160997200Y-90262700D01*
X160996008Y-90286959D01*
X160992444Y-90310985D01*
X160986543Y-90334545D01*
X160978360Y-90357414D01*
X160967976Y-90379371D01*
X160955489Y-90400204D01*
X160941020Y-90419712D01*
X160924709Y-90437709D01*
X160906712Y-90454020D01*
X160887204Y-90468489D01*
X160866371Y-90480976D01*
X160844414Y-90491360D01*
X160821545Y-90499543D01*
X160797985Y-90505444D01*
X160773959Y-90509008D01*
X160749700Y-90510200D01*
X160204700Y-90510200D01*
X160180441Y-90509008D01*
X160156415Y-90505444D01*
X160132855Y-90499543D01*
X160109986Y-90491360D01*
X160088029Y-90480976D01*
X160067196Y-90468489D01*
X160047688Y-90454020D01*
X160029691Y-90437709D01*
X160013380Y-90419712D01*
X159998911Y-90400204D01*
X159986424Y-90379371D01*
X159976040Y-90357414D01*
X159967857Y-90334545D01*
X159961956Y-90310985D01*
X159958392Y-90286959D01*
X159957200Y-90262700D01*
X159957200Y-89767700D01*
X159958392Y-89743441D01*
X159961956Y-89719415D01*
X159967857Y-89695855D01*
X159976040Y-89672986D01*
X159986424Y-89651029D01*
X159998911Y-89630196D01*
X160013380Y-89610688D01*
X160029691Y-89592691D01*
X160047688Y-89576380D01*
X160067196Y-89561911D01*
X160088029Y-89549424D01*
X160109986Y-89539040D01*
X160132855Y-89530857D01*
X160156415Y-89524956D01*
X160180441Y-89521392D01*
X160204700Y-89520200D01*
X160749700Y-89520200D01*
X160773959Y-89521392D01*
X160773959Y-89521392D01*
G37*
D11*
X160477200Y-90015200D03*
D10*
G36*
X160773959Y-90491392D02*
G01*
X160797985Y-90494956D01*
X160821545Y-90500857D01*
X160844414Y-90509040D01*
X160866371Y-90519424D01*
X160887204Y-90531911D01*
X160906712Y-90546380D01*
X160924709Y-90562691D01*
X160941020Y-90580688D01*
X160955489Y-90600196D01*
X160967976Y-90621029D01*
X160978360Y-90642986D01*
X160986543Y-90665855D01*
X160992444Y-90689415D01*
X160996008Y-90713441D01*
X160997200Y-90737700D01*
X160997200Y-91232700D01*
X160996008Y-91256959D01*
X160992444Y-91280985D01*
X160986543Y-91304545D01*
X160978360Y-91327414D01*
X160967976Y-91349371D01*
X160955489Y-91370204D01*
X160941020Y-91389712D01*
X160924709Y-91407709D01*
X160906712Y-91424020D01*
X160887204Y-91438489D01*
X160866371Y-91450976D01*
X160844414Y-91461360D01*
X160821545Y-91469543D01*
X160797985Y-91475444D01*
X160773959Y-91479008D01*
X160749700Y-91480200D01*
X160204700Y-91480200D01*
X160180441Y-91479008D01*
X160156415Y-91475444D01*
X160132855Y-91469543D01*
X160109986Y-91461360D01*
X160088029Y-91450976D01*
X160067196Y-91438489D01*
X160047688Y-91424020D01*
X160029691Y-91407709D01*
X160013380Y-91389712D01*
X159998911Y-91370204D01*
X159986424Y-91349371D01*
X159976040Y-91327414D01*
X159967857Y-91304545D01*
X159961956Y-91280985D01*
X159958392Y-91256959D01*
X159957200Y-91232700D01*
X159957200Y-90737700D01*
X159958392Y-90713441D01*
X159961956Y-90689415D01*
X159967857Y-90665855D01*
X159976040Y-90642986D01*
X159986424Y-90621029D01*
X159998911Y-90600196D01*
X160013380Y-90580688D01*
X160029691Y-90562691D01*
X160047688Y-90546380D01*
X160067196Y-90531911D01*
X160088029Y-90519424D01*
X160109986Y-90509040D01*
X160132855Y-90500857D01*
X160156415Y-90494956D01*
X160180441Y-90491392D01*
X160204700Y-90490200D01*
X160749700Y-90490200D01*
X160773959Y-90491392D01*
X160773959Y-90491392D01*
G37*
D11*
X160477200Y-90985200D03*
M02*
