M48
; DRILL file {KiCad (5.1.2-1)-1} date Friday, 19 July 2019 at 20:23:16
; FORMAT={-:-/ absolute / metric / decimal}
; #@! TF.CreationDate,2019-07-19T20:23:16+01:00
; #@! TF.GenerationSoftware,Kicad,Pcbnew,(5.1.2-1)-1
; #@! TF.FileFunction,Plated,1,4,PTH
FMAT,2
METRIC
T1C0.400
T2C1.000
T3C1.200
T4C1.500
T5C1.520
T6C1.700
T7C1.850
%
G90
G05
T1
X221.932Y-142.367
X222.948Y-82.499
X223.266Y-141.732
X227.076Y-75.501
X232.029Y-137.922
X233.807Y-78.93
X233.934Y-74.993
X235.394Y-142.939
X235.585Y-78.93
X236.639Y-82.702
X241.325Y-152.298
X241.605Y-67.983
X243.84Y-76.391
X243.84Y-78.93
X245.237Y-144.907
X247.574Y-69.317
X249.479Y-69.317
X251.65Y-131.699
X252.781Y-63.602
X252.781Y-66.396
X254.0Y-141.097
X256.794Y-146.24
X257.607Y-65.507
X260.35Y-138.557
X260.629Y-70.307
X263.169Y-146.685
X265.049Y-140.716
X265.049Y-144.526
X265.265Y-75.641
X266.04Y-101.416
X266.04Y-113.83
X267.081Y-144.526
X267.297Y-83.896
X268.859Y-136.652
X271.45Y-71.196
X272.415Y-136.652
X272.542Y-128.651
X275.425Y-80.086
X275.717Y-141.986
X275.717Y-144.526
X278.346Y-85.484
T2
X192.913Y-63.754
X195.913Y-63.754
X192.913Y-153.035
X195.913Y-153.035
X241.3Y-135.382
X241.3Y-137.922
X241.3Y-140.462
X263.83Y-79.045
X263.83Y-81.585
X263.83Y-84.125
T3
X272.39Y-105.004
X272.39Y-107.544
X272.39Y-110.084
T4
X231.94Y-151.778
X256.261Y-151.79
X254.178Y-83.693
X230.975Y-66.015
T5
X187.833Y-73.279
X192.913Y-73.279
X197.993Y-73.279
X187.833Y-141.859
X192.913Y-141.859
X197.993Y-141.859
T6
X228.435Y-63.475
X229.4Y-149.238
X229.4Y-154.318
X234.48Y-149.238
X234.48Y-154.318
X253.721Y-149.25
X258.801Y-149.25
X251.638Y-81.153
X251.638Y-86.233
X256.718Y-81.153
X256.718Y-86.233
X228.435Y-68.555
X233.515Y-63.475
X233.515Y-68.555
X253.721Y-154.33
X258.801Y-154.33
T7
X205.207Y-154.749
X205.232Y-148.882
X211.074Y-154.749
X211.099Y-148.882
X206.654Y-68.859
X206.68Y-62.992
X212.522Y-68.859
X212.547Y-62.992
X217.551Y-148.844
X217.551Y-154.711
X223.418Y-148.869
X223.418Y-154.737
X218.186Y-62.967
X218.186Y-68.834
X224.053Y-62.992
X224.053Y-68.859
T0
M30
