G04 #@! TF.GenerationSoftware,KiCad,Pcbnew,(5.1.2-1)-1*
G04 #@! TF.CreationDate,2019-07-19T20:23:14+01:00*
G04 #@! TF.ProjectId,CurrentSinkModule,43757272-656e-4745-9369-6e6b4d6f6475,RevC*
G04 #@! TF.SameCoordinates,Original*
G04 #@! TF.FileFunction,Copper,L2,Inr*
G04 #@! TF.FilePolarity,Positive*
%FSLAX46Y46*%
G04 Gerber Fmt 4.6, Leading zero omitted, Abs format (unit mm)*
G04 Created by KiCad (PCBNEW (5.1.2-1)-1) date 2019-07-19 20:23:14*
%MOMM*%
%LPD*%
G04 APERTURE LIST*
%ADD10C,3.200000*%
%ADD11C,3.000000*%
%ADD12R,3.000000X3.000000*%
%ADD13O,1.700000X1.700000*%
%ADD14R,1.700000X1.700000*%
%ADD15C,2.050000*%
%ADD16C,2.250000*%
%ADD17C,1.500000*%
%ADD18C,0.100000*%
%ADD19C,1.740000*%
%ADD20O,2.200000X1.740000*%
%ADD21C,0.500000*%
%ADD22C,0.800000*%
%ADD23C,0.254000*%
G04 APERTURE END LIST*
D10*
X206654400Y-68859400D03*
X206679800Y-62992000D03*
X212521800Y-68859400D03*
X212547200Y-62992000D03*
X224053400Y-68859400D03*
X218186000Y-68834000D03*
X224053400Y-62992000D03*
X218186000Y-62966600D03*
X217551000Y-148844000D03*
X223418400Y-148869400D03*
X217551000Y-154711400D03*
X223418400Y-154736800D03*
X211099400Y-148882100D03*
X211074000Y-154749500D03*
X205232000Y-148882100D03*
X205206600Y-154749500D03*
D11*
X197993000Y-141859000D03*
X192913000Y-141859000D03*
D12*
X187833000Y-141859000D03*
D11*
X187833000Y-73279000D03*
X192913000Y-73279000D03*
D12*
X197993000Y-73279000D03*
D13*
X263829800Y-84124800D03*
X263829800Y-81584800D03*
D14*
X263829800Y-79044800D03*
D13*
X241300000Y-135382000D03*
X241300000Y-137922000D03*
D14*
X241300000Y-140462000D03*
D15*
X254177800Y-83693000D03*
D16*
X251637800Y-86233000D03*
X256717800Y-86233000D03*
X256717800Y-81153000D03*
X251637800Y-81153000D03*
X253720600Y-149250400D03*
X258800600Y-149250400D03*
X258800600Y-154330400D03*
X253720600Y-154330400D03*
D15*
X256260600Y-151790400D03*
X230974900Y-66014600D03*
D16*
X228434900Y-68554600D03*
X233514900Y-68554600D03*
X233514900Y-63474600D03*
X228434900Y-63474600D03*
X234480100Y-154317700D03*
X229400100Y-154317700D03*
X229400100Y-149237700D03*
X234480100Y-149237700D03*
D15*
X231940100Y-151777700D03*
D17*
X195913000Y-153035000D03*
D18*
G36*
X193437504Y-152286204D02*
G01*
X193461773Y-152289804D01*
X193485571Y-152295765D01*
X193508671Y-152304030D01*
X193530849Y-152314520D01*
X193551893Y-152327133D01*
X193571598Y-152341747D01*
X193589777Y-152358223D01*
X193606253Y-152376402D01*
X193620867Y-152396107D01*
X193633480Y-152417151D01*
X193643970Y-152439329D01*
X193652235Y-152462429D01*
X193658196Y-152486227D01*
X193661796Y-152510496D01*
X193663000Y-152535000D01*
X193663000Y-153535000D01*
X193661796Y-153559504D01*
X193658196Y-153583773D01*
X193652235Y-153607571D01*
X193643970Y-153630671D01*
X193633480Y-153652849D01*
X193620867Y-153673893D01*
X193606253Y-153693598D01*
X193589777Y-153711777D01*
X193571598Y-153728253D01*
X193551893Y-153742867D01*
X193530849Y-153755480D01*
X193508671Y-153765970D01*
X193485571Y-153774235D01*
X193461773Y-153780196D01*
X193437504Y-153783796D01*
X193413000Y-153785000D01*
X192413000Y-153785000D01*
X192388496Y-153783796D01*
X192364227Y-153780196D01*
X192340429Y-153774235D01*
X192317329Y-153765970D01*
X192295151Y-153755480D01*
X192274107Y-153742867D01*
X192254402Y-153728253D01*
X192236223Y-153711777D01*
X192219747Y-153693598D01*
X192205133Y-153673893D01*
X192192520Y-153652849D01*
X192182030Y-153630671D01*
X192173765Y-153607571D01*
X192167804Y-153583773D01*
X192164204Y-153559504D01*
X192163000Y-153535000D01*
X192163000Y-152535000D01*
X192164204Y-152510496D01*
X192167804Y-152486227D01*
X192173765Y-152462429D01*
X192182030Y-152439329D01*
X192192520Y-152417151D01*
X192205133Y-152396107D01*
X192219747Y-152376402D01*
X192236223Y-152358223D01*
X192254402Y-152341747D01*
X192274107Y-152327133D01*
X192295151Y-152314520D01*
X192317329Y-152304030D01*
X192340429Y-152295765D01*
X192364227Y-152289804D01*
X192388496Y-152286204D01*
X192413000Y-152285000D01*
X193413000Y-152285000D01*
X193437504Y-152286204D01*
X193437504Y-152286204D01*
G37*
D17*
X192913000Y-153035000D03*
D18*
G36*
X193437504Y-63005204D02*
G01*
X193461773Y-63008804D01*
X193485571Y-63014765D01*
X193508671Y-63023030D01*
X193530849Y-63033520D01*
X193551893Y-63046133D01*
X193571598Y-63060747D01*
X193589777Y-63077223D01*
X193606253Y-63095402D01*
X193620867Y-63115107D01*
X193633480Y-63136151D01*
X193643970Y-63158329D01*
X193652235Y-63181429D01*
X193658196Y-63205227D01*
X193661796Y-63229496D01*
X193663000Y-63254000D01*
X193663000Y-64254000D01*
X193661796Y-64278504D01*
X193658196Y-64302773D01*
X193652235Y-64326571D01*
X193643970Y-64349671D01*
X193633480Y-64371849D01*
X193620867Y-64392893D01*
X193606253Y-64412598D01*
X193589777Y-64430777D01*
X193571598Y-64447253D01*
X193551893Y-64461867D01*
X193530849Y-64474480D01*
X193508671Y-64484970D01*
X193485571Y-64493235D01*
X193461773Y-64499196D01*
X193437504Y-64502796D01*
X193413000Y-64504000D01*
X192413000Y-64504000D01*
X192388496Y-64502796D01*
X192364227Y-64499196D01*
X192340429Y-64493235D01*
X192317329Y-64484970D01*
X192295151Y-64474480D01*
X192274107Y-64461867D01*
X192254402Y-64447253D01*
X192236223Y-64430777D01*
X192219747Y-64412598D01*
X192205133Y-64392893D01*
X192192520Y-64371849D01*
X192182030Y-64349671D01*
X192173765Y-64326571D01*
X192167804Y-64302773D01*
X192164204Y-64278504D01*
X192163000Y-64254000D01*
X192163000Y-63254000D01*
X192164204Y-63229496D01*
X192167804Y-63205227D01*
X192173765Y-63181429D01*
X192182030Y-63158329D01*
X192192520Y-63136151D01*
X192205133Y-63115107D01*
X192219747Y-63095402D01*
X192236223Y-63077223D01*
X192254402Y-63060747D01*
X192274107Y-63046133D01*
X192295151Y-63033520D01*
X192317329Y-63023030D01*
X192340429Y-63014765D01*
X192364227Y-63008804D01*
X192388496Y-63005204D01*
X192413000Y-63004000D01*
X193413000Y-63004000D01*
X193437504Y-63005204D01*
X193437504Y-63005204D01*
G37*
D17*
X192913000Y-63754000D03*
X195913000Y-63754000D03*
D18*
G36*
X273264105Y-104134804D02*
G01*
X273288373Y-104138404D01*
X273312172Y-104144365D01*
X273335271Y-104152630D01*
X273357450Y-104163120D01*
X273378493Y-104175732D01*
X273398199Y-104190347D01*
X273416377Y-104206823D01*
X273432853Y-104225001D01*
X273447468Y-104244707D01*
X273460080Y-104265750D01*
X273470570Y-104287929D01*
X273478835Y-104311028D01*
X273484796Y-104334827D01*
X273488396Y-104359095D01*
X273489600Y-104383599D01*
X273489600Y-105623601D01*
X273488396Y-105648105D01*
X273484796Y-105672373D01*
X273478835Y-105696172D01*
X273470570Y-105719271D01*
X273460080Y-105741450D01*
X273447468Y-105762493D01*
X273432853Y-105782199D01*
X273416377Y-105800377D01*
X273398199Y-105816853D01*
X273378493Y-105831468D01*
X273357450Y-105844080D01*
X273335271Y-105854570D01*
X273312172Y-105862835D01*
X273288373Y-105868796D01*
X273264105Y-105872396D01*
X273239601Y-105873600D01*
X271539599Y-105873600D01*
X271515095Y-105872396D01*
X271490827Y-105868796D01*
X271467028Y-105862835D01*
X271443929Y-105854570D01*
X271421750Y-105844080D01*
X271400707Y-105831468D01*
X271381001Y-105816853D01*
X271362823Y-105800377D01*
X271346347Y-105782199D01*
X271331732Y-105762493D01*
X271319120Y-105741450D01*
X271308630Y-105719271D01*
X271300365Y-105696172D01*
X271294404Y-105672373D01*
X271290804Y-105648105D01*
X271289600Y-105623601D01*
X271289600Y-104383599D01*
X271290804Y-104359095D01*
X271294404Y-104334827D01*
X271300365Y-104311028D01*
X271308630Y-104287929D01*
X271319120Y-104265750D01*
X271331732Y-104244707D01*
X271346347Y-104225001D01*
X271362823Y-104206823D01*
X271381001Y-104190347D01*
X271400707Y-104175732D01*
X271421750Y-104163120D01*
X271443929Y-104152630D01*
X271467028Y-104144365D01*
X271490827Y-104138404D01*
X271515095Y-104134804D01*
X271539599Y-104133600D01*
X273239601Y-104133600D01*
X273264105Y-104134804D01*
X273264105Y-104134804D01*
G37*
D19*
X272389600Y-105003600D03*
D20*
X272389600Y-107543600D03*
X272389600Y-110083600D03*
D21*
X265049000Y-144526000D03*
X265049000Y-140716000D03*
X275717000Y-144526000D03*
X260350000Y-138557000D03*
X251650500Y-131699000D03*
X272415000Y-136652000D03*
X268858996Y-136652000D03*
X263169398Y-146685000D03*
X233934000Y-74993500D03*
X278345900Y-85483700D03*
X247573800Y-69316600D03*
X265264900Y-75641200D03*
X243840000Y-78930500D03*
X233807000Y-78930500D03*
X241604799Y-67983100D03*
X236639100Y-82702400D03*
X222948500Y-82499200D03*
X227075998Y-75501500D03*
X271449800Y-71196200D03*
D22*
X272542000Y-128651000D03*
D21*
X256794000Y-146240500D03*
X235394500Y-142938500D03*
X221932500Y-142366994D03*
X241325400Y-152298400D03*
X260629400Y-70307200D03*
X252780800Y-66395600D03*
X252780800Y-63601600D03*
X254000000Y-141097000D03*
X232029000Y-137922000D03*
X275717000Y-141986000D03*
X257606800Y-65506600D03*
X275424900Y-80086200D03*
X243840000Y-76390500D03*
D22*
X266039600Y-101416100D03*
D21*
X267081000Y-144526000D03*
X245237000Y-144907000D03*
X267296900Y-83896200D03*
X249478800Y-69316600D03*
X235585000Y-78930500D03*
D22*
X266039600Y-113830100D03*
D21*
X223266000Y-141732000D03*
D23*
G36*
X279706001Y-157659000D02*
G01*
X180796000Y-157659000D01*
X180796000Y-153141701D01*
X182127000Y-153141701D01*
X182127000Y-153690299D01*
X182234026Y-154228354D01*
X182443965Y-154735192D01*
X182748750Y-155191334D01*
X183136666Y-155579250D01*
X183592808Y-155884035D01*
X184099646Y-156093974D01*
X184637701Y-156201000D01*
X185186299Y-156201000D01*
X185724354Y-156093974D01*
X186136610Y-155923212D01*
X195718000Y-155923212D01*
X195718000Y-156146788D01*
X195761617Y-156366067D01*
X195847176Y-156572624D01*
X195971388Y-156758520D01*
X196129480Y-156916612D01*
X196315376Y-157040824D01*
X196521933Y-157126383D01*
X196741212Y-157170000D01*
X196964788Y-157170000D01*
X197184067Y-157126383D01*
X197390624Y-157040824D01*
X197576520Y-156916612D01*
X197734612Y-156758520D01*
X197858824Y-156572624D01*
X197944383Y-156366067D01*
X197988000Y-156146788D01*
X197988000Y-155923212D01*
X197944383Y-155703933D01*
X197858824Y-155497376D01*
X197734612Y-155311480D01*
X197576520Y-155153388D01*
X197390624Y-155029176D01*
X197184067Y-154943617D01*
X196964788Y-154900000D01*
X196741212Y-154900000D01*
X196521933Y-154943617D01*
X196315376Y-155029176D01*
X196129480Y-155153388D01*
X195971388Y-155311480D01*
X195847176Y-155497376D01*
X195761617Y-155703933D01*
X195718000Y-155923212D01*
X186136610Y-155923212D01*
X186231192Y-155884035D01*
X186687334Y-155579250D01*
X187075250Y-155191334D01*
X187380035Y-154735192D01*
X187465288Y-154529372D01*
X202971600Y-154529372D01*
X202971600Y-154969628D01*
X203057490Y-155401425D01*
X203225969Y-155808169D01*
X203470562Y-156174229D01*
X203781871Y-156485538D01*
X204147931Y-156730131D01*
X204554675Y-156898610D01*
X204986472Y-156984500D01*
X205426728Y-156984500D01*
X205858525Y-156898610D01*
X206265269Y-156730131D01*
X206631329Y-156485538D01*
X206942638Y-156174229D01*
X207187231Y-155808169D01*
X207355710Y-155401425D01*
X207441600Y-154969628D01*
X207441600Y-154529372D01*
X207355710Y-154097575D01*
X207211502Y-153749426D01*
X207530244Y-153881453D01*
X207942721Y-153963500D01*
X208363279Y-153963500D01*
X208775756Y-153881453D01*
X209063838Y-153762126D01*
X208924890Y-154097575D01*
X208839000Y-154529372D01*
X208839000Y-154969628D01*
X208924890Y-155401425D01*
X209093369Y-155808169D01*
X209337962Y-156174229D01*
X209649271Y-156485538D01*
X210015331Y-156730131D01*
X210422075Y-156898610D01*
X210853872Y-156984500D01*
X211294128Y-156984500D01*
X211725925Y-156898610D01*
X212132669Y-156730131D01*
X212498729Y-156485538D01*
X212810038Y-156174229D01*
X213054631Y-155808169D01*
X213223110Y-155401425D01*
X213309000Y-154969628D01*
X213309000Y-154529372D01*
X213223110Y-154097575D01*
X213054631Y-153690831D01*
X212810038Y-153324771D01*
X212498729Y-153013462D01*
X212132669Y-152768869D01*
X211725925Y-152600390D01*
X211294128Y-152514500D01*
X210853872Y-152514500D01*
X210422075Y-152600390D01*
X210086626Y-152739338D01*
X210205953Y-152451256D01*
X210288000Y-152038779D01*
X210288000Y-151618221D01*
X210205953Y-151205744D01*
X210068665Y-150874302D01*
X210447475Y-151031210D01*
X210879272Y-151117100D01*
X211319528Y-151117100D01*
X211751325Y-151031210D01*
X212158069Y-150862731D01*
X212524129Y-150618138D01*
X212835438Y-150306829D01*
X213080031Y-149940769D01*
X213248510Y-149534025D01*
X213334400Y-149102228D01*
X213334400Y-148661972D01*
X213326822Y-148623872D01*
X215316000Y-148623872D01*
X215316000Y-149064128D01*
X215401890Y-149495925D01*
X215570369Y-149902669D01*
X215814962Y-150268729D01*
X216126271Y-150580038D01*
X216492331Y-150824631D01*
X216899075Y-150993110D01*
X217330872Y-151079000D01*
X217771128Y-151079000D01*
X218202925Y-150993110D01*
X218551074Y-150848902D01*
X218419047Y-151167644D01*
X218337000Y-151580121D01*
X218337000Y-152000679D01*
X218419047Y-152413156D01*
X218538374Y-152701238D01*
X218202925Y-152562290D01*
X217771128Y-152476400D01*
X217330872Y-152476400D01*
X216899075Y-152562290D01*
X216492331Y-152730769D01*
X216126271Y-152975362D01*
X215814962Y-153286671D01*
X215570369Y-153652731D01*
X215401890Y-154059475D01*
X215316000Y-154491272D01*
X215316000Y-154931528D01*
X215401890Y-155363325D01*
X215570369Y-155770069D01*
X215814962Y-156136129D01*
X216126271Y-156447438D01*
X216492331Y-156692031D01*
X216899075Y-156860510D01*
X217330872Y-156946400D01*
X217771128Y-156946400D01*
X218202925Y-156860510D01*
X218609669Y-156692031D01*
X218975729Y-156447438D01*
X219287038Y-156136129D01*
X219531631Y-155770069D01*
X219700110Y-155363325D01*
X219786000Y-154931528D01*
X219786000Y-154491272D01*
X219700110Y-154059475D01*
X219561162Y-153724026D01*
X219849244Y-153843353D01*
X220261721Y-153925400D01*
X220682279Y-153925400D01*
X221094756Y-153843353D01*
X221426198Y-153706065D01*
X221269290Y-154084875D01*
X221183400Y-154516672D01*
X221183400Y-154956928D01*
X221269290Y-155388725D01*
X221437769Y-155795469D01*
X221682362Y-156161529D01*
X221993671Y-156472838D01*
X222359731Y-156717431D01*
X222766475Y-156885910D01*
X223198272Y-156971800D01*
X223638528Y-156971800D01*
X224070325Y-156885910D01*
X224477069Y-156717431D01*
X224843129Y-156472838D01*
X225154438Y-156161529D01*
X225399031Y-155795469D01*
X225567510Y-155388725D01*
X225653400Y-154956928D01*
X225653400Y-154516672D01*
X225579342Y-154144355D01*
X227640100Y-154144355D01*
X227640100Y-154491045D01*
X227707736Y-154831073D01*
X227840408Y-155151373D01*
X228033019Y-155439635D01*
X228278165Y-155684781D01*
X228566427Y-155877392D01*
X228886727Y-156010064D01*
X229226755Y-156077700D01*
X229573445Y-156077700D01*
X229913473Y-156010064D01*
X230233773Y-155877392D01*
X230522035Y-155684781D01*
X230767181Y-155439635D01*
X230959792Y-155151373D01*
X231092464Y-154831073D01*
X231160100Y-154491045D01*
X231160100Y-154144355D01*
X232720100Y-154144355D01*
X232720100Y-154491045D01*
X232787736Y-154831073D01*
X232920408Y-155151373D01*
X233113019Y-155439635D01*
X233358165Y-155684781D01*
X233646427Y-155877392D01*
X233966727Y-156010064D01*
X234306755Y-156077700D01*
X234653445Y-156077700D01*
X234993473Y-156010064D01*
X235313773Y-155877392D01*
X235602035Y-155684781D01*
X235847181Y-155439635D01*
X236039792Y-155151373D01*
X236172464Y-154831073D01*
X236240100Y-154491045D01*
X236240100Y-154157055D01*
X251960600Y-154157055D01*
X251960600Y-154503745D01*
X252028236Y-154843773D01*
X252160908Y-155164073D01*
X252353519Y-155452335D01*
X252598665Y-155697481D01*
X252886927Y-155890092D01*
X253207227Y-156022764D01*
X253547255Y-156090400D01*
X253893945Y-156090400D01*
X254233973Y-156022764D01*
X254554273Y-155890092D01*
X254842535Y-155697481D01*
X255087681Y-155452335D01*
X255280292Y-155164073D01*
X255412964Y-154843773D01*
X255480600Y-154503745D01*
X255480600Y-154157055D01*
X257040600Y-154157055D01*
X257040600Y-154503745D01*
X257108236Y-154843773D01*
X257240908Y-155164073D01*
X257433519Y-155452335D01*
X257678665Y-155697481D01*
X257966927Y-155890092D01*
X258287227Y-156022764D01*
X258627255Y-156090400D01*
X258973945Y-156090400D01*
X259313973Y-156022764D01*
X259634273Y-155890092D01*
X259922535Y-155697481D01*
X260167681Y-155452335D01*
X260360292Y-155164073D01*
X260492964Y-154843773D01*
X260560600Y-154503745D01*
X260560600Y-154157055D01*
X260492964Y-153817027D01*
X260360292Y-153496727D01*
X260167681Y-153208465D01*
X259922535Y-152963319D01*
X259634273Y-152770708D01*
X259313973Y-152638036D01*
X259292180Y-152633701D01*
X270773000Y-152633701D01*
X270773000Y-153182299D01*
X270880026Y-153720354D01*
X271089965Y-154227192D01*
X271394750Y-154683334D01*
X271782666Y-155071250D01*
X272238808Y-155376035D01*
X272745646Y-155585974D01*
X273283701Y-155693000D01*
X273832299Y-155693000D01*
X274370354Y-155585974D01*
X274877192Y-155376035D01*
X275333334Y-155071250D01*
X275721250Y-154683334D01*
X276026035Y-154227192D01*
X276235974Y-153720354D01*
X276343000Y-153182299D01*
X276343000Y-152633701D01*
X276235974Y-152095646D01*
X276026035Y-151588808D01*
X275721250Y-151132666D01*
X275333334Y-150744750D01*
X274877192Y-150439965D01*
X274370354Y-150230026D01*
X273832299Y-150123000D01*
X273283701Y-150123000D01*
X272745646Y-150230026D01*
X272238808Y-150439965D01*
X271782666Y-150744750D01*
X271394750Y-151132666D01*
X271089965Y-151588808D01*
X270880026Y-152095646D01*
X270773000Y-152633701D01*
X259292180Y-152633701D01*
X258973945Y-152570400D01*
X258627255Y-152570400D01*
X258287227Y-152638036D01*
X257966927Y-152770708D01*
X257678665Y-152963319D01*
X257433519Y-153208465D01*
X257240908Y-153496727D01*
X257108236Y-153817027D01*
X257040600Y-154157055D01*
X255480600Y-154157055D01*
X255412964Y-153817027D01*
X255280292Y-153496727D01*
X255087681Y-153208465D01*
X254842535Y-152963319D01*
X254554273Y-152770708D01*
X254233973Y-152638036D01*
X253893945Y-152570400D01*
X253547255Y-152570400D01*
X253207227Y-152638036D01*
X252886927Y-152770708D01*
X252598665Y-152963319D01*
X252353519Y-153208465D01*
X252160908Y-153496727D01*
X252028236Y-153817027D01*
X251960600Y-154157055D01*
X236240100Y-154157055D01*
X236240100Y-154144355D01*
X236172464Y-153804327D01*
X236039792Y-153484027D01*
X235847181Y-153195765D01*
X235602035Y-152950619D01*
X235313773Y-152758008D01*
X234993473Y-152625336D01*
X234653445Y-152557700D01*
X234306755Y-152557700D01*
X233966727Y-152625336D01*
X233646427Y-152758008D01*
X233358165Y-152950619D01*
X233113019Y-153195765D01*
X232920408Y-153484027D01*
X232787736Y-153804327D01*
X232720100Y-154144355D01*
X231160100Y-154144355D01*
X231092464Y-153804327D01*
X230959792Y-153484027D01*
X230767181Y-153195765D01*
X230522035Y-152950619D01*
X230233773Y-152758008D01*
X229913473Y-152625336D01*
X229573445Y-152557700D01*
X229226755Y-152557700D01*
X228886727Y-152625336D01*
X228566427Y-152758008D01*
X228278165Y-152950619D01*
X228033019Y-153195765D01*
X227840408Y-153484027D01*
X227707736Y-153804327D01*
X227640100Y-154144355D01*
X225579342Y-154144355D01*
X225567510Y-154084875D01*
X225399031Y-153678131D01*
X225154438Y-153312071D01*
X224843129Y-153000762D01*
X224477069Y-152756169D01*
X224070325Y-152587690D01*
X223638528Y-152501800D01*
X223198272Y-152501800D01*
X222766475Y-152587690D01*
X222387665Y-152744598D01*
X222524953Y-152413156D01*
X222607000Y-152000679D01*
X222607000Y-151614204D01*
X230280100Y-151614204D01*
X230280100Y-151941196D01*
X230343893Y-152261904D01*
X230469027Y-152564005D01*
X230650694Y-152835888D01*
X230881912Y-153067106D01*
X231153795Y-153248773D01*
X231455896Y-153373907D01*
X231776604Y-153437700D01*
X232103596Y-153437700D01*
X232424304Y-153373907D01*
X232726405Y-153248773D01*
X232998288Y-153067106D01*
X233229506Y-152835888D01*
X233411173Y-152564005D01*
X233536307Y-152261904D01*
X233546385Y-152211235D01*
X240440400Y-152211235D01*
X240440400Y-152385565D01*
X240474410Y-152556545D01*
X240541123Y-152717605D01*
X240637976Y-152862555D01*
X240761245Y-152985824D01*
X240906195Y-153082677D01*
X241067255Y-153149390D01*
X241238235Y-153183400D01*
X241412565Y-153183400D01*
X241583545Y-153149390D01*
X241744605Y-153082677D01*
X241889555Y-152985824D01*
X242012824Y-152862555D01*
X242109677Y-152717605D01*
X242176390Y-152556545D01*
X242210400Y-152385565D01*
X242210400Y-152211235D01*
X242176390Y-152040255D01*
X242109677Y-151879195D01*
X242012824Y-151734245D01*
X241905483Y-151626904D01*
X254600600Y-151626904D01*
X254600600Y-151953896D01*
X254664393Y-152274604D01*
X254789527Y-152576705D01*
X254971194Y-152848588D01*
X255202412Y-153079806D01*
X255474295Y-153261473D01*
X255776396Y-153386607D01*
X256097104Y-153450400D01*
X256424096Y-153450400D01*
X256744804Y-153386607D01*
X257046905Y-153261473D01*
X257318788Y-153079806D01*
X257550006Y-152848588D01*
X257731673Y-152576705D01*
X257856807Y-152274604D01*
X257920600Y-151953896D01*
X257920600Y-151626904D01*
X257856807Y-151306196D01*
X257731673Y-151004095D01*
X257550006Y-150732212D01*
X257318788Y-150500994D01*
X257046905Y-150319327D01*
X256744804Y-150194193D01*
X256424096Y-150130400D01*
X256097104Y-150130400D01*
X255776396Y-150194193D01*
X255474295Y-150319327D01*
X255202412Y-150500994D01*
X254971194Y-150732212D01*
X254789527Y-151004095D01*
X254664393Y-151306196D01*
X254600600Y-151626904D01*
X241905483Y-151626904D01*
X241889555Y-151610976D01*
X241744605Y-151514123D01*
X241583545Y-151447410D01*
X241412565Y-151413400D01*
X241238235Y-151413400D01*
X241067255Y-151447410D01*
X240906195Y-151514123D01*
X240761245Y-151610976D01*
X240637976Y-151734245D01*
X240541123Y-151879195D01*
X240474410Y-152040255D01*
X240440400Y-152211235D01*
X233546385Y-152211235D01*
X233600100Y-151941196D01*
X233600100Y-151614204D01*
X233536307Y-151293496D01*
X233411173Y-150991395D01*
X233229506Y-150719512D01*
X232998288Y-150488294D01*
X232726405Y-150306627D01*
X232424304Y-150181493D01*
X232103596Y-150117700D01*
X231776604Y-150117700D01*
X231455896Y-150181493D01*
X231153795Y-150306627D01*
X230881912Y-150488294D01*
X230650694Y-150719512D01*
X230469027Y-150991395D01*
X230343893Y-151293496D01*
X230280100Y-151614204D01*
X222607000Y-151614204D01*
X222607000Y-151580121D01*
X222524953Y-151167644D01*
X222400365Y-150866862D01*
X222766475Y-151018510D01*
X223198272Y-151104400D01*
X223638528Y-151104400D01*
X224070325Y-151018510D01*
X224477069Y-150850031D01*
X224843129Y-150605438D01*
X225154438Y-150294129D01*
X225399031Y-149928069D01*
X225567510Y-149521325D01*
X225653400Y-149089528D01*
X225653400Y-149064355D01*
X227640100Y-149064355D01*
X227640100Y-149411045D01*
X227707736Y-149751073D01*
X227840408Y-150071373D01*
X228033019Y-150359635D01*
X228278165Y-150604781D01*
X228566427Y-150797392D01*
X228886727Y-150930064D01*
X229226755Y-150997700D01*
X229573445Y-150997700D01*
X229913473Y-150930064D01*
X230233773Y-150797392D01*
X230522035Y-150604781D01*
X230767181Y-150359635D01*
X230959792Y-150071373D01*
X231092464Y-149751073D01*
X231160100Y-149411045D01*
X231160100Y-149064355D01*
X232720100Y-149064355D01*
X232720100Y-149411045D01*
X232787736Y-149751073D01*
X232920408Y-150071373D01*
X233113019Y-150359635D01*
X233358165Y-150604781D01*
X233646427Y-150797392D01*
X233966727Y-150930064D01*
X234306755Y-150997700D01*
X234653445Y-150997700D01*
X234993473Y-150930064D01*
X235313773Y-150797392D01*
X235602035Y-150604781D01*
X235847181Y-150359635D01*
X236039792Y-150071373D01*
X236172464Y-149751073D01*
X236240100Y-149411045D01*
X236240100Y-149077055D01*
X251960600Y-149077055D01*
X251960600Y-149423745D01*
X252028236Y-149763773D01*
X252160908Y-150084073D01*
X252353519Y-150372335D01*
X252598665Y-150617481D01*
X252886927Y-150810092D01*
X253207227Y-150942764D01*
X253547255Y-151010400D01*
X253893945Y-151010400D01*
X254233973Y-150942764D01*
X254554273Y-150810092D01*
X254842535Y-150617481D01*
X255087681Y-150372335D01*
X255280292Y-150084073D01*
X255412964Y-149763773D01*
X255480600Y-149423745D01*
X255480600Y-149077055D01*
X257040600Y-149077055D01*
X257040600Y-149423745D01*
X257108236Y-149763773D01*
X257240908Y-150084073D01*
X257433519Y-150372335D01*
X257678665Y-150617481D01*
X257966927Y-150810092D01*
X258287227Y-150942764D01*
X258627255Y-151010400D01*
X258973945Y-151010400D01*
X259313973Y-150942764D01*
X259634273Y-150810092D01*
X259922535Y-150617481D01*
X260167681Y-150372335D01*
X260360292Y-150084073D01*
X260492964Y-149763773D01*
X260560600Y-149423745D01*
X260560600Y-149077055D01*
X260492964Y-148737027D01*
X260360292Y-148416727D01*
X260167681Y-148128465D01*
X259922535Y-147883319D01*
X259634273Y-147690708D01*
X259313973Y-147558036D01*
X258973945Y-147490400D01*
X258627255Y-147490400D01*
X258287227Y-147558036D01*
X257966927Y-147690708D01*
X257678665Y-147883319D01*
X257433519Y-148128465D01*
X257240908Y-148416727D01*
X257108236Y-148737027D01*
X257040600Y-149077055D01*
X255480600Y-149077055D01*
X255412964Y-148737027D01*
X255280292Y-148416727D01*
X255087681Y-148128465D01*
X254842535Y-147883319D01*
X254554273Y-147690708D01*
X254233973Y-147558036D01*
X253893945Y-147490400D01*
X253547255Y-147490400D01*
X253207227Y-147558036D01*
X252886927Y-147690708D01*
X252598665Y-147883319D01*
X252353519Y-148128465D01*
X252160908Y-148416727D01*
X252028236Y-148737027D01*
X251960600Y-149077055D01*
X236240100Y-149077055D01*
X236240100Y-149064355D01*
X236172464Y-148724327D01*
X236039792Y-148404027D01*
X235847181Y-148115765D01*
X235602035Y-147870619D01*
X235313773Y-147678008D01*
X234993473Y-147545336D01*
X234653445Y-147477700D01*
X234306755Y-147477700D01*
X233966727Y-147545336D01*
X233646427Y-147678008D01*
X233358165Y-147870619D01*
X233113019Y-148115765D01*
X232920408Y-148404027D01*
X232787736Y-148724327D01*
X232720100Y-149064355D01*
X231160100Y-149064355D01*
X231092464Y-148724327D01*
X230959792Y-148404027D01*
X230767181Y-148115765D01*
X230522035Y-147870619D01*
X230233773Y-147678008D01*
X229913473Y-147545336D01*
X229573445Y-147477700D01*
X229226755Y-147477700D01*
X228886727Y-147545336D01*
X228566427Y-147678008D01*
X228278165Y-147870619D01*
X228033019Y-148115765D01*
X227840408Y-148404027D01*
X227707736Y-148724327D01*
X227640100Y-149064355D01*
X225653400Y-149064355D01*
X225653400Y-148649272D01*
X225567510Y-148217475D01*
X225399031Y-147810731D01*
X225154438Y-147444671D01*
X224843129Y-147133362D01*
X224477069Y-146888769D01*
X224070325Y-146720290D01*
X223638528Y-146634400D01*
X223198272Y-146634400D01*
X222766475Y-146720290D01*
X222359731Y-146888769D01*
X221993671Y-147133362D01*
X221682362Y-147444671D01*
X221437769Y-147810731D01*
X221269290Y-148217475D01*
X221183400Y-148649272D01*
X221183400Y-149089528D01*
X221269290Y-149521325D01*
X221413498Y-149869474D01*
X221094756Y-149737447D01*
X220682279Y-149655400D01*
X220261721Y-149655400D01*
X219849244Y-149737447D01*
X219548462Y-149862035D01*
X219700110Y-149495925D01*
X219786000Y-149064128D01*
X219786000Y-148623872D01*
X219700110Y-148192075D01*
X219531631Y-147785331D01*
X219287038Y-147419271D01*
X218975729Y-147107962D01*
X218609669Y-146863369D01*
X218202925Y-146694890D01*
X217771128Y-146609000D01*
X217330872Y-146609000D01*
X216899075Y-146694890D01*
X216492331Y-146863369D01*
X216126271Y-147107962D01*
X215814962Y-147419271D01*
X215570369Y-147785331D01*
X215401890Y-148192075D01*
X215316000Y-148623872D01*
X213326822Y-148623872D01*
X213248510Y-148230175D01*
X213080031Y-147823431D01*
X212835438Y-147457371D01*
X212524129Y-147146062D01*
X212158069Y-146901469D01*
X211751325Y-146732990D01*
X211319528Y-146647100D01*
X210879272Y-146647100D01*
X210447475Y-146732990D01*
X210040731Y-146901469D01*
X209674671Y-147146062D01*
X209363362Y-147457371D01*
X209118769Y-147823431D01*
X208950290Y-148230175D01*
X208864400Y-148661972D01*
X208864400Y-149102228D01*
X208950290Y-149534025D01*
X209107198Y-149912835D01*
X208775756Y-149775547D01*
X208363279Y-149693500D01*
X207942721Y-149693500D01*
X207530244Y-149775547D01*
X207229462Y-149900135D01*
X207381110Y-149534025D01*
X207467000Y-149102228D01*
X207467000Y-148661972D01*
X207381110Y-148230175D01*
X207212631Y-147823431D01*
X206968038Y-147457371D01*
X206656729Y-147146062D01*
X206290669Y-146901469D01*
X205883925Y-146732990D01*
X205452128Y-146647100D01*
X205011872Y-146647100D01*
X204580075Y-146732990D01*
X204173331Y-146901469D01*
X203807271Y-147146062D01*
X203495962Y-147457371D01*
X203251369Y-147823431D01*
X203082890Y-148230175D01*
X202997000Y-148661972D01*
X202997000Y-149102228D01*
X203082890Y-149534025D01*
X203251369Y-149940769D01*
X203495962Y-150306829D01*
X203807271Y-150618138D01*
X204173331Y-150862731D01*
X204580075Y-151031210D01*
X205011872Y-151117100D01*
X205452128Y-151117100D01*
X205883925Y-151031210D01*
X206232074Y-150887002D01*
X206100047Y-151205744D01*
X206018000Y-151618221D01*
X206018000Y-152038779D01*
X206100047Y-152451256D01*
X206224635Y-152752038D01*
X205858525Y-152600390D01*
X205426728Y-152514500D01*
X204986472Y-152514500D01*
X204554675Y-152600390D01*
X204147931Y-152768869D01*
X203781871Y-153013462D01*
X203470562Y-153324771D01*
X203225969Y-153690831D01*
X203057490Y-154097575D01*
X202971600Y-154529372D01*
X187465288Y-154529372D01*
X187589974Y-154228354D01*
X187697000Y-153690299D01*
X187697000Y-153141701D01*
X187589974Y-152603646D01*
X187561540Y-152535000D01*
X191524928Y-152535000D01*
X191524928Y-153535000D01*
X191541992Y-153708254D01*
X191592528Y-153874850D01*
X191674595Y-154028386D01*
X191785038Y-154162962D01*
X191919614Y-154273405D01*
X192073150Y-154355472D01*
X192239746Y-154406008D01*
X192413000Y-154423072D01*
X193413000Y-154423072D01*
X193586254Y-154406008D01*
X193752850Y-154355472D01*
X193906386Y-154273405D01*
X194040962Y-154162962D01*
X194151405Y-154028386D01*
X194233472Y-153874850D01*
X194284008Y-153708254D01*
X194301072Y-153535000D01*
X194301072Y-152898589D01*
X194528000Y-152898589D01*
X194528000Y-153171411D01*
X194581225Y-153438989D01*
X194685629Y-153691043D01*
X194837201Y-153917886D01*
X195030114Y-154110799D01*
X195256957Y-154262371D01*
X195509011Y-154366775D01*
X195776589Y-154420000D01*
X196049411Y-154420000D01*
X196316989Y-154366775D01*
X196569043Y-154262371D01*
X196795886Y-154110799D01*
X196988799Y-153917886D01*
X197140371Y-153691043D01*
X197244775Y-153438989D01*
X197298000Y-153171411D01*
X197298000Y-152898589D01*
X197244775Y-152631011D01*
X197140371Y-152378957D01*
X196988799Y-152152114D01*
X196795886Y-151959201D01*
X196569043Y-151807629D01*
X196316989Y-151703225D01*
X196049411Y-151650000D01*
X195776589Y-151650000D01*
X195509011Y-151703225D01*
X195256957Y-151807629D01*
X195030114Y-151959201D01*
X194837201Y-152152114D01*
X194685629Y-152378957D01*
X194581225Y-152631011D01*
X194528000Y-152898589D01*
X194301072Y-152898589D01*
X194301072Y-152535000D01*
X194284008Y-152361746D01*
X194233472Y-152195150D01*
X194151405Y-152041614D01*
X194040962Y-151907038D01*
X193906386Y-151796595D01*
X193752850Y-151714528D01*
X193586254Y-151663992D01*
X193413000Y-151646928D01*
X192413000Y-151646928D01*
X192239746Y-151663992D01*
X192073150Y-151714528D01*
X191919614Y-151796595D01*
X191785038Y-151907038D01*
X191674595Y-152041614D01*
X191592528Y-152195150D01*
X191541992Y-152361746D01*
X191524928Y-152535000D01*
X187561540Y-152535000D01*
X187380035Y-152096808D01*
X187075250Y-151640666D01*
X186687334Y-151252750D01*
X186231192Y-150947965D01*
X185724354Y-150738026D01*
X185186299Y-150631000D01*
X184637701Y-150631000D01*
X184099646Y-150738026D01*
X183592808Y-150947965D01*
X183136666Y-151252750D01*
X182748750Y-151640666D01*
X182443965Y-152096808D01*
X182234026Y-152603646D01*
X182127000Y-153141701D01*
X180796000Y-153141701D01*
X180796000Y-149923212D01*
X195718000Y-149923212D01*
X195718000Y-150146788D01*
X195761617Y-150366067D01*
X195847176Y-150572624D01*
X195971388Y-150758520D01*
X196129480Y-150916612D01*
X196315376Y-151040824D01*
X196521933Y-151126383D01*
X196741212Y-151170000D01*
X196964788Y-151170000D01*
X197184067Y-151126383D01*
X197390624Y-151040824D01*
X197576520Y-150916612D01*
X197734612Y-150758520D01*
X197858824Y-150572624D01*
X197944383Y-150366067D01*
X197988000Y-150146788D01*
X197988000Y-149923212D01*
X197944383Y-149703933D01*
X197858824Y-149497376D01*
X197734612Y-149311480D01*
X197576520Y-149153388D01*
X197390624Y-149029176D01*
X197184067Y-148943617D01*
X196964788Y-148900000D01*
X196741212Y-148900000D01*
X196521933Y-148943617D01*
X196315376Y-149029176D01*
X196129480Y-149153388D01*
X195971388Y-149311480D01*
X195847176Y-149497376D01*
X195761617Y-149703933D01*
X195718000Y-149923212D01*
X180796000Y-149923212D01*
X180796000Y-146153335D01*
X255909000Y-146153335D01*
X255909000Y-146327665D01*
X255943010Y-146498645D01*
X256009723Y-146659705D01*
X256106576Y-146804655D01*
X256229845Y-146927924D01*
X256374795Y-147024777D01*
X256535855Y-147091490D01*
X256706835Y-147125500D01*
X256881165Y-147125500D01*
X257052145Y-147091490D01*
X257213205Y-147024777D01*
X257358155Y-146927924D01*
X257481424Y-146804655D01*
X257578277Y-146659705D01*
X257603904Y-146597835D01*
X262284398Y-146597835D01*
X262284398Y-146772165D01*
X262318408Y-146943145D01*
X262385121Y-147104205D01*
X262481974Y-147249155D01*
X262605243Y-147372424D01*
X262750193Y-147469277D01*
X262911253Y-147535990D01*
X263082233Y-147570000D01*
X263256563Y-147570000D01*
X263427543Y-147535990D01*
X263588603Y-147469277D01*
X263733553Y-147372424D01*
X263856822Y-147249155D01*
X263953675Y-147104205D01*
X264020388Y-146943145D01*
X264054398Y-146772165D01*
X264054398Y-146597835D01*
X264020388Y-146426855D01*
X263953675Y-146265795D01*
X263856822Y-146120845D01*
X263733553Y-145997576D01*
X263588603Y-145900723D01*
X263427543Y-145834010D01*
X263256563Y-145800000D01*
X263082233Y-145800000D01*
X262911253Y-145834010D01*
X262750193Y-145900723D01*
X262605243Y-145997576D01*
X262481974Y-146120845D01*
X262385121Y-146265795D01*
X262318408Y-146426855D01*
X262284398Y-146597835D01*
X257603904Y-146597835D01*
X257644990Y-146498645D01*
X257679000Y-146327665D01*
X257679000Y-146153335D01*
X257644990Y-145982355D01*
X257578277Y-145821295D01*
X257481424Y-145676345D01*
X257358155Y-145553076D01*
X257213205Y-145456223D01*
X257052145Y-145389510D01*
X256881165Y-145355500D01*
X256706835Y-145355500D01*
X256535855Y-145389510D01*
X256374795Y-145456223D01*
X256229845Y-145553076D01*
X256106576Y-145676345D01*
X256009723Y-145821295D01*
X255943010Y-145982355D01*
X255909000Y-146153335D01*
X180796000Y-146153335D01*
X180796000Y-144819835D01*
X244352000Y-144819835D01*
X244352000Y-144994165D01*
X244386010Y-145165145D01*
X244452723Y-145326205D01*
X244549576Y-145471155D01*
X244672845Y-145594424D01*
X244817795Y-145691277D01*
X244978855Y-145757990D01*
X245149835Y-145792000D01*
X245324165Y-145792000D01*
X245495145Y-145757990D01*
X245656205Y-145691277D01*
X245801155Y-145594424D01*
X245924424Y-145471155D01*
X246021277Y-145326205D01*
X246087990Y-145165145D01*
X246122000Y-144994165D01*
X246122000Y-144819835D01*
X246087990Y-144648855D01*
X246021277Y-144487795D01*
X245988563Y-144438835D01*
X264164000Y-144438835D01*
X264164000Y-144613165D01*
X264198010Y-144784145D01*
X264264723Y-144945205D01*
X264361576Y-145090155D01*
X264484845Y-145213424D01*
X264629795Y-145310277D01*
X264790855Y-145376990D01*
X264961835Y-145411000D01*
X265136165Y-145411000D01*
X265307145Y-145376990D01*
X265468205Y-145310277D01*
X265613155Y-145213424D01*
X265736424Y-145090155D01*
X265833277Y-144945205D01*
X265899990Y-144784145D01*
X265934000Y-144613165D01*
X265934000Y-144438835D01*
X266196000Y-144438835D01*
X266196000Y-144613165D01*
X266230010Y-144784145D01*
X266296723Y-144945205D01*
X266393576Y-145090155D01*
X266516845Y-145213424D01*
X266661795Y-145310277D01*
X266822855Y-145376990D01*
X266993835Y-145411000D01*
X267168165Y-145411000D01*
X267339145Y-145376990D01*
X267500205Y-145310277D01*
X267645155Y-145213424D01*
X267768424Y-145090155D01*
X267865277Y-144945205D01*
X267931990Y-144784145D01*
X267966000Y-144613165D01*
X267966000Y-144438835D01*
X274832000Y-144438835D01*
X274832000Y-144613165D01*
X274866010Y-144784145D01*
X274932723Y-144945205D01*
X275029576Y-145090155D01*
X275152845Y-145213424D01*
X275297795Y-145310277D01*
X275458855Y-145376990D01*
X275629835Y-145411000D01*
X275804165Y-145411000D01*
X275975145Y-145376990D01*
X276136205Y-145310277D01*
X276281155Y-145213424D01*
X276404424Y-145090155D01*
X276501277Y-144945205D01*
X276567990Y-144784145D01*
X276602000Y-144613165D01*
X276602000Y-144438835D01*
X276567990Y-144267855D01*
X276501277Y-144106795D01*
X276404424Y-143961845D01*
X276281155Y-143838576D01*
X276136205Y-143741723D01*
X275975145Y-143675010D01*
X275804165Y-143641000D01*
X275629835Y-143641000D01*
X275458855Y-143675010D01*
X275297795Y-143741723D01*
X275152845Y-143838576D01*
X275029576Y-143961845D01*
X274932723Y-144106795D01*
X274866010Y-144267855D01*
X274832000Y-144438835D01*
X267966000Y-144438835D01*
X267931990Y-144267855D01*
X267865277Y-144106795D01*
X267768424Y-143961845D01*
X267645155Y-143838576D01*
X267500205Y-143741723D01*
X267339145Y-143675010D01*
X267168165Y-143641000D01*
X266993835Y-143641000D01*
X266822855Y-143675010D01*
X266661795Y-143741723D01*
X266516845Y-143838576D01*
X266393576Y-143961845D01*
X266296723Y-144106795D01*
X266230010Y-144267855D01*
X266196000Y-144438835D01*
X265934000Y-144438835D01*
X265899990Y-144267855D01*
X265833277Y-144106795D01*
X265736424Y-143961845D01*
X265613155Y-143838576D01*
X265468205Y-143741723D01*
X265307145Y-143675010D01*
X265136165Y-143641000D01*
X264961835Y-143641000D01*
X264790855Y-143675010D01*
X264629795Y-143741723D01*
X264484845Y-143838576D01*
X264361576Y-143961845D01*
X264264723Y-144106795D01*
X264198010Y-144267855D01*
X264164000Y-144438835D01*
X245988563Y-144438835D01*
X245924424Y-144342845D01*
X245801155Y-144219576D01*
X245656205Y-144122723D01*
X245495145Y-144056010D01*
X245324165Y-144022000D01*
X245149835Y-144022000D01*
X244978855Y-144056010D01*
X244817795Y-144122723D01*
X244672845Y-144219576D01*
X244549576Y-144342845D01*
X244452723Y-144487795D01*
X244386010Y-144648855D01*
X244352000Y-144819835D01*
X180796000Y-144819835D01*
X180796000Y-140359000D01*
X185694928Y-140359000D01*
X185694928Y-143359000D01*
X185707188Y-143483482D01*
X185743498Y-143603180D01*
X185802463Y-143713494D01*
X185881815Y-143810185D01*
X185978506Y-143889537D01*
X186088820Y-143948502D01*
X186208518Y-143984812D01*
X186333000Y-143997072D01*
X189333000Y-143997072D01*
X189457482Y-143984812D01*
X189577180Y-143948502D01*
X189687494Y-143889537D01*
X189784185Y-143810185D01*
X189863537Y-143713494D01*
X189922502Y-143603180D01*
X189958812Y-143483482D01*
X189971072Y-143359000D01*
X189971072Y-141648721D01*
X190778000Y-141648721D01*
X190778000Y-142069279D01*
X190860047Y-142481756D01*
X191020988Y-142870302D01*
X191254637Y-143219983D01*
X191552017Y-143517363D01*
X191901698Y-143751012D01*
X192290244Y-143911953D01*
X192702721Y-143994000D01*
X193123279Y-143994000D01*
X193535756Y-143911953D01*
X193924302Y-143751012D01*
X194273983Y-143517363D01*
X194571363Y-143219983D01*
X194805012Y-142870302D01*
X194965953Y-142481756D01*
X195048000Y-142069279D01*
X195048000Y-141648721D01*
X195858000Y-141648721D01*
X195858000Y-142069279D01*
X195940047Y-142481756D01*
X196100988Y-142870302D01*
X196334637Y-143219983D01*
X196632017Y-143517363D01*
X196981698Y-143751012D01*
X197370244Y-143911953D01*
X197782721Y-143994000D01*
X198203279Y-143994000D01*
X198615756Y-143911953D01*
X199004302Y-143751012D01*
X199353983Y-143517363D01*
X199651363Y-143219983D01*
X199885012Y-142870302D01*
X200045953Y-142481756D01*
X200086118Y-142279829D01*
X221047500Y-142279829D01*
X221047500Y-142454159D01*
X221081510Y-142625139D01*
X221148223Y-142786199D01*
X221245076Y-142931149D01*
X221368345Y-143054418D01*
X221513295Y-143151271D01*
X221674355Y-143217984D01*
X221845335Y-143251994D01*
X222019665Y-143251994D01*
X222190645Y-143217984D01*
X222351705Y-143151271D01*
X222496655Y-143054418D01*
X222619924Y-142931149D01*
X222673254Y-142851335D01*
X234509500Y-142851335D01*
X234509500Y-143025665D01*
X234543510Y-143196645D01*
X234610223Y-143357705D01*
X234707076Y-143502655D01*
X234830345Y-143625924D01*
X234975295Y-143722777D01*
X235136355Y-143789490D01*
X235307335Y-143823500D01*
X235481665Y-143823500D01*
X235652645Y-143789490D01*
X235813705Y-143722777D01*
X235958655Y-143625924D01*
X236081924Y-143502655D01*
X236178777Y-143357705D01*
X236245490Y-143196645D01*
X236279500Y-143025665D01*
X236279500Y-142851335D01*
X236245490Y-142680355D01*
X236178777Y-142519295D01*
X236081924Y-142374345D01*
X235958655Y-142251076D01*
X235813705Y-142154223D01*
X235652645Y-142087510D01*
X235481665Y-142053500D01*
X235307335Y-142053500D01*
X235136355Y-142087510D01*
X234975295Y-142154223D01*
X234830345Y-142251076D01*
X234707076Y-142374345D01*
X234610223Y-142519295D01*
X234543510Y-142680355D01*
X234509500Y-142851335D01*
X222673254Y-142851335D01*
X222716777Y-142786199D01*
X222783490Y-142625139D01*
X222810030Y-142491712D01*
X222846795Y-142516277D01*
X223007855Y-142582990D01*
X223178835Y-142617000D01*
X223353165Y-142617000D01*
X223524145Y-142582990D01*
X223685205Y-142516277D01*
X223830155Y-142419424D01*
X223953424Y-142296155D01*
X224050277Y-142151205D01*
X224116990Y-141990145D01*
X224151000Y-141819165D01*
X224151000Y-141644835D01*
X224116990Y-141473855D01*
X224050277Y-141312795D01*
X223953424Y-141167845D01*
X223830155Y-141044576D01*
X223685205Y-140947723D01*
X223524145Y-140881010D01*
X223353165Y-140847000D01*
X223178835Y-140847000D01*
X223007855Y-140881010D01*
X222846795Y-140947723D01*
X222701845Y-141044576D01*
X222578576Y-141167845D01*
X222481723Y-141312795D01*
X222415010Y-141473855D01*
X222388470Y-141607282D01*
X222351705Y-141582717D01*
X222190645Y-141516004D01*
X222019665Y-141481994D01*
X221845335Y-141481994D01*
X221674355Y-141516004D01*
X221513295Y-141582717D01*
X221368345Y-141679570D01*
X221245076Y-141802839D01*
X221148223Y-141947789D01*
X221081510Y-142108849D01*
X221047500Y-142279829D01*
X200086118Y-142279829D01*
X200128000Y-142069279D01*
X200128000Y-141648721D01*
X200045953Y-141236244D01*
X199885012Y-140847698D01*
X199651363Y-140498017D01*
X199353983Y-140200637D01*
X199004302Y-139966988D01*
X198615756Y-139806047D01*
X198203279Y-139724000D01*
X197782721Y-139724000D01*
X197370244Y-139806047D01*
X196981698Y-139966988D01*
X196632017Y-140200637D01*
X196334637Y-140498017D01*
X196100988Y-140847698D01*
X195940047Y-141236244D01*
X195858000Y-141648721D01*
X195048000Y-141648721D01*
X194965953Y-141236244D01*
X194805012Y-140847698D01*
X194571363Y-140498017D01*
X194273983Y-140200637D01*
X193924302Y-139966988D01*
X193535756Y-139806047D01*
X193123279Y-139724000D01*
X192702721Y-139724000D01*
X192290244Y-139806047D01*
X191901698Y-139966988D01*
X191552017Y-140200637D01*
X191254637Y-140498017D01*
X191020988Y-140847698D01*
X190860047Y-141236244D01*
X190778000Y-141648721D01*
X189971072Y-141648721D01*
X189971072Y-140359000D01*
X189958812Y-140234518D01*
X189922502Y-140114820D01*
X189863537Y-140004506D01*
X189784185Y-139907815D01*
X189687494Y-139828463D01*
X189577180Y-139769498D01*
X189457482Y-139733188D01*
X189333000Y-139720928D01*
X186333000Y-139720928D01*
X186208518Y-139733188D01*
X186088820Y-139769498D01*
X185978506Y-139828463D01*
X185881815Y-139907815D01*
X185802463Y-140004506D01*
X185743498Y-140114820D01*
X185707188Y-140234518D01*
X185694928Y-140359000D01*
X180796000Y-140359000D01*
X180796000Y-135382000D01*
X239807815Y-135382000D01*
X239836487Y-135673111D01*
X239921401Y-135953034D01*
X240059294Y-136211014D01*
X240244866Y-136437134D01*
X240470986Y-136622706D01*
X240525791Y-136652000D01*
X240470986Y-136681294D01*
X240244866Y-136866866D01*
X240059294Y-137092986D01*
X239921401Y-137350966D01*
X239836487Y-137630889D01*
X239807815Y-137922000D01*
X239836487Y-138213111D01*
X239921401Y-138493034D01*
X240059294Y-138751014D01*
X240244866Y-138977134D01*
X240274687Y-139001607D01*
X240205820Y-139022498D01*
X240095506Y-139081463D01*
X239998815Y-139160815D01*
X239919463Y-139257506D01*
X239860498Y-139367820D01*
X239824188Y-139487518D01*
X239811928Y-139612000D01*
X239811928Y-141312000D01*
X239824188Y-141436482D01*
X239860498Y-141556180D01*
X239919463Y-141666494D01*
X239998815Y-141763185D01*
X240095506Y-141842537D01*
X240205820Y-141901502D01*
X240325518Y-141937812D01*
X240450000Y-141950072D01*
X242150000Y-141950072D01*
X242274482Y-141937812D01*
X242394180Y-141901502D01*
X242504494Y-141842537D01*
X242601185Y-141763185D01*
X242680537Y-141666494D01*
X242739502Y-141556180D01*
X242775812Y-141436482D01*
X242788072Y-141312000D01*
X242788072Y-140628835D01*
X264164000Y-140628835D01*
X264164000Y-140803165D01*
X264198010Y-140974145D01*
X264264723Y-141135205D01*
X264361576Y-141280155D01*
X264484845Y-141403424D01*
X264629795Y-141500277D01*
X264790855Y-141566990D01*
X264961835Y-141601000D01*
X265136165Y-141601000D01*
X265307145Y-141566990D01*
X265468205Y-141500277D01*
X265613155Y-141403424D01*
X265736424Y-141280155D01*
X265833277Y-141135205D01*
X265899990Y-140974145D01*
X265934000Y-140803165D01*
X265934000Y-140628835D01*
X265899990Y-140457855D01*
X265833277Y-140296795D01*
X265736424Y-140151845D01*
X265613155Y-140028576D01*
X265468205Y-139931723D01*
X265307145Y-139865010D01*
X265136165Y-139831000D01*
X264961835Y-139831000D01*
X264790855Y-139865010D01*
X264629795Y-139931723D01*
X264484845Y-140028576D01*
X264361576Y-140151845D01*
X264264723Y-140296795D01*
X264198010Y-140457855D01*
X264164000Y-140628835D01*
X242788072Y-140628835D01*
X242788072Y-139612000D01*
X242775812Y-139487518D01*
X242739502Y-139367820D01*
X242680537Y-139257506D01*
X242601185Y-139160815D01*
X242504494Y-139081463D01*
X242394180Y-139022498D01*
X242325313Y-139001607D01*
X242355134Y-138977134D01*
X242540706Y-138751014D01*
X242678599Y-138493034D01*
X242685636Y-138469835D01*
X259465000Y-138469835D01*
X259465000Y-138644165D01*
X259499010Y-138815145D01*
X259565723Y-138976205D01*
X259662576Y-139121155D01*
X259785845Y-139244424D01*
X259930795Y-139341277D01*
X260091855Y-139407990D01*
X260262835Y-139442000D01*
X260437165Y-139442000D01*
X260608145Y-139407990D01*
X260769205Y-139341277D01*
X260914155Y-139244424D01*
X261037424Y-139121155D01*
X261134277Y-138976205D01*
X261200990Y-138815145D01*
X261235000Y-138644165D01*
X261235000Y-138469835D01*
X261200990Y-138298855D01*
X261134277Y-138137795D01*
X261037424Y-137992845D01*
X260914155Y-137869576D01*
X260769205Y-137772723D01*
X260608145Y-137706010D01*
X260437165Y-137672000D01*
X260262835Y-137672000D01*
X260091855Y-137706010D01*
X259930795Y-137772723D01*
X259785845Y-137869576D01*
X259662576Y-137992845D01*
X259565723Y-138137795D01*
X259499010Y-138298855D01*
X259465000Y-138469835D01*
X242685636Y-138469835D01*
X242763513Y-138213111D01*
X242792185Y-137922000D01*
X242763513Y-137630889D01*
X242678599Y-137350966D01*
X242540706Y-137092986D01*
X242355134Y-136866866D01*
X242129014Y-136681294D01*
X242074209Y-136652000D01*
X242129014Y-136622706D01*
X242199529Y-136564835D01*
X267973996Y-136564835D01*
X267973996Y-136739165D01*
X268008006Y-136910145D01*
X268074719Y-137071205D01*
X268171572Y-137216155D01*
X268294841Y-137339424D01*
X268439791Y-137436277D01*
X268600851Y-137502990D01*
X268771831Y-137537000D01*
X268946161Y-137537000D01*
X269117141Y-137502990D01*
X269278201Y-137436277D01*
X269423151Y-137339424D01*
X269546420Y-137216155D01*
X269643273Y-137071205D01*
X269709986Y-136910145D01*
X269743996Y-136739165D01*
X269743996Y-136564835D01*
X271530000Y-136564835D01*
X271530000Y-136739165D01*
X271564010Y-136910145D01*
X271630723Y-137071205D01*
X271727576Y-137216155D01*
X271850845Y-137339424D01*
X271995795Y-137436277D01*
X272156855Y-137502990D01*
X272327835Y-137537000D01*
X272502165Y-137537000D01*
X272673145Y-137502990D01*
X272834205Y-137436277D01*
X272979155Y-137339424D01*
X273102424Y-137216155D01*
X273199277Y-137071205D01*
X273265990Y-136910145D01*
X273300000Y-136739165D01*
X273300000Y-136564835D01*
X273265990Y-136393855D01*
X273199277Y-136232795D01*
X273102424Y-136087845D01*
X272979155Y-135964576D01*
X272834205Y-135867723D01*
X272673145Y-135801010D01*
X272502165Y-135767000D01*
X272327835Y-135767000D01*
X272156855Y-135801010D01*
X271995795Y-135867723D01*
X271850845Y-135964576D01*
X271727576Y-136087845D01*
X271630723Y-136232795D01*
X271564010Y-136393855D01*
X271530000Y-136564835D01*
X269743996Y-136564835D01*
X269709986Y-136393855D01*
X269643273Y-136232795D01*
X269546420Y-136087845D01*
X269423151Y-135964576D01*
X269278201Y-135867723D01*
X269117141Y-135801010D01*
X268946161Y-135767000D01*
X268771831Y-135767000D01*
X268600851Y-135801010D01*
X268439791Y-135867723D01*
X268294841Y-135964576D01*
X268171572Y-136087845D01*
X268074719Y-136232795D01*
X268008006Y-136393855D01*
X267973996Y-136564835D01*
X242199529Y-136564835D01*
X242355134Y-136437134D01*
X242540706Y-136211014D01*
X242678599Y-135953034D01*
X242763513Y-135673111D01*
X242792185Y-135382000D01*
X242763513Y-135090889D01*
X242678599Y-134810966D01*
X242540706Y-134552986D01*
X242355134Y-134326866D01*
X242129014Y-134141294D01*
X241871034Y-134003401D01*
X241591111Y-133918487D01*
X241372950Y-133897000D01*
X241227050Y-133897000D01*
X241008889Y-133918487D01*
X240728966Y-134003401D01*
X240470986Y-134141294D01*
X240244866Y-134326866D01*
X240059294Y-134552986D01*
X239921401Y-134810966D01*
X239836487Y-135090889D01*
X239807815Y-135382000D01*
X180796000Y-135382000D01*
X180796000Y-131611835D01*
X250765500Y-131611835D01*
X250765500Y-131786165D01*
X250799510Y-131957145D01*
X250866223Y-132118205D01*
X250963076Y-132263155D01*
X251086345Y-132386424D01*
X251231295Y-132483277D01*
X251392355Y-132549990D01*
X251563335Y-132584000D01*
X251737665Y-132584000D01*
X251908645Y-132549990D01*
X252069705Y-132483277D01*
X252214655Y-132386424D01*
X252337924Y-132263155D01*
X252434777Y-132118205D01*
X252501490Y-131957145D01*
X252535500Y-131786165D01*
X252535500Y-131611835D01*
X252501490Y-131440855D01*
X252434777Y-131279795D01*
X252337924Y-131134845D01*
X252214655Y-131011576D01*
X252069705Y-130914723D01*
X251908645Y-130848010D01*
X251737665Y-130814000D01*
X251563335Y-130814000D01*
X251392355Y-130848010D01*
X251231295Y-130914723D01*
X251086345Y-131011576D01*
X250963076Y-131134845D01*
X250866223Y-131279795D01*
X250799510Y-131440855D01*
X250765500Y-131611835D01*
X180796000Y-131611835D01*
X180796000Y-128549061D01*
X271507000Y-128549061D01*
X271507000Y-128752939D01*
X271546774Y-128952898D01*
X271624795Y-129141256D01*
X271738063Y-129310774D01*
X271882226Y-129454937D01*
X272051744Y-129568205D01*
X272240102Y-129646226D01*
X272440061Y-129686000D01*
X272643939Y-129686000D01*
X272843898Y-129646226D01*
X273032256Y-129568205D01*
X273201774Y-129454937D01*
X273345937Y-129310774D01*
X273459205Y-129141256D01*
X273537226Y-128952898D01*
X273577000Y-128752939D01*
X273577000Y-128549061D01*
X273537226Y-128349102D01*
X273459205Y-128160744D01*
X273345937Y-127991226D01*
X273201774Y-127847063D01*
X273032256Y-127733795D01*
X272843898Y-127655774D01*
X272643939Y-127616000D01*
X272440061Y-127616000D01*
X272240102Y-127655774D01*
X272051744Y-127733795D01*
X271882226Y-127847063D01*
X271738063Y-127991226D01*
X271624795Y-128160744D01*
X271546774Y-128349102D01*
X271507000Y-128549061D01*
X180796000Y-128549061D01*
X180796000Y-124162117D01*
X206418000Y-124162117D01*
X206418000Y-124503883D01*
X206484675Y-124839081D01*
X206615463Y-125154831D01*
X206805337Y-125438998D01*
X207047002Y-125680663D01*
X207331169Y-125870537D01*
X207646919Y-126001325D01*
X207982117Y-126068000D01*
X208323883Y-126068000D01*
X208659081Y-126001325D01*
X208974831Y-125870537D01*
X209258998Y-125680663D01*
X209500663Y-125438998D01*
X209690537Y-125154831D01*
X209821325Y-124839081D01*
X209888000Y-124503883D01*
X209888000Y-124162117D01*
X209821325Y-123826919D01*
X209690537Y-123511169D01*
X209500663Y-123227002D01*
X209258998Y-122985337D01*
X208974831Y-122795463D01*
X208659081Y-122664675D01*
X208323883Y-122598000D01*
X207982117Y-122598000D01*
X207646919Y-122664675D01*
X207331169Y-122795463D01*
X207047002Y-122985337D01*
X206805337Y-123227002D01*
X206615463Y-123511169D01*
X206484675Y-123826919D01*
X206418000Y-124162117D01*
X180796000Y-124162117D01*
X180796000Y-120096301D01*
X270747600Y-120096301D01*
X270747600Y-120644899D01*
X270854626Y-121182954D01*
X271064565Y-121689792D01*
X271369350Y-122145934D01*
X271757266Y-122533850D01*
X272213408Y-122838635D01*
X272720246Y-123048574D01*
X273258301Y-123155600D01*
X273806899Y-123155600D01*
X274344954Y-123048574D01*
X274851792Y-122838635D01*
X275307934Y-122533850D01*
X275695850Y-122145934D01*
X276000635Y-121689792D01*
X276210574Y-121182954D01*
X276317600Y-120644899D01*
X276317600Y-120096301D01*
X276210574Y-119558246D01*
X276000635Y-119051408D01*
X275695850Y-118595266D01*
X275307934Y-118207350D01*
X274851792Y-117902565D01*
X274344954Y-117692626D01*
X273806899Y-117585600D01*
X273258301Y-117585600D01*
X272720246Y-117692626D01*
X272213408Y-117902565D01*
X271757266Y-118207350D01*
X271369350Y-118595266D01*
X271064565Y-119051408D01*
X270854626Y-119558246D01*
X270747600Y-120096301D01*
X180796000Y-120096301D01*
X180796000Y-113728161D01*
X265004600Y-113728161D01*
X265004600Y-113932039D01*
X265044374Y-114131998D01*
X265122395Y-114320356D01*
X265235663Y-114489874D01*
X265379826Y-114634037D01*
X265549344Y-114747305D01*
X265737702Y-114825326D01*
X265937661Y-114865100D01*
X266141539Y-114865100D01*
X266341498Y-114825326D01*
X266529856Y-114747305D01*
X266699374Y-114634037D01*
X266843537Y-114489874D01*
X266956805Y-114320356D01*
X267034826Y-114131998D01*
X267074600Y-113932039D01*
X267074600Y-113728161D01*
X267034826Y-113528202D01*
X266956805Y-113339844D01*
X266843537Y-113170326D01*
X266699374Y-113026163D01*
X266529856Y-112912895D01*
X266341498Y-112834874D01*
X266141539Y-112795100D01*
X265937661Y-112795100D01*
X265737702Y-112834874D01*
X265549344Y-112912895D01*
X265379826Y-113026163D01*
X265235663Y-113170326D01*
X265122395Y-113339844D01*
X265044374Y-113528202D01*
X265004600Y-113728161D01*
X180796000Y-113728161D01*
X180796000Y-107294701D01*
X205368000Y-107294701D01*
X205368000Y-107843299D01*
X205475026Y-108381354D01*
X205684965Y-108888192D01*
X205989750Y-109344334D01*
X206377666Y-109732250D01*
X206833808Y-110037035D01*
X207340646Y-110246974D01*
X207878701Y-110354000D01*
X208427299Y-110354000D01*
X208965354Y-110246974D01*
X209472192Y-110037035D01*
X209928334Y-109732250D01*
X210316250Y-109344334D01*
X210621035Y-108888192D01*
X210830974Y-108381354D01*
X210938000Y-107843299D01*
X210938000Y-107543600D01*
X270647318Y-107543600D01*
X270676376Y-107838632D01*
X270762434Y-108122325D01*
X270902183Y-108383779D01*
X271090255Y-108612945D01*
X271319421Y-108801017D01*
X271342962Y-108813600D01*
X271319421Y-108826183D01*
X271090255Y-109014255D01*
X270902183Y-109243421D01*
X270762434Y-109504875D01*
X270676376Y-109788568D01*
X270647318Y-110083600D01*
X270676376Y-110378632D01*
X270762434Y-110662325D01*
X270902183Y-110923779D01*
X271090255Y-111152945D01*
X271319421Y-111341017D01*
X271580875Y-111480766D01*
X271864568Y-111566824D01*
X272085664Y-111588600D01*
X272693536Y-111588600D01*
X272914632Y-111566824D01*
X273198325Y-111480766D01*
X273459779Y-111341017D01*
X273688945Y-111152945D01*
X273877017Y-110923779D01*
X274016766Y-110662325D01*
X274102824Y-110378632D01*
X274131882Y-110083600D01*
X274102824Y-109788568D01*
X274016766Y-109504875D01*
X273877017Y-109243421D01*
X273688945Y-109014255D01*
X273459779Y-108826183D01*
X273436238Y-108813600D01*
X273459779Y-108801017D01*
X273688945Y-108612945D01*
X273877017Y-108383779D01*
X274016766Y-108122325D01*
X274102824Y-107838632D01*
X274131882Y-107543600D01*
X274102824Y-107248568D01*
X274016766Y-106964875D01*
X273877017Y-106703421D01*
X273688945Y-106474255D01*
X273623486Y-106420534D01*
X273732987Y-106362005D01*
X273867562Y-106251562D01*
X273978005Y-106116987D01*
X274060072Y-105963451D01*
X274110608Y-105796855D01*
X274127672Y-105623601D01*
X274127672Y-104383599D01*
X274110608Y-104210345D01*
X274060072Y-104043749D01*
X273978005Y-103890213D01*
X273867562Y-103755638D01*
X273732987Y-103645195D01*
X273579451Y-103563128D01*
X273412855Y-103512592D01*
X273239601Y-103495528D01*
X271539599Y-103495528D01*
X271366345Y-103512592D01*
X271199749Y-103563128D01*
X271046213Y-103645195D01*
X270911638Y-103755638D01*
X270801195Y-103890213D01*
X270719128Y-104043749D01*
X270668592Y-104210345D01*
X270651528Y-104383599D01*
X270651528Y-105623601D01*
X270668592Y-105796855D01*
X270719128Y-105963451D01*
X270801195Y-106116987D01*
X270911638Y-106251562D01*
X271046213Y-106362005D01*
X271155714Y-106420534D01*
X271090255Y-106474255D01*
X270902183Y-106703421D01*
X270762434Y-106964875D01*
X270676376Y-107248568D01*
X270647318Y-107543600D01*
X210938000Y-107543600D01*
X210938000Y-107294701D01*
X210830974Y-106756646D01*
X210621035Y-106249808D01*
X210316250Y-105793666D01*
X209928334Y-105405750D01*
X209472192Y-105100965D01*
X208965354Y-104891026D01*
X208427299Y-104784000D01*
X207878701Y-104784000D01*
X207340646Y-104891026D01*
X206833808Y-105100965D01*
X206377666Y-105405750D01*
X205989750Y-105793666D01*
X205684965Y-106249808D01*
X205475026Y-106756646D01*
X205368000Y-107294701D01*
X180796000Y-107294701D01*
X180796000Y-94442301D01*
X270747600Y-94442301D01*
X270747600Y-94990899D01*
X270854626Y-95528954D01*
X271064565Y-96035792D01*
X271369350Y-96491934D01*
X271757266Y-96879850D01*
X272213408Y-97184635D01*
X272720246Y-97394574D01*
X273258301Y-97501600D01*
X273806899Y-97501600D01*
X274344954Y-97394574D01*
X274851792Y-97184635D01*
X275307934Y-96879850D01*
X275695850Y-96491934D01*
X276000635Y-96035792D01*
X276210574Y-95528954D01*
X276317600Y-94990899D01*
X276317600Y-94442301D01*
X276210574Y-93904246D01*
X276000635Y-93397408D01*
X275695850Y-92941266D01*
X275307934Y-92553350D01*
X274851792Y-92248565D01*
X274344954Y-92038626D01*
X273806899Y-91931600D01*
X273258301Y-91931600D01*
X272720246Y-92038626D01*
X272213408Y-92248565D01*
X271757266Y-92553350D01*
X271369350Y-92941266D01*
X271064565Y-93397408D01*
X270854626Y-93904246D01*
X270747600Y-94442301D01*
X180796000Y-94442301D01*
X180796000Y-90888117D01*
X206418000Y-90888117D01*
X206418000Y-91229883D01*
X206484675Y-91565081D01*
X206615463Y-91880831D01*
X206805337Y-92164998D01*
X207047002Y-92406663D01*
X207331169Y-92596537D01*
X207646919Y-92727325D01*
X207982117Y-92794000D01*
X208323883Y-92794000D01*
X208659081Y-92727325D01*
X208974831Y-92596537D01*
X209258998Y-92406663D01*
X209500663Y-92164998D01*
X209690537Y-91880831D01*
X209821325Y-91565081D01*
X209888000Y-91229883D01*
X209888000Y-90888117D01*
X209821325Y-90552919D01*
X209690537Y-90237169D01*
X209500663Y-89953002D01*
X209258998Y-89711337D01*
X208974831Y-89521463D01*
X208659081Y-89390675D01*
X208323883Y-89324000D01*
X207982117Y-89324000D01*
X207646919Y-89390675D01*
X207331169Y-89521463D01*
X207047002Y-89711337D01*
X206805337Y-89953002D01*
X206615463Y-90237169D01*
X206484675Y-90552919D01*
X206418000Y-90888117D01*
X180796000Y-90888117D01*
X180796000Y-86059655D01*
X249877800Y-86059655D01*
X249877800Y-86406345D01*
X249945436Y-86746373D01*
X250078108Y-87066673D01*
X250270719Y-87354935D01*
X250515865Y-87600081D01*
X250804127Y-87792692D01*
X251124427Y-87925364D01*
X251464455Y-87993000D01*
X251811145Y-87993000D01*
X252151173Y-87925364D01*
X252471473Y-87792692D01*
X252759735Y-87600081D01*
X253004881Y-87354935D01*
X253197492Y-87066673D01*
X253330164Y-86746373D01*
X253397800Y-86406345D01*
X253397800Y-86059655D01*
X254957800Y-86059655D01*
X254957800Y-86406345D01*
X255025436Y-86746373D01*
X255158108Y-87066673D01*
X255350719Y-87354935D01*
X255595865Y-87600081D01*
X255884127Y-87792692D01*
X256204427Y-87925364D01*
X256544455Y-87993000D01*
X256891145Y-87993000D01*
X257231173Y-87925364D01*
X257551473Y-87792692D01*
X257839735Y-87600081D01*
X258084881Y-87354935D01*
X258277492Y-87066673D01*
X258410164Y-86746373D01*
X258477800Y-86406345D01*
X258477800Y-86059655D01*
X258410164Y-85719627D01*
X258277492Y-85399327D01*
X258084881Y-85111065D01*
X257839735Y-84865919D01*
X257551473Y-84673308D01*
X257231173Y-84540636D01*
X256891145Y-84473000D01*
X256544455Y-84473000D01*
X256204427Y-84540636D01*
X255884127Y-84673308D01*
X255595865Y-84865919D01*
X255350719Y-85111065D01*
X255158108Y-85399327D01*
X255025436Y-85719627D01*
X254957800Y-86059655D01*
X253397800Y-86059655D01*
X253330164Y-85719627D01*
X253197492Y-85399327D01*
X253004881Y-85111065D01*
X252759735Y-84865919D01*
X252471473Y-84673308D01*
X252151173Y-84540636D01*
X251811145Y-84473000D01*
X251464455Y-84473000D01*
X251124427Y-84540636D01*
X250804127Y-84673308D01*
X250515865Y-84865919D01*
X250270719Y-85111065D01*
X250078108Y-85399327D01*
X249945436Y-85719627D01*
X249877800Y-86059655D01*
X180796000Y-86059655D01*
X180796000Y-82412035D01*
X222063500Y-82412035D01*
X222063500Y-82586365D01*
X222097510Y-82757345D01*
X222164223Y-82918405D01*
X222261076Y-83063355D01*
X222384345Y-83186624D01*
X222529295Y-83283477D01*
X222690355Y-83350190D01*
X222861335Y-83384200D01*
X223035665Y-83384200D01*
X223206645Y-83350190D01*
X223367705Y-83283477D01*
X223512655Y-83186624D01*
X223635924Y-83063355D01*
X223732777Y-82918405D01*
X223799490Y-82757345D01*
X223827757Y-82615235D01*
X235754100Y-82615235D01*
X235754100Y-82789565D01*
X235788110Y-82960545D01*
X235854823Y-83121605D01*
X235951676Y-83266555D01*
X236074945Y-83389824D01*
X236219895Y-83486677D01*
X236380955Y-83553390D01*
X236551935Y-83587400D01*
X236726265Y-83587400D01*
X236897245Y-83553390D01*
X236954911Y-83529504D01*
X252517800Y-83529504D01*
X252517800Y-83856496D01*
X252581593Y-84177204D01*
X252706727Y-84479305D01*
X252888394Y-84751188D01*
X253119612Y-84982406D01*
X253391495Y-85164073D01*
X253693596Y-85289207D01*
X254014304Y-85353000D01*
X254341296Y-85353000D01*
X254662004Y-85289207D01*
X254964105Y-85164073D01*
X255235988Y-84982406D01*
X255467206Y-84751188D01*
X255648873Y-84479305D01*
X255774007Y-84177204D01*
X255837800Y-83856496D01*
X255837800Y-83529504D01*
X255774007Y-83208796D01*
X255648873Y-82906695D01*
X255467206Y-82634812D01*
X255235988Y-82403594D01*
X254964105Y-82221927D01*
X254662004Y-82096793D01*
X254341296Y-82033000D01*
X254014304Y-82033000D01*
X253693596Y-82096793D01*
X253391495Y-82221927D01*
X253119612Y-82403594D01*
X252888394Y-82634812D01*
X252706727Y-82906695D01*
X252581593Y-83208796D01*
X252517800Y-83529504D01*
X236954911Y-83529504D01*
X237058305Y-83486677D01*
X237203255Y-83389824D01*
X237326524Y-83266555D01*
X237423377Y-83121605D01*
X237490090Y-82960545D01*
X237524100Y-82789565D01*
X237524100Y-82615235D01*
X237490090Y-82444255D01*
X237423377Y-82283195D01*
X237326524Y-82138245D01*
X237203255Y-82014976D01*
X237058305Y-81918123D01*
X236897245Y-81851410D01*
X236726265Y-81817400D01*
X236551935Y-81817400D01*
X236380955Y-81851410D01*
X236219895Y-81918123D01*
X236074945Y-82014976D01*
X235951676Y-82138245D01*
X235854823Y-82283195D01*
X235788110Y-82444255D01*
X235754100Y-82615235D01*
X223827757Y-82615235D01*
X223833500Y-82586365D01*
X223833500Y-82412035D01*
X223799490Y-82241055D01*
X223732777Y-82079995D01*
X223635924Y-81935045D01*
X223512655Y-81811776D01*
X223367705Y-81714923D01*
X223206645Y-81648210D01*
X223035665Y-81614200D01*
X222861335Y-81614200D01*
X222690355Y-81648210D01*
X222529295Y-81714923D01*
X222384345Y-81811776D01*
X222261076Y-81935045D01*
X222164223Y-82079995D01*
X222097510Y-82241055D01*
X222063500Y-82412035D01*
X180796000Y-82412035D01*
X180796000Y-80979655D01*
X249877800Y-80979655D01*
X249877800Y-81326345D01*
X249945436Y-81666373D01*
X250078108Y-81986673D01*
X250270719Y-82274935D01*
X250515865Y-82520081D01*
X250804127Y-82712692D01*
X251124427Y-82845364D01*
X251464455Y-82913000D01*
X251811145Y-82913000D01*
X252151173Y-82845364D01*
X252471473Y-82712692D01*
X252759735Y-82520081D01*
X253004881Y-82274935D01*
X253197492Y-81986673D01*
X253330164Y-81666373D01*
X253397800Y-81326345D01*
X253397800Y-80979655D01*
X254957800Y-80979655D01*
X254957800Y-81326345D01*
X255025436Y-81666373D01*
X255158108Y-81986673D01*
X255350719Y-82274935D01*
X255595865Y-82520081D01*
X255884127Y-82712692D01*
X256204427Y-82845364D01*
X256544455Y-82913000D01*
X256891145Y-82913000D01*
X257231173Y-82845364D01*
X257551473Y-82712692D01*
X257839735Y-82520081D01*
X258084881Y-82274935D01*
X258277492Y-81986673D01*
X258410164Y-81666373D01*
X258426389Y-81584800D01*
X262337615Y-81584800D01*
X262366287Y-81875911D01*
X262451201Y-82155834D01*
X262589094Y-82413814D01*
X262774666Y-82639934D01*
X263000786Y-82825506D01*
X263055591Y-82854800D01*
X263000786Y-82884094D01*
X262774666Y-83069666D01*
X262589094Y-83295786D01*
X262451201Y-83553766D01*
X262366287Y-83833689D01*
X262337615Y-84124800D01*
X262366287Y-84415911D01*
X262451201Y-84695834D01*
X262589094Y-84953814D01*
X262774666Y-85179934D01*
X263000786Y-85365506D01*
X263258766Y-85503399D01*
X263538689Y-85588313D01*
X263756850Y-85609800D01*
X263902750Y-85609800D01*
X264120911Y-85588313D01*
X264400834Y-85503399D01*
X264600762Y-85396535D01*
X277460900Y-85396535D01*
X277460900Y-85570865D01*
X277494910Y-85741845D01*
X277561623Y-85902905D01*
X277658476Y-86047855D01*
X277781745Y-86171124D01*
X277926695Y-86267977D01*
X278087755Y-86334690D01*
X278258735Y-86368700D01*
X278433065Y-86368700D01*
X278604045Y-86334690D01*
X278765105Y-86267977D01*
X278910055Y-86171124D01*
X279033324Y-86047855D01*
X279130177Y-85902905D01*
X279196890Y-85741845D01*
X279230900Y-85570865D01*
X279230900Y-85396535D01*
X279196890Y-85225555D01*
X279130177Y-85064495D01*
X279033324Y-84919545D01*
X278910055Y-84796276D01*
X278765105Y-84699423D01*
X278604045Y-84632710D01*
X278433065Y-84598700D01*
X278258735Y-84598700D01*
X278087755Y-84632710D01*
X277926695Y-84699423D01*
X277781745Y-84796276D01*
X277658476Y-84919545D01*
X277561623Y-85064495D01*
X277494910Y-85225555D01*
X277460900Y-85396535D01*
X264600762Y-85396535D01*
X264658814Y-85365506D01*
X264884934Y-85179934D01*
X265070506Y-84953814D01*
X265208399Y-84695834D01*
X265293313Y-84415911D01*
X265321985Y-84124800D01*
X265293313Y-83833689D01*
X265285835Y-83809035D01*
X266411900Y-83809035D01*
X266411900Y-83983365D01*
X266445910Y-84154345D01*
X266512623Y-84315405D01*
X266609476Y-84460355D01*
X266732745Y-84583624D01*
X266877695Y-84680477D01*
X267038755Y-84747190D01*
X267209735Y-84781200D01*
X267384065Y-84781200D01*
X267555045Y-84747190D01*
X267716105Y-84680477D01*
X267861055Y-84583624D01*
X267984324Y-84460355D01*
X268081177Y-84315405D01*
X268147890Y-84154345D01*
X268181900Y-83983365D01*
X268181900Y-83809035D01*
X268147890Y-83638055D01*
X268081177Y-83476995D01*
X267984324Y-83332045D01*
X267861055Y-83208776D01*
X267716105Y-83111923D01*
X267555045Y-83045210D01*
X267384065Y-83011200D01*
X267209735Y-83011200D01*
X267038755Y-83045210D01*
X266877695Y-83111923D01*
X266732745Y-83208776D01*
X266609476Y-83332045D01*
X266512623Y-83476995D01*
X266445910Y-83638055D01*
X266411900Y-83809035D01*
X265285835Y-83809035D01*
X265208399Y-83553766D01*
X265070506Y-83295786D01*
X264884934Y-83069666D01*
X264658814Y-82884094D01*
X264604009Y-82854800D01*
X264658814Y-82825506D01*
X264884934Y-82639934D01*
X265070506Y-82413814D01*
X265208399Y-82155834D01*
X265293313Y-81875911D01*
X265321985Y-81584800D01*
X265293313Y-81293689D01*
X265208399Y-81013766D01*
X265070506Y-80755786D01*
X264884934Y-80529666D01*
X264855113Y-80505193D01*
X264923980Y-80484302D01*
X265034294Y-80425337D01*
X265130985Y-80345985D01*
X265210337Y-80249294D01*
X265269302Y-80138980D01*
X265305612Y-80019282D01*
X265317872Y-79894800D01*
X265317872Y-78194800D01*
X265305612Y-78070318D01*
X265269302Y-77950620D01*
X265210337Y-77840306D01*
X265130985Y-77743615D01*
X265034294Y-77664263D01*
X264923980Y-77605298D01*
X264804282Y-77568988D01*
X264679800Y-77556728D01*
X262979800Y-77556728D01*
X262855318Y-77568988D01*
X262735620Y-77605298D01*
X262625306Y-77664263D01*
X262528615Y-77743615D01*
X262449263Y-77840306D01*
X262390298Y-77950620D01*
X262353988Y-78070318D01*
X262341728Y-78194800D01*
X262341728Y-79894800D01*
X262353988Y-80019282D01*
X262390298Y-80138980D01*
X262449263Y-80249294D01*
X262528615Y-80345985D01*
X262625306Y-80425337D01*
X262735620Y-80484302D01*
X262804487Y-80505193D01*
X262774666Y-80529666D01*
X262589094Y-80755786D01*
X262451201Y-81013766D01*
X262366287Y-81293689D01*
X262337615Y-81584800D01*
X258426389Y-81584800D01*
X258477800Y-81326345D01*
X258477800Y-80979655D01*
X258410164Y-80639627D01*
X258277492Y-80319327D01*
X258084881Y-80031065D01*
X257839735Y-79785919D01*
X257551473Y-79593308D01*
X257231173Y-79460636D01*
X256891145Y-79393000D01*
X256544455Y-79393000D01*
X256204427Y-79460636D01*
X255884127Y-79593308D01*
X255595865Y-79785919D01*
X255350719Y-80031065D01*
X255158108Y-80319327D01*
X255025436Y-80639627D01*
X254957800Y-80979655D01*
X253397800Y-80979655D01*
X253330164Y-80639627D01*
X253197492Y-80319327D01*
X253004881Y-80031065D01*
X252759735Y-79785919D01*
X252471473Y-79593308D01*
X252151173Y-79460636D01*
X251811145Y-79393000D01*
X251464455Y-79393000D01*
X251124427Y-79460636D01*
X250804127Y-79593308D01*
X250515865Y-79785919D01*
X250270719Y-80031065D01*
X250078108Y-80319327D01*
X249945436Y-80639627D01*
X249877800Y-80979655D01*
X180796000Y-80979655D01*
X180796000Y-78843335D01*
X232922000Y-78843335D01*
X232922000Y-79017665D01*
X232956010Y-79188645D01*
X233022723Y-79349705D01*
X233119576Y-79494655D01*
X233242845Y-79617924D01*
X233387795Y-79714777D01*
X233548855Y-79781490D01*
X233719835Y-79815500D01*
X233894165Y-79815500D01*
X234065145Y-79781490D01*
X234226205Y-79714777D01*
X234371155Y-79617924D01*
X234494424Y-79494655D01*
X234591277Y-79349705D01*
X234657990Y-79188645D01*
X234692000Y-79017665D01*
X234692000Y-78843335D01*
X234700000Y-78843335D01*
X234700000Y-79017665D01*
X234734010Y-79188645D01*
X234800723Y-79349705D01*
X234897576Y-79494655D01*
X235020845Y-79617924D01*
X235165795Y-79714777D01*
X235326855Y-79781490D01*
X235497835Y-79815500D01*
X235672165Y-79815500D01*
X235843145Y-79781490D01*
X236004205Y-79714777D01*
X236149155Y-79617924D01*
X236272424Y-79494655D01*
X236369277Y-79349705D01*
X236435990Y-79188645D01*
X236470000Y-79017665D01*
X236470000Y-78843335D01*
X242955000Y-78843335D01*
X242955000Y-79017665D01*
X242989010Y-79188645D01*
X243055723Y-79349705D01*
X243152576Y-79494655D01*
X243275845Y-79617924D01*
X243420795Y-79714777D01*
X243581855Y-79781490D01*
X243752835Y-79815500D01*
X243927165Y-79815500D01*
X244098145Y-79781490D01*
X244259205Y-79714777D01*
X244404155Y-79617924D01*
X244527424Y-79494655D01*
X244624277Y-79349705D01*
X244690990Y-79188645D01*
X244725000Y-79017665D01*
X244725000Y-78843335D01*
X244690990Y-78672355D01*
X244624277Y-78511295D01*
X244527424Y-78366345D01*
X244404155Y-78243076D01*
X244259205Y-78146223D01*
X244098145Y-78079510D01*
X243927165Y-78045500D01*
X243752835Y-78045500D01*
X243581855Y-78079510D01*
X243420795Y-78146223D01*
X243275845Y-78243076D01*
X243152576Y-78366345D01*
X243055723Y-78511295D01*
X242989010Y-78672355D01*
X242955000Y-78843335D01*
X236470000Y-78843335D01*
X236435990Y-78672355D01*
X236369277Y-78511295D01*
X236272424Y-78366345D01*
X236149155Y-78243076D01*
X236004205Y-78146223D01*
X235843145Y-78079510D01*
X235672165Y-78045500D01*
X235497835Y-78045500D01*
X235326855Y-78079510D01*
X235165795Y-78146223D01*
X235020845Y-78243076D01*
X234897576Y-78366345D01*
X234800723Y-78511295D01*
X234734010Y-78672355D01*
X234700000Y-78843335D01*
X234692000Y-78843335D01*
X234657990Y-78672355D01*
X234591277Y-78511295D01*
X234494424Y-78366345D01*
X234371155Y-78243076D01*
X234226205Y-78146223D01*
X234065145Y-78079510D01*
X233894165Y-78045500D01*
X233719835Y-78045500D01*
X233548855Y-78079510D01*
X233387795Y-78146223D01*
X233242845Y-78243076D01*
X233119576Y-78366345D01*
X233022723Y-78511295D01*
X232956010Y-78672355D01*
X232922000Y-78843335D01*
X180796000Y-78843335D01*
X180796000Y-73068721D01*
X185698000Y-73068721D01*
X185698000Y-73489279D01*
X185780047Y-73901756D01*
X185940988Y-74290302D01*
X186174637Y-74639983D01*
X186472017Y-74937363D01*
X186821698Y-75171012D01*
X187210244Y-75331953D01*
X187622721Y-75414000D01*
X188043279Y-75414000D01*
X188455756Y-75331953D01*
X188844302Y-75171012D01*
X189193983Y-74937363D01*
X189491363Y-74639983D01*
X189725012Y-74290302D01*
X189885953Y-73901756D01*
X189968000Y-73489279D01*
X189968000Y-73068721D01*
X190778000Y-73068721D01*
X190778000Y-73489279D01*
X190860047Y-73901756D01*
X191020988Y-74290302D01*
X191254637Y-74639983D01*
X191552017Y-74937363D01*
X191901698Y-75171012D01*
X192290244Y-75331953D01*
X192702721Y-75414000D01*
X193123279Y-75414000D01*
X193535756Y-75331953D01*
X193924302Y-75171012D01*
X194273983Y-74937363D01*
X194571363Y-74639983D01*
X194805012Y-74290302D01*
X194965953Y-73901756D01*
X195048000Y-73489279D01*
X195048000Y-73068721D01*
X194965953Y-72656244D01*
X194805012Y-72267698D01*
X194571363Y-71918017D01*
X194432346Y-71779000D01*
X195854928Y-71779000D01*
X195854928Y-74779000D01*
X195867188Y-74903482D01*
X195903498Y-75023180D01*
X195962463Y-75133494D01*
X196041815Y-75230185D01*
X196138506Y-75309537D01*
X196248820Y-75368502D01*
X196368518Y-75404812D01*
X196493000Y-75417072D01*
X199493000Y-75417072D01*
X199520790Y-75414335D01*
X226190998Y-75414335D01*
X226190998Y-75588665D01*
X226225008Y-75759645D01*
X226291721Y-75920705D01*
X226388574Y-76065655D01*
X226511843Y-76188924D01*
X226656793Y-76285777D01*
X226817853Y-76352490D01*
X226988833Y-76386500D01*
X227163163Y-76386500D01*
X227334143Y-76352490D01*
X227495203Y-76285777D01*
X227640153Y-76188924D01*
X227763422Y-76065655D01*
X227860275Y-75920705D01*
X227926988Y-75759645D01*
X227960998Y-75588665D01*
X227960998Y-75414335D01*
X227926988Y-75243355D01*
X227860275Y-75082295D01*
X227763422Y-74937345D01*
X227732412Y-74906335D01*
X233049000Y-74906335D01*
X233049000Y-75080665D01*
X233083010Y-75251645D01*
X233149723Y-75412705D01*
X233246576Y-75557655D01*
X233369845Y-75680924D01*
X233514795Y-75777777D01*
X233675855Y-75844490D01*
X233846835Y-75878500D01*
X234021165Y-75878500D01*
X234192145Y-75844490D01*
X234353205Y-75777777D01*
X234498155Y-75680924D01*
X234621424Y-75557655D01*
X234623842Y-75554035D01*
X264379900Y-75554035D01*
X264379900Y-75728365D01*
X264413910Y-75899345D01*
X264480623Y-76060405D01*
X264577476Y-76205355D01*
X264700745Y-76328624D01*
X264845695Y-76425477D01*
X265006755Y-76492190D01*
X265177735Y-76526200D01*
X265352065Y-76526200D01*
X265523045Y-76492190D01*
X265684105Y-76425477D01*
X265829055Y-76328624D01*
X265952324Y-76205355D01*
X266049177Y-76060405D01*
X266115890Y-75899345D01*
X266149900Y-75728365D01*
X266149900Y-75554035D01*
X266115890Y-75383055D01*
X266049177Y-75221995D01*
X265952324Y-75077045D01*
X265829055Y-74953776D01*
X265684105Y-74856923D01*
X265523045Y-74790210D01*
X265352065Y-74756200D01*
X265177735Y-74756200D01*
X265006755Y-74790210D01*
X264845695Y-74856923D01*
X264700745Y-74953776D01*
X264577476Y-75077045D01*
X264480623Y-75221995D01*
X264413910Y-75383055D01*
X264379900Y-75554035D01*
X234623842Y-75554035D01*
X234718277Y-75412705D01*
X234784990Y-75251645D01*
X234819000Y-75080665D01*
X234819000Y-74906335D01*
X234784990Y-74735355D01*
X234718277Y-74574295D01*
X234621424Y-74429345D01*
X234498155Y-74306076D01*
X234353205Y-74209223D01*
X234192145Y-74142510D01*
X234021165Y-74108500D01*
X233846835Y-74108500D01*
X233675855Y-74142510D01*
X233514795Y-74209223D01*
X233369845Y-74306076D01*
X233246576Y-74429345D01*
X233149723Y-74574295D01*
X233083010Y-74735355D01*
X233049000Y-74906335D01*
X227732412Y-74906335D01*
X227640153Y-74814076D01*
X227495203Y-74717223D01*
X227334143Y-74650510D01*
X227163163Y-74616500D01*
X226988833Y-74616500D01*
X226817853Y-74650510D01*
X226656793Y-74717223D01*
X226511843Y-74814076D01*
X226388574Y-74937345D01*
X226291721Y-75082295D01*
X226225008Y-75243355D01*
X226190998Y-75414335D01*
X199520790Y-75414335D01*
X199617482Y-75404812D01*
X199737180Y-75368502D01*
X199847494Y-75309537D01*
X199944185Y-75230185D01*
X200023537Y-75133494D01*
X200082502Y-75023180D01*
X200118812Y-74903482D01*
X200131072Y-74779000D01*
X200131072Y-71779000D01*
X200118812Y-71654518D01*
X200082502Y-71534820D01*
X200023537Y-71424506D01*
X199944185Y-71327815D01*
X199847494Y-71248463D01*
X199737180Y-71189498D01*
X199617482Y-71153188D01*
X199493000Y-71140928D01*
X196493000Y-71140928D01*
X196368518Y-71153188D01*
X196248820Y-71189498D01*
X196138506Y-71248463D01*
X196041815Y-71327815D01*
X195962463Y-71424506D01*
X195903498Y-71534820D01*
X195867188Y-71654518D01*
X195854928Y-71779000D01*
X194432346Y-71779000D01*
X194273983Y-71620637D01*
X193924302Y-71386988D01*
X193535756Y-71226047D01*
X193123279Y-71144000D01*
X192702721Y-71144000D01*
X192290244Y-71226047D01*
X191901698Y-71386988D01*
X191552017Y-71620637D01*
X191254637Y-71918017D01*
X191020988Y-72267698D01*
X190860047Y-72656244D01*
X190778000Y-73068721D01*
X189968000Y-73068721D01*
X189885953Y-72656244D01*
X189725012Y-72267698D01*
X189491363Y-71918017D01*
X189193983Y-71620637D01*
X188844302Y-71386988D01*
X188455756Y-71226047D01*
X188043279Y-71144000D01*
X187622721Y-71144000D01*
X187210244Y-71226047D01*
X186821698Y-71386988D01*
X186472017Y-71620637D01*
X186174637Y-71918017D01*
X185940988Y-72267698D01*
X185780047Y-72656244D01*
X185698000Y-73068721D01*
X180796000Y-73068721D01*
X180796000Y-68639272D01*
X204419400Y-68639272D01*
X204419400Y-69079528D01*
X204505290Y-69511325D01*
X204673769Y-69918069D01*
X204918362Y-70284129D01*
X205229671Y-70595438D01*
X205595731Y-70840031D01*
X206002475Y-71008510D01*
X206434272Y-71094400D01*
X206874528Y-71094400D01*
X207306325Y-71008510D01*
X207713069Y-70840031D01*
X208079129Y-70595438D01*
X208390438Y-70284129D01*
X208635031Y-69918069D01*
X208803510Y-69511325D01*
X208889400Y-69079528D01*
X208889400Y-68639272D01*
X208803510Y-68207475D01*
X208659302Y-67859326D01*
X208978044Y-67991353D01*
X209390521Y-68073400D01*
X209811079Y-68073400D01*
X210223556Y-67991353D01*
X210511638Y-67872026D01*
X210372690Y-68207475D01*
X210286800Y-68639272D01*
X210286800Y-69079528D01*
X210372690Y-69511325D01*
X210541169Y-69918069D01*
X210785762Y-70284129D01*
X211097071Y-70595438D01*
X211463131Y-70840031D01*
X211869875Y-71008510D01*
X212301672Y-71094400D01*
X212741928Y-71094400D01*
X213173725Y-71008510D01*
X213580469Y-70840031D01*
X213946529Y-70595438D01*
X214257838Y-70284129D01*
X214502431Y-69918069D01*
X214670910Y-69511325D01*
X214756800Y-69079528D01*
X214756800Y-68639272D01*
X214670910Y-68207475D01*
X214502431Y-67800731D01*
X214257838Y-67434671D01*
X213946529Y-67123362D01*
X213580469Y-66878769D01*
X213173725Y-66710290D01*
X212741928Y-66624400D01*
X212301672Y-66624400D01*
X211869875Y-66710290D01*
X211534426Y-66849238D01*
X211653753Y-66561156D01*
X211735800Y-66148679D01*
X211735800Y-65728121D01*
X211653753Y-65315644D01*
X211516465Y-64984202D01*
X211895275Y-65141110D01*
X212327072Y-65227000D01*
X212767328Y-65227000D01*
X213199125Y-65141110D01*
X213605869Y-64972631D01*
X213971929Y-64728038D01*
X214283238Y-64416729D01*
X214527831Y-64050669D01*
X214696310Y-63643925D01*
X214782200Y-63212128D01*
X214782200Y-62771872D01*
X214777148Y-62746472D01*
X215951000Y-62746472D01*
X215951000Y-63186728D01*
X216036890Y-63618525D01*
X216205369Y-64025269D01*
X216449962Y-64391329D01*
X216761271Y-64702638D01*
X217127331Y-64947231D01*
X217534075Y-65115710D01*
X217965872Y-65201600D01*
X218406128Y-65201600D01*
X218837925Y-65115710D01*
X219186074Y-64971502D01*
X219054047Y-65290244D01*
X218972000Y-65702721D01*
X218972000Y-66123279D01*
X219054047Y-66535756D01*
X219173374Y-66823838D01*
X218837925Y-66684890D01*
X218406128Y-66599000D01*
X217965872Y-66599000D01*
X217534075Y-66684890D01*
X217127331Y-66853369D01*
X216761271Y-67097962D01*
X216449962Y-67409271D01*
X216205369Y-67775331D01*
X216036890Y-68182075D01*
X215951000Y-68613872D01*
X215951000Y-69054128D01*
X216036890Y-69485925D01*
X216205369Y-69892669D01*
X216449962Y-70258729D01*
X216761271Y-70570038D01*
X217127331Y-70814631D01*
X217534075Y-70983110D01*
X217965872Y-71069000D01*
X218406128Y-71069000D01*
X218837925Y-70983110D01*
X219244669Y-70814631D01*
X219610729Y-70570038D01*
X219922038Y-70258729D01*
X220166631Y-69892669D01*
X220335110Y-69485925D01*
X220421000Y-69054128D01*
X220421000Y-68613872D01*
X220335110Y-68182075D01*
X220196162Y-67846626D01*
X220484244Y-67965953D01*
X220896721Y-68048000D01*
X221317279Y-68048000D01*
X221729756Y-67965953D01*
X222061198Y-67828665D01*
X221904290Y-68207475D01*
X221818400Y-68639272D01*
X221818400Y-69079528D01*
X221904290Y-69511325D01*
X222072769Y-69918069D01*
X222317362Y-70284129D01*
X222628671Y-70595438D01*
X222994731Y-70840031D01*
X223401475Y-71008510D01*
X223833272Y-71094400D01*
X224273528Y-71094400D01*
X224705325Y-71008510D01*
X225112069Y-70840031D01*
X225478129Y-70595438D01*
X225789438Y-70284129D01*
X226034031Y-69918069D01*
X226202510Y-69511325D01*
X226288400Y-69079528D01*
X226288400Y-68639272D01*
X226237078Y-68381255D01*
X226674900Y-68381255D01*
X226674900Y-68727945D01*
X226742536Y-69067973D01*
X226875208Y-69388273D01*
X227067819Y-69676535D01*
X227312965Y-69921681D01*
X227601227Y-70114292D01*
X227921527Y-70246964D01*
X228261555Y-70314600D01*
X228608245Y-70314600D01*
X228948273Y-70246964D01*
X229268573Y-70114292D01*
X229556835Y-69921681D01*
X229801981Y-69676535D01*
X229994592Y-69388273D01*
X230127264Y-69067973D01*
X230194900Y-68727945D01*
X230194900Y-68381255D01*
X231754900Y-68381255D01*
X231754900Y-68727945D01*
X231822536Y-69067973D01*
X231955208Y-69388273D01*
X232147819Y-69676535D01*
X232392965Y-69921681D01*
X232681227Y-70114292D01*
X233001527Y-70246964D01*
X233341555Y-70314600D01*
X233688245Y-70314600D01*
X234028273Y-70246964D01*
X234093285Y-70220035D01*
X259744400Y-70220035D01*
X259744400Y-70394365D01*
X259778410Y-70565345D01*
X259845123Y-70726405D01*
X259941976Y-70871355D01*
X260065245Y-70994624D01*
X260210195Y-71091477D01*
X260371255Y-71158190D01*
X260542235Y-71192200D01*
X260716565Y-71192200D01*
X260887545Y-71158190D01*
X261006216Y-71109035D01*
X270564800Y-71109035D01*
X270564800Y-71283365D01*
X270598810Y-71454345D01*
X270665523Y-71615405D01*
X270762376Y-71760355D01*
X270885645Y-71883624D01*
X271030595Y-71980477D01*
X271191655Y-72047190D01*
X271362635Y-72081200D01*
X271536965Y-72081200D01*
X271707945Y-72047190D01*
X271869005Y-71980477D01*
X272013955Y-71883624D01*
X272137224Y-71760355D01*
X272234077Y-71615405D01*
X272300790Y-71454345D01*
X272334800Y-71283365D01*
X272334800Y-71109035D01*
X272300790Y-70938055D01*
X272234077Y-70776995D01*
X272137224Y-70632045D01*
X272013955Y-70508776D01*
X271869005Y-70411923D01*
X271707945Y-70345210D01*
X271536965Y-70311200D01*
X271362635Y-70311200D01*
X271191655Y-70345210D01*
X271030595Y-70411923D01*
X270885645Y-70508776D01*
X270762376Y-70632045D01*
X270665523Y-70776995D01*
X270598810Y-70938055D01*
X270564800Y-71109035D01*
X261006216Y-71109035D01*
X261048605Y-71091477D01*
X261193555Y-70994624D01*
X261316824Y-70871355D01*
X261413677Y-70726405D01*
X261480390Y-70565345D01*
X261514400Y-70394365D01*
X261514400Y-70220035D01*
X261480390Y-70049055D01*
X261413677Y-69887995D01*
X261316824Y-69743045D01*
X261193555Y-69619776D01*
X261048605Y-69522923D01*
X260887545Y-69456210D01*
X260716565Y-69422200D01*
X260542235Y-69422200D01*
X260371255Y-69456210D01*
X260210195Y-69522923D01*
X260065245Y-69619776D01*
X259941976Y-69743045D01*
X259845123Y-69887995D01*
X259778410Y-70049055D01*
X259744400Y-70220035D01*
X234093285Y-70220035D01*
X234348573Y-70114292D01*
X234636835Y-69921681D01*
X234881981Y-69676535D01*
X235074592Y-69388273D01*
X235140384Y-69229435D01*
X246688800Y-69229435D01*
X246688800Y-69403765D01*
X246722810Y-69574745D01*
X246789523Y-69735805D01*
X246886376Y-69880755D01*
X247009645Y-70004024D01*
X247154595Y-70100877D01*
X247315655Y-70167590D01*
X247486635Y-70201600D01*
X247660965Y-70201600D01*
X247831945Y-70167590D01*
X247993005Y-70100877D01*
X248137955Y-70004024D01*
X248261224Y-69880755D01*
X248358077Y-69735805D01*
X248424790Y-69574745D01*
X248458800Y-69403765D01*
X248458800Y-69229435D01*
X248593800Y-69229435D01*
X248593800Y-69403765D01*
X248627810Y-69574745D01*
X248694523Y-69735805D01*
X248791376Y-69880755D01*
X248914645Y-70004024D01*
X249059595Y-70100877D01*
X249220655Y-70167590D01*
X249391635Y-70201600D01*
X249565965Y-70201600D01*
X249736945Y-70167590D01*
X249898005Y-70100877D01*
X250042955Y-70004024D01*
X250166224Y-69880755D01*
X250263077Y-69735805D01*
X250329790Y-69574745D01*
X250363800Y-69403765D01*
X250363800Y-69229435D01*
X250329790Y-69058455D01*
X250263077Y-68897395D01*
X250166224Y-68752445D01*
X250042955Y-68629176D01*
X249898005Y-68532323D01*
X249736945Y-68465610D01*
X249565965Y-68431600D01*
X249391635Y-68431600D01*
X249220655Y-68465610D01*
X249059595Y-68532323D01*
X248914645Y-68629176D01*
X248791376Y-68752445D01*
X248694523Y-68897395D01*
X248627810Y-69058455D01*
X248593800Y-69229435D01*
X248458800Y-69229435D01*
X248424790Y-69058455D01*
X248358077Y-68897395D01*
X248261224Y-68752445D01*
X248137955Y-68629176D01*
X247993005Y-68532323D01*
X247831945Y-68465610D01*
X247660965Y-68431600D01*
X247486635Y-68431600D01*
X247315655Y-68465610D01*
X247154595Y-68532323D01*
X247009645Y-68629176D01*
X246886376Y-68752445D01*
X246789523Y-68897395D01*
X246722810Y-69058455D01*
X246688800Y-69229435D01*
X235140384Y-69229435D01*
X235207264Y-69067973D01*
X235274900Y-68727945D01*
X235274900Y-68381255D01*
X235207264Y-68041227D01*
X235147083Y-67895935D01*
X240719799Y-67895935D01*
X240719799Y-68070265D01*
X240753809Y-68241245D01*
X240820522Y-68402305D01*
X240917375Y-68547255D01*
X241040644Y-68670524D01*
X241185594Y-68767377D01*
X241346654Y-68834090D01*
X241517634Y-68868100D01*
X241691964Y-68868100D01*
X241862944Y-68834090D01*
X242024004Y-68767377D01*
X242168954Y-68670524D01*
X242292223Y-68547255D01*
X242389076Y-68402305D01*
X242455789Y-68241245D01*
X242489799Y-68070265D01*
X242489799Y-67895935D01*
X242455789Y-67724955D01*
X242389076Y-67563895D01*
X242292223Y-67418945D01*
X242168954Y-67295676D01*
X242024004Y-67198823D01*
X241862944Y-67132110D01*
X241691964Y-67098100D01*
X241517634Y-67098100D01*
X241346654Y-67132110D01*
X241185594Y-67198823D01*
X241040644Y-67295676D01*
X240917375Y-67418945D01*
X240820522Y-67563895D01*
X240753809Y-67724955D01*
X240719799Y-67895935D01*
X235147083Y-67895935D01*
X235074592Y-67720927D01*
X234881981Y-67432665D01*
X234636835Y-67187519D01*
X234348573Y-66994908D01*
X234028273Y-66862236D01*
X233688245Y-66794600D01*
X233341555Y-66794600D01*
X233001527Y-66862236D01*
X232681227Y-66994908D01*
X232392965Y-67187519D01*
X232147819Y-67432665D01*
X231955208Y-67720927D01*
X231822536Y-68041227D01*
X231754900Y-68381255D01*
X230194900Y-68381255D01*
X230127264Y-68041227D01*
X229994592Y-67720927D01*
X229801981Y-67432665D01*
X229556835Y-67187519D01*
X229268573Y-66994908D01*
X228948273Y-66862236D01*
X228608245Y-66794600D01*
X228261555Y-66794600D01*
X227921527Y-66862236D01*
X227601227Y-66994908D01*
X227312965Y-67187519D01*
X227067819Y-67432665D01*
X226875208Y-67720927D01*
X226742536Y-68041227D01*
X226674900Y-68381255D01*
X226237078Y-68381255D01*
X226202510Y-68207475D01*
X226034031Y-67800731D01*
X225789438Y-67434671D01*
X225478129Y-67123362D01*
X225112069Y-66878769D01*
X224705325Y-66710290D01*
X224273528Y-66624400D01*
X223833272Y-66624400D01*
X223401475Y-66710290D01*
X223022665Y-66867198D01*
X223159953Y-66535756D01*
X223242000Y-66123279D01*
X223242000Y-65851104D01*
X229314900Y-65851104D01*
X229314900Y-66178096D01*
X229378693Y-66498804D01*
X229503827Y-66800905D01*
X229685494Y-67072788D01*
X229916712Y-67304006D01*
X230188595Y-67485673D01*
X230490696Y-67610807D01*
X230811404Y-67674600D01*
X231138396Y-67674600D01*
X231459104Y-67610807D01*
X231761205Y-67485673D01*
X232033088Y-67304006D01*
X232264306Y-67072788D01*
X232445973Y-66800905D01*
X232571107Y-66498804D01*
X232608973Y-66308435D01*
X251895800Y-66308435D01*
X251895800Y-66482765D01*
X251929810Y-66653745D01*
X251996523Y-66814805D01*
X252093376Y-66959755D01*
X252216645Y-67083024D01*
X252361595Y-67179877D01*
X252522655Y-67246590D01*
X252693635Y-67280600D01*
X252867965Y-67280600D01*
X253038945Y-67246590D01*
X253200005Y-67179877D01*
X253344955Y-67083024D01*
X253468224Y-66959755D01*
X253565077Y-66814805D01*
X253631790Y-66653745D01*
X253665800Y-66482765D01*
X253665800Y-66308435D01*
X253631790Y-66137455D01*
X253565077Y-65976395D01*
X253468224Y-65831445D01*
X253344955Y-65708176D01*
X253200005Y-65611323D01*
X253038945Y-65544610D01*
X252867965Y-65510600D01*
X252693635Y-65510600D01*
X252522655Y-65544610D01*
X252361595Y-65611323D01*
X252216645Y-65708176D01*
X252093376Y-65831445D01*
X251996523Y-65976395D01*
X251929810Y-66137455D01*
X251895800Y-66308435D01*
X232608973Y-66308435D01*
X232634900Y-66178096D01*
X232634900Y-65851104D01*
X232571107Y-65530396D01*
X232445973Y-65228295D01*
X232264306Y-64956412D01*
X232033088Y-64725194D01*
X231761205Y-64543527D01*
X231459104Y-64418393D01*
X231138396Y-64354600D01*
X230811404Y-64354600D01*
X230490696Y-64418393D01*
X230188595Y-64543527D01*
X229916712Y-64725194D01*
X229685494Y-64956412D01*
X229503827Y-65228295D01*
X229378693Y-65530396D01*
X229314900Y-65851104D01*
X223242000Y-65851104D01*
X223242000Y-65702721D01*
X223159953Y-65290244D01*
X223035365Y-64989462D01*
X223401475Y-65141110D01*
X223833272Y-65227000D01*
X224273528Y-65227000D01*
X224705325Y-65141110D01*
X225112069Y-64972631D01*
X225478129Y-64728038D01*
X225789438Y-64416729D01*
X226034031Y-64050669D01*
X226202510Y-63643925D01*
X226270671Y-63301255D01*
X226674900Y-63301255D01*
X226674900Y-63647945D01*
X226742536Y-63987973D01*
X226875208Y-64308273D01*
X227067819Y-64596535D01*
X227312965Y-64841681D01*
X227601227Y-65034292D01*
X227921527Y-65166964D01*
X228261555Y-65234600D01*
X228608245Y-65234600D01*
X228948273Y-65166964D01*
X229268573Y-65034292D01*
X229556835Y-64841681D01*
X229801981Y-64596535D01*
X229994592Y-64308273D01*
X230127264Y-63987973D01*
X230194900Y-63647945D01*
X230194900Y-63301255D01*
X231754900Y-63301255D01*
X231754900Y-63647945D01*
X231822536Y-63987973D01*
X231955208Y-64308273D01*
X232147819Y-64596535D01*
X232392965Y-64841681D01*
X232681227Y-65034292D01*
X233001527Y-65166964D01*
X233341555Y-65234600D01*
X233688245Y-65234600D01*
X234028273Y-65166964D01*
X234348573Y-65034292D01*
X234636835Y-64841681D01*
X234881981Y-64596535D01*
X235074592Y-64308273D01*
X235207264Y-63987973D01*
X235274900Y-63647945D01*
X235274900Y-63514435D01*
X251895800Y-63514435D01*
X251895800Y-63688765D01*
X251929810Y-63859745D01*
X251996523Y-64020805D01*
X252093376Y-64165755D01*
X252216645Y-64289024D01*
X252361595Y-64385877D01*
X252522655Y-64452590D01*
X252693635Y-64486600D01*
X252867965Y-64486600D01*
X253038945Y-64452590D01*
X253200005Y-64385877D01*
X253344955Y-64289024D01*
X253468224Y-64165755D01*
X253565077Y-64020805D01*
X253578789Y-63987701D01*
X270519000Y-63987701D01*
X270519000Y-64536299D01*
X270626026Y-65074354D01*
X270835965Y-65581192D01*
X271140750Y-66037334D01*
X271528666Y-66425250D01*
X271984808Y-66730035D01*
X272491646Y-66939974D01*
X273029701Y-67047000D01*
X273578299Y-67047000D01*
X274116354Y-66939974D01*
X274623192Y-66730035D01*
X275079334Y-66425250D01*
X275467250Y-66037334D01*
X275772035Y-65581192D01*
X275981974Y-65074354D01*
X276089000Y-64536299D01*
X276089000Y-63987701D01*
X275981974Y-63449646D01*
X275772035Y-62942808D01*
X275467250Y-62486666D01*
X275079334Y-62098750D01*
X274623192Y-61793965D01*
X274116354Y-61584026D01*
X273578299Y-61477000D01*
X273029701Y-61477000D01*
X272491646Y-61584026D01*
X271984808Y-61793965D01*
X271528666Y-62098750D01*
X271140750Y-62486666D01*
X270835965Y-62942808D01*
X270626026Y-63449646D01*
X270519000Y-63987701D01*
X253578789Y-63987701D01*
X253631790Y-63859745D01*
X253665800Y-63688765D01*
X253665800Y-63514435D01*
X253631790Y-63343455D01*
X253565077Y-63182395D01*
X253468224Y-63037445D01*
X253344955Y-62914176D01*
X253200005Y-62817323D01*
X253038945Y-62750610D01*
X252867965Y-62716600D01*
X252693635Y-62716600D01*
X252522655Y-62750610D01*
X252361595Y-62817323D01*
X252216645Y-62914176D01*
X252093376Y-63037445D01*
X251996523Y-63182395D01*
X251929810Y-63343455D01*
X251895800Y-63514435D01*
X235274900Y-63514435D01*
X235274900Y-63301255D01*
X235207264Y-62961227D01*
X235074592Y-62640927D01*
X234881981Y-62352665D01*
X234636835Y-62107519D01*
X234348573Y-61914908D01*
X234028273Y-61782236D01*
X233688245Y-61714600D01*
X233341555Y-61714600D01*
X233001527Y-61782236D01*
X232681227Y-61914908D01*
X232392965Y-62107519D01*
X232147819Y-62352665D01*
X231955208Y-62640927D01*
X231822536Y-62961227D01*
X231754900Y-63301255D01*
X230194900Y-63301255D01*
X230127264Y-62961227D01*
X229994592Y-62640927D01*
X229801981Y-62352665D01*
X229556835Y-62107519D01*
X229268573Y-61914908D01*
X228948273Y-61782236D01*
X228608245Y-61714600D01*
X228261555Y-61714600D01*
X227921527Y-61782236D01*
X227601227Y-61914908D01*
X227312965Y-62107519D01*
X227067819Y-62352665D01*
X226875208Y-62640927D01*
X226742536Y-62961227D01*
X226674900Y-63301255D01*
X226270671Y-63301255D01*
X226288400Y-63212128D01*
X226288400Y-62771872D01*
X226202510Y-62340075D01*
X226034031Y-61933331D01*
X225789438Y-61567271D01*
X225478129Y-61255962D01*
X225112069Y-61011369D01*
X224705325Y-60842890D01*
X224273528Y-60757000D01*
X223833272Y-60757000D01*
X223401475Y-60842890D01*
X222994731Y-61011369D01*
X222628671Y-61255962D01*
X222317362Y-61567271D01*
X222072769Y-61933331D01*
X221904290Y-62340075D01*
X221818400Y-62771872D01*
X221818400Y-63212128D01*
X221904290Y-63643925D01*
X222048498Y-63992074D01*
X221729756Y-63860047D01*
X221317279Y-63778000D01*
X220896721Y-63778000D01*
X220484244Y-63860047D01*
X220183462Y-63984635D01*
X220335110Y-63618525D01*
X220421000Y-63186728D01*
X220421000Y-62746472D01*
X220335110Y-62314675D01*
X220166631Y-61907931D01*
X219922038Y-61541871D01*
X219610729Y-61230562D01*
X219244669Y-60985969D01*
X218837925Y-60817490D01*
X218406128Y-60731600D01*
X217965872Y-60731600D01*
X217534075Y-60817490D01*
X217127331Y-60985969D01*
X216761271Y-61230562D01*
X216449962Y-61541871D01*
X216205369Y-61907931D01*
X216036890Y-62314675D01*
X215951000Y-62746472D01*
X214777148Y-62746472D01*
X214696310Y-62340075D01*
X214527831Y-61933331D01*
X214283238Y-61567271D01*
X213971929Y-61255962D01*
X213605869Y-61011369D01*
X213199125Y-60842890D01*
X212767328Y-60757000D01*
X212327072Y-60757000D01*
X211895275Y-60842890D01*
X211488531Y-61011369D01*
X211122471Y-61255962D01*
X210811162Y-61567271D01*
X210566569Y-61933331D01*
X210398090Y-62340075D01*
X210312200Y-62771872D01*
X210312200Y-63212128D01*
X210398090Y-63643925D01*
X210554998Y-64022735D01*
X210223556Y-63885447D01*
X209811079Y-63803400D01*
X209390521Y-63803400D01*
X208978044Y-63885447D01*
X208677262Y-64010035D01*
X208828910Y-63643925D01*
X208914800Y-63212128D01*
X208914800Y-62771872D01*
X208828910Y-62340075D01*
X208660431Y-61933331D01*
X208415838Y-61567271D01*
X208104529Y-61255962D01*
X207738469Y-61011369D01*
X207331725Y-60842890D01*
X206899928Y-60757000D01*
X206459672Y-60757000D01*
X206027875Y-60842890D01*
X205621131Y-61011369D01*
X205255071Y-61255962D01*
X204943762Y-61567271D01*
X204699169Y-61933331D01*
X204530690Y-62340075D01*
X204444800Y-62771872D01*
X204444800Y-63212128D01*
X204530690Y-63643925D01*
X204699169Y-64050669D01*
X204943762Y-64416729D01*
X205255071Y-64728038D01*
X205621131Y-64972631D01*
X206027875Y-65141110D01*
X206459672Y-65227000D01*
X206899928Y-65227000D01*
X207331725Y-65141110D01*
X207679874Y-64996902D01*
X207547847Y-65315644D01*
X207465800Y-65728121D01*
X207465800Y-66148679D01*
X207547847Y-66561156D01*
X207672435Y-66861938D01*
X207306325Y-66710290D01*
X206874528Y-66624400D01*
X206434272Y-66624400D01*
X206002475Y-66710290D01*
X205595731Y-66878769D01*
X205229671Y-67123362D01*
X204918362Y-67434671D01*
X204673769Y-67800731D01*
X204505290Y-68207475D01*
X204419400Y-68639272D01*
X180796000Y-68639272D01*
X180796000Y-66642212D01*
X195718000Y-66642212D01*
X195718000Y-66865788D01*
X195761617Y-67085067D01*
X195847176Y-67291624D01*
X195971388Y-67477520D01*
X196129480Y-67635612D01*
X196315376Y-67759824D01*
X196521933Y-67845383D01*
X196741212Y-67889000D01*
X196964788Y-67889000D01*
X197184067Y-67845383D01*
X197390624Y-67759824D01*
X197576520Y-67635612D01*
X197734612Y-67477520D01*
X197858824Y-67291624D01*
X197944383Y-67085067D01*
X197988000Y-66865788D01*
X197988000Y-66642212D01*
X197944383Y-66422933D01*
X197858824Y-66216376D01*
X197734612Y-66030480D01*
X197576520Y-65872388D01*
X197390624Y-65748176D01*
X197184067Y-65662617D01*
X196964788Y-65619000D01*
X196741212Y-65619000D01*
X196521933Y-65662617D01*
X196315376Y-65748176D01*
X196129480Y-65872388D01*
X195971388Y-66030480D01*
X195847176Y-66216376D01*
X195761617Y-66422933D01*
X195718000Y-66642212D01*
X180796000Y-66642212D01*
X180796000Y-62082701D01*
X181746000Y-62082701D01*
X181746000Y-62631299D01*
X181853026Y-63169354D01*
X182062965Y-63676192D01*
X182367750Y-64132334D01*
X182755666Y-64520250D01*
X183211808Y-64825035D01*
X183718646Y-65034974D01*
X184256701Y-65142000D01*
X184805299Y-65142000D01*
X185343354Y-65034974D01*
X185850192Y-64825035D01*
X186306334Y-64520250D01*
X186694250Y-64132334D01*
X186999035Y-63676192D01*
X187173912Y-63254000D01*
X191524928Y-63254000D01*
X191524928Y-64254000D01*
X191541992Y-64427254D01*
X191592528Y-64593850D01*
X191674595Y-64747386D01*
X191785038Y-64881962D01*
X191919614Y-64992405D01*
X192073150Y-65074472D01*
X192239746Y-65125008D01*
X192413000Y-65142072D01*
X193413000Y-65142072D01*
X193586254Y-65125008D01*
X193752850Y-65074472D01*
X193906386Y-64992405D01*
X194040962Y-64881962D01*
X194151405Y-64747386D01*
X194233472Y-64593850D01*
X194284008Y-64427254D01*
X194301072Y-64254000D01*
X194301072Y-63617589D01*
X194528000Y-63617589D01*
X194528000Y-63890411D01*
X194581225Y-64157989D01*
X194685629Y-64410043D01*
X194837201Y-64636886D01*
X195030114Y-64829799D01*
X195256957Y-64981371D01*
X195509011Y-65085775D01*
X195776589Y-65139000D01*
X196049411Y-65139000D01*
X196316989Y-65085775D01*
X196569043Y-64981371D01*
X196795886Y-64829799D01*
X196988799Y-64636886D01*
X197140371Y-64410043D01*
X197244775Y-64157989D01*
X197298000Y-63890411D01*
X197298000Y-63617589D01*
X197244775Y-63350011D01*
X197140371Y-63097957D01*
X196988799Y-62871114D01*
X196795886Y-62678201D01*
X196569043Y-62526629D01*
X196316989Y-62422225D01*
X196049411Y-62369000D01*
X195776589Y-62369000D01*
X195509011Y-62422225D01*
X195256957Y-62526629D01*
X195030114Y-62678201D01*
X194837201Y-62871114D01*
X194685629Y-63097957D01*
X194581225Y-63350011D01*
X194528000Y-63617589D01*
X194301072Y-63617589D01*
X194301072Y-63254000D01*
X194284008Y-63080746D01*
X194233472Y-62914150D01*
X194151405Y-62760614D01*
X194040962Y-62626038D01*
X193906386Y-62515595D01*
X193752850Y-62433528D01*
X193586254Y-62382992D01*
X193413000Y-62365928D01*
X192413000Y-62365928D01*
X192239746Y-62382992D01*
X192073150Y-62433528D01*
X191919614Y-62515595D01*
X191785038Y-62626038D01*
X191674595Y-62760614D01*
X191592528Y-62914150D01*
X191541992Y-63080746D01*
X191524928Y-63254000D01*
X187173912Y-63254000D01*
X187208974Y-63169354D01*
X187316000Y-62631299D01*
X187316000Y-62082701D01*
X187208974Y-61544646D01*
X186999035Y-61037808D01*
X186734706Y-60642212D01*
X195718000Y-60642212D01*
X195718000Y-60865788D01*
X195761617Y-61085067D01*
X195847176Y-61291624D01*
X195971388Y-61477520D01*
X196129480Y-61635612D01*
X196315376Y-61759824D01*
X196521933Y-61845383D01*
X196741212Y-61889000D01*
X196964788Y-61889000D01*
X197184067Y-61845383D01*
X197390624Y-61759824D01*
X197576520Y-61635612D01*
X197734612Y-61477520D01*
X197858824Y-61291624D01*
X197944383Y-61085067D01*
X197988000Y-60865788D01*
X197988000Y-60642212D01*
X197944383Y-60422933D01*
X197858824Y-60216376D01*
X197734612Y-60030480D01*
X197576520Y-59872388D01*
X197390624Y-59748176D01*
X197184067Y-59662617D01*
X196964788Y-59619000D01*
X196741212Y-59619000D01*
X196521933Y-59662617D01*
X196315376Y-59748176D01*
X196129480Y-59872388D01*
X195971388Y-60030480D01*
X195847176Y-60216376D01*
X195761617Y-60422933D01*
X195718000Y-60642212D01*
X186734706Y-60642212D01*
X186694250Y-60581666D01*
X186306334Y-60193750D01*
X185850192Y-59888965D01*
X185343354Y-59679026D01*
X184805299Y-59572000D01*
X184256701Y-59572000D01*
X183718646Y-59679026D01*
X183211808Y-59888965D01*
X182755666Y-60193750D01*
X182367750Y-60581666D01*
X182062965Y-61037808D01*
X181853026Y-61544646D01*
X181746000Y-62082701D01*
X180796000Y-62082701D01*
X180796000Y-58749000D01*
X279706000Y-58749000D01*
X279706001Y-157659000D01*
X279706001Y-157659000D01*
G37*
X279706001Y-157659000D02*
X180796000Y-157659000D01*
X180796000Y-153141701D01*
X182127000Y-153141701D01*
X182127000Y-153690299D01*
X182234026Y-154228354D01*
X182443965Y-154735192D01*
X182748750Y-155191334D01*
X183136666Y-155579250D01*
X183592808Y-155884035D01*
X184099646Y-156093974D01*
X184637701Y-156201000D01*
X185186299Y-156201000D01*
X185724354Y-156093974D01*
X186136610Y-155923212D01*
X195718000Y-155923212D01*
X195718000Y-156146788D01*
X195761617Y-156366067D01*
X195847176Y-156572624D01*
X195971388Y-156758520D01*
X196129480Y-156916612D01*
X196315376Y-157040824D01*
X196521933Y-157126383D01*
X196741212Y-157170000D01*
X196964788Y-157170000D01*
X197184067Y-157126383D01*
X197390624Y-157040824D01*
X197576520Y-156916612D01*
X197734612Y-156758520D01*
X197858824Y-156572624D01*
X197944383Y-156366067D01*
X197988000Y-156146788D01*
X197988000Y-155923212D01*
X197944383Y-155703933D01*
X197858824Y-155497376D01*
X197734612Y-155311480D01*
X197576520Y-155153388D01*
X197390624Y-155029176D01*
X197184067Y-154943617D01*
X196964788Y-154900000D01*
X196741212Y-154900000D01*
X196521933Y-154943617D01*
X196315376Y-155029176D01*
X196129480Y-155153388D01*
X195971388Y-155311480D01*
X195847176Y-155497376D01*
X195761617Y-155703933D01*
X195718000Y-155923212D01*
X186136610Y-155923212D01*
X186231192Y-155884035D01*
X186687334Y-155579250D01*
X187075250Y-155191334D01*
X187380035Y-154735192D01*
X187465288Y-154529372D01*
X202971600Y-154529372D01*
X202971600Y-154969628D01*
X203057490Y-155401425D01*
X203225969Y-155808169D01*
X203470562Y-156174229D01*
X203781871Y-156485538D01*
X204147931Y-156730131D01*
X204554675Y-156898610D01*
X204986472Y-156984500D01*
X205426728Y-156984500D01*
X205858525Y-156898610D01*
X206265269Y-156730131D01*
X206631329Y-156485538D01*
X206942638Y-156174229D01*
X207187231Y-155808169D01*
X207355710Y-155401425D01*
X207441600Y-154969628D01*
X207441600Y-154529372D01*
X207355710Y-154097575D01*
X207211502Y-153749426D01*
X207530244Y-153881453D01*
X207942721Y-153963500D01*
X208363279Y-153963500D01*
X208775756Y-153881453D01*
X209063838Y-153762126D01*
X208924890Y-154097575D01*
X208839000Y-154529372D01*
X208839000Y-154969628D01*
X208924890Y-155401425D01*
X209093369Y-155808169D01*
X209337962Y-156174229D01*
X209649271Y-156485538D01*
X210015331Y-156730131D01*
X210422075Y-156898610D01*
X210853872Y-156984500D01*
X211294128Y-156984500D01*
X211725925Y-156898610D01*
X212132669Y-156730131D01*
X212498729Y-156485538D01*
X212810038Y-156174229D01*
X213054631Y-155808169D01*
X213223110Y-155401425D01*
X213309000Y-154969628D01*
X213309000Y-154529372D01*
X213223110Y-154097575D01*
X213054631Y-153690831D01*
X212810038Y-153324771D01*
X212498729Y-153013462D01*
X212132669Y-152768869D01*
X211725925Y-152600390D01*
X211294128Y-152514500D01*
X210853872Y-152514500D01*
X210422075Y-152600390D01*
X210086626Y-152739338D01*
X210205953Y-152451256D01*
X210288000Y-152038779D01*
X210288000Y-151618221D01*
X210205953Y-151205744D01*
X210068665Y-150874302D01*
X210447475Y-151031210D01*
X210879272Y-151117100D01*
X211319528Y-151117100D01*
X211751325Y-151031210D01*
X212158069Y-150862731D01*
X212524129Y-150618138D01*
X212835438Y-150306829D01*
X213080031Y-149940769D01*
X213248510Y-149534025D01*
X213334400Y-149102228D01*
X213334400Y-148661972D01*
X213326822Y-148623872D01*
X215316000Y-148623872D01*
X215316000Y-149064128D01*
X215401890Y-149495925D01*
X215570369Y-149902669D01*
X215814962Y-150268729D01*
X216126271Y-150580038D01*
X216492331Y-150824631D01*
X216899075Y-150993110D01*
X217330872Y-151079000D01*
X217771128Y-151079000D01*
X218202925Y-150993110D01*
X218551074Y-150848902D01*
X218419047Y-151167644D01*
X218337000Y-151580121D01*
X218337000Y-152000679D01*
X218419047Y-152413156D01*
X218538374Y-152701238D01*
X218202925Y-152562290D01*
X217771128Y-152476400D01*
X217330872Y-152476400D01*
X216899075Y-152562290D01*
X216492331Y-152730769D01*
X216126271Y-152975362D01*
X215814962Y-153286671D01*
X215570369Y-153652731D01*
X215401890Y-154059475D01*
X215316000Y-154491272D01*
X215316000Y-154931528D01*
X215401890Y-155363325D01*
X215570369Y-155770069D01*
X215814962Y-156136129D01*
X216126271Y-156447438D01*
X216492331Y-156692031D01*
X216899075Y-156860510D01*
X217330872Y-156946400D01*
X217771128Y-156946400D01*
X218202925Y-156860510D01*
X218609669Y-156692031D01*
X218975729Y-156447438D01*
X219287038Y-156136129D01*
X219531631Y-155770069D01*
X219700110Y-155363325D01*
X219786000Y-154931528D01*
X219786000Y-154491272D01*
X219700110Y-154059475D01*
X219561162Y-153724026D01*
X219849244Y-153843353D01*
X220261721Y-153925400D01*
X220682279Y-153925400D01*
X221094756Y-153843353D01*
X221426198Y-153706065D01*
X221269290Y-154084875D01*
X221183400Y-154516672D01*
X221183400Y-154956928D01*
X221269290Y-155388725D01*
X221437769Y-155795469D01*
X221682362Y-156161529D01*
X221993671Y-156472838D01*
X222359731Y-156717431D01*
X222766475Y-156885910D01*
X223198272Y-156971800D01*
X223638528Y-156971800D01*
X224070325Y-156885910D01*
X224477069Y-156717431D01*
X224843129Y-156472838D01*
X225154438Y-156161529D01*
X225399031Y-155795469D01*
X225567510Y-155388725D01*
X225653400Y-154956928D01*
X225653400Y-154516672D01*
X225579342Y-154144355D01*
X227640100Y-154144355D01*
X227640100Y-154491045D01*
X227707736Y-154831073D01*
X227840408Y-155151373D01*
X228033019Y-155439635D01*
X228278165Y-155684781D01*
X228566427Y-155877392D01*
X228886727Y-156010064D01*
X229226755Y-156077700D01*
X229573445Y-156077700D01*
X229913473Y-156010064D01*
X230233773Y-155877392D01*
X230522035Y-155684781D01*
X230767181Y-155439635D01*
X230959792Y-155151373D01*
X231092464Y-154831073D01*
X231160100Y-154491045D01*
X231160100Y-154144355D01*
X232720100Y-154144355D01*
X232720100Y-154491045D01*
X232787736Y-154831073D01*
X232920408Y-155151373D01*
X233113019Y-155439635D01*
X233358165Y-155684781D01*
X233646427Y-155877392D01*
X233966727Y-156010064D01*
X234306755Y-156077700D01*
X234653445Y-156077700D01*
X234993473Y-156010064D01*
X235313773Y-155877392D01*
X235602035Y-155684781D01*
X235847181Y-155439635D01*
X236039792Y-155151373D01*
X236172464Y-154831073D01*
X236240100Y-154491045D01*
X236240100Y-154157055D01*
X251960600Y-154157055D01*
X251960600Y-154503745D01*
X252028236Y-154843773D01*
X252160908Y-155164073D01*
X252353519Y-155452335D01*
X252598665Y-155697481D01*
X252886927Y-155890092D01*
X253207227Y-156022764D01*
X253547255Y-156090400D01*
X253893945Y-156090400D01*
X254233973Y-156022764D01*
X254554273Y-155890092D01*
X254842535Y-155697481D01*
X255087681Y-155452335D01*
X255280292Y-155164073D01*
X255412964Y-154843773D01*
X255480600Y-154503745D01*
X255480600Y-154157055D01*
X257040600Y-154157055D01*
X257040600Y-154503745D01*
X257108236Y-154843773D01*
X257240908Y-155164073D01*
X257433519Y-155452335D01*
X257678665Y-155697481D01*
X257966927Y-155890092D01*
X258287227Y-156022764D01*
X258627255Y-156090400D01*
X258973945Y-156090400D01*
X259313973Y-156022764D01*
X259634273Y-155890092D01*
X259922535Y-155697481D01*
X260167681Y-155452335D01*
X260360292Y-155164073D01*
X260492964Y-154843773D01*
X260560600Y-154503745D01*
X260560600Y-154157055D01*
X260492964Y-153817027D01*
X260360292Y-153496727D01*
X260167681Y-153208465D01*
X259922535Y-152963319D01*
X259634273Y-152770708D01*
X259313973Y-152638036D01*
X259292180Y-152633701D01*
X270773000Y-152633701D01*
X270773000Y-153182299D01*
X270880026Y-153720354D01*
X271089965Y-154227192D01*
X271394750Y-154683334D01*
X271782666Y-155071250D01*
X272238808Y-155376035D01*
X272745646Y-155585974D01*
X273283701Y-155693000D01*
X273832299Y-155693000D01*
X274370354Y-155585974D01*
X274877192Y-155376035D01*
X275333334Y-155071250D01*
X275721250Y-154683334D01*
X276026035Y-154227192D01*
X276235974Y-153720354D01*
X276343000Y-153182299D01*
X276343000Y-152633701D01*
X276235974Y-152095646D01*
X276026035Y-151588808D01*
X275721250Y-151132666D01*
X275333334Y-150744750D01*
X274877192Y-150439965D01*
X274370354Y-150230026D01*
X273832299Y-150123000D01*
X273283701Y-150123000D01*
X272745646Y-150230026D01*
X272238808Y-150439965D01*
X271782666Y-150744750D01*
X271394750Y-151132666D01*
X271089965Y-151588808D01*
X270880026Y-152095646D01*
X270773000Y-152633701D01*
X259292180Y-152633701D01*
X258973945Y-152570400D01*
X258627255Y-152570400D01*
X258287227Y-152638036D01*
X257966927Y-152770708D01*
X257678665Y-152963319D01*
X257433519Y-153208465D01*
X257240908Y-153496727D01*
X257108236Y-153817027D01*
X257040600Y-154157055D01*
X255480600Y-154157055D01*
X255412964Y-153817027D01*
X255280292Y-153496727D01*
X255087681Y-153208465D01*
X254842535Y-152963319D01*
X254554273Y-152770708D01*
X254233973Y-152638036D01*
X253893945Y-152570400D01*
X253547255Y-152570400D01*
X253207227Y-152638036D01*
X252886927Y-152770708D01*
X252598665Y-152963319D01*
X252353519Y-153208465D01*
X252160908Y-153496727D01*
X252028236Y-153817027D01*
X251960600Y-154157055D01*
X236240100Y-154157055D01*
X236240100Y-154144355D01*
X236172464Y-153804327D01*
X236039792Y-153484027D01*
X235847181Y-153195765D01*
X235602035Y-152950619D01*
X235313773Y-152758008D01*
X234993473Y-152625336D01*
X234653445Y-152557700D01*
X234306755Y-152557700D01*
X233966727Y-152625336D01*
X233646427Y-152758008D01*
X233358165Y-152950619D01*
X233113019Y-153195765D01*
X232920408Y-153484027D01*
X232787736Y-153804327D01*
X232720100Y-154144355D01*
X231160100Y-154144355D01*
X231092464Y-153804327D01*
X230959792Y-153484027D01*
X230767181Y-153195765D01*
X230522035Y-152950619D01*
X230233773Y-152758008D01*
X229913473Y-152625336D01*
X229573445Y-152557700D01*
X229226755Y-152557700D01*
X228886727Y-152625336D01*
X228566427Y-152758008D01*
X228278165Y-152950619D01*
X228033019Y-153195765D01*
X227840408Y-153484027D01*
X227707736Y-153804327D01*
X227640100Y-154144355D01*
X225579342Y-154144355D01*
X225567510Y-154084875D01*
X225399031Y-153678131D01*
X225154438Y-153312071D01*
X224843129Y-153000762D01*
X224477069Y-152756169D01*
X224070325Y-152587690D01*
X223638528Y-152501800D01*
X223198272Y-152501800D01*
X222766475Y-152587690D01*
X222387665Y-152744598D01*
X222524953Y-152413156D01*
X222607000Y-152000679D01*
X222607000Y-151614204D01*
X230280100Y-151614204D01*
X230280100Y-151941196D01*
X230343893Y-152261904D01*
X230469027Y-152564005D01*
X230650694Y-152835888D01*
X230881912Y-153067106D01*
X231153795Y-153248773D01*
X231455896Y-153373907D01*
X231776604Y-153437700D01*
X232103596Y-153437700D01*
X232424304Y-153373907D01*
X232726405Y-153248773D01*
X232998288Y-153067106D01*
X233229506Y-152835888D01*
X233411173Y-152564005D01*
X233536307Y-152261904D01*
X233546385Y-152211235D01*
X240440400Y-152211235D01*
X240440400Y-152385565D01*
X240474410Y-152556545D01*
X240541123Y-152717605D01*
X240637976Y-152862555D01*
X240761245Y-152985824D01*
X240906195Y-153082677D01*
X241067255Y-153149390D01*
X241238235Y-153183400D01*
X241412565Y-153183400D01*
X241583545Y-153149390D01*
X241744605Y-153082677D01*
X241889555Y-152985824D01*
X242012824Y-152862555D01*
X242109677Y-152717605D01*
X242176390Y-152556545D01*
X242210400Y-152385565D01*
X242210400Y-152211235D01*
X242176390Y-152040255D01*
X242109677Y-151879195D01*
X242012824Y-151734245D01*
X241905483Y-151626904D01*
X254600600Y-151626904D01*
X254600600Y-151953896D01*
X254664393Y-152274604D01*
X254789527Y-152576705D01*
X254971194Y-152848588D01*
X255202412Y-153079806D01*
X255474295Y-153261473D01*
X255776396Y-153386607D01*
X256097104Y-153450400D01*
X256424096Y-153450400D01*
X256744804Y-153386607D01*
X257046905Y-153261473D01*
X257318788Y-153079806D01*
X257550006Y-152848588D01*
X257731673Y-152576705D01*
X257856807Y-152274604D01*
X257920600Y-151953896D01*
X257920600Y-151626904D01*
X257856807Y-151306196D01*
X257731673Y-151004095D01*
X257550006Y-150732212D01*
X257318788Y-150500994D01*
X257046905Y-150319327D01*
X256744804Y-150194193D01*
X256424096Y-150130400D01*
X256097104Y-150130400D01*
X255776396Y-150194193D01*
X255474295Y-150319327D01*
X255202412Y-150500994D01*
X254971194Y-150732212D01*
X254789527Y-151004095D01*
X254664393Y-151306196D01*
X254600600Y-151626904D01*
X241905483Y-151626904D01*
X241889555Y-151610976D01*
X241744605Y-151514123D01*
X241583545Y-151447410D01*
X241412565Y-151413400D01*
X241238235Y-151413400D01*
X241067255Y-151447410D01*
X240906195Y-151514123D01*
X240761245Y-151610976D01*
X240637976Y-151734245D01*
X240541123Y-151879195D01*
X240474410Y-152040255D01*
X240440400Y-152211235D01*
X233546385Y-152211235D01*
X233600100Y-151941196D01*
X233600100Y-151614204D01*
X233536307Y-151293496D01*
X233411173Y-150991395D01*
X233229506Y-150719512D01*
X232998288Y-150488294D01*
X232726405Y-150306627D01*
X232424304Y-150181493D01*
X232103596Y-150117700D01*
X231776604Y-150117700D01*
X231455896Y-150181493D01*
X231153795Y-150306627D01*
X230881912Y-150488294D01*
X230650694Y-150719512D01*
X230469027Y-150991395D01*
X230343893Y-151293496D01*
X230280100Y-151614204D01*
X222607000Y-151614204D01*
X222607000Y-151580121D01*
X222524953Y-151167644D01*
X222400365Y-150866862D01*
X222766475Y-151018510D01*
X223198272Y-151104400D01*
X223638528Y-151104400D01*
X224070325Y-151018510D01*
X224477069Y-150850031D01*
X224843129Y-150605438D01*
X225154438Y-150294129D01*
X225399031Y-149928069D01*
X225567510Y-149521325D01*
X225653400Y-149089528D01*
X225653400Y-149064355D01*
X227640100Y-149064355D01*
X227640100Y-149411045D01*
X227707736Y-149751073D01*
X227840408Y-150071373D01*
X228033019Y-150359635D01*
X228278165Y-150604781D01*
X228566427Y-150797392D01*
X228886727Y-150930064D01*
X229226755Y-150997700D01*
X229573445Y-150997700D01*
X229913473Y-150930064D01*
X230233773Y-150797392D01*
X230522035Y-150604781D01*
X230767181Y-150359635D01*
X230959792Y-150071373D01*
X231092464Y-149751073D01*
X231160100Y-149411045D01*
X231160100Y-149064355D01*
X232720100Y-149064355D01*
X232720100Y-149411045D01*
X232787736Y-149751073D01*
X232920408Y-150071373D01*
X233113019Y-150359635D01*
X233358165Y-150604781D01*
X233646427Y-150797392D01*
X233966727Y-150930064D01*
X234306755Y-150997700D01*
X234653445Y-150997700D01*
X234993473Y-150930064D01*
X235313773Y-150797392D01*
X235602035Y-150604781D01*
X235847181Y-150359635D01*
X236039792Y-150071373D01*
X236172464Y-149751073D01*
X236240100Y-149411045D01*
X236240100Y-149077055D01*
X251960600Y-149077055D01*
X251960600Y-149423745D01*
X252028236Y-149763773D01*
X252160908Y-150084073D01*
X252353519Y-150372335D01*
X252598665Y-150617481D01*
X252886927Y-150810092D01*
X253207227Y-150942764D01*
X253547255Y-151010400D01*
X253893945Y-151010400D01*
X254233973Y-150942764D01*
X254554273Y-150810092D01*
X254842535Y-150617481D01*
X255087681Y-150372335D01*
X255280292Y-150084073D01*
X255412964Y-149763773D01*
X255480600Y-149423745D01*
X255480600Y-149077055D01*
X257040600Y-149077055D01*
X257040600Y-149423745D01*
X257108236Y-149763773D01*
X257240908Y-150084073D01*
X257433519Y-150372335D01*
X257678665Y-150617481D01*
X257966927Y-150810092D01*
X258287227Y-150942764D01*
X258627255Y-151010400D01*
X258973945Y-151010400D01*
X259313973Y-150942764D01*
X259634273Y-150810092D01*
X259922535Y-150617481D01*
X260167681Y-150372335D01*
X260360292Y-150084073D01*
X260492964Y-149763773D01*
X260560600Y-149423745D01*
X260560600Y-149077055D01*
X260492964Y-148737027D01*
X260360292Y-148416727D01*
X260167681Y-148128465D01*
X259922535Y-147883319D01*
X259634273Y-147690708D01*
X259313973Y-147558036D01*
X258973945Y-147490400D01*
X258627255Y-147490400D01*
X258287227Y-147558036D01*
X257966927Y-147690708D01*
X257678665Y-147883319D01*
X257433519Y-148128465D01*
X257240908Y-148416727D01*
X257108236Y-148737027D01*
X257040600Y-149077055D01*
X255480600Y-149077055D01*
X255412964Y-148737027D01*
X255280292Y-148416727D01*
X255087681Y-148128465D01*
X254842535Y-147883319D01*
X254554273Y-147690708D01*
X254233973Y-147558036D01*
X253893945Y-147490400D01*
X253547255Y-147490400D01*
X253207227Y-147558036D01*
X252886927Y-147690708D01*
X252598665Y-147883319D01*
X252353519Y-148128465D01*
X252160908Y-148416727D01*
X252028236Y-148737027D01*
X251960600Y-149077055D01*
X236240100Y-149077055D01*
X236240100Y-149064355D01*
X236172464Y-148724327D01*
X236039792Y-148404027D01*
X235847181Y-148115765D01*
X235602035Y-147870619D01*
X235313773Y-147678008D01*
X234993473Y-147545336D01*
X234653445Y-147477700D01*
X234306755Y-147477700D01*
X233966727Y-147545336D01*
X233646427Y-147678008D01*
X233358165Y-147870619D01*
X233113019Y-148115765D01*
X232920408Y-148404027D01*
X232787736Y-148724327D01*
X232720100Y-149064355D01*
X231160100Y-149064355D01*
X231092464Y-148724327D01*
X230959792Y-148404027D01*
X230767181Y-148115765D01*
X230522035Y-147870619D01*
X230233773Y-147678008D01*
X229913473Y-147545336D01*
X229573445Y-147477700D01*
X229226755Y-147477700D01*
X228886727Y-147545336D01*
X228566427Y-147678008D01*
X228278165Y-147870619D01*
X228033019Y-148115765D01*
X227840408Y-148404027D01*
X227707736Y-148724327D01*
X227640100Y-149064355D01*
X225653400Y-149064355D01*
X225653400Y-148649272D01*
X225567510Y-148217475D01*
X225399031Y-147810731D01*
X225154438Y-147444671D01*
X224843129Y-147133362D01*
X224477069Y-146888769D01*
X224070325Y-146720290D01*
X223638528Y-146634400D01*
X223198272Y-146634400D01*
X222766475Y-146720290D01*
X222359731Y-146888769D01*
X221993671Y-147133362D01*
X221682362Y-147444671D01*
X221437769Y-147810731D01*
X221269290Y-148217475D01*
X221183400Y-148649272D01*
X221183400Y-149089528D01*
X221269290Y-149521325D01*
X221413498Y-149869474D01*
X221094756Y-149737447D01*
X220682279Y-149655400D01*
X220261721Y-149655400D01*
X219849244Y-149737447D01*
X219548462Y-149862035D01*
X219700110Y-149495925D01*
X219786000Y-149064128D01*
X219786000Y-148623872D01*
X219700110Y-148192075D01*
X219531631Y-147785331D01*
X219287038Y-147419271D01*
X218975729Y-147107962D01*
X218609669Y-146863369D01*
X218202925Y-146694890D01*
X217771128Y-146609000D01*
X217330872Y-146609000D01*
X216899075Y-146694890D01*
X216492331Y-146863369D01*
X216126271Y-147107962D01*
X215814962Y-147419271D01*
X215570369Y-147785331D01*
X215401890Y-148192075D01*
X215316000Y-148623872D01*
X213326822Y-148623872D01*
X213248510Y-148230175D01*
X213080031Y-147823431D01*
X212835438Y-147457371D01*
X212524129Y-147146062D01*
X212158069Y-146901469D01*
X211751325Y-146732990D01*
X211319528Y-146647100D01*
X210879272Y-146647100D01*
X210447475Y-146732990D01*
X210040731Y-146901469D01*
X209674671Y-147146062D01*
X209363362Y-147457371D01*
X209118769Y-147823431D01*
X208950290Y-148230175D01*
X208864400Y-148661972D01*
X208864400Y-149102228D01*
X208950290Y-149534025D01*
X209107198Y-149912835D01*
X208775756Y-149775547D01*
X208363279Y-149693500D01*
X207942721Y-149693500D01*
X207530244Y-149775547D01*
X207229462Y-149900135D01*
X207381110Y-149534025D01*
X207467000Y-149102228D01*
X207467000Y-148661972D01*
X207381110Y-148230175D01*
X207212631Y-147823431D01*
X206968038Y-147457371D01*
X206656729Y-147146062D01*
X206290669Y-146901469D01*
X205883925Y-146732990D01*
X205452128Y-146647100D01*
X205011872Y-146647100D01*
X204580075Y-146732990D01*
X204173331Y-146901469D01*
X203807271Y-147146062D01*
X203495962Y-147457371D01*
X203251369Y-147823431D01*
X203082890Y-148230175D01*
X202997000Y-148661972D01*
X202997000Y-149102228D01*
X203082890Y-149534025D01*
X203251369Y-149940769D01*
X203495962Y-150306829D01*
X203807271Y-150618138D01*
X204173331Y-150862731D01*
X204580075Y-151031210D01*
X205011872Y-151117100D01*
X205452128Y-151117100D01*
X205883925Y-151031210D01*
X206232074Y-150887002D01*
X206100047Y-151205744D01*
X206018000Y-151618221D01*
X206018000Y-152038779D01*
X206100047Y-152451256D01*
X206224635Y-152752038D01*
X205858525Y-152600390D01*
X205426728Y-152514500D01*
X204986472Y-152514500D01*
X204554675Y-152600390D01*
X204147931Y-152768869D01*
X203781871Y-153013462D01*
X203470562Y-153324771D01*
X203225969Y-153690831D01*
X203057490Y-154097575D01*
X202971600Y-154529372D01*
X187465288Y-154529372D01*
X187589974Y-154228354D01*
X187697000Y-153690299D01*
X187697000Y-153141701D01*
X187589974Y-152603646D01*
X187561540Y-152535000D01*
X191524928Y-152535000D01*
X191524928Y-153535000D01*
X191541992Y-153708254D01*
X191592528Y-153874850D01*
X191674595Y-154028386D01*
X191785038Y-154162962D01*
X191919614Y-154273405D01*
X192073150Y-154355472D01*
X192239746Y-154406008D01*
X192413000Y-154423072D01*
X193413000Y-154423072D01*
X193586254Y-154406008D01*
X193752850Y-154355472D01*
X193906386Y-154273405D01*
X194040962Y-154162962D01*
X194151405Y-154028386D01*
X194233472Y-153874850D01*
X194284008Y-153708254D01*
X194301072Y-153535000D01*
X194301072Y-152898589D01*
X194528000Y-152898589D01*
X194528000Y-153171411D01*
X194581225Y-153438989D01*
X194685629Y-153691043D01*
X194837201Y-153917886D01*
X195030114Y-154110799D01*
X195256957Y-154262371D01*
X195509011Y-154366775D01*
X195776589Y-154420000D01*
X196049411Y-154420000D01*
X196316989Y-154366775D01*
X196569043Y-154262371D01*
X196795886Y-154110799D01*
X196988799Y-153917886D01*
X197140371Y-153691043D01*
X197244775Y-153438989D01*
X197298000Y-153171411D01*
X197298000Y-152898589D01*
X197244775Y-152631011D01*
X197140371Y-152378957D01*
X196988799Y-152152114D01*
X196795886Y-151959201D01*
X196569043Y-151807629D01*
X196316989Y-151703225D01*
X196049411Y-151650000D01*
X195776589Y-151650000D01*
X195509011Y-151703225D01*
X195256957Y-151807629D01*
X195030114Y-151959201D01*
X194837201Y-152152114D01*
X194685629Y-152378957D01*
X194581225Y-152631011D01*
X194528000Y-152898589D01*
X194301072Y-152898589D01*
X194301072Y-152535000D01*
X194284008Y-152361746D01*
X194233472Y-152195150D01*
X194151405Y-152041614D01*
X194040962Y-151907038D01*
X193906386Y-151796595D01*
X193752850Y-151714528D01*
X193586254Y-151663992D01*
X193413000Y-151646928D01*
X192413000Y-151646928D01*
X192239746Y-151663992D01*
X192073150Y-151714528D01*
X191919614Y-151796595D01*
X191785038Y-151907038D01*
X191674595Y-152041614D01*
X191592528Y-152195150D01*
X191541992Y-152361746D01*
X191524928Y-152535000D01*
X187561540Y-152535000D01*
X187380035Y-152096808D01*
X187075250Y-151640666D01*
X186687334Y-151252750D01*
X186231192Y-150947965D01*
X185724354Y-150738026D01*
X185186299Y-150631000D01*
X184637701Y-150631000D01*
X184099646Y-150738026D01*
X183592808Y-150947965D01*
X183136666Y-151252750D01*
X182748750Y-151640666D01*
X182443965Y-152096808D01*
X182234026Y-152603646D01*
X182127000Y-153141701D01*
X180796000Y-153141701D01*
X180796000Y-149923212D01*
X195718000Y-149923212D01*
X195718000Y-150146788D01*
X195761617Y-150366067D01*
X195847176Y-150572624D01*
X195971388Y-150758520D01*
X196129480Y-150916612D01*
X196315376Y-151040824D01*
X196521933Y-151126383D01*
X196741212Y-151170000D01*
X196964788Y-151170000D01*
X197184067Y-151126383D01*
X197390624Y-151040824D01*
X197576520Y-150916612D01*
X197734612Y-150758520D01*
X197858824Y-150572624D01*
X197944383Y-150366067D01*
X197988000Y-150146788D01*
X197988000Y-149923212D01*
X197944383Y-149703933D01*
X197858824Y-149497376D01*
X197734612Y-149311480D01*
X197576520Y-149153388D01*
X197390624Y-149029176D01*
X197184067Y-148943617D01*
X196964788Y-148900000D01*
X196741212Y-148900000D01*
X196521933Y-148943617D01*
X196315376Y-149029176D01*
X196129480Y-149153388D01*
X195971388Y-149311480D01*
X195847176Y-149497376D01*
X195761617Y-149703933D01*
X195718000Y-149923212D01*
X180796000Y-149923212D01*
X180796000Y-146153335D01*
X255909000Y-146153335D01*
X255909000Y-146327665D01*
X255943010Y-146498645D01*
X256009723Y-146659705D01*
X256106576Y-146804655D01*
X256229845Y-146927924D01*
X256374795Y-147024777D01*
X256535855Y-147091490D01*
X256706835Y-147125500D01*
X256881165Y-147125500D01*
X257052145Y-147091490D01*
X257213205Y-147024777D01*
X257358155Y-146927924D01*
X257481424Y-146804655D01*
X257578277Y-146659705D01*
X257603904Y-146597835D01*
X262284398Y-146597835D01*
X262284398Y-146772165D01*
X262318408Y-146943145D01*
X262385121Y-147104205D01*
X262481974Y-147249155D01*
X262605243Y-147372424D01*
X262750193Y-147469277D01*
X262911253Y-147535990D01*
X263082233Y-147570000D01*
X263256563Y-147570000D01*
X263427543Y-147535990D01*
X263588603Y-147469277D01*
X263733553Y-147372424D01*
X263856822Y-147249155D01*
X263953675Y-147104205D01*
X264020388Y-146943145D01*
X264054398Y-146772165D01*
X264054398Y-146597835D01*
X264020388Y-146426855D01*
X263953675Y-146265795D01*
X263856822Y-146120845D01*
X263733553Y-145997576D01*
X263588603Y-145900723D01*
X263427543Y-145834010D01*
X263256563Y-145800000D01*
X263082233Y-145800000D01*
X262911253Y-145834010D01*
X262750193Y-145900723D01*
X262605243Y-145997576D01*
X262481974Y-146120845D01*
X262385121Y-146265795D01*
X262318408Y-146426855D01*
X262284398Y-146597835D01*
X257603904Y-146597835D01*
X257644990Y-146498645D01*
X257679000Y-146327665D01*
X257679000Y-146153335D01*
X257644990Y-145982355D01*
X257578277Y-145821295D01*
X257481424Y-145676345D01*
X257358155Y-145553076D01*
X257213205Y-145456223D01*
X257052145Y-145389510D01*
X256881165Y-145355500D01*
X256706835Y-145355500D01*
X256535855Y-145389510D01*
X256374795Y-145456223D01*
X256229845Y-145553076D01*
X256106576Y-145676345D01*
X256009723Y-145821295D01*
X255943010Y-145982355D01*
X255909000Y-146153335D01*
X180796000Y-146153335D01*
X180796000Y-144819835D01*
X244352000Y-144819835D01*
X244352000Y-144994165D01*
X244386010Y-145165145D01*
X244452723Y-145326205D01*
X244549576Y-145471155D01*
X244672845Y-145594424D01*
X244817795Y-145691277D01*
X244978855Y-145757990D01*
X245149835Y-145792000D01*
X245324165Y-145792000D01*
X245495145Y-145757990D01*
X245656205Y-145691277D01*
X245801155Y-145594424D01*
X245924424Y-145471155D01*
X246021277Y-145326205D01*
X246087990Y-145165145D01*
X246122000Y-144994165D01*
X246122000Y-144819835D01*
X246087990Y-144648855D01*
X246021277Y-144487795D01*
X245988563Y-144438835D01*
X264164000Y-144438835D01*
X264164000Y-144613165D01*
X264198010Y-144784145D01*
X264264723Y-144945205D01*
X264361576Y-145090155D01*
X264484845Y-145213424D01*
X264629795Y-145310277D01*
X264790855Y-145376990D01*
X264961835Y-145411000D01*
X265136165Y-145411000D01*
X265307145Y-145376990D01*
X265468205Y-145310277D01*
X265613155Y-145213424D01*
X265736424Y-145090155D01*
X265833277Y-144945205D01*
X265899990Y-144784145D01*
X265934000Y-144613165D01*
X265934000Y-144438835D01*
X266196000Y-144438835D01*
X266196000Y-144613165D01*
X266230010Y-144784145D01*
X266296723Y-144945205D01*
X266393576Y-145090155D01*
X266516845Y-145213424D01*
X266661795Y-145310277D01*
X266822855Y-145376990D01*
X266993835Y-145411000D01*
X267168165Y-145411000D01*
X267339145Y-145376990D01*
X267500205Y-145310277D01*
X267645155Y-145213424D01*
X267768424Y-145090155D01*
X267865277Y-144945205D01*
X267931990Y-144784145D01*
X267966000Y-144613165D01*
X267966000Y-144438835D01*
X274832000Y-144438835D01*
X274832000Y-144613165D01*
X274866010Y-144784145D01*
X274932723Y-144945205D01*
X275029576Y-145090155D01*
X275152845Y-145213424D01*
X275297795Y-145310277D01*
X275458855Y-145376990D01*
X275629835Y-145411000D01*
X275804165Y-145411000D01*
X275975145Y-145376990D01*
X276136205Y-145310277D01*
X276281155Y-145213424D01*
X276404424Y-145090155D01*
X276501277Y-144945205D01*
X276567990Y-144784145D01*
X276602000Y-144613165D01*
X276602000Y-144438835D01*
X276567990Y-144267855D01*
X276501277Y-144106795D01*
X276404424Y-143961845D01*
X276281155Y-143838576D01*
X276136205Y-143741723D01*
X275975145Y-143675010D01*
X275804165Y-143641000D01*
X275629835Y-143641000D01*
X275458855Y-143675010D01*
X275297795Y-143741723D01*
X275152845Y-143838576D01*
X275029576Y-143961845D01*
X274932723Y-144106795D01*
X274866010Y-144267855D01*
X274832000Y-144438835D01*
X267966000Y-144438835D01*
X267931990Y-144267855D01*
X267865277Y-144106795D01*
X267768424Y-143961845D01*
X267645155Y-143838576D01*
X267500205Y-143741723D01*
X267339145Y-143675010D01*
X267168165Y-143641000D01*
X266993835Y-143641000D01*
X266822855Y-143675010D01*
X266661795Y-143741723D01*
X266516845Y-143838576D01*
X266393576Y-143961845D01*
X266296723Y-144106795D01*
X266230010Y-144267855D01*
X266196000Y-144438835D01*
X265934000Y-144438835D01*
X265899990Y-144267855D01*
X265833277Y-144106795D01*
X265736424Y-143961845D01*
X265613155Y-143838576D01*
X265468205Y-143741723D01*
X265307145Y-143675010D01*
X265136165Y-143641000D01*
X264961835Y-143641000D01*
X264790855Y-143675010D01*
X264629795Y-143741723D01*
X264484845Y-143838576D01*
X264361576Y-143961845D01*
X264264723Y-144106795D01*
X264198010Y-144267855D01*
X264164000Y-144438835D01*
X245988563Y-144438835D01*
X245924424Y-144342845D01*
X245801155Y-144219576D01*
X245656205Y-144122723D01*
X245495145Y-144056010D01*
X245324165Y-144022000D01*
X245149835Y-144022000D01*
X244978855Y-144056010D01*
X244817795Y-144122723D01*
X244672845Y-144219576D01*
X244549576Y-144342845D01*
X244452723Y-144487795D01*
X244386010Y-144648855D01*
X244352000Y-144819835D01*
X180796000Y-144819835D01*
X180796000Y-140359000D01*
X185694928Y-140359000D01*
X185694928Y-143359000D01*
X185707188Y-143483482D01*
X185743498Y-143603180D01*
X185802463Y-143713494D01*
X185881815Y-143810185D01*
X185978506Y-143889537D01*
X186088820Y-143948502D01*
X186208518Y-143984812D01*
X186333000Y-143997072D01*
X189333000Y-143997072D01*
X189457482Y-143984812D01*
X189577180Y-143948502D01*
X189687494Y-143889537D01*
X189784185Y-143810185D01*
X189863537Y-143713494D01*
X189922502Y-143603180D01*
X189958812Y-143483482D01*
X189971072Y-143359000D01*
X189971072Y-141648721D01*
X190778000Y-141648721D01*
X190778000Y-142069279D01*
X190860047Y-142481756D01*
X191020988Y-142870302D01*
X191254637Y-143219983D01*
X191552017Y-143517363D01*
X191901698Y-143751012D01*
X192290244Y-143911953D01*
X192702721Y-143994000D01*
X193123279Y-143994000D01*
X193535756Y-143911953D01*
X193924302Y-143751012D01*
X194273983Y-143517363D01*
X194571363Y-143219983D01*
X194805012Y-142870302D01*
X194965953Y-142481756D01*
X195048000Y-142069279D01*
X195048000Y-141648721D01*
X195858000Y-141648721D01*
X195858000Y-142069279D01*
X195940047Y-142481756D01*
X196100988Y-142870302D01*
X196334637Y-143219983D01*
X196632017Y-143517363D01*
X196981698Y-143751012D01*
X197370244Y-143911953D01*
X197782721Y-143994000D01*
X198203279Y-143994000D01*
X198615756Y-143911953D01*
X199004302Y-143751012D01*
X199353983Y-143517363D01*
X199651363Y-143219983D01*
X199885012Y-142870302D01*
X200045953Y-142481756D01*
X200086118Y-142279829D01*
X221047500Y-142279829D01*
X221047500Y-142454159D01*
X221081510Y-142625139D01*
X221148223Y-142786199D01*
X221245076Y-142931149D01*
X221368345Y-143054418D01*
X221513295Y-143151271D01*
X221674355Y-143217984D01*
X221845335Y-143251994D01*
X222019665Y-143251994D01*
X222190645Y-143217984D01*
X222351705Y-143151271D01*
X222496655Y-143054418D01*
X222619924Y-142931149D01*
X222673254Y-142851335D01*
X234509500Y-142851335D01*
X234509500Y-143025665D01*
X234543510Y-143196645D01*
X234610223Y-143357705D01*
X234707076Y-143502655D01*
X234830345Y-143625924D01*
X234975295Y-143722777D01*
X235136355Y-143789490D01*
X235307335Y-143823500D01*
X235481665Y-143823500D01*
X235652645Y-143789490D01*
X235813705Y-143722777D01*
X235958655Y-143625924D01*
X236081924Y-143502655D01*
X236178777Y-143357705D01*
X236245490Y-143196645D01*
X236279500Y-143025665D01*
X236279500Y-142851335D01*
X236245490Y-142680355D01*
X236178777Y-142519295D01*
X236081924Y-142374345D01*
X235958655Y-142251076D01*
X235813705Y-142154223D01*
X235652645Y-142087510D01*
X235481665Y-142053500D01*
X235307335Y-142053500D01*
X235136355Y-142087510D01*
X234975295Y-142154223D01*
X234830345Y-142251076D01*
X234707076Y-142374345D01*
X234610223Y-142519295D01*
X234543510Y-142680355D01*
X234509500Y-142851335D01*
X222673254Y-142851335D01*
X222716777Y-142786199D01*
X222783490Y-142625139D01*
X222810030Y-142491712D01*
X222846795Y-142516277D01*
X223007855Y-142582990D01*
X223178835Y-142617000D01*
X223353165Y-142617000D01*
X223524145Y-142582990D01*
X223685205Y-142516277D01*
X223830155Y-142419424D01*
X223953424Y-142296155D01*
X224050277Y-142151205D01*
X224116990Y-141990145D01*
X224151000Y-141819165D01*
X224151000Y-141644835D01*
X224116990Y-141473855D01*
X224050277Y-141312795D01*
X223953424Y-141167845D01*
X223830155Y-141044576D01*
X223685205Y-140947723D01*
X223524145Y-140881010D01*
X223353165Y-140847000D01*
X223178835Y-140847000D01*
X223007855Y-140881010D01*
X222846795Y-140947723D01*
X222701845Y-141044576D01*
X222578576Y-141167845D01*
X222481723Y-141312795D01*
X222415010Y-141473855D01*
X222388470Y-141607282D01*
X222351705Y-141582717D01*
X222190645Y-141516004D01*
X222019665Y-141481994D01*
X221845335Y-141481994D01*
X221674355Y-141516004D01*
X221513295Y-141582717D01*
X221368345Y-141679570D01*
X221245076Y-141802839D01*
X221148223Y-141947789D01*
X221081510Y-142108849D01*
X221047500Y-142279829D01*
X200086118Y-142279829D01*
X200128000Y-142069279D01*
X200128000Y-141648721D01*
X200045953Y-141236244D01*
X199885012Y-140847698D01*
X199651363Y-140498017D01*
X199353983Y-140200637D01*
X199004302Y-139966988D01*
X198615756Y-139806047D01*
X198203279Y-139724000D01*
X197782721Y-139724000D01*
X197370244Y-139806047D01*
X196981698Y-139966988D01*
X196632017Y-140200637D01*
X196334637Y-140498017D01*
X196100988Y-140847698D01*
X195940047Y-141236244D01*
X195858000Y-141648721D01*
X195048000Y-141648721D01*
X194965953Y-141236244D01*
X194805012Y-140847698D01*
X194571363Y-140498017D01*
X194273983Y-140200637D01*
X193924302Y-139966988D01*
X193535756Y-139806047D01*
X193123279Y-139724000D01*
X192702721Y-139724000D01*
X192290244Y-139806047D01*
X191901698Y-139966988D01*
X191552017Y-140200637D01*
X191254637Y-140498017D01*
X191020988Y-140847698D01*
X190860047Y-141236244D01*
X190778000Y-141648721D01*
X189971072Y-141648721D01*
X189971072Y-140359000D01*
X189958812Y-140234518D01*
X189922502Y-140114820D01*
X189863537Y-140004506D01*
X189784185Y-139907815D01*
X189687494Y-139828463D01*
X189577180Y-139769498D01*
X189457482Y-139733188D01*
X189333000Y-139720928D01*
X186333000Y-139720928D01*
X186208518Y-139733188D01*
X186088820Y-139769498D01*
X185978506Y-139828463D01*
X185881815Y-139907815D01*
X185802463Y-140004506D01*
X185743498Y-140114820D01*
X185707188Y-140234518D01*
X185694928Y-140359000D01*
X180796000Y-140359000D01*
X180796000Y-135382000D01*
X239807815Y-135382000D01*
X239836487Y-135673111D01*
X239921401Y-135953034D01*
X240059294Y-136211014D01*
X240244866Y-136437134D01*
X240470986Y-136622706D01*
X240525791Y-136652000D01*
X240470986Y-136681294D01*
X240244866Y-136866866D01*
X240059294Y-137092986D01*
X239921401Y-137350966D01*
X239836487Y-137630889D01*
X239807815Y-137922000D01*
X239836487Y-138213111D01*
X239921401Y-138493034D01*
X240059294Y-138751014D01*
X240244866Y-138977134D01*
X240274687Y-139001607D01*
X240205820Y-139022498D01*
X240095506Y-139081463D01*
X239998815Y-139160815D01*
X239919463Y-139257506D01*
X239860498Y-139367820D01*
X239824188Y-139487518D01*
X239811928Y-139612000D01*
X239811928Y-141312000D01*
X239824188Y-141436482D01*
X239860498Y-141556180D01*
X239919463Y-141666494D01*
X239998815Y-141763185D01*
X240095506Y-141842537D01*
X240205820Y-141901502D01*
X240325518Y-141937812D01*
X240450000Y-141950072D01*
X242150000Y-141950072D01*
X242274482Y-141937812D01*
X242394180Y-141901502D01*
X242504494Y-141842537D01*
X242601185Y-141763185D01*
X242680537Y-141666494D01*
X242739502Y-141556180D01*
X242775812Y-141436482D01*
X242788072Y-141312000D01*
X242788072Y-140628835D01*
X264164000Y-140628835D01*
X264164000Y-140803165D01*
X264198010Y-140974145D01*
X264264723Y-141135205D01*
X264361576Y-141280155D01*
X264484845Y-141403424D01*
X264629795Y-141500277D01*
X264790855Y-141566990D01*
X264961835Y-141601000D01*
X265136165Y-141601000D01*
X265307145Y-141566990D01*
X265468205Y-141500277D01*
X265613155Y-141403424D01*
X265736424Y-141280155D01*
X265833277Y-141135205D01*
X265899990Y-140974145D01*
X265934000Y-140803165D01*
X265934000Y-140628835D01*
X265899990Y-140457855D01*
X265833277Y-140296795D01*
X265736424Y-140151845D01*
X265613155Y-140028576D01*
X265468205Y-139931723D01*
X265307145Y-139865010D01*
X265136165Y-139831000D01*
X264961835Y-139831000D01*
X264790855Y-139865010D01*
X264629795Y-139931723D01*
X264484845Y-140028576D01*
X264361576Y-140151845D01*
X264264723Y-140296795D01*
X264198010Y-140457855D01*
X264164000Y-140628835D01*
X242788072Y-140628835D01*
X242788072Y-139612000D01*
X242775812Y-139487518D01*
X242739502Y-139367820D01*
X242680537Y-139257506D01*
X242601185Y-139160815D01*
X242504494Y-139081463D01*
X242394180Y-139022498D01*
X242325313Y-139001607D01*
X242355134Y-138977134D01*
X242540706Y-138751014D01*
X242678599Y-138493034D01*
X242685636Y-138469835D01*
X259465000Y-138469835D01*
X259465000Y-138644165D01*
X259499010Y-138815145D01*
X259565723Y-138976205D01*
X259662576Y-139121155D01*
X259785845Y-139244424D01*
X259930795Y-139341277D01*
X260091855Y-139407990D01*
X260262835Y-139442000D01*
X260437165Y-139442000D01*
X260608145Y-139407990D01*
X260769205Y-139341277D01*
X260914155Y-139244424D01*
X261037424Y-139121155D01*
X261134277Y-138976205D01*
X261200990Y-138815145D01*
X261235000Y-138644165D01*
X261235000Y-138469835D01*
X261200990Y-138298855D01*
X261134277Y-138137795D01*
X261037424Y-137992845D01*
X260914155Y-137869576D01*
X260769205Y-137772723D01*
X260608145Y-137706010D01*
X260437165Y-137672000D01*
X260262835Y-137672000D01*
X260091855Y-137706010D01*
X259930795Y-137772723D01*
X259785845Y-137869576D01*
X259662576Y-137992845D01*
X259565723Y-138137795D01*
X259499010Y-138298855D01*
X259465000Y-138469835D01*
X242685636Y-138469835D01*
X242763513Y-138213111D01*
X242792185Y-137922000D01*
X242763513Y-137630889D01*
X242678599Y-137350966D01*
X242540706Y-137092986D01*
X242355134Y-136866866D01*
X242129014Y-136681294D01*
X242074209Y-136652000D01*
X242129014Y-136622706D01*
X242199529Y-136564835D01*
X267973996Y-136564835D01*
X267973996Y-136739165D01*
X268008006Y-136910145D01*
X268074719Y-137071205D01*
X268171572Y-137216155D01*
X268294841Y-137339424D01*
X268439791Y-137436277D01*
X268600851Y-137502990D01*
X268771831Y-137537000D01*
X268946161Y-137537000D01*
X269117141Y-137502990D01*
X269278201Y-137436277D01*
X269423151Y-137339424D01*
X269546420Y-137216155D01*
X269643273Y-137071205D01*
X269709986Y-136910145D01*
X269743996Y-136739165D01*
X269743996Y-136564835D01*
X271530000Y-136564835D01*
X271530000Y-136739165D01*
X271564010Y-136910145D01*
X271630723Y-137071205D01*
X271727576Y-137216155D01*
X271850845Y-137339424D01*
X271995795Y-137436277D01*
X272156855Y-137502990D01*
X272327835Y-137537000D01*
X272502165Y-137537000D01*
X272673145Y-137502990D01*
X272834205Y-137436277D01*
X272979155Y-137339424D01*
X273102424Y-137216155D01*
X273199277Y-137071205D01*
X273265990Y-136910145D01*
X273300000Y-136739165D01*
X273300000Y-136564835D01*
X273265990Y-136393855D01*
X273199277Y-136232795D01*
X273102424Y-136087845D01*
X272979155Y-135964576D01*
X272834205Y-135867723D01*
X272673145Y-135801010D01*
X272502165Y-135767000D01*
X272327835Y-135767000D01*
X272156855Y-135801010D01*
X271995795Y-135867723D01*
X271850845Y-135964576D01*
X271727576Y-136087845D01*
X271630723Y-136232795D01*
X271564010Y-136393855D01*
X271530000Y-136564835D01*
X269743996Y-136564835D01*
X269709986Y-136393855D01*
X269643273Y-136232795D01*
X269546420Y-136087845D01*
X269423151Y-135964576D01*
X269278201Y-135867723D01*
X269117141Y-135801010D01*
X268946161Y-135767000D01*
X268771831Y-135767000D01*
X268600851Y-135801010D01*
X268439791Y-135867723D01*
X268294841Y-135964576D01*
X268171572Y-136087845D01*
X268074719Y-136232795D01*
X268008006Y-136393855D01*
X267973996Y-136564835D01*
X242199529Y-136564835D01*
X242355134Y-136437134D01*
X242540706Y-136211014D01*
X242678599Y-135953034D01*
X242763513Y-135673111D01*
X242792185Y-135382000D01*
X242763513Y-135090889D01*
X242678599Y-134810966D01*
X242540706Y-134552986D01*
X242355134Y-134326866D01*
X242129014Y-134141294D01*
X241871034Y-134003401D01*
X241591111Y-133918487D01*
X241372950Y-133897000D01*
X241227050Y-133897000D01*
X241008889Y-133918487D01*
X240728966Y-134003401D01*
X240470986Y-134141294D01*
X240244866Y-134326866D01*
X240059294Y-134552986D01*
X239921401Y-134810966D01*
X239836487Y-135090889D01*
X239807815Y-135382000D01*
X180796000Y-135382000D01*
X180796000Y-131611835D01*
X250765500Y-131611835D01*
X250765500Y-131786165D01*
X250799510Y-131957145D01*
X250866223Y-132118205D01*
X250963076Y-132263155D01*
X251086345Y-132386424D01*
X251231295Y-132483277D01*
X251392355Y-132549990D01*
X251563335Y-132584000D01*
X251737665Y-132584000D01*
X251908645Y-132549990D01*
X252069705Y-132483277D01*
X252214655Y-132386424D01*
X252337924Y-132263155D01*
X252434777Y-132118205D01*
X252501490Y-131957145D01*
X252535500Y-131786165D01*
X252535500Y-131611835D01*
X252501490Y-131440855D01*
X252434777Y-131279795D01*
X252337924Y-131134845D01*
X252214655Y-131011576D01*
X252069705Y-130914723D01*
X251908645Y-130848010D01*
X251737665Y-130814000D01*
X251563335Y-130814000D01*
X251392355Y-130848010D01*
X251231295Y-130914723D01*
X251086345Y-131011576D01*
X250963076Y-131134845D01*
X250866223Y-131279795D01*
X250799510Y-131440855D01*
X250765500Y-131611835D01*
X180796000Y-131611835D01*
X180796000Y-128549061D01*
X271507000Y-128549061D01*
X271507000Y-128752939D01*
X271546774Y-128952898D01*
X271624795Y-129141256D01*
X271738063Y-129310774D01*
X271882226Y-129454937D01*
X272051744Y-129568205D01*
X272240102Y-129646226D01*
X272440061Y-129686000D01*
X272643939Y-129686000D01*
X272843898Y-129646226D01*
X273032256Y-129568205D01*
X273201774Y-129454937D01*
X273345937Y-129310774D01*
X273459205Y-129141256D01*
X273537226Y-128952898D01*
X273577000Y-128752939D01*
X273577000Y-128549061D01*
X273537226Y-128349102D01*
X273459205Y-128160744D01*
X273345937Y-127991226D01*
X273201774Y-127847063D01*
X273032256Y-127733795D01*
X272843898Y-127655774D01*
X272643939Y-127616000D01*
X272440061Y-127616000D01*
X272240102Y-127655774D01*
X272051744Y-127733795D01*
X271882226Y-127847063D01*
X271738063Y-127991226D01*
X271624795Y-128160744D01*
X271546774Y-128349102D01*
X271507000Y-128549061D01*
X180796000Y-128549061D01*
X180796000Y-124162117D01*
X206418000Y-124162117D01*
X206418000Y-124503883D01*
X206484675Y-124839081D01*
X206615463Y-125154831D01*
X206805337Y-125438998D01*
X207047002Y-125680663D01*
X207331169Y-125870537D01*
X207646919Y-126001325D01*
X207982117Y-126068000D01*
X208323883Y-126068000D01*
X208659081Y-126001325D01*
X208974831Y-125870537D01*
X209258998Y-125680663D01*
X209500663Y-125438998D01*
X209690537Y-125154831D01*
X209821325Y-124839081D01*
X209888000Y-124503883D01*
X209888000Y-124162117D01*
X209821325Y-123826919D01*
X209690537Y-123511169D01*
X209500663Y-123227002D01*
X209258998Y-122985337D01*
X208974831Y-122795463D01*
X208659081Y-122664675D01*
X208323883Y-122598000D01*
X207982117Y-122598000D01*
X207646919Y-122664675D01*
X207331169Y-122795463D01*
X207047002Y-122985337D01*
X206805337Y-123227002D01*
X206615463Y-123511169D01*
X206484675Y-123826919D01*
X206418000Y-124162117D01*
X180796000Y-124162117D01*
X180796000Y-120096301D01*
X270747600Y-120096301D01*
X270747600Y-120644899D01*
X270854626Y-121182954D01*
X271064565Y-121689792D01*
X271369350Y-122145934D01*
X271757266Y-122533850D01*
X272213408Y-122838635D01*
X272720246Y-123048574D01*
X273258301Y-123155600D01*
X273806899Y-123155600D01*
X274344954Y-123048574D01*
X274851792Y-122838635D01*
X275307934Y-122533850D01*
X275695850Y-122145934D01*
X276000635Y-121689792D01*
X276210574Y-121182954D01*
X276317600Y-120644899D01*
X276317600Y-120096301D01*
X276210574Y-119558246D01*
X276000635Y-119051408D01*
X275695850Y-118595266D01*
X275307934Y-118207350D01*
X274851792Y-117902565D01*
X274344954Y-117692626D01*
X273806899Y-117585600D01*
X273258301Y-117585600D01*
X272720246Y-117692626D01*
X272213408Y-117902565D01*
X271757266Y-118207350D01*
X271369350Y-118595266D01*
X271064565Y-119051408D01*
X270854626Y-119558246D01*
X270747600Y-120096301D01*
X180796000Y-120096301D01*
X180796000Y-113728161D01*
X265004600Y-113728161D01*
X265004600Y-113932039D01*
X265044374Y-114131998D01*
X265122395Y-114320356D01*
X265235663Y-114489874D01*
X265379826Y-114634037D01*
X265549344Y-114747305D01*
X265737702Y-114825326D01*
X265937661Y-114865100D01*
X266141539Y-114865100D01*
X266341498Y-114825326D01*
X266529856Y-114747305D01*
X266699374Y-114634037D01*
X266843537Y-114489874D01*
X266956805Y-114320356D01*
X267034826Y-114131998D01*
X267074600Y-113932039D01*
X267074600Y-113728161D01*
X267034826Y-113528202D01*
X266956805Y-113339844D01*
X266843537Y-113170326D01*
X266699374Y-113026163D01*
X266529856Y-112912895D01*
X266341498Y-112834874D01*
X266141539Y-112795100D01*
X265937661Y-112795100D01*
X265737702Y-112834874D01*
X265549344Y-112912895D01*
X265379826Y-113026163D01*
X265235663Y-113170326D01*
X265122395Y-113339844D01*
X265044374Y-113528202D01*
X265004600Y-113728161D01*
X180796000Y-113728161D01*
X180796000Y-107294701D01*
X205368000Y-107294701D01*
X205368000Y-107843299D01*
X205475026Y-108381354D01*
X205684965Y-108888192D01*
X205989750Y-109344334D01*
X206377666Y-109732250D01*
X206833808Y-110037035D01*
X207340646Y-110246974D01*
X207878701Y-110354000D01*
X208427299Y-110354000D01*
X208965354Y-110246974D01*
X209472192Y-110037035D01*
X209928334Y-109732250D01*
X210316250Y-109344334D01*
X210621035Y-108888192D01*
X210830974Y-108381354D01*
X210938000Y-107843299D01*
X210938000Y-107543600D01*
X270647318Y-107543600D01*
X270676376Y-107838632D01*
X270762434Y-108122325D01*
X270902183Y-108383779D01*
X271090255Y-108612945D01*
X271319421Y-108801017D01*
X271342962Y-108813600D01*
X271319421Y-108826183D01*
X271090255Y-109014255D01*
X270902183Y-109243421D01*
X270762434Y-109504875D01*
X270676376Y-109788568D01*
X270647318Y-110083600D01*
X270676376Y-110378632D01*
X270762434Y-110662325D01*
X270902183Y-110923779D01*
X271090255Y-111152945D01*
X271319421Y-111341017D01*
X271580875Y-111480766D01*
X271864568Y-111566824D01*
X272085664Y-111588600D01*
X272693536Y-111588600D01*
X272914632Y-111566824D01*
X273198325Y-111480766D01*
X273459779Y-111341017D01*
X273688945Y-111152945D01*
X273877017Y-110923779D01*
X274016766Y-110662325D01*
X274102824Y-110378632D01*
X274131882Y-110083600D01*
X274102824Y-109788568D01*
X274016766Y-109504875D01*
X273877017Y-109243421D01*
X273688945Y-109014255D01*
X273459779Y-108826183D01*
X273436238Y-108813600D01*
X273459779Y-108801017D01*
X273688945Y-108612945D01*
X273877017Y-108383779D01*
X274016766Y-108122325D01*
X274102824Y-107838632D01*
X274131882Y-107543600D01*
X274102824Y-107248568D01*
X274016766Y-106964875D01*
X273877017Y-106703421D01*
X273688945Y-106474255D01*
X273623486Y-106420534D01*
X273732987Y-106362005D01*
X273867562Y-106251562D01*
X273978005Y-106116987D01*
X274060072Y-105963451D01*
X274110608Y-105796855D01*
X274127672Y-105623601D01*
X274127672Y-104383599D01*
X274110608Y-104210345D01*
X274060072Y-104043749D01*
X273978005Y-103890213D01*
X273867562Y-103755638D01*
X273732987Y-103645195D01*
X273579451Y-103563128D01*
X273412855Y-103512592D01*
X273239601Y-103495528D01*
X271539599Y-103495528D01*
X271366345Y-103512592D01*
X271199749Y-103563128D01*
X271046213Y-103645195D01*
X270911638Y-103755638D01*
X270801195Y-103890213D01*
X270719128Y-104043749D01*
X270668592Y-104210345D01*
X270651528Y-104383599D01*
X270651528Y-105623601D01*
X270668592Y-105796855D01*
X270719128Y-105963451D01*
X270801195Y-106116987D01*
X270911638Y-106251562D01*
X271046213Y-106362005D01*
X271155714Y-106420534D01*
X271090255Y-106474255D01*
X270902183Y-106703421D01*
X270762434Y-106964875D01*
X270676376Y-107248568D01*
X270647318Y-107543600D01*
X210938000Y-107543600D01*
X210938000Y-107294701D01*
X210830974Y-106756646D01*
X210621035Y-106249808D01*
X210316250Y-105793666D01*
X209928334Y-105405750D01*
X209472192Y-105100965D01*
X208965354Y-104891026D01*
X208427299Y-104784000D01*
X207878701Y-104784000D01*
X207340646Y-104891026D01*
X206833808Y-105100965D01*
X206377666Y-105405750D01*
X205989750Y-105793666D01*
X205684965Y-106249808D01*
X205475026Y-106756646D01*
X205368000Y-107294701D01*
X180796000Y-107294701D01*
X180796000Y-94442301D01*
X270747600Y-94442301D01*
X270747600Y-94990899D01*
X270854626Y-95528954D01*
X271064565Y-96035792D01*
X271369350Y-96491934D01*
X271757266Y-96879850D01*
X272213408Y-97184635D01*
X272720246Y-97394574D01*
X273258301Y-97501600D01*
X273806899Y-97501600D01*
X274344954Y-97394574D01*
X274851792Y-97184635D01*
X275307934Y-96879850D01*
X275695850Y-96491934D01*
X276000635Y-96035792D01*
X276210574Y-95528954D01*
X276317600Y-94990899D01*
X276317600Y-94442301D01*
X276210574Y-93904246D01*
X276000635Y-93397408D01*
X275695850Y-92941266D01*
X275307934Y-92553350D01*
X274851792Y-92248565D01*
X274344954Y-92038626D01*
X273806899Y-91931600D01*
X273258301Y-91931600D01*
X272720246Y-92038626D01*
X272213408Y-92248565D01*
X271757266Y-92553350D01*
X271369350Y-92941266D01*
X271064565Y-93397408D01*
X270854626Y-93904246D01*
X270747600Y-94442301D01*
X180796000Y-94442301D01*
X180796000Y-90888117D01*
X206418000Y-90888117D01*
X206418000Y-91229883D01*
X206484675Y-91565081D01*
X206615463Y-91880831D01*
X206805337Y-92164998D01*
X207047002Y-92406663D01*
X207331169Y-92596537D01*
X207646919Y-92727325D01*
X207982117Y-92794000D01*
X208323883Y-92794000D01*
X208659081Y-92727325D01*
X208974831Y-92596537D01*
X209258998Y-92406663D01*
X209500663Y-92164998D01*
X209690537Y-91880831D01*
X209821325Y-91565081D01*
X209888000Y-91229883D01*
X209888000Y-90888117D01*
X209821325Y-90552919D01*
X209690537Y-90237169D01*
X209500663Y-89953002D01*
X209258998Y-89711337D01*
X208974831Y-89521463D01*
X208659081Y-89390675D01*
X208323883Y-89324000D01*
X207982117Y-89324000D01*
X207646919Y-89390675D01*
X207331169Y-89521463D01*
X207047002Y-89711337D01*
X206805337Y-89953002D01*
X206615463Y-90237169D01*
X206484675Y-90552919D01*
X206418000Y-90888117D01*
X180796000Y-90888117D01*
X180796000Y-86059655D01*
X249877800Y-86059655D01*
X249877800Y-86406345D01*
X249945436Y-86746373D01*
X250078108Y-87066673D01*
X250270719Y-87354935D01*
X250515865Y-87600081D01*
X250804127Y-87792692D01*
X251124427Y-87925364D01*
X251464455Y-87993000D01*
X251811145Y-87993000D01*
X252151173Y-87925364D01*
X252471473Y-87792692D01*
X252759735Y-87600081D01*
X253004881Y-87354935D01*
X253197492Y-87066673D01*
X253330164Y-86746373D01*
X253397800Y-86406345D01*
X253397800Y-86059655D01*
X254957800Y-86059655D01*
X254957800Y-86406345D01*
X255025436Y-86746373D01*
X255158108Y-87066673D01*
X255350719Y-87354935D01*
X255595865Y-87600081D01*
X255884127Y-87792692D01*
X256204427Y-87925364D01*
X256544455Y-87993000D01*
X256891145Y-87993000D01*
X257231173Y-87925364D01*
X257551473Y-87792692D01*
X257839735Y-87600081D01*
X258084881Y-87354935D01*
X258277492Y-87066673D01*
X258410164Y-86746373D01*
X258477800Y-86406345D01*
X258477800Y-86059655D01*
X258410164Y-85719627D01*
X258277492Y-85399327D01*
X258084881Y-85111065D01*
X257839735Y-84865919D01*
X257551473Y-84673308D01*
X257231173Y-84540636D01*
X256891145Y-84473000D01*
X256544455Y-84473000D01*
X256204427Y-84540636D01*
X255884127Y-84673308D01*
X255595865Y-84865919D01*
X255350719Y-85111065D01*
X255158108Y-85399327D01*
X255025436Y-85719627D01*
X254957800Y-86059655D01*
X253397800Y-86059655D01*
X253330164Y-85719627D01*
X253197492Y-85399327D01*
X253004881Y-85111065D01*
X252759735Y-84865919D01*
X252471473Y-84673308D01*
X252151173Y-84540636D01*
X251811145Y-84473000D01*
X251464455Y-84473000D01*
X251124427Y-84540636D01*
X250804127Y-84673308D01*
X250515865Y-84865919D01*
X250270719Y-85111065D01*
X250078108Y-85399327D01*
X249945436Y-85719627D01*
X249877800Y-86059655D01*
X180796000Y-86059655D01*
X180796000Y-82412035D01*
X222063500Y-82412035D01*
X222063500Y-82586365D01*
X222097510Y-82757345D01*
X222164223Y-82918405D01*
X222261076Y-83063355D01*
X222384345Y-83186624D01*
X222529295Y-83283477D01*
X222690355Y-83350190D01*
X222861335Y-83384200D01*
X223035665Y-83384200D01*
X223206645Y-83350190D01*
X223367705Y-83283477D01*
X223512655Y-83186624D01*
X223635924Y-83063355D01*
X223732777Y-82918405D01*
X223799490Y-82757345D01*
X223827757Y-82615235D01*
X235754100Y-82615235D01*
X235754100Y-82789565D01*
X235788110Y-82960545D01*
X235854823Y-83121605D01*
X235951676Y-83266555D01*
X236074945Y-83389824D01*
X236219895Y-83486677D01*
X236380955Y-83553390D01*
X236551935Y-83587400D01*
X236726265Y-83587400D01*
X236897245Y-83553390D01*
X236954911Y-83529504D01*
X252517800Y-83529504D01*
X252517800Y-83856496D01*
X252581593Y-84177204D01*
X252706727Y-84479305D01*
X252888394Y-84751188D01*
X253119612Y-84982406D01*
X253391495Y-85164073D01*
X253693596Y-85289207D01*
X254014304Y-85353000D01*
X254341296Y-85353000D01*
X254662004Y-85289207D01*
X254964105Y-85164073D01*
X255235988Y-84982406D01*
X255467206Y-84751188D01*
X255648873Y-84479305D01*
X255774007Y-84177204D01*
X255837800Y-83856496D01*
X255837800Y-83529504D01*
X255774007Y-83208796D01*
X255648873Y-82906695D01*
X255467206Y-82634812D01*
X255235988Y-82403594D01*
X254964105Y-82221927D01*
X254662004Y-82096793D01*
X254341296Y-82033000D01*
X254014304Y-82033000D01*
X253693596Y-82096793D01*
X253391495Y-82221927D01*
X253119612Y-82403594D01*
X252888394Y-82634812D01*
X252706727Y-82906695D01*
X252581593Y-83208796D01*
X252517800Y-83529504D01*
X236954911Y-83529504D01*
X237058305Y-83486677D01*
X237203255Y-83389824D01*
X237326524Y-83266555D01*
X237423377Y-83121605D01*
X237490090Y-82960545D01*
X237524100Y-82789565D01*
X237524100Y-82615235D01*
X237490090Y-82444255D01*
X237423377Y-82283195D01*
X237326524Y-82138245D01*
X237203255Y-82014976D01*
X237058305Y-81918123D01*
X236897245Y-81851410D01*
X236726265Y-81817400D01*
X236551935Y-81817400D01*
X236380955Y-81851410D01*
X236219895Y-81918123D01*
X236074945Y-82014976D01*
X235951676Y-82138245D01*
X235854823Y-82283195D01*
X235788110Y-82444255D01*
X235754100Y-82615235D01*
X223827757Y-82615235D01*
X223833500Y-82586365D01*
X223833500Y-82412035D01*
X223799490Y-82241055D01*
X223732777Y-82079995D01*
X223635924Y-81935045D01*
X223512655Y-81811776D01*
X223367705Y-81714923D01*
X223206645Y-81648210D01*
X223035665Y-81614200D01*
X222861335Y-81614200D01*
X222690355Y-81648210D01*
X222529295Y-81714923D01*
X222384345Y-81811776D01*
X222261076Y-81935045D01*
X222164223Y-82079995D01*
X222097510Y-82241055D01*
X222063500Y-82412035D01*
X180796000Y-82412035D01*
X180796000Y-80979655D01*
X249877800Y-80979655D01*
X249877800Y-81326345D01*
X249945436Y-81666373D01*
X250078108Y-81986673D01*
X250270719Y-82274935D01*
X250515865Y-82520081D01*
X250804127Y-82712692D01*
X251124427Y-82845364D01*
X251464455Y-82913000D01*
X251811145Y-82913000D01*
X252151173Y-82845364D01*
X252471473Y-82712692D01*
X252759735Y-82520081D01*
X253004881Y-82274935D01*
X253197492Y-81986673D01*
X253330164Y-81666373D01*
X253397800Y-81326345D01*
X253397800Y-80979655D01*
X254957800Y-80979655D01*
X254957800Y-81326345D01*
X255025436Y-81666373D01*
X255158108Y-81986673D01*
X255350719Y-82274935D01*
X255595865Y-82520081D01*
X255884127Y-82712692D01*
X256204427Y-82845364D01*
X256544455Y-82913000D01*
X256891145Y-82913000D01*
X257231173Y-82845364D01*
X257551473Y-82712692D01*
X257839735Y-82520081D01*
X258084881Y-82274935D01*
X258277492Y-81986673D01*
X258410164Y-81666373D01*
X258426389Y-81584800D01*
X262337615Y-81584800D01*
X262366287Y-81875911D01*
X262451201Y-82155834D01*
X262589094Y-82413814D01*
X262774666Y-82639934D01*
X263000786Y-82825506D01*
X263055591Y-82854800D01*
X263000786Y-82884094D01*
X262774666Y-83069666D01*
X262589094Y-83295786D01*
X262451201Y-83553766D01*
X262366287Y-83833689D01*
X262337615Y-84124800D01*
X262366287Y-84415911D01*
X262451201Y-84695834D01*
X262589094Y-84953814D01*
X262774666Y-85179934D01*
X263000786Y-85365506D01*
X263258766Y-85503399D01*
X263538689Y-85588313D01*
X263756850Y-85609800D01*
X263902750Y-85609800D01*
X264120911Y-85588313D01*
X264400834Y-85503399D01*
X264600762Y-85396535D01*
X277460900Y-85396535D01*
X277460900Y-85570865D01*
X277494910Y-85741845D01*
X277561623Y-85902905D01*
X277658476Y-86047855D01*
X277781745Y-86171124D01*
X277926695Y-86267977D01*
X278087755Y-86334690D01*
X278258735Y-86368700D01*
X278433065Y-86368700D01*
X278604045Y-86334690D01*
X278765105Y-86267977D01*
X278910055Y-86171124D01*
X279033324Y-86047855D01*
X279130177Y-85902905D01*
X279196890Y-85741845D01*
X279230900Y-85570865D01*
X279230900Y-85396535D01*
X279196890Y-85225555D01*
X279130177Y-85064495D01*
X279033324Y-84919545D01*
X278910055Y-84796276D01*
X278765105Y-84699423D01*
X278604045Y-84632710D01*
X278433065Y-84598700D01*
X278258735Y-84598700D01*
X278087755Y-84632710D01*
X277926695Y-84699423D01*
X277781745Y-84796276D01*
X277658476Y-84919545D01*
X277561623Y-85064495D01*
X277494910Y-85225555D01*
X277460900Y-85396535D01*
X264600762Y-85396535D01*
X264658814Y-85365506D01*
X264884934Y-85179934D01*
X265070506Y-84953814D01*
X265208399Y-84695834D01*
X265293313Y-84415911D01*
X265321985Y-84124800D01*
X265293313Y-83833689D01*
X265285835Y-83809035D01*
X266411900Y-83809035D01*
X266411900Y-83983365D01*
X266445910Y-84154345D01*
X266512623Y-84315405D01*
X266609476Y-84460355D01*
X266732745Y-84583624D01*
X266877695Y-84680477D01*
X267038755Y-84747190D01*
X267209735Y-84781200D01*
X267384065Y-84781200D01*
X267555045Y-84747190D01*
X267716105Y-84680477D01*
X267861055Y-84583624D01*
X267984324Y-84460355D01*
X268081177Y-84315405D01*
X268147890Y-84154345D01*
X268181900Y-83983365D01*
X268181900Y-83809035D01*
X268147890Y-83638055D01*
X268081177Y-83476995D01*
X267984324Y-83332045D01*
X267861055Y-83208776D01*
X267716105Y-83111923D01*
X267555045Y-83045210D01*
X267384065Y-83011200D01*
X267209735Y-83011200D01*
X267038755Y-83045210D01*
X266877695Y-83111923D01*
X266732745Y-83208776D01*
X266609476Y-83332045D01*
X266512623Y-83476995D01*
X266445910Y-83638055D01*
X266411900Y-83809035D01*
X265285835Y-83809035D01*
X265208399Y-83553766D01*
X265070506Y-83295786D01*
X264884934Y-83069666D01*
X264658814Y-82884094D01*
X264604009Y-82854800D01*
X264658814Y-82825506D01*
X264884934Y-82639934D01*
X265070506Y-82413814D01*
X265208399Y-82155834D01*
X265293313Y-81875911D01*
X265321985Y-81584800D01*
X265293313Y-81293689D01*
X265208399Y-81013766D01*
X265070506Y-80755786D01*
X264884934Y-80529666D01*
X264855113Y-80505193D01*
X264923980Y-80484302D01*
X265034294Y-80425337D01*
X265130985Y-80345985D01*
X265210337Y-80249294D01*
X265269302Y-80138980D01*
X265305612Y-80019282D01*
X265317872Y-79894800D01*
X265317872Y-78194800D01*
X265305612Y-78070318D01*
X265269302Y-77950620D01*
X265210337Y-77840306D01*
X265130985Y-77743615D01*
X265034294Y-77664263D01*
X264923980Y-77605298D01*
X264804282Y-77568988D01*
X264679800Y-77556728D01*
X262979800Y-77556728D01*
X262855318Y-77568988D01*
X262735620Y-77605298D01*
X262625306Y-77664263D01*
X262528615Y-77743615D01*
X262449263Y-77840306D01*
X262390298Y-77950620D01*
X262353988Y-78070318D01*
X262341728Y-78194800D01*
X262341728Y-79894800D01*
X262353988Y-80019282D01*
X262390298Y-80138980D01*
X262449263Y-80249294D01*
X262528615Y-80345985D01*
X262625306Y-80425337D01*
X262735620Y-80484302D01*
X262804487Y-80505193D01*
X262774666Y-80529666D01*
X262589094Y-80755786D01*
X262451201Y-81013766D01*
X262366287Y-81293689D01*
X262337615Y-81584800D01*
X258426389Y-81584800D01*
X258477800Y-81326345D01*
X258477800Y-80979655D01*
X258410164Y-80639627D01*
X258277492Y-80319327D01*
X258084881Y-80031065D01*
X257839735Y-79785919D01*
X257551473Y-79593308D01*
X257231173Y-79460636D01*
X256891145Y-79393000D01*
X256544455Y-79393000D01*
X256204427Y-79460636D01*
X255884127Y-79593308D01*
X255595865Y-79785919D01*
X255350719Y-80031065D01*
X255158108Y-80319327D01*
X255025436Y-80639627D01*
X254957800Y-80979655D01*
X253397800Y-80979655D01*
X253330164Y-80639627D01*
X253197492Y-80319327D01*
X253004881Y-80031065D01*
X252759735Y-79785919D01*
X252471473Y-79593308D01*
X252151173Y-79460636D01*
X251811145Y-79393000D01*
X251464455Y-79393000D01*
X251124427Y-79460636D01*
X250804127Y-79593308D01*
X250515865Y-79785919D01*
X250270719Y-80031065D01*
X250078108Y-80319327D01*
X249945436Y-80639627D01*
X249877800Y-80979655D01*
X180796000Y-80979655D01*
X180796000Y-78843335D01*
X232922000Y-78843335D01*
X232922000Y-79017665D01*
X232956010Y-79188645D01*
X233022723Y-79349705D01*
X233119576Y-79494655D01*
X233242845Y-79617924D01*
X233387795Y-79714777D01*
X233548855Y-79781490D01*
X233719835Y-79815500D01*
X233894165Y-79815500D01*
X234065145Y-79781490D01*
X234226205Y-79714777D01*
X234371155Y-79617924D01*
X234494424Y-79494655D01*
X234591277Y-79349705D01*
X234657990Y-79188645D01*
X234692000Y-79017665D01*
X234692000Y-78843335D01*
X234700000Y-78843335D01*
X234700000Y-79017665D01*
X234734010Y-79188645D01*
X234800723Y-79349705D01*
X234897576Y-79494655D01*
X235020845Y-79617924D01*
X235165795Y-79714777D01*
X235326855Y-79781490D01*
X235497835Y-79815500D01*
X235672165Y-79815500D01*
X235843145Y-79781490D01*
X236004205Y-79714777D01*
X236149155Y-79617924D01*
X236272424Y-79494655D01*
X236369277Y-79349705D01*
X236435990Y-79188645D01*
X236470000Y-79017665D01*
X236470000Y-78843335D01*
X242955000Y-78843335D01*
X242955000Y-79017665D01*
X242989010Y-79188645D01*
X243055723Y-79349705D01*
X243152576Y-79494655D01*
X243275845Y-79617924D01*
X243420795Y-79714777D01*
X243581855Y-79781490D01*
X243752835Y-79815500D01*
X243927165Y-79815500D01*
X244098145Y-79781490D01*
X244259205Y-79714777D01*
X244404155Y-79617924D01*
X244527424Y-79494655D01*
X244624277Y-79349705D01*
X244690990Y-79188645D01*
X244725000Y-79017665D01*
X244725000Y-78843335D01*
X244690990Y-78672355D01*
X244624277Y-78511295D01*
X244527424Y-78366345D01*
X244404155Y-78243076D01*
X244259205Y-78146223D01*
X244098145Y-78079510D01*
X243927165Y-78045500D01*
X243752835Y-78045500D01*
X243581855Y-78079510D01*
X243420795Y-78146223D01*
X243275845Y-78243076D01*
X243152576Y-78366345D01*
X243055723Y-78511295D01*
X242989010Y-78672355D01*
X242955000Y-78843335D01*
X236470000Y-78843335D01*
X236435990Y-78672355D01*
X236369277Y-78511295D01*
X236272424Y-78366345D01*
X236149155Y-78243076D01*
X236004205Y-78146223D01*
X235843145Y-78079510D01*
X235672165Y-78045500D01*
X235497835Y-78045500D01*
X235326855Y-78079510D01*
X235165795Y-78146223D01*
X235020845Y-78243076D01*
X234897576Y-78366345D01*
X234800723Y-78511295D01*
X234734010Y-78672355D01*
X234700000Y-78843335D01*
X234692000Y-78843335D01*
X234657990Y-78672355D01*
X234591277Y-78511295D01*
X234494424Y-78366345D01*
X234371155Y-78243076D01*
X234226205Y-78146223D01*
X234065145Y-78079510D01*
X233894165Y-78045500D01*
X233719835Y-78045500D01*
X233548855Y-78079510D01*
X233387795Y-78146223D01*
X233242845Y-78243076D01*
X233119576Y-78366345D01*
X233022723Y-78511295D01*
X232956010Y-78672355D01*
X232922000Y-78843335D01*
X180796000Y-78843335D01*
X180796000Y-73068721D01*
X185698000Y-73068721D01*
X185698000Y-73489279D01*
X185780047Y-73901756D01*
X185940988Y-74290302D01*
X186174637Y-74639983D01*
X186472017Y-74937363D01*
X186821698Y-75171012D01*
X187210244Y-75331953D01*
X187622721Y-75414000D01*
X188043279Y-75414000D01*
X188455756Y-75331953D01*
X188844302Y-75171012D01*
X189193983Y-74937363D01*
X189491363Y-74639983D01*
X189725012Y-74290302D01*
X189885953Y-73901756D01*
X189968000Y-73489279D01*
X189968000Y-73068721D01*
X190778000Y-73068721D01*
X190778000Y-73489279D01*
X190860047Y-73901756D01*
X191020988Y-74290302D01*
X191254637Y-74639983D01*
X191552017Y-74937363D01*
X191901698Y-75171012D01*
X192290244Y-75331953D01*
X192702721Y-75414000D01*
X193123279Y-75414000D01*
X193535756Y-75331953D01*
X193924302Y-75171012D01*
X194273983Y-74937363D01*
X194571363Y-74639983D01*
X194805012Y-74290302D01*
X194965953Y-73901756D01*
X195048000Y-73489279D01*
X195048000Y-73068721D01*
X194965953Y-72656244D01*
X194805012Y-72267698D01*
X194571363Y-71918017D01*
X194432346Y-71779000D01*
X195854928Y-71779000D01*
X195854928Y-74779000D01*
X195867188Y-74903482D01*
X195903498Y-75023180D01*
X195962463Y-75133494D01*
X196041815Y-75230185D01*
X196138506Y-75309537D01*
X196248820Y-75368502D01*
X196368518Y-75404812D01*
X196493000Y-75417072D01*
X199493000Y-75417072D01*
X199520790Y-75414335D01*
X226190998Y-75414335D01*
X226190998Y-75588665D01*
X226225008Y-75759645D01*
X226291721Y-75920705D01*
X226388574Y-76065655D01*
X226511843Y-76188924D01*
X226656793Y-76285777D01*
X226817853Y-76352490D01*
X226988833Y-76386500D01*
X227163163Y-76386500D01*
X227334143Y-76352490D01*
X227495203Y-76285777D01*
X227640153Y-76188924D01*
X227763422Y-76065655D01*
X227860275Y-75920705D01*
X227926988Y-75759645D01*
X227960998Y-75588665D01*
X227960998Y-75414335D01*
X227926988Y-75243355D01*
X227860275Y-75082295D01*
X227763422Y-74937345D01*
X227732412Y-74906335D01*
X233049000Y-74906335D01*
X233049000Y-75080665D01*
X233083010Y-75251645D01*
X233149723Y-75412705D01*
X233246576Y-75557655D01*
X233369845Y-75680924D01*
X233514795Y-75777777D01*
X233675855Y-75844490D01*
X233846835Y-75878500D01*
X234021165Y-75878500D01*
X234192145Y-75844490D01*
X234353205Y-75777777D01*
X234498155Y-75680924D01*
X234621424Y-75557655D01*
X234623842Y-75554035D01*
X264379900Y-75554035D01*
X264379900Y-75728365D01*
X264413910Y-75899345D01*
X264480623Y-76060405D01*
X264577476Y-76205355D01*
X264700745Y-76328624D01*
X264845695Y-76425477D01*
X265006755Y-76492190D01*
X265177735Y-76526200D01*
X265352065Y-76526200D01*
X265523045Y-76492190D01*
X265684105Y-76425477D01*
X265829055Y-76328624D01*
X265952324Y-76205355D01*
X266049177Y-76060405D01*
X266115890Y-75899345D01*
X266149900Y-75728365D01*
X266149900Y-75554035D01*
X266115890Y-75383055D01*
X266049177Y-75221995D01*
X265952324Y-75077045D01*
X265829055Y-74953776D01*
X265684105Y-74856923D01*
X265523045Y-74790210D01*
X265352065Y-74756200D01*
X265177735Y-74756200D01*
X265006755Y-74790210D01*
X264845695Y-74856923D01*
X264700745Y-74953776D01*
X264577476Y-75077045D01*
X264480623Y-75221995D01*
X264413910Y-75383055D01*
X264379900Y-75554035D01*
X234623842Y-75554035D01*
X234718277Y-75412705D01*
X234784990Y-75251645D01*
X234819000Y-75080665D01*
X234819000Y-74906335D01*
X234784990Y-74735355D01*
X234718277Y-74574295D01*
X234621424Y-74429345D01*
X234498155Y-74306076D01*
X234353205Y-74209223D01*
X234192145Y-74142510D01*
X234021165Y-74108500D01*
X233846835Y-74108500D01*
X233675855Y-74142510D01*
X233514795Y-74209223D01*
X233369845Y-74306076D01*
X233246576Y-74429345D01*
X233149723Y-74574295D01*
X233083010Y-74735355D01*
X233049000Y-74906335D01*
X227732412Y-74906335D01*
X227640153Y-74814076D01*
X227495203Y-74717223D01*
X227334143Y-74650510D01*
X227163163Y-74616500D01*
X226988833Y-74616500D01*
X226817853Y-74650510D01*
X226656793Y-74717223D01*
X226511843Y-74814076D01*
X226388574Y-74937345D01*
X226291721Y-75082295D01*
X226225008Y-75243355D01*
X226190998Y-75414335D01*
X199520790Y-75414335D01*
X199617482Y-75404812D01*
X199737180Y-75368502D01*
X199847494Y-75309537D01*
X199944185Y-75230185D01*
X200023537Y-75133494D01*
X200082502Y-75023180D01*
X200118812Y-74903482D01*
X200131072Y-74779000D01*
X200131072Y-71779000D01*
X200118812Y-71654518D01*
X200082502Y-71534820D01*
X200023537Y-71424506D01*
X199944185Y-71327815D01*
X199847494Y-71248463D01*
X199737180Y-71189498D01*
X199617482Y-71153188D01*
X199493000Y-71140928D01*
X196493000Y-71140928D01*
X196368518Y-71153188D01*
X196248820Y-71189498D01*
X196138506Y-71248463D01*
X196041815Y-71327815D01*
X195962463Y-71424506D01*
X195903498Y-71534820D01*
X195867188Y-71654518D01*
X195854928Y-71779000D01*
X194432346Y-71779000D01*
X194273983Y-71620637D01*
X193924302Y-71386988D01*
X193535756Y-71226047D01*
X193123279Y-71144000D01*
X192702721Y-71144000D01*
X192290244Y-71226047D01*
X191901698Y-71386988D01*
X191552017Y-71620637D01*
X191254637Y-71918017D01*
X191020988Y-72267698D01*
X190860047Y-72656244D01*
X190778000Y-73068721D01*
X189968000Y-73068721D01*
X189885953Y-72656244D01*
X189725012Y-72267698D01*
X189491363Y-71918017D01*
X189193983Y-71620637D01*
X188844302Y-71386988D01*
X188455756Y-71226047D01*
X188043279Y-71144000D01*
X187622721Y-71144000D01*
X187210244Y-71226047D01*
X186821698Y-71386988D01*
X186472017Y-71620637D01*
X186174637Y-71918017D01*
X185940988Y-72267698D01*
X185780047Y-72656244D01*
X185698000Y-73068721D01*
X180796000Y-73068721D01*
X180796000Y-68639272D01*
X204419400Y-68639272D01*
X204419400Y-69079528D01*
X204505290Y-69511325D01*
X204673769Y-69918069D01*
X204918362Y-70284129D01*
X205229671Y-70595438D01*
X205595731Y-70840031D01*
X206002475Y-71008510D01*
X206434272Y-71094400D01*
X206874528Y-71094400D01*
X207306325Y-71008510D01*
X207713069Y-70840031D01*
X208079129Y-70595438D01*
X208390438Y-70284129D01*
X208635031Y-69918069D01*
X208803510Y-69511325D01*
X208889400Y-69079528D01*
X208889400Y-68639272D01*
X208803510Y-68207475D01*
X208659302Y-67859326D01*
X208978044Y-67991353D01*
X209390521Y-68073400D01*
X209811079Y-68073400D01*
X210223556Y-67991353D01*
X210511638Y-67872026D01*
X210372690Y-68207475D01*
X210286800Y-68639272D01*
X210286800Y-69079528D01*
X210372690Y-69511325D01*
X210541169Y-69918069D01*
X210785762Y-70284129D01*
X211097071Y-70595438D01*
X211463131Y-70840031D01*
X211869875Y-71008510D01*
X212301672Y-71094400D01*
X212741928Y-71094400D01*
X213173725Y-71008510D01*
X213580469Y-70840031D01*
X213946529Y-70595438D01*
X214257838Y-70284129D01*
X214502431Y-69918069D01*
X214670910Y-69511325D01*
X214756800Y-69079528D01*
X214756800Y-68639272D01*
X214670910Y-68207475D01*
X214502431Y-67800731D01*
X214257838Y-67434671D01*
X213946529Y-67123362D01*
X213580469Y-66878769D01*
X213173725Y-66710290D01*
X212741928Y-66624400D01*
X212301672Y-66624400D01*
X211869875Y-66710290D01*
X211534426Y-66849238D01*
X211653753Y-66561156D01*
X211735800Y-66148679D01*
X211735800Y-65728121D01*
X211653753Y-65315644D01*
X211516465Y-64984202D01*
X211895275Y-65141110D01*
X212327072Y-65227000D01*
X212767328Y-65227000D01*
X213199125Y-65141110D01*
X213605869Y-64972631D01*
X213971929Y-64728038D01*
X214283238Y-64416729D01*
X214527831Y-64050669D01*
X214696310Y-63643925D01*
X214782200Y-63212128D01*
X214782200Y-62771872D01*
X214777148Y-62746472D01*
X215951000Y-62746472D01*
X215951000Y-63186728D01*
X216036890Y-63618525D01*
X216205369Y-64025269D01*
X216449962Y-64391329D01*
X216761271Y-64702638D01*
X217127331Y-64947231D01*
X217534075Y-65115710D01*
X217965872Y-65201600D01*
X218406128Y-65201600D01*
X218837925Y-65115710D01*
X219186074Y-64971502D01*
X219054047Y-65290244D01*
X218972000Y-65702721D01*
X218972000Y-66123279D01*
X219054047Y-66535756D01*
X219173374Y-66823838D01*
X218837925Y-66684890D01*
X218406128Y-66599000D01*
X217965872Y-66599000D01*
X217534075Y-66684890D01*
X217127331Y-66853369D01*
X216761271Y-67097962D01*
X216449962Y-67409271D01*
X216205369Y-67775331D01*
X216036890Y-68182075D01*
X215951000Y-68613872D01*
X215951000Y-69054128D01*
X216036890Y-69485925D01*
X216205369Y-69892669D01*
X216449962Y-70258729D01*
X216761271Y-70570038D01*
X217127331Y-70814631D01*
X217534075Y-70983110D01*
X217965872Y-71069000D01*
X218406128Y-71069000D01*
X218837925Y-70983110D01*
X219244669Y-70814631D01*
X219610729Y-70570038D01*
X219922038Y-70258729D01*
X220166631Y-69892669D01*
X220335110Y-69485925D01*
X220421000Y-69054128D01*
X220421000Y-68613872D01*
X220335110Y-68182075D01*
X220196162Y-67846626D01*
X220484244Y-67965953D01*
X220896721Y-68048000D01*
X221317279Y-68048000D01*
X221729756Y-67965953D01*
X222061198Y-67828665D01*
X221904290Y-68207475D01*
X221818400Y-68639272D01*
X221818400Y-69079528D01*
X221904290Y-69511325D01*
X222072769Y-69918069D01*
X222317362Y-70284129D01*
X222628671Y-70595438D01*
X222994731Y-70840031D01*
X223401475Y-71008510D01*
X223833272Y-71094400D01*
X224273528Y-71094400D01*
X224705325Y-71008510D01*
X225112069Y-70840031D01*
X225478129Y-70595438D01*
X225789438Y-70284129D01*
X226034031Y-69918069D01*
X226202510Y-69511325D01*
X226288400Y-69079528D01*
X226288400Y-68639272D01*
X226237078Y-68381255D01*
X226674900Y-68381255D01*
X226674900Y-68727945D01*
X226742536Y-69067973D01*
X226875208Y-69388273D01*
X227067819Y-69676535D01*
X227312965Y-69921681D01*
X227601227Y-70114292D01*
X227921527Y-70246964D01*
X228261555Y-70314600D01*
X228608245Y-70314600D01*
X228948273Y-70246964D01*
X229268573Y-70114292D01*
X229556835Y-69921681D01*
X229801981Y-69676535D01*
X229994592Y-69388273D01*
X230127264Y-69067973D01*
X230194900Y-68727945D01*
X230194900Y-68381255D01*
X231754900Y-68381255D01*
X231754900Y-68727945D01*
X231822536Y-69067973D01*
X231955208Y-69388273D01*
X232147819Y-69676535D01*
X232392965Y-69921681D01*
X232681227Y-70114292D01*
X233001527Y-70246964D01*
X233341555Y-70314600D01*
X233688245Y-70314600D01*
X234028273Y-70246964D01*
X234093285Y-70220035D01*
X259744400Y-70220035D01*
X259744400Y-70394365D01*
X259778410Y-70565345D01*
X259845123Y-70726405D01*
X259941976Y-70871355D01*
X260065245Y-70994624D01*
X260210195Y-71091477D01*
X260371255Y-71158190D01*
X260542235Y-71192200D01*
X260716565Y-71192200D01*
X260887545Y-71158190D01*
X261006216Y-71109035D01*
X270564800Y-71109035D01*
X270564800Y-71283365D01*
X270598810Y-71454345D01*
X270665523Y-71615405D01*
X270762376Y-71760355D01*
X270885645Y-71883624D01*
X271030595Y-71980477D01*
X271191655Y-72047190D01*
X271362635Y-72081200D01*
X271536965Y-72081200D01*
X271707945Y-72047190D01*
X271869005Y-71980477D01*
X272013955Y-71883624D01*
X272137224Y-71760355D01*
X272234077Y-71615405D01*
X272300790Y-71454345D01*
X272334800Y-71283365D01*
X272334800Y-71109035D01*
X272300790Y-70938055D01*
X272234077Y-70776995D01*
X272137224Y-70632045D01*
X272013955Y-70508776D01*
X271869005Y-70411923D01*
X271707945Y-70345210D01*
X271536965Y-70311200D01*
X271362635Y-70311200D01*
X271191655Y-70345210D01*
X271030595Y-70411923D01*
X270885645Y-70508776D01*
X270762376Y-70632045D01*
X270665523Y-70776995D01*
X270598810Y-70938055D01*
X270564800Y-71109035D01*
X261006216Y-71109035D01*
X261048605Y-71091477D01*
X261193555Y-70994624D01*
X261316824Y-70871355D01*
X261413677Y-70726405D01*
X261480390Y-70565345D01*
X261514400Y-70394365D01*
X261514400Y-70220035D01*
X261480390Y-70049055D01*
X261413677Y-69887995D01*
X261316824Y-69743045D01*
X261193555Y-69619776D01*
X261048605Y-69522923D01*
X260887545Y-69456210D01*
X260716565Y-69422200D01*
X260542235Y-69422200D01*
X260371255Y-69456210D01*
X260210195Y-69522923D01*
X260065245Y-69619776D01*
X259941976Y-69743045D01*
X259845123Y-69887995D01*
X259778410Y-70049055D01*
X259744400Y-70220035D01*
X234093285Y-70220035D01*
X234348573Y-70114292D01*
X234636835Y-69921681D01*
X234881981Y-69676535D01*
X235074592Y-69388273D01*
X235140384Y-69229435D01*
X246688800Y-69229435D01*
X246688800Y-69403765D01*
X246722810Y-69574745D01*
X246789523Y-69735805D01*
X246886376Y-69880755D01*
X247009645Y-70004024D01*
X247154595Y-70100877D01*
X247315655Y-70167590D01*
X247486635Y-70201600D01*
X247660965Y-70201600D01*
X247831945Y-70167590D01*
X247993005Y-70100877D01*
X248137955Y-70004024D01*
X248261224Y-69880755D01*
X248358077Y-69735805D01*
X248424790Y-69574745D01*
X248458800Y-69403765D01*
X248458800Y-69229435D01*
X248593800Y-69229435D01*
X248593800Y-69403765D01*
X248627810Y-69574745D01*
X248694523Y-69735805D01*
X248791376Y-69880755D01*
X248914645Y-70004024D01*
X249059595Y-70100877D01*
X249220655Y-70167590D01*
X249391635Y-70201600D01*
X249565965Y-70201600D01*
X249736945Y-70167590D01*
X249898005Y-70100877D01*
X250042955Y-70004024D01*
X250166224Y-69880755D01*
X250263077Y-69735805D01*
X250329790Y-69574745D01*
X250363800Y-69403765D01*
X250363800Y-69229435D01*
X250329790Y-69058455D01*
X250263077Y-68897395D01*
X250166224Y-68752445D01*
X250042955Y-68629176D01*
X249898005Y-68532323D01*
X249736945Y-68465610D01*
X249565965Y-68431600D01*
X249391635Y-68431600D01*
X249220655Y-68465610D01*
X249059595Y-68532323D01*
X248914645Y-68629176D01*
X248791376Y-68752445D01*
X248694523Y-68897395D01*
X248627810Y-69058455D01*
X248593800Y-69229435D01*
X248458800Y-69229435D01*
X248424790Y-69058455D01*
X248358077Y-68897395D01*
X248261224Y-68752445D01*
X248137955Y-68629176D01*
X247993005Y-68532323D01*
X247831945Y-68465610D01*
X247660965Y-68431600D01*
X247486635Y-68431600D01*
X247315655Y-68465610D01*
X247154595Y-68532323D01*
X247009645Y-68629176D01*
X246886376Y-68752445D01*
X246789523Y-68897395D01*
X246722810Y-69058455D01*
X246688800Y-69229435D01*
X235140384Y-69229435D01*
X235207264Y-69067973D01*
X235274900Y-68727945D01*
X235274900Y-68381255D01*
X235207264Y-68041227D01*
X235147083Y-67895935D01*
X240719799Y-67895935D01*
X240719799Y-68070265D01*
X240753809Y-68241245D01*
X240820522Y-68402305D01*
X240917375Y-68547255D01*
X241040644Y-68670524D01*
X241185594Y-68767377D01*
X241346654Y-68834090D01*
X241517634Y-68868100D01*
X241691964Y-68868100D01*
X241862944Y-68834090D01*
X242024004Y-68767377D01*
X242168954Y-68670524D01*
X242292223Y-68547255D01*
X242389076Y-68402305D01*
X242455789Y-68241245D01*
X242489799Y-68070265D01*
X242489799Y-67895935D01*
X242455789Y-67724955D01*
X242389076Y-67563895D01*
X242292223Y-67418945D01*
X242168954Y-67295676D01*
X242024004Y-67198823D01*
X241862944Y-67132110D01*
X241691964Y-67098100D01*
X241517634Y-67098100D01*
X241346654Y-67132110D01*
X241185594Y-67198823D01*
X241040644Y-67295676D01*
X240917375Y-67418945D01*
X240820522Y-67563895D01*
X240753809Y-67724955D01*
X240719799Y-67895935D01*
X235147083Y-67895935D01*
X235074592Y-67720927D01*
X234881981Y-67432665D01*
X234636835Y-67187519D01*
X234348573Y-66994908D01*
X234028273Y-66862236D01*
X233688245Y-66794600D01*
X233341555Y-66794600D01*
X233001527Y-66862236D01*
X232681227Y-66994908D01*
X232392965Y-67187519D01*
X232147819Y-67432665D01*
X231955208Y-67720927D01*
X231822536Y-68041227D01*
X231754900Y-68381255D01*
X230194900Y-68381255D01*
X230127264Y-68041227D01*
X229994592Y-67720927D01*
X229801981Y-67432665D01*
X229556835Y-67187519D01*
X229268573Y-66994908D01*
X228948273Y-66862236D01*
X228608245Y-66794600D01*
X228261555Y-66794600D01*
X227921527Y-66862236D01*
X227601227Y-66994908D01*
X227312965Y-67187519D01*
X227067819Y-67432665D01*
X226875208Y-67720927D01*
X226742536Y-68041227D01*
X226674900Y-68381255D01*
X226237078Y-68381255D01*
X226202510Y-68207475D01*
X226034031Y-67800731D01*
X225789438Y-67434671D01*
X225478129Y-67123362D01*
X225112069Y-66878769D01*
X224705325Y-66710290D01*
X224273528Y-66624400D01*
X223833272Y-66624400D01*
X223401475Y-66710290D01*
X223022665Y-66867198D01*
X223159953Y-66535756D01*
X223242000Y-66123279D01*
X223242000Y-65851104D01*
X229314900Y-65851104D01*
X229314900Y-66178096D01*
X229378693Y-66498804D01*
X229503827Y-66800905D01*
X229685494Y-67072788D01*
X229916712Y-67304006D01*
X230188595Y-67485673D01*
X230490696Y-67610807D01*
X230811404Y-67674600D01*
X231138396Y-67674600D01*
X231459104Y-67610807D01*
X231761205Y-67485673D01*
X232033088Y-67304006D01*
X232264306Y-67072788D01*
X232445973Y-66800905D01*
X232571107Y-66498804D01*
X232608973Y-66308435D01*
X251895800Y-66308435D01*
X251895800Y-66482765D01*
X251929810Y-66653745D01*
X251996523Y-66814805D01*
X252093376Y-66959755D01*
X252216645Y-67083024D01*
X252361595Y-67179877D01*
X252522655Y-67246590D01*
X252693635Y-67280600D01*
X252867965Y-67280600D01*
X253038945Y-67246590D01*
X253200005Y-67179877D01*
X253344955Y-67083024D01*
X253468224Y-66959755D01*
X253565077Y-66814805D01*
X253631790Y-66653745D01*
X253665800Y-66482765D01*
X253665800Y-66308435D01*
X253631790Y-66137455D01*
X253565077Y-65976395D01*
X253468224Y-65831445D01*
X253344955Y-65708176D01*
X253200005Y-65611323D01*
X253038945Y-65544610D01*
X252867965Y-65510600D01*
X252693635Y-65510600D01*
X252522655Y-65544610D01*
X252361595Y-65611323D01*
X252216645Y-65708176D01*
X252093376Y-65831445D01*
X251996523Y-65976395D01*
X251929810Y-66137455D01*
X251895800Y-66308435D01*
X232608973Y-66308435D01*
X232634900Y-66178096D01*
X232634900Y-65851104D01*
X232571107Y-65530396D01*
X232445973Y-65228295D01*
X232264306Y-64956412D01*
X232033088Y-64725194D01*
X231761205Y-64543527D01*
X231459104Y-64418393D01*
X231138396Y-64354600D01*
X230811404Y-64354600D01*
X230490696Y-64418393D01*
X230188595Y-64543527D01*
X229916712Y-64725194D01*
X229685494Y-64956412D01*
X229503827Y-65228295D01*
X229378693Y-65530396D01*
X229314900Y-65851104D01*
X223242000Y-65851104D01*
X223242000Y-65702721D01*
X223159953Y-65290244D01*
X223035365Y-64989462D01*
X223401475Y-65141110D01*
X223833272Y-65227000D01*
X224273528Y-65227000D01*
X224705325Y-65141110D01*
X225112069Y-64972631D01*
X225478129Y-64728038D01*
X225789438Y-64416729D01*
X226034031Y-64050669D01*
X226202510Y-63643925D01*
X226270671Y-63301255D01*
X226674900Y-63301255D01*
X226674900Y-63647945D01*
X226742536Y-63987973D01*
X226875208Y-64308273D01*
X227067819Y-64596535D01*
X227312965Y-64841681D01*
X227601227Y-65034292D01*
X227921527Y-65166964D01*
X228261555Y-65234600D01*
X228608245Y-65234600D01*
X228948273Y-65166964D01*
X229268573Y-65034292D01*
X229556835Y-64841681D01*
X229801981Y-64596535D01*
X229994592Y-64308273D01*
X230127264Y-63987973D01*
X230194900Y-63647945D01*
X230194900Y-63301255D01*
X231754900Y-63301255D01*
X231754900Y-63647945D01*
X231822536Y-63987973D01*
X231955208Y-64308273D01*
X232147819Y-64596535D01*
X232392965Y-64841681D01*
X232681227Y-65034292D01*
X233001527Y-65166964D01*
X233341555Y-65234600D01*
X233688245Y-65234600D01*
X234028273Y-65166964D01*
X234348573Y-65034292D01*
X234636835Y-64841681D01*
X234881981Y-64596535D01*
X235074592Y-64308273D01*
X235207264Y-63987973D01*
X235274900Y-63647945D01*
X235274900Y-63514435D01*
X251895800Y-63514435D01*
X251895800Y-63688765D01*
X251929810Y-63859745D01*
X251996523Y-64020805D01*
X252093376Y-64165755D01*
X252216645Y-64289024D01*
X252361595Y-64385877D01*
X252522655Y-64452590D01*
X252693635Y-64486600D01*
X252867965Y-64486600D01*
X253038945Y-64452590D01*
X253200005Y-64385877D01*
X253344955Y-64289024D01*
X253468224Y-64165755D01*
X253565077Y-64020805D01*
X253578789Y-63987701D01*
X270519000Y-63987701D01*
X270519000Y-64536299D01*
X270626026Y-65074354D01*
X270835965Y-65581192D01*
X271140750Y-66037334D01*
X271528666Y-66425250D01*
X271984808Y-66730035D01*
X272491646Y-66939974D01*
X273029701Y-67047000D01*
X273578299Y-67047000D01*
X274116354Y-66939974D01*
X274623192Y-66730035D01*
X275079334Y-66425250D01*
X275467250Y-66037334D01*
X275772035Y-65581192D01*
X275981974Y-65074354D01*
X276089000Y-64536299D01*
X276089000Y-63987701D01*
X275981974Y-63449646D01*
X275772035Y-62942808D01*
X275467250Y-62486666D01*
X275079334Y-62098750D01*
X274623192Y-61793965D01*
X274116354Y-61584026D01*
X273578299Y-61477000D01*
X273029701Y-61477000D01*
X272491646Y-61584026D01*
X271984808Y-61793965D01*
X271528666Y-62098750D01*
X271140750Y-62486666D01*
X270835965Y-62942808D01*
X270626026Y-63449646D01*
X270519000Y-63987701D01*
X253578789Y-63987701D01*
X253631790Y-63859745D01*
X253665800Y-63688765D01*
X253665800Y-63514435D01*
X253631790Y-63343455D01*
X253565077Y-63182395D01*
X253468224Y-63037445D01*
X253344955Y-62914176D01*
X253200005Y-62817323D01*
X253038945Y-62750610D01*
X252867965Y-62716600D01*
X252693635Y-62716600D01*
X252522655Y-62750610D01*
X252361595Y-62817323D01*
X252216645Y-62914176D01*
X252093376Y-63037445D01*
X251996523Y-63182395D01*
X251929810Y-63343455D01*
X251895800Y-63514435D01*
X235274900Y-63514435D01*
X235274900Y-63301255D01*
X235207264Y-62961227D01*
X235074592Y-62640927D01*
X234881981Y-62352665D01*
X234636835Y-62107519D01*
X234348573Y-61914908D01*
X234028273Y-61782236D01*
X233688245Y-61714600D01*
X233341555Y-61714600D01*
X233001527Y-61782236D01*
X232681227Y-61914908D01*
X232392965Y-62107519D01*
X232147819Y-62352665D01*
X231955208Y-62640927D01*
X231822536Y-62961227D01*
X231754900Y-63301255D01*
X230194900Y-63301255D01*
X230127264Y-62961227D01*
X229994592Y-62640927D01*
X229801981Y-62352665D01*
X229556835Y-62107519D01*
X229268573Y-61914908D01*
X228948273Y-61782236D01*
X228608245Y-61714600D01*
X228261555Y-61714600D01*
X227921527Y-61782236D01*
X227601227Y-61914908D01*
X227312965Y-62107519D01*
X227067819Y-62352665D01*
X226875208Y-62640927D01*
X226742536Y-62961227D01*
X226674900Y-63301255D01*
X226270671Y-63301255D01*
X226288400Y-63212128D01*
X226288400Y-62771872D01*
X226202510Y-62340075D01*
X226034031Y-61933331D01*
X225789438Y-61567271D01*
X225478129Y-61255962D01*
X225112069Y-61011369D01*
X224705325Y-60842890D01*
X224273528Y-60757000D01*
X223833272Y-60757000D01*
X223401475Y-60842890D01*
X222994731Y-61011369D01*
X222628671Y-61255962D01*
X222317362Y-61567271D01*
X222072769Y-61933331D01*
X221904290Y-62340075D01*
X221818400Y-62771872D01*
X221818400Y-63212128D01*
X221904290Y-63643925D01*
X222048498Y-63992074D01*
X221729756Y-63860047D01*
X221317279Y-63778000D01*
X220896721Y-63778000D01*
X220484244Y-63860047D01*
X220183462Y-63984635D01*
X220335110Y-63618525D01*
X220421000Y-63186728D01*
X220421000Y-62746472D01*
X220335110Y-62314675D01*
X220166631Y-61907931D01*
X219922038Y-61541871D01*
X219610729Y-61230562D01*
X219244669Y-60985969D01*
X218837925Y-60817490D01*
X218406128Y-60731600D01*
X217965872Y-60731600D01*
X217534075Y-60817490D01*
X217127331Y-60985969D01*
X216761271Y-61230562D01*
X216449962Y-61541871D01*
X216205369Y-61907931D01*
X216036890Y-62314675D01*
X215951000Y-62746472D01*
X214777148Y-62746472D01*
X214696310Y-62340075D01*
X214527831Y-61933331D01*
X214283238Y-61567271D01*
X213971929Y-61255962D01*
X213605869Y-61011369D01*
X213199125Y-60842890D01*
X212767328Y-60757000D01*
X212327072Y-60757000D01*
X211895275Y-60842890D01*
X211488531Y-61011369D01*
X211122471Y-61255962D01*
X210811162Y-61567271D01*
X210566569Y-61933331D01*
X210398090Y-62340075D01*
X210312200Y-62771872D01*
X210312200Y-63212128D01*
X210398090Y-63643925D01*
X210554998Y-64022735D01*
X210223556Y-63885447D01*
X209811079Y-63803400D01*
X209390521Y-63803400D01*
X208978044Y-63885447D01*
X208677262Y-64010035D01*
X208828910Y-63643925D01*
X208914800Y-63212128D01*
X208914800Y-62771872D01*
X208828910Y-62340075D01*
X208660431Y-61933331D01*
X208415838Y-61567271D01*
X208104529Y-61255962D01*
X207738469Y-61011369D01*
X207331725Y-60842890D01*
X206899928Y-60757000D01*
X206459672Y-60757000D01*
X206027875Y-60842890D01*
X205621131Y-61011369D01*
X205255071Y-61255962D01*
X204943762Y-61567271D01*
X204699169Y-61933331D01*
X204530690Y-62340075D01*
X204444800Y-62771872D01*
X204444800Y-63212128D01*
X204530690Y-63643925D01*
X204699169Y-64050669D01*
X204943762Y-64416729D01*
X205255071Y-64728038D01*
X205621131Y-64972631D01*
X206027875Y-65141110D01*
X206459672Y-65227000D01*
X206899928Y-65227000D01*
X207331725Y-65141110D01*
X207679874Y-64996902D01*
X207547847Y-65315644D01*
X207465800Y-65728121D01*
X207465800Y-66148679D01*
X207547847Y-66561156D01*
X207672435Y-66861938D01*
X207306325Y-66710290D01*
X206874528Y-66624400D01*
X206434272Y-66624400D01*
X206002475Y-66710290D01*
X205595731Y-66878769D01*
X205229671Y-67123362D01*
X204918362Y-67434671D01*
X204673769Y-67800731D01*
X204505290Y-68207475D01*
X204419400Y-68639272D01*
X180796000Y-68639272D01*
X180796000Y-66642212D01*
X195718000Y-66642212D01*
X195718000Y-66865788D01*
X195761617Y-67085067D01*
X195847176Y-67291624D01*
X195971388Y-67477520D01*
X196129480Y-67635612D01*
X196315376Y-67759824D01*
X196521933Y-67845383D01*
X196741212Y-67889000D01*
X196964788Y-67889000D01*
X197184067Y-67845383D01*
X197390624Y-67759824D01*
X197576520Y-67635612D01*
X197734612Y-67477520D01*
X197858824Y-67291624D01*
X197944383Y-67085067D01*
X197988000Y-66865788D01*
X197988000Y-66642212D01*
X197944383Y-66422933D01*
X197858824Y-66216376D01*
X197734612Y-66030480D01*
X197576520Y-65872388D01*
X197390624Y-65748176D01*
X197184067Y-65662617D01*
X196964788Y-65619000D01*
X196741212Y-65619000D01*
X196521933Y-65662617D01*
X196315376Y-65748176D01*
X196129480Y-65872388D01*
X195971388Y-66030480D01*
X195847176Y-66216376D01*
X195761617Y-66422933D01*
X195718000Y-66642212D01*
X180796000Y-66642212D01*
X180796000Y-62082701D01*
X181746000Y-62082701D01*
X181746000Y-62631299D01*
X181853026Y-63169354D01*
X182062965Y-63676192D01*
X182367750Y-64132334D01*
X182755666Y-64520250D01*
X183211808Y-64825035D01*
X183718646Y-65034974D01*
X184256701Y-65142000D01*
X184805299Y-65142000D01*
X185343354Y-65034974D01*
X185850192Y-64825035D01*
X186306334Y-64520250D01*
X186694250Y-64132334D01*
X186999035Y-63676192D01*
X187173912Y-63254000D01*
X191524928Y-63254000D01*
X191524928Y-64254000D01*
X191541992Y-64427254D01*
X191592528Y-64593850D01*
X191674595Y-64747386D01*
X191785038Y-64881962D01*
X191919614Y-64992405D01*
X192073150Y-65074472D01*
X192239746Y-65125008D01*
X192413000Y-65142072D01*
X193413000Y-65142072D01*
X193586254Y-65125008D01*
X193752850Y-65074472D01*
X193906386Y-64992405D01*
X194040962Y-64881962D01*
X194151405Y-64747386D01*
X194233472Y-64593850D01*
X194284008Y-64427254D01*
X194301072Y-64254000D01*
X194301072Y-63617589D01*
X194528000Y-63617589D01*
X194528000Y-63890411D01*
X194581225Y-64157989D01*
X194685629Y-64410043D01*
X194837201Y-64636886D01*
X195030114Y-64829799D01*
X195256957Y-64981371D01*
X195509011Y-65085775D01*
X195776589Y-65139000D01*
X196049411Y-65139000D01*
X196316989Y-65085775D01*
X196569043Y-64981371D01*
X196795886Y-64829799D01*
X196988799Y-64636886D01*
X197140371Y-64410043D01*
X197244775Y-64157989D01*
X197298000Y-63890411D01*
X197298000Y-63617589D01*
X197244775Y-63350011D01*
X197140371Y-63097957D01*
X196988799Y-62871114D01*
X196795886Y-62678201D01*
X196569043Y-62526629D01*
X196316989Y-62422225D01*
X196049411Y-62369000D01*
X195776589Y-62369000D01*
X195509011Y-62422225D01*
X195256957Y-62526629D01*
X195030114Y-62678201D01*
X194837201Y-62871114D01*
X194685629Y-63097957D01*
X194581225Y-63350011D01*
X194528000Y-63617589D01*
X194301072Y-63617589D01*
X194301072Y-63254000D01*
X194284008Y-63080746D01*
X194233472Y-62914150D01*
X194151405Y-62760614D01*
X194040962Y-62626038D01*
X193906386Y-62515595D01*
X193752850Y-62433528D01*
X193586254Y-62382992D01*
X193413000Y-62365928D01*
X192413000Y-62365928D01*
X192239746Y-62382992D01*
X192073150Y-62433528D01*
X191919614Y-62515595D01*
X191785038Y-62626038D01*
X191674595Y-62760614D01*
X191592528Y-62914150D01*
X191541992Y-63080746D01*
X191524928Y-63254000D01*
X187173912Y-63254000D01*
X187208974Y-63169354D01*
X187316000Y-62631299D01*
X187316000Y-62082701D01*
X187208974Y-61544646D01*
X186999035Y-61037808D01*
X186734706Y-60642212D01*
X195718000Y-60642212D01*
X195718000Y-60865788D01*
X195761617Y-61085067D01*
X195847176Y-61291624D01*
X195971388Y-61477520D01*
X196129480Y-61635612D01*
X196315376Y-61759824D01*
X196521933Y-61845383D01*
X196741212Y-61889000D01*
X196964788Y-61889000D01*
X197184067Y-61845383D01*
X197390624Y-61759824D01*
X197576520Y-61635612D01*
X197734612Y-61477520D01*
X197858824Y-61291624D01*
X197944383Y-61085067D01*
X197988000Y-60865788D01*
X197988000Y-60642212D01*
X197944383Y-60422933D01*
X197858824Y-60216376D01*
X197734612Y-60030480D01*
X197576520Y-59872388D01*
X197390624Y-59748176D01*
X197184067Y-59662617D01*
X196964788Y-59619000D01*
X196741212Y-59619000D01*
X196521933Y-59662617D01*
X196315376Y-59748176D01*
X196129480Y-59872388D01*
X195971388Y-60030480D01*
X195847176Y-60216376D01*
X195761617Y-60422933D01*
X195718000Y-60642212D01*
X186734706Y-60642212D01*
X186694250Y-60581666D01*
X186306334Y-60193750D01*
X185850192Y-59888965D01*
X185343354Y-59679026D01*
X184805299Y-59572000D01*
X184256701Y-59572000D01*
X183718646Y-59679026D01*
X183211808Y-59888965D01*
X182755666Y-60193750D01*
X182367750Y-60581666D01*
X182062965Y-61037808D01*
X181853026Y-61544646D01*
X181746000Y-62082701D01*
X180796000Y-62082701D01*
X180796000Y-58749000D01*
X279706000Y-58749000D01*
X279706001Y-157659000D01*
M02*
