G04 #@! TF.GenerationSoftware,KiCad,Pcbnew,(5.1.2-1)-1*
G04 #@! TF.CreationDate,2019-07-19T20:23:14+01:00*
G04 #@! TF.ProjectId,CurrentSinkModule,43757272-656e-4745-9369-6e6b4d6f6475,RevC*
G04 #@! TF.SameCoordinates,Original*
G04 #@! TF.FileFunction,Legend,Bot*
G04 #@! TF.FilePolarity,Positive*
%FSLAX46Y46*%
G04 Gerber Fmt 4.6, Leading zero omitted, Abs format (unit mm)*
G04 Created by KiCad (PCBNEW (5.1.2-1)-1) date 2019-07-19 20:23:14*
%MOMM*%
%LPD*%
G04 APERTURE LIST*
%ADD10C,0.120000*%
%ADD11C,0.150000*%
G04 APERTURE END LIST*
D10*
X260874000Y-150365000D02*
X260874000Y-153165000D01*
X260874000Y-153165000D02*
X262874000Y-153165000D01*
X262874000Y-153165000D02*
X262874000Y-150365000D01*
X262874000Y-150365000D02*
X260874000Y-150365000D01*
X252983300Y-78152500D02*
X255783300Y-78152500D01*
X255783300Y-78152500D02*
X255783300Y-76152500D01*
X255783300Y-76152500D02*
X252983300Y-76152500D01*
X252983300Y-76152500D02*
X252983300Y-78152500D01*
X239544100Y-152542700D02*
X239544100Y-149742700D01*
X239544100Y-149742700D02*
X237544100Y-149742700D01*
X237544100Y-149742700D02*
X237544100Y-152542700D01*
X237544100Y-152542700D02*
X239544100Y-152542700D01*
X235562900Y-65264600D02*
X235562900Y-68064600D01*
X235562900Y-68064600D02*
X237562900Y-68064600D01*
X237562900Y-68064600D02*
X237562900Y-65264600D01*
X237562900Y-65264600D02*
X235562900Y-65264600D01*
D11*
X265461666Y-151326904D02*
X265461666Y-151898333D01*
X265499761Y-152012619D01*
X265575952Y-152088809D01*
X265690238Y-152126904D01*
X265766428Y-152126904D01*
X265080714Y-152126904D02*
X265080714Y-151326904D01*
X264775952Y-151326904D01*
X264699761Y-151365000D01*
X264661666Y-151403095D01*
X264623571Y-151479285D01*
X264623571Y-151593571D01*
X264661666Y-151669761D01*
X264699761Y-151707857D01*
X264775952Y-151745952D01*
X265080714Y-151745952D01*
X263937857Y-151593571D02*
X263937857Y-152126904D01*
X264128333Y-151288809D02*
X264318809Y-151860238D01*
X263823571Y-151860238D01*
X255113466Y-74288704D02*
X255113466Y-74860133D01*
X255151561Y-74974419D01*
X255227752Y-75050609D01*
X255342038Y-75088704D01*
X255418228Y-75088704D01*
X254732514Y-75088704D02*
X254732514Y-74288704D01*
X254427752Y-74288704D01*
X254351561Y-74326800D01*
X254313466Y-74364895D01*
X254275371Y-74441085D01*
X254275371Y-74555371D01*
X254313466Y-74631561D01*
X254351561Y-74669657D01*
X254427752Y-74707752D01*
X254732514Y-74707752D01*
X254008704Y-74288704D02*
X253513466Y-74288704D01*
X253780133Y-74593466D01*
X253665847Y-74593466D01*
X253589657Y-74631561D01*
X253551561Y-74669657D01*
X253513466Y-74745847D01*
X253513466Y-74936323D01*
X253551561Y-75012514D01*
X253589657Y-75050609D01*
X253665847Y-75088704D01*
X253894419Y-75088704D01*
X253970609Y-75050609D01*
X254008704Y-75012514D01*
X242322266Y-150704604D02*
X242322266Y-151276033D01*
X242360361Y-151390319D01*
X242436552Y-151466509D01*
X242550838Y-151504604D01*
X242627028Y-151504604D01*
X241941314Y-151504604D02*
X241941314Y-150704604D01*
X241636552Y-150704604D01*
X241560361Y-150742700D01*
X241522266Y-150780795D01*
X241484171Y-150856985D01*
X241484171Y-150971271D01*
X241522266Y-151047461D01*
X241560361Y-151085557D01*
X241636552Y-151123652D01*
X241941314Y-151123652D01*
X241179409Y-150780795D02*
X241141314Y-150742700D01*
X241065123Y-150704604D01*
X240874647Y-150704604D01*
X240798457Y-150742700D01*
X240760361Y-150780795D01*
X240722266Y-150856985D01*
X240722266Y-150933176D01*
X240760361Y-151047461D01*
X241217504Y-151504604D01*
X240722266Y-151504604D01*
X240010866Y-66226504D02*
X240010866Y-66797933D01*
X240048961Y-66912219D01*
X240125152Y-66988409D01*
X240239438Y-67026504D01*
X240315628Y-67026504D01*
X239629914Y-67026504D02*
X239629914Y-66226504D01*
X239325152Y-66226504D01*
X239248961Y-66264600D01*
X239210866Y-66302695D01*
X239172771Y-66378885D01*
X239172771Y-66493171D01*
X239210866Y-66569361D01*
X239248961Y-66607457D01*
X239325152Y-66645552D01*
X239629914Y-66645552D01*
X238410866Y-67026504D02*
X238868009Y-67026504D01*
X238639438Y-67026504D02*
X238639438Y-66226504D01*
X238715628Y-66340790D01*
X238791819Y-66416980D01*
X238868009Y-66455076D01*
X247529285Y-148367714D02*
X247567380Y-148405809D01*
X247681666Y-148443904D01*
X247757857Y-148443904D01*
X247872142Y-148405809D01*
X247948333Y-148329619D01*
X247986428Y-148253428D01*
X248024523Y-148101047D01*
X248024523Y-147986761D01*
X247986428Y-147834380D01*
X247948333Y-147758190D01*
X247872142Y-147682000D01*
X247757857Y-147643904D01*
X247681666Y-147643904D01*
X247567380Y-147682000D01*
X247529285Y-147720095D01*
X247262619Y-147643904D02*
X246767380Y-147643904D01*
X247034047Y-147948666D01*
X246919761Y-147948666D01*
X246843571Y-147986761D01*
X246805476Y-148024857D01*
X246767380Y-148101047D01*
X246767380Y-148291523D01*
X246805476Y-148367714D01*
X246843571Y-148405809D01*
X246919761Y-148443904D01*
X247148333Y-148443904D01*
X247224523Y-148405809D01*
X247262619Y-148367714D01*
X246081666Y-147910571D02*
X246081666Y-148443904D01*
X246272142Y-147605809D02*
X246462619Y-148177238D01*
X245967380Y-148177238D01*
X252609285Y-142652714D02*
X252647380Y-142690809D01*
X252761666Y-142728904D01*
X252837857Y-142728904D01*
X252952142Y-142690809D01*
X253028333Y-142614619D01*
X253066428Y-142538428D01*
X253104523Y-142386047D01*
X253104523Y-142271761D01*
X253066428Y-142119380D01*
X253028333Y-142043190D01*
X252952142Y-141967000D01*
X252837857Y-141928904D01*
X252761666Y-141928904D01*
X252647380Y-141967000D01*
X252609285Y-142005095D01*
X252342619Y-141928904D02*
X251847380Y-141928904D01*
X252114047Y-142233666D01*
X251999761Y-142233666D01*
X251923571Y-142271761D01*
X251885476Y-142309857D01*
X251847380Y-142386047D01*
X251847380Y-142576523D01*
X251885476Y-142652714D01*
X251923571Y-142690809D01*
X251999761Y-142728904D01*
X252228333Y-142728904D01*
X252304523Y-142690809D01*
X252342619Y-142652714D01*
X251580714Y-141928904D02*
X251085476Y-141928904D01*
X251352142Y-142233666D01*
X251237857Y-142233666D01*
X251161666Y-142271761D01*
X251123571Y-142309857D01*
X251085476Y-142386047D01*
X251085476Y-142576523D01*
X251123571Y-142652714D01*
X251161666Y-142690809D01*
X251237857Y-142728904D01*
X251466428Y-142728904D01*
X251542619Y-142690809D01*
X251580714Y-142652714D01*
X247529285Y-143287714D02*
X247567380Y-143325809D01*
X247681666Y-143363904D01*
X247757857Y-143363904D01*
X247872142Y-143325809D01*
X247948333Y-143249619D01*
X247986428Y-143173428D01*
X248024523Y-143021047D01*
X248024523Y-142906761D01*
X247986428Y-142754380D01*
X247948333Y-142678190D01*
X247872142Y-142602000D01*
X247757857Y-142563904D01*
X247681666Y-142563904D01*
X247567380Y-142602000D01*
X247529285Y-142640095D01*
X247262619Y-142563904D02*
X246767380Y-142563904D01*
X247034047Y-142868666D01*
X246919761Y-142868666D01*
X246843571Y-142906761D01*
X246805476Y-142944857D01*
X246767380Y-143021047D01*
X246767380Y-143211523D01*
X246805476Y-143287714D01*
X246843571Y-143325809D01*
X246919761Y-143363904D01*
X247148333Y-143363904D01*
X247224523Y-143325809D01*
X247262619Y-143287714D01*
X246462619Y-142640095D02*
X246424523Y-142602000D01*
X246348333Y-142563904D01*
X246157857Y-142563904D01*
X246081666Y-142602000D01*
X246043571Y-142640095D01*
X246005476Y-142716285D01*
X246005476Y-142792476D01*
X246043571Y-142906761D01*
X246500714Y-143363904D01*
X246005476Y-143363904D01*
X252609285Y-138307714D02*
X252647380Y-138345809D01*
X252761666Y-138383904D01*
X252837857Y-138383904D01*
X252952142Y-138345809D01*
X253028333Y-138269619D01*
X253066428Y-138193428D01*
X253104523Y-138041047D01*
X253104523Y-137926761D01*
X253066428Y-137774380D01*
X253028333Y-137698190D01*
X252952142Y-137622000D01*
X252837857Y-137583904D01*
X252761666Y-137583904D01*
X252647380Y-137622000D01*
X252609285Y-137660095D01*
X252342619Y-137583904D02*
X251847380Y-137583904D01*
X252114047Y-137888666D01*
X251999761Y-137888666D01*
X251923571Y-137926761D01*
X251885476Y-137964857D01*
X251847380Y-138041047D01*
X251847380Y-138231523D01*
X251885476Y-138307714D01*
X251923571Y-138345809D01*
X251999761Y-138383904D01*
X252228333Y-138383904D01*
X252304523Y-138345809D01*
X252342619Y-138307714D01*
X251085476Y-138383904D02*
X251542619Y-138383904D01*
X251314047Y-138383904D02*
X251314047Y-137583904D01*
X251390238Y-137698190D01*
X251466428Y-137774380D01*
X251542619Y-137812476D01*
X269335185Y-87610914D02*
X269373280Y-87649009D01*
X269487566Y-87687104D01*
X269563757Y-87687104D01*
X269678042Y-87649009D01*
X269754233Y-87572819D01*
X269792328Y-87496628D01*
X269830423Y-87344247D01*
X269830423Y-87229961D01*
X269792328Y-87077580D01*
X269754233Y-87001390D01*
X269678042Y-86925200D01*
X269563757Y-86887104D01*
X269487566Y-86887104D01*
X269373280Y-86925200D01*
X269335185Y-86963295D01*
X269068519Y-86887104D02*
X268573280Y-86887104D01*
X268839947Y-87191866D01*
X268725661Y-87191866D01*
X268649471Y-87229961D01*
X268611376Y-87268057D01*
X268573280Y-87344247D01*
X268573280Y-87534723D01*
X268611376Y-87610914D01*
X268649471Y-87649009D01*
X268725661Y-87687104D01*
X268954233Y-87687104D01*
X269030423Y-87649009D01*
X269068519Y-87610914D01*
X268078042Y-86887104D02*
X268001852Y-86887104D01*
X267925661Y-86925200D01*
X267887566Y-86963295D01*
X267849471Y-87039485D01*
X267811376Y-87191866D01*
X267811376Y-87382342D01*
X267849471Y-87534723D01*
X267887566Y-87610914D01*
X267925661Y-87649009D01*
X268001852Y-87687104D01*
X268078042Y-87687104D01*
X268154233Y-87649009D01*
X268192328Y-87610914D01*
X268230423Y-87534723D01*
X268268519Y-87382342D01*
X268268519Y-87191866D01*
X268230423Y-87039485D01*
X268192328Y-86963295D01*
X268154233Y-86925200D01*
X268078042Y-86887104D01*
X274288185Y-77296914D02*
X274326280Y-77335009D01*
X274440566Y-77373104D01*
X274516757Y-77373104D01*
X274631042Y-77335009D01*
X274707233Y-77258819D01*
X274745328Y-77182628D01*
X274783423Y-77030247D01*
X274783423Y-76915961D01*
X274745328Y-76763580D01*
X274707233Y-76687390D01*
X274631042Y-76611200D01*
X274516757Y-76573104D01*
X274440566Y-76573104D01*
X274326280Y-76611200D01*
X274288185Y-76649295D01*
X273983423Y-76649295D02*
X273945328Y-76611200D01*
X273869138Y-76573104D01*
X273678661Y-76573104D01*
X273602471Y-76611200D01*
X273564376Y-76649295D01*
X273526280Y-76725485D01*
X273526280Y-76801676D01*
X273564376Y-76915961D01*
X274021519Y-77373104D01*
X273526280Y-77373104D01*
X273145328Y-77373104D02*
X272992947Y-77373104D01*
X272916757Y-77335009D01*
X272878661Y-77296914D01*
X272802471Y-77182628D01*
X272764376Y-77030247D01*
X272764376Y-76725485D01*
X272802471Y-76649295D01*
X272840566Y-76611200D01*
X272916757Y-76573104D01*
X273069138Y-76573104D01*
X273145328Y-76611200D01*
X273183423Y-76649295D01*
X273221519Y-76725485D01*
X273221519Y-76915961D01*
X273183423Y-76992152D01*
X273145328Y-77030247D01*
X273069138Y-77068342D01*
X272916757Y-77068342D01*
X272840566Y-77030247D01*
X272802471Y-76992152D01*
X272764376Y-76915961D01*
X269271685Y-82530914D02*
X269309780Y-82569009D01*
X269424066Y-82607104D01*
X269500257Y-82607104D01*
X269614542Y-82569009D01*
X269690733Y-82492819D01*
X269728828Y-82416628D01*
X269766923Y-82264247D01*
X269766923Y-82149961D01*
X269728828Y-81997580D01*
X269690733Y-81921390D01*
X269614542Y-81845200D01*
X269500257Y-81807104D01*
X269424066Y-81807104D01*
X269309780Y-81845200D01*
X269271685Y-81883295D01*
X268966923Y-81883295D02*
X268928828Y-81845200D01*
X268852638Y-81807104D01*
X268662161Y-81807104D01*
X268585971Y-81845200D01*
X268547876Y-81883295D01*
X268509780Y-81959485D01*
X268509780Y-82035676D01*
X268547876Y-82149961D01*
X269005019Y-82607104D01*
X268509780Y-82607104D01*
X268052638Y-82149961D02*
X268128828Y-82111866D01*
X268166923Y-82073771D01*
X268205019Y-81997580D01*
X268205019Y-81959485D01*
X268166923Y-81883295D01*
X268128828Y-81845200D01*
X268052638Y-81807104D01*
X267900257Y-81807104D01*
X267824066Y-81845200D01*
X267785971Y-81883295D01*
X267747876Y-81959485D01*
X267747876Y-81997580D01*
X267785971Y-82073771D01*
X267824066Y-82111866D01*
X267900257Y-82149961D01*
X268052638Y-82149961D01*
X268128828Y-82188057D01*
X268166923Y-82226152D01*
X268205019Y-82302342D01*
X268205019Y-82454723D01*
X268166923Y-82530914D01*
X268128828Y-82569009D01*
X268052638Y-82607104D01*
X267900257Y-82607104D01*
X267824066Y-82569009D01*
X267785971Y-82530914D01*
X267747876Y-82454723D01*
X267747876Y-82302342D01*
X267785971Y-82226152D01*
X267824066Y-82188057D01*
X267900257Y-82149961D01*
X274288185Y-81895914D02*
X274326280Y-81934009D01*
X274440566Y-81972104D01*
X274516757Y-81972104D01*
X274631042Y-81934009D01*
X274707233Y-81857819D01*
X274745328Y-81781628D01*
X274783423Y-81629247D01*
X274783423Y-81514961D01*
X274745328Y-81362580D01*
X274707233Y-81286390D01*
X274631042Y-81210200D01*
X274516757Y-81172104D01*
X274440566Y-81172104D01*
X274326280Y-81210200D01*
X274288185Y-81248295D01*
X273983423Y-81248295D02*
X273945328Y-81210200D01*
X273869138Y-81172104D01*
X273678661Y-81172104D01*
X273602471Y-81210200D01*
X273564376Y-81248295D01*
X273526280Y-81324485D01*
X273526280Y-81400676D01*
X273564376Y-81514961D01*
X274021519Y-81972104D01*
X273526280Y-81972104D01*
X273259614Y-81172104D02*
X272726280Y-81172104D01*
X273069138Y-81972104D01*
X269246285Y-147759714D02*
X269284380Y-147797809D01*
X269398666Y-147835904D01*
X269474857Y-147835904D01*
X269589142Y-147797809D01*
X269665333Y-147721619D01*
X269703428Y-147645428D01*
X269741523Y-147493047D01*
X269741523Y-147378761D01*
X269703428Y-147226380D01*
X269665333Y-147150190D01*
X269589142Y-147074000D01*
X269474857Y-147035904D01*
X269398666Y-147035904D01*
X269284380Y-147074000D01*
X269246285Y-147112095D01*
X268941523Y-147112095D02*
X268903428Y-147074000D01*
X268827238Y-147035904D01*
X268636761Y-147035904D01*
X268560571Y-147074000D01*
X268522476Y-147112095D01*
X268484380Y-147188285D01*
X268484380Y-147264476D01*
X268522476Y-147378761D01*
X268979619Y-147835904D01*
X268484380Y-147835904D01*
X267798666Y-147035904D02*
X267951047Y-147035904D01*
X268027238Y-147074000D01*
X268065333Y-147112095D01*
X268141523Y-147226380D01*
X268179619Y-147378761D01*
X268179619Y-147683523D01*
X268141523Y-147759714D01*
X268103428Y-147797809D01*
X268027238Y-147835904D01*
X267874857Y-147835904D01*
X267798666Y-147797809D01*
X267760571Y-147759714D01*
X267722476Y-147683523D01*
X267722476Y-147493047D01*
X267760571Y-147416857D01*
X267798666Y-147378761D01*
X267874857Y-147340666D01*
X268027238Y-147340666D01*
X268103428Y-147378761D01*
X268141523Y-147416857D01*
X268179619Y-147493047D01*
X274199285Y-141101714D02*
X274237380Y-141139809D01*
X274351666Y-141177904D01*
X274427857Y-141177904D01*
X274542142Y-141139809D01*
X274618333Y-141063619D01*
X274656428Y-140987428D01*
X274694523Y-140835047D01*
X274694523Y-140720761D01*
X274656428Y-140568380D01*
X274618333Y-140492190D01*
X274542142Y-140416000D01*
X274427857Y-140377904D01*
X274351666Y-140377904D01*
X274237380Y-140416000D01*
X274199285Y-140454095D01*
X273894523Y-140454095D02*
X273856428Y-140416000D01*
X273780238Y-140377904D01*
X273589761Y-140377904D01*
X273513571Y-140416000D01*
X273475476Y-140454095D01*
X273437380Y-140530285D01*
X273437380Y-140606476D01*
X273475476Y-140720761D01*
X273932619Y-141177904D01*
X273437380Y-141177904D01*
X272713571Y-140377904D02*
X273094523Y-140377904D01*
X273132619Y-140758857D01*
X273094523Y-140720761D01*
X273018333Y-140682666D01*
X272827857Y-140682666D01*
X272751666Y-140720761D01*
X272713571Y-140758857D01*
X272675476Y-140835047D01*
X272675476Y-141025523D01*
X272713571Y-141101714D01*
X272751666Y-141139809D01*
X272827857Y-141177904D01*
X273018333Y-141177904D01*
X273094523Y-141139809D01*
X273132619Y-141101714D01*
X237750285Y-82327714D02*
X237788380Y-82365809D01*
X237902666Y-82403904D01*
X237978857Y-82403904D01*
X238093142Y-82365809D01*
X238169333Y-82289619D01*
X238207428Y-82213428D01*
X238245523Y-82061047D01*
X238245523Y-81946761D01*
X238207428Y-81794380D01*
X238169333Y-81718190D01*
X238093142Y-81642000D01*
X237978857Y-81603904D01*
X237902666Y-81603904D01*
X237788380Y-81642000D01*
X237750285Y-81680095D01*
X237445523Y-81680095D02*
X237407428Y-81642000D01*
X237331238Y-81603904D01*
X237140761Y-81603904D01*
X237064571Y-81642000D01*
X237026476Y-81680095D01*
X236988380Y-81756285D01*
X236988380Y-81832476D01*
X237026476Y-81946761D01*
X237483619Y-82403904D01*
X236988380Y-82403904D01*
X236302666Y-81870571D02*
X236302666Y-82403904D01*
X236493142Y-81565809D02*
X236683619Y-82137238D01*
X236188380Y-82137238D01*
X242449285Y-74072714D02*
X242487380Y-74110809D01*
X242601666Y-74148904D01*
X242677857Y-74148904D01*
X242792142Y-74110809D01*
X242868333Y-74034619D01*
X242906428Y-73958428D01*
X242944523Y-73806047D01*
X242944523Y-73691761D01*
X242906428Y-73539380D01*
X242868333Y-73463190D01*
X242792142Y-73387000D01*
X242677857Y-73348904D01*
X242601666Y-73348904D01*
X242487380Y-73387000D01*
X242449285Y-73425095D01*
X242144523Y-73425095D02*
X242106428Y-73387000D01*
X242030238Y-73348904D01*
X241839761Y-73348904D01*
X241763571Y-73387000D01*
X241725476Y-73425095D01*
X241687380Y-73501285D01*
X241687380Y-73577476D01*
X241725476Y-73691761D01*
X242182619Y-74148904D01*
X241687380Y-74148904D01*
X241420714Y-73348904D02*
X240925476Y-73348904D01*
X241192142Y-73653666D01*
X241077857Y-73653666D01*
X241001666Y-73691761D01*
X240963571Y-73729857D01*
X240925476Y-73806047D01*
X240925476Y-73996523D01*
X240963571Y-74072714D01*
X241001666Y-74110809D01*
X241077857Y-74148904D01*
X241306428Y-74148904D01*
X241382619Y-74110809D01*
X241420714Y-74072714D01*
X269246285Y-143641714D02*
X269284380Y-143679809D01*
X269398666Y-143717904D01*
X269474857Y-143717904D01*
X269589142Y-143679809D01*
X269665333Y-143603619D01*
X269703428Y-143527428D01*
X269741523Y-143375047D01*
X269741523Y-143260761D01*
X269703428Y-143108380D01*
X269665333Y-143032190D01*
X269589142Y-142956000D01*
X269474857Y-142917904D01*
X269398666Y-142917904D01*
X269284380Y-142956000D01*
X269246285Y-142994095D01*
X268941523Y-142994095D02*
X268903428Y-142956000D01*
X268827238Y-142917904D01*
X268636761Y-142917904D01*
X268560571Y-142956000D01*
X268522476Y-142994095D01*
X268484380Y-143070285D01*
X268484380Y-143146476D01*
X268522476Y-143260761D01*
X268979619Y-143717904D01*
X268484380Y-143717904D01*
X268179619Y-142994095D02*
X268141523Y-142956000D01*
X268065333Y-142917904D01*
X267874857Y-142917904D01*
X267798666Y-142956000D01*
X267760571Y-142994095D01*
X267722476Y-143070285D01*
X267722476Y-143146476D01*
X267760571Y-143260761D01*
X268217714Y-143717904D01*
X267722476Y-143717904D01*
X274199285Y-145192714D02*
X274237380Y-145230809D01*
X274351666Y-145268904D01*
X274427857Y-145268904D01*
X274542142Y-145230809D01*
X274618333Y-145154619D01*
X274656428Y-145078428D01*
X274694523Y-144926047D01*
X274694523Y-144811761D01*
X274656428Y-144659380D01*
X274618333Y-144583190D01*
X274542142Y-144507000D01*
X274427857Y-144468904D01*
X274351666Y-144468904D01*
X274237380Y-144507000D01*
X274199285Y-144545095D01*
X273894523Y-144545095D02*
X273856428Y-144507000D01*
X273780238Y-144468904D01*
X273589761Y-144468904D01*
X273513571Y-144507000D01*
X273475476Y-144545095D01*
X273437380Y-144621285D01*
X273437380Y-144697476D01*
X273475476Y-144811761D01*
X273932619Y-145268904D01*
X273437380Y-145268904D01*
X272675476Y-145268904D02*
X273132619Y-145268904D01*
X272904047Y-145268904D02*
X272904047Y-144468904D01*
X272980238Y-144583190D01*
X273056428Y-144659380D01*
X273132619Y-144697476D01*
X237750285Y-77882714D02*
X237788380Y-77920809D01*
X237902666Y-77958904D01*
X237978857Y-77958904D01*
X238093142Y-77920809D01*
X238169333Y-77844619D01*
X238207428Y-77768428D01*
X238245523Y-77616047D01*
X238245523Y-77501761D01*
X238207428Y-77349380D01*
X238169333Y-77273190D01*
X238093142Y-77197000D01*
X237978857Y-77158904D01*
X237902666Y-77158904D01*
X237788380Y-77197000D01*
X237750285Y-77235095D01*
X237445523Y-77235095D02*
X237407428Y-77197000D01*
X237331238Y-77158904D01*
X237140761Y-77158904D01*
X237064571Y-77197000D01*
X237026476Y-77235095D01*
X236988380Y-77311285D01*
X236988380Y-77387476D01*
X237026476Y-77501761D01*
X237483619Y-77958904D01*
X236988380Y-77958904D01*
X236493142Y-77158904D02*
X236416952Y-77158904D01*
X236340761Y-77197000D01*
X236302666Y-77235095D01*
X236264571Y-77311285D01*
X236226476Y-77463666D01*
X236226476Y-77654142D01*
X236264571Y-77806523D01*
X236302666Y-77882714D01*
X236340761Y-77920809D01*
X236416952Y-77958904D01*
X236493142Y-77958904D01*
X236569333Y-77920809D01*
X236607428Y-77882714D01*
X236645523Y-77806523D01*
X236683619Y-77654142D01*
X236683619Y-77463666D01*
X236645523Y-77311285D01*
X236607428Y-77235095D01*
X236569333Y-77197000D01*
X236493142Y-77158904D01*
X242449285Y-77882714D02*
X242487380Y-77920809D01*
X242601666Y-77958904D01*
X242677857Y-77958904D01*
X242792142Y-77920809D01*
X242868333Y-77844619D01*
X242906428Y-77768428D01*
X242944523Y-77616047D01*
X242944523Y-77501761D01*
X242906428Y-77349380D01*
X242868333Y-77273190D01*
X242792142Y-77197000D01*
X242677857Y-77158904D01*
X242601666Y-77158904D01*
X242487380Y-77197000D01*
X242449285Y-77235095D01*
X241687380Y-77958904D02*
X242144523Y-77958904D01*
X241915952Y-77958904D02*
X241915952Y-77158904D01*
X241992142Y-77273190D01*
X242068333Y-77349380D01*
X242144523Y-77387476D01*
X241306428Y-77958904D02*
X241154047Y-77958904D01*
X241077857Y-77920809D01*
X241039761Y-77882714D01*
X240963571Y-77768428D01*
X240925476Y-77616047D01*
X240925476Y-77311285D01*
X240963571Y-77235095D01*
X241001666Y-77197000D01*
X241077857Y-77158904D01*
X241230238Y-77158904D01*
X241306428Y-77197000D01*
X241344523Y-77235095D01*
X241382619Y-77311285D01*
X241382619Y-77501761D01*
X241344523Y-77577952D01*
X241306428Y-77616047D01*
X241230238Y-77654142D01*
X241077857Y-77654142D01*
X241001666Y-77616047D01*
X240963571Y-77577952D01*
X240925476Y-77501761D01*
X251136085Y-68078314D02*
X251174180Y-68116409D01*
X251288466Y-68154504D01*
X251364657Y-68154504D01*
X251478942Y-68116409D01*
X251555133Y-68040219D01*
X251593228Y-67964028D01*
X251631323Y-67811647D01*
X251631323Y-67697361D01*
X251593228Y-67544980D01*
X251555133Y-67468790D01*
X251478942Y-67392600D01*
X251364657Y-67354504D01*
X251288466Y-67354504D01*
X251174180Y-67392600D01*
X251136085Y-67430695D01*
X250374180Y-68154504D02*
X250831323Y-68154504D01*
X250602752Y-68154504D02*
X250602752Y-67354504D01*
X250678942Y-67468790D01*
X250755133Y-67544980D01*
X250831323Y-67583076D01*
X250069419Y-67430695D02*
X250031323Y-67392600D01*
X249955133Y-67354504D01*
X249764657Y-67354504D01*
X249688466Y-67392600D01*
X249650371Y-67430695D01*
X249612276Y-67506885D01*
X249612276Y-67583076D01*
X249650371Y-67697361D01*
X250107514Y-68154504D01*
X249612276Y-68154504D01*
X256597085Y-67443314D02*
X256635180Y-67481409D01*
X256749466Y-67519504D01*
X256825657Y-67519504D01*
X256939942Y-67481409D01*
X257016133Y-67405219D01*
X257054228Y-67329028D01*
X257092323Y-67176647D01*
X257092323Y-67062361D01*
X257054228Y-66909980D01*
X257016133Y-66833790D01*
X256939942Y-66757600D01*
X256825657Y-66719504D01*
X256749466Y-66719504D01*
X256635180Y-66757600D01*
X256597085Y-66795695D01*
X255835180Y-67519504D02*
X256292323Y-67519504D01*
X256063752Y-67519504D02*
X256063752Y-66719504D01*
X256139942Y-66833790D01*
X256216133Y-66909980D01*
X256292323Y-66948076D01*
X255073276Y-67519504D02*
X255530419Y-67519504D01*
X255301847Y-67519504D02*
X255301847Y-66719504D01*
X255378038Y-66833790D01*
X255454228Y-66909980D01*
X255530419Y-66948076D01*
X251136085Y-72523314D02*
X251174180Y-72561409D01*
X251288466Y-72599504D01*
X251364657Y-72599504D01*
X251478942Y-72561409D01*
X251555133Y-72485219D01*
X251593228Y-72409028D01*
X251631323Y-72256647D01*
X251631323Y-72142361D01*
X251593228Y-71989980D01*
X251555133Y-71913790D01*
X251478942Y-71837600D01*
X251364657Y-71799504D01*
X251288466Y-71799504D01*
X251174180Y-71837600D01*
X251136085Y-71875695D01*
X250374180Y-72599504D02*
X250831323Y-72599504D01*
X250602752Y-72599504D02*
X250602752Y-71799504D01*
X250678942Y-71913790D01*
X250755133Y-71989980D01*
X250831323Y-72028076D01*
X249878942Y-71799504D02*
X249802752Y-71799504D01*
X249726561Y-71837600D01*
X249688466Y-71875695D01*
X249650371Y-71951885D01*
X249612276Y-72104266D01*
X249612276Y-72294742D01*
X249650371Y-72447123D01*
X249688466Y-72523314D01*
X249726561Y-72561409D01*
X249802752Y-72599504D01*
X249878942Y-72599504D01*
X249955133Y-72561409D01*
X249993228Y-72523314D01*
X250031323Y-72447123D01*
X250069419Y-72294742D01*
X250069419Y-72104266D01*
X250031323Y-71951885D01*
X249993228Y-71875695D01*
X249955133Y-71837600D01*
X249878942Y-71799504D01*
X256216133Y-63225314D02*
X256254228Y-63263409D01*
X256368514Y-63301504D01*
X256444704Y-63301504D01*
X256558990Y-63263409D01*
X256635180Y-63187219D01*
X256673276Y-63111028D01*
X256711371Y-62958647D01*
X256711371Y-62844361D01*
X256673276Y-62691980D01*
X256635180Y-62615790D01*
X256558990Y-62539600D01*
X256444704Y-62501504D01*
X256368514Y-62501504D01*
X256254228Y-62539600D01*
X256216133Y-62577695D01*
X255835180Y-63301504D02*
X255682800Y-63301504D01*
X255606609Y-63263409D01*
X255568514Y-63225314D01*
X255492323Y-63111028D01*
X255454228Y-62958647D01*
X255454228Y-62653885D01*
X255492323Y-62577695D01*
X255530419Y-62539600D01*
X255606609Y-62501504D01*
X255758990Y-62501504D01*
X255835180Y-62539600D01*
X255873276Y-62577695D01*
X255911371Y-62653885D01*
X255911371Y-62844361D01*
X255873276Y-62920552D01*
X255835180Y-62958647D01*
X255758990Y-62996742D01*
X255606609Y-62996742D01*
X255530419Y-62958647D01*
X255492323Y-62920552D01*
X255454228Y-62844361D01*
X228098333Y-142017714D02*
X228136428Y-142055809D01*
X228250714Y-142093904D01*
X228326904Y-142093904D01*
X228441190Y-142055809D01*
X228517380Y-141979619D01*
X228555476Y-141903428D01*
X228593571Y-141751047D01*
X228593571Y-141636761D01*
X228555476Y-141484380D01*
X228517380Y-141408190D01*
X228441190Y-141332000D01*
X228326904Y-141293904D01*
X228250714Y-141293904D01*
X228136428Y-141332000D01*
X228098333Y-141370095D01*
X227641190Y-141636761D02*
X227717380Y-141598666D01*
X227755476Y-141560571D01*
X227793571Y-141484380D01*
X227793571Y-141446285D01*
X227755476Y-141370095D01*
X227717380Y-141332000D01*
X227641190Y-141293904D01*
X227488809Y-141293904D01*
X227412619Y-141332000D01*
X227374523Y-141370095D01*
X227336428Y-141446285D01*
X227336428Y-141484380D01*
X227374523Y-141560571D01*
X227412619Y-141598666D01*
X227488809Y-141636761D01*
X227641190Y-141636761D01*
X227717380Y-141674857D01*
X227755476Y-141712952D01*
X227793571Y-141789142D01*
X227793571Y-141941523D01*
X227755476Y-142017714D01*
X227717380Y-142055809D01*
X227641190Y-142093904D01*
X227488809Y-142093904D01*
X227412619Y-142055809D01*
X227374523Y-142017714D01*
X227336428Y-141941523D01*
X227336428Y-141789142D01*
X227374523Y-141712952D01*
X227412619Y-141674857D01*
X227488809Y-141636761D01*
X230384333Y-135132714D02*
X230422428Y-135170809D01*
X230536714Y-135208904D01*
X230612904Y-135208904D01*
X230727190Y-135170809D01*
X230803380Y-135094619D01*
X230841476Y-135018428D01*
X230879571Y-134866047D01*
X230879571Y-134751761D01*
X230841476Y-134599380D01*
X230803380Y-134523190D01*
X230727190Y-134447000D01*
X230612904Y-134408904D01*
X230536714Y-134408904D01*
X230422428Y-134447000D01*
X230384333Y-134485095D01*
X230117666Y-134408904D02*
X229584333Y-134408904D01*
X229927190Y-135208904D01*
X228098333Y-143922714D02*
X228136428Y-143960809D01*
X228250714Y-143998904D01*
X228326904Y-143998904D01*
X228441190Y-143960809D01*
X228517380Y-143884619D01*
X228555476Y-143808428D01*
X228593571Y-143656047D01*
X228593571Y-143541761D01*
X228555476Y-143389380D01*
X228517380Y-143313190D01*
X228441190Y-143237000D01*
X228326904Y-143198904D01*
X228250714Y-143198904D01*
X228136428Y-143237000D01*
X228098333Y-143275095D01*
X227412619Y-143198904D02*
X227565000Y-143198904D01*
X227641190Y-143237000D01*
X227679285Y-143275095D01*
X227755476Y-143389380D01*
X227793571Y-143541761D01*
X227793571Y-143846523D01*
X227755476Y-143922714D01*
X227717380Y-143960809D01*
X227641190Y-143998904D01*
X227488809Y-143998904D01*
X227412619Y-143960809D01*
X227374523Y-143922714D01*
X227336428Y-143846523D01*
X227336428Y-143656047D01*
X227374523Y-143579857D01*
X227412619Y-143541761D01*
X227488809Y-143503666D01*
X227641190Y-143503666D01*
X227717380Y-143541761D01*
X227755476Y-143579857D01*
X227793571Y-143656047D01*
X230638333Y-139477714D02*
X230676428Y-139515809D01*
X230790714Y-139553904D01*
X230866904Y-139553904D01*
X230981190Y-139515809D01*
X231057380Y-139439619D01*
X231095476Y-139363428D01*
X231133571Y-139211047D01*
X231133571Y-139096761D01*
X231095476Y-138944380D01*
X231057380Y-138868190D01*
X230981190Y-138792000D01*
X230866904Y-138753904D01*
X230790714Y-138753904D01*
X230676428Y-138792000D01*
X230638333Y-138830095D01*
X229914523Y-138753904D02*
X230295476Y-138753904D01*
X230333571Y-139134857D01*
X230295476Y-139096761D01*
X230219285Y-139058666D01*
X230028809Y-139058666D01*
X229952619Y-139096761D01*
X229914523Y-139134857D01*
X229876428Y-139211047D01*
X229876428Y-139401523D01*
X229914523Y-139477714D01*
X229952619Y-139515809D01*
X230028809Y-139553904D01*
X230219285Y-139553904D01*
X230295476Y-139515809D01*
X230333571Y-139477714D01*
M02*
