G04 #@! TF.GenerationSoftware,KiCad,Pcbnew,(5.1.2-1)-1*
G04 #@! TF.CreationDate,2019-07-19T21:50:30+01:00*
G04 #@! TF.ProjectId,ControlModule,436f6e74-726f-46c4-9d6f-64756c652e6b,C*
G04 #@! TF.SameCoordinates,Original*
G04 #@! TF.FileFunction,Legend,Top*
G04 #@! TF.FilePolarity,Positive*
%FSLAX46Y46*%
G04 Gerber Fmt 4.6, Leading zero omitted, Abs format (unit mm)*
G04 Created by KiCad (PCBNEW (5.1.2-1)-1) date 2019-07-19 21:50:30*
%MOMM*%
%LPD*%
G04 APERTURE LIST*
%ADD10C,0.120000*%
%ADD11C,0.150000*%
%ADD12C,0.100000*%
G04 APERTURE END LIST*
D10*
X72355400Y-59994800D02*
X72355400Y-58664800D01*
X72355400Y-58664800D02*
X73685400Y-58664800D01*
X74955400Y-58664800D02*
X90255400Y-58664800D01*
X90255400Y-61324800D02*
X90255400Y-58664800D01*
X74955400Y-61324800D02*
X90255400Y-61324800D01*
X74955400Y-61324800D02*
X74955400Y-58664800D01*
D11*
X193230500Y-115189000D02*
X121729500Y-115189000D01*
X121729500Y-115189000D02*
X121729500Y-72771000D01*
X193230500Y-72771000D02*
X121729500Y-72771000D01*
X193230500Y-115189000D02*
X193230500Y-72771000D01*
X188150500Y-75311000D02*
X188150500Y-112776000D01*
X126746000Y-75311000D02*
X126746000Y-112776000D01*
X126746000Y-112776000D02*
X188150500Y-112776000D01*
X185547000Y-110744000D02*
X129540000Y-110744000D01*
X129540000Y-110744000D02*
X129540000Y-81661000D01*
X129540000Y-81661000D02*
X185547000Y-81661000D01*
X185547000Y-81661000D02*
X185547000Y-110744000D01*
X157480000Y-74295000D02*
X135001000Y-74295000D01*
X135001000Y-74295000D02*
X133731000Y-75311000D01*
X157480000Y-74295000D02*
X179959000Y-74295000D01*
X126746000Y-75311000D02*
X133731000Y-75311000D01*
X188150500Y-75311000D02*
X181229000Y-75311000D01*
X181229000Y-75311000D02*
X179959000Y-74295000D01*
X136588500Y-70358000D02*
X130238500Y-70358000D01*
X130238500Y-70358000D02*
X130238500Y-57658000D01*
X130238500Y-57658000D02*
X142938500Y-57658000D01*
X142938500Y-57658000D02*
X142938500Y-70358000D01*
X142938500Y-70358000D02*
X136588500Y-70358000D01*
X141414500Y-64008000D02*
G75*
G03X141414500Y-64008000I-4826000J0D01*
G01*
X150558500Y-70358000D02*
X144208500Y-70358000D01*
X144208500Y-70358000D02*
X144208500Y-57658000D01*
X144208500Y-57658000D02*
X156908500Y-57658000D01*
X156908500Y-57658000D02*
X156908500Y-70358000D01*
X156908500Y-70358000D02*
X150558500Y-70358000D01*
X155384500Y-64008000D02*
G75*
G03X155384500Y-64008000I-4826000J0D01*
G01*
X169354500Y-64008000D02*
G75*
G03X169354500Y-64008000I-4826000J0D01*
G01*
X170878500Y-70358000D02*
X164528500Y-70358000D01*
X170878500Y-57658000D02*
X170878500Y-70358000D01*
X158178500Y-57658000D02*
X170878500Y-57658000D01*
X158178500Y-70358000D02*
X158178500Y-57658000D01*
X164528500Y-70358000D02*
X158178500Y-70358000D01*
X178498500Y-70358000D02*
X172148500Y-70358000D01*
X172148500Y-70358000D02*
X172148500Y-57658000D01*
X172148500Y-57658000D02*
X184848500Y-57658000D01*
X184848500Y-57658000D02*
X184848500Y-70358000D01*
X184848500Y-70358000D02*
X178498500Y-70358000D01*
X183324500Y-64008000D02*
G75*
G03X183324500Y-64008000I-4826000J0D01*
G01*
D12*
X174519400Y-101770600D02*
X174552733Y-101803933D01*
X174586066Y-101903933D01*
X174586066Y-101970600D01*
X174552733Y-102070600D01*
X174486066Y-102137266D01*
X174419400Y-102170600D01*
X174286066Y-102203933D01*
X174186066Y-102203933D01*
X174052733Y-102170600D01*
X173986066Y-102137266D01*
X173919400Y-102070600D01*
X173886066Y-101970600D01*
X173886066Y-101903933D01*
X173919400Y-101803933D01*
X173952733Y-101770600D01*
X173886066Y-101537266D02*
X173886066Y-101103933D01*
X174152733Y-101337266D01*
X174152733Y-101237266D01*
X174186066Y-101170600D01*
X174219400Y-101137266D01*
X174286066Y-101103933D01*
X174452733Y-101103933D01*
X174519400Y-101137266D01*
X174552733Y-101170600D01*
X174586066Y-101237266D01*
X174586066Y-101437266D01*
X174552733Y-101503933D01*
X174519400Y-101537266D01*
X173886066Y-100670600D02*
X173886066Y-100603933D01*
X173919400Y-100537266D01*
X173952733Y-100503933D01*
X174019400Y-100470600D01*
X174152733Y-100437266D01*
X174319400Y-100437266D01*
X174452733Y-100470600D01*
X174519400Y-100503933D01*
X174552733Y-100537266D01*
X174586066Y-100603933D01*
X174586066Y-100670600D01*
X174552733Y-100737266D01*
X174519400Y-100770600D01*
X174452733Y-100803933D01*
X174319400Y-100837266D01*
X174152733Y-100837266D01*
X174019400Y-100803933D01*
X173952733Y-100770600D01*
X173919400Y-100737266D01*
X173886066Y-100670600D01*
X171446000Y-101846800D02*
X171479333Y-101880133D01*
X171512666Y-101980133D01*
X171512666Y-102046800D01*
X171479333Y-102146800D01*
X171412666Y-102213466D01*
X171346000Y-102246800D01*
X171212666Y-102280133D01*
X171112666Y-102280133D01*
X170979333Y-102246800D01*
X170912666Y-102213466D01*
X170846000Y-102146800D01*
X170812666Y-102046800D01*
X170812666Y-101980133D01*
X170846000Y-101880133D01*
X170879333Y-101846800D01*
X170879333Y-101580133D02*
X170846000Y-101546800D01*
X170812666Y-101480133D01*
X170812666Y-101313466D01*
X170846000Y-101246800D01*
X170879333Y-101213466D01*
X170946000Y-101180133D01*
X171012666Y-101180133D01*
X171112666Y-101213466D01*
X171512666Y-101613466D01*
X171512666Y-101180133D01*
X171512666Y-100846800D02*
X171512666Y-100713466D01*
X171479333Y-100646800D01*
X171446000Y-100613466D01*
X171346000Y-100546800D01*
X171212666Y-100513466D01*
X170946000Y-100513466D01*
X170879333Y-100546800D01*
X170846000Y-100580133D01*
X170812666Y-100646800D01*
X170812666Y-100780133D01*
X170846000Y-100846800D01*
X170879333Y-100880133D01*
X170946000Y-100913466D01*
X171112666Y-100913466D01*
X171179333Y-100880133D01*
X171212666Y-100846800D01*
X171246000Y-100780133D01*
X171246000Y-100646800D01*
X171212666Y-100580133D01*
X171179333Y-100546800D01*
X171112666Y-100513466D01*
X173097000Y-101796000D02*
X173130333Y-101829333D01*
X173163666Y-101929333D01*
X173163666Y-101996000D01*
X173130333Y-102096000D01*
X173063666Y-102162666D01*
X172997000Y-102196000D01*
X172863666Y-102229333D01*
X172763666Y-102229333D01*
X172630333Y-102196000D01*
X172563666Y-102162666D01*
X172497000Y-102096000D01*
X172463666Y-101996000D01*
X172463666Y-101929333D01*
X172497000Y-101829333D01*
X172530333Y-101796000D01*
X172530333Y-101529333D02*
X172497000Y-101496000D01*
X172463666Y-101429333D01*
X172463666Y-101262666D01*
X172497000Y-101196000D01*
X172530333Y-101162666D01*
X172597000Y-101129333D01*
X172663666Y-101129333D01*
X172763666Y-101162666D01*
X173163666Y-101562666D01*
X173163666Y-101129333D01*
X172763666Y-100729333D02*
X172730333Y-100796000D01*
X172697000Y-100829333D01*
X172630333Y-100862666D01*
X172597000Y-100862666D01*
X172530333Y-100829333D01*
X172497000Y-100796000D01*
X172463666Y-100729333D01*
X172463666Y-100596000D01*
X172497000Y-100529333D01*
X172530333Y-100496000D01*
X172597000Y-100462666D01*
X172630333Y-100462666D01*
X172697000Y-100496000D01*
X172730333Y-100529333D01*
X172763666Y-100596000D01*
X172763666Y-100729333D01*
X172797000Y-100796000D01*
X172830333Y-100829333D01*
X172897000Y-100862666D01*
X173030333Y-100862666D01*
X173097000Y-100829333D01*
X173130333Y-100796000D01*
X173163666Y-100729333D01*
X173163666Y-100596000D01*
X173130333Y-100529333D01*
X173097000Y-100496000D01*
X173030333Y-100462666D01*
X172897000Y-100462666D01*
X172830333Y-100496000D01*
X172797000Y-100529333D01*
X172763666Y-100596000D01*
X70532066Y-62461466D02*
X71032066Y-62461466D01*
X71132066Y-62494800D01*
X71198733Y-62561466D01*
X71232066Y-62661466D01*
X71232066Y-62728133D01*
X71298733Y-62294800D02*
X71298733Y-61761466D01*
X71232066Y-61594800D02*
X70532066Y-61594800D01*
X71232066Y-61194800D02*
X70832066Y-61494800D01*
X70532066Y-61194800D02*
X70932066Y-61594800D01*
X70865400Y-60894800D02*
X70865400Y-60661466D01*
X71232066Y-60561466D02*
X71232066Y-60894800D01*
X70532066Y-60894800D01*
X70532066Y-60561466D01*
X70898733Y-60128133D02*
X71232066Y-60128133D01*
X70532066Y-60361466D02*
X70898733Y-60128133D01*
X70532066Y-59894800D01*
X71232066Y-59661466D02*
X70532066Y-59661466D01*
X70532066Y-59394800D01*
X70565400Y-59328133D01*
X70598733Y-59294800D01*
X70665400Y-59261466D01*
X70765400Y-59261466D01*
X70832066Y-59294800D01*
X70865400Y-59328133D01*
X70898733Y-59394800D01*
X70898733Y-59661466D01*
X71032066Y-58994800D02*
X71032066Y-58661466D01*
X71232066Y-59061466D02*
X70532066Y-58828133D01*
X71232066Y-58594800D01*
X71232066Y-58361466D02*
X70532066Y-58361466D01*
X70532066Y-58194800D01*
X70565400Y-58094800D01*
X70632066Y-58028133D01*
X70698733Y-57994800D01*
X70832066Y-57961466D01*
X70932066Y-57961466D01*
X71065400Y-57994800D01*
X71132066Y-58028133D01*
X71198733Y-58094800D01*
X71232066Y-58194800D01*
X71232066Y-58361466D01*
X71232066Y-57294800D02*
X71232066Y-57694800D01*
X71232066Y-57494800D02*
X70532066Y-57494800D01*
X70632066Y-57561466D01*
X70698733Y-57628133D01*
X70732066Y-57694800D01*
X186918000Y-70736666D02*
X186918000Y-71236666D01*
X186884666Y-71336666D01*
X186818000Y-71403333D01*
X186718000Y-71436666D01*
X186651333Y-71436666D01*
X187384666Y-70736666D02*
X187518000Y-70736666D01*
X187584666Y-70770000D01*
X187651333Y-70836666D01*
X187684666Y-70970000D01*
X187684666Y-71203333D01*
X187651333Y-71336666D01*
X187584666Y-71403333D01*
X187518000Y-71436666D01*
X187384666Y-71436666D01*
X187318000Y-71403333D01*
X187251333Y-71336666D01*
X187218000Y-71203333D01*
X187218000Y-70970000D01*
X187251333Y-70836666D01*
X187318000Y-70770000D01*
X187384666Y-70736666D01*
X188318000Y-71436666D02*
X187984666Y-71436666D01*
X187984666Y-70736666D01*
X188551333Y-71070000D02*
X188784666Y-71070000D01*
X188884666Y-71436666D02*
X188551333Y-71436666D01*
X188551333Y-70736666D01*
X188884666Y-70736666D01*
X189184666Y-71436666D02*
X189184666Y-70736666D01*
X189351333Y-70736666D01*
X189451333Y-70770000D01*
X189518000Y-70836666D01*
X189551333Y-70903333D01*
X189584666Y-71036666D01*
X189584666Y-71136666D01*
X189551333Y-71270000D01*
X189518000Y-71336666D01*
X189451333Y-71403333D01*
X189351333Y-71436666D01*
X189184666Y-71436666D01*
X190251333Y-71436666D02*
X189851333Y-71436666D01*
X190051333Y-71436666D02*
X190051333Y-70736666D01*
X189984666Y-70836666D01*
X189918000Y-70903333D01*
X189851333Y-70936666D01*
X134805166Y-54988666D02*
X134805166Y-55555333D01*
X134838500Y-55622000D01*
X134871833Y-55655333D01*
X134938500Y-55688666D01*
X135071833Y-55688666D01*
X135138500Y-55655333D01*
X135171833Y-55622000D01*
X135205166Y-55555333D01*
X135205166Y-54988666D01*
X135371833Y-55755333D02*
X135905166Y-55755333D01*
X136305166Y-55322000D02*
X136405166Y-55355333D01*
X136438500Y-55388666D01*
X136471833Y-55455333D01*
X136471833Y-55555333D01*
X136438500Y-55622000D01*
X136405166Y-55655333D01*
X136338500Y-55688666D01*
X136071833Y-55688666D01*
X136071833Y-54988666D01*
X136305166Y-54988666D01*
X136371833Y-55022000D01*
X136405166Y-55055333D01*
X136438500Y-55122000D01*
X136438500Y-55188666D01*
X136405166Y-55255333D01*
X136371833Y-55288666D01*
X136305166Y-55322000D01*
X136071833Y-55322000D01*
X136671833Y-54988666D02*
X137071833Y-54988666D01*
X136871833Y-55688666D02*
X136871833Y-54988666D01*
X137305166Y-55688666D02*
X137305166Y-54988666D01*
X137705166Y-55688666D01*
X137705166Y-54988666D01*
X138405166Y-55688666D02*
X138005166Y-55688666D01*
X138205166Y-55688666D02*
X138205166Y-54988666D01*
X138138500Y-55088666D01*
X138071833Y-55155333D01*
X138005166Y-55188666D01*
X148775166Y-54988666D02*
X148775166Y-55555333D01*
X148808500Y-55622000D01*
X148841833Y-55655333D01*
X148908500Y-55688666D01*
X149041833Y-55688666D01*
X149108500Y-55655333D01*
X149141833Y-55622000D01*
X149175166Y-55555333D01*
X149175166Y-54988666D01*
X149341833Y-55755333D02*
X149875166Y-55755333D01*
X150275166Y-55322000D02*
X150375166Y-55355333D01*
X150408500Y-55388666D01*
X150441833Y-55455333D01*
X150441833Y-55555333D01*
X150408500Y-55622000D01*
X150375166Y-55655333D01*
X150308500Y-55688666D01*
X150041833Y-55688666D01*
X150041833Y-54988666D01*
X150275166Y-54988666D01*
X150341833Y-55022000D01*
X150375166Y-55055333D01*
X150408500Y-55122000D01*
X150408500Y-55188666D01*
X150375166Y-55255333D01*
X150341833Y-55288666D01*
X150275166Y-55322000D01*
X150041833Y-55322000D01*
X150641833Y-54988666D02*
X151041833Y-54988666D01*
X150841833Y-55688666D02*
X150841833Y-54988666D01*
X151275166Y-55688666D02*
X151275166Y-54988666D01*
X151675166Y-55688666D01*
X151675166Y-54988666D01*
X151941833Y-54988666D02*
X152375166Y-54988666D01*
X152141833Y-55255333D01*
X152241833Y-55255333D01*
X152308500Y-55288666D01*
X152341833Y-55322000D01*
X152375166Y-55388666D01*
X152375166Y-55555333D01*
X152341833Y-55622000D01*
X152308500Y-55655333D01*
X152241833Y-55688666D01*
X152041833Y-55688666D01*
X151975166Y-55655333D01*
X151941833Y-55622000D01*
X162745166Y-54988666D02*
X162745166Y-55555333D01*
X162778500Y-55622000D01*
X162811833Y-55655333D01*
X162878500Y-55688666D01*
X163011833Y-55688666D01*
X163078500Y-55655333D01*
X163111833Y-55622000D01*
X163145166Y-55555333D01*
X163145166Y-54988666D01*
X163311833Y-55755333D02*
X163845166Y-55755333D01*
X164245166Y-55322000D02*
X164345166Y-55355333D01*
X164378500Y-55388666D01*
X164411833Y-55455333D01*
X164411833Y-55555333D01*
X164378500Y-55622000D01*
X164345166Y-55655333D01*
X164278500Y-55688666D01*
X164011833Y-55688666D01*
X164011833Y-54988666D01*
X164245166Y-54988666D01*
X164311833Y-55022000D01*
X164345166Y-55055333D01*
X164378500Y-55122000D01*
X164378500Y-55188666D01*
X164345166Y-55255333D01*
X164311833Y-55288666D01*
X164245166Y-55322000D01*
X164011833Y-55322000D01*
X164611833Y-54988666D02*
X165011833Y-54988666D01*
X164811833Y-55688666D02*
X164811833Y-54988666D01*
X165245166Y-55688666D02*
X165245166Y-54988666D01*
X165645166Y-55688666D01*
X165645166Y-54988666D01*
X166311833Y-54988666D02*
X165978500Y-54988666D01*
X165945166Y-55322000D01*
X165978500Y-55288666D01*
X166045166Y-55255333D01*
X166211833Y-55255333D01*
X166278500Y-55288666D01*
X166311833Y-55322000D01*
X166345166Y-55388666D01*
X166345166Y-55555333D01*
X166311833Y-55622000D01*
X166278500Y-55655333D01*
X166211833Y-55688666D01*
X166045166Y-55688666D01*
X165978500Y-55655333D01*
X165945166Y-55622000D01*
X176715166Y-54988666D02*
X176715166Y-55555333D01*
X176748500Y-55622000D01*
X176781833Y-55655333D01*
X176848500Y-55688666D01*
X176981833Y-55688666D01*
X177048500Y-55655333D01*
X177081833Y-55622000D01*
X177115166Y-55555333D01*
X177115166Y-54988666D01*
X177281833Y-55755333D02*
X177815166Y-55755333D01*
X178215166Y-55322000D02*
X178315166Y-55355333D01*
X178348500Y-55388666D01*
X178381833Y-55455333D01*
X178381833Y-55555333D01*
X178348500Y-55622000D01*
X178315166Y-55655333D01*
X178248500Y-55688666D01*
X177981833Y-55688666D01*
X177981833Y-54988666D01*
X178215166Y-54988666D01*
X178281833Y-55022000D01*
X178315166Y-55055333D01*
X178348500Y-55122000D01*
X178348500Y-55188666D01*
X178315166Y-55255333D01*
X178281833Y-55288666D01*
X178215166Y-55322000D01*
X177981833Y-55322000D01*
X178581833Y-54988666D02*
X178981833Y-54988666D01*
X178781833Y-55688666D02*
X178781833Y-54988666D01*
X179215166Y-55688666D02*
X179215166Y-54988666D01*
X179615166Y-55688666D01*
X179615166Y-54988666D01*
X179915166Y-55055333D02*
X179948500Y-55022000D01*
X180015166Y-54988666D01*
X180181833Y-54988666D01*
X180248500Y-55022000D01*
X180281833Y-55055333D01*
X180315166Y-55122000D01*
X180315166Y-55188666D01*
X180281833Y-55288666D01*
X179881833Y-55688666D01*
X180315166Y-55688666D01*
X170380833Y-117217000D02*
X170347500Y-117250333D01*
X170247500Y-117283666D01*
X170180833Y-117283666D01*
X170080833Y-117250333D01*
X170014166Y-117183666D01*
X169980833Y-117117000D01*
X169947500Y-116983666D01*
X169947500Y-116883666D01*
X169980833Y-116750333D01*
X170014166Y-116683666D01*
X170080833Y-116617000D01*
X170180833Y-116583666D01*
X170247500Y-116583666D01*
X170347500Y-116617000D01*
X170380833Y-116650333D01*
X171014166Y-116583666D02*
X170680833Y-116583666D01*
X170647500Y-116917000D01*
X170680833Y-116883666D01*
X170747500Y-116850333D01*
X170914166Y-116850333D01*
X170980833Y-116883666D01*
X171014166Y-116917000D01*
X171047500Y-116983666D01*
X171047500Y-117150333D01*
X171014166Y-117217000D01*
X170980833Y-117250333D01*
X170914166Y-117283666D01*
X170747500Y-117283666D01*
X170680833Y-117250333D01*
X170647500Y-117217000D01*
X167777333Y-93722000D02*
X167744000Y-93755333D01*
X167644000Y-93788666D01*
X167577333Y-93788666D01*
X167477333Y-93755333D01*
X167410666Y-93688666D01*
X167377333Y-93622000D01*
X167344000Y-93488666D01*
X167344000Y-93388666D01*
X167377333Y-93255333D01*
X167410666Y-93188666D01*
X167477333Y-93122000D01*
X167577333Y-93088666D01*
X167644000Y-93088666D01*
X167744000Y-93122000D01*
X167777333Y-93155333D01*
X168377333Y-93088666D02*
X168244000Y-93088666D01*
X168177333Y-93122000D01*
X168144000Y-93155333D01*
X168077333Y-93255333D01*
X168044000Y-93388666D01*
X168044000Y-93655333D01*
X168077333Y-93722000D01*
X168110666Y-93755333D01*
X168177333Y-93788666D01*
X168310666Y-93788666D01*
X168377333Y-93755333D01*
X168410666Y-93722000D01*
X168444000Y-93655333D01*
X168444000Y-93488666D01*
X168410666Y-93422000D01*
X168377333Y-93388666D01*
X168310666Y-93355333D01*
X168177333Y-93355333D01*
X168110666Y-93388666D01*
X168077333Y-93422000D01*
X168044000Y-93488666D01*
X160157333Y-95957200D02*
X160124000Y-95990533D01*
X160024000Y-96023866D01*
X159957333Y-96023866D01*
X159857333Y-95990533D01*
X159790666Y-95923866D01*
X159757333Y-95857200D01*
X159724000Y-95723866D01*
X159724000Y-95623866D01*
X159757333Y-95490533D01*
X159790666Y-95423866D01*
X159857333Y-95357200D01*
X159957333Y-95323866D01*
X160024000Y-95323866D01*
X160124000Y-95357200D01*
X160157333Y-95390533D01*
X160557333Y-95623866D02*
X160490666Y-95590533D01*
X160457333Y-95557200D01*
X160424000Y-95490533D01*
X160424000Y-95457200D01*
X160457333Y-95390533D01*
X160490666Y-95357200D01*
X160557333Y-95323866D01*
X160690666Y-95323866D01*
X160757333Y-95357200D01*
X160790666Y-95390533D01*
X160824000Y-95457200D01*
X160824000Y-95490533D01*
X160790666Y-95557200D01*
X160757333Y-95590533D01*
X160690666Y-95623866D01*
X160557333Y-95623866D01*
X160490666Y-95657200D01*
X160457333Y-95690533D01*
X160424000Y-95757200D01*
X160424000Y-95890533D01*
X160457333Y-95957200D01*
X160490666Y-95990533D01*
X160557333Y-96023866D01*
X160690666Y-96023866D01*
X160757333Y-95990533D01*
X160790666Y-95957200D01*
X160824000Y-95890533D01*
X160824000Y-95757200D01*
X160790666Y-95690533D01*
X160757333Y-95657200D01*
X160690666Y-95623866D01*
X162186200Y-92629800D02*
X162152866Y-92663133D01*
X162052866Y-92696466D01*
X161986200Y-92696466D01*
X161886200Y-92663133D01*
X161819533Y-92596466D01*
X161786200Y-92529800D01*
X161752866Y-92396466D01*
X161752866Y-92296466D01*
X161786200Y-92163133D01*
X161819533Y-92096466D01*
X161886200Y-92029800D01*
X161986200Y-91996466D01*
X162052866Y-91996466D01*
X162152866Y-92029800D01*
X162186200Y-92063133D01*
X162852866Y-92696466D02*
X162452866Y-92696466D01*
X162652866Y-92696466D02*
X162652866Y-91996466D01*
X162586200Y-92096466D01*
X162519533Y-92163133D01*
X162452866Y-92196466D01*
X163286200Y-91996466D02*
X163352866Y-91996466D01*
X163419533Y-92029800D01*
X163452866Y-92063133D01*
X163486200Y-92129800D01*
X163519533Y-92263133D01*
X163519533Y-92429800D01*
X163486200Y-92563133D01*
X163452866Y-92629800D01*
X163419533Y-92663133D01*
X163352866Y-92696466D01*
X163286200Y-92696466D01*
X163219533Y-92663133D01*
X163186200Y-92629800D01*
X163152866Y-92563133D01*
X163119533Y-92429800D01*
X163119533Y-92263133D01*
X163152866Y-92129800D01*
X163186200Y-92063133D01*
X163219533Y-92029800D01*
X163286200Y-91996466D01*
X160052600Y-106015600D02*
X160019266Y-106048933D01*
X159919266Y-106082266D01*
X159852600Y-106082266D01*
X159752600Y-106048933D01*
X159685933Y-105982266D01*
X159652600Y-105915600D01*
X159619266Y-105782266D01*
X159619266Y-105682266D01*
X159652600Y-105548933D01*
X159685933Y-105482266D01*
X159752600Y-105415600D01*
X159852600Y-105382266D01*
X159919266Y-105382266D01*
X160019266Y-105415600D01*
X160052600Y-105448933D01*
X160719266Y-106082266D02*
X160319266Y-106082266D01*
X160519266Y-106082266D02*
X160519266Y-105382266D01*
X160452600Y-105482266D01*
X160385933Y-105548933D01*
X160319266Y-105582266D01*
X160985933Y-105448933D02*
X161019266Y-105415600D01*
X161085933Y-105382266D01*
X161252600Y-105382266D01*
X161319266Y-105415600D01*
X161352600Y-105448933D01*
X161385933Y-105515600D01*
X161385933Y-105582266D01*
X161352600Y-105682266D01*
X160952600Y-106082266D01*
X161385933Y-106082266D01*
X151518200Y-99638600D02*
X151484866Y-99671933D01*
X151384866Y-99705266D01*
X151318200Y-99705266D01*
X151218200Y-99671933D01*
X151151533Y-99605266D01*
X151118200Y-99538600D01*
X151084866Y-99405266D01*
X151084866Y-99305266D01*
X151118200Y-99171933D01*
X151151533Y-99105266D01*
X151218200Y-99038600D01*
X151318200Y-99005266D01*
X151384866Y-99005266D01*
X151484866Y-99038600D01*
X151518200Y-99071933D01*
X152184866Y-99705266D02*
X151784866Y-99705266D01*
X151984866Y-99705266D02*
X151984866Y-99005266D01*
X151918200Y-99105266D01*
X151851533Y-99171933D01*
X151784866Y-99205266D01*
X152418200Y-99005266D02*
X152851533Y-99005266D01*
X152618200Y-99271933D01*
X152718200Y-99271933D01*
X152784866Y-99305266D01*
X152818200Y-99338600D01*
X152851533Y-99405266D01*
X152851533Y-99571933D01*
X152818200Y-99638600D01*
X152784866Y-99671933D01*
X152718200Y-99705266D01*
X152518200Y-99705266D01*
X152451533Y-99671933D01*
X152418200Y-99638600D01*
X153931200Y-90521600D02*
X153897866Y-90554933D01*
X153797866Y-90588266D01*
X153731200Y-90588266D01*
X153631200Y-90554933D01*
X153564533Y-90488266D01*
X153531200Y-90421600D01*
X153497866Y-90288266D01*
X153497866Y-90188266D01*
X153531200Y-90054933D01*
X153564533Y-89988266D01*
X153631200Y-89921600D01*
X153731200Y-89888266D01*
X153797866Y-89888266D01*
X153897866Y-89921600D01*
X153931200Y-89954933D01*
X154597866Y-90588266D02*
X154197866Y-90588266D01*
X154397866Y-90588266D02*
X154397866Y-89888266D01*
X154331200Y-89988266D01*
X154264533Y-90054933D01*
X154197866Y-90088266D01*
X155197866Y-90121600D02*
X155197866Y-90588266D01*
X155031200Y-89854933D02*
X154864533Y-90354933D01*
X155297866Y-90354933D01*
X162160800Y-91436000D02*
X162127466Y-91469333D01*
X162027466Y-91502666D01*
X161960800Y-91502666D01*
X161860800Y-91469333D01*
X161794133Y-91402666D01*
X161760800Y-91336000D01*
X161727466Y-91202666D01*
X161727466Y-91102666D01*
X161760800Y-90969333D01*
X161794133Y-90902666D01*
X161860800Y-90836000D01*
X161960800Y-90802666D01*
X162027466Y-90802666D01*
X162127466Y-90836000D01*
X162160800Y-90869333D01*
X162827466Y-91502666D02*
X162427466Y-91502666D01*
X162627466Y-91502666D02*
X162627466Y-90802666D01*
X162560800Y-90902666D01*
X162494133Y-90969333D01*
X162427466Y-91002666D01*
X163460800Y-90802666D02*
X163127466Y-90802666D01*
X163094133Y-91136000D01*
X163127466Y-91102666D01*
X163194133Y-91069333D01*
X163360800Y-91069333D01*
X163427466Y-91102666D01*
X163460800Y-91136000D01*
X163494133Y-91202666D01*
X163494133Y-91369333D01*
X163460800Y-91436000D01*
X163427466Y-91469333D01*
X163360800Y-91502666D01*
X163194133Y-91502666D01*
X163127466Y-91469333D01*
X163094133Y-91436000D01*
X168194800Y-101973800D02*
X168228133Y-102007133D01*
X168261466Y-102107133D01*
X168261466Y-102173800D01*
X168228133Y-102273800D01*
X168161466Y-102340466D01*
X168094800Y-102373800D01*
X167961466Y-102407133D01*
X167861466Y-102407133D01*
X167728133Y-102373800D01*
X167661466Y-102340466D01*
X167594800Y-102273800D01*
X167561466Y-102173800D01*
X167561466Y-102107133D01*
X167594800Y-102007133D01*
X167628133Y-101973800D01*
X168261466Y-101307133D02*
X168261466Y-101707133D01*
X168261466Y-101507133D02*
X167561466Y-101507133D01*
X167661466Y-101573800D01*
X167728133Y-101640466D01*
X167761466Y-101707133D01*
X168261466Y-100973800D02*
X168261466Y-100840466D01*
X168228133Y-100773800D01*
X168194800Y-100740466D01*
X168094800Y-100673800D01*
X167961466Y-100640466D01*
X167694800Y-100640466D01*
X167628133Y-100673800D01*
X167594800Y-100707133D01*
X167561466Y-100773800D01*
X167561466Y-100907133D01*
X167594800Y-100973800D01*
X167628133Y-101007133D01*
X167694800Y-101040466D01*
X167861466Y-101040466D01*
X167928133Y-101007133D01*
X167961466Y-100973800D01*
X167994800Y-100907133D01*
X167994800Y-100773800D01*
X167961466Y-100707133D01*
X167928133Y-100673800D01*
X167861466Y-100640466D01*
X169617200Y-101999200D02*
X169650533Y-102032533D01*
X169683866Y-102132533D01*
X169683866Y-102199200D01*
X169650533Y-102299200D01*
X169583866Y-102365866D01*
X169517200Y-102399200D01*
X169383866Y-102432533D01*
X169283866Y-102432533D01*
X169150533Y-102399200D01*
X169083866Y-102365866D01*
X169017200Y-102299200D01*
X168983866Y-102199200D01*
X168983866Y-102132533D01*
X169017200Y-102032533D01*
X169050533Y-101999200D01*
X169050533Y-101732533D02*
X169017200Y-101699200D01*
X168983866Y-101632533D01*
X168983866Y-101465866D01*
X169017200Y-101399200D01*
X169050533Y-101365866D01*
X169117200Y-101332533D01*
X169183866Y-101332533D01*
X169283866Y-101365866D01*
X169683866Y-101765866D01*
X169683866Y-101332533D01*
X168983866Y-100899200D02*
X168983866Y-100832533D01*
X169017200Y-100765866D01*
X169050533Y-100732533D01*
X169117200Y-100699200D01*
X169250533Y-100665866D01*
X169417200Y-100665866D01*
X169550533Y-100699200D01*
X169617200Y-100732533D01*
X169650533Y-100765866D01*
X169683866Y-100832533D01*
X169683866Y-100899200D01*
X169650533Y-100965866D01*
X169617200Y-100999200D01*
X169550533Y-101032533D01*
X169417200Y-101065866D01*
X169250533Y-101065866D01*
X169117200Y-101032533D01*
X169050533Y-100999200D01*
X169017200Y-100965866D01*
X168983866Y-100899200D01*
X162186200Y-97659000D02*
X162152866Y-97692333D01*
X162052866Y-97725666D01*
X161986200Y-97725666D01*
X161886200Y-97692333D01*
X161819533Y-97625666D01*
X161786200Y-97559000D01*
X161752866Y-97425666D01*
X161752866Y-97325666D01*
X161786200Y-97192333D01*
X161819533Y-97125666D01*
X161886200Y-97059000D01*
X161986200Y-97025666D01*
X162052866Y-97025666D01*
X162152866Y-97059000D01*
X162186200Y-97092333D01*
X162852866Y-97725666D02*
X162452866Y-97725666D01*
X162652866Y-97725666D02*
X162652866Y-97025666D01*
X162586200Y-97125666D01*
X162519533Y-97192333D01*
X162452866Y-97225666D01*
X163452866Y-97025666D02*
X163319533Y-97025666D01*
X163252866Y-97059000D01*
X163219533Y-97092333D01*
X163152866Y-97192333D01*
X163119533Y-97325666D01*
X163119533Y-97592333D01*
X163152866Y-97659000D01*
X163186200Y-97692333D01*
X163252866Y-97725666D01*
X163386200Y-97725666D01*
X163452866Y-97692333D01*
X163486200Y-97659000D01*
X163519533Y-97592333D01*
X163519533Y-97425666D01*
X163486200Y-97359000D01*
X163452866Y-97325666D01*
X163386200Y-97292333D01*
X163252866Y-97292333D01*
X163186200Y-97325666D01*
X163152866Y-97359000D01*
X163119533Y-97425666D01*
X159849400Y-100935600D02*
X159816066Y-100968933D01*
X159716066Y-101002266D01*
X159649400Y-101002266D01*
X159549400Y-100968933D01*
X159482733Y-100902266D01*
X159449400Y-100835600D01*
X159416066Y-100702266D01*
X159416066Y-100602266D01*
X159449400Y-100468933D01*
X159482733Y-100402266D01*
X159549400Y-100335600D01*
X159649400Y-100302266D01*
X159716066Y-100302266D01*
X159816066Y-100335600D01*
X159849400Y-100368933D01*
X160116066Y-100368933D02*
X160149400Y-100335600D01*
X160216066Y-100302266D01*
X160382733Y-100302266D01*
X160449400Y-100335600D01*
X160482733Y-100368933D01*
X160516066Y-100435600D01*
X160516066Y-100502266D01*
X160482733Y-100602266D01*
X160082733Y-101002266D01*
X160516066Y-101002266D01*
X160749400Y-100302266D02*
X161182733Y-100302266D01*
X160949400Y-100568933D01*
X161049400Y-100568933D01*
X161116066Y-100602266D01*
X161149400Y-100635600D01*
X161182733Y-100702266D01*
X161182733Y-100868933D01*
X161149400Y-100935600D01*
X161116066Y-100968933D01*
X161049400Y-101002266D01*
X160849400Y-101002266D01*
X160782733Y-100968933D01*
X160749400Y-100935600D01*
X158709533Y-90537466D02*
X158476200Y-90204133D01*
X158309533Y-90537466D02*
X158309533Y-89837466D01*
X158576200Y-89837466D01*
X158642866Y-89870800D01*
X158676200Y-89904133D01*
X158709533Y-89970800D01*
X158709533Y-90070800D01*
X158676200Y-90137466D01*
X158642866Y-90170800D01*
X158576200Y-90204133D01*
X158309533Y-90204133D01*
X159342866Y-89837466D02*
X159009533Y-89837466D01*
X158976200Y-90170800D01*
X159009533Y-90137466D01*
X159076200Y-90104133D01*
X159242866Y-90104133D01*
X159309533Y-90137466D01*
X159342866Y-90170800D01*
X159376200Y-90237466D01*
X159376200Y-90404133D01*
X159342866Y-90470800D01*
X159309533Y-90504133D01*
X159242866Y-90537466D01*
X159076200Y-90537466D01*
X159009533Y-90504133D01*
X158976200Y-90470800D01*
M02*
