<?xml version="1.0" encoding="UTF-8" standalone="no"?>
<svg
   xmlns:dc="http://purl.org/dc/elements/1.1/"
   xmlns:cc="http://creativecommons.org/ns#"
   xmlns:rdf="http://www.w3.org/1999/02/22-rdf-syntax-ns#"
   xmlns:svg="http://www.w3.org/2000/svg"
   xmlns="http://www.w3.org/2000/svg"
   xmlns:sodipodi="http://sodipodi.sourceforge.net/DTD/sodipodi-0.dtd"
   xmlns:inkscape="http://www.inkscape.org/namespaces/inkscape"
   version="1.1"
   width="25.0215cm"
   height="13.1064cm"
   viewBox="0 0 98510 51600 "
   id="svg538"
   sodipodi:docname="ControlModule-brd.svg"
   inkscape:version="0.92.2 (5c3e80d, 2017-08-06)">
  <metadata
     id="metadata544">
    <rdf:RDF>
      <cc:Work
         rdf:about="">
        <dc:format>image/svg+xml</dc:format>
        <dc:type
           rdf:resource="http://purl.org/dc/dcmitype/StillImage" />
      </cc:Work>
    </rdf:RDF>
  </metadata>
  <defs
     id="defs542" />
  <sodipodi:namedview
     pagecolor="#ffffff"
     bordercolor="#666666"
     borderopacity="1"
     objecttolerance="10"
     gridtolerance="10"
     guidetolerance="10"
     inkscape:pageopacity="0"
     inkscape:pageshadow="2"
     inkscape:window-width="1920"
     inkscape:window-height="1005"
     id="namedview540"
     showgrid="false"
     inkscape:measure-start="0,0"
     inkscape:measure-end="0,0"
     inkscape:zoom="1.013897"
     inkscape:cx="541.75295"
     inkscape:cy="241.21998"
     inkscape:window-x="-9"
     inkscape:window-y="-9"
     inkscape:window-maximized="1"
     inkscape:current-layer="svg538" />
  <title
     id="title2">SVG Picture created as ControlModule-brd.svg date 2019/09/09 17:57:48 </title>
  <desc
     id="desc4">Picture generated by PCBNEW </desc>
  <g
     style="fill:#000000; fill-opacity:1;stroke:#000000; stroke-opacity:1; stroke-linecap:round; stroke-linejoin:round; "
     transform="translate(0 0) scale(1 1)"
     id="g6" />
  <g
     style="fill:#000000; fill-opacity:0.0;  stroke:#000000; stroke-width:-0.000393701; stroke-opacity:1;  stroke-linecap:round; stroke-linejoin:round;"
     id="g8" />
  <g
     style="fill:#000000; fill-opacity:0.0;  stroke:#000000; stroke-width:59.0551; stroke-opacity:1;  stroke-linecap:round; stroke-linejoin:round;"
     id="g106">
    <path
       d="M66336 36919 L38186 36919 "
       id="path24" />
    <path
       d="M38186 36919 L38186 20219 "
       id="path26" />
    <path
       d="M66336 20219 L38186 20219 "
       id="path28" />
    <path
       d="M66336 36919 L66336 20219 "
       id="path30" />
    <path
       d="M64336 21219 L64336 35969 "
       id="path32" />
    <path
       d="M40161 21219 L40161 35969 "
       id="path34" />
    <path
       d="M40161 35969 L64336 35969 "
       id="path36" />
    <path
       d="M63311 35169 L41261 35169 "
       id="path38" />
    <path
       d="M41261 35169 L41261 23719 "
       id="path40" />
    <path
       d="M41261 23719 L63311 23719 "
       id="path42" />
    <path
       d="M63311 23719 L63311 35169 "
       id="path44" />
    <path
       d="M52261 20819 L43411 20819 "
       id="path46" />
    <path
       d="M43411 20819 L42911 21219 "
       id="path48" />
    <path
       d="M52261 20819 L61111 20819 "
       id="path50" />
    <path
       d="M40161 21219 L42911 21219 "
       id="path52" />
    <path
       d="M64336 21219 L61611 21219 "
       id="path54" />
    <path
       d="M61611 21219 L61111 20819 "
       id="path56" />
    <path
       d="M44036 19269 L41536 19269 "
       id="path58" />
    <path
       d="M41536 19269 L41536 14269 "
       id="path60" />
    <path
       d="M41536 14269 L46536 14269 "
       id="path62" />
    <path
       d="M46536 14269 L46536 19269 "
       id="path64" />
    <path
       d="M46536 19269 L44036 19269 "
       id="path66" />
    <circle
       cx="44036.5"
       cy="16769.4"
       r="1900"
       id="circle68" />
    <path
       d="M49536 19269 L47036 19269 "
       id="path70" />
    <path
       d="M47036 19269 L47036 14269 "
       id="path72" />
    <path
       d="M47036 14269 L52036 14269 "
       id="path74" />
    <path
       d="M52036 14269 L52036 19269 "
       id="path76" />
    <path
       d="M52036 19269 L49536 19269 "
       id="path78" />
    <circle
       cx="49536.5"
       cy="16769.4"
       r="1900"
       id="circle80" />
    <circle
       cx="55036.5"
       cy="16769.4"
       r="1900"
       id="circle82" />
    <path
       d="M57536 19269 L55036 19269 "
       id="path84" />
    <path
       d="M57536 14269 L57536 19269 "
       id="path86" />
    <path
       d="M52536 14269 L57536 14269 "
       id="path88" />
    <path
       d="M52536 19269 L52536 14269 "
       id="path90" />
    <path
       d="M55036 19269 L52536 19269 "
       id="path92" />
    <path
       d="M60536 19269 L58036 19269 "
       id="path94" />
    <path
       d="M58036 19269 L58036 14269 "
       id="path96" />
    <path
       d="M58036 14269 L63036 14269 "
       id="path98" />
    <path
       d="M63036 14269 L63036 19269 "
       id="path100" />
    <path
       d="M63036 19269 L60536 19269 "
       id="path102" />
    <circle
       cx="60536.5"
       cy="16769.4"
       r="1900"
       id="circle104" />
  </g>
  <g
     style="fill:#000000; fill-opacity:0.0;  stroke:#000000; stroke-width:39.3701; stroke-opacity:1;  stroke-linecap:round; stroke-linejoin:round;"
     id="g320">
    <path
       d="M58969 31636 L58983 31649 L58996 31689 L58996 31715 L58983 31754 L58956 31780 L58930 31794 L58878 31807 L58838 31807 L58786 31794 L58759 31780 L58733 31754 L58720 31715 L58720 31689 L58733 31649 L58746 31636 "
       id="path108" />
    <path
       d="M58720 31544 L58720 31374 L58825 31465 L58825 31426 L58838 31400 L58851 31387 L58878 31374 L58943 31374 L58969 31387 L58983 31400 L58996 31426 L58996 31505 L58983 31531 L58969 31544 "
       id="path110" />
    <path
       d="M58720 31203 L58720 31177 L58733 31150 L58746 31137 L58773 31124 L58825 31111 L58891 31111 L58943 31124 L58969 31137 L58983 31150 L58996 31177 L58996 31203 L58983 31229 L58969 31242 L58943 31255 L58891 31269 L58825 31269 L58773 31255 L58746 31242 L58733 31229 L58720 31203 "
       id="path112" />
    <path
       d="M57759 31666 L57773 31679 L57786 31719 L57786 31745 L57773 31784 L57746 31810 L57720 31824 L57668 31837 L57628 31837 L57576 31824 L57549 31810 L57523 31784 L57510 31745 L57510 31719 L57523 31679 L57536 31666 "
       id="path114" />
    <path
       d="M57536 31561 L57523 31548 L57510 31522 L57510 31456 L57523 31430 L57536 31417 L57563 31404 L57589 31404 L57628 31417 L57786 31574 L57786 31404 "
       id="path116" />
    <path
       d="M57786 31272 L57786 31220 L57773 31194 L57759 31180 L57720 31154 L57668 31141 L57563 31141 L57536 31154 L57523 31167 L57510 31194 L57510 31246 L57523 31272 L57536 31285 L57563 31299 L57628 31299 L57654 31285 L57668 31272 L57681 31246 L57681 31194 L57668 31167 L57654 31154 L57628 31141 "
       id="path118" />
    <path
       d="M58409 31646 L58423 31659 L58436 31699 L58436 31725 L58423 31764 L58396 31790 L58370 31804 L58318 31817 L58278 31817 L58226 31804 L58199 31790 L58173 31764 L58160 31725 L58160 31699 L58173 31659 L58186 31646 "
       id="path120" />
    <path
       d="M58186 31541 L58173 31528 L58160 31502 L58160 31436 L58173 31410 L58186 31397 L58213 31384 L58239 31384 L58278 31397 L58436 31554 L58436 31384 "
       id="path122" />
    <path
       d="M58278 31226 L58265 31252 L58252 31265 L58226 31279 L58213 31279 L58186 31265 L58173 31252 L58160 31226 L58160 31174 L58173 31147 L58186 31134 L58213 31121 L58226 31121 L58252 31134 L58265 31147 L58278 31174 L58278 31226 L58291 31252 L58304 31265 L58331 31279 L58383 31279 L58409 31265 L58423 31252 L58436 31226 L58436 31174 L58423 31147 L58409 31134 L58383 31121 L58331 31121 L58304 31134 L58291 31147 L58278 31174 "
       id="path124" />
    <path
       d="M18030 16160 L18226 16160 L18266 16173 L18292 16199 L18305 16239 L18305 16265 "
       id="path126" />
    <path
       d="M18331 16094 L18331 15884 "
       id="path128" />
    <path
       d="M18305 15819 L18030 15819 "
       id="path130" />
    <path
       d="M18305 15661 L18148 15779 "
       id="path132" />
    <path
       d="M18030 15661 L18187 15819 "
       id="path134" />
    <path
       d="M18161 15543 L18161 15451 "
       id="path136" />
    <path
       d="M18305 15412 L18305 15543 L18030 15543 L18030 15412 "
       id="path138" />
    <path
       d="M18174 15241 L18305 15241 "
       id="path140" />
    <path
       d="M18030 15333 L18174 15241 L18030 15150 "
       id="path142" />
    <path
       d="M18305 15058 L18030 15058 L18030 14953 L18043 14926 L18056 14913 L18082 14900 L18121 14900 L18148 14913 L18161 14926 L18174 14953 L18174 15058 "
       id="path144" />
    <path
       d="M18226 14795 L18226 14664 "
       id="path146" />
    <path
       d="M18305 14821 L18030 14730 L18305 14638 "
       id="path148" />
    <path
       d="M18305 14546 L18030 14546 L18030 14480 L18043 14441 L18069 14415 L18095 14401 L18148 14388 L18187 14388 L18240 14401 L18266 14415 L18292 14441 L18305 14480 L18305 14546 "
       id="path150" />
    <path
       d="M18305 14126 L18305 14283 "
       id="path152" />
    <path
       d="M18305 14205 L18030 14205 L18069 14231 L18095 14257 L18108 14283 "
       id="path154" />
    <path
       d="M63851 19418 L63851 19615 L63838 19654 L63811 19680 L63772 19694 L63746 19694 "
       id="path156" />
    <path
       d="M64034 19418 L64087 19418 L64113 19431 L64139 19457 L64153 19510 L64153 19602 L64139 19654 L64113 19680 L64087 19694 L64034 19694 L64008 19680 L63982 19654 L63969 19602 L63969 19510 L63982 19457 L64008 19431 L64034 19418 "
       id="path158" />
    <path
       d="M64402 19694 L64271 19694 L64271 19418 "
       id="path160" />
    <path
       d="M64494 19549 L64586 19549 "
       id="path162" />
    <path
       d="M64625 19694 L64494 19694 L64494 19418 L64625 19418 "
       id="path164" />
    <path
       d="M64743 19694 L64743 19418 L64809 19418 L64848 19431 L64874 19457 L64888 19484 L64901 19536 L64901 19575 L64888 19628 L64874 19654 L64848 19680 L64809 19694 L64743 19694 "
       id="path166" />
    <path
       d="M65163 19694 L65006 19694 "
       id="path168" />
    <path
       d="M65084 19694 L65084 19418 L65058 19457 L65032 19484 L65006 19497 "
       id="path170" />
    <path
       d="M43334 13218 L43334 13441 L43347 13467 L43360 13480 L43386 13494 L43439 13494 L43465 13480 L43478 13467 L43491 13441 L43491 13218 "
       id="path172" />
    <path
       d="M43557 13520 L43767 13520 "
       id="path174" />
    <path
       d="M43924 13349 L43964 13362 L43977 13375 L43990 13402 L43990 13441 L43977 13467 L43964 13480 L43938 13494 L43833 13494 L43833 13218 L43924 13218 L43951 13231 L43964 13244 L43977 13270 L43977 13297 L43964 13323 L43951 13336 L43924 13349 L43833 13349 "
       id="path176" />
    <path
       d="M44069 13218 L44226 13218 "
       id="path178" />
    <path
       d="M44148 13494 L44148 13218 "
       id="path180" />
    <path
       d="M44318 13494 L44318 13218 L44476 13494 L44476 13218 "
       id="path182" />
    <path
       d="M44751 13494 L44594 13494 "
       id="path184" />
    <path
       d="M44672 13494 L44672 13218 L44646 13257 L44620 13284 L44594 13297 "
       id="path186" />
    <path
       d="M48834 13218 L48834 13441 L48847 13467 L48860 13480 L48886 13494 L48939 13494 L48965 13480 L48978 13467 L48991 13441 L48991 13218 "
       id="path188" />
    <path
       d="M49057 13520 L49267 13520 "
       id="path190" />
    <path
       d="M49424 13349 L49464 13362 L49477 13375 L49490 13402 L49490 13441 L49477 13467 L49464 13480 L49438 13494 L49333 13494 L49333 13218 L49424 13218 L49451 13231 L49464 13244 L49477 13270 L49477 13297 L49464 13323 L49451 13336 L49424 13349 L49333 13349 "
       id="path192" />
    <path
       d="M49569 13218 L49726 13218 "
       id="path194" />
    <path
       d="M49648 13494 L49648 13218 "
       id="path196" />
    <path
       d="M49818 13494 L49818 13218 L49976 13494 L49976 13218 "
       id="path198" />
    <path
       d="M50081 13218 L50251 13218 L50159 13323 L50199 13323 L50225 13336 L50238 13349 L50251 13375 L50251 13441 L50238 13467 L50225 13480 L50199 13494 L50120 13494 L50094 13480 L50081 13467 "
       id="path200" />
    <path
       d="M54334 13218 L54334 13441 L54347 13467 L54360 13480 L54386 13494 L54439 13494 L54465 13480 L54478 13467 L54491 13441 L54491 13218 "
       id="path202" />
    <path
       d="M54557 13520 L54767 13520 "
       id="path204" />
    <path
       d="M54924 13349 L54964 13362 L54977 13375 L54990 13402 L54990 13441 L54977 13467 L54964 13480 L54938 13494 L54833 13494 L54833 13218 L54924 13218 L54951 13231 L54964 13244 L54977 13270 L54977 13297 L54964 13323 L54951 13336 L54924 13349 L54833 13349 "
       id="path206" />
    <path
       d="M55069 13218 L55226 13218 "
       id="path208" />
    <path
       d="M55148 13494 L55148 13218 "
       id="path210" />
    <path
       d="M55318 13494 L55318 13218 L55476 13494 L55476 13218 "
       id="path212" />
    <path
       d="M55738 13218 L55607 13218 L55594 13349 L55607 13336 L55633 13323 L55699 13323 L55725 13336 L55738 13349 L55751 13375 L55751 13441 L55738 13467 L55725 13480 L55699 13494 L55633 13494 L55607 13480 L55594 13467 "
       id="path214" />
    <path
       d="M59834 13218 L59834 13441 L59847 13467 L59860 13480 L59886 13494 L59939 13494 L59965 13480 L59978 13467 L59991 13441 L59991 13218 "
       id="path216" />
    <path
       d="M60057 13520 L60267 13520 "
       id="path218" />
    <path
       d="M60424 13349 L60464 13362 L60477 13375 L60490 13402 L60490 13441 L60477 13467 L60464 13480 L60438 13494 L60333 13494 L60333 13218 L60424 13218 L60451 13231 L60464 13244 L60477 13270 L60477 13297 L60464 13323 L60451 13336 L60424 13349 L60333 13349 "
       id="path220" />
    <path
       d="M60569 13218 L60726 13218 "
       id="path222" />
    <path
       d="M60648 13494 L60648 13218 "
       id="path224" />
    <path
       d="M60818 13494 L60818 13218 L60976 13494 L60976 13218 "
       id="path226" />
    <path
       d="M61094 13244 L61107 13231 L61133 13218 L61199 13218 L61225 13231 L61238 13244 L61251 13270 L61251 13297 L61238 13336 L61081 13494 L61251 13494 "
       id="path228" />
    <path
       d="M57340 37717 L57327 37730 L57288 37744 L57261 37744 L57222 37730 L57196 37704 L57183 37678 L57169 37625 L57169 37586 L57183 37534 L57196 37507 L57222 37481 L57261 37468 L57288 37468 L57327 37481 L57340 37494 "
       id="path230" />
    <path
       d="M57589 37468 L57458 37468 L57445 37599 L57458 37586 L57484 37573 L57550 37573 L57576 37586 L57589 37599 L57603 37625 L57603 37691 L57589 37717 L57576 37730 L57550 37744 L57484 37744 L57458 37730 L57445 37717 "
       id="path232" />
    <path
       d="M56315 28467 L56302 28480 L56263 28494 L56236 28494 L56197 28480 L56171 28454 L56158 28428 L56144 28375 L56144 28336 L56158 28284 L56171 28257 L56197 28231 L56236 28218 L56263 28218 L56302 28231 L56315 28244 "
       id="path234" />
    <path
       d="M56551 28218 L56499 28218 L56473 28231 L56459 28244 L56433 28284 L56420 28336 L56420 28441 L56433 28467 L56446 28480 L56473 28494 L56525 28494 L56551 28480 L56564 28467 L56578 28441 L56578 28375 L56564 28349 L56551 28336 L56525 28323 L56473 28323 L56446 28336 L56433 28349 L56420 28375 "
       id="path236" />
    <path
       d="M53315 29347 L53302 29360 L53263 29374 L53236 29374 L53197 29360 L53171 29334 L53158 29308 L53144 29255 L53144 29216 L53158 29164 L53171 29137 L53197 29111 L53236 29098 L53263 29098 L53302 29111 L53315 29124 "
       id="path238" />
    <path
       d="M53473 29216 L53446 29203 L53433 29190 L53420 29164 L53420 29150 L53433 29124 L53446 29111 L53473 29098 L53525 29098 L53551 29111 L53564 29124 L53578 29150 L53578 29164 L53564 29190 L53551 29203 L53525 29216 L53473 29216 L53446 29229 L53433 29242 L53420 29269 L53420 29321 L53433 29347 L53446 29360 L53473 29374 L53525 29374 L53551 29360 L53564 29347 L53578 29321 L53578 29269 L53564 29242 L53551 29229 L53525 29216 "
       id="path240" />
    <path
       d="M54114 28037 L54101 28050 L54061 28064 L54035 28064 L53996 28050 L53969 28024 L53956 27998 L53943 27945 L53943 27906 L53956 27854 L53969 27827 L53996 27801 L54035 27788 L54061 27788 L54101 27801 L54114 27814 "
       id="path242" />
    <path
       d="M54376 28064 L54219 28064 "
       id="path244" />
    <path
       d="M54298 28064 L54298 27788 L54271 27827 L54245 27854 L54219 27867 "
       id="path246" />
    <path
       d="M54547 27788 L54573 27788 L54599 27801 L54613 27814 L54626 27840 L54639 27893 L54639 27959 L54626 28011 L54613 28037 L54599 28050 L54573 28064 L54547 28064 L54521 28050 L54508 28037 L54494 28011 L54481 27959 L54481 27893 L54494 27840 L54508 27814 L54521 27801 L54547 27788 "
       id="path248" />
    <path
       d="M53274 33307 L53261 33320 L53221 33334 L53195 33334 L53156 33320 L53129 33294 L53116 33268 L53103 33215 L53103 33176 L53116 33124 L53129 33097 L53156 33071 L53195 33058 L53221 33058 L53261 33071 L53274 33084 "
       id="path250" />
    <path
       d="M53536 33334 L53379 33334 "
       id="path252" />
    <path
       d="M53458 33334 L53458 33058 L53431 33097 L53405 33124 L53379 33137 "
       id="path254" />
    <path
       d="M53641 33084 L53654 33071 L53681 33058 L53746 33058 L53773 33071 L53786 33084 L53799 33110 L53799 33137 L53786 33176 L53628 33334 L53799 33334 "
       id="path256" />
    <path
       d="M49914 30797 L49901 30810 L49861 30823 L49835 30823 L49796 30810 L49769 30784 L49756 30757 L49743 30705 L49743 30665 L49756 30613 L49769 30587 L49796 30560 L49835 30547 L49861 30547 L49901 30560 L49914 30574 "
       id="path258" />
    <path
       d="M50176 30823 L50019 30823 "
       id="path260" />
    <path
       d="M50098 30823 L50098 30547 L50071 30587 L50045 30613 L50019 30626 "
       id="path262" />
    <path
       d="M50268 30547 L50439 30547 L50347 30652 L50386 30652 L50413 30665 L50426 30679 L50439 30705 L50439 30770 L50426 30797 L50413 30810 L50386 30823 L50308 30823 L50281 30810 L50268 30797 "
       id="path264" />
    <path
       d="M50864 27207 L50851 27220 L50811 27234 L50785 27234 L50746 27220 L50719 27194 L50706 27168 L50693 27115 L50693 27076 L50706 27024 L50719 26997 L50746 26971 L50785 26958 L50811 26958 L50851 26971 L50864 26984 "
       id="path266" />
    <path
       d="M51126 27234 L50969 27234 "
       id="path268" />
    <path
       d="M51048 27234 L51048 26958 L51021 26997 L50995 27024 L50969 27037 "
       id="path270" />
    <path
       d="M51363 27050 L51363 27234 "
       id="path272" />
    <path
       d="M51297 26945 L51231 27142 L51402 27142 "
       id="path274" />
    <path
       d="M54104 27567 L54091 27580 L54051 27594 L54025 27594 L53986 27580 L53959 27554 L53946 27528 L53933 27475 L53933 27436 L53946 27384 L53959 27357 L53986 27331 L54025 27318 L54051 27318 L54091 27331 L54104 27344 "
       id="path276" />
    <path
       d="M54366 27594 L54209 27594 "
       id="path278" />
    <path
       d="M54288 27594 L54288 27318 L54261 27357 L54235 27384 L54209 27397 "
       id="path280" />
    <path
       d="M54616 27318 L54484 27318 L54471 27449 L54484 27436 L54511 27423 L54576 27423 L54603 27436 L54616 27449 L54629 27475 L54629 27541 L54616 27567 L54603 27580 L54576 27594 L54511 27594 L54484 27580 L54471 27567 "
       id="path282" />
    <path
       d="M56479 31716 L56493 31729 L56506 31769 L56506 31795 L56493 31834 L56466 31860 L56440 31874 L56388 31887 L56348 31887 L56296 31874 L56269 31860 L56243 31834 L56230 31795 L56230 31769 L56243 31729 L56256 31716 "
       id="path284" />
    <path
       d="M56506 31454 L56506 31611 "
       id="path286" />
    <path
       d="M56506 31532 L56230 31532 L56269 31559 L56296 31585 L56309 31611 "
       id="path288" />
    <path
       d="M56506 31322 L56506 31270 L56493 31244 L56479 31230 L56440 31204 L56388 31191 L56283 31191 L56256 31204 L56243 31217 L56230 31244 L56230 31296 L56243 31322 L56256 31335 L56283 31349 L56348 31349 L56374 31335 L56388 31322 L56401 31296 L56401 31244 L56388 31217 L56374 31204 L56348 31191 "
       id="path290" />
    <path
       d="M57039 31726 L57053 31739 L57066 31779 L57066 31805 L57053 31844 L57026 31870 L57000 31884 L56948 31897 L56908 31897 L56856 31884 L56829 31870 L56803 31844 L56790 31805 L56790 31779 L56803 31739 L56816 31726 "
       id="path292" />
    <path
       d="M56816 31621 L56803 31608 L56790 31582 L56790 31516 L56803 31490 L56816 31477 L56843 31464 L56869 31464 L56908 31477 L57066 31634 L57066 31464 "
       id="path294" />
    <path
       d="M56790 31293 L56790 31267 L56803 31240 L56816 31227 L56843 31214 L56895 31201 L56961 31201 L57013 31214 L57039 31227 L57053 31240 L57066 31267 L57066 31293 L57053 31319 L57039 31332 L57013 31345 L56961 31359 L56895 31359 L56843 31345 L56816 31332 L56803 31319 L56790 31293 "
       id="path296" />
    <path
       d="M54114 30017 L54101 30030 L54061 30044 L54035 30044 L53996 30030 L53969 30004 L53956 29978 L53943 29925 L53943 29886 L53956 29834 L53969 29807 L53996 29781 L54035 29768 L54061 29768 L54101 29781 L54114 29794 "
       id="path298" />
    <path
       d="M54376 30044 L54219 30044 "
       id="path300" />
    <path
       d="M54298 30044 L54298 29768 L54271 29807 L54245 29834 L54219 29847 "
       id="path302" />
    <path
       d="M54613 29768 L54560 29768 L54534 29781 L54521 29794 L54494 29834 L54481 29886 L54481 29991 L54494 30017 L54508 30030 L54534 30044 L54586 30044 L54613 30030 L54626 30017 L54639 29991 L54639 29925 L54626 29899 L54613 29886 L54586 29873 L54534 29873 L54508 29886 L54494 29899 L54481 29925 "
       id="path304" />
    <path
       d="M53194 31307 L53181 31320 L53141 31334 L53115 31334 L53076 31320 L53049 31294 L53036 31268 L53023 31215 L53023 31176 L53036 31124 L53049 31097 L53076 31071 L53115 31058 L53141 31058 L53181 31071 L53194 31084 "
       id="path306" />
    <path
       d="M53299 31084 L53312 31071 L53338 31058 L53404 31058 L53430 31071 L53443 31084 L53456 31110 L53456 31137 L53443 31176 L53286 31334 L53456 31334 "
       id="path308" />
    <path
       d="M53548 31058 L53719 31058 L53627 31163 L53666 31163 L53693 31176 L53706 31189 L53719 31215 L53719 31281 L53706 31307 L53693 31320 L53666 31334 L53588 31334 L53561 31320 L53548 31307 "
       id="path310" />
    <path
       d="M52745 27214 L52653 27082 "
       id="path312" />
    <path
       d="M52588 27214 L52588 26938 L52693 26938 L52719 26951 L52732 26964 L52745 26990 L52745 27030 L52732 27056 L52719 27069 L52693 27082 L52588 27082 "
       id="path314" />
    <path
       d="M52994 26938 L52863 26938 L52850 27069 L52863 27056 L52889 27043 L52955 27043 L52981 27056 L52994 27069 L53008 27095 L53008 27161 L52994 27187 L52981 27200 L52955 27214 L52889 27214 L52863 27200 L52850 27187 "
       id="path316" />
    <g
       id="g318" />
  </g>
  <g
     style="fill:#000000; fill-opacity:0.0;  stroke:#000000; stroke-width:78.7402; stroke-opacity:1;  stroke-linecap:round; stroke-linejoin:round;"
     id="g536">
    <path
       d="M97261 14569 L97261 8069 "
       id="path322" />
    <path
       d="M80261 39569 L97261 39569 "
       id="path324" />
    <path
       d="M80261 14569 L80261 39569 "
       id="path326" />
    <path
       d="M97261 14569 L80261 14569 "
       id="path328" />
    <path
       d="M97261 8069 L1261 8069 "
       id="path330" />
    <path
       d="M97261 45569 L97261 39569 "
       id="path332" />
    <path
       d="M1261 45569 L97261 45569 "
       id="path334" />
    <path
       d="M1261 8069 L1261 45569 "
       id="path336" />
    <g
       id="g338" />
    <g
       id="g340" />
    <g
       id="g342" />
    <g
       id="g344" />
    <g
       id="g346" />
    <g
       id="g348" />
    <g
       id="g350" />
    <g
       id="g352" />
    <g
       id="g354" />
    <g
       id="g356" />
    <g
       id="g358" />
    <g
       id="g360" />
    <g
       id="g362" />
    <g
       id="g364" />
    <g
       id="g366" />
    <g
       id="g368" />
    <g
       id="g370" />
    <g
       id="g372" />
    <g
       id="g374" />
    <g
       id="g376" />
    <g
       id="g378" />
    <g
       id="g380" />
    <g
       id="g382" />
    <g
       id="g384" />
    <g
       id="g386" />
    <g
       id="g388" />
    <g
       id="g390" />
    <g
       id="g392" />
    <g
       id="g394" />
    <g
       id="g396" />
    <g
       id="g398" />
    <g
       id="g400" />
    <g
       id="g402" />
    <g
       id="g404" />
    <g
       id="g406" />
    <g
       id="g408" />
    <g
       id="g410" />
    <g
       id="g412" />
    <g
       id="g414" />
    <g
       id="g416" />
    <g
       id="g418" />
    <g
       id="g420" />
    <g
       id="g422" />
    <g
       id="g424" />
    <g
       id="g426" />
    <g
       id="g428" />
    <g
       id="g430" />
    <g
       id="g432" />
    <g
       id="g434" />
    <g
       id="g436" />
    <g
       id="g438" />
    <g
       id="g440" />
    <g
       id="g442" />
    <g
       id="g444" />
    <g
       id="g446" />
    <g
       id="g448" />
    <g
       id="g450" />
    <g
       id="g452" />
    <g
       id="g454" />
    <g
       id="g456" />
    <g
       id="g458" />
    <g
       id="g460" />
    <g
       id="g462" />
    <g
       id="g464" />
    <g
       id="g466" />
    <g
       id="g468" />
    <g
       id="g470" />
    <g
       id="g472" />
    <g
       id="g474" />
    <g
       id="g476" />
    <g
       id="g478" />
    <g
       id="g480" />
    <g
       id="g482" />
    <g
       id="g484" />
    <g
       id="g486" />
    <g
       id="g488" />
    <g
       id="g490" />
    <g
       id="g492" />
    <g
       id="g494" />
    <g
       id="g496" />
    <g
       id="g498" />
    <g
       id="g500" />
    <g
       id="g502" />
    <g
       id="g504" />
    <g
       id="g506" />
    <g
       id="g508" />
    <g
       id="g510" />
    <g
       id="g512" />
    <g
       id="g514" />
    <g
       id="g516" />
    <g
       id="g518" />
    <g
       id="g520" />
    <g
       id="g522" />
    <g
       id="g524" />
    <g
       id="g526" />
    <g
       id="g528" />
    <g
       id="g530" />
    <g
       id="g532" />
    <g
       id="g534" />
  </g>
  <g
     id="g1371">
    <g
       id="g22"
       style="fill:#000000; fill-opacity:0.0;  stroke:#000000; stroke-width:47.2441; stroke-opacity:1;  stroke-linecap:round; stroke-linejoin:round;">
      <path
         id="path10"
         d="M18747 15189 L18747 14665 " />
      <path
         id="path12"
         d="M18747 14665 L19271 14665 " />
      <path
         id="path14"
         d="M19771 14665 L25795 14665 " />
      <path
         id="path16"
         d="M25795 15712 L25795 14665 " />
      <path
         id="path18"
         d="M19771 15712 L25795 15712 " />
      <path
         id="path20"
         d="M19771 15712 L19771 14665 " />
    </g>
    <rect
       y="15189.074"
       x="19793.801"
       height="25.838945"
       width="5930.2197"
       id="rect1361"
       style="opacity:0.97000002;fill:#ffffff;fill-opacity:1;stroke:#000000;stroke-width:98.27118683;stroke-miterlimit:4;stroke-dasharray:none;stroke-dashoffset:0;stroke-opacity:1" />
  </g>
  <g
     id="g1381"
     transform="translate(13576.748,-2361.0436)">
    <g
       transform="translate(-18143.488,5023.7131)"
       id="g1359">
      <rect
         style="opacity:0.97000002;fill:#ffffff;fill-opacity:1;stroke:#000000;stroke-width:98.425354;stroke-miterlimit:4;stroke-dasharray:none;stroke-dashoffset:0;stroke-opacity:1"
         id="rect546"
         width="17945.395"
         height="22276.109"
         x="18192.701"
         y="11155.329" />
      <rect
         style="opacity:0.97000002;fill:#ffffff;fill-opacity:1;stroke:#000000;stroke-width:98.425354;stroke-miterlimit:4;stroke-dasharray:none;stroke-dashoffset:0;stroke-opacity:1"
         id="rect550"
         width="17945.76"
         height="1370.9304"
         x="18192.701"
         y="11155.329" />
    </g>
    <rect
       y="16280.173"
       x="9104.4297"
       height="22163.098"
       width="51.492893"
       id="rect1375"
       style="opacity:0.97000002;fill:#ffffff;fill-opacity:1;stroke:#000000;stroke-width:98.59424591;stroke-miterlimit:4;stroke-dasharray:none;stroke-dashoffset:0;stroke-opacity:1" />
  </g>
  <rect
     style="opacity:0.97000002;fill:#ffffff;fill-opacity:1;stroke:#000000;stroke-width:95.18343353;stroke-miterlimit:4;stroke-dasharray:none;stroke-dashoffset:0;stroke-opacity:1"
     id="rect1383"
     width="27.450373"
     height="943.97632"
     x="22682.814"
     y="14718.399" />
  <path
     style="opacity:0.97000002;fill:#ffffff;fill-opacity:1;stroke:#000000;stroke-width:59.4053688;stroke-miterlimit:4;stroke-dasharray:none;stroke-dashoffset:0;stroke-opacity:1"
     id="path1385"
     sodipodi:type="arc"
     sodipodi:cx="87992.266"
     sodipodi:cy="18725.973"
     sodipodi:rx="1348.2457"
     sodipodi:ry="1348.2522"
     sodipodi:start="0"
     sodipodi:end="6.2408087"
     d="m 89340.511,18725.973 a 1348.2457,1348.2522 0 0 1 -1333.962,1348.176 1348.2457,1348.2522 0 0 1 -1362.226,-1319.611 1348.2457,1348.2522 0 0 1 1305.099,-1376.137 1348.2457,1348.2522 0 0 1 1389.879,1290.454 l -1347.035,57.118 z" />
  <path
     d="m 89340.511,27387.402 a 1348.2457,1348.2522 0 0 1 -1333.962,1348.177 1348.2457,1348.2522 0 0 1 -1362.226,-1319.612 1348.2457,1348.2522 0 0 1 1305.099,-1376.136 1348.2457,1348.2522 0 0 1 1389.879,1290.454 l -1347.035,57.117 z"
     sodipodi:end="6.2408087"
     sodipodi:start="0"
     sodipodi:ry="1348.2522"
     sodipodi:rx="1348.2457"
     sodipodi:cy="27387.402"
     sodipodi:cx="87992.266"
     sodipodi:type="arc"
     id="path1387"
     style="opacity:0.97000002;fill:#ffffff;fill-opacity:1;stroke:#000000;stroke-width:59.4053688;stroke-miterlimit:4;stroke-dasharray:none;stroke-dashoffset:0;stroke-opacity:1" />
  <path
     style="opacity:0.97000002;fill:#ffffff;fill-opacity:1;stroke:#000000;stroke-width:59.4053688;stroke-miterlimit:4;stroke-dasharray:none;stroke-dashoffset:0;stroke-opacity:1"
     id="path1389"
     sodipodi:type="arc"
     sodipodi:cx="87992.266"
     sodipodi:cy="36048.836"
     sodipodi:rx="1348.2457"
     sodipodi:ry="1348.2522"
     sodipodi:start="0"
     sodipodi:end="6.2408087"
     d="m 89340.511,36048.836 a 1348.2457,1348.2522 0 0 1 -1333.962,1348.176 1348.2457,1348.2522 0 0 1 -1362.226,-1319.611 1348.2457,1348.2522 0 0 1 1305.099,-1376.136 1348.2457,1348.2522 0 0 1 1389.879,1290.454 l -1347.035,57.117 z" />
</svg>
