<?xml version="1.0" encoding="UTF-8" standalone="no"?>
<!-- Created with Inkscape (http://www.inkscape.org/) -->

<svg
   xmlns:dc="http://purl.org/dc/elements/1.1/"
   xmlns:cc="http://creativecommons.org/ns#"
   xmlns:rdf="http://www.w3.org/1999/02/22-rdf-syntax-ns#"
   xmlns:svg="http://www.w3.org/2000/svg"
   xmlns="http://www.w3.org/2000/svg"
   xmlns:sodipodi="http://sodipodi.sourceforge.net/DTD/sodipodi-0.dtd"
   xmlns:inkscape="http://www.inkscape.org/namespaces/inkscape"
   width="210mm"
   height="297mm"
   viewBox="0 0 210 297"
   version="1.1"
   id="svg8"
   inkscape:version="0.92.2 (5c3e80d, 2017-08-06)"
   sodipodi:docname="HeatsinkMountingHoleTemplates.svg">
  <defs
     id="defs2" />
  <sodipodi:namedview
     id="base"
     pagecolor="#ffffff"
     bordercolor="#666666"
     borderopacity="1.0"
     inkscape:pageopacity="0.0"
     inkscape:pageshadow="2"
     inkscape:zoom="3.0543262"
     inkscape:cx="360.88393"
     inkscape:cy="576.31173"
     inkscape:document-units="mm"
     inkscape:current-layer="layer1"
     showgrid="true"
     objecttolerance="10000"
     inkscape:window-width="1920"
     inkscape:window-height="1005"
     inkscape:window-x="-9"
     inkscape:window-y="-9"
     inkscape:window-maximized="1">
    <inkscape:grid
       type="xygrid"
       id="grid10"
       units="mm"
       spacingx="1"
       spacingy="1" />
  </sodipodi:namedview>
  <metadata
     id="metadata5">
    <rdf:RDF>
      <cc:Work
         rdf:about="">
        <dc:format>image/svg+xml</dc:format>
        <dc:type
           rdf:resource="http://purl.org/dc/dcmitype/StillImage" />
        <dc:title />
      </cc:Work>
    </rdf:RDF>
  </metadata>
  <g
     inkscape:label="Layer 1"
     inkscape:groupmode="layer"
     id="layer1">
    <rect
       style="opacity:0.97000002;fill:#ffffff;fill-opacity:1;stroke:#000000;stroke-width:0.25946295;stroke-miterlimit:4;stroke-dasharray:none;stroke-dashoffset:0;stroke-opacity:1"
       id="rect12"
       width="74.74054"
       height="50.040539"
       x="45.079479"
       y="17.117228" />
    <path
       style="opacity:0.97000002;fill:#ffffff;fill-opacity:1;stroke:#000000;stroke-width:0.16974695;stroke-miterlimit:4;stroke-dasharray:none;stroke-dashoffset:0;stroke-opacity:1"
       id="path14"
       sodipodi:type="arc"
       sodipodi:cx="60.000008"
       sodipodi:cy="27.237495"
       sodipodi:rx="1.4139973"
       sodipodi:ry="1.4151186"
       sodipodi:start="0"
       sodipodi:end="6.2408087"
       d="m 61.414005,27.237495 a 1.4139973,1.4151186 0 0 1 -1.399018,1.41504 1.4139973,1.4151186 0 0 1 -1.428659,-1.385058 1.4139973,1.4151186 0 0 1 1.368747,-1.444385 1.4139973,1.4151186 0 0 1 1.457661,1.354453 l -1.412728,0.05995 z" />
    <path
       style="opacity:0.97000002;fill:#ffffff;fill-opacity:1;stroke:#000000;stroke-width:0.16974095;stroke-miterlimit:4;stroke-dasharray:none;stroke-dashoffset:0;stroke-opacity:1"
       id="path14-6"
       sodipodi:type="arc"
       sodipodi:cx="59.999901"
       sodipodi:cy="57.237495"
       sodipodi:rx="1.4138925"
       sodipodi:ry="1.415123"
       sodipodi:start="0"
       sodipodi:end="6.2408087"
       d="m 61.413793,57.237495 a 1.4138925,1.415123 0 0 1 -1.398913,1.415044 1.4138925,1.415123 0 0 1 -1.428554,-1.385062 1.4138925,1.415123 0 0 1 1.368645,-1.44439 1.4138925,1.415123 0 0 1 1.457553,1.354458 l -1.412623,0.05995 z"
       inkscape:transform-center-x="2.3045168"
       inkscape:transform-center-y="-9.3903475" />
    <path
       style="opacity:0.97000002;fill:#ffffff;fill-opacity:1;stroke:#000000;stroke-width:0.16974695;stroke-miterlimit:4;stroke-dasharray:none;stroke-dashoffset:0;stroke-opacity:1"
       id="path14-60"
       sodipodi:type="arc"
       sodipodi:cx="105.12922"
       sodipodi:cy="27.237495"
       sodipodi:rx="1.4139973"
       sodipodi:ry="1.4151186"
       sodipodi:start="0"
       sodipodi:end="6.2408087"
       d="m 106.54322,27.237495 a 1.4139973,1.4151186 0 0 1 -1.39902,1.41504 1.4139973,1.4151186 0 0 1 -1.42866,-1.385058 1.4139973,1.4151186 0 0 1 1.36875,-1.444385 1.4139973,1.4151186 0 0 1 1.45766,1.354453 l -1.41273,0.05995 z" />
    <path
       style="opacity:0.97000002;fill:#ffffff;fill-opacity:1;stroke:#000000;stroke-width:0.16974695;stroke-miterlimit:4;stroke-dasharray:none;stroke-dashoffset:0;stroke-opacity:1"
       id="path14-6-7"
       sodipodi:type="arc"
       sodipodi:cx="105.12922"
       sodipodi:cy="57.237495"
       sodipodi:rx="1.4139973"
       sodipodi:ry="1.4151186"
       sodipodi:start="0"
       sodipodi:end="6.2408087"
       d="m 106.54322,57.237495 a 1.4139973,1.4151186 0 0 1 -1.39902,1.41504 1.4139973,1.4151186 0 0 1 -1.42866,-1.385058 1.4139973,1.4151186 0 0 1 1.36875,-1.444385 1.4139973,1.4151186 0 0 1 1.45766,1.354453 l -1.41273,0.05995 z"
       inkscape:transform-center-x="2.3046961"
       inkscape:transform-center-y="-9.3903198" />
    <text
       xml:space="preserve"
       style="font-style:normal;font-weight:normal;font-size:8.46666622px;line-height:125%;font-family:Sans;letter-spacing:0px;word-spacing:0px;fill:#000000;fill-opacity:1;stroke:none;stroke-width:0.26458332px;stroke-linecap:butt;stroke-linejoin:miter;stroke-opacity:1"
       x="78.793198"
       y="12.240176"
       id="text66"><tspan
         sodipodi:role="line"
         id="tspan64"
         x="78.793198"
         y="12.240176"
         style="font-size:8.46666622px;letter-spacing:0px;stroke-width:0.26458332px">BOTTOM</tspan></text>
    <rect
       style="opacity:0.97000002;fill:#ffffff;fill-opacity:1;stroke:#000000;stroke-width:0.25946295;stroke-miterlimit:4;stroke-dasharray:none;stroke-dashoffset:0;stroke-opacity:1"
       id="rect68"
       width="74.74054"
       height="50.040539"
       x="102.4128"
       y="30.350245"
       transform="matrix(0,1,1,0,0,0)" />
    <g
       id="g188">
      <path
         transform="matrix(0,1,1,0,0,0)"
         d="m 128.41389,36.587502 a 1.4138864,1.4151226 0 0 1 -1.39891,1.415043 1.4138864,1.4151226 0 0 1 -1.42855,-1.385062 1.4138864,1.4151226 0 0 1 1.36864,-1.444389 1.4138864,1.4151226 0 0 1 1.45755,1.354457 L 127,36.587502 Z"
         sodipodi:end="6.2408087"
         sodipodi:start="0"
         sodipodi:ry="1.4151226"
         sodipodi:rx="1.4138864"
         sodipodi:cy="36.587502"
         sodipodi:cx="127"
         sodipodi:type="arc"
         id="path70"
         style="opacity:0.97000002;fill:#ffffff;fill-opacity:1;stroke:#000000;stroke-width:0.16974053;stroke-miterlimit:4;stroke-dasharray:none;stroke-dashoffset:0;stroke-opacity:1" />
      <path
         transform="matrix(0,1,1,0,0,0)"
         d="m 163.41389,36.587502 a 1.4138864,1.4151226 0 0 1 -1.39891,1.415043 1.4138864,1.4151226 0 0 1 -1.42855,-1.385062 1.4138864,1.4151226 0 0 1 1.36864,-1.444389 1.4138864,1.4151226 0 0 1 1.45755,1.354457 L 162,36.587502 Z"
         sodipodi:end="6.2408087"
         sodipodi:start="0"
         sodipodi:ry="1.4151226"
         sodipodi:rx="1.4138864"
         sodipodi:cy="36.587502"
         sodipodi:cx="162"
         sodipodi:type="arc"
         id="path70-6"
         style="opacity:0.97000002;fill:#ffffff;fill-opacity:1;stroke:#000000;stroke-width:0.16974053;stroke-miterlimit:4;stroke-dasharray:none;stroke-dashoffset:0;stroke-opacity:1" />
      <path
         transform="matrix(0,1,1,0,0,0)"
         d="m 128.41389,73.529167 a 1.4138864,1.4151226 0 0 1 -1.39891,1.415043 1.4138864,1.4151226 0 0 1 -1.42855,-1.385061 1.4138864,1.4151226 0 0 1 1.36864,-1.44439 1.4138864,1.4151226 0 0 1 1.45755,1.354458 L 127,73.529167 Z"
         sodipodi:end="6.2408087"
         sodipodi:start="0"
         sodipodi:ry="1.4151226"
         sodipodi:rx="1.4138864"
         sodipodi:cy="73.529167"
         sodipodi:cx="127"
         sodipodi:type="arc"
         id="path70-4"
         style="opacity:0.97000002;fill:#ffffff;fill-opacity:1;stroke:#000000;stroke-width:0.16974053;stroke-miterlimit:4;stroke-dasharray:none;stroke-dashoffset:0;stroke-opacity:1" />
      <path
         transform="matrix(0,1,1,0,0,0)"
         d="m 163.41389,73.587502 a 1.4138864,1.4151226 0 0 1 -1.39891,1.415043 1.4138864,1.4151226 0 0 1 -1.42855,-1.385062 1.4138864,1.4151226 0 0 1 1.36864,-1.444389 1.4138864,1.4151226 0 0 1 1.45755,1.354457 L 162,73.587502 Z"
         sodipodi:end="6.2408087"
         sodipodi:start="0"
         sodipodi:ry="1.4151226"
         sodipodi:rx="1.4138864"
         sodipodi:cy="73.587502"
         sodipodi:cx="162"
         sodipodi:type="arc"
         id="path70-6-8"
         style="opacity:0.97000002;fill:#ffffff;fill-opacity:1;stroke:#000000;stroke-width:0.16974053;stroke-miterlimit:4;stroke-dasharray:none;stroke-dashoffset:0;stroke-opacity:1" />
    </g>
    <g
       id="g436"
       transform="matrix(-1,0,0,1,109.2354,2e-5)">
      <text
         transform="rotate(90)"
         id="text66-5"
         y="-51.535721"
         x="114.7684"
         style="font-style:normal;font-weight:normal;font-size:8.46666622px;line-height:125%;font-family:Sans;letter-spacing:0px;word-spacing:0px;fill:#000000;fill-opacity:1;stroke:none;stroke-width:0.26458332px;stroke-linecap:butt;stroke-linejoin:miter;stroke-opacity:1"
         xml:space="preserve"><tspan
           style="font-size:8.46666622px;letter-spacing:0px;stroke-width:0.26458332px"
           y="-51.535721"
           x="114.7684"
           id="tspan64-1"
           sodipodi:role="line">SIDE</tspan></text>
      <text
         transform="rotate(90)"
         id="text129"
         y="-51.99556"
         x="140.83179"
         style="font-style:normal;font-weight:normal;font-size:3.52777767px;line-height:125%;font-family:Sans;letter-spacing:0px;word-spacing:0px;fill:#000000;fill-opacity:1;stroke:none;stroke-width:0.26458332px;stroke-linecap:butt;stroke-linejoin:miter;stroke-opacity:1"
         xml:space="preserve"><tspan
           style="stroke-width:0.26458332px"
           y="-51.99556"
           x="140.83179"
           id="tspan127"
           sodipodi:role="line">(HS100)</tspan></text>
    </g>
    <path
       style="opacity:0.97000002;fill:#ffffff;fill-opacity:1;stroke:#000000;stroke-width:0.22632511;stroke-miterlimit:4;stroke-dasharray:none;stroke-dashoffset:0;stroke-opacity:1"
       id="path206"
       sodipodi:type="arc"
       sodipodi:cx="92.662231"
       sodipodi:cy="59.550163"
       sodipodi:rx="1.8852556"
       sodipodi:ry="1.8868297"
       sodipodi:start="0"
       sodipodi:end="6.2408087"
       d="m 94.547487,59.550163 a 1.8852556,1.8868297 0 0 1 -1.865283,1.886724 1.8852556,1.8868297 0 0 1 -1.904805,-1.846748 1.8852556,1.8868297 0 0 1 1.824924,-1.925853 1.8852556,1.8868297 0 0 1 1.943472,1.805944 l -1.883564,0.07993 z"
       transform="matrix(0,1,1,0,0,0)" />
    <rect
       style="opacity:0.97000002;fill:#ffffff;fill-opacity:1;stroke:#000000;stroke-width:0.25946295;stroke-miterlimit:4;stroke-dasharray:none;stroke-dashoffset:0;stroke-opacity:1"
       id="rect68-2"
       width="74.74054"
       height="50.040539"
       x="102.51553"
       y="-170.09204"
       transform="rotate(90)" />
    <g
       id="g194">
      <path
         transform="rotate(90)"
         d="m 128.41389,-163.58749 a 1.4138864,1.4151226 0 0 1 -1.39891,1.41504 1.4138864,1.4151226 0 0 1 -1.42855,-1.38506 1.4138864,1.4151226 0 0 1 1.36864,-1.44439 1.4138864,1.4151226 0 0 1 1.45755,1.35446 L 127,-163.58749 Z"
         sodipodi:end="6.2408087"
         sodipodi:start="0"
         sodipodi:ry="1.4151226"
         sodipodi:rx="1.4138864"
         sodipodi:cy="-163.58749"
         sodipodi:cx="127"
         sodipodi:type="arc"
         id="path70-8"
         style="opacity:0.97000002;fill:#ffffff;fill-opacity:1;stroke:#000000;stroke-width:0.16974053;stroke-miterlimit:4;stroke-dasharray:none;stroke-dashoffset:0;stroke-opacity:1" />
      <path
         transform="rotate(90)"
         d="m 163.41389,-163.58749 a 1.4138864,1.4151226 0 0 1 -1.39891,1.41504 1.4138864,1.4151226 0 0 1 -1.42855,-1.38506 1.4138864,1.4151226 0 0 1 1.36864,-1.44439 1.4138864,1.4151226 0 0 1 1.45755,1.35446 L 162,-163.58749 Z"
         sodipodi:end="6.2408087"
         sodipodi:start="0"
         sodipodi:ry="1.4151226"
         sodipodi:rx="1.4138864"
         sodipodi:cy="-163.58749"
         sodipodi:cx="162"
         sodipodi:type="arc"
         id="path70-6-5"
         style="opacity:0.97000002;fill:#ffffff;fill-opacity:1;stroke:#000000;stroke-width:0.16974053;stroke-miterlimit:4;stroke-dasharray:none;stroke-dashoffset:0;stroke-opacity:1" />
      <path
         transform="rotate(90)"
         d="m 128.41389,-126.58749 a 1.4138864,1.4151226 0 0 1 -1.39891,1.41505 1.4138864,1.4151226 0 0 1 -1.42855,-1.38506 1.4138864,1.4151226 0 0 1 1.36864,-1.44439 1.4138864,1.4151226 0 0 1 1.45755,1.35445 l -1.41262,0.06 z"
         sodipodi:end="6.2408087"
         sodipodi:start="0"
         sodipodi:ry="1.4151226"
         sodipodi:rx="1.4138864"
         sodipodi:cy="-126.58749"
         sodipodi:cx="127"
         sodipodi:type="arc"
         id="path70-4-9"
         style="opacity:0.97000002;fill:#ffffff;fill-opacity:1;stroke:#000000;stroke-width:0.16974053;stroke-miterlimit:4;stroke-dasharray:none;stroke-dashoffset:0;stroke-opacity:1" />
      <path
         transform="rotate(90)"
         d="m 163.41316,-126.58749 a 1.4131614,1.4151448 0 0 1 -1.39819,1.41507 1.4131614,1.4151448 0 0 1 -1.42781,-1.38508 1.4131614,1.4151448 0 0 1 1.36793,-1.44442 1.4131614,1.4151448 0 0 1 1.4568,1.35448 l -1.41189,0.06 z"
         sodipodi:end="6.2408087"
         sodipodi:start="0"
         sodipodi:ry="1.4151448"
         sodipodi:rx="1.4131614"
         sodipodi:cy="-126.58749"
         sodipodi:cx="162"
         sodipodi:type="arc"
         id="path70-6-8-4"
         style="opacity:0.97000002;fill:#ffffff;fill-opacity:1;stroke:#000000;stroke-width:0.16969831;stroke-miterlimit:4;stroke-dasharray:none;stroke-dashoffset:0;stroke-opacity:1" />
    </g>
    <g
       id="g442"
       transform="matrix(-1,0,0,1,290.5197,-3.2950238e-6)">
      <text
         transform="matrix(0,1,1,0,0,0)"
         id="text66-5-3"
         y="148.34183"
         x="116.21824"
         style="font-style:normal;font-weight:normal;font-size:8.46666622px;line-height:125%;font-family:Sans;letter-spacing:0px;word-spacing:0px;fill:#000000;fill-opacity:1;stroke:none;stroke-width:0.26458332px;stroke-linecap:butt;stroke-linejoin:miter;stroke-opacity:1"
         xml:space="preserve"><tspan
           style="font-size:8.46666622px;letter-spacing:0px;stroke-width:0.26458332px"
           y="148.34183"
           x="116.21824"
           id="tspan64-1-2"
           sodipodi:role="line">SIDE</tspan></text>
      <text
         transform="matrix(0,1,1,0,0,0)"
         id="text129-3"
         y="147.88197"
         x="142.28163"
         style="font-style:normal;font-weight:normal;font-size:3.52777767px;line-height:125%;font-family:Sans;letter-spacing:0px;word-spacing:0px;fill:#000000;fill-opacity:1;stroke:none;stroke-width:0.26458332px;stroke-linecap:butt;stroke-linejoin:miter;stroke-opacity:1"
         xml:space="preserve"><tspan
           style="stroke-width:0.26458332px"
           y="147.88197"
           x="142.28163"
           id="tspan127-8"
           sodipodi:role="line">(HS100)</tspan></text>
    </g>
    <path
       style="opacity:0.97000002;fill:#ffffff;fill-opacity:1;stroke:#000000;stroke-width:0.22632511;stroke-miterlimit:4;stroke-dasharray:none;stroke-dashoffset:0;stroke-opacity:1"
       id="path206-0"
       sodipodi:type="arc"
       sodipodi:cx="92.235802"
       sodipodi:cy="-140.36295"
       sodipodi:rx="1.8852556"
       sodipodi:ry="1.8868299"
       sodipodi:start="0"
       sodipodi:end="6.2408087"
       d="m 94.121057,-140.36295 a 1.8852556,1.8868299 0 0 1 -1.865283,1.88673 1.8852556,1.8868299 0 0 1 -1.904805,-1.84675 1.8852556,1.8868299 0 0 1 1.824925,-1.92585 1.8852556,1.8868299 0 0 1 1.943471,1.80594 l -1.883563,0.0799 z"
       transform="rotate(90)" />
    <g
       id="g760"
       transform="matrix(1,0,0,-1,-4.8278809e-6,474.1174)">
      <rect
         transform="rotate(90)"
         y="-79.80368"
         x="187.05132"
         height="49.714756"
         width="100.01476"
         id="rect131"
         style="opacity:0.97000002;fill:#ffffff;fill-opacity:1;stroke:#000000;stroke-width:0.28524277;stroke-miterlimit:4;stroke-dasharray:none;stroke-dashoffset:0;stroke-opacity:1" />
      <path
         transform="matrix(0.9999928,0.00379501,0.00380099,-0.99999278,0,0)"
         d="m 67.46722,-241.6076 a 1.4145083,1.415103 0 0 1 -1.399523,1.41502 1.4145083,1.415103 0 0 1 -1.429176,-1.38504 1.4145083,1.415103 0 0 1 1.369242,-1.44437 1.4145083,1.415103 0 0 1 1.458187,1.35444 l -1.413239,0.06 z"
         sodipodi:end="6.2408087"
         sodipodi:start="0"
         sodipodi:ry="1.415103"
         sodipodi:rx="1.4145083"
         sodipodi:cy="-241.6076"
         sodipodi:cx="66.052711"
         sodipodi:type="arc"
         id="path133"
         style="opacity:0.97000002;fill:#ffffff;fill-opacity:1;stroke:#000000;stroke-width:0.16977666;stroke-miterlimit:4;stroke-dasharray:none;stroke-dashoffset:0;stroke-opacity:1" />
      <path
         transform="matrix(0.99999279,0.00379673,0.00379927,-0.99999278,0,0)"
         d="m 62.292503,-271.16238 a 1.8851811,1.8868264 0 0 1 -1.86521,1.88672 1.8851811,1.8868264 0 0 1 -1.904729,-1.84675 1.8851811,1.8868264 0 0 1 1.824852,-1.92585 1.8851811,1.8868264 0 0 1 1.943395,1.80594 l -1.883489,0.0799 z"
         sodipodi:end="6.2408087"
         sodipodi:start="0"
         sodipodi:ry="1.8868264"
         sodipodi:rx="1.8851811"
         sodipodi:cy="-271.16238"
         sodipodi:cx="60.407322"
         sodipodi:type="arc"
         id="path133-8"
         style="opacity:0.97000002;fill:#ffffff;fill-opacity:1;stroke:#000000;stroke-width:0.22632042;stroke-miterlimit:4;stroke-dasharray:none;stroke-dashoffset:0;stroke-opacity:1" />
      <g
         transform="rotate(180,47.531759,261.58175)"
         id="g430">
        <text
           xml:space="preserve"
           style="font-style:normal;font-weight:normal;font-size:8.46666622px;line-height:125%;font-family:Sans;letter-spacing:0px;word-spacing:0px;fill:#000000;fill-opacity:1;stroke:none;stroke-width:0.26458332px;stroke-linecap:butt;stroke-linejoin:miter;stroke-opacity:1"
           x="243.48672"
           y="-44.44978"
           id="text66-5-9"
           transform="rotate(90)"><tspan
             sodipodi:role="line"
             id="tspan64-1-1"
             x="243.48672"
             y="-44.44978"
             style="font-size:8.46666622px;letter-spacing:0px;stroke-width:0.26458332px">SIDE</tspan></text>
        <text
           xml:space="preserve"
           style="font-style:normal;font-weight:normal;font-size:3.52777767px;line-height:125%;font-family:Sans;letter-spacing:0px;word-spacing:0px;fill:#000000;fill-opacity:1;stroke:none;stroke-width:0.26458332px;stroke-linecap:butt;stroke-linejoin:miter;stroke-opacity:1"
           x="267.06946"
           y="-44.870174"
           id="text129-5"
           transform="rotate(90)"><tspan
             sodipodi:role="line"
             id="tspan127-0"
             x="267.06946"
             y="-44.870174"
             style="stroke-width:0.26458332px">(RH50)</tspan></text>
      </g>
      <path
         transform="rotate(90)"
         d="m 203.77852,-43.348534 a 1.4137859,1.4151201 0 0 1 -1.39881,1.415041 1.4137859,1.4151201 0 0 1 -1.42845,-1.385059 1.4137859,1.4151201 0 0 1 1.36854,-1.444387 1.4137859,1.4151201 0 0 1 1.45745,1.354455 l -1.41252,0.05995 z"
         sodipodi:end="6.2408087"
         sodipodi:start="0"
         sodipodi:ry="1.4151201"
         sodipodi:rx="1.4137859"
         sodipodi:cy="-43.348534"
         sodipodi:cx="202.36473"
         sodipodi:type="arc"
         id="path286"
         style="opacity:0.97000002;fill:#ffffff;fill-opacity:1;stroke:#000000;stroke-width:0.16973434;stroke-miterlimit:4;stroke-dasharray:none;stroke-dashoffset:0;stroke-opacity:1" />
    </g>
    <rect
       style="opacity:0.97000002;fill:#ffffff;fill-opacity:1;stroke:#000000;stroke-width:0.28524277;stroke-miterlimit:4;stroke-dasharray:none;stroke-dashoffset:0;stroke-opacity:1"
       id="rect131-2"
       width="100.01476"
       height="49.714756"
       x="187.15941"
       y="120.37029"
       transform="matrix(0,1,1,0,0,0)" />
    <path
       style="opacity:0.97000002;fill:#ffffff;fill-opacity:1;stroke:#000000;stroke-width:0.16977666;stroke-miterlimit:4;stroke-dasharray:none;stroke-dashoffset:0;stroke-opacity:1"
       id="path133-0"
       sodipodi:type="arc"
       sodipodi:cx="-157.23953"
       sodipodi:cy="271.40305"
       sodipodi:rx="1.4145083"
       sodipodi:ry="1.415103"
       sodipodi:start="0"
       sodipodi:end="6.2408087"
       d="m -155.82502,271.40305 a 1.4145083,1.415103 0 0 1 -1.39953,1.41502 1.4145083,1.415103 0 0 1 -1.42917,-1.38504 1.4145083,1.415103 0 0 1 1.36924,-1.44437 1.4145083,1.415103 0 0 1 1.45819,1.35444 l -1.41324,0.06 z"
       transform="matrix(-0.9999928,-0.00379501,-0.00380099,0.99999278,0,0)" />
    <path
       style="opacity:0.97000002;fill:#ffffff;fill-opacity:1;stroke:#000000;stroke-width:0.16977666;stroke-miterlimit:4;stroke-dasharray:none;stroke-dashoffset:0;stroke-opacity:1"
       id="path133-8-1"
       sodipodi:type="arc"
       sodipodi:cx="-135.82878"
       sodipodi:cy="231.92613"
       sodipodi:rx="1.4145083"
       sodipodi:ry="1.415103"
       sodipodi:start="0"
       sodipodi:end="6.2408087"
       d="m -134.41427,231.92613 a 1.4145083,1.415103 0 0 1 -1.39953,1.41503 1.4145083,1.415103 0 0 1 -1.42917,-1.38505 1.4145083,1.415103 0 0 1 1.36924,-1.44437 1.4145083,1.415103 0 0 1 1.45819,1.35444 l -1.41324,0.0599 z"
       transform="matrix(-0.9999928,-0.00379501,-0.00380099,0.99999278,0,0)" />
    <g
       id="g424"
       transform="matrix(-1,0,0,1,304.21533,-47.355064)">
      <text
         transform="matrix(0,1,1,0,0,0)"
         id="text66-5-9-3"
         y="154.12056"
         x="241.9912"
         style="font-style:normal;font-weight:normal;font-size:8.46666622px;line-height:125%;font-family:Sans;letter-spacing:0px;word-spacing:0px;fill:#000000;fill-opacity:1;stroke:none;stroke-width:0.26458332px;stroke-linecap:butt;stroke-linejoin:miter;stroke-opacity:1"
         xml:space="preserve"><tspan
           style="font-size:8.46666622px;letter-spacing:0px;stroke-width:0.26458332px"
           y="154.12056"
           x="241.9912"
           id="tspan64-1-1-9"
           sodipodi:role="line">SIDE</tspan></text>
      <text
         transform="matrix(0,1,1,0,0,0)"
         id="text129-5-7"
         y="153.70016"
         x="265.57394"
         style="font-style:normal;font-weight:normal;font-size:3.52777767px;line-height:125%;font-family:Sans;letter-spacing:0px;word-spacing:0px;fill:#000000;fill-opacity:1;stroke:none;stroke-width:0.26458332px;stroke-linecap:butt;stroke-linejoin:miter;stroke-opacity:1"
         xml:space="preserve"><tspan
           style="stroke-width:0.26458332px"
           y="153.70016"
           x="265.57394"
           id="tspan127-0-7"
           sodipodi:role="line">(RH50)</tspan></text>
    </g>
    <path
       style="opacity:0.97000002;fill:#ffffff;fill-opacity:1;stroke:#000000;stroke-width:0.22635967;stroke-miterlimit:4;stroke-dasharray:none;stroke-dashoffset:0;stroke-opacity:1"
       id="path286-3"
       sodipodi:type="arc"
       sodipodi:cx="201.97185"
       sodipodi:cy="140.3923"
       sodipodi:rx="1.8858496"
       sodipodi:ry="1.8868116"
       sodipodi:start="0"
       sodipodi:end="6.2408087"
       d="m 203.8577,140.3923 a 1.8858496,1.8868116 0 0 1 -1.86587,1.88671 1.8858496,1.8868116 0 0 1 -1.90541,-1.84673 1.8858496,1.8868116 0 0 1 1.8255,-1.92584 1.8858496,1.8868116 0 0 1 1.94408,1.80593 l -1.88415,0.0799 z"
       transform="matrix(0,1,1,0,0,0)" />
  </g>
</svg>
