G04 #@! TF.GenerationSoftware,KiCad,Pcbnew,(5.1.2-1)-1*
G04 #@! TF.CreationDate,2019-07-19T20:23:14+01:00*
G04 #@! TF.ProjectId,CurrentSinkModule,43757272-656e-4745-9369-6e6b4d6f6475,RevC*
G04 #@! TF.SameCoordinates,Original*
G04 #@! TF.FileFunction,Paste,Bot*
G04 #@! TF.FilePolarity,Positive*
%FSLAX46Y46*%
G04 Gerber Fmt 4.6, Leading zero omitted, Abs format (unit mm)*
G04 Created by KiCad (PCBNEW (5.1.2-1)-1) date 2019-07-19 20:23:14*
%MOMM*%
%LPD*%
G04 APERTURE LIST*
%ADD10C,0.100000*%
%ADD11C,0.590000*%
G04 APERTURE END LIST*
D10*
G36*
X247661958Y-146492710D02*
G01*
X247676276Y-146494834D01*
X247690317Y-146498351D01*
X247703946Y-146503228D01*
X247717031Y-146509417D01*
X247729447Y-146516858D01*
X247741073Y-146525481D01*
X247751798Y-146535202D01*
X247761519Y-146545927D01*
X247770142Y-146557553D01*
X247777583Y-146569969D01*
X247783772Y-146583054D01*
X247788649Y-146596683D01*
X247792166Y-146610724D01*
X247794290Y-146625042D01*
X247795000Y-146639500D01*
X247795000Y-146984500D01*
X247794290Y-146998958D01*
X247792166Y-147013276D01*
X247788649Y-147027317D01*
X247783772Y-147040946D01*
X247777583Y-147054031D01*
X247770142Y-147066447D01*
X247761519Y-147078073D01*
X247751798Y-147088798D01*
X247741073Y-147098519D01*
X247729447Y-147107142D01*
X247717031Y-147114583D01*
X247703946Y-147120772D01*
X247690317Y-147125649D01*
X247676276Y-147129166D01*
X247661958Y-147131290D01*
X247647500Y-147132000D01*
X247352500Y-147132000D01*
X247338042Y-147131290D01*
X247323724Y-147129166D01*
X247309683Y-147125649D01*
X247296054Y-147120772D01*
X247282969Y-147114583D01*
X247270553Y-147107142D01*
X247258927Y-147098519D01*
X247248202Y-147088798D01*
X247238481Y-147078073D01*
X247229858Y-147066447D01*
X247222417Y-147054031D01*
X247216228Y-147040946D01*
X247211351Y-147027317D01*
X247207834Y-147013276D01*
X247205710Y-146998958D01*
X247205000Y-146984500D01*
X247205000Y-146639500D01*
X247205710Y-146625042D01*
X247207834Y-146610724D01*
X247211351Y-146596683D01*
X247216228Y-146583054D01*
X247222417Y-146569969D01*
X247229858Y-146557553D01*
X247238481Y-146545927D01*
X247248202Y-146535202D01*
X247258927Y-146525481D01*
X247270553Y-146516858D01*
X247282969Y-146509417D01*
X247296054Y-146503228D01*
X247309683Y-146498351D01*
X247323724Y-146494834D01*
X247338042Y-146492710D01*
X247352500Y-146492000D01*
X247647500Y-146492000D01*
X247661958Y-146492710D01*
X247661958Y-146492710D01*
G37*
D11*
X247500000Y-146812000D03*
D10*
G36*
X246691958Y-146492710D02*
G01*
X246706276Y-146494834D01*
X246720317Y-146498351D01*
X246733946Y-146503228D01*
X246747031Y-146509417D01*
X246759447Y-146516858D01*
X246771073Y-146525481D01*
X246781798Y-146535202D01*
X246791519Y-146545927D01*
X246800142Y-146557553D01*
X246807583Y-146569969D01*
X246813772Y-146583054D01*
X246818649Y-146596683D01*
X246822166Y-146610724D01*
X246824290Y-146625042D01*
X246825000Y-146639500D01*
X246825000Y-146984500D01*
X246824290Y-146998958D01*
X246822166Y-147013276D01*
X246818649Y-147027317D01*
X246813772Y-147040946D01*
X246807583Y-147054031D01*
X246800142Y-147066447D01*
X246791519Y-147078073D01*
X246781798Y-147088798D01*
X246771073Y-147098519D01*
X246759447Y-147107142D01*
X246747031Y-147114583D01*
X246733946Y-147120772D01*
X246720317Y-147125649D01*
X246706276Y-147129166D01*
X246691958Y-147131290D01*
X246677500Y-147132000D01*
X246382500Y-147132000D01*
X246368042Y-147131290D01*
X246353724Y-147129166D01*
X246339683Y-147125649D01*
X246326054Y-147120772D01*
X246312969Y-147114583D01*
X246300553Y-147107142D01*
X246288927Y-147098519D01*
X246278202Y-147088798D01*
X246268481Y-147078073D01*
X246259858Y-147066447D01*
X246252417Y-147054031D01*
X246246228Y-147040946D01*
X246241351Y-147027317D01*
X246237834Y-147013276D01*
X246235710Y-146998958D01*
X246235000Y-146984500D01*
X246235000Y-146639500D01*
X246235710Y-146625042D01*
X246237834Y-146610724D01*
X246241351Y-146596683D01*
X246246228Y-146583054D01*
X246252417Y-146569969D01*
X246259858Y-146557553D01*
X246268481Y-146545927D01*
X246278202Y-146535202D01*
X246288927Y-146525481D01*
X246300553Y-146516858D01*
X246312969Y-146509417D01*
X246326054Y-146503228D01*
X246339683Y-146498351D01*
X246353724Y-146494834D01*
X246368042Y-146492710D01*
X246382500Y-146492000D01*
X246677500Y-146492000D01*
X246691958Y-146492710D01*
X246691958Y-146492710D01*
G37*
D11*
X246530000Y-146812000D03*
D10*
G36*
X251771958Y-140777710D02*
G01*
X251786276Y-140779834D01*
X251800317Y-140783351D01*
X251813946Y-140788228D01*
X251827031Y-140794417D01*
X251839447Y-140801858D01*
X251851073Y-140810481D01*
X251861798Y-140820202D01*
X251871519Y-140830927D01*
X251880142Y-140842553D01*
X251887583Y-140854969D01*
X251893772Y-140868054D01*
X251898649Y-140881683D01*
X251902166Y-140895724D01*
X251904290Y-140910042D01*
X251905000Y-140924500D01*
X251905000Y-141269500D01*
X251904290Y-141283958D01*
X251902166Y-141298276D01*
X251898649Y-141312317D01*
X251893772Y-141325946D01*
X251887583Y-141339031D01*
X251880142Y-141351447D01*
X251871519Y-141363073D01*
X251861798Y-141373798D01*
X251851073Y-141383519D01*
X251839447Y-141392142D01*
X251827031Y-141399583D01*
X251813946Y-141405772D01*
X251800317Y-141410649D01*
X251786276Y-141414166D01*
X251771958Y-141416290D01*
X251757500Y-141417000D01*
X251462500Y-141417000D01*
X251448042Y-141416290D01*
X251433724Y-141414166D01*
X251419683Y-141410649D01*
X251406054Y-141405772D01*
X251392969Y-141399583D01*
X251380553Y-141392142D01*
X251368927Y-141383519D01*
X251358202Y-141373798D01*
X251348481Y-141363073D01*
X251339858Y-141351447D01*
X251332417Y-141339031D01*
X251326228Y-141325946D01*
X251321351Y-141312317D01*
X251317834Y-141298276D01*
X251315710Y-141283958D01*
X251315000Y-141269500D01*
X251315000Y-140924500D01*
X251315710Y-140910042D01*
X251317834Y-140895724D01*
X251321351Y-140881683D01*
X251326228Y-140868054D01*
X251332417Y-140854969D01*
X251339858Y-140842553D01*
X251348481Y-140830927D01*
X251358202Y-140820202D01*
X251368927Y-140810481D01*
X251380553Y-140801858D01*
X251392969Y-140794417D01*
X251406054Y-140788228D01*
X251419683Y-140783351D01*
X251433724Y-140779834D01*
X251448042Y-140777710D01*
X251462500Y-140777000D01*
X251757500Y-140777000D01*
X251771958Y-140777710D01*
X251771958Y-140777710D01*
G37*
D11*
X251610000Y-141097000D03*
D10*
G36*
X252741958Y-140777710D02*
G01*
X252756276Y-140779834D01*
X252770317Y-140783351D01*
X252783946Y-140788228D01*
X252797031Y-140794417D01*
X252809447Y-140801858D01*
X252821073Y-140810481D01*
X252831798Y-140820202D01*
X252841519Y-140830927D01*
X252850142Y-140842553D01*
X252857583Y-140854969D01*
X252863772Y-140868054D01*
X252868649Y-140881683D01*
X252872166Y-140895724D01*
X252874290Y-140910042D01*
X252875000Y-140924500D01*
X252875000Y-141269500D01*
X252874290Y-141283958D01*
X252872166Y-141298276D01*
X252868649Y-141312317D01*
X252863772Y-141325946D01*
X252857583Y-141339031D01*
X252850142Y-141351447D01*
X252841519Y-141363073D01*
X252831798Y-141373798D01*
X252821073Y-141383519D01*
X252809447Y-141392142D01*
X252797031Y-141399583D01*
X252783946Y-141405772D01*
X252770317Y-141410649D01*
X252756276Y-141414166D01*
X252741958Y-141416290D01*
X252727500Y-141417000D01*
X252432500Y-141417000D01*
X252418042Y-141416290D01*
X252403724Y-141414166D01*
X252389683Y-141410649D01*
X252376054Y-141405772D01*
X252362969Y-141399583D01*
X252350553Y-141392142D01*
X252338927Y-141383519D01*
X252328202Y-141373798D01*
X252318481Y-141363073D01*
X252309858Y-141351447D01*
X252302417Y-141339031D01*
X252296228Y-141325946D01*
X252291351Y-141312317D01*
X252287834Y-141298276D01*
X252285710Y-141283958D01*
X252285000Y-141269500D01*
X252285000Y-140924500D01*
X252285710Y-140910042D01*
X252287834Y-140895724D01*
X252291351Y-140881683D01*
X252296228Y-140868054D01*
X252302417Y-140854969D01*
X252309858Y-140842553D01*
X252318481Y-140830927D01*
X252328202Y-140820202D01*
X252338927Y-140810481D01*
X252350553Y-140801858D01*
X252362969Y-140794417D01*
X252376054Y-140788228D01*
X252389683Y-140783351D01*
X252403724Y-140779834D01*
X252418042Y-140777710D01*
X252432500Y-140777000D01*
X252727500Y-140777000D01*
X252741958Y-140777710D01*
X252741958Y-140777710D01*
G37*
D11*
X252580000Y-141097000D03*
D10*
G36*
X247661958Y-144587710D02*
G01*
X247676276Y-144589834D01*
X247690317Y-144593351D01*
X247703946Y-144598228D01*
X247717031Y-144604417D01*
X247729447Y-144611858D01*
X247741073Y-144620481D01*
X247751798Y-144630202D01*
X247761519Y-144640927D01*
X247770142Y-144652553D01*
X247777583Y-144664969D01*
X247783772Y-144678054D01*
X247788649Y-144691683D01*
X247792166Y-144705724D01*
X247794290Y-144720042D01*
X247795000Y-144734500D01*
X247795000Y-145079500D01*
X247794290Y-145093958D01*
X247792166Y-145108276D01*
X247788649Y-145122317D01*
X247783772Y-145135946D01*
X247777583Y-145149031D01*
X247770142Y-145161447D01*
X247761519Y-145173073D01*
X247751798Y-145183798D01*
X247741073Y-145193519D01*
X247729447Y-145202142D01*
X247717031Y-145209583D01*
X247703946Y-145215772D01*
X247690317Y-145220649D01*
X247676276Y-145224166D01*
X247661958Y-145226290D01*
X247647500Y-145227000D01*
X247352500Y-145227000D01*
X247338042Y-145226290D01*
X247323724Y-145224166D01*
X247309683Y-145220649D01*
X247296054Y-145215772D01*
X247282969Y-145209583D01*
X247270553Y-145202142D01*
X247258927Y-145193519D01*
X247248202Y-145183798D01*
X247238481Y-145173073D01*
X247229858Y-145161447D01*
X247222417Y-145149031D01*
X247216228Y-145135946D01*
X247211351Y-145122317D01*
X247207834Y-145108276D01*
X247205710Y-145093958D01*
X247205000Y-145079500D01*
X247205000Y-144734500D01*
X247205710Y-144720042D01*
X247207834Y-144705724D01*
X247211351Y-144691683D01*
X247216228Y-144678054D01*
X247222417Y-144664969D01*
X247229858Y-144652553D01*
X247238481Y-144640927D01*
X247248202Y-144630202D01*
X247258927Y-144620481D01*
X247270553Y-144611858D01*
X247282969Y-144604417D01*
X247296054Y-144598228D01*
X247309683Y-144593351D01*
X247323724Y-144589834D01*
X247338042Y-144587710D01*
X247352500Y-144587000D01*
X247647500Y-144587000D01*
X247661958Y-144587710D01*
X247661958Y-144587710D01*
G37*
D11*
X247500000Y-144907000D03*
D10*
G36*
X246691958Y-144587710D02*
G01*
X246706276Y-144589834D01*
X246720317Y-144593351D01*
X246733946Y-144598228D01*
X246747031Y-144604417D01*
X246759447Y-144611858D01*
X246771073Y-144620481D01*
X246781798Y-144630202D01*
X246791519Y-144640927D01*
X246800142Y-144652553D01*
X246807583Y-144664969D01*
X246813772Y-144678054D01*
X246818649Y-144691683D01*
X246822166Y-144705724D01*
X246824290Y-144720042D01*
X246825000Y-144734500D01*
X246825000Y-145079500D01*
X246824290Y-145093958D01*
X246822166Y-145108276D01*
X246818649Y-145122317D01*
X246813772Y-145135946D01*
X246807583Y-145149031D01*
X246800142Y-145161447D01*
X246791519Y-145173073D01*
X246781798Y-145183798D01*
X246771073Y-145193519D01*
X246759447Y-145202142D01*
X246747031Y-145209583D01*
X246733946Y-145215772D01*
X246720317Y-145220649D01*
X246706276Y-145224166D01*
X246691958Y-145226290D01*
X246677500Y-145227000D01*
X246382500Y-145227000D01*
X246368042Y-145226290D01*
X246353724Y-145224166D01*
X246339683Y-145220649D01*
X246326054Y-145215772D01*
X246312969Y-145209583D01*
X246300553Y-145202142D01*
X246288927Y-145193519D01*
X246278202Y-145183798D01*
X246268481Y-145173073D01*
X246259858Y-145161447D01*
X246252417Y-145149031D01*
X246246228Y-145135946D01*
X246241351Y-145122317D01*
X246237834Y-145108276D01*
X246235710Y-145093958D01*
X246235000Y-145079500D01*
X246235000Y-144734500D01*
X246235710Y-144720042D01*
X246237834Y-144705724D01*
X246241351Y-144691683D01*
X246246228Y-144678054D01*
X246252417Y-144664969D01*
X246259858Y-144652553D01*
X246268481Y-144640927D01*
X246278202Y-144630202D01*
X246288927Y-144620481D01*
X246300553Y-144611858D01*
X246312969Y-144604417D01*
X246326054Y-144598228D01*
X246339683Y-144593351D01*
X246353724Y-144589834D01*
X246368042Y-144587710D01*
X246382500Y-144587000D01*
X246677500Y-144587000D01*
X246691958Y-144587710D01*
X246691958Y-144587710D01*
G37*
D11*
X246530000Y-144907000D03*
D10*
G36*
X251771958Y-138872710D02*
G01*
X251786276Y-138874834D01*
X251800317Y-138878351D01*
X251813946Y-138883228D01*
X251827031Y-138889417D01*
X251839447Y-138896858D01*
X251851073Y-138905481D01*
X251861798Y-138915202D01*
X251871519Y-138925927D01*
X251880142Y-138937553D01*
X251887583Y-138949969D01*
X251893772Y-138963054D01*
X251898649Y-138976683D01*
X251902166Y-138990724D01*
X251904290Y-139005042D01*
X251905000Y-139019500D01*
X251905000Y-139364500D01*
X251904290Y-139378958D01*
X251902166Y-139393276D01*
X251898649Y-139407317D01*
X251893772Y-139420946D01*
X251887583Y-139434031D01*
X251880142Y-139446447D01*
X251871519Y-139458073D01*
X251861798Y-139468798D01*
X251851073Y-139478519D01*
X251839447Y-139487142D01*
X251827031Y-139494583D01*
X251813946Y-139500772D01*
X251800317Y-139505649D01*
X251786276Y-139509166D01*
X251771958Y-139511290D01*
X251757500Y-139512000D01*
X251462500Y-139512000D01*
X251448042Y-139511290D01*
X251433724Y-139509166D01*
X251419683Y-139505649D01*
X251406054Y-139500772D01*
X251392969Y-139494583D01*
X251380553Y-139487142D01*
X251368927Y-139478519D01*
X251358202Y-139468798D01*
X251348481Y-139458073D01*
X251339858Y-139446447D01*
X251332417Y-139434031D01*
X251326228Y-139420946D01*
X251321351Y-139407317D01*
X251317834Y-139393276D01*
X251315710Y-139378958D01*
X251315000Y-139364500D01*
X251315000Y-139019500D01*
X251315710Y-139005042D01*
X251317834Y-138990724D01*
X251321351Y-138976683D01*
X251326228Y-138963054D01*
X251332417Y-138949969D01*
X251339858Y-138937553D01*
X251348481Y-138925927D01*
X251358202Y-138915202D01*
X251368927Y-138905481D01*
X251380553Y-138896858D01*
X251392969Y-138889417D01*
X251406054Y-138883228D01*
X251419683Y-138878351D01*
X251433724Y-138874834D01*
X251448042Y-138872710D01*
X251462500Y-138872000D01*
X251757500Y-138872000D01*
X251771958Y-138872710D01*
X251771958Y-138872710D01*
G37*
D11*
X251610000Y-139192000D03*
D10*
G36*
X252741958Y-138872710D02*
G01*
X252756276Y-138874834D01*
X252770317Y-138878351D01*
X252783946Y-138883228D01*
X252797031Y-138889417D01*
X252809447Y-138896858D01*
X252821073Y-138905481D01*
X252831798Y-138915202D01*
X252841519Y-138925927D01*
X252850142Y-138937553D01*
X252857583Y-138949969D01*
X252863772Y-138963054D01*
X252868649Y-138976683D01*
X252872166Y-138990724D01*
X252874290Y-139005042D01*
X252875000Y-139019500D01*
X252875000Y-139364500D01*
X252874290Y-139378958D01*
X252872166Y-139393276D01*
X252868649Y-139407317D01*
X252863772Y-139420946D01*
X252857583Y-139434031D01*
X252850142Y-139446447D01*
X252841519Y-139458073D01*
X252831798Y-139468798D01*
X252821073Y-139478519D01*
X252809447Y-139487142D01*
X252797031Y-139494583D01*
X252783946Y-139500772D01*
X252770317Y-139505649D01*
X252756276Y-139509166D01*
X252741958Y-139511290D01*
X252727500Y-139512000D01*
X252432500Y-139512000D01*
X252418042Y-139511290D01*
X252403724Y-139509166D01*
X252389683Y-139505649D01*
X252376054Y-139500772D01*
X252362969Y-139494583D01*
X252350553Y-139487142D01*
X252338927Y-139478519D01*
X252328202Y-139468798D01*
X252318481Y-139458073D01*
X252309858Y-139446447D01*
X252302417Y-139434031D01*
X252296228Y-139420946D01*
X252291351Y-139407317D01*
X252287834Y-139393276D01*
X252285710Y-139378958D01*
X252285000Y-139364500D01*
X252285000Y-139019500D01*
X252285710Y-139005042D01*
X252287834Y-138990724D01*
X252291351Y-138976683D01*
X252296228Y-138963054D01*
X252302417Y-138949969D01*
X252309858Y-138937553D01*
X252318481Y-138925927D01*
X252328202Y-138915202D01*
X252338927Y-138905481D01*
X252350553Y-138896858D01*
X252362969Y-138889417D01*
X252376054Y-138883228D01*
X252389683Y-138878351D01*
X252403724Y-138874834D01*
X252418042Y-138872710D01*
X252432500Y-138872000D01*
X252727500Y-138872000D01*
X252741958Y-138872710D01*
X252741958Y-138872710D01*
G37*
D11*
X252580000Y-139192000D03*
D10*
G36*
X269467858Y-85481910D02*
G01*
X269482176Y-85484034D01*
X269496217Y-85487551D01*
X269509846Y-85492428D01*
X269522931Y-85498617D01*
X269535347Y-85506058D01*
X269546973Y-85514681D01*
X269557698Y-85524402D01*
X269567419Y-85535127D01*
X269576042Y-85546753D01*
X269583483Y-85559169D01*
X269589672Y-85572254D01*
X269594549Y-85585883D01*
X269598066Y-85599924D01*
X269600190Y-85614242D01*
X269600900Y-85628700D01*
X269600900Y-85973700D01*
X269600190Y-85988158D01*
X269598066Y-86002476D01*
X269594549Y-86016517D01*
X269589672Y-86030146D01*
X269583483Y-86043231D01*
X269576042Y-86055647D01*
X269567419Y-86067273D01*
X269557698Y-86077998D01*
X269546973Y-86087719D01*
X269535347Y-86096342D01*
X269522931Y-86103783D01*
X269509846Y-86109972D01*
X269496217Y-86114849D01*
X269482176Y-86118366D01*
X269467858Y-86120490D01*
X269453400Y-86121200D01*
X269158400Y-86121200D01*
X269143942Y-86120490D01*
X269129624Y-86118366D01*
X269115583Y-86114849D01*
X269101954Y-86109972D01*
X269088869Y-86103783D01*
X269076453Y-86096342D01*
X269064827Y-86087719D01*
X269054102Y-86077998D01*
X269044381Y-86067273D01*
X269035758Y-86055647D01*
X269028317Y-86043231D01*
X269022128Y-86030146D01*
X269017251Y-86016517D01*
X269013734Y-86002476D01*
X269011610Y-85988158D01*
X269010900Y-85973700D01*
X269010900Y-85628700D01*
X269011610Y-85614242D01*
X269013734Y-85599924D01*
X269017251Y-85585883D01*
X269022128Y-85572254D01*
X269028317Y-85559169D01*
X269035758Y-85546753D01*
X269044381Y-85535127D01*
X269054102Y-85524402D01*
X269064827Y-85514681D01*
X269076453Y-85506058D01*
X269088869Y-85498617D01*
X269101954Y-85492428D01*
X269115583Y-85487551D01*
X269129624Y-85484034D01*
X269143942Y-85481910D01*
X269158400Y-85481200D01*
X269453400Y-85481200D01*
X269467858Y-85481910D01*
X269467858Y-85481910D01*
G37*
D11*
X269305900Y-85801200D03*
D10*
G36*
X268497858Y-85481910D02*
G01*
X268512176Y-85484034D01*
X268526217Y-85487551D01*
X268539846Y-85492428D01*
X268552931Y-85498617D01*
X268565347Y-85506058D01*
X268576973Y-85514681D01*
X268587698Y-85524402D01*
X268597419Y-85535127D01*
X268606042Y-85546753D01*
X268613483Y-85559169D01*
X268619672Y-85572254D01*
X268624549Y-85585883D01*
X268628066Y-85599924D01*
X268630190Y-85614242D01*
X268630900Y-85628700D01*
X268630900Y-85973700D01*
X268630190Y-85988158D01*
X268628066Y-86002476D01*
X268624549Y-86016517D01*
X268619672Y-86030146D01*
X268613483Y-86043231D01*
X268606042Y-86055647D01*
X268597419Y-86067273D01*
X268587698Y-86077998D01*
X268576973Y-86087719D01*
X268565347Y-86096342D01*
X268552931Y-86103783D01*
X268539846Y-86109972D01*
X268526217Y-86114849D01*
X268512176Y-86118366D01*
X268497858Y-86120490D01*
X268483400Y-86121200D01*
X268188400Y-86121200D01*
X268173942Y-86120490D01*
X268159624Y-86118366D01*
X268145583Y-86114849D01*
X268131954Y-86109972D01*
X268118869Y-86103783D01*
X268106453Y-86096342D01*
X268094827Y-86087719D01*
X268084102Y-86077998D01*
X268074381Y-86067273D01*
X268065758Y-86055647D01*
X268058317Y-86043231D01*
X268052128Y-86030146D01*
X268047251Y-86016517D01*
X268043734Y-86002476D01*
X268041610Y-85988158D01*
X268040900Y-85973700D01*
X268040900Y-85628700D01*
X268041610Y-85614242D01*
X268043734Y-85599924D01*
X268047251Y-85585883D01*
X268052128Y-85572254D01*
X268058317Y-85559169D01*
X268065758Y-85546753D01*
X268074381Y-85535127D01*
X268084102Y-85524402D01*
X268094827Y-85514681D01*
X268106453Y-85506058D01*
X268118869Y-85498617D01*
X268131954Y-85492428D01*
X268145583Y-85487551D01*
X268159624Y-85484034D01*
X268173942Y-85481910D01*
X268188400Y-85481200D01*
X268483400Y-85481200D01*
X268497858Y-85481910D01*
X268497858Y-85481910D01*
G37*
D11*
X268335900Y-85801200D03*
D10*
G36*
X273450858Y-77861910D02*
G01*
X273465176Y-77864034D01*
X273479217Y-77867551D01*
X273492846Y-77872428D01*
X273505931Y-77878617D01*
X273518347Y-77886058D01*
X273529973Y-77894681D01*
X273540698Y-77904402D01*
X273550419Y-77915127D01*
X273559042Y-77926753D01*
X273566483Y-77939169D01*
X273572672Y-77952254D01*
X273577549Y-77965883D01*
X273581066Y-77979924D01*
X273583190Y-77994242D01*
X273583900Y-78008700D01*
X273583900Y-78353700D01*
X273583190Y-78368158D01*
X273581066Y-78382476D01*
X273577549Y-78396517D01*
X273572672Y-78410146D01*
X273566483Y-78423231D01*
X273559042Y-78435647D01*
X273550419Y-78447273D01*
X273540698Y-78457998D01*
X273529973Y-78467719D01*
X273518347Y-78476342D01*
X273505931Y-78483783D01*
X273492846Y-78489972D01*
X273479217Y-78494849D01*
X273465176Y-78498366D01*
X273450858Y-78500490D01*
X273436400Y-78501200D01*
X273141400Y-78501200D01*
X273126942Y-78500490D01*
X273112624Y-78498366D01*
X273098583Y-78494849D01*
X273084954Y-78489972D01*
X273071869Y-78483783D01*
X273059453Y-78476342D01*
X273047827Y-78467719D01*
X273037102Y-78457998D01*
X273027381Y-78447273D01*
X273018758Y-78435647D01*
X273011317Y-78423231D01*
X273005128Y-78410146D01*
X273000251Y-78396517D01*
X272996734Y-78382476D01*
X272994610Y-78368158D01*
X272993900Y-78353700D01*
X272993900Y-78008700D01*
X272994610Y-77994242D01*
X272996734Y-77979924D01*
X273000251Y-77965883D01*
X273005128Y-77952254D01*
X273011317Y-77939169D01*
X273018758Y-77926753D01*
X273027381Y-77915127D01*
X273037102Y-77904402D01*
X273047827Y-77894681D01*
X273059453Y-77886058D01*
X273071869Y-77878617D01*
X273084954Y-77872428D01*
X273098583Y-77867551D01*
X273112624Y-77864034D01*
X273126942Y-77861910D01*
X273141400Y-77861200D01*
X273436400Y-77861200D01*
X273450858Y-77861910D01*
X273450858Y-77861910D01*
G37*
D11*
X273288900Y-78181200D03*
D10*
G36*
X274420858Y-77861910D02*
G01*
X274435176Y-77864034D01*
X274449217Y-77867551D01*
X274462846Y-77872428D01*
X274475931Y-77878617D01*
X274488347Y-77886058D01*
X274499973Y-77894681D01*
X274510698Y-77904402D01*
X274520419Y-77915127D01*
X274529042Y-77926753D01*
X274536483Y-77939169D01*
X274542672Y-77952254D01*
X274547549Y-77965883D01*
X274551066Y-77979924D01*
X274553190Y-77994242D01*
X274553900Y-78008700D01*
X274553900Y-78353700D01*
X274553190Y-78368158D01*
X274551066Y-78382476D01*
X274547549Y-78396517D01*
X274542672Y-78410146D01*
X274536483Y-78423231D01*
X274529042Y-78435647D01*
X274520419Y-78447273D01*
X274510698Y-78457998D01*
X274499973Y-78467719D01*
X274488347Y-78476342D01*
X274475931Y-78483783D01*
X274462846Y-78489972D01*
X274449217Y-78494849D01*
X274435176Y-78498366D01*
X274420858Y-78500490D01*
X274406400Y-78501200D01*
X274111400Y-78501200D01*
X274096942Y-78500490D01*
X274082624Y-78498366D01*
X274068583Y-78494849D01*
X274054954Y-78489972D01*
X274041869Y-78483783D01*
X274029453Y-78476342D01*
X274017827Y-78467719D01*
X274007102Y-78457998D01*
X273997381Y-78447273D01*
X273988758Y-78435647D01*
X273981317Y-78423231D01*
X273975128Y-78410146D01*
X273970251Y-78396517D01*
X273966734Y-78382476D01*
X273964610Y-78368158D01*
X273963900Y-78353700D01*
X273963900Y-78008700D01*
X273964610Y-77994242D01*
X273966734Y-77979924D01*
X273970251Y-77965883D01*
X273975128Y-77952254D01*
X273981317Y-77939169D01*
X273988758Y-77926753D01*
X273997381Y-77915127D01*
X274007102Y-77904402D01*
X274017827Y-77894681D01*
X274029453Y-77886058D01*
X274041869Y-77878617D01*
X274054954Y-77872428D01*
X274068583Y-77867551D01*
X274082624Y-77864034D01*
X274096942Y-77861910D01*
X274111400Y-77861200D01*
X274406400Y-77861200D01*
X274420858Y-77861910D01*
X274420858Y-77861910D01*
G37*
D11*
X274258900Y-78181200D03*
D10*
G36*
X269467858Y-83576910D02*
G01*
X269482176Y-83579034D01*
X269496217Y-83582551D01*
X269509846Y-83587428D01*
X269522931Y-83593617D01*
X269535347Y-83601058D01*
X269546973Y-83609681D01*
X269557698Y-83619402D01*
X269567419Y-83630127D01*
X269576042Y-83641753D01*
X269583483Y-83654169D01*
X269589672Y-83667254D01*
X269594549Y-83680883D01*
X269598066Y-83694924D01*
X269600190Y-83709242D01*
X269600900Y-83723700D01*
X269600900Y-84068700D01*
X269600190Y-84083158D01*
X269598066Y-84097476D01*
X269594549Y-84111517D01*
X269589672Y-84125146D01*
X269583483Y-84138231D01*
X269576042Y-84150647D01*
X269567419Y-84162273D01*
X269557698Y-84172998D01*
X269546973Y-84182719D01*
X269535347Y-84191342D01*
X269522931Y-84198783D01*
X269509846Y-84204972D01*
X269496217Y-84209849D01*
X269482176Y-84213366D01*
X269467858Y-84215490D01*
X269453400Y-84216200D01*
X269158400Y-84216200D01*
X269143942Y-84215490D01*
X269129624Y-84213366D01*
X269115583Y-84209849D01*
X269101954Y-84204972D01*
X269088869Y-84198783D01*
X269076453Y-84191342D01*
X269064827Y-84182719D01*
X269054102Y-84172998D01*
X269044381Y-84162273D01*
X269035758Y-84150647D01*
X269028317Y-84138231D01*
X269022128Y-84125146D01*
X269017251Y-84111517D01*
X269013734Y-84097476D01*
X269011610Y-84083158D01*
X269010900Y-84068700D01*
X269010900Y-83723700D01*
X269011610Y-83709242D01*
X269013734Y-83694924D01*
X269017251Y-83680883D01*
X269022128Y-83667254D01*
X269028317Y-83654169D01*
X269035758Y-83641753D01*
X269044381Y-83630127D01*
X269054102Y-83619402D01*
X269064827Y-83609681D01*
X269076453Y-83601058D01*
X269088869Y-83593617D01*
X269101954Y-83587428D01*
X269115583Y-83582551D01*
X269129624Y-83579034D01*
X269143942Y-83576910D01*
X269158400Y-83576200D01*
X269453400Y-83576200D01*
X269467858Y-83576910D01*
X269467858Y-83576910D01*
G37*
D11*
X269305900Y-83896200D03*
D10*
G36*
X268497858Y-83576910D02*
G01*
X268512176Y-83579034D01*
X268526217Y-83582551D01*
X268539846Y-83587428D01*
X268552931Y-83593617D01*
X268565347Y-83601058D01*
X268576973Y-83609681D01*
X268587698Y-83619402D01*
X268597419Y-83630127D01*
X268606042Y-83641753D01*
X268613483Y-83654169D01*
X268619672Y-83667254D01*
X268624549Y-83680883D01*
X268628066Y-83694924D01*
X268630190Y-83709242D01*
X268630900Y-83723700D01*
X268630900Y-84068700D01*
X268630190Y-84083158D01*
X268628066Y-84097476D01*
X268624549Y-84111517D01*
X268619672Y-84125146D01*
X268613483Y-84138231D01*
X268606042Y-84150647D01*
X268597419Y-84162273D01*
X268587698Y-84172998D01*
X268576973Y-84182719D01*
X268565347Y-84191342D01*
X268552931Y-84198783D01*
X268539846Y-84204972D01*
X268526217Y-84209849D01*
X268512176Y-84213366D01*
X268497858Y-84215490D01*
X268483400Y-84216200D01*
X268188400Y-84216200D01*
X268173942Y-84215490D01*
X268159624Y-84213366D01*
X268145583Y-84209849D01*
X268131954Y-84204972D01*
X268118869Y-84198783D01*
X268106453Y-84191342D01*
X268094827Y-84182719D01*
X268084102Y-84172998D01*
X268074381Y-84162273D01*
X268065758Y-84150647D01*
X268058317Y-84138231D01*
X268052128Y-84125146D01*
X268047251Y-84111517D01*
X268043734Y-84097476D01*
X268041610Y-84083158D01*
X268040900Y-84068700D01*
X268040900Y-83723700D01*
X268041610Y-83709242D01*
X268043734Y-83694924D01*
X268047251Y-83680883D01*
X268052128Y-83667254D01*
X268058317Y-83654169D01*
X268065758Y-83641753D01*
X268074381Y-83630127D01*
X268084102Y-83619402D01*
X268094827Y-83609681D01*
X268106453Y-83601058D01*
X268118869Y-83593617D01*
X268131954Y-83587428D01*
X268145583Y-83582551D01*
X268159624Y-83579034D01*
X268173942Y-83576910D01*
X268188400Y-83576200D01*
X268483400Y-83576200D01*
X268497858Y-83576910D01*
X268497858Y-83576910D01*
G37*
D11*
X268335900Y-83896200D03*
D10*
G36*
X273450858Y-79766910D02*
G01*
X273465176Y-79769034D01*
X273479217Y-79772551D01*
X273492846Y-79777428D01*
X273505931Y-79783617D01*
X273518347Y-79791058D01*
X273529973Y-79799681D01*
X273540698Y-79809402D01*
X273550419Y-79820127D01*
X273559042Y-79831753D01*
X273566483Y-79844169D01*
X273572672Y-79857254D01*
X273577549Y-79870883D01*
X273581066Y-79884924D01*
X273583190Y-79899242D01*
X273583900Y-79913700D01*
X273583900Y-80258700D01*
X273583190Y-80273158D01*
X273581066Y-80287476D01*
X273577549Y-80301517D01*
X273572672Y-80315146D01*
X273566483Y-80328231D01*
X273559042Y-80340647D01*
X273550419Y-80352273D01*
X273540698Y-80362998D01*
X273529973Y-80372719D01*
X273518347Y-80381342D01*
X273505931Y-80388783D01*
X273492846Y-80394972D01*
X273479217Y-80399849D01*
X273465176Y-80403366D01*
X273450858Y-80405490D01*
X273436400Y-80406200D01*
X273141400Y-80406200D01*
X273126942Y-80405490D01*
X273112624Y-80403366D01*
X273098583Y-80399849D01*
X273084954Y-80394972D01*
X273071869Y-80388783D01*
X273059453Y-80381342D01*
X273047827Y-80372719D01*
X273037102Y-80362998D01*
X273027381Y-80352273D01*
X273018758Y-80340647D01*
X273011317Y-80328231D01*
X273005128Y-80315146D01*
X273000251Y-80301517D01*
X272996734Y-80287476D01*
X272994610Y-80273158D01*
X272993900Y-80258700D01*
X272993900Y-79913700D01*
X272994610Y-79899242D01*
X272996734Y-79884924D01*
X273000251Y-79870883D01*
X273005128Y-79857254D01*
X273011317Y-79844169D01*
X273018758Y-79831753D01*
X273027381Y-79820127D01*
X273037102Y-79809402D01*
X273047827Y-79799681D01*
X273059453Y-79791058D01*
X273071869Y-79783617D01*
X273084954Y-79777428D01*
X273098583Y-79772551D01*
X273112624Y-79769034D01*
X273126942Y-79766910D01*
X273141400Y-79766200D01*
X273436400Y-79766200D01*
X273450858Y-79766910D01*
X273450858Y-79766910D01*
G37*
D11*
X273288900Y-80086200D03*
D10*
G36*
X274420858Y-79766910D02*
G01*
X274435176Y-79769034D01*
X274449217Y-79772551D01*
X274462846Y-79777428D01*
X274475931Y-79783617D01*
X274488347Y-79791058D01*
X274499973Y-79799681D01*
X274510698Y-79809402D01*
X274520419Y-79820127D01*
X274529042Y-79831753D01*
X274536483Y-79844169D01*
X274542672Y-79857254D01*
X274547549Y-79870883D01*
X274551066Y-79884924D01*
X274553190Y-79899242D01*
X274553900Y-79913700D01*
X274553900Y-80258700D01*
X274553190Y-80273158D01*
X274551066Y-80287476D01*
X274547549Y-80301517D01*
X274542672Y-80315146D01*
X274536483Y-80328231D01*
X274529042Y-80340647D01*
X274520419Y-80352273D01*
X274510698Y-80362998D01*
X274499973Y-80372719D01*
X274488347Y-80381342D01*
X274475931Y-80388783D01*
X274462846Y-80394972D01*
X274449217Y-80399849D01*
X274435176Y-80403366D01*
X274420858Y-80405490D01*
X274406400Y-80406200D01*
X274111400Y-80406200D01*
X274096942Y-80405490D01*
X274082624Y-80403366D01*
X274068583Y-80399849D01*
X274054954Y-80394972D01*
X274041869Y-80388783D01*
X274029453Y-80381342D01*
X274017827Y-80372719D01*
X274007102Y-80362998D01*
X273997381Y-80352273D01*
X273988758Y-80340647D01*
X273981317Y-80328231D01*
X273975128Y-80315146D01*
X273970251Y-80301517D01*
X273966734Y-80287476D01*
X273964610Y-80273158D01*
X273963900Y-80258700D01*
X273963900Y-79913700D01*
X273964610Y-79899242D01*
X273966734Y-79884924D01*
X273970251Y-79870883D01*
X273975128Y-79857254D01*
X273981317Y-79844169D01*
X273988758Y-79831753D01*
X273997381Y-79820127D01*
X274007102Y-79809402D01*
X274017827Y-79799681D01*
X274029453Y-79791058D01*
X274041869Y-79783617D01*
X274054954Y-79777428D01*
X274068583Y-79772551D01*
X274082624Y-79769034D01*
X274096942Y-79766910D01*
X274111400Y-79766200D01*
X274406400Y-79766200D01*
X274420858Y-79766910D01*
X274420858Y-79766910D01*
G37*
D11*
X274258900Y-80086200D03*
D10*
G36*
X269378958Y-145984710D02*
G01*
X269393276Y-145986834D01*
X269407317Y-145990351D01*
X269420946Y-145995228D01*
X269434031Y-146001417D01*
X269446447Y-146008858D01*
X269458073Y-146017481D01*
X269468798Y-146027202D01*
X269478519Y-146037927D01*
X269487142Y-146049553D01*
X269494583Y-146061969D01*
X269500772Y-146075054D01*
X269505649Y-146088683D01*
X269509166Y-146102724D01*
X269511290Y-146117042D01*
X269512000Y-146131500D01*
X269512000Y-146476500D01*
X269511290Y-146490958D01*
X269509166Y-146505276D01*
X269505649Y-146519317D01*
X269500772Y-146532946D01*
X269494583Y-146546031D01*
X269487142Y-146558447D01*
X269478519Y-146570073D01*
X269468798Y-146580798D01*
X269458073Y-146590519D01*
X269446447Y-146599142D01*
X269434031Y-146606583D01*
X269420946Y-146612772D01*
X269407317Y-146617649D01*
X269393276Y-146621166D01*
X269378958Y-146623290D01*
X269364500Y-146624000D01*
X269069500Y-146624000D01*
X269055042Y-146623290D01*
X269040724Y-146621166D01*
X269026683Y-146617649D01*
X269013054Y-146612772D01*
X268999969Y-146606583D01*
X268987553Y-146599142D01*
X268975927Y-146590519D01*
X268965202Y-146580798D01*
X268955481Y-146570073D01*
X268946858Y-146558447D01*
X268939417Y-146546031D01*
X268933228Y-146532946D01*
X268928351Y-146519317D01*
X268924834Y-146505276D01*
X268922710Y-146490958D01*
X268922000Y-146476500D01*
X268922000Y-146131500D01*
X268922710Y-146117042D01*
X268924834Y-146102724D01*
X268928351Y-146088683D01*
X268933228Y-146075054D01*
X268939417Y-146061969D01*
X268946858Y-146049553D01*
X268955481Y-146037927D01*
X268965202Y-146027202D01*
X268975927Y-146017481D01*
X268987553Y-146008858D01*
X268999969Y-146001417D01*
X269013054Y-145995228D01*
X269026683Y-145990351D01*
X269040724Y-145986834D01*
X269055042Y-145984710D01*
X269069500Y-145984000D01*
X269364500Y-145984000D01*
X269378958Y-145984710D01*
X269378958Y-145984710D01*
G37*
D11*
X269217000Y-146304000D03*
D10*
G36*
X268408958Y-145984710D02*
G01*
X268423276Y-145986834D01*
X268437317Y-145990351D01*
X268450946Y-145995228D01*
X268464031Y-146001417D01*
X268476447Y-146008858D01*
X268488073Y-146017481D01*
X268498798Y-146027202D01*
X268508519Y-146037927D01*
X268517142Y-146049553D01*
X268524583Y-146061969D01*
X268530772Y-146075054D01*
X268535649Y-146088683D01*
X268539166Y-146102724D01*
X268541290Y-146117042D01*
X268542000Y-146131500D01*
X268542000Y-146476500D01*
X268541290Y-146490958D01*
X268539166Y-146505276D01*
X268535649Y-146519317D01*
X268530772Y-146532946D01*
X268524583Y-146546031D01*
X268517142Y-146558447D01*
X268508519Y-146570073D01*
X268498798Y-146580798D01*
X268488073Y-146590519D01*
X268476447Y-146599142D01*
X268464031Y-146606583D01*
X268450946Y-146612772D01*
X268437317Y-146617649D01*
X268423276Y-146621166D01*
X268408958Y-146623290D01*
X268394500Y-146624000D01*
X268099500Y-146624000D01*
X268085042Y-146623290D01*
X268070724Y-146621166D01*
X268056683Y-146617649D01*
X268043054Y-146612772D01*
X268029969Y-146606583D01*
X268017553Y-146599142D01*
X268005927Y-146590519D01*
X267995202Y-146580798D01*
X267985481Y-146570073D01*
X267976858Y-146558447D01*
X267969417Y-146546031D01*
X267963228Y-146532946D01*
X267958351Y-146519317D01*
X267954834Y-146505276D01*
X267952710Y-146490958D01*
X267952000Y-146476500D01*
X267952000Y-146131500D01*
X267952710Y-146117042D01*
X267954834Y-146102724D01*
X267958351Y-146088683D01*
X267963228Y-146075054D01*
X267969417Y-146061969D01*
X267976858Y-146049553D01*
X267985481Y-146037927D01*
X267995202Y-146027202D01*
X268005927Y-146017481D01*
X268017553Y-146008858D01*
X268029969Y-146001417D01*
X268043054Y-145995228D01*
X268056683Y-145990351D01*
X268070724Y-145986834D01*
X268085042Y-145984710D01*
X268099500Y-145984000D01*
X268394500Y-145984000D01*
X268408958Y-145984710D01*
X268408958Y-145984710D01*
G37*
D11*
X268247000Y-146304000D03*
D10*
G36*
X273361958Y-141666710D02*
G01*
X273376276Y-141668834D01*
X273390317Y-141672351D01*
X273403946Y-141677228D01*
X273417031Y-141683417D01*
X273429447Y-141690858D01*
X273441073Y-141699481D01*
X273451798Y-141709202D01*
X273461519Y-141719927D01*
X273470142Y-141731553D01*
X273477583Y-141743969D01*
X273483772Y-141757054D01*
X273488649Y-141770683D01*
X273492166Y-141784724D01*
X273494290Y-141799042D01*
X273495000Y-141813500D01*
X273495000Y-142158500D01*
X273494290Y-142172958D01*
X273492166Y-142187276D01*
X273488649Y-142201317D01*
X273483772Y-142214946D01*
X273477583Y-142228031D01*
X273470142Y-142240447D01*
X273461519Y-142252073D01*
X273451798Y-142262798D01*
X273441073Y-142272519D01*
X273429447Y-142281142D01*
X273417031Y-142288583D01*
X273403946Y-142294772D01*
X273390317Y-142299649D01*
X273376276Y-142303166D01*
X273361958Y-142305290D01*
X273347500Y-142306000D01*
X273052500Y-142306000D01*
X273038042Y-142305290D01*
X273023724Y-142303166D01*
X273009683Y-142299649D01*
X272996054Y-142294772D01*
X272982969Y-142288583D01*
X272970553Y-142281142D01*
X272958927Y-142272519D01*
X272948202Y-142262798D01*
X272938481Y-142252073D01*
X272929858Y-142240447D01*
X272922417Y-142228031D01*
X272916228Y-142214946D01*
X272911351Y-142201317D01*
X272907834Y-142187276D01*
X272905710Y-142172958D01*
X272905000Y-142158500D01*
X272905000Y-141813500D01*
X272905710Y-141799042D01*
X272907834Y-141784724D01*
X272911351Y-141770683D01*
X272916228Y-141757054D01*
X272922417Y-141743969D01*
X272929858Y-141731553D01*
X272938481Y-141719927D01*
X272948202Y-141709202D01*
X272958927Y-141699481D01*
X272970553Y-141690858D01*
X272982969Y-141683417D01*
X272996054Y-141677228D01*
X273009683Y-141672351D01*
X273023724Y-141668834D01*
X273038042Y-141666710D01*
X273052500Y-141666000D01*
X273347500Y-141666000D01*
X273361958Y-141666710D01*
X273361958Y-141666710D01*
G37*
D11*
X273200000Y-141986000D03*
D10*
G36*
X274331958Y-141666710D02*
G01*
X274346276Y-141668834D01*
X274360317Y-141672351D01*
X274373946Y-141677228D01*
X274387031Y-141683417D01*
X274399447Y-141690858D01*
X274411073Y-141699481D01*
X274421798Y-141709202D01*
X274431519Y-141719927D01*
X274440142Y-141731553D01*
X274447583Y-141743969D01*
X274453772Y-141757054D01*
X274458649Y-141770683D01*
X274462166Y-141784724D01*
X274464290Y-141799042D01*
X274465000Y-141813500D01*
X274465000Y-142158500D01*
X274464290Y-142172958D01*
X274462166Y-142187276D01*
X274458649Y-142201317D01*
X274453772Y-142214946D01*
X274447583Y-142228031D01*
X274440142Y-142240447D01*
X274431519Y-142252073D01*
X274421798Y-142262798D01*
X274411073Y-142272519D01*
X274399447Y-142281142D01*
X274387031Y-142288583D01*
X274373946Y-142294772D01*
X274360317Y-142299649D01*
X274346276Y-142303166D01*
X274331958Y-142305290D01*
X274317500Y-142306000D01*
X274022500Y-142306000D01*
X274008042Y-142305290D01*
X273993724Y-142303166D01*
X273979683Y-142299649D01*
X273966054Y-142294772D01*
X273952969Y-142288583D01*
X273940553Y-142281142D01*
X273928927Y-142272519D01*
X273918202Y-142262798D01*
X273908481Y-142252073D01*
X273899858Y-142240447D01*
X273892417Y-142228031D01*
X273886228Y-142214946D01*
X273881351Y-142201317D01*
X273877834Y-142187276D01*
X273875710Y-142172958D01*
X273875000Y-142158500D01*
X273875000Y-141813500D01*
X273875710Y-141799042D01*
X273877834Y-141784724D01*
X273881351Y-141770683D01*
X273886228Y-141757054D01*
X273892417Y-141743969D01*
X273899858Y-141731553D01*
X273908481Y-141719927D01*
X273918202Y-141709202D01*
X273928927Y-141699481D01*
X273940553Y-141690858D01*
X273952969Y-141683417D01*
X273966054Y-141677228D01*
X273979683Y-141672351D01*
X273993724Y-141668834D01*
X274008042Y-141666710D01*
X274022500Y-141666000D01*
X274317500Y-141666000D01*
X274331958Y-141666710D01*
X274331958Y-141666710D01*
G37*
D11*
X274170000Y-141986000D03*
D10*
G36*
X237882958Y-80389210D02*
G01*
X237897276Y-80391334D01*
X237911317Y-80394851D01*
X237924946Y-80399728D01*
X237938031Y-80405917D01*
X237950447Y-80413358D01*
X237962073Y-80421981D01*
X237972798Y-80431702D01*
X237982519Y-80442427D01*
X237991142Y-80454053D01*
X237998583Y-80466469D01*
X238004772Y-80479554D01*
X238009649Y-80493183D01*
X238013166Y-80507224D01*
X238015290Y-80521542D01*
X238016000Y-80536000D01*
X238016000Y-80881000D01*
X238015290Y-80895458D01*
X238013166Y-80909776D01*
X238009649Y-80923817D01*
X238004772Y-80937446D01*
X237998583Y-80950531D01*
X237991142Y-80962947D01*
X237982519Y-80974573D01*
X237972798Y-80985298D01*
X237962073Y-80995019D01*
X237950447Y-81003642D01*
X237938031Y-81011083D01*
X237924946Y-81017272D01*
X237911317Y-81022149D01*
X237897276Y-81025666D01*
X237882958Y-81027790D01*
X237868500Y-81028500D01*
X237573500Y-81028500D01*
X237559042Y-81027790D01*
X237544724Y-81025666D01*
X237530683Y-81022149D01*
X237517054Y-81017272D01*
X237503969Y-81011083D01*
X237491553Y-81003642D01*
X237479927Y-80995019D01*
X237469202Y-80985298D01*
X237459481Y-80974573D01*
X237450858Y-80962947D01*
X237443417Y-80950531D01*
X237437228Y-80937446D01*
X237432351Y-80923817D01*
X237428834Y-80909776D01*
X237426710Y-80895458D01*
X237426000Y-80881000D01*
X237426000Y-80536000D01*
X237426710Y-80521542D01*
X237428834Y-80507224D01*
X237432351Y-80493183D01*
X237437228Y-80479554D01*
X237443417Y-80466469D01*
X237450858Y-80454053D01*
X237459481Y-80442427D01*
X237469202Y-80431702D01*
X237479927Y-80421981D01*
X237491553Y-80413358D01*
X237503969Y-80405917D01*
X237517054Y-80399728D01*
X237530683Y-80394851D01*
X237544724Y-80391334D01*
X237559042Y-80389210D01*
X237573500Y-80388500D01*
X237868500Y-80388500D01*
X237882958Y-80389210D01*
X237882958Y-80389210D01*
G37*
D11*
X237721000Y-80708500D03*
D10*
G36*
X236912958Y-80389210D02*
G01*
X236927276Y-80391334D01*
X236941317Y-80394851D01*
X236954946Y-80399728D01*
X236968031Y-80405917D01*
X236980447Y-80413358D01*
X236992073Y-80421981D01*
X237002798Y-80431702D01*
X237012519Y-80442427D01*
X237021142Y-80454053D01*
X237028583Y-80466469D01*
X237034772Y-80479554D01*
X237039649Y-80493183D01*
X237043166Y-80507224D01*
X237045290Y-80521542D01*
X237046000Y-80536000D01*
X237046000Y-80881000D01*
X237045290Y-80895458D01*
X237043166Y-80909776D01*
X237039649Y-80923817D01*
X237034772Y-80937446D01*
X237028583Y-80950531D01*
X237021142Y-80962947D01*
X237012519Y-80974573D01*
X237002798Y-80985298D01*
X236992073Y-80995019D01*
X236980447Y-81003642D01*
X236968031Y-81011083D01*
X236954946Y-81017272D01*
X236941317Y-81022149D01*
X236927276Y-81025666D01*
X236912958Y-81027790D01*
X236898500Y-81028500D01*
X236603500Y-81028500D01*
X236589042Y-81027790D01*
X236574724Y-81025666D01*
X236560683Y-81022149D01*
X236547054Y-81017272D01*
X236533969Y-81011083D01*
X236521553Y-81003642D01*
X236509927Y-80995019D01*
X236499202Y-80985298D01*
X236489481Y-80974573D01*
X236480858Y-80962947D01*
X236473417Y-80950531D01*
X236467228Y-80937446D01*
X236462351Y-80923817D01*
X236458834Y-80909776D01*
X236456710Y-80895458D01*
X236456000Y-80881000D01*
X236456000Y-80536000D01*
X236456710Y-80521542D01*
X236458834Y-80507224D01*
X236462351Y-80493183D01*
X236467228Y-80479554D01*
X236473417Y-80466469D01*
X236480858Y-80454053D01*
X236489481Y-80442427D01*
X236499202Y-80431702D01*
X236509927Y-80421981D01*
X236521553Y-80413358D01*
X236533969Y-80405917D01*
X236547054Y-80399728D01*
X236560683Y-80394851D01*
X236574724Y-80391334D01*
X236589042Y-80389210D01*
X236603500Y-80388500D01*
X236898500Y-80388500D01*
X236912958Y-80389210D01*
X236912958Y-80389210D01*
G37*
D11*
X236751000Y-80708500D03*
D10*
G36*
X241865958Y-74674210D02*
G01*
X241880276Y-74676334D01*
X241894317Y-74679851D01*
X241907946Y-74684728D01*
X241921031Y-74690917D01*
X241933447Y-74698358D01*
X241945073Y-74706981D01*
X241955798Y-74716702D01*
X241965519Y-74727427D01*
X241974142Y-74739053D01*
X241981583Y-74751469D01*
X241987772Y-74764554D01*
X241992649Y-74778183D01*
X241996166Y-74792224D01*
X241998290Y-74806542D01*
X241999000Y-74821000D01*
X241999000Y-75166000D01*
X241998290Y-75180458D01*
X241996166Y-75194776D01*
X241992649Y-75208817D01*
X241987772Y-75222446D01*
X241981583Y-75235531D01*
X241974142Y-75247947D01*
X241965519Y-75259573D01*
X241955798Y-75270298D01*
X241945073Y-75280019D01*
X241933447Y-75288642D01*
X241921031Y-75296083D01*
X241907946Y-75302272D01*
X241894317Y-75307149D01*
X241880276Y-75310666D01*
X241865958Y-75312790D01*
X241851500Y-75313500D01*
X241556500Y-75313500D01*
X241542042Y-75312790D01*
X241527724Y-75310666D01*
X241513683Y-75307149D01*
X241500054Y-75302272D01*
X241486969Y-75296083D01*
X241474553Y-75288642D01*
X241462927Y-75280019D01*
X241452202Y-75270298D01*
X241442481Y-75259573D01*
X241433858Y-75247947D01*
X241426417Y-75235531D01*
X241420228Y-75222446D01*
X241415351Y-75208817D01*
X241411834Y-75194776D01*
X241409710Y-75180458D01*
X241409000Y-75166000D01*
X241409000Y-74821000D01*
X241409710Y-74806542D01*
X241411834Y-74792224D01*
X241415351Y-74778183D01*
X241420228Y-74764554D01*
X241426417Y-74751469D01*
X241433858Y-74739053D01*
X241442481Y-74727427D01*
X241452202Y-74716702D01*
X241462927Y-74706981D01*
X241474553Y-74698358D01*
X241486969Y-74690917D01*
X241500054Y-74684728D01*
X241513683Y-74679851D01*
X241527724Y-74676334D01*
X241542042Y-74674210D01*
X241556500Y-74673500D01*
X241851500Y-74673500D01*
X241865958Y-74674210D01*
X241865958Y-74674210D01*
G37*
D11*
X241704000Y-74993500D03*
D10*
G36*
X242835958Y-74674210D02*
G01*
X242850276Y-74676334D01*
X242864317Y-74679851D01*
X242877946Y-74684728D01*
X242891031Y-74690917D01*
X242903447Y-74698358D01*
X242915073Y-74706981D01*
X242925798Y-74716702D01*
X242935519Y-74727427D01*
X242944142Y-74739053D01*
X242951583Y-74751469D01*
X242957772Y-74764554D01*
X242962649Y-74778183D01*
X242966166Y-74792224D01*
X242968290Y-74806542D01*
X242969000Y-74821000D01*
X242969000Y-75166000D01*
X242968290Y-75180458D01*
X242966166Y-75194776D01*
X242962649Y-75208817D01*
X242957772Y-75222446D01*
X242951583Y-75235531D01*
X242944142Y-75247947D01*
X242935519Y-75259573D01*
X242925798Y-75270298D01*
X242915073Y-75280019D01*
X242903447Y-75288642D01*
X242891031Y-75296083D01*
X242877946Y-75302272D01*
X242864317Y-75307149D01*
X242850276Y-75310666D01*
X242835958Y-75312790D01*
X242821500Y-75313500D01*
X242526500Y-75313500D01*
X242512042Y-75312790D01*
X242497724Y-75310666D01*
X242483683Y-75307149D01*
X242470054Y-75302272D01*
X242456969Y-75296083D01*
X242444553Y-75288642D01*
X242432927Y-75280019D01*
X242422202Y-75270298D01*
X242412481Y-75259573D01*
X242403858Y-75247947D01*
X242396417Y-75235531D01*
X242390228Y-75222446D01*
X242385351Y-75208817D01*
X242381834Y-75194776D01*
X242379710Y-75180458D01*
X242379000Y-75166000D01*
X242379000Y-74821000D01*
X242379710Y-74806542D01*
X242381834Y-74792224D01*
X242385351Y-74778183D01*
X242390228Y-74764554D01*
X242396417Y-74751469D01*
X242403858Y-74739053D01*
X242412481Y-74727427D01*
X242422202Y-74716702D01*
X242432927Y-74706981D01*
X242444553Y-74698358D01*
X242456969Y-74690917D01*
X242470054Y-74684728D01*
X242483683Y-74679851D01*
X242497724Y-74676334D01*
X242512042Y-74674210D01*
X242526500Y-74673500D01*
X242821500Y-74673500D01*
X242835958Y-74674210D01*
X242835958Y-74674210D01*
G37*
D11*
X242674000Y-74993500D03*
D10*
G36*
X268408958Y-144206710D02*
G01*
X268423276Y-144208834D01*
X268437317Y-144212351D01*
X268450946Y-144217228D01*
X268464031Y-144223417D01*
X268476447Y-144230858D01*
X268488073Y-144239481D01*
X268498798Y-144249202D01*
X268508519Y-144259927D01*
X268517142Y-144271553D01*
X268524583Y-144283969D01*
X268530772Y-144297054D01*
X268535649Y-144310683D01*
X268539166Y-144324724D01*
X268541290Y-144339042D01*
X268542000Y-144353500D01*
X268542000Y-144698500D01*
X268541290Y-144712958D01*
X268539166Y-144727276D01*
X268535649Y-144741317D01*
X268530772Y-144754946D01*
X268524583Y-144768031D01*
X268517142Y-144780447D01*
X268508519Y-144792073D01*
X268498798Y-144802798D01*
X268488073Y-144812519D01*
X268476447Y-144821142D01*
X268464031Y-144828583D01*
X268450946Y-144834772D01*
X268437317Y-144839649D01*
X268423276Y-144843166D01*
X268408958Y-144845290D01*
X268394500Y-144846000D01*
X268099500Y-144846000D01*
X268085042Y-144845290D01*
X268070724Y-144843166D01*
X268056683Y-144839649D01*
X268043054Y-144834772D01*
X268029969Y-144828583D01*
X268017553Y-144821142D01*
X268005927Y-144812519D01*
X267995202Y-144802798D01*
X267985481Y-144792073D01*
X267976858Y-144780447D01*
X267969417Y-144768031D01*
X267963228Y-144754946D01*
X267958351Y-144741317D01*
X267954834Y-144727276D01*
X267952710Y-144712958D01*
X267952000Y-144698500D01*
X267952000Y-144353500D01*
X267952710Y-144339042D01*
X267954834Y-144324724D01*
X267958351Y-144310683D01*
X267963228Y-144297054D01*
X267969417Y-144283969D01*
X267976858Y-144271553D01*
X267985481Y-144259927D01*
X267995202Y-144249202D01*
X268005927Y-144239481D01*
X268017553Y-144230858D01*
X268029969Y-144223417D01*
X268043054Y-144217228D01*
X268056683Y-144212351D01*
X268070724Y-144208834D01*
X268085042Y-144206710D01*
X268099500Y-144206000D01*
X268394500Y-144206000D01*
X268408958Y-144206710D01*
X268408958Y-144206710D01*
G37*
D11*
X268247000Y-144526000D03*
D10*
G36*
X269378958Y-144206710D02*
G01*
X269393276Y-144208834D01*
X269407317Y-144212351D01*
X269420946Y-144217228D01*
X269434031Y-144223417D01*
X269446447Y-144230858D01*
X269458073Y-144239481D01*
X269468798Y-144249202D01*
X269478519Y-144259927D01*
X269487142Y-144271553D01*
X269494583Y-144283969D01*
X269500772Y-144297054D01*
X269505649Y-144310683D01*
X269509166Y-144324724D01*
X269511290Y-144339042D01*
X269512000Y-144353500D01*
X269512000Y-144698500D01*
X269511290Y-144712958D01*
X269509166Y-144727276D01*
X269505649Y-144741317D01*
X269500772Y-144754946D01*
X269494583Y-144768031D01*
X269487142Y-144780447D01*
X269478519Y-144792073D01*
X269468798Y-144802798D01*
X269458073Y-144812519D01*
X269446447Y-144821142D01*
X269434031Y-144828583D01*
X269420946Y-144834772D01*
X269407317Y-144839649D01*
X269393276Y-144843166D01*
X269378958Y-144845290D01*
X269364500Y-144846000D01*
X269069500Y-144846000D01*
X269055042Y-144845290D01*
X269040724Y-144843166D01*
X269026683Y-144839649D01*
X269013054Y-144834772D01*
X268999969Y-144828583D01*
X268987553Y-144821142D01*
X268975927Y-144812519D01*
X268965202Y-144802798D01*
X268955481Y-144792073D01*
X268946858Y-144780447D01*
X268939417Y-144768031D01*
X268933228Y-144754946D01*
X268928351Y-144741317D01*
X268924834Y-144727276D01*
X268922710Y-144712958D01*
X268922000Y-144698500D01*
X268922000Y-144353500D01*
X268922710Y-144339042D01*
X268924834Y-144324724D01*
X268928351Y-144310683D01*
X268933228Y-144297054D01*
X268939417Y-144283969D01*
X268946858Y-144271553D01*
X268955481Y-144259927D01*
X268965202Y-144249202D01*
X268975927Y-144239481D01*
X268987553Y-144230858D01*
X268999969Y-144223417D01*
X269013054Y-144217228D01*
X269026683Y-144212351D01*
X269040724Y-144208834D01*
X269055042Y-144206710D01*
X269069500Y-144206000D01*
X269364500Y-144206000D01*
X269378958Y-144206710D01*
X269378958Y-144206710D01*
G37*
D11*
X269217000Y-144526000D03*
D10*
G36*
X274331958Y-143063710D02*
G01*
X274346276Y-143065834D01*
X274360317Y-143069351D01*
X274373946Y-143074228D01*
X274387031Y-143080417D01*
X274399447Y-143087858D01*
X274411073Y-143096481D01*
X274421798Y-143106202D01*
X274431519Y-143116927D01*
X274440142Y-143128553D01*
X274447583Y-143140969D01*
X274453772Y-143154054D01*
X274458649Y-143167683D01*
X274462166Y-143181724D01*
X274464290Y-143196042D01*
X274465000Y-143210500D01*
X274465000Y-143555500D01*
X274464290Y-143569958D01*
X274462166Y-143584276D01*
X274458649Y-143598317D01*
X274453772Y-143611946D01*
X274447583Y-143625031D01*
X274440142Y-143637447D01*
X274431519Y-143649073D01*
X274421798Y-143659798D01*
X274411073Y-143669519D01*
X274399447Y-143678142D01*
X274387031Y-143685583D01*
X274373946Y-143691772D01*
X274360317Y-143696649D01*
X274346276Y-143700166D01*
X274331958Y-143702290D01*
X274317500Y-143703000D01*
X274022500Y-143703000D01*
X274008042Y-143702290D01*
X273993724Y-143700166D01*
X273979683Y-143696649D01*
X273966054Y-143691772D01*
X273952969Y-143685583D01*
X273940553Y-143678142D01*
X273928927Y-143669519D01*
X273918202Y-143659798D01*
X273908481Y-143649073D01*
X273899858Y-143637447D01*
X273892417Y-143625031D01*
X273886228Y-143611946D01*
X273881351Y-143598317D01*
X273877834Y-143584276D01*
X273875710Y-143569958D01*
X273875000Y-143555500D01*
X273875000Y-143210500D01*
X273875710Y-143196042D01*
X273877834Y-143181724D01*
X273881351Y-143167683D01*
X273886228Y-143154054D01*
X273892417Y-143140969D01*
X273899858Y-143128553D01*
X273908481Y-143116927D01*
X273918202Y-143106202D01*
X273928927Y-143096481D01*
X273940553Y-143087858D01*
X273952969Y-143080417D01*
X273966054Y-143074228D01*
X273979683Y-143069351D01*
X273993724Y-143065834D01*
X274008042Y-143063710D01*
X274022500Y-143063000D01*
X274317500Y-143063000D01*
X274331958Y-143063710D01*
X274331958Y-143063710D01*
G37*
D11*
X274170000Y-143383000D03*
D10*
G36*
X273361958Y-143063710D02*
G01*
X273376276Y-143065834D01*
X273390317Y-143069351D01*
X273403946Y-143074228D01*
X273417031Y-143080417D01*
X273429447Y-143087858D01*
X273441073Y-143096481D01*
X273451798Y-143106202D01*
X273461519Y-143116927D01*
X273470142Y-143128553D01*
X273477583Y-143140969D01*
X273483772Y-143154054D01*
X273488649Y-143167683D01*
X273492166Y-143181724D01*
X273494290Y-143196042D01*
X273495000Y-143210500D01*
X273495000Y-143555500D01*
X273494290Y-143569958D01*
X273492166Y-143584276D01*
X273488649Y-143598317D01*
X273483772Y-143611946D01*
X273477583Y-143625031D01*
X273470142Y-143637447D01*
X273461519Y-143649073D01*
X273451798Y-143659798D01*
X273441073Y-143669519D01*
X273429447Y-143678142D01*
X273417031Y-143685583D01*
X273403946Y-143691772D01*
X273390317Y-143696649D01*
X273376276Y-143700166D01*
X273361958Y-143702290D01*
X273347500Y-143703000D01*
X273052500Y-143703000D01*
X273038042Y-143702290D01*
X273023724Y-143700166D01*
X273009683Y-143696649D01*
X272996054Y-143691772D01*
X272982969Y-143685583D01*
X272970553Y-143678142D01*
X272958927Y-143669519D01*
X272948202Y-143659798D01*
X272938481Y-143649073D01*
X272929858Y-143637447D01*
X272922417Y-143625031D01*
X272916228Y-143611946D01*
X272911351Y-143598317D01*
X272907834Y-143584276D01*
X272905710Y-143569958D01*
X272905000Y-143555500D01*
X272905000Y-143210500D01*
X272905710Y-143196042D01*
X272907834Y-143181724D01*
X272911351Y-143167683D01*
X272916228Y-143154054D01*
X272922417Y-143140969D01*
X272929858Y-143128553D01*
X272938481Y-143116927D01*
X272948202Y-143106202D01*
X272958927Y-143096481D01*
X272970553Y-143087858D01*
X272982969Y-143080417D01*
X272996054Y-143074228D01*
X273009683Y-143069351D01*
X273023724Y-143065834D01*
X273038042Y-143063710D01*
X273052500Y-143063000D01*
X273347500Y-143063000D01*
X273361958Y-143063710D01*
X273361958Y-143063710D01*
G37*
D11*
X273200000Y-143383000D03*
D10*
G36*
X236912958Y-78611210D02*
G01*
X236927276Y-78613334D01*
X236941317Y-78616851D01*
X236954946Y-78621728D01*
X236968031Y-78627917D01*
X236980447Y-78635358D01*
X236992073Y-78643981D01*
X237002798Y-78653702D01*
X237012519Y-78664427D01*
X237021142Y-78676053D01*
X237028583Y-78688469D01*
X237034772Y-78701554D01*
X237039649Y-78715183D01*
X237043166Y-78729224D01*
X237045290Y-78743542D01*
X237046000Y-78758000D01*
X237046000Y-79103000D01*
X237045290Y-79117458D01*
X237043166Y-79131776D01*
X237039649Y-79145817D01*
X237034772Y-79159446D01*
X237028583Y-79172531D01*
X237021142Y-79184947D01*
X237012519Y-79196573D01*
X237002798Y-79207298D01*
X236992073Y-79217019D01*
X236980447Y-79225642D01*
X236968031Y-79233083D01*
X236954946Y-79239272D01*
X236941317Y-79244149D01*
X236927276Y-79247666D01*
X236912958Y-79249790D01*
X236898500Y-79250500D01*
X236603500Y-79250500D01*
X236589042Y-79249790D01*
X236574724Y-79247666D01*
X236560683Y-79244149D01*
X236547054Y-79239272D01*
X236533969Y-79233083D01*
X236521553Y-79225642D01*
X236509927Y-79217019D01*
X236499202Y-79207298D01*
X236489481Y-79196573D01*
X236480858Y-79184947D01*
X236473417Y-79172531D01*
X236467228Y-79159446D01*
X236462351Y-79145817D01*
X236458834Y-79131776D01*
X236456710Y-79117458D01*
X236456000Y-79103000D01*
X236456000Y-78758000D01*
X236456710Y-78743542D01*
X236458834Y-78729224D01*
X236462351Y-78715183D01*
X236467228Y-78701554D01*
X236473417Y-78688469D01*
X236480858Y-78676053D01*
X236489481Y-78664427D01*
X236499202Y-78653702D01*
X236509927Y-78643981D01*
X236521553Y-78635358D01*
X236533969Y-78627917D01*
X236547054Y-78621728D01*
X236560683Y-78616851D01*
X236574724Y-78613334D01*
X236589042Y-78611210D01*
X236603500Y-78610500D01*
X236898500Y-78610500D01*
X236912958Y-78611210D01*
X236912958Y-78611210D01*
G37*
D11*
X236751000Y-78930500D03*
D10*
G36*
X237882958Y-78611210D02*
G01*
X237897276Y-78613334D01*
X237911317Y-78616851D01*
X237924946Y-78621728D01*
X237938031Y-78627917D01*
X237950447Y-78635358D01*
X237962073Y-78643981D01*
X237972798Y-78653702D01*
X237982519Y-78664427D01*
X237991142Y-78676053D01*
X237998583Y-78688469D01*
X238004772Y-78701554D01*
X238009649Y-78715183D01*
X238013166Y-78729224D01*
X238015290Y-78743542D01*
X238016000Y-78758000D01*
X238016000Y-79103000D01*
X238015290Y-79117458D01*
X238013166Y-79131776D01*
X238009649Y-79145817D01*
X238004772Y-79159446D01*
X237998583Y-79172531D01*
X237991142Y-79184947D01*
X237982519Y-79196573D01*
X237972798Y-79207298D01*
X237962073Y-79217019D01*
X237950447Y-79225642D01*
X237938031Y-79233083D01*
X237924946Y-79239272D01*
X237911317Y-79244149D01*
X237897276Y-79247666D01*
X237882958Y-79249790D01*
X237868500Y-79250500D01*
X237573500Y-79250500D01*
X237559042Y-79249790D01*
X237544724Y-79247666D01*
X237530683Y-79244149D01*
X237517054Y-79239272D01*
X237503969Y-79233083D01*
X237491553Y-79225642D01*
X237479927Y-79217019D01*
X237469202Y-79207298D01*
X237459481Y-79196573D01*
X237450858Y-79184947D01*
X237443417Y-79172531D01*
X237437228Y-79159446D01*
X237432351Y-79145817D01*
X237428834Y-79131776D01*
X237426710Y-79117458D01*
X237426000Y-79103000D01*
X237426000Y-78758000D01*
X237426710Y-78743542D01*
X237428834Y-78729224D01*
X237432351Y-78715183D01*
X237437228Y-78701554D01*
X237443417Y-78688469D01*
X237450858Y-78676053D01*
X237459481Y-78664427D01*
X237469202Y-78653702D01*
X237479927Y-78643981D01*
X237491553Y-78635358D01*
X237503969Y-78627917D01*
X237517054Y-78621728D01*
X237530683Y-78616851D01*
X237544724Y-78613334D01*
X237559042Y-78611210D01*
X237573500Y-78610500D01*
X237868500Y-78610500D01*
X237882958Y-78611210D01*
X237882958Y-78611210D01*
G37*
D11*
X237721000Y-78930500D03*
D10*
G36*
X242835958Y-76071210D02*
G01*
X242850276Y-76073334D01*
X242864317Y-76076851D01*
X242877946Y-76081728D01*
X242891031Y-76087917D01*
X242903447Y-76095358D01*
X242915073Y-76103981D01*
X242925798Y-76113702D01*
X242935519Y-76124427D01*
X242944142Y-76136053D01*
X242951583Y-76148469D01*
X242957772Y-76161554D01*
X242962649Y-76175183D01*
X242966166Y-76189224D01*
X242968290Y-76203542D01*
X242969000Y-76218000D01*
X242969000Y-76563000D01*
X242968290Y-76577458D01*
X242966166Y-76591776D01*
X242962649Y-76605817D01*
X242957772Y-76619446D01*
X242951583Y-76632531D01*
X242944142Y-76644947D01*
X242935519Y-76656573D01*
X242925798Y-76667298D01*
X242915073Y-76677019D01*
X242903447Y-76685642D01*
X242891031Y-76693083D01*
X242877946Y-76699272D01*
X242864317Y-76704149D01*
X242850276Y-76707666D01*
X242835958Y-76709790D01*
X242821500Y-76710500D01*
X242526500Y-76710500D01*
X242512042Y-76709790D01*
X242497724Y-76707666D01*
X242483683Y-76704149D01*
X242470054Y-76699272D01*
X242456969Y-76693083D01*
X242444553Y-76685642D01*
X242432927Y-76677019D01*
X242422202Y-76667298D01*
X242412481Y-76656573D01*
X242403858Y-76644947D01*
X242396417Y-76632531D01*
X242390228Y-76619446D01*
X242385351Y-76605817D01*
X242381834Y-76591776D01*
X242379710Y-76577458D01*
X242379000Y-76563000D01*
X242379000Y-76218000D01*
X242379710Y-76203542D01*
X242381834Y-76189224D01*
X242385351Y-76175183D01*
X242390228Y-76161554D01*
X242396417Y-76148469D01*
X242403858Y-76136053D01*
X242412481Y-76124427D01*
X242422202Y-76113702D01*
X242432927Y-76103981D01*
X242444553Y-76095358D01*
X242456969Y-76087917D01*
X242470054Y-76081728D01*
X242483683Y-76076851D01*
X242497724Y-76073334D01*
X242512042Y-76071210D01*
X242526500Y-76070500D01*
X242821500Y-76070500D01*
X242835958Y-76071210D01*
X242835958Y-76071210D01*
G37*
D11*
X242674000Y-76390500D03*
D10*
G36*
X241865958Y-76071210D02*
G01*
X241880276Y-76073334D01*
X241894317Y-76076851D01*
X241907946Y-76081728D01*
X241921031Y-76087917D01*
X241933447Y-76095358D01*
X241945073Y-76103981D01*
X241955798Y-76113702D01*
X241965519Y-76124427D01*
X241974142Y-76136053D01*
X241981583Y-76148469D01*
X241987772Y-76161554D01*
X241992649Y-76175183D01*
X241996166Y-76189224D01*
X241998290Y-76203542D01*
X241999000Y-76218000D01*
X241999000Y-76563000D01*
X241998290Y-76577458D01*
X241996166Y-76591776D01*
X241992649Y-76605817D01*
X241987772Y-76619446D01*
X241981583Y-76632531D01*
X241974142Y-76644947D01*
X241965519Y-76656573D01*
X241955798Y-76667298D01*
X241945073Y-76677019D01*
X241933447Y-76685642D01*
X241921031Y-76693083D01*
X241907946Y-76699272D01*
X241894317Y-76704149D01*
X241880276Y-76707666D01*
X241865958Y-76709790D01*
X241851500Y-76710500D01*
X241556500Y-76710500D01*
X241542042Y-76709790D01*
X241527724Y-76707666D01*
X241513683Y-76704149D01*
X241500054Y-76699272D01*
X241486969Y-76693083D01*
X241474553Y-76685642D01*
X241462927Y-76677019D01*
X241452202Y-76667298D01*
X241442481Y-76656573D01*
X241433858Y-76644947D01*
X241426417Y-76632531D01*
X241420228Y-76619446D01*
X241415351Y-76605817D01*
X241411834Y-76591776D01*
X241409710Y-76577458D01*
X241409000Y-76563000D01*
X241409000Y-76218000D01*
X241409710Y-76203542D01*
X241411834Y-76189224D01*
X241415351Y-76175183D01*
X241420228Y-76161554D01*
X241426417Y-76148469D01*
X241433858Y-76136053D01*
X241442481Y-76124427D01*
X241452202Y-76113702D01*
X241462927Y-76103981D01*
X241474553Y-76095358D01*
X241486969Y-76087917D01*
X241500054Y-76081728D01*
X241513683Y-76076851D01*
X241527724Y-76073334D01*
X241542042Y-76071210D01*
X241556500Y-76070500D01*
X241851500Y-76070500D01*
X241865958Y-76071210D01*
X241865958Y-76071210D01*
G37*
D11*
X241704000Y-76390500D03*
D10*
G36*
X251649758Y-68997310D02*
G01*
X251664076Y-68999434D01*
X251678117Y-69002951D01*
X251691746Y-69007828D01*
X251704831Y-69014017D01*
X251717247Y-69021458D01*
X251728873Y-69030081D01*
X251739598Y-69039802D01*
X251749319Y-69050527D01*
X251757942Y-69062153D01*
X251765383Y-69074569D01*
X251771572Y-69087654D01*
X251776449Y-69101283D01*
X251779966Y-69115324D01*
X251782090Y-69129642D01*
X251782800Y-69144100D01*
X251782800Y-69489100D01*
X251782090Y-69503558D01*
X251779966Y-69517876D01*
X251776449Y-69531917D01*
X251771572Y-69545546D01*
X251765383Y-69558631D01*
X251757942Y-69571047D01*
X251749319Y-69582673D01*
X251739598Y-69593398D01*
X251728873Y-69603119D01*
X251717247Y-69611742D01*
X251704831Y-69619183D01*
X251691746Y-69625372D01*
X251678117Y-69630249D01*
X251664076Y-69633766D01*
X251649758Y-69635890D01*
X251635300Y-69636600D01*
X251340300Y-69636600D01*
X251325842Y-69635890D01*
X251311524Y-69633766D01*
X251297483Y-69630249D01*
X251283854Y-69625372D01*
X251270769Y-69619183D01*
X251258353Y-69611742D01*
X251246727Y-69603119D01*
X251236002Y-69593398D01*
X251226281Y-69582673D01*
X251217658Y-69571047D01*
X251210217Y-69558631D01*
X251204028Y-69545546D01*
X251199151Y-69531917D01*
X251195634Y-69517876D01*
X251193510Y-69503558D01*
X251192800Y-69489100D01*
X251192800Y-69144100D01*
X251193510Y-69129642D01*
X251195634Y-69115324D01*
X251199151Y-69101283D01*
X251204028Y-69087654D01*
X251210217Y-69074569D01*
X251217658Y-69062153D01*
X251226281Y-69050527D01*
X251236002Y-69039802D01*
X251246727Y-69030081D01*
X251258353Y-69021458D01*
X251270769Y-69014017D01*
X251283854Y-69007828D01*
X251297483Y-69002951D01*
X251311524Y-68999434D01*
X251325842Y-68997310D01*
X251340300Y-68996600D01*
X251635300Y-68996600D01*
X251649758Y-68997310D01*
X251649758Y-68997310D01*
G37*
D11*
X251487800Y-69316600D03*
D10*
G36*
X250679758Y-68997310D02*
G01*
X250694076Y-68999434D01*
X250708117Y-69002951D01*
X250721746Y-69007828D01*
X250734831Y-69014017D01*
X250747247Y-69021458D01*
X250758873Y-69030081D01*
X250769598Y-69039802D01*
X250779319Y-69050527D01*
X250787942Y-69062153D01*
X250795383Y-69074569D01*
X250801572Y-69087654D01*
X250806449Y-69101283D01*
X250809966Y-69115324D01*
X250812090Y-69129642D01*
X250812800Y-69144100D01*
X250812800Y-69489100D01*
X250812090Y-69503558D01*
X250809966Y-69517876D01*
X250806449Y-69531917D01*
X250801572Y-69545546D01*
X250795383Y-69558631D01*
X250787942Y-69571047D01*
X250779319Y-69582673D01*
X250769598Y-69593398D01*
X250758873Y-69603119D01*
X250747247Y-69611742D01*
X250734831Y-69619183D01*
X250721746Y-69625372D01*
X250708117Y-69630249D01*
X250694076Y-69633766D01*
X250679758Y-69635890D01*
X250665300Y-69636600D01*
X250370300Y-69636600D01*
X250355842Y-69635890D01*
X250341524Y-69633766D01*
X250327483Y-69630249D01*
X250313854Y-69625372D01*
X250300769Y-69619183D01*
X250288353Y-69611742D01*
X250276727Y-69603119D01*
X250266002Y-69593398D01*
X250256281Y-69582673D01*
X250247658Y-69571047D01*
X250240217Y-69558631D01*
X250234028Y-69545546D01*
X250229151Y-69531917D01*
X250225634Y-69517876D01*
X250223510Y-69503558D01*
X250222800Y-69489100D01*
X250222800Y-69144100D01*
X250223510Y-69129642D01*
X250225634Y-69115324D01*
X250229151Y-69101283D01*
X250234028Y-69087654D01*
X250240217Y-69074569D01*
X250247658Y-69062153D01*
X250256281Y-69050527D01*
X250266002Y-69039802D01*
X250276727Y-69030081D01*
X250288353Y-69021458D01*
X250300769Y-69014017D01*
X250313854Y-69007828D01*
X250327483Y-69002951D01*
X250341524Y-68999434D01*
X250355842Y-68997310D01*
X250370300Y-68996600D01*
X250665300Y-68996600D01*
X250679758Y-68997310D01*
X250679758Y-68997310D01*
G37*
D11*
X250517800Y-69316600D03*
D10*
G36*
X255759758Y-65187310D02*
G01*
X255774076Y-65189434D01*
X255788117Y-65192951D01*
X255801746Y-65197828D01*
X255814831Y-65204017D01*
X255827247Y-65211458D01*
X255838873Y-65220081D01*
X255849598Y-65229802D01*
X255859319Y-65240527D01*
X255867942Y-65252153D01*
X255875383Y-65264569D01*
X255881572Y-65277654D01*
X255886449Y-65291283D01*
X255889966Y-65305324D01*
X255892090Y-65319642D01*
X255892800Y-65334100D01*
X255892800Y-65679100D01*
X255892090Y-65693558D01*
X255889966Y-65707876D01*
X255886449Y-65721917D01*
X255881572Y-65735546D01*
X255875383Y-65748631D01*
X255867942Y-65761047D01*
X255859319Y-65772673D01*
X255849598Y-65783398D01*
X255838873Y-65793119D01*
X255827247Y-65801742D01*
X255814831Y-65809183D01*
X255801746Y-65815372D01*
X255788117Y-65820249D01*
X255774076Y-65823766D01*
X255759758Y-65825890D01*
X255745300Y-65826600D01*
X255450300Y-65826600D01*
X255435842Y-65825890D01*
X255421524Y-65823766D01*
X255407483Y-65820249D01*
X255393854Y-65815372D01*
X255380769Y-65809183D01*
X255368353Y-65801742D01*
X255356727Y-65793119D01*
X255346002Y-65783398D01*
X255336281Y-65772673D01*
X255327658Y-65761047D01*
X255320217Y-65748631D01*
X255314028Y-65735546D01*
X255309151Y-65721917D01*
X255305634Y-65707876D01*
X255303510Y-65693558D01*
X255302800Y-65679100D01*
X255302800Y-65334100D01*
X255303510Y-65319642D01*
X255305634Y-65305324D01*
X255309151Y-65291283D01*
X255314028Y-65277654D01*
X255320217Y-65264569D01*
X255327658Y-65252153D01*
X255336281Y-65240527D01*
X255346002Y-65229802D01*
X255356727Y-65220081D01*
X255368353Y-65211458D01*
X255380769Y-65204017D01*
X255393854Y-65197828D01*
X255407483Y-65192951D01*
X255421524Y-65189434D01*
X255435842Y-65187310D01*
X255450300Y-65186600D01*
X255745300Y-65186600D01*
X255759758Y-65187310D01*
X255759758Y-65187310D01*
G37*
D11*
X255597800Y-65506600D03*
D10*
G36*
X256729758Y-65187310D02*
G01*
X256744076Y-65189434D01*
X256758117Y-65192951D01*
X256771746Y-65197828D01*
X256784831Y-65204017D01*
X256797247Y-65211458D01*
X256808873Y-65220081D01*
X256819598Y-65229802D01*
X256829319Y-65240527D01*
X256837942Y-65252153D01*
X256845383Y-65264569D01*
X256851572Y-65277654D01*
X256856449Y-65291283D01*
X256859966Y-65305324D01*
X256862090Y-65319642D01*
X256862800Y-65334100D01*
X256862800Y-65679100D01*
X256862090Y-65693558D01*
X256859966Y-65707876D01*
X256856449Y-65721917D01*
X256851572Y-65735546D01*
X256845383Y-65748631D01*
X256837942Y-65761047D01*
X256829319Y-65772673D01*
X256819598Y-65783398D01*
X256808873Y-65793119D01*
X256797247Y-65801742D01*
X256784831Y-65809183D01*
X256771746Y-65815372D01*
X256758117Y-65820249D01*
X256744076Y-65823766D01*
X256729758Y-65825890D01*
X256715300Y-65826600D01*
X256420300Y-65826600D01*
X256405842Y-65825890D01*
X256391524Y-65823766D01*
X256377483Y-65820249D01*
X256363854Y-65815372D01*
X256350769Y-65809183D01*
X256338353Y-65801742D01*
X256326727Y-65793119D01*
X256316002Y-65783398D01*
X256306281Y-65772673D01*
X256297658Y-65761047D01*
X256290217Y-65748631D01*
X256284028Y-65735546D01*
X256279151Y-65721917D01*
X256275634Y-65707876D01*
X256273510Y-65693558D01*
X256272800Y-65679100D01*
X256272800Y-65334100D01*
X256273510Y-65319642D01*
X256275634Y-65305324D01*
X256279151Y-65291283D01*
X256284028Y-65277654D01*
X256290217Y-65264569D01*
X256297658Y-65252153D01*
X256306281Y-65240527D01*
X256316002Y-65229802D01*
X256326727Y-65220081D01*
X256338353Y-65211458D01*
X256350769Y-65204017D01*
X256363854Y-65197828D01*
X256377483Y-65192951D01*
X256391524Y-65189434D01*
X256405842Y-65187310D01*
X256420300Y-65186600D01*
X256715300Y-65186600D01*
X256729758Y-65187310D01*
X256729758Y-65187310D01*
G37*
D11*
X256567800Y-65506600D03*
D10*
G36*
X251649758Y-70394310D02*
G01*
X251664076Y-70396434D01*
X251678117Y-70399951D01*
X251691746Y-70404828D01*
X251704831Y-70411017D01*
X251717247Y-70418458D01*
X251728873Y-70427081D01*
X251739598Y-70436802D01*
X251749319Y-70447527D01*
X251757942Y-70459153D01*
X251765383Y-70471569D01*
X251771572Y-70484654D01*
X251776449Y-70498283D01*
X251779966Y-70512324D01*
X251782090Y-70526642D01*
X251782800Y-70541100D01*
X251782800Y-70886100D01*
X251782090Y-70900558D01*
X251779966Y-70914876D01*
X251776449Y-70928917D01*
X251771572Y-70942546D01*
X251765383Y-70955631D01*
X251757942Y-70968047D01*
X251749319Y-70979673D01*
X251739598Y-70990398D01*
X251728873Y-71000119D01*
X251717247Y-71008742D01*
X251704831Y-71016183D01*
X251691746Y-71022372D01*
X251678117Y-71027249D01*
X251664076Y-71030766D01*
X251649758Y-71032890D01*
X251635300Y-71033600D01*
X251340300Y-71033600D01*
X251325842Y-71032890D01*
X251311524Y-71030766D01*
X251297483Y-71027249D01*
X251283854Y-71022372D01*
X251270769Y-71016183D01*
X251258353Y-71008742D01*
X251246727Y-71000119D01*
X251236002Y-70990398D01*
X251226281Y-70979673D01*
X251217658Y-70968047D01*
X251210217Y-70955631D01*
X251204028Y-70942546D01*
X251199151Y-70928917D01*
X251195634Y-70914876D01*
X251193510Y-70900558D01*
X251192800Y-70886100D01*
X251192800Y-70541100D01*
X251193510Y-70526642D01*
X251195634Y-70512324D01*
X251199151Y-70498283D01*
X251204028Y-70484654D01*
X251210217Y-70471569D01*
X251217658Y-70459153D01*
X251226281Y-70447527D01*
X251236002Y-70436802D01*
X251246727Y-70427081D01*
X251258353Y-70418458D01*
X251270769Y-70411017D01*
X251283854Y-70404828D01*
X251297483Y-70399951D01*
X251311524Y-70396434D01*
X251325842Y-70394310D01*
X251340300Y-70393600D01*
X251635300Y-70393600D01*
X251649758Y-70394310D01*
X251649758Y-70394310D01*
G37*
D11*
X251487800Y-70713600D03*
D10*
G36*
X250679758Y-70394310D02*
G01*
X250694076Y-70396434D01*
X250708117Y-70399951D01*
X250721746Y-70404828D01*
X250734831Y-70411017D01*
X250747247Y-70418458D01*
X250758873Y-70427081D01*
X250769598Y-70436802D01*
X250779319Y-70447527D01*
X250787942Y-70459153D01*
X250795383Y-70471569D01*
X250801572Y-70484654D01*
X250806449Y-70498283D01*
X250809966Y-70512324D01*
X250812090Y-70526642D01*
X250812800Y-70541100D01*
X250812800Y-70886100D01*
X250812090Y-70900558D01*
X250809966Y-70914876D01*
X250806449Y-70928917D01*
X250801572Y-70942546D01*
X250795383Y-70955631D01*
X250787942Y-70968047D01*
X250779319Y-70979673D01*
X250769598Y-70990398D01*
X250758873Y-71000119D01*
X250747247Y-71008742D01*
X250734831Y-71016183D01*
X250721746Y-71022372D01*
X250708117Y-71027249D01*
X250694076Y-71030766D01*
X250679758Y-71032890D01*
X250665300Y-71033600D01*
X250370300Y-71033600D01*
X250355842Y-71032890D01*
X250341524Y-71030766D01*
X250327483Y-71027249D01*
X250313854Y-71022372D01*
X250300769Y-71016183D01*
X250288353Y-71008742D01*
X250276727Y-71000119D01*
X250266002Y-70990398D01*
X250256281Y-70979673D01*
X250247658Y-70968047D01*
X250240217Y-70955631D01*
X250234028Y-70942546D01*
X250229151Y-70928917D01*
X250225634Y-70914876D01*
X250223510Y-70900558D01*
X250222800Y-70886100D01*
X250222800Y-70541100D01*
X250223510Y-70526642D01*
X250225634Y-70512324D01*
X250229151Y-70498283D01*
X250234028Y-70484654D01*
X250240217Y-70471569D01*
X250247658Y-70459153D01*
X250256281Y-70447527D01*
X250266002Y-70436802D01*
X250276727Y-70427081D01*
X250288353Y-70418458D01*
X250300769Y-70411017D01*
X250313854Y-70404828D01*
X250327483Y-70399951D01*
X250341524Y-70396434D01*
X250355842Y-70394310D01*
X250370300Y-70393600D01*
X250665300Y-70393600D01*
X250679758Y-70394310D01*
X250679758Y-70394310D01*
G37*
D11*
X250517800Y-70713600D03*
D10*
G36*
X255759758Y-63790310D02*
G01*
X255774076Y-63792434D01*
X255788117Y-63795951D01*
X255801746Y-63800828D01*
X255814831Y-63807017D01*
X255827247Y-63814458D01*
X255838873Y-63823081D01*
X255849598Y-63832802D01*
X255859319Y-63843527D01*
X255867942Y-63855153D01*
X255875383Y-63867569D01*
X255881572Y-63880654D01*
X255886449Y-63894283D01*
X255889966Y-63908324D01*
X255892090Y-63922642D01*
X255892800Y-63937100D01*
X255892800Y-64282100D01*
X255892090Y-64296558D01*
X255889966Y-64310876D01*
X255886449Y-64324917D01*
X255881572Y-64338546D01*
X255875383Y-64351631D01*
X255867942Y-64364047D01*
X255859319Y-64375673D01*
X255849598Y-64386398D01*
X255838873Y-64396119D01*
X255827247Y-64404742D01*
X255814831Y-64412183D01*
X255801746Y-64418372D01*
X255788117Y-64423249D01*
X255774076Y-64426766D01*
X255759758Y-64428890D01*
X255745300Y-64429600D01*
X255450300Y-64429600D01*
X255435842Y-64428890D01*
X255421524Y-64426766D01*
X255407483Y-64423249D01*
X255393854Y-64418372D01*
X255380769Y-64412183D01*
X255368353Y-64404742D01*
X255356727Y-64396119D01*
X255346002Y-64386398D01*
X255336281Y-64375673D01*
X255327658Y-64364047D01*
X255320217Y-64351631D01*
X255314028Y-64338546D01*
X255309151Y-64324917D01*
X255305634Y-64310876D01*
X255303510Y-64296558D01*
X255302800Y-64282100D01*
X255302800Y-63937100D01*
X255303510Y-63922642D01*
X255305634Y-63908324D01*
X255309151Y-63894283D01*
X255314028Y-63880654D01*
X255320217Y-63867569D01*
X255327658Y-63855153D01*
X255336281Y-63843527D01*
X255346002Y-63832802D01*
X255356727Y-63823081D01*
X255368353Y-63814458D01*
X255380769Y-63807017D01*
X255393854Y-63800828D01*
X255407483Y-63795951D01*
X255421524Y-63792434D01*
X255435842Y-63790310D01*
X255450300Y-63789600D01*
X255745300Y-63789600D01*
X255759758Y-63790310D01*
X255759758Y-63790310D01*
G37*
D11*
X255597800Y-64109600D03*
D10*
G36*
X256729758Y-63790310D02*
G01*
X256744076Y-63792434D01*
X256758117Y-63795951D01*
X256771746Y-63800828D01*
X256784831Y-63807017D01*
X256797247Y-63814458D01*
X256808873Y-63823081D01*
X256819598Y-63832802D01*
X256829319Y-63843527D01*
X256837942Y-63855153D01*
X256845383Y-63867569D01*
X256851572Y-63880654D01*
X256856449Y-63894283D01*
X256859966Y-63908324D01*
X256862090Y-63922642D01*
X256862800Y-63937100D01*
X256862800Y-64282100D01*
X256862090Y-64296558D01*
X256859966Y-64310876D01*
X256856449Y-64324917D01*
X256851572Y-64338546D01*
X256845383Y-64351631D01*
X256837942Y-64364047D01*
X256829319Y-64375673D01*
X256819598Y-64386398D01*
X256808873Y-64396119D01*
X256797247Y-64404742D01*
X256784831Y-64412183D01*
X256771746Y-64418372D01*
X256758117Y-64423249D01*
X256744076Y-64426766D01*
X256729758Y-64428890D01*
X256715300Y-64429600D01*
X256420300Y-64429600D01*
X256405842Y-64428890D01*
X256391524Y-64426766D01*
X256377483Y-64423249D01*
X256363854Y-64418372D01*
X256350769Y-64412183D01*
X256338353Y-64404742D01*
X256326727Y-64396119D01*
X256316002Y-64386398D01*
X256306281Y-64375673D01*
X256297658Y-64364047D01*
X256290217Y-64351631D01*
X256284028Y-64338546D01*
X256279151Y-64324917D01*
X256275634Y-64310876D01*
X256273510Y-64296558D01*
X256272800Y-64282100D01*
X256272800Y-63937100D01*
X256273510Y-63922642D01*
X256275634Y-63908324D01*
X256279151Y-63894283D01*
X256284028Y-63880654D01*
X256290217Y-63867569D01*
X256297658Y-63855153D01*
X256306281Y-63843527D01*
X256316002Y-63832802D01*
X256326727Y-63823081D01*
X256338353Y-63814458D01*
X256350769Y-63807017D01*
X256363854Y-63800828D01*
X256377483Y-63795951D01*
X256391524Y-63792434D01*
X256405842Y-63790310D01*
X256420300Y-63789600D01*
X256715300Y-63789600D01*
X256729758Y-63790310D01*
X256729758Y-63790310D01*
G37*
D11*
X256567800Y-64109600D03*
D10*
G36*
X225817958Y-141412710D02*
G01*
X225832276Y-141414834D01*
X225846317Y-141418351D01*
X225859946Y-141423228D01*
X225873031Y-141429417D01*
X225885447Y-141436858D01*
X225897073Y-141445481D01*
X225907798Y-141455202D01*
X225917519Y-141465927D01*
X225926142Y-141477553D01*
X225933583Y-141489969D01*
X225939772Y-141503054D01*
X225944649Y-141516683D01*
X225948166Y-141530724D01*
X225950290Y-141545042D01*
X225951000Y-141559500D01*
X225951000Y-141904500D01*
X225950290Y-141918958D01*
X225948166Y-141933276D01*
X225944649Y-141947317D01*
X225939772Y-141960946D01*
X225933583Y-141974031D01*
X225926142Y-141986447D01*
X225917519Y-141998073D01*
X225907798Y-142008798D01*
X225897073Y-142018519D01*
X225885447Y-142027142D01*
X225873031Y-142034583D01*
X225859946Y-142040772D01*
X225846317Y-142045649D01*
X225832276Y-142049166D01*
X225817958Y-142051290D01*
X225803500Y-142052000D01*
X225508500Y-142052000D01*
X225494042Y-142051290D01*
X225479724Y-142049166D01*
X225465683Y-142045649D01*
X225452054Y-142040772D01*
X225438969Y-142034583D01*
X225426553Y-142027142D01*
X225414927Y-142018519D01*
X225404202Y-142008798D01*
X225394481Y-141998073D01*
X225385858Y-141986447D01*
X225378417Y-141974031D01*
X225372228Y-141960946D01*
X225367351Y-141947317D01*
X225363834Y-141933276D01*
X225361710Y-141918958D01*
X225361000Y-141904500D01*
X225361000Y-141559500D01*
X225361710Y-141545042D01*
X225363834Y-141530724D01*
X225367351Y-141516683D01*
X225372228Y-141503054D01*
X225378417Y-141489969D01*
X225385858Y-141477553D01*
X225394481Y-141465927D01*
X225404202Y-141455202D01*
X225414927Y-141445481D01*
X225426553Y-141436858D01*
X225438969Y-141429417D01*
X225452054Y-141423228D01*
X225465683Y-141418351D01*
X225479724Y-141414834D01*
X225494042Y-141412710D01*
X225508500Y-141412000D01*
X225803500Y-141412000D01*
X225817958Y-141412710D01*
X225817958Y-141412710D01*
G37*
D11*
X225656000Y-141732000D03*
D10*
G36*
X224847958Y-141412710D02*
G01*
X224862276Y-141414834D01*
X224876317Y-141418351D01*
X224889946Y-141423228D01*
X224903031Y-141429417D01*
X224915447Y-141436858D01*
X224927073Y-141445481D01*
X224937798Y-141455202D01*
X224947519Y-141465927D01*
X224956142Y-141477553D01*
X224963583Y-141489969D01*
X224969772Y-141503054D01*
X224974649Y-141516683D01*
X224978166Y-141530724D01*
X224980290Y-141545042D01*
X224981000Y-141559500D01*
X224981000Y-141904500D01*
X224980290Y-141918958D01*
X224978166Y-141933276D01*
X224974649Y-141947317D01*
X224969772Y-141960946D01*
X224963583Y-141974031D01*
X224956142Y-141986447D01*
X224947519Y-141998073D01*
X224937798Y-142008798D01*
X224927073Y-142018519D01*
X224915447Y-142027142D01*
X224903031Y-142034583D01*
X224889946Y-142040772D01*
X224876317Y-142045649D01*
X224862276Y-142049166D01*
X224847958Y-142051290D01*
X224833500Y-142052000D01*
X224538500Y-142052000D01*
X224524042Y-142051290D01*
X224509724Y-142049166D01*
X224495683Y-142045649D01*
X224482054Y-142040772D01*
X224468969Y-142034583D01*
X224456553Y-142027142D01*
X224444927Y-142018519D01*
X224434202Y-142008798D01*
X224424481Y-141998073D01*
X224415858Y-141986447D01*
X224408417Y-141974031D01*
X224402228Y-141960946D01*
X224397351Y-141947317D01*
X224393834Y-141933276D01*
X224391710Y-141918958D01*
X224391000Y-141904500D01*
X224391000Y-141559500D01*
X224391710Y-141545042D01*
X224393834Y-141530724D01*
X224397351Y-141516683D01*
X224402228Y-141503054D01*
X224408417Y-141489969D01*
X224415858Y-141477553D01*
X224424481Y-141465927D01*
X224434202Y-141455202D01*
X224444927Y-141445481D01*
X224456553Y-141436858D01*
X224468969Y-141429417D01*
X224482054Y-141423228D01*
X224495683Y-141418351D01*
X224509724Y-141414834D01*
X224524042Y-141412710D01*
X224538500Y-141412000D01*
X224833500Y-141412000D01*
X224847958Y-141412710D01*
X224847958Y-141412710D01*
G37*
D11*
X224686000Y-141732000D03*
D10*
G36*
X229927958Y-135697710D02*
G01*
X229942276Y-135699834D01*
X229956317Y-135703351D01*
X229969946Y-135708228D01*
X229983031Y-135714417D01*
X229995447Y-135721858D01*
X230007073Y-135730481D01*
X230017798Y-135740202D01*
X230027519Y-135750927D01*
X230036142Y-135762553D01*
X230043583Y-135774969D01*
X230049772Y-135788054D01*
X230054649Y-135801683D01*
X230058166Y-135815724D01*
X230060290Y-135830042D01*
X230061000Y-135844500D01*
X230061000Y-136189500D01*
X230060290Y-136203958D01*
X230058166Y-136218276D01*
X230054649Y-136232317D01*
X230049772Y-136245946D01*
X230043583Y-136259031D01*
X230036142Y-136271447D01*
X230027519Y-136283073D01*
X230017798Y-136293798D01*
X230007073Y-136303519D01*
X229995447Y-136312142D01*
X229983031Y-136319583D01*
X229969946Y-136325772D01*
X229956317Y-136330649D01*
X229942276Y-136334166D01*
X229927958Y-136336290D01*
X229913500Y-136337000D01*
X229618500Y-136337000D01*
X229604042Y-136336290D01*
X229589724Y-136334166D01*
X229575683Y-136330649D01*
X229562054Y-136325772D01*
X229548969Y-136319583D01*
X229536553Y-136312142D01*
X229524927Y-136303519D01*
X229514202Y-136293798D01*
X229504481Y-136283073D01*
X229495858Y-136271447D01*
X229488417Y-136259031D01*
X229482228Y-136245946D01*
X229477351Y-136232317D01*
X229473834Y-136218276D01*
X229471710Y-136203958D01*
X229471000Y-136189500D01*
X229471000Y-135844500D01*
X229471710Y-135830042D01*
X229473834Y-135815724D01*
X229477351Y-135801683D01*
X229482228Y-135788054D01*
X229488417Y-135774969D01*
X229495858Y-135762553D01*
X229504481Y-135750927D01*
X229514202Y-135740202D01*
X229524927Y-135730481D01*
X229536553Y-135721858D01*
X229548969Y-135714417D01*
X229562054Y-135708228D01*
X229575683Y-135703351D01*
X229589724Y-135699834D01*
X229604042Y-135697710D01*
X229618500Y-135697000D01*
X229913500Y-135697000D01*
X229927958Y-135697710D01*
X229927958Y-135697710D01*
G37*
D11*
X229766000Y-136017000D03*
D10*
G36*
X230897958Y-135697710D02*
G01*
X230912276Y-135699834D01*
X230926317Y-135703351D01*
X230939946Y-135708228D01*
X230953031Y-135714417D01*
X230965447Y-135721858D01*
X230977073Y-135730481D01*
X230987798Y-135740202D01*
X230997519Y-135750927D01*
X231006142Y-135762553D01*
X231013583Y-135774969D01*
X231019772Y-135788054D01*
X231024649Y-135801683D01*
X231028166Y-135815724D01*
X231030290Y-135830042D01*
X231031000Y-135844500D01*
X231031000Y-136189500D01*
X231030290Y-136203958D01*
X231028166Y-136218276D01*
X231024649Y-136232317D01*
X231019772Y-136245946D01*
X231013583Y-136259031D01*
X231006142Y-136271447D01*
X230997519Y-136283073D01*
X230987798Y-136293798D01*
X230977073Y-136303519D01*
X230965447Y-136312142D01*
X230953031Y-136319583D01*
X230939946Y-136325772D01*
X230926317Y-136330649D01*
X230912276Y-136334166D01*
X230897958Y-136336290D01*
X230883500Y-136337000D01*
X230588500Y-136337000D01*
X230574042Y-136336290D01*
X230559724Y-136334166D01*
X230545683Y-136330649D01*
X230532054Y-136325772D01*
X230518969Y-136319583D01*
X230506553Y-136312142D01*
X230494927Y-136303519D01*
X230484202Y-136293798D01*
X230474481Y-136283073D01*
X230465858Y-136271447D01*
X230458417Y-136259031D01*
X230452228Y-136245946D01*
X230447351Y-136232317D01*
X230443834Y-136218276D01*
X230441710Y-136203958D01*
X230441000Y-136189500D01*
X230441000Y-135844500D01*
X230441710Y-135830042D01*
X230443834Y-135815724D01*
X230447351Y-135801683D01*
X230452228Y-135788054D01*
X230458417Y-135774969D01*
X230465858Y-135762553D01*
X230474481Y-135750927D01*
X230484202Y-135740202D01*
X230494927Y-135730481D01*
X230506553Y-135721858D01*
X230518969Y-135714417D01*
X230532054Y-135708228D01*
X230545683Y-135703351D01*
X230559724Y-135699834D01*
X230574042Y-135697710D01*
X230588500Y-135697000D01*
X230883500Y-135697000D01*
X230897958Y-135697710D01*
X230897958Y-135697710D01*
G37*
D11*
X230736000Y-136017000D03*
D10*
G36*
X225817958Y-143571710D02*
G01*
X225832276Y-143573834D01*
X225846317Y-143577351D01*
X225859946Y-143582228D01*
X225873031Y-143588417D01*
X225885447Y-143595858D01*
X225897073Y-143604481D01*
X225907798Y-143614202D01*
X225917519Y-143624927D01*
X225926142Y-143636553D01*
X225933583Y-143648969D01*
X225939772Y-143662054D01*
X225944649Y-143675683D01*
X225948166Y-143689724D01*
X225950290Y-143704042D01*
X225951000Y-143718500D01*
X225951000Y-144063500D01*
X225950290Y-144077958D01*
X225948166Y-144092276D01*
X225944649Y-144106317D01*
X225939772Y-144119946D01*
X225933583Y-144133031D01*
X225926142Y-144145447D01*
X225917519Y-144157073D01*
X225907798Y-144167798D01*
X225897073Y-144177519D01*
X225885447Y-144186142D01*
X225873031Y-144193583D01*
X225859946Y-144199772D01*
X225846317Y-144204649D01*
X225832276Y-144208166D01*
X225817958Y-144210290D01*
X225803500Y-144211000D01*
X225508500Y-144211000D01*
X225494042Y-144210290D01*
X225479724Y-144208166D01*
X225465683Y-144204649D01*
X225452054Y-144199772D01*
X225438969Y-144193583D01*
X225426553Y-144186142D01*
X225414927Y-144177519D01*
X225404202Y-144167798D01*
X225394481Y-144157073D01*
X225385858Y-144145447D01*
X225378417Y-144133031D01*
X225372228Y-144119946D01*
X225367351Y-144106317D01*
X225363834Y-144092276D01*
X225361710Y-144077958D01*
X225361000Y-144063500D01*
X225361000Y-143718500D01*
X225361710Y-143704042D01*
X225363834Y-143689724D01*
X225367351Y-143675683D01*
X225372228Y-143662054D01*
X225378417Y-143648969D01*
X225385858Y-143636553D01*
X225394481Y-143624927D01*
X225404202Y-143614202D01*
X225414927Y-143604481D01*
X225426553Y-143595858D01*
X225438969Y-143588417D01*
X225452054Y-143582228D01*
X225465683Y-143577351D01*
X225479724Y-143573834D01*
X225494042Y-143571710D01*
X225508500Y-143571000D01*
X225803500Y-143571000D01*
X225817958Y-143571710D01*
X225817958Y-143571710D01*
G37*
D11*
X225656000Y-143891000D03*
D10*
G36*
X224847958Y-143571710D02*
G01*
X224862276Y-143573834D01*
X224876317Y-143577351D01*
X224889946Y-143582228D01*
X224903031Y-143588417D01*
X224915447Y-143595858D01*
X224927073Y-143604481D01*
X224937798Y-143614202D01*
X224947519Y-143624927D01*
X224956142Y-143636553D01*
X224963583Y-143648969D01*
X224969772Y-143662054D01*
X224974649Y-143675683D01*
X224978166Y-143689724D01*
X224980290Y-143704042D01*
X224981000Y-143718500D01*
X224981000Y-144063500D01*
X224980290Y-144077958D01*
X224978166Y-144092276D01*
X224974649Y-144106317D01*
X224969772Y-144119946D01*
X224963583Y-144133031D01*
X224956142Y-144145447D01*
X224947519Y-144157073D01*
X224937798Y-144167798D01*
X224927073Y-144177519D01*
X224915447Y-144186142D01*
X224903031Y-144193583D01*
X224889946Y-144199772D01*
X224876317Y-144204649D01*
X224862276Y-144208166D01*
X224847958Y-144210290D01*
X224833500Y-144211000D01*
X224538500Y-144211000D01*
X224524042Y-144210290D01*
X224509724Y-144208166D01*
X224495683Y-144204649D01*
X224482054Y-144199772D01*
X224468969Y-144193583D01*
X224456553Y-144186142D01*
X224444927Y-144177519D01*
X224434202Y-144167798D01*
X224424481Y-144157073D01*
X224415858Y-144145447D01*
X224408417Y-144133031D01*
X224402228Y-144119946D01*
X224397351Y-144106317D01*
X224393834Y-144092276D01*
X224391710Y-144077958D01*
X224391000Y-144063500D01*
X224391000Y-143718500D01*
X224391710Y-143704042D01*
X224393834Y-143689724D01*
X224397351Y-143675683D01*
X224402228Y-143662054D01*
X224408417Y-143648969D01*
X224415858Y-143636553D01*
X224424481Y-143624927D01*
X224434202Y-143614202D01*
X224444927Y-143604481D01*
X224456553Y-143595858D01*
X224468969Y-143588417D01*
X224482054Y-143582228D01*
X224495683Y-143577351D01*
X224509724Y-143573834D01*
X224524042Y-143571710D01*
X224538500Y-143571000D01*
X224833500Y-143571000D01*
X224847958Y-143571710D01*
X224847958Y-143571710D01*
G37*
D11*
X224686000Y-143891000D03*
D10*
G36*
X229927958Y-137602710D02*
G01*
X229942276Y-137604834D01*
X229956317Y-137608351D01*
X229969946Y-137613228D01*
X229983031Y-137619417D01*
X229995447Y-137626858D01*
X230007073Y-137635481D01*
X230017798Y-137645202D01*
X230027519Y-137655927D01*
X230036142Y-137667553D01*
X230043583Y-137679969D01*
X230049772Y-137693054D01*
X230054649Y-137706683D01*
X230058166Y-137720724D01*
X230060290Y-137735042D01*
X230061000Y-137749500D01*
X230061000Y-138094500D01*
X230060290Y-138108958D01*
X230058166Y-138123276D01*
X230054649Y-138137317D01*
X230049772Y-138150946D01*
X230043583Y-138164031D01*
X230036142Y-138176447D01*
X230027519Y-138188073D01*
X230017798Y-138198798D01*
X230007073Y-138208519D01*
X229995447Y-138217142D01*
X229983031Y-138224583D01*
X229969946Y-138230772D01*
X229956317Y-138235649D01*
X229942276Y-138239166D01*
X229927958Y-138241290D01*
X229913500Y-138242000D01*
X229618500Y-138242000D01*
X229604042Y-138241290D01*
X229589724Y-138239166D01*
X229575683Y-138235649D01*
X229562054Y-138230772D01*
X229548969Y-138224583D01*
X229536553Y-138217142D01*
X229524927Y-138208519D01*
X229514202Y-138198798D01*
X229504481Y-138188073D01*
X229495858Y-138176447D01*
X229488417Y-138164031D01*
X229482228Y-138150946D01*
X229477351Y-138137317D01*
X229473834Y-138123276D01*
X229471710Y-138108958D01*
X229471000Y-138094500D01*
X229471000Y-137749500D01*
X229471710Y-137735042D01*
X229473834Y-137720724D01*
X229477351Y-137706683D01*
X229482228Y-137693054D01*
X229488417Y-137679969D01*
X229495858Y-137667553D01*
X229504481Y-137655927D01*
X229514202Y-137645202D01*
X229524927Y-137635481D01*
X229536553Y-137626858D01*
X229548969Y-137619417D01*
X229562054Y-137613228D01*
X229575683Y-137608351D01*
X229589724Y-137604834D01*
X229604042Y-137602710D01*
X229618500Y-137602000D01*
X229913500Y-137602000D01*
X229927958Y-137602710D01*
X229927958Y-137602710D01*
G37*
D11*
X229766000Y-137922000D03*
D10*
G36*
X230897958Y-137602710D02*
G01*
X230912276Y-137604834D01*
X230926317Y-137608351D01*
X230939946Y-137613228D01*
X230953031Y-137619417D01*
X230965447Y-137626858D01*
X230977073Y-137635481D01*
X230987798Y-137645202D01*
X230997519Y-137655927D01*
X231006142Y-137667553D01*
X231013583Y-137679969D01*
X231019772Y-137693054D01*
X231024649Y-137706683D01*
X231028166Y-137720724D01*
X231030290Y-137735042D01*
X231031000Y-137749500D01*
X231031000Y-138094500D01*
X231030290Y-138108958D01*
X231028166Y-138123276D01*
X231024649Y-138137317D01*
X231019772Y-138150946D01*
X231013583Y-138164031D01*
X231006142Y-138176447D01*
X230997519Y-138188073D01*
X230987798Y-138198798D01*
X230977073Y-138208519D01*
X230965447Y-138217142D01*
X230953031Y-138224583D01*
X230939946Y-138230772D01*
X230926317Y-138235649D01*
X230912276Y-138239166D01*
X230897958Y-138241290D01*
X230883500Y-138242000D01*
X230588500Y-138242000D01*
X230574042Y-138241290D01*
X230559724Y-138239166D01*
X230545683Y-138235649D01*
X230532054Y-138230772D01*
X230518969Y-138224583D01*
X230506553Y-138217142D01*
X230494927Y-138208519D01*
X230484202Y-138198798D01*
X230474481Y-138188073D01*
X230465858Y-138176447D01*
X230458417Y-138164031D01*
X230452228Y-138150946D01*
X230447351Y-138137317D01*
X230443834Y-138123276D01*
X230441710Y-138108958D01*
X230441000Y-138094500D01*
X230441000Y-137749500D01*
X230441710Y-137735042D01*
X230443834Y-137720724D01*
X230447351Y-137706683D01*
X230452228Y-137693054D01*
X230458417Y-137679969D01*
X230465858Y-137667553D01*
X230474481Y-137655927D01*
X230484202Y-137645202D01*
X230494927Y-137635481D01*
X230506553Y-137626858D01*
X230518969Y-137619417D01*
X230532054Y-137613228D01*
X230545683Y-137608351D01*
X230559724Y-137604834D01*
X230574042Y-137602710D01*
X230588500Y-137602000D01*
X230883500Y-137602000D01*
X230897958Y-137602710D01*
X230897958Y-137602710D01*
G37*
D11*
X230736000Y-137922000D03*
M02*
